<?xml version="1.0" encoding="UTF-8" standalone="no"?>
<!DOCTYPE svg PUBLIC "-//W3C//DTD SVG 1.1//EN"
 "http://www.w3.org/Graphics/SVG/1.1/DTD/svg11.dtd">
<!-- Generated by graphviz version 12.0.0 (0)
 -->
<!-- Title: oneDegreeRelationshipsDiagram Pages: 1 -->
<svg width="1844pt" height="1147pt"
 viewBox="0.00 0.00 1844.01 1147.47" xmlns="http://www.w3.org/2000/svg" xmlns:xlink="http://www.w3.org/1999/xlink">
<g id="graph0" class="graph" transform="scale(1 1) rotate(0) translate(4 1143.47)">
<title>oneDegreeRelationshipsDiagram</title>
<polygon fill="#ffffff" stroke="none" points="-4,4 -4,-1143.47 1840.01,-1143.47 1840.01,4 -4,4"/>
<text text-anchor="middle" x="71.38" y="-7.05" font-family="Helvetica,sans-Serif" font-size="11.00">Generated by SchemaSpy</text>
<!-- account_account -->
<g id="node1" class="node">
<title>account_account</title>
<g id="a_node1"><a xlink:href="../../tables/account_account.html" xlink:title="account_account" target="_top">
<polygon fill="#ffffff" stroke="none" points="455.01,-531.09 455.01,-702.09 674.01,-702.09 674.01,-531.09 455.01,-531.09"/>
<polygon fill="#f5f5f5" stroke="none" points="455.01,-679.09 455.01,-702.09 674.01,-702.09 674.01,-679.09 455.01,-679.09"/>
<polygon fill="none" stroke="black" points="455.01,-679.09 455.01,-702.09 674.01,-702.09 674.01,-679.09 455.01,-679.09"/>
<text text-anchor="start" x="460.01" y="-686.89" font-family="Helvetica,sans-Serif" font-weight="bold" font-size="11.00">account_account</text>
<text text-anchor="start" x="639.76" y="-686.64" font-family="Helvetica,sans-Serif" font-size="11.00">[table]</text>
<polygon fill="none" stroke="black" points="455.01,-657.09 455.01,-679.09 674.01,-679.09 674.01,-657.09 455.01,-657.09"/>
<image xlink:href="../../images/primaryKeys.png" width="11px" height="12px" preserveAspectRatio="xMinYMin meet" x="460.005" y="-674.093"/>
<text text-anchor="start" x="475.01" y="-663.64" font-family="Helvetica,sans-Serif" font-size="11.00">id</text>
<polygon fill="none" stroke="black" points="455.01,-635.09 455.01,-657.09 674.01,-657.09 674.01,-635.09 455.01,-635.09"/>
<image xlink:href="../../images/foreignKeys.png" width="11px" height="12px" preserveAspectRatio="xMinYMin meet" x="460.005" y="-652.093"/>
<text text-anchor="start" x="475.01" y="-641.64" font-family="Helvetica,sans-Serif" font-size="11.00">create_uid</text>
<polygon fill="none" stroke="black" points="455.01,-613.09 455.01,-635.09 674.01,-635.09 674.01,-613.09 455.01,-613.09"/>
<image xlink:href="../../images/foreignKeys.png" width="11px" height="12px" preserveAspectRatio="xMinYMin meet" x="460.005" y="-630.093"/>
<text text-anchor="start" x="475.01" y="-619.64" font-family="Helvetica,sans-Serif" font-size="11.00">write_uid</text>
<polygon fill="#ffffff" stroke="none" points="455.01,-591.09 455.01,-613.09 674.01,-613.09 674.01,-591.09 455.01,-591.09"/>
<polygon fill="none" stroke="black" points="455.01,-591.09 455.01,-613.09 674.01,-613.09 674.01,-591.09 455.01,-591.09"/>
<text text-anchor="start" x="475.01" y="-597.64" font-family="Helvetica,sans-Serif" font-size="11.00">code</text>
<polygon fill="#ffffff" stroke="none" points="455.01,-569.09 455.01,-591.09 674.01,-591.09 674.01,-569.09 455.01,-569.09"/>
<polygon fill="none" stroke="black" points="455.01,-569.09 455.01,-591.09 674.01,-591.09 674.01,-569.09 455.01,-569.09"/>
<text text-anchor="start" x="475.01" y="-575.64" font-family="Helvetica,sans-Serif" font-size="11.00">account_type</text>
<polygon fill="none" stroke="black" points="455.01,-550.09 455.01,-569.09 674.01,-569.09 674.01,-550.09 455.01,-550.09"/>
<text text-anchor="start" x="458.01" y="-555.64" font-family="Helvetica,sans-Serif" font-size="11.00">...</text>
<polygon fill="#ffffff" stroke="none" points="455.01,-531.09 455.01,-550.09 558.01,-550.09 558.01,-531.09 455.01,-531.09"/>
<polygon fill="none" stroke="black" points="455.01,-531.09 455.01,-550.09 558.01,-550.09 558.01,-531.09 455.01,-531.09"/>
<text text-anchor="start" x="458.01" y="-536.64" font-family="Helvetica,sans-Serif" font-size="11.00">&lt; 2</text>
<polygon fill="#ffffff" stroke="none" points="558.01,-531.09 558.01,-550.09 611.01,-550.09 611.01,-531.09 558.01,-531.09"/>
<polygon fill="none" stroke="black" points="558.01,-531.09 558.01,-550.09 611.01,-550.09 611.01,-531.09 558.01,-531.09"/>
<text text-anchor="start" x="602.01" y="-536.64" font-family="Helvetica,sans-Serif" font-size="11.00"> &#160;</text>
<polygon fill="#ffffff" stroke="none" points="611.01,-531.09 611.01,-550.09 674.01,-550.09 674.01,-531.09 611.01,-531.09"/>
<polygon fill="none" stroke="black" points="611.01,-531.09 611.01,-550.09 674.01,-550.09 674.01,-531.09 611.01,-531.09"/>
<text text-anchor="start" x="655.26" y="-536.64" font-family="Helvetica,sans-Serif" font-size="11.00">8 &gt;</text>
</a>
</g>
</g>
<!-- res_users -->
<g id="node2" class="node">
<title>res_users</title>
<g id="a_node2"><a xlink:href="../../tables/res_users.html" xlink:title="res_users" target="_top">
<polygon fill="#ffffff" stroke="none" points="258.01,-334.09 258.01,-527.09 406.01,-527.09 406.01,-334.09 258.01,-334.09"/>
<polygon fill="#f5f5f5" stroke="none" points="258.01,-504.09 258.01,-527.09 406.01,-527.09 406.01,-504.09 258.01,-504.09"/>
<polygon fill="none" stroke="black" points="258.01,-504.09 258.01,-527.09 406.01,-527.09 406.01,-504.09 258.01,-504.09"/>
<text text-anchor="start" x="262.63" y="-511.89" font-family="Helvetica,sans-Serif" font-weight="bold" font-size="11.00">res_users</text>
<text text-anchor="start" x="371.76" y="-511.64" font-family="Helvetica,sans-Serif" font-size="11.00">[table]</text>
<polygon fill="none" stroke="black" points="258.01,-482.09 258.01,-504.09 406.01,-504.09 406.01,-482.09 258.01,-482.09"/>
<image xlink:href="../../images/primaryKeys.png" width="11px" height="12px" preserveAspectRatio="xMinYMin meet" x="263.005" y="-499.093"/>
<text text-anchor="start" x="278.01" y="-488.64" font-family="Helvetica,sans-Serif" font-size="11.00">id</text>
<polygon fill="#ffffff" stroke="none" points="258.01,-460.09 258.01,-482.09 406.01,-482.09 406.01,-460.09 258.01,-460.09"/>
<polygon fill="none" stroke="black" points="258.01,-460.09 258.01,-482.09 406.01,-482.09 406.01,-460.09 258.01,-460.09"/>
<image xlink:href="../../images/foreignKeys.png" width="11px" height="12px" preserveAspectRatio="xMinYMin meet" x="263.005" y="-477.093"/>
<text text-anchor="start" x="278.01" y="-466.64" font-family="Helvetica,sans-Serif" font-size="11.00">partner_id</text>
<polygon fill="#ffffff" stroke="none" points="258.01,-438.09 258.01,-460.09 406.01,-460.09 406.01,-438.09 258.01,-438.09"/>
<polygon fill="none" stroke="black" points="258.01,-438.09 258.01,-460.09 406.01,-460.09 406.01,-438.09 258.01,-438.09"/>
<text text-anchor="start" x="278.01" y="-444.64" font-family="Helvetica,sans-Serif" font-size="11.00">login</text>
<polygon fill="none" stroke="black" points="258.01,-416.09 258.01,-438.09 406.01,-438.09 406.01,-416.09 258.01,-416.09"/>
<image xlink:href="../../images/foreignKeys.png" width="11px" height="12px" preserveAspectRatio="xMinYMin meet" x="263.005" y="-433.093"/>
<text text-anchor="start" x="278.01" y="-422.64" font-family="Helvetica,sans-Serif" font-size="11.00">create_uid</text>
<polygon fill="none" stroke="black" points="258.01,-394.09 258.01,-416.09 406.01,-416.09 406.01,-394.09 258.01,-394.09"/>
<image xlink:href="../../images/foreignKeys.png" width="11px" height="12px" preserveAspectRatio="xMinYMin meet" x="263.005" y="-411.093"/>
<text text-anchor="start" x="278.01" y="-400.64" font-family="Helvetica,sans-Serif" font-size="11.00">write_uid</text>
<polygon fill="none" stroke="black" points="258.01,-372.09 258.01,-394.09 406.01,-394.09 406.01,-372.09 258.01,-372.09"/>
<image xlink:href="../../images/foreignKeys.png" width="11px" height="12px" preserveAspectRatio="xMinYMin meet" x="263.005" y="-389.093"/>
<text text-anchor="start" x="278.01" y="-378.64" font-family="Helvetica,sans-Serif" font-size="11.00">sale_team_id</text>
<polygon fill="none" stroke="black" points="258.01,-353.09 258.01,-372.09 406.01,-372.09 406.01,-353.09 258.01,-353.09"/>
<text text-anchor="start" x="261.01" y="-358.64" font-family="Helvetica,sans-Serif" font-size="11.00">...</text>
<polygon fill="#ffffff" stroke="none" points="258.01,-334.09 258.01,-353.09 323.01,-353.09 323.01,-334.09 258.01,-334.09"/>
<polygon fill="none" stroke="black" points="258.01,-334.09 258.01,-353.09 323.01,-353.09 323.01,-334.09 258.01,-334.09"/>
<text text-anchor="start" x="261.01" y="-339.64" font-family="Helvetica,sans-Serif" font-size="11.00">&lt; 4</text>
<polygon fill="#ffffff" stroke="none" points="323.01,-334.09 323.01,-353.09 357.01,-353.09 357.01,-334.09 323.01,-334.09"/>
<polygon fill="none" stroke="black" points="323.01,-334.09 323.01,-353.09 357.01,-353.09 357.01,-334.09 323.01,-334.09"/>
<text text-anchor="start" x="348.01" y="-339.64" font-family="Helvetica,sans-Serif" font-size="11.00"> &#160;</text>
<polygon fill="#ffffff" stroke="none" points="357.01,-334.09 357.01,-353.09 406.01,-353.09 406.01,-334.09 357.01,-334.09"/>
<polygon fill="none" stroke="black" points="357.01,-334.09 357.01,-353.09 406.01,-353.09 406.01,-334.09 357.01,-334.09"/>
<text text-anchor="start" x="381.26" y="-339.64" font-family="Helvetica,sans-Serif" font-size="11.00">65 &gt;</text>
</a>
</g>
</g>
<!-- account_account&#45;&gt;res_users -->
<g id="edge1" class="edge">
<title>account_account:w&#45;&gt;res_users:e</title>
<path fill="none" stroke="black" d="M438.62,-642.61C398.64,-619.84 471.75,-493.09 407.01,-493.09"/>
<polygon fill="black" stroke="black" points="445.88,-644.25 452.88,-649.53 450.1,-645.21 453.35,-645.95 453.35,-645.95 453.35,-645.95 450.1,-645.21 454.47,-642.51 445.88,-644.25"/>
<ellipse fill="none" stroke="black" cx="441.08" cy="-643.17" rx="3.2" ry="3.2"/>
</g>
<!-- account_account&#45;&gt;res_users -->
<g id="edge2" class="edge">
<title>account_account:w&#45;&gt;res_users:e</title>
<path fill="none" stroke="black" d="M438.73,-620.03C406.79,-597.92 462.34,-493.09 407.01,-493.09"/>
<polygon fill="black" stroke="black" points="445.95,-621.95 452.76,-627.49 450.14,-623.06 453.36,-623.92 453.36,-623.92 453.36,-623.92 450.14,-623.06 454.61,-620.53 445.95,-621.95"/>
<ellipse fill="none" stroke="black" cx="441.2" cy="-620.69" rx="3.2" ry="3.2"/>
</g>
<!-- res_partner -->
<g id="node5" class="node">
<title>res_partner</title>
<g id="a_node5"><a xlink:href="../../tables/res_partner.html" xlink:title="res_partner" target="_top">
<polygon fill="#ffffff" stroke="none" points="19.01,-510.09 19.01,-945.09 209.01,-945.09 209.01,-510.09 19.01,-510.09"/>
<polygon fill="#f5f5f5" stroke="none" points="19.01,-922.09 19.01,-945.09 209.01,-945.09 209.01,-922.09 19.01,-922.09"/>
<polygon fill="none" stroke="black" points="19.01,-922.09 19.01,-945.09 209.01,-945.09 209.01,-922.09 19.01,-922.09"/>
<text text-anchor="start" x="24.01" y="-929.89" font-family="Helvetica,sans-Serif" font-weight="bold" font-size="11.00">res_partner</text>
<text text-anchor="start" x="174.76" y="-929.64" font-family="Helvetica,sans-Serif" font-size="11.00">[table]</text>
<polygon fill="none" stroke="black" points="19.01,-900.09 19.01,-922.09 209.01,-922.09 209.01,-900.09 19.01,-900.09"/>
<image xlink:href="../../images/primaryKeys.png" width="11px" height="12px" preserveAspectRatio="xMinYMin meet" x="24.0051" y="-917.093"/>
<text text-anchor="start" x="39.01" y="-906.64" font-family="Helvetica,sans-Serif" font-size="11.00">id</text>
<polygon fill="#ffffff" stroke="none" points="19.01,-878.09 19.01,-900.09 209.01,-900.09 209.01,-878.09 19.01,-878.09"/>
<polygon fill="none" stroke="black" points="19.01,-878.09 19.01,-900.09 209.01,-900.09 209.01,-878.09 19.01,-878.09"/>
<text text-anchor="start" x="39.01" y="-884.64" font-family="Helvetica,sans-Serif" font-size="11.00">company_id</text>
<polygon fill="#ffffff" stroke="none" points="19.01,-856.09 19.01,-878.09 209.01,-878.09 209.01,-856.09 19.01,-856.09"/>
<polygon fill="none" stroke="black" points="19.01,-856.09 19.01,-878.09 209.01,-878.09 209.01,-856.09 19.01,-856.09"/>
<text text-anchor="start" x="39.01" y="-862.64" font-family="Helvetica,sans-Serif" font-size="11.00">name</text>
<polygon fill="#ffffff" stroke="none" points="19.01,-834.09 19.01,-856.09 209.01,-856.09 209.01,-834.09 19.01,-834.09"/>
<polygon fill="none" stroke="black" points="19.01,-834.09 19.01,-856.09 209.01,-856.09 209.01,-834.09 19.01,-834.09"/>
<image xlink:href="../../images/foreignKeys.png" width="11px" height="12px" preserveAspectRatio="xMinYMin meet" x="24.0051" y="-851.093"/>
<text text-anchor="start" x="39.01" y="-840.64" font-family="Helvetica,sans-Serif" font-size="11.00">parent_id</text>
<polygon fill="none" stroke="black" points="19.01,-812.09 19.01,-834.09 209.01,-834.09 209.01,-812.09 19.01,-812.09"/>
<image xlink:href="../../images/foreignKeys.png" width="11px" height="12px" preserveAspectRatio="xMinYMin meet" x="24.0051" y="-829.093"/>
<text text-anchor="start" x="39.01" y="-818.64" font-family="Helvetica,sans-Serif" font-size="11.00">user_id</text>
<polygon fill="none" stroke="black" points="19.01,-790.09 19.01,-812.09 209.01,-812.09 209.01,-790.09 19.01,-790.09"/>
<image xlink:href="../../images/foreignKeys.png" width="11px" height="12px" preserveAspectRatio="xMinYMin meet" x="24.0051" y="-807.093"/>
<text text-anchor="start" x="39.01" y="-796.64" font-family="Helvetica,sans-Serif" font-size="11.00">country_id</text>
<polygon fill="#ffffff" stroke="none" points="19.01,-768.09 19.01,-790.09 209.01,-790.09 209.01,-768.09 19.01,-768.09"/>
<polygon fill="none" stroke="black" points="19.01,-768.09 19.01,-790.09 209.01,-790.09 209.01,-768.09 19.01,-768.09"/>
<image xlink:href="../../images/foreignKeys.png" width="11px" height="12px" preserveAspectRatio="xMinYMin meet" x="24.0051" y="-785.093"/>
<text text-anchor="start" x="39.01" y="-774.64" font-family="Helvetica,sans-Serif" font-size="11.00">commercial_partner_id</text>
<polygon fill="none" stroke="black" points="19.01,-746.09 19.01,-768.09 209.01,-768.09 209.01,-746.09 19.01,-746.09"/>
<image xlink:href="../../images/foreignKeys.png" width="11px" height="12px" preserveAspectRatio="xMinYMin meet" x="24.0051" y="-763.093"/>
<text text-anchor="start" x="39.01" y="-752.64" font-family="Helvetica,sans-Serif" font-size="11.00">create_uid</text>
<polygon fill="none" stroke="black" points="19.01,-724.09 19.01,-746.09 209.01,-746.09 209.01,-724.09 19.01,-724.09"/>
<image xlink:href="../../images/foreignKeys.png" width="11px" height="12px" preserveAspectRatio="xMinYMin meet" x="24.0051" y="-741.093"/>
<text text-anchor="start" x="39.01" y="-730.64" font-family="Helvetica,sans-Serif" font-size="11.00">write_uid</text>
<polygon fill="#ffffff" stroke="none" points="19.01,-702.09 19.01,-724.09 209.01,-724.09 209.01,-702.09 19.01,-702.09"/>
<polygon fill="none" stroke="black" points="19.01,-702.09 19.01,-724.09 209.01,-724.09 209.01,-702.09 19.01,-702.09"/>
<text text-anchor="start" x="39.01" y="-708.64" font-family="Helvetica,sans-Serif" font-size="11.00">complete_name</text>
<polygon fill="#ffffff" stroke="none" points="19.01,-680.09 19.01,-702.09 209.01,-702.09 209.01,-680.09 19.01,-680.09"/>
<polygon fill="none" stroke="black" points="19.01,-680.09 19.01,-702.09 209.01,-702.09 209.01,-680.09 19.01,-680.09"/>
<text text-anchor="start" x="39.01" y="-686.64" font-family="Helvetica,sans-Serif" font-size="11.00">ref</text>
<polygon fill="#ffffff" stroke="none" points="19.01,-658.09 19.01,-680.09 209.01,-680.09 209.01,-658.09 19.01,-658.09"/>
<polygon fill="none" stroke="black" points="19.01,-658.09 19.01,-680.09 209.01,-680.09 209.01,-658.09 19.01,-658.09"/>
<text text-anchor="start" x="39.01" y="-664.64" font-family="Helvetica,sans-Serif" font-size="11.00">vat</text>
<polygon fill="#ffffff" stroke="none" points="19.01,-636.09 19.01,-658.09 209.01,-658.09 209.01,-636.09 19.01,-636.09"/>
<polygon fill="none" stroke="black" points="19.01,-636.09 19.01,-658.09 209.01,-658.09 209.01,-636.09 19.01,-636.09"/>
<text text-anchor="start" x="39.01" y="-642.64" font-family="Helvetica,sans-Serif" font-size="11.00">date</text>
<polygon fill="none" stroke="black" points="19.01,-614.09 19.01,-636.09 209.01,-636.09 209.01,-614.09 19.01,-614.09"/>
<image xlink:href="../../images/foreignKeys.png" width="11px" height="12px" preserveAspectRatio="xMinYMin meet" x="24.0051" y="-631.093"/>
<text text-anchor="start" x="39.01" y="-620.64" font-family="Helvetica,sans-Serif" font-size="11.00">team_id</text>
<polygon fill="none" stroke="black" points="19.01,-592.09 19.01,-614.09 209.01,-614.09 209.01,-592.09 19.01,-592.09"/>
<image xlink:href="../../images/foreignKeys.png" width="11px" height="12px" preserveAspectRatio="xMinYMin meet" x="24.0051" y="-609.093"/>
<text text-anchor="start" x="39.01" y="-598.64" font-family="Helvetica,sans-Serif" font-size="11.00">buyer_id</text>
<polygon fill="none" stroke="black" points="19.01,-570.09 19.01,-592.09 209.01,-592.09 209.01,-570.09 19.01,-570.09"/>
<image xlink:href="../../images/foreignKeys.png" width="11px" height="12px" preserveAspectRatio="xMinYMin meet" x="24.0051" y="-587.093"/>
<text text-anchor="start" x="39.01" y="-576.64" font-family="Helvetica,sans-Serif" font-size="11.00">parent_company_id</text>
<polygon fill="none" stroke="black" points="19.01,-548.09 19.01,-570.09 209.01,-570.09 209.01,-548.09 19.01,-548.09"/>
<image xlink:href="../../images/foreignKeys.png" width="11px" height="12px" preserveAspectRatio="xMinYMin meet" x="24.0051" y="-565.093"/>
<text text-anchor="start" x="39.01" y="-554.64" font-family="Helvetica,sans-Serif" font-size="11.00">account_manager_id</text>
<polygon fill="none" stroke="black" points="19.01,-529.09 19.01,-548.09 209.01,-548.09 209.01,-529.09 19.01,-529.09"/>
<text text-anchor="start" x="22.01" y="-534.64" font-family="Helvetica,sans-Serif" font-size="11.00">...</text>
<polygon fill="#ffffff" stroke="none" points="19.01,-510.09 19.01,-529.09 108.01,-529.09 108.01,-510.09 19.01,-510.09"/>
<polygon fill="none" stroke="black" points="19.01,-510.09 19.01,-529.09 108.01,-529.09 108.01,-510.09 19.01,-510.09"/>
<text text-anchor="start" x="22.01" y="-515.64" font-family="Helvetica,sans-Serif" font-size="11.00">&lt; 10</text>
<polygon fill="#ffffff" stroke="none" points="108.01,-510.09 108.01,-529.09 151.01,-529.09 151.01,-510.09 108.01,-510.09"/>
<polygon fill="none" stroke="black" points="108.01,-510.09 108.01,-529.09 151.01,-529.09 151.01,-510.09 108.01,-510.09"/>
<text text-anchor="start" x="142.01" y="-515.64" font-family="Helvetica,sans-Serif" font-size="11.00"> &#160;</text>
<polygon fill="#ffffff" stroke="none" points="151.01,-510.09 151.01,-529.09 209.01,-529.09 209.01,-510.09 151.01,-510.09"/>
<polygon fill="none" stroke="black" points="151.01,-510.09 151.01,-529.09 209.01,-529.09 209.01,-510.09 151.01,-510.09"/>
<text text-anchor="start" x="184.26" y="-515.64" font-family="Helvetica,sans-Serif" font-size="11.00">23 &gt;</text>
</a>
</g>
</g>
<!-- res_users&#45;&gt;res_partner -->
<g id="edge40" class="edge">
<title>res_users:w&#45;&gt;res_partner:e</title>
<path fill="none" stroke="black" d="M241.58,-472.13C79.52,-495.66 401.1,-911.09 210.01,-911.09"/>
<polygon fill="black" stroke="black" points="248.69,-471.65 256.91,-474.71 253.01,-471.36 256.34,-471.14 256.34,-471.14 256.34,-471.14 253.01,-471.36 256.43,-467.52 248.69,-471.65"/>
<ellipse fill="none" stroke="black" cx="243.78" cy="-471.98" rx="3.2" ry="3.2"/>
</g>
<!-- account_journal -->
<g id="node3" class="node">
<title>account_journal</title>
<g id="a_node3"><a xlink:href="../../tables/account_journal.html" xlink:title="account_journal" target="_top">
<polygon fill="#ffffff" stroke="none" points="723.01,-391.09 723.01,-672.09 914.01,-672.09 914.01,-391.09 723.01,-391.09"/>
<polygon fill="#f5f5f5" stroke="none" points="723.01,-649.09 723.01,-672.09 914.01,-672.09 914.01,-649.09 723.01,-649.09"/>
<polygon fill="none" stroke="black" points="723.01,-649.09 723.01,-672.09 914.01,-672.09 914.01,-649.09 723.01,-649.09"/>
<text text-anchor="start" x="728.01" y="-656.89" font-family="Helvetica,sans-Serif" font-weight="bold" font-size="11.00">account_journal</text>
<text text-anchor="start" x="879.76" y="-656.64" font-family="Helvetica,sans-Serif" font-size="11.00">[table]</text>
<polygon fill="none" stroke="black" points="723.01,-627.09 723.01,-649.09 914.01,-649.09 914.01,-627.09 723.01,-627.09"/>
<image xlink:href="../../images/primaryKeys.png" width="11px" height="12px" preserveAspectRatio="xMinYMin meet" x="728.005" y="-644.093"/>
<text text-anchor="start" x="743.01" y="-633.64" font-family="Helvetica,sans-Serif" font-size="11.00">id</text>
<polygon fill="none" stroke="black" points="723.01,-605.09 723.01,-627.09 914.01,-627.09 914.01,-605.09 723.01,-605.09"/>
<image xlink:href="../../images/foreignKeys.png" width="11px" height="12px" preserveAspectRatio="xMinYMin meet" x="728.005" y="-622.093"/>
<text text-anchor="start" x="743.01" y="-611.64" font-family="Helvetica,sans-Serif" font-size="11.00">default_account_id</text>
<polygon fill="none" stroke="black" points="723.01,-583.09 723.01,-605.09 914.01,-605.09 914.01,-583.09 723.01,-583.09"/>
<image xlink:href="../../images/foreignKeys.png" width="11px" height="12px" preserveAspectRatio="xMinYMin meet" x="728.005" y="-600.093"/>
<text text-anchor="start" x="743.01" y="-589.64" font-family="Helvetica,sans-Serif" font-size="11.00">suspense_account_id</text>
<polygon fill="#ffffff" stroke="none" points="723.01,-561.09 723.01,-583.09 914.01,-583.09 914.01,-561.09 723.01,-561.09"/>
<polygon fill="none" stroke="black" points="723.01,-561.09 723.01,-583.09 914.01,-583.09 914.01,-561.09 723.01,-561.09"/>
<text text-anchor="start" x="743.01" y="-567.64" font-family="Helvetica,sans-Serif" font-size="11.00">company_id</text>
<polygon fill="none" stroke="black" points="723.01,-539.09 723.01,-561.09 914.01,-561.09 914.01,-539.09 723.01,-539.09"/>
<image xlink:href="../../images/foreignKeys.png" width="11px" height="12px" preserveAspectRatio="xMinYMin meet" x="728.005" y="-556.093"/>
<text text-anchor="start" x="743.01" y="-545.64" font-family="Helvetica,sans-Serif" font-size="11.00">profit_account_id</text>
<polygon fill="none" stroke="black" points="723.01,-517.09 723.01,-539.09 914.01,-539.09 914.01,-517.09 723.01,-517.09"/>
<image xlink:href="../../images/foreignKeys.png" width="11px" height="12px" preserveAspectRatio="xMinYMin meet" x="728.005" y="-534.093"/>
<text text-anchor="start" x="743.01" y="-523.64" font-family="Helvetica,sans-Serif" font-size="11.00">loss_account_id</text>
<polygon fill="none" stroke="black" points="723.01,-495.09 723.01,-517.09 914.01,-517.09 914.01,-495.09 723.01,-495.09"/>
<image xlink:href="../../images/foreignKeys.png" width="11px" height="12px" preserveAspectRatio="xMinYMin meet" x="728.005" y="-512.093"/>
<text text-anchor="start" x="743.01" y="-501.64" font-family="Helvetica,sans-Serif" font-size="11.00">sale_activity_user_id</text>
<polygon fill="none" stroke="black" points="723.01,-473.09 723.01,-495.09 914.01,-495.09 914.01,-473.09 723.01,-473.09"/>
<image xlink:href="../../images/foreignKeys.png" width="11px" height="12px" preserveAspectRatio="xMinYMin meet" x="728.005" y="-490.093"/>
<text text-anchor="start" x="743.01" y="-479.64" font-family="Helvetica,sans-Serif" font-size="11.00">create_uid</text>
<polygon fill="none" stroke="black" points="723.01,-451.09 723.01,-473.09 914.01,-473.09 914.01,-451.09 723.01,-451.09"/>
<image xlink:href="../../images/foreignKeys.png" width="11px" height="12px" preserveAspectRatio="xMinYMin meet" x="728.005" y="-468.093"/>
<text text-anchor="start" x="743.01" y="-457.64" font-family="Helvetica,sans-Serif" font-size="11.00">write_uid</text>
<polygon fill="#ffffff" stroke="none" points="723.01,-429.09 723.01,-451.09 914.01,-451.09 914.01,-429.09 723.01,-429.09"/>
<polygon fill="none" stroke="black" points="723.01,-429.09 723.01,-451.09 914.01,-451.09 914.01,-429.09 723.01,-429.09"/>
<text text-anchor="start" x="743.01" y="-435.64" font-family="Helvetica,sans-Serif" font-size="11.00">code</text>
<polygon fill="none" stroke="black" points="723.01,-410.09 723.01,-429.09 914.01,-429.09 914.01,-410.09 723.01,-410.09"/>
<text text-anchor="start" x="726.01" y="-415.64" font-family="Helvetica,sans-Serif" font-size="11.00">...</text>
<polygon fill="#ffffff" stroke="none" points="723.01,-391.09 723.01,-410.09 812.01,-410.09 812.01,-391.09 723.01,-391.09"/>
<polygon fill="none" stroke="black" points="723.01,-391.09 723.01,-410.09 812.01,-410.09 812.01,-391.09 723.01,-391.09"/>
<text text-anchor="start" x="726.01" y="-396.64" font-family="Helvetica,sans-Serif" font-size="11.00">&lt; 7</text>
<polygon fill="#ffffff" stroke="none" points="812.01,-391.09 812.01,-410.09 858.01,-410.09 858.01,-391.09 812.01,-391.09"/>
<polygon fill="none" stroke="black" points="812.01,-391.09 812.01,-410.09 858.01,-410.09 858.01,-391.09 812.01,-391.09"/>
<text text-anchor="start" x="849.01" y="-396.64" font-family="Helvetica,sans-Serif" font-size="11.00"> &#160;</text>
<polygon fill="#ffffff" stroke="none" points="858.01,-391.09 858.01,-410.09 914.01,-410.09 914.01,-391.09 858.01,-391.09"/>
<polygon fill="none" stroke="black" points="858.01,-391.09 858.01,-410.09 914.01,-410.09 914.01,-391.09 858.01,-391.09"/>
<text text-anchor="start" x="895.26" y="-396.64" font-family="Helvetica,sans-Serif" font-size="11.00">4 &gt;</text>
</a>
</g>
</g>
<!-- account_journal&#45;&gt;account_account -->
<g id="edge4" class="edge">
<title>account_journal:w&#45;&gt;account_account:e</title>
<path fill="none" stroke="black" d="M707.62,-622.06C695.24,-635.72 699.59,-668.09 675.01,-668.09"/>
<polygon fill="black" stroke="black" points="714.31,-619.29 723.08,-619.55 718.31,-617.63 721.39,-616.35 721.39,-616.35 721.39,-616.35 718.31,-617.63 720.32,-612.9 714.31,-619.29"/>
<ellipse fill="none" stroke="black" cx="709.76" cy="-621.17" rx="3.2" ry="3.2"/>
</g>
<!-- account_journal&#45;&gt;account_account -->
<g id="edge5" class="edge">
<title>account_journal:w&#45;&gt;account_account:e</title>
<path fill="none" stroke="black" d="M706.79,-531.84C671.4,-554.1 734.23,-668.09 675.01,-668.09"/>
<polygon fill="black" stroke="black" points="713.91,-530.08 722.54,-531.67 718.12,-529.05 721.36,-528.25 721.36,-528.25 721.36,-528.25 718.12,-529.05 720.82,-524.68 713.91,-530.08"/>
<ellipse fill="none" stroke="black" cx="709.14" cy="-531.26" rx="3.2" ry="3.2"/>
</g>
<!-- account_journal&#45;&gt;account_account -->
<g id="edge6" class="edge">
<title>account_journal:w&#45;&gt;account_account:e</title>
<path fill="none" stroke="black" d="M707.18,-554.29C678.91,-575.31 725.06,-668.09 675.01,-668.09"/>
<polygon fill="black" stroke="black" points="713.99,-552.36 722.66,-553.65 718.16,-551.18 721.36,-550.28 721.36,-550.28 721.36,-550.28 718.16,-551.18 720.7,-546.72 713.99,-552.36"/>
<ellipse fill="none" stroke="black" cx="709.25" cy="-553.7" rx="3.2" ry="3.2"/>
</g>
<!-- account_journal&#45;&gt;account_account -->
<g id="edge8" class="edge">
<title>account_journal:w&#45;&gt;account_account:e</title>
<path fill="none" stroke="black" d="M707.4,-599.9C691.61,-617.34 707.27,-668.09 675.01,-668.09"/>
<polygon fill="black" stroke="black" points="714.26,-597.17 723.02,-597.56 718.29,-595.57 721.38,-594.34 721.38,-594.34 721.38,-594.34 718.29,-595.57 720.36,-590.87 714.26,-597.17"/>
<ellipse fill="none" stroke="black" cx="709.69" cy="-598.99" rx="3.2" ry="3.2"/>
</g>
<!-- account_journal&#45;&gt;res_users -->
<g id="edge3" class="edge">
<title>account_journal:w&#45;&gt;res_users:e</title>
<path fill="none" stroke="black" d="M706.45,-484.13C579.14,-484.77 541.73,-493.09 407.01,-493.09"/>
<polygon fill="black" stroke="black" points="713.67,-484.11 721.68,-487.69 718.01,-484.1 721.34,-484.1 721.34,-484.1 721.34,-484.1 718.01,-484.1 721.66,-480.49 713.67,-484.11"/>
<ellipse fill="none" stroke="black" cx="708.75" cy="-484.13" rx="3.2" ry="3.2"/>
</g>
<!-- account_journal&#45;&gt;res_users -->
<g id="edge7" class="edge">
<title>account_journal:w&#45;&gt;res_users:e</title>
<path fill="none" stroke="black" d="M706.4,-506.07C596.83,-505.71 563.79,-501.47 447.01,-495.59 429.22,-494.7 424.82,-493.09 407.01,-493.09"/>
<polygon fill="black" stroke="black" points="713.67,-506.08 721.66,-509.69 718.01,-506.09 721.34,-506.09 721.34,-506.09 721.34,-506.09 718.01,-506.09 721.68,-502.49 713.67,-506.08"/>
<ellipse fill="none" stroke="black" cx="708.75" cy="-506.07" rx="3.2" ry="3.2"/>
</g>
<!-- account_journal&#45;&gt;res_users -->
<g id="edge9" class="edge">
<title>account_journal:w&#45;&gt;res_users:e</title>
<path fill="none" stroke="black" d="M706.36,-462.08C596.51,-461.97 562.35,-461.15 447.01,-481.59 428.79,-484.82 425.5,-493.09 407.01,-493.09"/>
<polygon fill="black" stroke="black" points="713.67,-462.09 721.67,-465.69 718.01,-462.09 721.34,-462.09 721.34,-462.09 721.34,-462.09 718.01,-462.09 721.67,-458.49 713.67,-462.09"/>
<ellipse fill="none" stroke="black" cx="708.75" cy="-462.09" rx="3.2" ry="3.2"/>
</g>
<!-- account_move -->
<g id="node4" class="node">
<title>account_move</title>
<g id="a_node4"><a xlink:href="../../tables/account_move.html" xlink:title="account_move" target="_top">
<polygon fill="#ffffff" stroke="none" points="1365.01,-195.09 1365.01,-982.09 1596.01,-982.09 1596.01,-195.09 1365.01,-195.09"/>
<polygon fill="#f5f5f5" stroke="none" points="1365.01,-959.09 1365.01,-982.09 1596.01,-982.09 1596.01,-959.09 1365.01,-959.09"/>
<polygon fill="none" stroke="black" points="1365.01,-959.09 1365.01,-982.09 1596.01,-982.09 1596.01,-959.09 1365.01,-959.09"/>
<text text-anchor="start" x="1370.01" y="-966.89" font-family="Helvetica,sans-Serif" font-weight="bold" font-size="11.00">account_move</text>
<text text-anchor="start" x="1561.76" y="-966.64" font-family="Helvetica,sans-Serif" font-size="11.00">[table]</text>
<polygon fill="none" stroke="black" points="1365.01,-937.09 1365.01,-959.09 1596.01,-959.09 1596.01,-937.09 1365.01,-937.09"/>
<image xlink:href="../../images/primaryKeys.png" width="11px" height="12px" preserveAspectRatio="xMinYMin meet" x="1370.01" y="-954.093"/>
<text text-anchor="start" x="1385.01" y="-943.64" font-family="Helvetica,sans-Serif" font-size="11.00">id</text>
<polygon fill="#ffffff" stroke="none" points="1365.01,-915.09 1365.01,-937.09 1596.01,-937.09 1596.01,-915.09 1365.01,-915.09"/>
<polygon fill="none" stroke="black" points="1365.01,-915.09 1365.01,-937.09 1596.01,-937.09 1596.01,-915.09 1365.01,-915.09"/>
<text text-anchor="start" x="1385.01" y="-921.64" font-family="Helvetica,sans-Serif" font-size="11.00">sequence_number</text>
<polygon fill="#ffffff" stroke="none" points="1365.01,-893.09 1365.01,-915.09 1596.01,-915.09 1596.01,-893.09 1365.01,-893.09"/>
<polygon fill="none" stroke="black" points="1365.01,-893.09 1365.01,-915.09 1596.01,-915.09 1596.01,-893.09 1365.01,-893.09"/>
<image xlink:href="../../images/foreignKeys.png" width="11px" height="12px" preserveAspectRatio="xMinYMin meet" x="1370.01" y="-910.093"/>
<text text-anchor="start" x="1385.01" y="-899.64" font-family="Helvetica,sans-Serif" font-size="11.00">journal_id</text>
<polygon fill="#ffffff" stroke="none" points="1365.01,-871.09 1365.01,-893.09 1596.01,-893.09 1596.01,-871.09 1365.01,-871.09"/>
<polygon fill="none" stroke="black" points="1365.01,-871.09 1365.01,-893.09 1596.01,-893.09 1596.01,-871.09 1365.01,-871.09"/>
<text text-anchor="start" x="1385.01" y="-877.64" font-family="Helvetica,sans-Serif" font-size="11.00">company_id</text>
<polygon fill="#ffffff" stroke="none" points="1365.01,-849.09 1365.01,-871.09 1596.01,-871.09 1596.01,-849.09 1365.01,-849.09"/>
<polygon fill="none" stroke="black" points="1365.01,-849.09 1365.01,-871.09 1596.01,-871.09 1596.01,-849.09 1365.01,-849.09"/>
<image xlink:href="../../images/foreignKeys.png" width="11px" height="12px" preserveAspectRatio="xMinYMin meet" x="1370.01" y="-866.093"/>
<text text-anchor="start" x="1385.01" y="-855.64" font-family="Helvetica,sans-Serif" font-size="11.00">payment_id</text>
<polygon fill="#ffffff" stroke="none" points="1365.01,-827.09 1365.01,-849.09 1596.01,-849.09 1596.01,-827.09 1365.01,-827.09"/>
<polygon fill="none" stroke="black" points="1365.01,-827.09 1365.01,-849.09 1596.01,-849.09 1596.01,-827.09 1365.01,-827.09"/>
<text text-anchor="start" x="1385.01" y="-833.64" font-family="Helvetica,sans-Serif" font-size="11.00">statement_line_id</text>
<polygon fill="#ffffff" stroke="none" points="1365.01,-805.09 1365.01,-827.09 1596.01,-827.09 1596.01,-805.09 1365.01,-805.09"/>
<polygon fill="none" stroke="black" points="1365.01,-805.09 1365.01,-827.09 1596.01,-827.09 1596.01,-805.09 1365.01,-805.09"/>
<text text-anchor="start" x="1385.01" y="-811.64" font-family="Helvetica,sans-Serif" font-size="11.00">tax_cash_basis_rec_id</text>
<polygon fill="#ffffff" stroke="none" points="1365.01,-783.09 1365.01,-805.09 1596.01,-805.09 1596.01,-783.09 1365.01,-783.09"/>
<polygon fill="none" stroke="black" points="1365.01,-783.09 1365.01,-805.09 1596.01,-805.09 1596.01,-783.09 1365.01,-783.09"/>
<image xlink:href="../../images/foreignKeys.png" width="11px" height="12px" preserveAspectRatio="xMinYMin meet" x="1370.01" y="-800.093"/>
<text text-anchor="start" x="1385.01" y="-789.64" font-family="Helvetica,sans-Serif" font-size="11.00">tax_cash_basis_origin_move_id</text>
<polygon fill="#ffffff" stroke="none" points="1365.01,-761.09 1365.01,-783.09 1596.01,-783.09 1596.01,-761.09 1365.01,-761.09"/>
<polygon fill="none" stroke="black" points="1365.01,-761.09 1365.01,-783.09 1596.01,-783.09 1596.01,-761.09 1365.01,-761.09"/>
<image xlink:href="../../images/foreignKeys.png" width="11px" height="12px" preserveAspectRatio="xMinYMin meet" x="1370.01" y="-778.093"/>
<text text-anchor="start" x="1385.01" y="-767.64" font-family="Helvetica,sans-Serif" font-size="11.00">auto_post_origin_id</text>
<polygon fill="#ffffff" stroke="none" points="1365.01,-739.09 1365.01,-761.09 1596.01,-761.09 1596.01,-739.09 1365.01,-739.09"/>
<polygon fill="none" stroke="black" points="1365.01,-739.09 1365.01,-761.09 1596.01,-761.09 1596.01,-739.09 1365.01,-739.09"/>
<text text-anchor="start" x="1385.01" y="-745.64" font-family="Helvetica,sans-Serif" font-size="11.00">secure_sequence_number</text>
<polygon fill="#ffffff" stroke="none" points="1365.01,-717.09 1365.01,-739.09 1596.01,-739.09 1596.01,-717.09 1365.01,-717.09"/>
<polygon fill="none" stroke="black" points="1365.01,-717.09 1365.01,-739.09 1596.01,-739.09 1596.01,-717.09 1365.01,-717.09"/>
<image xlink:href="../../images/foreignKeys.png" width="11px" height="12px" preserveAspectRatio="xMinYMin meet" x="1370.01" y="-734.093"/>
<text text-anchor="start" x="1385.01" y="-723.64" font-family="Helvetica,sans-Serif" font-size="11.00">partner_id</text>
<polygon fill="none" stroke="black" points="1365.01,-695.09 1365.01,-717.09 1596.01,-717.09 1596.01,-695.09 1365.01,-695.09"/>
<image xlink:href="../../images/foreignKeys.png" width="11px" height="12px" preserveAspectRatio="xMinYMin meet" x="1370.01" y="-712.093"/>
<text text-anchor="start" x="1385.01" y="-701.64" font-family="Helvetica,sans-Serif" font-size="11.00">commercial_partner_id</text>
<polygon fill="none" stroke="black" points="1365.01,-673.09 1365.01,-695.09 1596.01,-695.09 1596.01,-673.09 1365.01,-673.09"/>
<image xlink:href="../../images/foreignKeys.png" width="11px" height="12px" preserveAspectRatio="xMinYMin meet" x="1370.01" y="-690.093"/>
<text text-anchor="start" x="1385.01" y="-679.64" font-family="Helvetica,sans-Serif" font-size="11.00">partner_shipping_id</text>
<polygon fill="none" stroke="black" points="1365.01,-651.09 1365.01,-673.09 1596.01,-673.09 1596.01,-651.09 1365.01,-651.09"/>
<image xlink:href="../../images/foreignKeys.png" width="11px" height="12px" preserveAspectRatio="xMinYMin meet" x="1370.01" y="-668.093"/>
<text text-anchor="start" x="1385.01" y="-657.64" font-family="Helvetica,sans-Serif" font-size="11.00">fiscal_position_id</text>
<polygon fill="#ffffff" stroke="none" points="1365.01,-629.09 1365.01,-651.09 1596.01,-651.09 1596.01,-629.09 1365.01,-629.09"/>
<polygon fill="none" stroke="black" points="1365.01,-629.09 1365.01,-651.09 1596.01,-651.09 1596.01,-629.09 1365.01,-629.09"/>
<image xlink:href="../../images/foreignKeys.png" width="11px" height="12px" preserveAspectRatio="xMinYMin meet" x="1370.01" y="-646.093"/>
<text text-anchor="start" x="1385.01" y="-635.64" font-family="Helvetica,sans-Serif" font-size="11.00">reversed_entry_id</text>
<polygon fill="none" stroke="black" points="1365.01,-607.09 1365.01,-629.09 1596.01,-629.09 1596.01,-607.09 1365.01,-607.09"/>
<image xlink:href="../../images/foreignKeys.png" width="11px" height="12px" preserveAspectRatio="xMinYMin meet" x="1370.01" y="-624.093"/>
<text text-anchor="start" x="1385.01" y="-613.64" font-family="Helvetica,sans-Serif" font-size="11.00">invoice_user_id</text>
<polygon fill="none" stroke="black" points="1365.01,-585.09 1365.01,-607.09 1596.01,-607.09 1596.01,-585.09 1365.01,-585.09"/>
<image xlink:href="../../images/foreignKeys.png" width="11px" height="12px" preserveAspectRatio="xMinYMin meet" x="1370.01" y="-602.093"/>
<text text-anchor="start" x="1385.01" y="-591.64" font-family="Helvetica,sans-Serif" font-size="11.00">create_uid</text>
<polygon fill="none" stroke="black" points="1365.01,-563.09 1365.01,-585.09 1596.01,-585.09 1596.01,-563.09 1365.01,-563.09"/>
<image xlink:href="../../images/foreignKeys.png" width="11px" height="12px" preserveAspectRatio="xMinYMin meet" x="1370.01" y="-580.093"/>
<text text-anchor="start" x="1385.01" y="-569.64" font-family="Helvetica,sans-Serif" font-size="11.00">write_uid</text>
<polygon fill="#ffffff" stroke="none" points="1365.01,-541.09 1365.01,-563.09 1596.01,-563.09 1596.01,-541.09 1365.01,-541.09"/>
<polygon fill="none" stroke="black" points="1365.01,-541.09 1365.01,-563.09 1596.01,-563.09 1596.01,-541.09 1365.01,-541.09"/>
<text text-anchor="start" x="1385.01" y="-547.64" font-family="Helvetica,sans-Serif" font-size="11.00">sequence_prefix</text>
<polygon fill="#ffffff" stroke="none" points="1365.01,-519.09 1365.01,-541.09 1596.01,-541.09 1596.01,-519.09 1365.01,-519.09"/>
<polygon fill="none" stroke="black" points="1365.01,-519.09 1365.01,-541.09 1596.01,-541.09 1596.01,-519.09 1365.01,-519.09"/>
<text text-anchor="start" x="1385.01" y="-525.64" font-family="Helvetica,sans-Serif" font-size="11.00">name</text>
<polygon fill="#ffffff" stroke="none" points="1365.01,-497.09 1365.01,-519.09 1596.01,-519.09 1596.01,-497.09 1365.01,-497.09"/>
<polygon fill="none" stroke="black" points="1365.01,-497.09 1365.01,-519.09 1596.01,-519.09 1596.01,-497.09 1365.01,-497.09"/>
<text text-anchor="start" x="1385.01" y="-503.64" font-family="Helvetica,sans-Serif" font-size="11.00">ref</text>
<polygon fill="#ffffff" stroke="none" points="1365.01,-475.09 1365.01,-497.09 1596.01,-497.09 1596.01,-475.09 1365.01,-475.09"/>
<polygon fill="none" stroke="black" points="1365.01,-475.09 1365.01,-497.09 1596.01,-497.09 1596.01,-475.09 1365.01,-475.09"/>
<text text-anchor="start" x="1385.01" y="-481.64" font-family="Helvetica,sans-Serif" font-size="11.00">state</text>
<polygon fill="#ffffff" stroke="none" points="1365.01,-453.09 1365.01,-475.09 1596.01,-475.09 1596.01,-453.09 1365.01,-453.09"/>
<polygon fill="none" stroke="black" points="1365.01,-453.09 1365.01,-475.09 1596.01,-475.09 1596.01,-453.09 1365.01,-453.09"/>
<text text-anchor="start" x="1385.01" y="-459.64" font-family="Helvetica,sans-Serif" font-size="11.00">move_type</text>
<polygon fill="#ffffff" stroke="none" points="1365.01,-431.09 1365.01,-453.09 1596.01,-453.09 1596.01,-431.09 1365.01,-431.09"/>
<polygon fill="none" stroke="black" points="1365.01,-431.09 1365.01,-453.09 1596.01,-453.09 1596.01,-431.09 1365.01,-431.09"/>
<text text-anchor="start" x="1385.01" y="-437.64" font-family="Helvetica,sans-Serif" font-size="11.00">payment_reference</text>
<polygon fill="#ffffff" stroke="none" points="1365.01,-409.09 1365.01,-431.09 1596.01,-431.09 1596.01,-409.09 1365.01,-409.09"/>
<polygon fill="none" stroke="black" points="1365.01,-409.09 1365.01,-431.09 1596.01,-431.09 1596.01,-409.09 1365.01,-409.09"/>
<text text-anchor="start" x="1385.01" y="-415.64" font-family="Helvetica,sans-Serif" font-size="11.00">payment_state</text>
<polygon fill="#ffffff" stroke="none" points="1365.01,-387.09 1365.01,-409.09 1596.01,-409.09 1596.01,-387.09 1365.01,-387.09"/>
<polygon fill="none" stroke="black" points="1365.01,-387.09 1365.01,-409.09 1596.01,-409.09 1596.01,-387.09 1365.01,-387.09"/>
<text text-anchor="start" x="1385.01" y="-393.64" font-family="Helvetica,sans-Serif" font-size="11.00">date</text>
<polygon fill="#ffffff" stroke="none" points="1365.01,-365.09 1365.01,-387.09 1596.01,-387.09 1596.01,-365.09 1365.01,-365.09"/>
<polygon fill="none" stroke="black" points="1365.01,-365.09 1365.01,-387.09 1596.01,-387.09 1596.01,-365.09 1365.01,-365.09"/>
<text text-anchor="start" x="1385.01" y="-371.64" font-family="Helvetica,sans-Serif" font-size="11.00">invoice_date</text>
<polygon fill="#ffffff" stroke="none" points="1365.01,-343.09 1365.01,-365.09 1596.01,-365.09 1596.01,-343.09 1365.01,-343.09"/>
<polygon fill="none" stroke="black" points="1365.01,-343.09 1365.01,-365.09 1596.01,-365.09 1596.01,-343.09 1365.01,-343.09"/>
<text text-anchor="start" x="1385.01" y="-349.64" font-family="Helvetica,sans-Serif" font-size="11.00">invoice_date_due</text>
<polygon fill="#ffffff" stroke="none" points="1365.01,-321.09 1365.01,-343.09 1596.01,-343.09 1596.01,-321.09 1365.01,-321.09"/>
<polygon fill="none" stroke="black" points="1365.01,-321.09 1365.01,-343.09 1596.01,-343.09 1596.01,-321.09 1365.01,-321.09"/>
<text text-anchor="start" x="1385.01" y="-327.64" font-family="Helvetica,sans-Serif" font-size="11.00">extract_attachment_id</text>
<polygon fill="none" stroke="black" points="1365.01,-299.09 1365.01,-321.09 1596.01,-321.09 1596.01,-299.09 1365.01,-299.09"/>
<image xlink:href="../../images/foreignKeys.png" width="11px" height="12px" preserveAspectRatio="xMinYMin meet" x="1370.01" y="-316.093"/>
<text text-anchor="start" x="1385.01" y="-305.64" font-family="Helvetica,sans-Serif" font-size="11.00">team_id</text>
<polygon fill="#ffffff" stroke="none" points="1365.01,-277.09 1365.01,-299.09 1596.01,-299.09 1596.01,-277.09 1365.01,-277.09"/>
<polygon fill="none" stroke="black" points="1365.01,-277.09 1365.01,-299.09 1596.01,-299.09 1596.01,-277.09 1365.01,-277.09"/>
<text text-anchor="start" x="1385.01" y="-283.64" font-family="Helvetica,sans-Serif" font-size="11.00">asset_id</text>
<polygon fill="#ffffff" stroke="none" points="1365.01,-255.09 1365.01,-277.09 1596.01,-277.09 1596.01,-255.09 1365.01,-255.09"/>
<polygon fill="none" stroke="black" points="1365.01,-255.09 1365.01,-277.09 1596.01,-277.09 1596.01,-255.09 1365.01,-255.09"/>
<text text-anchor="start" x="1385.01" y="-261.64" font-family="Helvetica,sans-Serif" font-size="11.00">suspense_statement_line_id</text>
<polygon fill="#ffffff" stroke="none" points="1365.01,-233.09 1365.01,-255.09 1596.01,-255.09 1596.01,-233.09 1365.01,-233.09"/>
<polygon fill="none" stroke="black" points="1365.01,-233.09 1365.01,-255.09 1596.01,-255.09 1596.01,-233.09 1365.01,-233.09"/>
<text text-anchor="start" x="1385.01" y="-239.64" font-family="Helvetica,sans-Serif" font-size="11.00">expense_sheet_id</text>
<polygon fill="none" stroke="black" points="1365.01,-214.09 1365.01,-233.09 1596.01,-233.09 1596.01,-214.09 1365.01,-214.09"/>
<text text-anchor="start" x="1368.01" y="-219.64" font-family="Helvetica,sans-Serif" font-size="11.00">...</text>
<polygon fill="#ffffff" stroke="none" points="1365.01,-195.09 1365.01,-214.09 1477.01,-214.09 1477.01,-195.09 1365.01,-195.09"/>
<polygon fill="none" stroke="black" points="1365.01,-195.09 1365.01,-214.09 1477.01,-214.09 1477.01,-195.09 1365.01,-195.09"/>
<text text-anchor="start" x="1368.01" y="-200.64" font-family="Helvetica,sans-Serif" font-size="11.00">&lt; 13</text>
<polygon fill="#ffffff" stroke="none" points="1477.01,-195.09 1477.01,-214.09 1532.01,-214.09 1532.01,-195.09 1477.01,-195.09"/>
<polygon fill="none" stroke="black" points="1477.01,-195.09 1477.01,-214.09 1532.01,-214.09 1532.01,-195.09 1477.01,-195.09"/>
<text text-anchor="start" x="1523.01" y="-200.64" font-family="Helvetica,sans-Serif" font-size="11.00"> &#160;</text>
<polygon fill="#ffffff" stroke="none" points="1532.01,-195.09 1532.01,-214.09 1596.01,-214.09 1596.01,-195.09 1532.01,-195.09"/>
<polygon fill="none" stroke="black" points="1532.01,-195.09 1532.01,-214.09 1596.01,-214.09 1596.01,-195.09 1532.01,-195.09"/>
<text text-anchor="start" x="1577.26" y="-200.64" font-family="Helvetica,sans-Serif" font-size="11.00">5 &gt;</text>
</a>
</g>
</g>
<!-- account_move&#45;&gt;res_users -->
<g id="edge11" class="edge">
<title>account_move:w&#45;&gt;res_users:e</title>
<path fill="none" stroke="black" d="M1349.12,-591.73C1292.8,-552.98 1383.02,-267.74 1324.01,-214.59 1251.6,-149.38 520.64,-150.78 447.01,-214.59 399.76,-255.54 469.53,-493.09 407.01,-493.09"/>
<polygon fill="black" stroke="black" points="1356.01,-593.75 1362.67,-599.45 1360.17,-594.97 1363.36,-595.91 1363.36,-595.91 1363.36,-595.91 1360.17,-594.97 1364.7,-592.54 1356.01,-593.75"/>
<ellipse fill="none" stroke="black" cx="1351.29" cy="-592.37" rx="3.2" ry="3.2"/>
</g>
<!-- account_move&#45;&gt;res_users -->
<g id="edge12" class="edge">
<title>account_move:w&#45;&gt;res_users:e</title>
<path fill="none" stroke="black" d="M1348.96,-613.55C1294.03,-574.37 1382.16,-293.9 1324.01,-241.59 1251.04,-175.97 518.54,-279.41 447.01,-346.59 397.81,-392.8 474.5,-493.09 407.01,-493.09"/>
<polygon fill="black" stroke="black" points="1356.03,-615.68 1362.64,-621.44 1360.18,-616.94 1363.36,-617.9 1363.36,-617.9 1363.36,-617.9 1360.18,-616.94 1364.73,-614.55 1356.03,-615.68"/>
<ellipse fill="none" stroke="black" cx="1351.32" cy="-614.26" rx="3.2" ry="3.2"/>
</g>
<!-- account_move&#45;&gt;res_users -->
<g id="edge17" class="edge">
<title>account_move:w&#45;&gt;res_users:e</title>
<path fill="none" stroke="black" d="M1348.84,-569.93C1287.15,-530.43 1387.29,-222.14 1324.01,-164.59 1287.96,-131.81 483.15,-136.92 447.01,-169.59 393.27,-218.17 479.44,-493.09 407.01,-493.09"/>
<polygon fill="black" stroke="black" points="1355.97,-571.88 1362.73,-577.48 1360.15,-573.03 1363.36,-573.92 1363.36,-573.92 1363.36,-573.92 1360.15,-573.03 1364.64,-570.53 1355.97,-571.88"/>
<ellipse fill="none" stroke="black" cx="1351.23" cy="-570.58" rx="3.2" ry="3.2"/>
</g>
<!-- account_move&#45;&gt;account_journal -->
<g id="edge13" class="edge">
<title>account_move:w&#45;&gt;account_journal:e</title>
<path fill="none" stroke="black" d="M1350.88,-895.27C1304.11,-821.54 1372.14,-309.82 1324.01,-264.59 1294.12,-236.52 985.5,-237.19 955.01,-264.59 892.92,-320.39 998.48,-638.09 915.01,-638.09"/>
<polygon fill="black" stroke="black" points="1357.09,-899.44 1361.72,-906.89 1360.69,-901.86 1363.45,-903.72 1363.45,-903.72 1363.45,-903.72 1360.69,-901.86 1365.74,-900.92 1357.09,-899.44"/>
<ellipse fill="none" stroke="black" cx="1353.01" cy="-896.7" rx="3.2" ry="3.2"/>
</g>
<!-- account_move&#45;&gt;res_partner -->
<g id="edge10" class="edge">
<title>account_move:w&#45;&gt;res_partner:e</title>
<path fill="none" stroke="black" d="M1349.4,-711.56C1308.02,-749.25 1370.48,-970.38 1324.01,-1012.59 1282.49,-1050.3 875.59,-1029.59 819.51,-1029.59 819.51,-1029.59 819.51,-1029.59 563.51,-1029.59 493.74,-1029.59 306.59,-1053.4 250.01,-1012.59 210.68,-984.23 258.49,-911.09 210.01,-911.09"/>
<polygon fill="black" stroke="black" points="1356.2,-709.02 1364.95,-709.58 1360.26,-707.5 1363.38,-706.33 1363.38,-706.33 1363.38,-706.33 1360.26,-707.5 1362.43,-702.84 1356.2,-709.02"/>
<ellipse fill="none" stroke="black" cx="1351.59" cy="-710.74" rx="3.2" ry="3.2"/>
</g>
<!-- account_move&#45;&gt;res_partner -->
<g id="edge14" class="edge">
<title>account_move:w&#45;&gt;res_partner:e</title>
<path fill="none" stroke="black" d="M1349.44,-733.54C1308.14,-771.07 1370.09,-991.25 1324.01,-1033.59 1282.68,-1071.56 875.62,-1056.59 819.51,-1056.59 819.51,-1056.59 819.51,-1056.59 563.51,-1056.59 493.65,-1056.59 305.01,-1076.65 250.01,-1033.59 204.91,-998.29 267.28,-911.09 210.01,-911.09"/>
<polygon fill="black" stroke="black" points="1356.2,-731.01 1364.95,-731.58 1360.26,-729.49 1363.38,-728.33 1363.38,-728.33 1363.38,-728.33 1360.26,-729.49 1362.43,-724.84 1356.2,-731.01"/>
<ellipse fill="none" stroke="black" cx="1351.59" cy="-732.73" rx="3.2" ry="3.2"/>
</g>
<!-- account_move&#45;&gt;res_partner -->
<g id="edge15" class="edge">
<title>account_move:w&#45;&gt;res_partner:e</title>
<path fill="none" stroke="black" d="M1349.43,-690.19C1313.48,-727.44 1365.23,-923.9 1324.01,-962.59 1242,-1039.55 931.97,-1002.59 819.51,-1002.59 819.51,-1002.59 819.51,-1002.59 563.51,-1002.59 401.22,-1002.59 372.29,-911.09 210.01,-911.09"/>
<polygon fill="black" stroke="black" points="1356.32,-687.31 1365.09,-687.54 1360.32,-685.64 1363.39,-684.35 1363.39,-684.35 1363.39,-684.35 1360.32,-685.64 1362.31,-680.9 1356.32,-687.31"/>
<ellipse fill="none" stroke="black" cx="1351.78" cy="-689.21" rx="3.2" ry="3.2"/>
</g>
<!-- account_payment -->
<g id="node6" class="node">
<title>account_payment</title>
<g id="a_node6"><a xlink:href="../../tables/account_payment.html" xlink:title="account_payment" target="_top">
<polygon fill="#ffffff" stroke="none" points="963.01,-275.59 963.01,-915.59 1316.01,-915.59 1316.01,-275.59 963.01,-275.59"/>
<polygon fill="#f5f5f5" stroke="none" points="965.01,-890.59 965.01,-913.59 1314.01,-913.59 1314.01,-890.59 965.01,-890.59"/>
<polygon fill="none" stroke="black" points="965.01,-890.59 965.01,-913.59 1314.01,-913.59 1314.01,-890.59 965.01,-890.59"/>
<text text-anchor="start" x="970.01" y="-898.39" font-family="Helvetica,sans-Serif" font-weight="bold" font-size="11.00">account_payment</text>
<text text-anchor="start" x="1279.76" y="-898.14" font-family="Helvetica,sans-Serif" font-size="11.00">[table]</text>
<polygon fill="none" stroke="black" points="965.01,-868.59 965.01,-890.59 1206.01,-890.59 1206.01,-868.59 965.01,-868.59"/>
<image xlink:href="../../images/primaryKeys.png" width="11px" height="12px" preserveAspectRatio="xMinYMin meet" x="970.005" y="-885.593"/>
<text text-anchor="start" x="985.01" y="-875.14" font-family="Helvetica,sans-Serif" font-size="11.00">id</text>
<polygon fill="none" stroke="black" points="1206.01,-868.59 1206.01,-890.59 1314.01,-890.59 1314.01,-868.59 1206.01,-868.59"/>
<text text-anchor="start" x="1209.01" y="-875.89" font-family="Helvetica,sans-Serif" font-size="11.00">serial[10]</text>
<polygon fill="none" stroke="black" points="965.01,-846.59 965.01,-868.59 1206.01,-868.59 1206.01,-846.59 965.01,-846.59"/>
<text text-anchor="start" x="985.01" y="-853.14" font-family="Helvetica,sans-Serif" font-size="11.00">message_main_attachment_id</text>
<polygon fill="none" stroke="black" points="1206.01,-846.59 1206.01,-868.59 1314.01,-868.59 1314.01,-846.59 1206.01,-846.59"/>
<text text-anchor="start" x="1209.01" y="-853.89" font-family="Helvetica,sans-Serif" font-size="11.00">int4[10]</text>
<polygon fill="#ffffff" stroke="none" points="965.01,-824.59 965.01,-846.59 1206.01,-846.59 1206.01,-824.59 965.01,-824.59"/>
<polygon fill="none" stroke="black" points="965.01,-824.59 965.01,-846.59 1206.01,-846.59 1206.01,-824.59 965.01,-824.59"/>
<image xlink:href="../../images/foreignKeys.png" width="11px" height="12px" preserveAspectRatio="xMinYMin meet" x="970.005" y="-841.593"/>
<text text-anchor="start" x="985.01" y="-831.14" font-family="Helvetica,sans-Serif" font-size="11.00">move_id</text>
<polygon fill="none" stroke="black" points="1206.01,-824.59 1206.01,-846.59 1314.01,-846.59 1314.01,-824.59 1206.01,-824.59"/>
<text text-anchor="start" x="1209.01" y="-831.89" font-family="Helvetica,sans-Serif" font-size="11.00">int4[10]</text>
<polygon fill="none" stroke="black" points="965.01,-802.59 965.01,-824.59 1206.01,-824.59 1206.01,-802.59 965.01,-802.59"/>
<text text-anchor="start" x="985.01" y="-809.14" font-family="Helvetica,sans-Serif" font-size="11.00">partner_bank_id</text>
<polygon fill="none" stroke="black" points="1206.01,-802.59 1206.01,-824.59 1314.01,-824.59 1314.01,-802.59 1206.01,-802.59"/>
<text text-anchor="start" x="1209.01" y="-809.89" font-family="Helvetica,sans-Serif" font-size="11.00">int4[10]</text>
<polygon fill="#ffffff" stroke="none" points="965.01,-780.59 965.01,-802.59 1206.01,-802.59 1206.01,-780.59 965.01,-780.59"/>
<polygon fill="none" stroke="black" points="965.01,-780.59 965.01,-802.59 1206.01,-802.59 1206.01,-780.59 965.01,-780.59"/>
<image xlink:href="../../images/foreignKeys.png" width="11px" height="12px" preserveAspectRatio="xMinYMin meet" x="970.005" y="-797.593"/>
<text text-anchor="start" x="985.01" y="-787.14" font-family="Helvetica,sans-Serif" font-size="11.00">paired_internal_transfer_payment_id</text>
<polygon fill="none" stroke="black" points="1206.01,-780.59 1206.01,-802.59 1314.01,-802.59 1314.01,-780.59 1206.01,-780.59"/>
<text text-anchor="start" x="1209.01" y="-787.89" font-family="Helvetica,sans-Serif" font-size="11.00">int4[10]</text>
<polygon fill="#ffffff" stroke="none" points="965.01,-758.59 965.01,-780.59 1206.01,-780.59 1206.01,-758.59 965.01,-758.59"/>
<polygon fill="none" stroke="black" points="965.01,-758.59 965.01,-780.59 1206.01,-780.59 1206.01,-758.59 965.01,-758.59"/>
<text text-anchor="start" x="985.01" y="-765.14" font-family="Helvetica,sans-Serif" font-size="11.00">payment_method_line_id</text>
<polygon fill="none" stroke="black" points="1206.01,-758.59 1206.01,-780.59 1314.01,-780.59 1314.01,-758.59 1206.01,-758.59"/>
<text text-anchor="start" x="1209.01" y="-765.89" font-family="Helvetica,sans-Serif" font-size="11.00">int4[10]</text>
<polygon fill="none" stroke="black" points="965.01,-736.59 965.01,-758.59 1206.01,-758.59 1206.01,-736.59 965.01,-736.59"/>
<text text-anchor="start" x="985.01" y="-743.14" font-family="Helvetica,sans-Serif" font-size="11.00">payment_method_id</text>
<polygon fill="none" stroke="black" points="1206.01,-736.59 1206.01,-758.59 1314.01,-758.59 1314.01,-736.59 1206.01,-736.59"/>
<text text-anchor="start" x="1209.01" y="-743.89" font-family="Helvetica,sans-Serif" font-size="11.00">int4[10]</text>
<polygon fill="none" stroke="black" points="965.01,-714.59 965.01,-736.59 1206.01,-736.59 1206.01,-714.59 965.01,-714.59"/>
<text text-anchor="start" x="985.01" y="-721.14" font-family="Helvetica,sans-Serif" font-size="11.00">currency_id</text>
<polygon fill="none" stroke="black" points="1206.01,-714.59 1206.01,-736.59 1314.01,-736.59 1314.01,-714.59 1206.01,-714.59"/>
<text text-anchor="start" x="1209.01" y="-721.89" font-family="Helvetica,sans-Serif" font-size="11.00">int4[10]</text>
<polygon fill="none" stroke="black" points="965.01,-692.59 965.01,-714.59 1206.01,-714.59 1206.01,-692.59 965.01,-692.59"/>
<image xlink:href="../../images/foreignKeys.png" width="11px" height="12px" preserveAspectRatio="xMinYMin meet" x="970.005" y="-709.593"/>
<text text-anchor="start" x="985.01" y="-699.14" font-family="Helvetica,sans-Serif" font-size="11.00">partner_id</text>
<polygon fill="none" stroke="black" points="1206.01,-692.59 1206.01,-714.59 1314.01,-714.59 1314.01,-692.59 1206.01,-692.59"/>
<text text-anchor="start" x="1209.01" y="-699.89" font-family="Helvetica,sans-Serif" font-size="11.00">int4[10]</text>
<polygon fill="none" stroke="black" points="965.01,-670.59 965.01,-692.59 1206.01,-692.59 1206.01,-670.59 965.01,-670.59"/>
<image xlink:href="../../images/foreignKeys.png" width="11px" height="12px" preserveAspectRatio="xMinYMin meet" x="970.005" y="-687.593"/>
<text text-anchor="start" x="985.01" y="-677.14" font-family="Helvetica,sans-Serif" font-size="11.00">outstanding_account_id</text>
<polygon fill="none" stroke="black" points="1206.01,-670.59 1206.01,-692.59 1314.01,-692.59 1314.01,-670.59 1206.01,-670.59"/>
<text text-anchor="start" x="1209.01" y="-677.89" font-family="Helvetica,sans-Serif" font-size="11.00">int4[10]</text>
<polygon fill="none" stroke="black" points="965.01,-648.59 965.01,-670.59 1206.01,-670.59 1206.01,-648.59 965.01,-648.59"/>
<image xlink:href="../../images/foreignKeys.png" width="11px" height="12px" preserveAspectRatio="xMinYMin meet" x="970.005" y="-665.593"/>
<text text-anchor="start" x="985.01" y="-655.14" font-family="Helvetica,sans-Serif" font-size="11.00">destination_account_id</text>
<polygon fill="none" stroke="black" points="1206.01,-648.59 1206.01,-670.59 1314.01,-670.59 1314.01,-648.59 1206.01,-648.59"/>
<text text-anchor="start" x="1209.01" y="-655.89" font-family="Helvetica,sans-Serif" font-size="11.00">int4[10]</text>
<polygon fill="none" stroke="black" points="965.01,-626.59 965.01,-648.59 1206.01,-648.59 1206.01,-626.59 965.01,-626.59"/>
<image xlink:href="../../images/foreignKeys.png" width="11px" height="12px" preserveAspectRatio="xMinYMin meet" x="970.005" y="-643.593"/>
<text text-anchor="start" x="985.01" y="-633.14" font-family="Helvetica,sans-Serif" font-size="11.00">destination_journal_id</text>
<polygon fill="none" stroke="black" points="1206.01,-626.59 1206.01,-648.59 1314.01,-648.59 1314.01,-626.59 1206.01,-626.59"/>
<text text-anchor="start" x="1209.01" y="-633.89" font-family="Helvetica,sans-Serif" font-size="11.00">int4[10]</text>
<polygon fill="none" stroke="black" points="965.01,-604.59 965.01,-626.59 1206.01,-626.59 1206.01,-604.59 965.01,-604.59"/>
<image xlink:href="../../images/foreignKeys.png" width="11px" height="12px" preserveAspectRatio="xMinYMin meet" x="970.005" y="-621.593"/>
<text text-anchor="start" x="985.01" y="-611.14" font-family="Helvetica,sans-Serif" font-size="11.00">create_uid</text>
<polygon fill="none" stroke="black" points="1206.01,-604.59 1206.01,-626.59 1314.01,-626.59 1314.01,-604.59 1206.01,-604.59"/>
<text text-anchor="start" x="1209.01" y="-611.89" font-family="Helvetica,sans-Serif" font-size="11.00">int4[10]</text>
<polygon fill="none" stroke="black" points="965.01,-582.59 965.01,-604.59 1206.01,-604.59 1206.01,-582.59 965.01,-582.59"/>
<image xlink:href="../../images/foreignKeys.png" width="11px" height="12px" preserveAspectRatio="xMinYMin meet" x="970.005" y="-599.593"/>
<text text-anchor="start" x="985.01" y="-589.14" font-family="Helvetica,sans-Serif" font-size="11.00">write_uid</text>
<polygon fill="none" stroke="black" points="1206.01,-582.59 1206.01,-604.59 1314.01,-604.59 1314.01,-582.59 1206.01,-582.59"/>
<text text-anchor="start" x="1209.01" y="-589.89" font-family="Helvetica,sans-Serif" font-size="11.00">int4[10]</text>
<polygon fill="none" stroke="black" points="965.01,-560.59 965.01,-582.59 1206.01,-582.59 1206.01,-560.59 965.01,-560.59"/>
<text text-anchor="start" x="985.01" y="-567.14" font-family="Helvetica,sans-Serif" font-size="11.00">payment_type</text>
<polygon fill="none" stroke="black" points="1206.01,-560.59 1206.01,-582.59 1314.01,-582.59 1314.01,-560.59 1206.01,-560.59"/>
<text text-anchor="start" x="1209.01" y="-567.89" font-family="Helvetica,sans-Serif" font-size="11.00">varchar[2147483647]</text>
<polygon fill="none" stroke="black" points="965.01,-538.59 965.01,-560.59 1206.01,-560.59 1206.01,-538.59 965.01,-538.59"/>
<text text-anchor="start" x="985.01" y="-545.14" font-family="Helvetica,sans-Serif" font-size="11.00">partner_type</text>
<polygon fill="none" stroke="black" points="1206.01,-538.59 1206.01,-560.59 1314.01,-560.59 1314.01,-538.59 1206.01,-538.59"/>
<text text-anchor="start" x="1209.01" y="-545.89" font-family="Helvetica,sans-Serif" font-size="11.00">varchar[2147483647]</text>
<polygon fill="none" stroke="black" points="965.01,-516.59 965.01,-538.59 1206.01,-538.59 1206.01,-516.59 965.01,-516.59"/>
<text text-anchor="start" x="985.01" y="-523.14" font-family="Helvetica,sans-Serif" font-size="11.00">payment_reference</text>
<polygon fill="none" stroke="black" points="1206.01,-516.59 1206.01,-538.59 1314.01,-538.59 1314.01,-516.59 1206.01,-516.59"/>
<text text-anchor="start" x="1209.01" y="-523.89" font-family="Helvetica,sans-Serif" font-size="11.00">varchar[2147483647]</text>
<polygon fill="none" stroke="black" points="965.01,-494.59 965.01,-516.59 1206.01,-516.59 1206.01,-494.59 965.01,-494.59"/>
<text text-anchor="start" x="985.01" y="-501.14" font-family="Helvetica,sans-Serif" font-size="11.00">amount</text>
<polygon fill="none" stroke="black" points="1206.01,-494.59 1206.01,-516.59 1314.01,-516.59 1314.01,-494.59 1206.01,-494.59"/>
<text text-anchor="start" x="1209.01" y="-501.89" font-family="Helvetica,sans-Serif" font-size="11.00">numeric[0]</text>
<polygon fill="none" stroke="black" points="965.01,-472.59 965.01,-494.59 1206.01,-494.59 1206.01,-472.59 965.01,-472.59"/>
<text text-anchor="start" x="985.01" y="-479.14" font-family="Helvetica,sans-Serif" font-size="11.00">amount_company_currency_signed</text>
<polygon fill="none" stroke="black" points="1206.01,-472.59 1206.01,-494.59 1314.01,-494.59 1314.01,-472.59 1206.01,-472.59"/>
<text text-anchor="start" x="1209.01" y="-479.89" font-family="Helvetica,sans-Serif" font-size="11.00">numeric[0]</text>
<polygon fill="none" stroke="black" points="965.01,-450.59 965.01,-472.59 1206.01,-472.59 1206.01,-450.59 965.01,-450.59"/>
<text text-anchor="start" x="985.01" y="-457.14" font-family="Helvetica,sans-Serif" font-size="11.00">is_reconciled</text>
<polygon fill="none" stroke="black" points="1206.01,-450.59 1206.01,-472.59 1314.01,-472.59 1314.01,-450.59 1206.01,-450.59"/>
<text text-anchor="start" x="1209.01" y="-457.89" font-family="Helvetica,sans-Serif" font-size="11.00">bool[1]</text>
<polygon fill="none" stroke="black" points="965.01,-428.59 965.01,-450.59 1206.01,-450.59 1206.01,-428.59 965.01,-428.59"/>
<text text-anchor="start" x="985.01" y="-435.14" font-family="Helvetica,sans-Serif" font-size="11.00">is_matched</text>
<polygon fill="none" stroke="black" points="1206.01,-428.59 1206.01,-450.59 1314.01,-450.59 1314.01,-428.59 1206.01,-428.59"/>
<text text-anchor="start" x="1209.01" y="-435.89" font-family="Helvetica,sans-Serif" font-size="11.00">bool[1]</text>
<polygon fill="none" stroke="black" points="965.01,-406.59 965.01,-428.59 1206.01,-428.59 1206.01,-406.59 965.01,-406.59"/>
<text text-anchor="start" x="985.01" y="-413.14" font-family="Helvetica,sans-Serif" font-size="11.00">is_internal_transfer</text>
<polygon fill="none" stroke="black" points="1206.01,-406.59 1206.01,-428.59 1314.01,-428.59 1314.01,-406.59 1206.01,-406.59"/>
<text text-anchor="start" x="1209.01" y="-413.89" font-family="Helvetica,sans-Serif" font-size="11.00">bool[1]</text>
<polygon fill="none" stroke="black" points="965.01,-384.59 965.01,-406.59 1206.01,-406.59 1206.01,-384.59 965.01,-384.59"/>
<text text-anchor="start" x="985.01" y="-391.14" font-family="Helvetica,sans-Serif" font-size="11.00">create_date</text>
<polygon fill="none" stroke="black" points="1206.01,-384.59 1206.01,-406.59 1314.01,-406.59 1314.01,-384.59 1206.01,-384.59"/>
<text text-anchor="start" x="1209.01" y="-391.89" font-family="Helvetica,sans-Serif" font-size="11.00">timestamp[29,6]</text>
<polygon fill="none" stroke="black" points="965.01,-362.59 965.01,-384.59 1206.01,-384.59 1206.01,-362.59 965.01,-362.59"/>
<text text-anchor="start" x="985.01" y="-369.14" font-family="Helvetica,sans-Serif" font-size="11.00">write_date</text>
<polygon fill="none" stroke="black" points="1206.01,-362.59 1206.01,-384.59 1314.01,-384.59 1314.01,-362.59 1206.01,-362.59"/>
<text text-anchor="start" x="1209.01" y="-369.89" font-family="Helvetica,sans-Serif" font-size="11.00">timestamp[29,6]</text>
<polygon fill="none" stroke="black" points="965.01,-340.59 965.01,-362.59 1206.01,-362.59 1206.01,-340.59 965.01,-340.59"/>
<text text-anchor="start" x="985.01" y="-347.14" font-family="Helvetica,sans-Serif" font-size="11.00">payment_transaction_id</text>
<polygon fill="none" stroke="black" points="1206.01,-340.59 1206.01,-362.59 1314.01,-362.59 1314.01,-340.59 1206.01,-340.59"/>
<text text-anchor="start" x="1209.01" y="-347.89" font-family="Helvetica,sans-Serif" font-size="11.00">int4[10]</text>
<polygon fill="none" stroke="black" points="965.01,-318.59 965.01,-340.59 1206.01,-340.59 1206.01,-318.59 965.01,-318.59"/>
<text text-anchor="start" x="985.01" y="-325.14" font-family="Helvetica,sans-Serif" font-size="11.00">payment_token_id</text>
<polygon fill="none" stroke="black" points="1206.01,-318.59 1206.01,-340.59 1314.01,-340.59 1314.01,-318.59 1206.01,-318.59"/>
<text text-anchor="start" x="1209.01" y="-325.89" font-family="Helvetica,sans-Serif" font-size="11.00">int4[10]</text>
<polygon fill="#ffffff" stroke="none" points="965.01,-296.59 965.01,-318.59 1206.01,-318.59 1206.01,-296.59 965.01,-296.59"/>
<polygon fill="none" stroke="black" points="965.01,-296.59 965.01,-318.59 1206.01,-318.59 1206.01,-296.59 965.01,-296.59"/>
<image xlink:href="../../images/foreignKeys.png" width="11px" height="12px" preserveAspectRatio="xMinYMin meet" x="970.005" y="-313.593"/>
<text text-anchor="start" x="985.01" y="-303.14" font-family="Helvetica,sans-Serif" font-size="11.00">source_payment_id</text>
<polygon fill="none" stroke="black" points="1206.01,-296.59 1206.01,-318.59 1314.01,-318.59 1314.01,-296.59 1206.01,-296.59"/>
<text text-anchor="start" x="1209.01" y="-303.89" font-family="Helvetica,sans-Serif" font-size="11.00">int4[10]</text>
<polygon fill="#ffffff" stroke="none" points="965.01,-277.59 965.01,-296.59 1090.01,-296.59 1090.01,-277.59 965.01,-277.59"/>
<polygon fill="none" stroke="black" points="965.01,-277.59 965.01,-296.59 1090.01,-296.59 1090.01,-277.59 965.01,-277.59"/>
<text text-anchor="start" x="968.01" y="-283.14" font-family="Helvetica,sans-Serif" font-size="11.00">&lt; 9</text>
<polygon fill="#ffffff" stroke="none" points="1090.01,-277.59 1090.01,-296.59 1206.01,-296.59 1206.01,-277.59 1090.01,-277.59"/>
<polygon fill="none" stroke="black" points="1090.01,-277.59 1090.01,-296.59 1206.01,-296.59 1206.01,-277.59 1090.01,-277.59"/>
<text text-anchor="start" x="1197.01" y="-283.14" font-family="Helvetica,sans-Serif" font-size="11.00"> &#160;</text>
<polygon fill="#ffffff" stroke="none" points="1206.01,-277.59 1206.01,-296.59 1314.01,-296.59 1314.01,-277.59 1206.01,-277.59"/>
<polygon fill="none" stroke="black" points="1206.01,-277.59 1206.01,-296.59 1314.01,-296.59 1314.01,-277.59 1206.01,-277.59"/>
<text text-anchor="start" x="1295.26" y="-283.14" font-family="Helvetica,sans-Serif" font-size="11.00">4 &gt;</text>
<polygon fill="none" stroke="black" stroke-width="2" points="964.01,-276.59 964.01,-914.59 1315.01,-914.59 1315.01,-276.59 964.01,-276.59"/>
</a>
</g>
</g>
<!-- account_move&#45;&gt;account_payment -->
<g id="edge16" class="edge">
<title>account_move:w&#45;&gt;account_payment:e</title>
<path fill="none" stroke="black" d="M1348.69,-863.67C1337.81,-869.3 1332.03,-879.59 1315.01,-879.59"/>
<polygon fill="black" stroke="black" points="1355.89,-861.99 1364.5,-863.68 1360.11,-861 1363.35,-860.25 1363.35,-860.25 1363.35,-860.25 1360.11,-861 1362.86,-856.66 1355.89,-861.99"/>
<ellipse fill="none" stroke="black" cx="1351.1" cy="-863.11" rx="3.2" ry="3.2"/>
</g>
<!-- res_partner&#45;&gt;res_users -->
<g id="edge35" class="edge">
<title>res_partner:w&#45;&gt;res_users:e</title>
<path fill="none" stroke="black" d="M4.72,-550.92C-0.16,-539.18 7.18,-517.7 19.01,-506.09 81.81,-444.46 133.59,-478.06 217.01,-506.09 234.45,-511.95 232.56,-525.23 250.01,-531.09 315.73,-553.18 356.34,-579.47 406.01,-531.09 418.11,-519.31 423.9,-493.09 407.01,-493.09"/>
<polygon fill="black" stroke="black" points="10.91,-554.73 15.83,-561.98 14.6,-557 17.44,-558.74 17.44,-558.74 17.44,-558.74 14.6,-557 19.61,-555.85 10.91,-554.73"/>
<ellipse fill="none" stroke="black" cx="6.72" cy="-552.15" rx="3.2" ry="3.2"/>
</g>
<!-- res_partner&#45;&gt;res_users -->
<g id="edge36" class="edge">
<title>res_partner:w&#45;&gt;res_users:e</title>
<path fill="none" stroke="black" d="M7.33,-591.52C0.28,-568.4 7.27,-517.7 19.01,-506.09 81.55,-444.19 133.59,-478.06 217.01,-506.09 234.45,-511.95 232.56,-525.23 250.01,-531.09 315.73,-553.18 356.34,-579.47 406.01,-531.09 418.11,-519.31 423.9,-493.09 407.01,-493.09"/>
<polygon fill="black" stroke="black" points="12.35,-596.97 15.13,-605.29 15.29,-600.15 17.55,-602.6 17.55,-602.6 17.55,-602.6 15.29,-600.15 20.42,-600.41 12.35,-596.97"/>
<ellipse fill="none" stroke="black" cx="9.02" cy="-593.35" rx="3.2" ry="3.2"/>
</g>
<!-- res_partner&#45;&gt;res_users -->
<g id="edge37" class="edge">
<title>res_partner:w&#45;&gt;res_users:e</title>
<path fill="none" stroke="black" d="M9.57,-770.47C-0.68,-811.97 6.42,-936.57 19.01,-949.09 81.39,-1011.16 143.06,-996.81 217.01,-949.09 458.97,-792.95 427.98,-493.09 407.01,-493.09"/>
<polygon fill="black" stroke="black" points="13.56,-764.14 20.87,-759.3 15.87,-760.48 17.65,-757.66 17.65,-757.66 17.65,-757.66 15.87,-760.48 14.78,-755.46 13.56,-764.14"/>
<ellipse fill="none" stroke="black" cx="10.94" cy="-768.3" rx="3.2" ry="3.2"/>
</g>
<!-- res_partner&#45;&gt;res_users -->
<g id="edge38" class="edge">
<title>res_partner:w&#45;&gt;res_users:e</title>
<path fill="none" stroke="black" d="M6,-833.03C-6.2,-859.91 2.85,-933.07 19.01,-949.09 81.48,-1011.07 143.06,-996.81 217.01,-949.09 458.97,-792.95 427.98,-493.09 407.01,-493.09"/>
<polygon fill="black" stroke="black" points="11.58,-828.41 20.04,-826.08 14.92,-825.64 17.49,-823.52 17.49,-823.52 17.49,-823.52 14.92,-825.64 15.45,-820.53 11.58,-828.41"/>
<ellipse fill="none" stroke="black" cx="7.79" cy="-831.54" rx="3.2" ry="3.2"/>
</g>
<!-- res_partner&#45;&gt;res_users -->
<g id="edge39" class="edge">
<title>res_partner:w&#45;&gt;res_users:e</title>
<path fill="none" stroke="black" d="M9.09,-748.1C-3.08,-792.32 4.79,-934.94 19.01,-949.09 81.38,-1011.17 143.06,-996.81 217.01,-949.09 458.97,-792.95 427.98,-493.09 407.01,-493.09"/>
<polygon fill="black" stroke="black" points="13.29,-741.97 20.79,-737.4 15.74,-738.39 17.63,-735.65 17.63,-735.65 17.63,-735.65 15.74,-738.39 14.85,-733.33 13.29,-741.97"/>
<ellipse fill="none" stroke="black" cx="10.51" cy="-746.03" rx="3.2" ry="3.2"/>
</g>
<!-- account_payment&#45;&gt;account_account -->
<g id="edge27" class="edge">
<title>account_payment:w&#45;&gt;account_account:e</title>
<path fill="none" stroke="black" d="M948.99,-663.87C940.66,-669.46 936.18,-678.97 922.01,-682.59 832.88,-705.4 805.62,-698.51 715.01,-682.59 696.38,-679.32 693.91,-668.09 675.01,-668.09"/>
<polygon fill="black" stroke="black" points="955.99,-661.87 964.67,-663.15 960.16,-660.69 963.36,-659.78 963.36,-659.78 963.36,-659.78 960.16,-660.69 962.7,-656.22 955.99,-661.87"/>
<ellipse fill="none" stroke="black" cx="951.26" cy="-663.22" rx="3.2" ry="3.2"/>
</g>
<!-- account_payment&#45;&gt;account_account -->
<g id="edge30" class="edge">
<title>account_payment:w&#45;&gt;account_account:e</title>
<path fill="none" stroke="black" d="M948.7,-685.25C940.57,-689.67 935.37,-696.85 922.01,-699.59 831.88,-718.09 801.93,-729.71 715.01,-699.59 693.62,-692.19 697.63,-668.09 675.01,-668.09"/>
<polygon fill="black" stroke="black" points="955.9,-683.53 964.52,-685.17 960.11,-682.52 963.35,-681.75 963.35,-681.75 963.35,-681.75 960.11,-682.52 962.84,-678.17 955.9,-683.53"/>
<ellipse fill="none" stroke="black" cx="951.11" cy="-684.67" rx="3.2" ry="3.2"/>
</g>
<!-- account_payment&#45;&gt;res_users -->
<g id="edge26" class="edge">
<title>account_payment:w&#45;&gt;res_users:e</title>
<path fill="none" stroke="black" d="M948.31,-614.04C873.66,-597 998.75,-444.84 922.01,-380.59 851.46,-321.54 806.06,-367.45 715.01,-380.59 592.1,-398.33 556.46,-400.94 447.01,-459.59 426.57,-470.55 430.19,-493.09 407.01,-493.09"/>
<polygon fill="black" stroke="black" points="955.71,-614.77 963.32,-619.14 960.02,-615.2 963.34,-615.53 963.34,-615.53 963.34,-615.53 960.02,-615.2 964.03,-611.98 955.71,-614.77"/>
<ellipse fill="none" stroke="black" cx="950.82" cy="-614.28" rx="3.2" ry="3.2"/>
</g>
<!-- account_payment&#45;&gt;res_users -->
<g id="edge34" class="edge">
<title>account_payment:w&#45;&gt;res_users:e</title>
<path fill="none" stroke="black" d="M948.28,-592.09C870.26,-575.04 1001.26,-417.33 922.01,-350.59 871.73,-308.26 449.05,-380.97 447.01,-382.59 406.1,-415.07 459.23,-493.09 407.01,-493.09"/>
<polygon fill="black" stroke="black" points="955.71,-592.8 963.33,-597.15 960.02,-593.21 963.34,-593.53 963.34,-593.53 963.34,-593.53 960.02,-593.21 964.01,-589.98 955.71,-592.8"/>
<ellipse fill="none" stroke="black" cx="950.81" cy="-592.33" rx="3.2" ry="3.2"/>
</g>
<!-- account_payment&#45;&gt;account_journal -->
<g id="edge28" class="edge">
<title>account_payment:w&#45;&gt;account_journal:e</title>
<path fill="none" stroke="black" d="M948.42,-637.69C937.71,-637.84 930.49,-638.09 915.01,-638.09"/>
<polygon fill="black" stroke="black" points="955.67,-637.65 963.69,-641.2 960.01,-637.62 963.34,-637.6 963.34,-637.6 963.34,-637.6 960.01,-637.62 963.65,-634 955.67,-637.65"/>
<ellipse fill="none" stroke="black" cx="950.75" cy="-637.68" rx="3.2" ry="3.2"/>
</g>
<!-- account_payment&#45;&gt;account_move -->
<g id="edge29" class="edge">
<title>account_payment:w&#45;&gt;account_move:e</title>
<path fill="none" stroke="black" d="M949.06,-840.14C931.66,-854.04 944.47,-896.48 965.01,-919.59 1018.44,-979.75 1247.94,-940.37 1324.01,-966.59 1340.11,-972.15 1340.57,-981.6 1357.01,-986.09 1382.62,-993.1 1576.98,-1004.62 1596.01,-986.09 1608.11,-974.31 1613.9,-948.09 1597.01,-948.09"/>
<polygon fill="black" stroke="black" points="956.03,-838.02 964.73,-839.14 960.18,-836.76 963.37,-835.79 963.37,-835.79 963.37,-835.79 960.18,-836.76 962.64,-832.25 956.03,-838.02"/>
<ellipse fill="none" stroke="black" cx="951.33" cy="-839.45" rx="3.2" ry="3.2"/>
</g>
<!-- account_payment&#45;&gt;res_partner -->
<g id="edge32" class="edge">
<title>account_payment:w&#45;&gt;res_partner:e</title>
<path fill="none" stroke="black" d="M948.41,-706.2C940.22,-709.34 934.57,-714.66 922.01,-718.59 609.18,-816.57 537.81,-911.09 210.01,-911.09"/>
<polygon fill="black" stroke="black" points="955.78,-704.97 964.27,-707.2 960.06,-704.25 963.35,-703.7 963.35,-703.7 963.35,-703.7 960.06,-704.25 963.08,-700.1 955.78,-704.97"/>
<ellipse fill="none" stroke="black" cx="950.93" cy="-705.78" rx="3.2" ry="3.2"/>
</g>
<!-- account_payment&#45;&gt;account_payment -->
<g id="edge31" class="edge">
<title>account_payment:w&#45;&gt;account_payment:e</title>
<path fill="none" stroke="black" d="M955.98,-804.38C885.14,-906.12 894.71,-932.59 1139.51,-932.59 1394.26,-932.59 1394.26,-923.93 1314.01,-879.59"/>
<polygon fill="black" stroke="black" points="960.2,-798.4 967.75,-793.94 962.7,-794.86 964.62,-792.14 964.62,-792.14 964.62,-792.14 962.7,-794.86 961.87,-789.79 960.2,-798.4"/>
<ellipse fill="none" stroke="black" cx="957.36" cy="-802.42" rx="3.2" ry="3.2"/>
</g>
<!-- account_payment&#45;&gt;account_payment -->
<g id="edge33" class="edge">
<title>account_payment:w&#45;&gt;account_payment:e</title>
<path fill="none" stroke="black" d="M956.85,-320.89C885.07,-455.34 893.71,-932.59 1139.51,-932.59 1394.26,-932.59 1394.26,-923.93 1314.01,-879.59"/>
<polygon fill="black" stroke="black" points="960.65,-314.7 967.9,-309.76 962.91,-311 964.66,-308.16 964.66,-308.16 964.66,-308.16 962.91,-311 961.76,-306 960.65,-314.7"/>
<ellipse fill="none" stroke="black" cx="958.07" cy="-318.89" rx="3.2" ry="3.2"/>
</g>
<!-- account_move_line -->
<g id="node7" class="node">
<title>account_move_line</title>
<g id="a_node7"><a xlink:href="../../tables/account_move_line.html" xlink:title="account_move_line" target="_top">
<polygon fill="#ffffff" stroke="none" points="1645.01,-482.09 1645.01,-1093.09 1828.01,-1093.09 1828.01,-482.09 1645.01,-482.09"/>
<polygon fill="#f5f5f5" stroke="none" points="1645.01,-1070.09 1645.01,-1093.09 1828.01,-1093.09 1828.01,-1070.09 1645.01,-1070.09"/>
<polygon fill="none" stroke="black" points="1645.01,-1070.09 1645.01,-1093.09 1828.01,-1093.09 1828.01,-1070.09 1645.01,-1070.09"/>
<text text-anchor="start" x="1650.01" y="-1077.89" font-family="Helvetica,sans-Serif" font-weight="bold" font-size="11.00">account_move_line</text>
<text text-anchor="start" x="1793.76" y="-1077.64" font-family="Helvetica,sans-Serif" font-size="11.00">[table]</text>
<polygon fill="none" stroke="black" points="1645.01,-1048.09 1645.01,-1070.09 1828.01,-1070.09 1828.01,-1048.09 1645.01,-1048.09"/>
<image xlink:href="../../images/primaryKeys.png" width="11px" height="12px" preserveAspectRatio="xMinYMin meet" x="1650.01" y="-1065.09"/>
<text text-anchor="start" x="1665.01" y="-1054.64" font-family="Helvetica,sans-Serif" font-size="11.00">id</text>
<polygon fill="#ffffff" stroke="none" points="1645.01,-1026.09 1645.01,-1048.09 1828.01,-1048.09 1828.01,-1026.09 1645.01,-1026.09"/>
<polygon fill="none" stroke="black" points="1645.01,-1026.09 1645.01,-1048.09 1828.01,-1048.09 1828.01,-1026.09 1645.01,-1026.09"/>
<image xlink:href="../../images/foreignKeys.png" width="11px" height="12px" preserveAspectRatio="xMinYMin meet" x="1650.01" y="-1043.09"/>
<text text-anchor="start" x="1665.01" y="-1032.64" font-family="Helvetica,sans-Serif" font-size="11.00">move_id</text>
<polygon fill="#ffffff" stroke="none" points="1645.01,-1004.09 1645.01,-1026.09 1828.01,-1026.09 1828.01,-1004.09 1645.01,-1004.09"/>
<polygon fill="none" stroke="black" points="1645.01,-1004.09 1645.01,-1026.09 1828.01,-1026.09 1828.01,-1004.09 1645.01,-1004.09"/>
<image xlink:href="../../images/foreignKeys.png" width="11px" height="12px" preserveAspectRatio="xMinYMin meet" x="1650.01" y="-1021.09"/>
<text text-anchor="start" x="1665.01" y="-1010.64" font-family="Helvetica,sans-Serif" font-size="11.00">journal_id</text>
<polygon fill="#ffffff" stroke="none" points="1645.01,-982.09 1645.01,-1004.09 1828.01,-1004.09 1828.01,-982.09 1645.01,-982.09"/>
<polygon fill="none" stroke="black" points="1645.01,-982.09 1645.01,-1004.09 1828.01,-1004.09 1828.01,-982.09 1645.01,-982.09"/>
<text text-anchor="start" x="1665.01" y="-988.64" font-family="Helvetica,sans-Serif" font-size="11.00">company_id</text>
<polygon fill="#ffffff" stroke="none" points="1645.01,-960.09 1645.01,-982.09 1828.01,-982.09 1828.01,-960.09 1645.01,-960.09"/>
<polygon fill="none" stroke="black" points="1645.01,-960.09 1645.01,-982.09 1828.01,-982.09 1828.01,-960.09 1645.01,-960.09"/>
<image xlink:href="../../images/foreignKeys.png" width="11px" height="12px" preserveAspectRatio="xMinYMin meet" x="1650.01" y="-977.093"/>
<text text-anchor="start" x="1665.01" y="-966.64" font-family="Helvetica,sans-Serif" font-size="11.00">account_id</text>
<polygon fill="#ffffff" stroke="none" points="1645.01,-938.09 1645.01,-960.09 1828.01,-960.09 1828.01,-938.09 1645.01,-938.09"/>
<polygon fill="none" stroke="black" points="1645.01,-938.09 1645.01,-960.09 1828.01,-960.09 1828.01,-938.09 1645.01,-938.09"/>
<image xlink:href="../../images/foreignKeys.png" width="11px" height="12px" preserveAspectRatio="xMinYMin meet" x="1650.01" y="-955.093"/>
<text text-anchor="start" x="1665.01" y="-944.64" font-family="Helvetica,sans-Serif" font-size="11.00">partner_id</text>
<polygon fill="#ffffff" stroke="none" points="1645.01,-916.09 1645.01,-938.09 1828.01,-938.09 1828.01,-916.09 1645.01,-916.09"/>
<polygon fill="none" stroke="black" points="1645.01,-916.09 1645.01,-938.09 1828.01,-938.09 1828.01,-916.09 1645.01,-916.09"/>
<image xlink:href="../../images/foreignKeys.png" width="11px" height="12px" preserveAspectRatio="xMinYMin meet" x="1650.01" y="-933.093"/>
<text text-anchor="start" x="1665.01" y="-922.64" font-family="Helvetica,sans-Serif" font-size="11.00">payment_id</text>
<polygon fill="#ffffff" stroke="none" points="1645.01,-894.09 1645.01,-916.09 1828.01,-916.09 1828.01,-894.09 1645.01,-894.09"/>
<polygon fill="none" stroke="black" points="1645.01,-894.09 1645.01,-916.09 1828.01,-916.09 1828.01,-894.09 1645.01,-894.09"/>
<text text-anchor="start" x="1665.01" y="-900.64" font-family="Helvetica,sans-Serif" font-size="11.00">statement_line_id</text>
<polygon fill="#ffffff" stroke="none" points="1645.01,-872.09 1645.01,-894.09 1828.01,-894.09 1828.01,-872.09 1645.01,-872.09"/>
<polygon fill="none" stroke="black" points="1645.01,-872.09 1645.01,-894.09 1828.01,-894.09 1828.01,-872.09 1645.01,-872.09"/>
<text text-anchor="start" x="1665.01" y="-878.64" font-family="Helvetica,sans-Serif" font-size="11.00">statement_id</text>
<polygon fill="#ffffff" stroke="none" points="1645.01,-850.09 1645.01,-872.09 1828.01,-872.09 1828.01,-850.09 1645.01,-850.09"/>
<polygon fill="none" stroke="black" points="1645.01,-850.09 1645.01,-872.09 1828.01,-872.09 1828.01,-850.09 1645.01,-850.09"/>
<image xlink:href="../../images/foreignKeys.png" width="11px" height="12px" preserveAspectRatio="xMinYMin meet" x="1650.01" y="-867.093"/>
<text text-anchor="start" x="1665.01" y="-856.64" font-family="Helvetica,sans-Serif" font-size="11.00">group_tax_id</text>
<polygon fill="none" stroke="black" points="1645.01,-828.09 1645.01,-850.09 1828.01,-850.09 1828.01,-828.09 1645.01,-828.09"/>
<image xlink:href="../../images/foreignKeys.png" width="11px" height="12px" preserveAspectRatio="xMinYMin meet" x="1650.01" y="-845.093"/>
<text text-anchor="start" x="1665.01" y="-834.64" font-family="Helvetica,sans-Serif" font-size="11.00">tax_line_id</text>
<polygon fill="#ffffff" stroke="none" points="1645.01,-806.09 1645.01,-828.09 1828.01,-828.09 1828.01,-806.09 1645.01,-806.09"/>
<polygon fill="none" stroke="black" points="1645.01,-806.09 1645.01,-828.09 1828.01,-828.09 1828.01,-806.09 1645.01,-806.09"/>
<text text-anchor="start" x="1665.01" y="-812.64" font-family="Helvetica,sans-Serif" font-size="11.00">full_reconcile_id</text>
<polygon fill="none" stroke="black" points="1645.01,-784.09 1645.01,-806.09 1828.01,-806.09 1828.01,-784.09 1645.01,-784.09"/>
<image xlink:href="../../images/foreignKeys.png" width="11px" height="12px" preserveAspectRatio="xMinYMin meet" x="1650.01" y="-801.093"/>
<text text-anchor="start" x="1665.01" y="-790.64" font-family="Helvetica,sans-Serif" font-size="11.00">create_uid</text>
<polygon fill="none" stroke="black" points="1645.01,-762.09 1645.01,-784.09 1828.01,-784.09 1828.01,-762.09 1645.01,-762.09"/>
<image xlink:href="../../images/foreignKeys.png" width="11px" height="12px" preserveAspectRatio="xMinYMin meet" x="1650.01" y="-779.093"/>
<text text-anchor="start" x="1665.01" y="-768.64" font-family="Helvetica,sans-Serif" font-size="11.00">write_uid</text>
<polygon fill="#ffffff" stroke="none" points="1645.01,-740.09 1645.01,-762.09 1828.01,-762.09 1828.01,-740.09 1645.01,-740.09"/>
<polygon fill="none" stroke="black" points="1645.01,-740.09 1645.01,-762.09 1828.01,-762.09 1828.01,-740.09 1645.01,-740.09"/>
<text text-anchor="start" x="1665.01" y="-746.64" font-family="Helvetica,sans-Serif" font-size="11.00">move_name</text>
<polygon fill="#ffffff" stroke="none" points="1645.01,-718.09 1645.01,-740.09 1828.01,-740.09 1828.01,-718.09 1645.01,-718.09"/>
<polygon fill="none" stroke="black" points="1645.01,-718.09 1645.01,-740.09 1828.01,-740.09 1828.01,-718.09 1645.01,-718.09"/>
<text text-anchor="start" x="1665.01" y="-724.64" font-family="Helvetica,sans-Serif" font-size="11.00">ref</text>
<polygon fill="#ffffff" stroke="none" points="1645.01,-696.09 1645.01,-718.09 1828.01,-718.09 1828.01,-696.09 1645.01,-696.09"/>
<polygon fill="none" stroke="black" points="1645.01,-696.09 1645.01,-718.09 1828.01,-718.09 1828.01,-696.09 1645.01,-696.09"/>
<text text-anchor="start" x="1665.01" y="-702.64" font-family="Helvetica,sans-Serif" font-size="11.00">matching_number</text>
<polygon fill="#ffffff" stroke="none" points="1645.01,-674.09 1645.01,-696.09 1828.01,-696.09 1828.01,-674.09 1645.01,-674.09"/>
<polygon fill="none" stroke="black" points="1645.01,-674.09 1645.01,-696.09 1828.01,-696.09 1828.01,-674.09 1645.01,-674.09"/>
<text text-anchor="start" x="1665.01" y="-680.64" font-family="Helvetica,sans-Serif" font-size="11.00">date</text>
<polygon fill="#ffffff" stroke="none" points="1645.01,-652.09 1645.01,-674.09 1828.01,-674.09 1828.01,-652.09 1645.01,-652.09"/>
<polygon fill="none" stroke="black" points="1645.01,-652.09 1645.01,-674.09 1828.01,-674.09 1828.01,-652.09 1645.01,-652.09"/>
<text text-anchor="start" x="1665.01" y="-658.64" font-family="Helvetica,sans-Serif" font-size="11.00">date_maturity</text>
<polygon fill="#ffffff" stroke="none" points="1645.01,-630.09 1645.01,-652.09 1828.01,-652.09 1828.01,-630.09 1645.01,-630.09"/>
<polygon fill="none" stroke="black" points="1645.01,-630.09 1645.01,-652.09 1828.01,-652.09 1828.01,-630.09 1645.01,-630.09"/>
<text text-anchor="start" x="1665.01" y="-636.64" font-family="Helvetica,sans-Serif" font-size="11.00">deferred_start_date</text>
<polygon fill="#ffffff" stroke="none" points="1645.01,-608.09 1645.01,-630.09 1828.01,-630.09 1828.01,-608.09 1645.01,-608.09"/>
<polygon fill="none" stroke="black" points="1645.01,-608.09 1645.01,-630.09 1828.01,-630.09 1828.01,-608.09 1645.01,-608.09"/>
<text text-anchor="start" x="1665.01" y="-614.64" font-family="Helvetica,sans-Serif" font-size="11.00">deferred_end_date</text>
<polygon fill="#ffffff" stroke="none" points="1645.01,-586.09 1645.01,-608.09 1828.01,-608.09 1828.01,-586.09 1645.01,-586.09"/>
<polygon fill="none" stroke="black" points="1645.01,-586.09 1645.01,-608.09 1828.01,-608.09 1828.01,-586.09 1645.01,-586.09"/>
<text text-anchor="start" x="1665.01" y="-592.64" font-family="Helvetica,sans-Serif" font-size="11.00">purchase_line_id</text>
<polygon fill="#ffffff" stroke="none" points="1645.01,-564.09 1645.01,-586.09 1828.01,-586.09 1828.01,-564.09 1645.01,-564.09"/>
<polygon fill="none" stroke="black" points="1645.01,-564.09 1645.01,-586.09 1828.01,-586.09 1828.01,-564.09 1645.01,-564.09"/>
<text text-anchor="start" x="1665.01" y="-570.64" font-family="Helvetica,sans-Serif" font-size="11.00">last_followup_date</text>
<polygon fill="#ffffff" stroke="none" points="1645.01,-542.09 1645.01,-564.09 1828.01,-564.09 1828.01,-542.09 1645.01,-542.09"/>
<polygon fill="none" stroke="black" points="1645.01,-542.09 1645.01,-564.09 1828.01,-564.09 1828.01,-542.09 1645.01,-542.09"/>
<image xlink:href="../../images/foreignKeys.png" width="11px" height="12px" preserveAspectRatio="xMinYMin meet" x="1650.01" y="-559.093"/>
<text text-anchor="start" x="1665.01" y="-548.64" font-family="Helvetica,sans-Serif" font-size="11.00">subscription_id</text>
<polygon fill="none" stroke="black" points="1645.01,-520.09 1645.01,-542.09 1828.01,-542.09 1828.01,-520.09 1645.01,-520.09"/>
<image xlink:href="../../images/foreignKeys.png" width="11px" height="12px" preserveAspectRatio="xMinYMin meet" x="1650.01" y="-537.093"/>
<text text-anchor="start" x="1665.01" y="-526.64" font-family="Helvetica,sans-Serif" font-size="11.00">citizen_id</text>
<polygon fill="none" stroke="black" points="1645.01,-501.09 1645.01,-520.09 1828.01,-520.09 1828.01,-501.09 1645.01,-501.09"/>
<text text-anchor="start" x="1648.01" y="-506.64" font-family="Helvetica,sans-Serif" font-size="11.00">...</text>
<polygon fill="#ffffff" stroke="none" points="1645.01,-482.09 1645.01,-501.09 1738.01,-501.09 1738.01,-482.09 1645.01,-482.09"/>
<polygon fill="none" stroke="black" points="1645.01,-482.09 1645.01,-501.09 1738.01,-501.09 1738.01,-482.09 1645.01,-482.09"/>
<text text-anchor="start" x="1648.01" y="-487.64" font-family="Helvetica,sans-Serif" font-size="11.00">&lt; 11</text>
<polygon fill="#ffffff" stroke="none" points="1738.01,-482.09 1738.01,-501.09 1783.01,-501.09 1783.01,-482.09 1738.01,-482.09"/>
<polygon fill="none" stroke="black" points="1738.01,-482.09 1738.01,-501.09 1783.01,-501.09 1783.01,-482.09 1738.01,-482.09"/>
<text text-anchor="start" x="1774.01" y="-487.64" font-family="Helvetica,sans-Serif" font-size="11.00"> &#160;</text>
<polygon fill="#ffffff" stroke="none" points="1783.01,-482.09 1783.01,-501.09 1828.01,-501.09 1828.01,-482.09 1783.01,-482.09"/>
<polygon fill="none" stroke="black" points="1783.01,-482.09 1783.01,-501.09 1828.01,-501.09 1828.01,-482.09 1783.01,-482.09"/>
<text text-anchor="start" x="1819.01" y="-487.64" font-family="Helvetica,sans-Serif" font-size="11.00"> &#160;</text>
</a>
</g>
</g>
<!-- account_move_line&#45;&gt;account_account -->
<g id="edge18" class="edge">
<title>account_move_line:w&#45;&gt;account_account:e</title>
<path fill="none" stroke="black" d="M1629.37,-977.1C1619.78,-988.66 1623.93,-1013.73 1604.01,-1023.59 1344.39,-1152.18 1213.03,-1094.35 955.01,-962.59 819.53,-893.42 815.71,-832.6 715.01,-718.59 696.05,-697.13 703.64,-668.09 675.01,-668.09"/>
<polygon fill="black" stroke="black" points="1636.3,-974.26 1645.06,-974.55 1640.3,-972.61 1643.39,-971.35 1643.39,-971.35 1643.39,-971.35 1640.3,-972.61 1642.33,-967.89 1636.3,-974.26"/>
<ellipse fill="none" stroke="black" cx="1631.75" cy="-976.13" rx="3.2" ry="3.2"/>
</g>
<!-- account_move_line&#45;&gt;res_users -->
<g id="edge20" class="edge">
<title>account_move_line:w&#45;&gt;res_users:e</title>
<path fill="none" stroke="black" d="M1631,-786.64C1582.92,-713.92 1651.27,-195.1 1604.01,-147.59 1531.2,-74.41 1243.74,-116.59 1140.51,-116.59 1140.51,-116.59 1140.51,-116.59 817.51,-116.59 734.94,-116.59 506.51,-87.35 447.01,-144.59 390.82,-198.63 484.96,-493.09 407.01,-493.09"/>
<polygon fill="black" stroke="black" points="1637.02,-790.55 1641.76,-797.93 1640.65,-792.91 1643.44,-794.73 1643.44,-794.73 1643.44,-794.73 1640.65,-792.91 1645.69,-791.89 1637.02,-790.55"/>
<ellipse fill="none" stroke="black" cx="1632.89" cy="-787.87" rx="3.2" ry="3.2"/>
</g>
<!-- account_move_line&#45;&gt;res_users -->
<g id="edge25" class="edge">
<title>account_move_line:w&#45;&gt;res_users:e</title>
<path fill="none" stroke="black" d="M1630.87,-764.79C1580.69,-691.04 1654.06,-150 1604.01,-101.59 1455.86,41.65 1346.57,-89.59 1140.51,-89.59 1140.51,-89.59 1140.51,-89.59 817.51,-89.59 652.67,-89.59 566.85,6.58 447.01,-106.59 384.22,-165.88 493.35,-493.09 407.01,-493.09"/>
<polygon fill="black" stroke="black" points="1636.96,-768.64 1641.8,-775.96 1640.62,-770.96 1643.44,-772.74 1643.44,-772.74 1643.44,-772.74 1640.62,-770.96 1645.65,-769.87 1636.96,-768.64"/>
<ellipse fill="none" stroke="black" cx="1632.8" cy="-766.01" rx="3.2" ry="3.2"/>
</g>
<!-- account_move_line&#45;&gt;account_journal -->
<g id="edge21" class="edge">
<title>account_move_line:w&#45;&gt;account_journal:e</title>
<path fill="none" stroke="black" d="M1630.27,-1007.98C1564.53,-930.49 1667.1,-244.72 1604.01,-184.59 1514.72,-99.51 1001.54,-193.14 955.01,-241.59 893.66,-305.46 1003.56,-638.09 915.01,-638.09"/>
<polygon fill="black" stroke="black" points="1636.6,-1011.26 1642.05,-1018.14 1640.45,-1013.25 1643.41,-1014.79 1643.41,-1014.79 1643.41,-1014.79 1640.45,-1013.25 1645.36,-1011.74 1636.6,-1011.26"/>
<ellipse fill="none" stroke="black" cx="1632.24" cy="-1009" rx="3.2" ry="3.2"/>
</g>
<!-- account_move_line&#45;&gt;account_move -->
<g id="edge22" class="edge">
<title>account_move_line:w&#45;&gt;account_move:e</title>
<path fill="none" stroke="black" d="M1629.28,-1031.79C1609.96,-1012.63 1635.1,-948.09 1597.01,-948.09"/>
<polygon fill="black" stroke="black" points="1636.16,-1034.27 1642.47,-1040.37 1640.24,-1035.74 1643.38,-1036.87 1643.38,-1036.87 1643.38,-1036.87 1640.24,-1035.74 1644.91,-1033.59 1636.16,-1034.27"/>
<ellipse fill="none" stroke="black" cx="1631.54" cy="-1032.6" rx="3.2" ry="3.2"/>
</g>
<!-- account_move_line&#45;&gt;res_partner -->
<g id="edge19" class="edge">
<title>account_move_line:w&#45;&gt;res_partner:e</title>
<path fill="none" stroke="black" d="M1632.14,-541.16C1600.19,-605.47 1634.76,-957.39 1604.01,-992.59 1509.6,-1100.67 896.27,-1083.59 819.51,-1083.59 819.51,-1083.59 819.51,-1083.59 563.51,-1083.59 493.58,-1083.59 303.75,-1101.33 250.01,-1056.59 198.46,-1013.69 277.07,-911.09 210.01,-911.09"/>
<polygon fill="black" stroke="black" points="1637.65,-536.48 1646.08,-534.06 1640.95,-533.68 1643.49,-531.53 1643.49,-531.53 1643.49,-531.53 1640.95,-533.68 1641.42,-528.56 1637.65,-536.48"/>
<ellipse fill="none" stroke="black" cx="1633.9" cy="-539.67" rx="3.2" ry="3.2"/>
</g>
<!-- account_move_line&#45;&gt;res_partner -->
<g id="edge23" class="edge">
<title>account_move_line:w&#45;&gt;res_partner:e</title>
<path fill="none" stroke="black" d="M1628.74,-952.37C1600.62,-968.27 1642.79,-1037.93 1604.01,-1068.59 1441.76,-1196.89 1347.35,-1110.59 1140.51,-1110.59 1140.51,-1110.59 1140.51,-1110.59 563.51,-1110.59 423.58,-1110.59 355.54,-1173.47 250.01,-1081.59 191.3,-1030.49 287.84,-911.09 210.01,-911.09"/>
<polygon fill="black" stroke="black" points="1635.86,-950.84 1644.43,-952.68 1640.09,-949.93 1643.35,-949.23 1643.35,-949.23 1643.35,-949.23 1640.09,-949.93 1642.92,-945.64 1635.86,-950.84"/>
<ellipse fill="none" stroke="black" cx="1631.05" cy="-951.87" rx="3.2" ry="3.2"/>
</g>
<!-- account_move_line&#45;&gt;account_payment -->
<g id="edge24" class="edge">
<title>account_move_line:w&#45;&gt;account_payment:e</title>
<path fill="none" stroke="black" d="M1629.46,-932.46C1617.38,-945.6 1627.71,-979.29 1604.01,-992.59 1508.27,-1046.31 1447.14,-1055.25 1357.01,-992.59 1313.01,-962.01 1368.58,-879.59 1315.01,-879.59"/>
<polygon fill="black" stroke="black" points="1636.19,-929.98 1644.94,-930.59 1640.25,-928.48 1643.38,-927.32 1643.38,-927.32 1643.38,-927.32 1640.25,-928.48 1642.45,-923.83 1636.19,-929.98"/>
<ellipse fill="none" stroke="black" cx="1631.57" cy="-931.68" rx="3.2" ry="3.2"/>
</g>
</g>
</svg>
