<?xml version="1.0" encoding="UTF-8" standalone="no"?>
<!DOCTYPE svg PUBLIC "-//W3C//DTD SVG 1.1//EN"
 "http://www.w3.org/Graphics/SVG/1.1/DTD/svg11.dtd">
<!-- Generated by graphviz version 12.0.0 (0)
 -->
<!-- Title: oneDegreeRelationshipsDiagram Pages: 1 -->
<svg width="1050pt" height="850pt"
 viewBox="0.00 0.00 1050.00 849.73" xmlns="http://www.w3.org/2000/svg" xmlns:xlink="http://www.w3.org/1999/xlink">
<g id="graph0" class="graph" transform="scale(1 1) rotate(0) translate(4 845.73)">
<title>oneDegreeRelationshipsDiagram</title>
<polygon fill="#ffffff" stroke="none" points="-4,4 -4,-845.73 1046,-845.73 1046,4 -4,4"/>
<text text-anchor="middle" x="71.38" y="-7.05" font-family="Helvetica,sans-Serif" font-size="11.00">Generated by SchemaSpy</text>
<!-- account_account -->
<g id="node1" class="node">
<title>account_account</title>
<g id="a_node1"><a xlink:href="../../tables/account_account.html" xlink:title="account_account" target="_top">
<polygon fill="#ffffff" stroke="none" points="205,-578.73 205,-749.73 424,-749.73 424,-578.73 205,-578.73"/>
<polygon fill="#f5f5f5" stroke="none" points="205,-726.73 205,-749.73 424,-749.73 424,-726.73 205,-726.73"/>
<polygon fill="none" stroke="black" points="205,-726.73 205,-749.73 424,-749.73 424,-726.73 205,-726.73"/>
<text text-anchor="start" x="210" y="-734.53" font-family="Helvetica,sans-Serif" font-weight="bold" font-size="11.00">account_account</text>
<text text-anchor="start" x="389.75" y="-734.28" font-family="Helvetica,sans-Serif" font-size="11.00">[table]</text>
<polygon fill="none" stroke="black" points="205,-704.73 205,-726.73 424,-726.73 424,-704.73 205,-704.73"/>
<image xlink:href="../../images/primaryKeys.png" width="11px" height="12px" preserveAspectRatio="xMinYMin meet" x="210" y="-721.729"/>
<text text-anchor="start" x="225" y="-711.28" font-family="Helvetica,sans-Serif" font-size="11.00">id</text>
<polygon fill="none" stroke="black" points="205,-682.73 205,-704.73 424,-704.73 424,-682.73 205,-682.73"/>
<image xlink:href="../../images/foreignKeys.png" width="11px" height="12px" preserveAspectRatio="xMinYMin meet" x="210" y="-699.729"/>
<text text-anchor="start" x="225" y="-689.28" font-family="Helvetica,sans-Serif" font-size="11.00">create_uid</text>
<polygon fill="none" stroke="black" points="205,-660.73 205,-682.73 424,-682.73 424,-660.73 205,-660.73"/>
<image xlink:href="../../images/foreignKeys.png" width="11px" height="12px" preserveAspectRatio="xMinYMin meet" x="210" y="-677.729"/>
<text text-anchor="start" x="225" y="-667.28" font-family="Helvetica,sans-Serif" font-size="11.00">write_uid</text>
<polygon fill="#ffffff" stroke="none" points="205,-638.73 205,-660.73 424,-660.73 424,-638.73 205,-638.73"/>
<polygon fill="none" stroke="black" points="205,-638.73 205,-660.73 424,-660.73 424,-638.73 205,-638.73"/>
<text text-anchor="start" x="225" y="-645.28" font-family="Helvetica,sans-Serif" font-size="11.00">code</text>
<polygon fill="#ffffff" stroke="none" points="205,-616.73 205,-638.73 424,-638.73 424,-616.73 205,-616.73"/>
<polygon fill="none" stroke="black" points="205,-616.73 205,-638.73 424,-638.73 424,-616.73 205,-616.73"/>
<text text-anchor="start" x="225" y="-623.28" font-family="Helvetica,sans-Serif" font-size="11.00">account_type</text>
<polygon fill="none" stroke="black" points="205,-597.73 205,-616.73 424,-616.73 424,-597.73 205,-597.73"/>
<text text-anchor="start" x="208" y="-603.28" font-family="Helvetica,sans-Serif" font-size="11.00">...</text>
<polygon fill="#ffffff" stroke="none" points="205,-578.73 205,-597.73 308,-597.73 308,-578.73 205,-578.73"/>
<polygon fill="none" stroke="black" points="205,-578.73 205,-597.73 308,-597.73 308,-578.73 205,-578.73"/>
<text text-anchor="start" x="208" y="-584.28" font-family="Helvetica,sans-Serif" font-size="11.00">&lt; 2</text>
<polygon fill="#ffffff" stroke="none" points="308,-578.73 308,-597.73 361,-597.73 361,-578.73 308,-578.73"/>
<polygon fill="none" stroke="black" points="308,-578.73 308,-597.73 361,-597.73 361,-578.73 308,-578.73"/>
<text text-anchor="start" x="352" y="-584.28" font-family="Helvetica,sans-Serif" font-size="11.00"> &#160;</text>
<polygon fill="#ffffff" stroke="none" points="361,-578.73 361,-597.73 424,-597.73 424,-578.73 361,-578.73"/>
<polygon fill="none" stroke="black" points="361,-578.73 361,-597.73 424,-597.73 424,-578.73 361,-578.73"/>
<text text-anchor="start" x="405.25" y="-584.28" font-family="Helvetica,sans-Serif" font-size="11.00">8 &gt;</text>
</a>
</g>
</g>
<!-- res_users -->
<g id="node2" class="node">
<title>res_users</title>
<g id="a_node2"><a xlink:href="../../tables/res_users.html" xlink:title="res_users" target="_top">
<polygon fill="#ffffff" stroke="none" points="8,-261.73 8,-454.73 156,-454.73 156,-261.73 8,-261.73"/>
<polygon fill="#f5f5f5" stroke="none" points="8,-431.73 8,-454.73 156,-454.73 156,-431.73 8,-431.73"/>
<polygon fill="none" stroke="black" points="8,-431.73 8,-454.73 156,-454.73 156,-431.73 8,-431.73"/>
<text text-anchor="start" x="12.62" y="-439.53" font-family="Helvetica,sans-Serif" font-weight="bold" font-size="11.00">res_users</text>
<text text-anchor="start" x="121.75" y="-439.28" font-family="Helvetica,sans-Serif" font-size="11.00">[table]</text>
<polygon fill="none" stroke="black" points="8,-409.73 8,-431.73 156,-431.73 156,-409.73 8,-409.73"/>
<image xlink:href="../../images/primaryKeys.png" width="11px" height="12px" preserveAspectRatio="xMinYMin meet" x="13" y="-426.729"/>
<text text-anchor="start" x="28" y="-416.28" font-family="Helvetica,sans-Serif" font-size="11.00">id</text>
<polygon fill="#ffffff" stroke="none" points="8,-387.73 8,-409.73 156,-409.73 156,-387.73 8,-387.73"/>
<polygon fill="none" stroke="black" points="8,-387.73 8,-409.73 156,-409.73 156,-387.73 8,-387.73"/>
<image xlink:href="../../images/foreignKeys.png" width="11px" height="12px" preserveAspectRatio="xMinYMin meet" x="13" y="-404.729"/>
<text text-anchor="start" x="28" y="-394.28" font-family="Helvetica,sans-Serif" font-size="11.00">partner_id</text>
<polygon fill="#ffffff" stroke="none" points="8,-365.73 8,-387.73 156,-387.73 156,-365.73 8,-365.73"/>
<polygon fill="none" stroke="black" points="8,-365.73 8,-387.73 156,-387.73 156,-365.73 8,-365.73"/>
<text text-anchor="start" x="28" y="-372.28" font-family="Helvetica,sans-Serif" font-size="11.00">login</text>
<polygon fill="none" stroke="black" points="8,-343.73 8,-365.73 156,-365.73 156,-343.73 8,-343.73"/>
<image xlink:href="../../images/foreignKeys.png" width="11px" height="12px" preserveAspectRatio="xMinYMin meet" x="13" y="-360.729"/>
<text text-anchor="start" x="28" y="-350.28" font-family="Helvetica,sans-Serif" font-size="11.00">create_uid</text>
<polygon fill="none" stroke="black" points="8,-321.73 8,-343.73 156,-343.73 156,-321.73 8,-321.73"/>
<image xlink:href="../../images/foreignKeys.png" width="11px" height="12px" preserveAspectRatio="xMinYMin meet" x="13" y="-338.729"/>
<text text-anchor="start" x="28" y="-328.28" font-family="Helvetica,sans-Serif" font-size="11.00">write_uid</text>
<polygon fill="none" stroke="black" points="8,-299.73 8,-321.73 156,-321.73 156,-299.73 8,-299.73"/>
<image xlink:href="../../images/foreignKeys.png" width="11px" height="12px" preserveAspectRatio="xMinYMin meet" x="13" y="-316.729"/>
<text text-anchor="start" x="28" y="-306.28" font-family="Helvetica,sans-Serif" font-size="11.00">sale_team_id</text>
<polygon fill="none" stroke="black" points="8,-280.73 8,-299.73 156,-299.73 156,-280.73 8,-280.73"/>
<text text-anchor="start" x="11" y="-286.28" font-family="Helvetica,sans-Serif" font-size="11.00">...</text>
<polygon fill="#ffffff" stroke="none" points="8,-261.73 8,-280.73 73,-280.73 73,-261.73 8,-261.73"/>
<polygon fill="none" stroke="black" points="8,-261.73 8,-280.73 73,-280.73 73,-261.73 8,-261.73"/>
<text text-anchor="start" x="11" y="-267.28" font-family="Helvetica,sans-Serif" font-size="11.00">&lt; 4</text>
<polygon fill="#ffffff" stroke="none" points="73,-261.73 73,-280.73 107,-280.73 107,-261.73 73,-261.73"/>
<polygon fill="none" stroke="black" points="73,-261.73 73,-280.73 107,-280.73 107,-261.73 73,-261.73"/>
<text text-anchor="start" x="98" y="-267.28" font-family="Helvetica,sans-Serif" font-size="11.00"> &#160;</text>
<polygon fill="#ffffff" stroke="none" points="107,-261.73 107,-280.73 156,-280.73 156,-261.73 107,-261.73"/>
<polygon fill="none" stroke="black" points="107,-261.73 107,-280.73 156,-280.73 156,-261.73 107,-261.73"/>
<text text-anchor="start" x="131.25" y="-267.28" font-family="Helvetica,sans-Serif" font-size="11.00">65 &gt;</text>
</a>
</g>
</g>
<!-- account_account&#45;&gt;res_users -->
<g id="edge1" class="edge">
<title>account_account:w&#45;&gt;res_users:e</title>
<path fill="none" stroke="black" d="M189.87,-686.71C155.75,-643.98 212.67,-420.73 157,-420.73"/>
<polygon fill="black" stroke="black" points="196.54,-690.02 202.1,-696.8 200.42,-691.95 203.4,-693.43 203.4,-693.43 203.4,-693.43 200.42,-691.95 205.3,-690.36 196.54,-690.02"/>
<ellipse fill="none" stroke="black" cx="192.13" cy="-687.83" rx="3.2" ry="3.2"/>
</g>
<!-- account_account&#45;&gt;res_users -->
<g id="edge2" class="edge">
<title>account_account:w&#45;&gt;res_users:e</title>
<path fill="none" stroke="black" d="M188.41,-669.71C108.67,-645.95 264.51,-420.73 157,-420.73"/>
<polygon fill="black" stroke="black" points="195.73,-670.66 203.21,-675.26 200.03,-671.21 203.34,-671.64 203.34,-671.64 203.34,-671.64 200.03,-671.21 204.13,-668.12 195.73,-670.66"/>
<ellipse fill="none" stroke="black" cx="190.86" cy="-670.03" rx="3.2" ry="3.2"/>
</g>
<!-- account_move_line -->
<g id="node3" class="node">
<title>account_move_line</title>
<g id="a_node3"><a xlink:href="../../tables/account_move_line.html" xlink:title="account_move_line" target="_top">
<polygon fill="#ffffff" stroke="none" points="851,-226.73 851,-837.73 1034,-837.73 1034,-226.73 851,-226.73"/>
<polygon fill="#f5f5f5" stroke="none" points="851,-814.73 851,-837.73 1034,-837.73 1034,-814.73 851,-814.73"/>
<polygon fill="none" stroke="black" points="851,-814.73 851,-837.73 1034,-837.73 1034,-814.73 851,-814.73"/>
<text text-anchor="start" x="856" y="-822.53" font-family="Helvetica,sans-Serif" font-weight="bold" font-size="11.00">account_move_line</text>
<text text-anchor="start" x="999.75" y="-822.28" font-family="Helvetica,sans-Serif" font-size="11.00">[table]</text>
<polygon fill="none" stroke="black" points="851,-792.73 851,-814.73 1034,-814.73 1034,-792.73 851,-792.73"/>
<image xlink:href="../../images/primaryKeys.png" width="11px" height="12px" preserveAspectRatio="xMinYMin meet" x="856" y="-809.729"/>
<text text-anchor="start" x="871" y="-799.28" font-family="Helvetica,sans-Serif" font-size="11.00">id</text>
<polygon fill="#ffffff" stroke="none" points="851,-770.73 851,-792.73 1034,-792.73 1034,-770.73 851,-770.73"/>
<polygon fill="none" stroke="black" points="851,-770.73 851,-792.73 1034,-792.73 1034,-770.73 851,-770.73"/>
<image xlink:href="../../images/foreignKeys.png" width="11px" height="12px" preserveAspectRatio="xMinYMin meet" x="856" y="-787.729"/>
<text text-anchor="start" x="871" y="-777.28" font-family="Helvetica,sans-Serif" font-size="11.00">move_id</text>
<polygon fill="#ffffff" stroke="none" points="851,-748.73 851,-770.73 1034,-770.73 1034,-748.73 851,-748.73"/>
<polygon fill="none" stroke="black" points="851,-748.73 851,-770.73 1034,-770.73 1034,-748.73 851,-748.73"/>
<image xlink:href="../../images/foreignKeys.png" width="11px" height="12px" preserveAspectRatio="xMinYMin meet" x="856" y="-765.729"/>
<text text-anchor="start" x="871" y="-755.28" font-family="Helvetica,sans-Serif" font-size="11.00">journal_id</text>
<polygon fill="#ffffff" stroke="none" points="851,-726.73 851,-748.73 1034,-748.73 1034,-726.73 851,-726.73"/>
<polygon fill="none" stroke="black" points="851,-726.73 851,-748.73 1034,-748.73 1034,-726.73 851,-726.73"/>
<text text-anchor="start" x="871" y="-733.28" font-family="Helvetica,sans-Serif" font-size="11.00">company_id</text>
<polygon fill="#ffffff" stroke="none" points="851,-704.73 851,-726.73 1034,-726.73 1034,-704.73 851,-704.73"/>
<polygon fill="none" stroke="black" points="851,-704.73 851,-726.73 1034,-726.73 1034,-704.73 851,-704.73"/>
<image xlink:href="../../images/foreignKeys.png" width="11px" height="12px" preserveAspectRatio="xMinYMin meet" x="856" y="-721.729"/>
<text text-anchor="start" x="871" y="-711.28" font-family="Helvetica,sans-Serif" font-size="11.00">account_id</text>
<polygon fill="#ffffff" stroke="none" points="851,-682.73 851,-704.73 1034,-704.73 1034,-682.73 851,-682.73"/>
<polygon fill="none" stroke="black" points="851,-682.73 851,-704.73 1034,-704.73 1034,-682.73 851,-682.73"/>
<image xlink:href="../../images/foreignKeys.png" width="11px" height="12px" preserveAspectRatio="xMinYMin meet" x="856" y="-699.729"/>
<text text-anchor="start" x="871" y="-689.28" font-family="Helvetica,sans-Serif" font-size="11.00">partner_id</text>
<polygon fill="#ffffff" stroke="none" points="851,-660.73 851,-682.73 1034,-682.73 1034,-660.73 851,-660.73"/>
<polygon fill="none" stroke="black" points="851,-660.73 851,-682.73 1034,-682.73 1034,-660.73 851,-660.73"/>
<image xlink:href="../../images/foreignKeys.png" width="11px" height="12px" preserveAspectRatio="xMinYMin meet" x="856" y="-677.729"/>
<text text-anchor="start" x="871" y="-667.28" font-family="Helvetica,sans-Serif" font-size="11.00">payment_id</text>
<polygon fill="#ffffff" stroke="none" points="851,-638.73 851,-660.73 1034,-660.73 1034,-638.73 851,-638.73"/>
<polygon fill="none" stroke="black" points="851,-638.73 851,-660.73 1034,-660.73 1034,-638.73 851,-638.73"/>
<text text-anchor="start" x="871" y="-645.28" font-family="Helvetica,sans-Serif" font-size="11.00">statement_line_id</text>
<polygon fill="#ffffff" stroke="none" points="851,-616.73 851,-638.73 1034,-638.73 1034,-616.73 851,-616.73"/>
<polygon fill="none" stroke="black" points="851,-616.73 851,-638.73 1034,-638.73 1034,-616.73 851,-616.73"/>
<text text-anchor="start" x="871" y="-623.28" font-family="Helvetica,sans-Serif" font-size="11.00">statement_id</text>
<polygon fill="#ffffff" stroke="none" points="851,-594.73 851,-616.73 1034,-616.73 1034,-594.73 851,-594.73"/>
<polygon fill="none" stroke="black" points="851,-594.73 851,-616.73 1034,-616.73 1034,-594.73 851,-594.73"/>
<image xlink:href="../../images/foreignKeys.png" width="11px" height="12px" preserveAspectRatio="xMinYMin meet" x="856" y="-611.729"/>
<text text-anchor="start" x="871" y="-601.28" font-family="Helvetica,sans-Serif" font-size="11.00">group_tax_id</text>
<polygon fill="none" stroke="black" points="851,-572.73 851,-594.73 1034,-594.73 1034,-572.73 851,-572.73"/>
<image xlink:href="../../images/foreignKeys.png" width="11px" height="12px" preserveAspectRatio="xMinYMin meet" x="856" y="-589.729"/>
<text text-anchor="start" x="871" y="-579.28" font-family="Helvetica,sans-Serif" font-size="11.00">tax_line_id</text>
<polygon fill="#ffffff" stroke="none" points="851,-550.73 851,-572.73 1034,-572.73 1034,-550.73 851,-550.73"/>
<polygon fill="none" stroke="black" points="851,-550.73 851,-572.73 1034,-572.73 1034,-550.73 851,-550.73"/>
<text text-anchor="start" x="871" y="-557.28" font-family="Helvetica,sans-Serif" font-size="11.00">full_reconcile_id</text>
<polygon fill="none" stroke="black" points="851,-528.73 851,-550.73 1034,-550.73 1034,-528.73 851,-528.73"/>
<image xlink:href="../../images/foreignKeys.png" width="11px" height="12px" preserveAspectRatio="xMinYMin meet" x="856" y="-545.729"/>
<text text-anchor="start" x="871" y="-535.28" font-family="Helvetica,sans-Serif" font-size="11.00">create_uid</text>
<polygon fill="none" stroke="black" points="851,-506.73 851,-528.73 1034,-528.73 1034,-506.73 851,-506.73"/>
<image xlink:href="../../images/foreignKeys.png" width="11px" height="12px" preserveAspectRatio="xMinYMin meet" x="856" y="-523.729"/>
<text text-anchor="start" x="871" y="-513.28" font-family="Helvetica,sans-Serif" font-size="11.00">write_uid</text>
<polygon fill="#ffffff" stroke="none" points="851,-484.73 851,-506.73 1034,-506.73 1034,-484.73 851,-484.73"/>
<polygon fill="none" stroke="black" points="851,-484.73 851,-506.73 1034,-506.73 1034,-484.73 851,-484.73"/>
<text text-anchor="start" x="871" y="-491.28" font-family="Helvetica,sans-Serif" font-size="11.00">move_name</text>
<polygon fill="#ffffff" stroke="none" points="851,-462.73 851,-484.73 1034,-484.73 1034,-462.73 851,-462.73"/>
<polygon fill="none" stroke="black" points="851,-462.73 851,-484.73 1034,-484.73 1034,-462.73 851,-462.73"/>
<text text-anchor="start" x="871" y="-469.28" font-family="Helvetica,sans-Serif" font-size="11.00">ref</text>
<polygon fill="#ffffff" stroke="none" points="851,-440.73 851,-462.73 1034,-462.73 1034,-440.73 851,-440.73"/>
<polygon fill="none" stroke="black" points="851,-440.73 851,-462.73 1034,-462.73 1034,-440.73 851,-440.73"/>
<text text-anchor="start" x="871" y="-447.28" font-family="Helvetica,sans-Serif" font-size="11.00">matching_number</text>
<polygon fill="#ffffff" stroke="none" points="851,-418.73 851,-440.73 1034,-440.73 1034,-418.73 851,-418.73"/>
<polygon fill="none" stroke="black" points="851,-418.73 851,-440.73 1034,-440.73 1034,-418.73 851,-418.73"/>
<text text-anchor="start" x="871" y="-425.28" font-family="Helvetica,sans-Serif" font-size="11.00">date</text>
<polygon fill="#ffffff" stroke="none" points="851,-396.73 851,-418.73 1034,-418.73 1034,-396.73 851,-396.73"/>
<polygon fill="none" stroke="black" points="851,-396.73 851,-418.73 1034,-418.73 1034,-396.73 851,-396.73"/>
<text text-anchor="start" x="871" y="-403.28" font-family="Helvetica,sans-Serif" font-size="11.00">date_maturity</text>
<polygon fill="#ffffff" stroke="none" points="851,-374.73 851,-396.73 1034,-396.73 1034,-374.73 851,-374.73"/>
<polygon fill="none" stroke="black" points="851,-374.73 851,-396.73 1034,-396.73 1034,-374.73 851,-374.73"/>
<text text-anchor="start" x="871" y="-381.28" font-family="Helvetica,sans-Serif" font-size="11.00">deferred_start_date</text>
<polygon fill="#ffffff" stroke="none" points="851,-352.73 851,-374.73 1034,-374.73 1034,-352.73 851,-352.73"/>
<polygon fill="none" stroke="black" points="851,-352.73 851,-374.73 1034,-374.73 1034,-352.73 851,-352.73"/>
<text text-anchor="start" x="871" y="-359.28" font-family="Helvetica,sans-Serif" font-size="11.00">deferred_end_date</text>
<polygon fill="#ffffff" stroke="none" points="851,-330.73 851,-352.73 1034,-352.73 1034,-330.73 851,-330.73"/>
<polygon fill="none" stroke="black" points="851,-330.73 851,-352.73 1034,-352.73 1034,-330.73 851,-330.73"/>
<text text-anchor="start" x="871" y="-337.28" font-family="Helvetica,sans-Serif" font-size="11.00">purchase_line_id</text>
<polygon fill="#ffffff" stroke="none" points="851,-308.73 851,-330.73 1034,-330.73 1034,-308.73 851,-308.73"/>
<polygon fill="none" stroke="black" points="851,-308.73 851,-330.73 1034,-330.73 1034,-308.73 851,-308.73"/>
<text text-anchor="start" x="871" y="-315.28" font-family="Helvetica,sans-Serif" font-size="11.00">last_followup_date</text>
<polygon fill="#ffffff" stroke="none" points="851,-286.73 851,-308.73 1034,-308.73 1034,-286.73 851,-286.73"/>
<polygon fill="none" stroke="black" points="851,-286.73 851,-308.73 1034,-308.73 1034,-286.73 851,-286.73"/>
<image xlink:href="../../images/foreignKeys.png" width="11px" height="12px" preserveAspectRatio="xMinYMin meet" x="856" y="-303.729"/>
<text text-anchor="start" x="871" y="-293.28" font-family="Helvetica,sans-Serif" font-size="11.00">subscription_id</text>
<polygon fill="none" stroke="black" points="851,-264.73 851,-286.73 1034,-286.73 1034,-264.73 851,-264.73"/>
<image xlink:href="../../images/foreignKeys.png" width="11px" height="12px" preserveAspectRatio="xMinYMin meet" x="856" y="-281.729"/>
<text text-anchor="start" x="871" y="-271.28" font-family="Helvetica,sans-Serif" font-size="11.00">citizen_id</text>
<polygon fill="none" stroke="black" points="851,-245.73 851,-264.73 1034,-264.73 1034,-245.73 851,-245.73"/>
<text text-anchor="start" x="854" y="-251.28" font-family="Helvetica,sans-Serif" font-size="11.00">...</text>
<polygon fill="#ffffff" stroke="none" points="851,-226.73 851,-245.73 944,-245.73 944,-226.73 851,-226.73"/>
<polygon fill="none" stroke="black" points="851,-226.73 851,-245.73 944,-245.73 944,-226.73 851,-226.73"/>
<text text-anchor="start" x="854" y="-232.28" font-family="Helvetica,sans-Serif" font-size="11.00">&lt; 11</text>
<polygon fill="#ffffff" stroke="none" points="944,-226.73 944,-245.73 989,-245.73 989,-226.73 944,-226.73"/>
<polygon fill="none" stroke="black" points="944,-226.73 944,-245.73 989,-245.73 989,-226.73 944,-226.73"/>
<text text-anchor="start" x="980" y="-232.28" font-family="Helvetica,sans-Serif" font-size="11.00"> &#160;</text>
<polygon fill="#ffffff" stroke="none" points="989,-226.73 989,-245.73 1034,-245.73 1034,-226.73 989,-226.73"/>
<polygon fill="none" stroke="black" points="989,-226.73 989,-245.73 1034,-245.73 1034,-226.73 989,-226.73"/>
<text text-anchor="start" x="1025" y="-232.28" font-family="Helvetica,sans-Serif" font-size="11.00"> &#160;</text>
</a>
</g>
</g>
<!-- account_move_line&#45;&gt;account_account -->
<g id="edge3" class="edge">
<title>account_move_line:w&#45;&gt;account_account:e</title>
<path fill="none" stroke="black" d="M834.29,-715.73C658.32,-715.73 608.54,-715.73 425,-715.73"/>
<polygon fill="black" stroke="black" points="841.67,-715.73 849.67,-719.33 846,-715.73 849.33,-715.73 849.33,-715.73 849.33,-715.73 846,-715.73 849.67,-712.13 841.67,-715.73"/>
<ellipse fill="none" stroke="black" cx="836.75" cy="-715.73" rx="3.2" ry="3.2"/>
</g>
<!-- account_move_line&#45;&gt;res_users -->
<g id="edge4" class="edge">
<title>account_move_line:w&#45;&gt;res_users:e</title>
<path fill="none" stroke="black" d="M834.81,-535.69C770.62,-496.11 875.25,-177.58 810,-118.23 753.29,-66.64 538.02,-94.87 465,-118.23 325.69,-162.79 285.29,-192.61 197,-309.23 165.22,-351.2 209.65,-420.73 157,-420.73"/>
<polygon fill="black" stroke="black" points="841.95,-537.59 848.75,-543.12 846.13,-538.7 849.35,-539.56 849.35,-539.56 849.35,-539.56 846.13,-538.7 850.6,-536.16 841.95,-537.59"/>
<ellipse fill="none" stroke="black" cx="837.19" cy="-536.32" rx="3.2" ry="3.2"/>
</g>
<!-- account_move_line&#45;&gt;res_users -->
<g id="edge7" class="edge">
<title>account_move_line:w&#45;&gt;res_users:e</title>
<path fill="none" stroke="black" d="M834.98,-513.87C768.94,-474.74 876.42,-149.73 810,-89.23 709.11,2.69 293.25,-30.46 197,-127.23 150.58,-173.9 222.83,-420.73 157,-420.73"/>
<polygon fill="black" stroke="black" points="841.93,-515.66 848.78,-521.13 846.13,-516.73 849.35,-517.56 849.35,-517.56 849.35,-517.56 846.13,-516.73 850.57,-514.16 841.93,-515.66"/>
<ellipse fill="none" stroke="black" cx="837.16" cy="-514.43" rx="3.2" ry="3.2"/>
</g>
<!-- account_tax -->
<g id="node4" class="node">
<title>account_tax</title>
<g id="a_node4"><a xlink:href="../../tables/account_tax.html" xlink:title="account_tax" target="_top">
<polygon fill="#ffffff" stroke="none" points="473,-129.23 473,-681.23 802,-681.23 802,-129.23 473,-129.23"/>
<polygon fill="#f5f5f5" stroke="none" points="475,-656.23 475,-679.23 800,-679.23 800,-656.23 475,-656.23"/>
<polygon fill="none" stroke="black" points="475,-656.23 475,-679.23 800,-679.23 800,-656.23 475,-656.23"/>
<text text-anchor="start" x="480" y="-664.03" font-family="Helvetica,sans-Serif" font-weight="bold" font-size="11.00">account_tax</text>
<text text-anchor="start" x="765.75" y="-663.78" font-family="Helvetica,sans-Serif" font-size="11.00">[table]</text>
<polygon fill="none" stroke="black" points="475,-634.23 475,-656.23 692,-656.23 692,-634.23 475,-634.23"/>
<image xlink:href="../../images/primaryKeys.png" width="11px" height="12px" preserveAspectRatio="xMinYMin meet" x="480" y="-651.229"/>
<text text-anchor="start" x="495" y="-640.78" font-family="Helvetica,sans-Serif" font-size="11.00">id</text>
<polygon fill="none" stroke="black" points="692,-634.23 692,-656.23 800,-656.23 800,-634.23 692,-634.23"/>
<text text-anchor="start" x="695" y="-641.53" font-family="Helvetica,sans-Serif" font-size="11.00">serial[10]</text>
<polygon fill="none" stroke="black" points="475,-612.23 475,-634.23 692,-634.23 692,-612.23 475,-612.23"/>
<text text-anchor="start" x="495" y="-618.78" font-family="Helvetica,sans-Serif" font-size="11.00">company_id</text>
<polygon fill="none" stroke="black" points="692,-612.23 692,-634.23 800,-634.23 800,-612.23 692,-612.23"/>
<text text-anchor="start" x="695" y="-619.53" font-family="Helvetica,sans-Serif" font-size="11.00">int4[10]</text>
<polygon fill="none" stroke="black" points="475,-590.23 475,-612.23 692,-612.23 692,-590.23 475,-590.23"/>
<text text-anchor="start" x="495" y="-596.78" font-family="Helvetica,sans-Serif" font-size="11.00">sequence</text>
<polygon fill="none" stroke="black" points="692,-590.23 692,-612.23 800,-612.23 800,-590.23 692,-590.23"/>
<text text-anchor="start" x="695" y="-597.53" font-family="Helvetica,sans-Serif" font-size="11.00">int4[10]</text>
<polygon fill="none" stroke="black" points="475,-568.23 475,-590.23 692,-590.23 692,-568.23 475,-568.23"/>
<text text-anchor="start" x="495" y="-574.78" font-family="Helvetica,sans-Serif" font-size="11.00">tax_group_id</text>
<polygon fill="none" stroke="black" points="692,-568.23 692,-590.23 800,-590.23 800,-568.23 692,-568.23"/>
<text text-anchor="start" x="695" y="-575.53" font-family="Helvetica,sans-Serif" font-size="11.00">int4[10]</text>
<polygon fill="none" stroke="black" points="475,-546.23 475,-568.23 692,-568.23 692,-546.23 475,-546.23"/>
<image xlink:href="../../images/foreignKeys.png" width="11px" height="12px" preserveAspectRatio="xMinYMin meet" x="480" y="-563.229"/>
<text text-anchor="start" x="495" y="-552.78" font-family="Helvetica,sans-Serif" font-size="11.00">cash_basis_transition_account_id</text>
<polygon fill="none" stroke="black" points="692,-546.23 692,-568.23 800,-568.23 800,-546.23 692,-546.23"/>
<text text-anchor="start" x="695" y="-553.53" font-family="Helvetica,sans-Serif" font-size="11.00">int4[10]</text>
<polygon fill="none" stroke="black" points="475,-524.23 475,-546.23 692,-546.23 692,-524.23 475,-524.23"/>
<image xlink:href="../../images/foreignKeys.png" width="11px" height="12px" preserveAspectRatio="xMinYMin meet" x="480" y="-541.229"/>
<text text-anchor="start" x="495" y="-530.78" font-family="Helvetica,sans-Serif" font-size="11.00">country_id</text>
<polygon fill="none" stroke="black" points="692,-524.23 692,-546.23 800,-546.23 800,-524.23 692,-524.23"/>
<text text-anchor="start" x="695" y="-531.53" font-family="Helvetica,sans-Serif" font-size="11.00">int4[10]</text>
<polygon fill="none" stroke="black" points="475,-502.23 475,-524.23 692,-524.23 692,-502.23 475,-502.23"/>
<image xlink:href="../../images/foreignKeys.png" width="11px" height="12px" preserveAspectRatio="xMinYMin meet" x="480" y="-519.229"/>
<text text-anchor="start" x="495" y="-508.78" font-family="Helvetica,sans-Serif" font-size="11.00">create_uid</text>
<polygon fill="none" stroke="black" points="692,-502.23 692,-524.23 800,-524.23 800,-502.23 692,-502.23"/>
<text text-anchor="start" x="695" y="-509.53" font-family="Helvetica,sans-Serif" font-size="11.00">int4[10]</text>
<polygon fill="none" stroke="black" points="475,-480.23 475,-502.23 692,-502.23 692,-480.23 475,-480.23"/>
<image xlink:href="../../images/foreignKeys.png" width="11px" height="12px" preserveAspectRatio="xMinYMin meet" x="480" y="-497.229"/>
<text text-anchor="start" x="495" y="-486.78" font-family="Helvetica,sans-Serif" font-size="11.00">write_uid</text>
<polygon fill="none" stroke="black" points="692,-480.23 692,-502.23 800,-502.23 800,-480.23 692,-480.23"/>
<text text-anchor="start" x="695" y="-487.53" font-family="Helvetica,sans-Serif" font-size="11.00">int4[10]</text>
<polygon fill="none" stroke="black" points="475,-458.23 475,-480.23 692,-480.23 692,-458.23 475,-458.23"/>
<text text-anchor="start" x="495" y="-464.78" font-family="Helvetica,sans-Serif" font-size="11.00">type_tax_use</text>
<polygon fill="none" stroke="black" points="692,-458.23 692,-480.23 800,-480.23 800,-458.23 692,-458.23"/>
<text text-anchor="start" x="695" y="-465.53" font-family="Helvetica,sans-Serif" font-size="11.00">varchar[2147483647]</text>
<polygon fill="none" stroke="black" points="475,-436.23 475,-458.23 692,-458.23 692,-436.23 475,-436.23"/>
<text text-anchor="start" x="495" y="-442.78" font-family="Helvetica,sans-Serif" font-size="11.00">tax_scope</text>
<polygon fill="none" stroke="black" points="692,-436.23 692,-458.23 800,-458.23 800,-436.23 692,-436.23"/>
<text text-anchor="start" x="695" y="-443.53" font-family="Helvetica,sans-Serif" font-size="11.00">varchar[2147483647]</text>
<polygon fill="none" stroke="black" points="475,-414.23 475,-436.23 692,-436.23 692,-414.23 475,-414.23"/>
<text text-anchor="start" x="495" y="-420.78" font-family="Helvetica,sans-Serif" font-size="11.00">amount_type</text>
<polygon fill="none" stroke="black" points="692,-414.23 692,-436.23 800,-436.23 800,-414.23 692,-414.23"/>
<text text-anchor="start" x="695" y="-421.53" font-family="Helvetica,sans-Serif" font-size="11.00">varchar[2147483647]</text>
<polygon fill="none" stroke="black" points="475,-392.23 475,-414.23 692,-414.23 692,-392.23 475,-392.23"/>
<text text-anchor="start" x="495" y="-398.78" font-family="Helvetica,sans-Serif" font-size="11.00">tax_exigibility</text>
<polygon fill="none" stroke="black" points="692,-392.23 692,-414.23 800,-414.23 800,-392.23 692,-392.23"/>
<text text-anchor="start" x="695" y="-399.53" font-family="Helvetica,sans-Serif" font-size="11.00">varchar[2147483647]</text>
<polygon fill="none" stroke="black" points="475,-370.23 475,-392.23 692,-392.23 692,-370.23 475,-370.23"/>
<text text-anchor="start" x="495" y="-376.78" font-family="Helvetica,sans-Serif" font-size="11.00">name</text>
<polygon fill="none" stroke="black" points="692,-370.23 692,-392.23 800,-392.23 800,-370.23 692,-370.23"/>
<text text-anchor="start" x="695" y="-377.53" font-family="Helvetica,sans-Serif" font-size="11.00">jsonb[2147483647]</text>
<polygon fill="none" stroke="black" points="475,-348.23 475,-370.23 692,-370.23 692,-348.23 475,-348.23"/>
<text text-anchor="start" x="495" y="-354.78" font-family="Helvetica,sans-Serif" font-size="11.00">description</text>
<polygon fill="none" stroke="black" points="692,-348.23 692,-370.23 800,-370.23 800,-348.23 692,-348.23"/>
<text text-anchor="start" x="695" y="-355.53" font-family="Helvetica,sans-Serif" font-size="11.00">jsonb[2147483647]</text>
<polygon fill="none" stroke="black" points="475,-326.23 475,-348.23 692,-348.23 692,-326.23 475,-326.23"/>
<text text-anchor="start" x="495" y="-332.78" font-family="Helvetica,sans-Serif" font-size="11.00">invoice_label</text>
<polygon fill="none" stroke="black" points="692,-326.23 692,-348.23 800,-348.23 800,-326.23 692,-326.23"/>
<text text-anchor="start" x="695" y="-333.53" font-family="Helvetica,sans-Serif" font-size="11.00">jsonb[2147483647]</text>
<polygon fill="none" stroke="black" points="475,-304.23 475,-326.23 692,-326.23 692,-304.23 475,-304.23"/>
<text text-anchor="start" x="495" y="-310.78" font-family="Helvetica,sans-Serif" font-size="11.00">amount</text>
<polygon fill="none" stroke="black" points="692,-304.23 692,-326.23 800,-326.23 800,-304.23 692,-304.23"/>
<text text-anchor="start" x="695" y="-311.53" font-family="Helvetica,sans-Serif" font-size="11.00">numeric[0]</text>
<polygon fill="none" stroke="black" points="475,-282.23 475,-304.23 692,-304.23 692,-282.23 475,-282.23"/>
<text text-anchor="start" x="495" y="-288.78" font-family="Helvetica,sans-Serif" font-size="11.00">active</text>
<polygon fill="none" stroke="black" points="692,-282.23 692,-304.23 800,-304.23 800,-282.23 692,-282.23"/>
<text text-anchor="start" x="695" y="-289.53" font-family="Helvetica,sans-Serif" font-size="11.00">bool[1]</text>
<polygon fill="none" stroke="black" points="475,-260.23 475,-282.23 692,-282.23 692,-260.23 475,-260.23"/>
<text text-anchor="start" x="495" y="-266.78" font-family="Helvetica,sans-Serif" font-size="11.00">price_include</text>
<polygon fill="none" stroke="black" points="692,-260.23 692,-282.23 800,-282.23 800,-260.23 692,-260.23"/>
<text text-anchor="start" x="695" y="-267.53" font-family="Helvetica,sans-Serif" font-size="11.00">bool[1]</text>
<polygon fill="none" stroke="black" points="475,-238.23 475,-260.23 692,-260.23 692,-238.23 475,-238.23"/>
<text text-anchor="start" x="495" y="-244.78" font-family="Helvetica,sans-Serif" font-size="11.00">include_base_amount</text>
<polygon fill="none" stroke="black" points="692,-238.23 692,-260.23 800,-260.23 800,-238.23 692,-238.23"/>
<text text-anchor="start" x="695" y="-245.53" font-family="Helvetica,sans-Serif" font-size="11.00">bool[1]</text>
<polygon fill="none" stroke="black" points="475,-216.23 475,-238.23 692,-238.23 692,-216.23 475,-216.23"/>
<text text-anchor="start" x="495" y="-222.78" font-family="Helvetica,sans-Serif" font-size="11.00">is_base_affected</text>
<polygon fill="none" stroke="black" points="692,-216.23 692,-238.23 800,-238.23 800,-216.23 692,-216.23"/>
<text text-anchor="start" x="695" y="-223.53" font-family="Helvetica,sans-Serif" font-size="11.00">bool[1]</text>
<polygon fill="none" stroke="black" points="475,-194.23 475,-216.23 692,-216.23 692,-194.23 475,-194.23"/>
<text text-anchor="start" x="495" y="-200.78" font-family="Helvetica,sans-Serif" font-size="11.00">analytic</text>
<polygon fill="none" stroke="black" points="692,-194.23 692,-216.23 800,-216.23 800,-194.23 692,-194.23"/>
<text text-anchor="start" x="695" y="-201.53" font-family="Helvetica,sans-Serif" font-size="11.00">bool[1]</text>
<polygon fill="none" stroke="black" points="475,-172.23 475,-194.23 692,-194.23 692,-172.23 475,-172.23"/>
<text text-anchor="start" x="495" y="-178.78" font-family="Helvetica,sans-Serif" font-size="11.00">create_date</text>
<polygon fill="none" stroke="black" points="692,-172.23 692,-194.23 800,-194.23 800,-172.23 692,-172.23"/>
<text text-anchor="start" x="695" y="-179.53" font-family="Helvetica,sans-Serif" font-size="11.00">timestamp[29,6]</text>
<polygon fill="none" stroke="black" points="475,-150.23 475,-172.23 692,-172.23 692,-150.23 475,-150.23"/>
<text text-anchor="start" x="495" y="-156.78" font-family="Helvetica,sans-Serif" font-size="11.00">write_date</text>
<polygon fill="none" stroke="black" points="692,-150.23 692,-172.23 800,-172.23 800,-150.23 692,-150.23"/>
<text text-anchor="start" x="695" y="-157.53" font-family="Helvetica,sans-Serif" font-size="11.00">timestamp[29,6]</text>
<polygon fill="#ffffff" stroke="none" points="475,-131.23 475,-150.23 588,-150.23 588,-131.23 475,-131.23"/>
<polygon fill="none" stroke="black" points="475,-131.23 475,-150.23 588,-150.23 588,-131.23 475,-131.23"/>
<text text-anchor="start" x="478" y="-136.78" font-family="Helvetica,sans-Serif" font-size="11.00">&lt; 4</text>
<polygon fill="#ffffff" stroke="none" points="588,-131.23 588,-150.23 692,-150.23 692,-131.23 588,-131.23"/>
<polygon fill="none" stroke="black" points="588,-131.23 588,-150.23 692,-150.23 692,-131.23 588,-131.23"/>
<text text-anchor="start" x="683" y="-136.78" font-family="Helvetica,sans-Serif" font-size="11.00"> &#160;</text>
<polygon fill="#ffffff" stroke="none" points="692,-131.23 692,-150.23 800,-150.23 800,-131.23 692,-131.23"/>
<polygon fill="none" stroke="black" points="692,-131.23 692,-150.23 800,-150.23 800,-131.23 692,-131.23"/>
<text text-anchor="start" x="781.25" y="-136.78" font-family="Helvetica,sans-Serif" font-size="11.00">2 &gt;</text>
<polygon fill="none" stroke="black" stroke-width="2" points="474,-130.23 474,-680.23 801,-680.23 801,-130.23 474,-130.23"/>
</a>
</g>
</g>
<!-- account_move_line&#45;&gt;account_tax -->
<g id="edge5" class="edge">
<title>account_move_line:w&#45;&gt;account_tax:e</title>
<path fill="none" stroke="black" d="M835.19,-611.22C823.36,-622.07 822.42,-645.23 801,-645.23"/>
<polygon fill="black" stroke="black" points="842.19,-608.63 850.94,-609.22 846.25,-607.12 849.37,-605.96 849.37,-605.96 849.37,-605.96 846.25,-607.12 848.43,-602.47 842.19,-608.63"/>
<ellipse fill="none" stroke="black" cx="837.57" cy="-610.34" rx="3.2" ry="3.2"/>
</g>
<!-- account_move_line&#45;&gt;account_tax -->
<g id="edge6" class="edge">
<title>account_move_line:w&#45;&gt;account_tax:e</title>
<path fill="none" stroke="black" d="M835.5,-589.4C820.92,-604.63 829.4,-645.23 801,-645.23"/>
<polygon fill="black" stroke="black" points="842.24,-586.77 851,-587.2 846.28,-585.19 849.38,-583.97 849.38,-583.97 849.38,-583.97 846.28,-585.19 848.38,-580.5 842.24,-586.77"/>
<ellipse fill="none" stroke="black" cx="837.66" cy="-588.56" rx="3.2" ry="3.2"/>
</g>
<!-- account_tax&#45;&gt;account_account -->
<g id="edge8" class="edge">
<title>account_tax:w&#45;&gt;account_account:e</title>
<path fill="none" stroke="black" d="M458.59,-560.54C415.92,-583.3 492.4,-715.73 425,-715.73"/>
<polygon fill="black" stroke="black" points="465.85,-558.98 474.43,-560.82 470.09,-558.07 473.35,-557.37 473.35,-557.37 473.35,-557.37 470.09,-558.07 472.92,-553.78 465.85,-558.98"/>
<ellipse fill="none" stroke="black" cx="461.04" cy="-560.01" rx="3.2" ry="3.2"/>
</g>
<!-- account_tax&#45;&gt;res_users -->
<g id="edge10" class="edge">
<title>account_tax:w&#45;&gt;res_users:e</title>
<path fill="none" stroke="black" d="M458.55,-510.33C423.84,-493.72 478.01,-410.25 432,-376.23 390.01,-345.18 244.7,-354.97 197,-376.23 172.71,-387.06 183.59,-420.73 157,-420.73"/>
<polygon fill="black" stroke="black" points="465.81,-511.69 473.01,-516.71 470.07,-512.49 473.34,-513.11 473.34,-513.11 473.34,-513.11 470.07,-512.49 474.34,-509.63 465.81,-511.69"/>
<ellipse fill="none" stroke="black" cx="460.97" cy="-510.78" rx="3.2" ry="3.2"/>
</g>
<!-- account_tax&#45;&gt;res_users -->
<g id="edge11" class="edge">
<title>account_tax:w&#45;&gt;res_users:e</title>
<path fill="none" stroke="black" d="M458.55,-488.33C423.84,-471.72 478.01,-388.25 432,-354.23 348.02,-292.13 287.92,-302.82 197,-354.23 166.98,-371.21 191.49,-420.73 157,-420.73"/>
<polygon fill="black" stroke="black" points="465.81,-489.69 473.01,-494.71 470.07,-490.49 473.34,-491.11 473.34,-491.11 473.34,-491.11 470.07,-490.49 474.34,-487.63 465.81,-489.69"/>
<ellipse fill="none" stroke="black" cx="460.97" cy="-488.78" rx="3.2" ry="3.2"/>
</g>
<!-- res_country -->
<g id="node5" class="node">
<title>res_country</title>
<g id="a_node5"><a xlink:href="../../tables/res_country.html" xlink:title="res_country" target="_top">
<polygon fill="#ffffff" stroke="none" points="243.5,-386.73 243.5,-557.73 385.5,-557.73 385.5,-386.73 243.5,-386.73"/>
<polygon fill="#f5f5f5" stroke="none" points="243.5,-534.73 243.5,-557.73 385.5,-557.73 385.5,-534.73 243.5,-534.73"/>
<polygon fill="none" stroke="black" points="243.5,-534.73 243.5,-557.73 385.5,-557.73 385.5,-534.73 243.5,-534.73"/>
<text text-anchor="start" x="248.5" y="-542.53" font-family="Helvetica,sans-Serif" font-weight="bold" font-size="11.00">res_country</text>
<text text-anchor="start" x="351.25" y="-542.28" font-family="Helvetica,sans-Serif" font-size="11.00">[table]</text>
<polygon fill="none" stroke="black" points="243.5,-512.73 243.5,-534.73 385.5,-534.73 385.5,-512.73 243.5,-512.73"/>
<image xlink:href="../../images/primaryKeys.png" width="11px" height="12px" preserveAspectRatio="xMinYMin meet" x="248.5" y="-529.729"/>
<text text-anchor="start" x="263.5" y="-519.28" font-family="Helvetica,sans-Serif" font-size="11.00">id</text>
<polygon fill="none" stroke="black" points="243.5,-490.73 243.5,-512.73 385.5,-512.73 385.5,-490.73 243.5,-490.73"/>
<image xlink:href="../../images/foreignKeys.png" width="11px" height="12px" preserveAspectRatio="xMinYMin meet" x="248.5" y="-507.729"/>
<text text-anchor="start" x="263.5" y="-497.28" font-family="Helvetica,sans-Serif" font-size="11.00">create_uid</text>
<polygon fill="none" stroke="black" points="243.5,-468.73 243.5,-490.73 385.5,-490.73 385.5,-468.73 243.5,-468.73"/>
<image xlink:href="../../images/foreignKeys.png" width="11px" height="12px" preserveAspectRatio="xMinYMin meet" x="248.5" y="-485.729"/>
<text text-anchor="start" x="263.5" y="-475.28" font-family="Helvetica,sans-Serif" font-size="11.00">write_uid</text>
<polygon fill="#ffffff" stroke="none" points="243.5,-446.73 243.5,-468.73 385.5,-468.73 385.5,-446.73 243.5,-446.73"/>
<polygon fill="none" stroke="black" points="243.5,-446.73 243.5,-468.73 385.5,-468.73 385.5,-446.73 243.5,-446.73"/>
<text text-anchor="start" x="263.5" y="-453.28" font-family="Helvetica,sans-Serif" font-size="11.00">code</text>
<polygon fill="#ffffff" stroke="none" points="243.5,-424.73 243.5,-446.73 385.5,-446.73 385.5,-424.73 243.5,-424.73"/>
<polygon fill="none" stroke="black" points="243.5,-424.73 243.5,-446.73 385.5,-446.73 385.5,-424.73 243.5,-424.73"/>
<text text-anchor="start" x="263.5" y="-431.28" font-family="Helvetica,sans-Serif" font-size="11.00">name</text>
<polygon fill="none" stroke="black" points="243.5,-405.73 243.5,-424.73 385.5,-424.73 385.5,-405.73 243.5,-405.73"/>
<text text-anchor="start" x="246.5" y="-411.28" font-family="Helvetica,sans-Serif" font-size="11.00">...</text>
<polygon fill="#ffffff" stroke="none" points="243.5,-386.73 243.5,-405.73 308.5,-405.73 308.5,-386.73 243.5,-386.73"/>
<polygon fill="none" stroke="black" points="243.5,-386.73 243.5,-405.73 308.5,-405.73 308.5,-386.73 243.5,-386.73"/>
<text text-anchor="start" x="246.5" y="-392.28" font-family="Helvetica,sans-Serif" font-size="11.00">&lt; 2</text>
<polygon fill="#ffffff" stroke="none" points="308.5,-386.73 308.5,-405.73 342.5,-405.73 342.5,-386.73 308.5,-386.73"/>
<polygon fill="none" stroke="black" points="308.5,-386.73 308.5,-405.73 342.5,-405.73 342.5,-386.73 308.5,-386.73"/>
<text text-anchor="start" x="333.5" y="-392.28" font-family="Helvetica,sans-Serif" font-size="11.00"> &#160;</text>
<polygon fill="#ffffff" stroke="none" points="342.5,-386.73 342.5,-405.73 385.5,-405.73 385.5,-386.73 342.5,-386.73"/>
<polygon fill="none" stroke="black" points="342.5,-386.73 342.5,-405.73 385.5,-405.73 385.5,-386.73 342.5,-386.73"/>
<text text-anchor="start" x="366.75" y="-392.28" font-family="Helvetica,sans-Serif" font-size="11.00">4 &gt;</text>
</a>
</g>
</g>
<!-- account_tax&#45;&gt;res_country -->
<g id="edge9" class="edge">
<title>account_tax:w&#45;&gt;res_country:e</title>
<path fill="none" stroke="black" d="M458.33,-534.54C431.42,-532.07 419.9,-523.73 386.5,-523.73"/>
<polygon fill="black" stroke="black" points="465.67,-534.86 473.51,-538.81 470,-535.05 473.33,-535.2 473.33,-535.2 473.33,-535.2 470,-535.05 473.82,-531.62 465.67,-534.86"/>
<ellipse fill="none" stroke="black" cx="460.76" cy="-534.65" rx="3.2" ry="3.2"/>
</g>
<!-- res_country&#45;&gt;res_users -->
<g id="edge12" class="edge">
<title>res_country:w&#45;&gt;res_users:e</title>
<path fill="none" stroke="black" d="M227.26,-498.85C193.58,-484.42 203.42,-420.73 157,-420.73"/>
<polygon fill="black" stroke="black" points="234.31,-500.18 241.5,-505.2 238.57,-500.99 241.84,-501.6 241.84,-501.6 241.84,-501.6 238.57,-500.99 242.84,-498.13 234.31,-500.18"/>
<ellipse fill="none" stroke="black" cx="229.48" cy="-499.27" rx="3.2" ry="3.2"/>
</g>
<!-- res_country&#45;&gt;res_users -->
<g id="edge13" class="edge">
<title>res_country:w&#45;&gt;res_users:e</title>
<path fill="none" stroke="black" d="M227.06,-477.04C197.21,-465.5 197.22,-420.73 157,-420.73"/>
<polygon fill="black" stroke="black" points="234.29,-478.3 241.55,-483.22 238.56,-479.04 241.84,-479.61 241.84,-479.61 241.84,-479.61 238.56,-479.04 242.79,-476.12 234.29,-478.3"/>
<ellipse fill="none" stroke="black" cx="229.44" cy="-477.46" rx="3.2" ry="3.2"/>
</g>
</g>
</svg>
