<?xml version="1.0" encoding="UTF-8" standalone="no"?>
<!DOCTYPE svg PUBLIC "-//W3C//DTD SVG 1.1//EN"
 "http://www.w3.org/Graphics/SVG/1.1/DTD/svg11.dtd">
<!-- Generated by graphviz version 12.0.0 (0)
 -->
<!-- Title: oneDegreeRelationshipsDiagram Pages: 1 -->
<svg width="1197pt" height="989pt"
 viewBox="0.00 0.00 1196.52 989.01" xmlns="http://www.w3.org/2000/svg" xmlns:xlink="http://www.w3.org/1999/xlink">
<g id="graph0" class="graph" transform="scale(1 1) rotate(0) translate(4 985.01)">
<title>oneDegreeRelationshipsDiagram</title>
<polygon fill="#ffffff" stroke="none" points="-4,4 -4,-985.01 1192.52,-985.01 1192.52,4 -4,4"/>
<text text-anchor="middle" x="71.38" y="-7.05" font-family="Helvetica,sans-Serif" font-size="11.00">Generated by SchemaSpy</text>
<!-- crm_lead -->
<g id="node1" class="node">
<title>crm_lead</title>
<g id="a_node1"><a xlink:href="../../tables/crm_lead.html" xlink:title="crm_lead" target="_top">
<polygon fill="#ffffff" stroke="none" points="712.52,-115.28 712.52,-726.28 957.52,-726.28 957.52,-115.28 712.52,-115.28"/>
<polygon fill="#f5f5f5" stroke="none" points="712.52,-703.28 712.52,-726.28 957.52,-726.28 957.52,-703.28 712.52,-703.28"/>
<polygon fill="none" stroke="black" points="712.52,-703.28 712.52,-726.28 957.52,-726.28 957.52,-703.28 712.52,-703.28"/>
<text text-anchor="start" x="717.52" y="-711.08" font-family="Helvetica,sans-Serif" font-weight="bold" font-size="11.00">crm_lead</text>
<text text-anchor="start" x="923.27" y="-710.83" font-family="Helvetica,sans-Serif" font-size="11.00">[table]</text>
<polygon fill="none" stroke="black" points="712.52,-681.28 712.52,-703.28 957.52,-703.28 957.52,-681.28 712.52,-681.28"/>
<image xlink:href="../../images/primaryKeys.png" width="11px" height="12px" preserveAspectRatio="xMinYMin meet" x="717.52" y="-698.276"/>
<text text-anchor="start" x="732.52" y="-687.83" font-family="Helvetica,sans-Serif" font-size="11.00">id</text>
<polygon fill="#ffffff" stroke="none" points="712.52,-659.28 712.52,-681.28 957.52,-681.28 957.52,-659.28 712.52,-659.28"/>
<polygon fill="none" stroke="black" points="712.52,-659.28 712.52,-681.28 957.52,-681.28 957.52,-659.28 712.52,-659.28"/>
<image xlink:href="../../images/foreignKeys.png" width="11px" height="12px" preserveAspectRatio="xMinYMin meet" x="717.52" y="-676.276"/>
<text text-anchor="start" x="732.52" y="-665.83" font-family="Helvetica,sans-Serif" font-size="11.00">user_id</text>
<polygon fill="#ffffff" stroke="none" points="712.52,-637.28 712.52,-659.28 957.52,-659.28 957.52,-637.28 712.52,-637.28"/>
<polygon fill="none" stroke="black" points="712.52,-637.28 712.52,-659.28 957.52,-659.28 957.52,-637.28 712.52,-637.28"/>
<image xlink:href="../../images/foreignKeys.png" width="11px" height="12px" preserveAspectRatio="xMinYMin meet" x="717.52" y="-654.276"/>
<text text-anchor="start" x="732.52" y="-643.83" font-family="Helvetica,sans-Serif" font-size="11.00">team_id</text>
<polygon fill="#ffffff" stroke="none" points="712.52,-615.28 712.52,-637.28 957.52,-637.28 957.52,-615.28 712.52,-615.28"/>
<polygon fill="none" stroke="black" points="712.52,-615.28 712.52,-637.28 957.52,-637.28 957.52,-615.28 712.52,-615.28"/>
<text text-anchor="start" x="732.52" y="-621.83" font-family="Helvetica,sans-Serif" font-size="11.00">company_id</text>
<polygon fill="#ffffff" stroke="none" points="712.52,-593.28 712.52,-615.28 957.52,-615.28 957.52,-593.28 712.52,-593.28"/>
<polygon fill="none" stroke="black" points="712.52,-593.28 712.52,-615.28 957.52,-615.28 957.52,-593.28 712.52,-593.28"/>
<image xlink:href="../../images/foreignKeys.png" width="11px" height="12px" preserveAspectRatio="xMinYMin meet" x="717.52" y="-610.276"/>
<text text-anchor="start" x="732.52" y="-599.83" font-family="Helvetica,sans-Serif" font-size="11.00">stage_id</text>
<polygon fill="#ffffff" stroke="none" points="712.52,-571.28 712.52,-593.28 957.52,-593.28 957.52,-571.28 712.52,-571.28"/>
<polygon fill="none" stroke="black" points="712.52,-571.28 712.52,-593.28 957.52,-593.28 957.52,-571.28 712.52,-571.28"/>
<image xlink:href="../../images/foreignKeys.png" width="11px" height="12px" preserveAspectRatio="xMinYMin meet" x="717.52" y="-588.276"/>
<text text-anchor="start" x="732.52" y="-577.83" font-family="Helvetica,sans-Serif" font-size="11.00">partner_id</text>
<polygon fill="none" stroke="black" points="712.52,-549.28 712.52,-571.28 957.52,-571.28 957.52,-549.28 712.52,-549.28"/>
<image xlink:href="../../images/foreignKeys.png" width="11px" height="12px" preserveAspectRatio="xMinYMin meet" x="717.52" y="-566.276"/>
<text text-anchor="start" x="732.52" y="-555.83" font-family="Helvetica,sans-Serif" font-size="11.00">country_id</text>
<polygon fill="#ffffff" stroke="none" points="712.52,-527.28 712.52,-549.28 957.52,-549.28 957.52,-527.28 712.52,-527.28"/>
<polygon fill="none" stroke="black" points="712.52,-527.28 712.52,-549.28 957.52,-549.28 957.52,-527.28 712.52,-527.28"/>
<image xlink:href="../../images/foreignKeys.png" width="11px" height="12px" preserveAspectRatio="xMinYMin meet" x="717.52" y="-544.276"/>
<text text-anchor="start" x="732.52" y="-533.83" font-family="Helvetica,sans-Serif" font-size="11.00">lost_reason_id</text>
<polygon fill="none" stroke="black" points="712.52,-505.28 712.52,-527.28 957.52,-527.28 957.52,-505.28 712.52,-505.28"/>
<image xlink:href="../../images/foreignKeys.png" width="11px" height="12px" preserveAspectRatio="xMinYMin meet" x="717.52" y="-522.276"/>
<text text-anchor="start" x="732.52" y="-511.83" font-family="Helvetica,sans-Serif" font-size="11.00">create_uid</text>
<polygon fill="none" stroke="black" points="712.52,-483.28 712.52,-505.28 957.52,-505.28 957.52,-483.28 712.52,-483.28"/>
<image xlink:href="../../images/foreignKeys.png" width="11px" height="12px" preserveAspectRatio="xMinYMin meet" x="717.52" y="-500.276"/>
<text text-anchor="start" x="732.52" y="-489.83" font-family="Helvetica,sans-Serif" font-size="11.00">write_uid</text>
<polygon fill="#ffffff" stroke="none" points="712.52,-461.28 712.52,-483.28 957.52,-483.28 957.52,-461.28 712.52,-461.28"/>
<polygon fill="none" stroke="black" points="712.52,-461.28 712.52,-483.28 957.52,-483.28 957.52,-461.28 712.52,-461.28"/>
<text text-anchor="start" x="732.52" y="-467.83" font-family="Helvetica,sans-Serif" font-size="11.00">phone_sanitized</text>
<polygon fill="#ffffff" stroke="none" points="712.52,-439.28 712.52,-461.28 957.52,-461.28 957.52,-439.28 712.52,-439.28"/>
<polygon fill="none" stroke="black" points="712.52,-439.28 712.52,-461.28 957.52,-461.28 957.52,-439.28 712.52,-439.28"/>
<text text-anchor="start" x="732.52" y="-445.83" font-family="Helvetica,sans-Serif" font-size="11.00">email_normalized</text>
<polygon fill="#ffffff" stroke="none" points="712.52,-417.28 712.52,-439.28 957.52,-439.28 957.52,-417.28 712.52,-417.28"/>
<polygon fill="none" stroke="black" points="712.52,-417.28 712.52,-439.28 957.52,-439.28 957.52,-417.28 712.52,-417.28"/>
<text text-anchor="start" x="732.52" y="-423.83" font-family="Helvetica,sans-Serif" font-size="11.00">name</text>
<polygon fill="#ffffff" stroke="none" points="712.52,-395.28 712.52,-417.28 957.52,-417.28 957.52,-395.28 712.52,-395.28"/>
<polygon fill="none" stroke="black" points="712.52,-395.28 712.52,-417.28 957.52,-417.28 957.52,-395.28 712.52,-395.28"/>
<text text-anchor="start" x="732.52" y="-401.83" font-family="Helvetica,sans-Serif" font-size="11.00">type</text>
<polygon fill="#ffffff" stroke="none" points="712.52,-373.28 712.52,-395.28 957.52,-395.28 957.52,-373.28 712.52,-373.28"/>
<polygon fill="none" stroke="black" points="712.52,-373.28 712.52,-395.28 957.52,-395.28 957.52,-373.28 712.52,-373.28"/>
<text text-anchor="start" x="732.52" y="-379.83" font-family="Helvetica,sans-Serif" font-size="11.00">priority</text>
<polygon fill="#ffffff" stroke="none" points="712.52,-351.28 712.52,-373.28 957.52,-373.28 957.52,-351.28 712.52,-351.28"/>
<polygon fill="none" stroke="black" points="712.52,-351.28 712.52,-373.28 957.52,-373.28 957.52,-351.28 712.52,-351.28"/>
<text text-anchor="start" x="732.52" y="-357.83" font-family="Helvetica,sans-Serif" font-size="11.00">contact_name</text>
<polygon fill="#ffffff" stroke="none" points="712.52,-329.28 712.52,-351.28 957.52,-351.28 957.52,-329.28 712.52,-329.28"/>
<polygon fill="none" stroke="black" points="712.52,-329.28 712.52,-351.28 957.52,-351.28 957.52,-329.28 712.52,-329.28"/>
<text text-anchor="start" x="732.52" y="-335.83" font-family="Helvetica,sans-Serif" font-size="11.00">partner_name</text>
<polygon fill="#ffffff" stroke="none" points="712.52,-307.28 712.52,-329.28 957.52,-329.28 957.52,-307.28 712.52,-307.28"/>
<polygon fill="none" stroke="black" points="712.52,-307.28 712.52,-329.28 957.52,-329.28 957.52,-307.28 712.52,-307.28"/>
<text text-anchor="start" x="732.52" y="-313.83" font-family="Helvetica,sans-Serif" font-size="11.00">email_from</text>
<polygon fill="#ffffff" stroke="none" points="712.52,-285.28 712.52,-307.28 957.52,-307.28 957.52,-285.28 712.52,-285.28"/>
<polygon fill="none" stroke="black" points="712.52,-285.28 712.52,-307.28 957.52,-307.28 957.52,-285.28 712.52,-285.28"/>
<text text-anchor="start" x="732.52" y="-291.83" font-family="Helvetica,sans-Serif" font-size="11.00">email_domain_criterion</text>
<polygon fill="#ffffff" stroke="none" points="712.52,-263.28 712.52,-285.28 957.52,-285.28 957.52,-263.28 712.52,-263.28"/>
<polygon fill="none" stroke="black" points="712.52,-263.28 712.52,-285.28 957.52,-285.28 957.52,-263.28 712.52,-263.28"/>
<text text-anchor="start" x="732.52" y="-269.83" font-family="Helvetica,sans-Serif" font-size="11.00">date_last_stage_update</text>
<polygon fill="#ffffff" stroke="none" points="712.52,-241.28 712.52,-263.28 957.52,-263.28 957.52,-241.28 712.52,-241.28"/>
<polygon fill="none" stroke="black" points="712.52,-241.28 712.52,-263.28 957.52,-263.28 957.52,-241.28 712.52,-241.28"/>
<text text-anchor="start" x="732.52" y="-247.83" font-family="Helvetica,sans-Serif" font-size="11.00">create_date</text>
<polygon fill="none" stroke="black" points="712.52,-219.28 712.52,-241.28 957.52,-241.28 957.52,-219.28 712.52,-219.28"/>
<image xlink:href="../../images/foreignKeys.png" width="11px" height="12px" preserveAspectRatio="xMinYMin meet" x="717.52" y="-236.276"/>
<text text-anchor="start" x="732.52" y="-225.83" font-family="Helvetica,sans-Serif" font-size="11.00">sales_assist_id</text>
<polygon fill="none" stroke="black" points="712.52,-197.28 712.52,-219.28 957.52,-219.28 957.52,-197.28 712.52,-197.28"/>
<image xlink:href="../../images/foreignKeys.png" width="11px" height="12px" preserveAspectRatio="xMinYMin meet" x="717.52" y="-214.276"/>
<text text-anchor="start" x="732.52" y="-203.83" font-family="Helvetica,sans-Serif" font-size="11.00">introduced_by_id</text>
<polygon fill="none" stroke="black" points="712.52,-175.28 712.52,-197.28 957.52,-197.28 957.52,-175.28 712.52,-175.28"/>
<image xlink:href="../../images/foreignKeys.png" width="11px" height="12px" preserveAspectRatio="xMinYMin meet" x="717.52" y="-192.276"/>
<text text-anchor="start" x="732.52" y="-181.83" font-family="Helvetica,sans-Serif" font-size="11.00">contact_account_manager_id</text>
<polygon fill="none" stroke="black" points="712.52,-153.28 712.52,-175.28 957.52,-175.28 957.52,-153.28 712.52,-153.28"/>
<image xlink:href="../../images/foreignKeys.png" width="11px" height="12px" preserveAspectRatio="xMinYMin meet" x="717.52" y="-170.276"/>
<text text-anchor="start" x="732.52" y="-159.83" font-family="Helvetica,sans-Serif" font-size="11.00">citizen_id</text>
<polygon fill="none" stroke="black" points="712.52,-134.28 712.52,-153.28 957.52,-153.28 957.52,-134.28 712.52,-134.28"/>
<text text-anchor="start" x="715.52" y="-139.83" font-family="Helvetica,sans-Serif" font-size="11.00">...</text>
<polygon fill="#ffffff" stroke="none" points="712.52,-115.28 712.52,-134.28 831.52,-134.28 831.52,-115.28 712.52,-115.28"/>
<polygon fill="none" stroke="black" points="712.52,-115.28 712.52,-134.28 831.52,-134.28 831.52,-115.28 712.52,-115.28"/>
<text text-anchor="start" x="715.52" y="-120.83" font-family="Helvetica,sans-Serif" font-size="11.00">&lt; 12</text>
<polygon fill="#ffffff" stroke="none" points="831.52,-115.28 831.52,-134.28 889.52,-134.28 889.52,-115.28 831.52,-115.28"/>
<polygon fill="none" stroke="black" points="831.52,-115.28 831.52,-134.28 889.52,-134.28 889.52,-115.28 831.52,-115.28"/>
<text text-anchor="start" x="880.52" y="-120.83" font-family="Helvetica,sans-Serif" font-size="11.00"> &#160;</text>
<polygon fill="#ffffff" stroke="none" points="889.52,-115.28 889.52,-134.28 957.52,-134.28 957.52,-115.28 889.52,-115.28"/>
<polygon fill="none" stroke="black" points="889.52,-115.28 889.52,-134.28 957.52,-134.28 957.52,-115.28 889.52,-115.28"/>
<text text-anchor="start" x="938.77" y="-120.83" font-family="Helvetica,sans-Serif" font-size="11.00">2 &gt;</text>
</a>
</g>
</g>
<!-- res_users -->
<g id="node2" class="node">
<title>res_users</title>
<g id="a_node2"><a xlink:href="../../tables/res_users.html" xlink:title="res_users" target="_top">
<polygon fill="#ffffff" stroke="none" points="248.52,-284.28 248.52,-477.28 396.52,-477.28 396.52,-284.28 248.52,-284.28"/>
<polygon fill="#f5f5f5" stroke="none" points="248.52,-454.28 248.52,-477.28 396.52,-477.28 396.52,-454.28 248.52,-454.28"/>
<polygon fill="none" stroke="black" points="248.52,-454.28 248.52,-477.28 396.52,-477.28 396.52,-454.28 248.52,-454.28"/>
<text text-anchor="start" x="253.15" y="-462.08" font-family="Helvetica,sans-Serif" font-weight="bold" font-size="11.00">res_users</text>
<text text-anchor="start" x="362.27" y="-461.83" font-family="Helvetica,sans-Serif" font-size="11.00">[table]</text>
<polygon fill="none" stroke="black" points="248.52,-432.28 248.52,-454.28 396.52,-454.28 396.52,-432.28 248.52,-432.28"/>
<image xlink:href="../../images/primaryKeys.png" width="11px" height="12px" preserveAspectRatio="xMinYMin meet" x="253.52" y="-449.276"/>
<text text-anchor="start" x="268.52" y="-438.83" font-family="Helvetica,sans-Serif" font-size="11.00">id</text>
<polygon fill="#ffffff" stroke="none" points="248.52,-410.28 248.52,-432.28 396.52,-432.28 396.52,-410.28 248.52,-410.28"/>
<polygon fill="none" stroke="black" points="248.52,-410.28 248.52,-432.28 396.52,-432.28 396.52,-410.28 248.52,-410.28"/>
<image xlink:href="../../images/foreignKeys.png" width="11px" height="12px" preserveAspectRatio="xMinYMin meet" x="253.52" y="-427.276"/>
<text text-anchor="start" x="268.52" y="-416.83" font-family="Helvetica,sans-Serif" font-size="11.00">partner_id</text>
<polygon fill="#ffffff" stroke="none" points="248.52,-388.28 248.52,-410.28 396.52,-410.28 396.52,-388.28 248.52,-388.28"/>
<polygon fill="none" stroke="black" points="248.52,-388.28 248.52,-410.28 396.52,-410.28 396.52,-388.28 248.52,-388.28"/>
<text text-anchor="start" x="268.52" y="-394.83" font-family="Helvetica,sans-Serif" font-size="11.00">login</text>
<polygon fill="none" stroke="black" points="248.52,-366.28 248.52,-388.28 396.52,-388.28 396.52,-366.28 248.52,-366.28"/>
<image xlink:href="../../images/foreignKeys.png" width="11px" height="12px" preserveAspectRatio="xMinYMin meet" x="253.52" y="-383.276"/>
<text text-anchor="start" x="268.52" y="-372.83" font-family="Helvetica,sans-Serif" font-size="11.00">create_uid</text>
<polygon fill="none" stroke="black" points="248.52,-344.28 248.52,-366.28 396.52,-366.28 396.52,-344.28 248.52,-344.28"/>
<image xlink:href="../../images/foreignKeys.png" width="11px" height="12px" preserveAspectRatio="xMinYMin meet" x="253.52" y="-361.276"/>
<text text-anchor="start" x="268.52" y="-350.83" font-family="Helvetica,sans-Serif" font-size="11.00">write_uid</text>
<polygon fill="none" stroke="black" points="248.52,-322.28 248.52,-344.28 396.52,-344.28 396.52,-322.28 248.52,-322.28"/>
<image xlink:href="../../images/foreignKeys.png" width="11px" height="12px" preserveAspectRatio="xMinYMin meet" x="253.52" y="-339.276"/>
<text text-anchor="start" x="268.52" y="-328.83" font-family="Helvetica,sans-Serif" font-size="11.00">sale_team_id</text>
<polygon fill="none" stroke="black" points="248.52,-303.28 248.52,-322.28 396.52,-322.28 396.52,-303.28 248.52,-303.28"/>
<text text-anchor="start" x="251.52" y="-308.83" font-family="Helvetica,sans-Serif" font-size="11.00">...</text>
<polygon fill="#ffffff" stroke="none" points="248.52,-284.28 248.52,-303.28 313.52,-303.28 313.52,-284.28 248.52,-284.28"/>
<polygon fill="none" stroke="black" points="248.52,-284.28 248.52,-303.28 313.52,-303.28 313.52,-284.28 248.52,-284.28"/>
<text text-anchor="start" x="251.52" y="-289.83" font-family="Helvetica,sans-Serif" font-size="11.00">&lt; 4</text>
<polygon fill="#ffffff" stroke="none" points="313.52,-284.28 313.52,-303.28 347.52,-303.28 347.52,-284.28 313.52,-284.28"/>
<polygon fill="none" stroke="black" points="313.52,-284.28 313.52,-303.28 347.52,-303.28 347.52,-284.28 313.52,-284.28"/>
<text text-anchor="start" x="338.52" y="-289.83" font-family="Helvetica,sans-Serif" font-size="11.00"> &#160;</text>
<polygon fill="#ffffff" stroke="none" points="347.52,-284.28 347.52,-303.28 396.52,-303.28 396.52,-284.28 347.52,-284.28"/>
<polygon fill="none" stroke="black" points="347.52,-284.28 347.52,-303.28 396.52,-303.28 396.52,-284.28 347.52,-284.28"/>
<text text-anchor="start" x="371.77" y="-289.83" font-family="Helvetica,sans-Serif" font-size="11.00">65 &gt;</text>
</a>
</g>
</g>
<!-- crm_lead&#45;&gt;res_users -->
<g id="edge1" class="edge">
<title>crm_lead:w&#45;&gt;res_users:e</title>
<path fill="none" stroke="black" d="M695.95,-186.3C577.33,-186.65 520.87,-192.84 437.52,-284.78 388.72,-338.6 470.17,-443.28 397.52,-443.28"/>
<polygon fill="black" stroke="black" points="703.19,-186.29 711.19,-189.88 707.52,-186.28 710.85,-186.28 710.85,-186.28 710.85,-186.28 707.52,-186.28 711.18,-182.68 703.19,-186.29"/>
<ellipse fill="none" stroke="black" cx="698.27" cy="-186.29" rx="3.2" ry="3.2"/>
</g>
<!-- crm_lead&#45;&gt;res_users -->
<g id="edge2" class="edge">
<title>crm_lead:w&#45;&gt;res_users:e</title>
<path fill="none" stroke="black" d="M696.85,-511.02C684.01,-497.45 696.25,-461.29 671.52,-446.78 566.48,-385.14 519.31,-443.28 397.52,-443.28"/>
<polygon fill="black" stroke="black" points="703.67,-513.46 709.99,-519.55 707.75,-514.93 710.89,-516.05 710.89,-516.05 710.89,-516.05 707.75,-514.93 712.42,-512.77 703.67,-513.46"/>
<ellipse fill="none" stroke="black" cx="699.04" cy="-511.81" rx="3.2" ry="3.2"/>
</g>
<!-- crm_lead&#45;&gt;res_users -->
<g id="edge3" class="edge">
<title>crm_lead:w&#45;&gt;res_users:e</title>
<path fill="none" stroke="black" d="M696.76,-213.07C687.91,-220.61 686.02,-235.34 671.52,-244.78 576.3,-306.78 517.14,-266.71 437.52,-347.78 405.28,-380.61 443.54,-443.28 397.52,-443.28"/>
<polygon fill="black" stroke="black" points="703.59,-210.85 712.31,-211.8 707.72,-209.51 710.88,-208.48 710.88,-208.48 710.88,-208.48 707.72,-209.51 710.09,-204.96 703.59,-210.85"/>
<ellipse fill="none" stroke="black" cx="698.92" cy="-212.37" rx="3.2" ry="3.2"/>
</g>
<!-- crm_lead&#45;&gt;res_users -->
<g id="edge4" class="edge">
<title>crm_lead:w&#45;&gt;res_users:e</title>
<path fill="none" stroke="black" d="M696.6,-234.72C681.3,-247.59 694.94,-285.24 671.52,-305.78 588.09,-378.92 527.28,-327.55 437.52,-392.78 414.36,-409.61 426.15,-443.28 397.52,-443.28"/>
<polygon fill="black" stroke="black" points="703.53,-232.66 712.23,-233.82 707.69,-231.42 710.88,-230.47 710.88,-230.47 710.88,-230.47 707.69,-231.42 710.17,-226.92 703.53,-232.66"/>
<ellipse fill="none" stroke="black" cx="698.82" cy="-234.06" rx="3.2" ry="3.2"/>
</g>
<!-- crm_lead&#45;&gt;res_users -->
<g id="edge7" class="edge">
<title>crm_lead:w&#45;&gt;res_users:e</title>
<path fill="none" stroke="black" d="M695.98,-668.43C637.26,-651.99 732.81,-529.79 671.52,-473.78 626.3,-432.45 458.79,-443.28 397.52,-443.28"/>
<polygon fill="black" stroke="black" points="703.24,-669.29 710.76,-673.81 707.55,-669.8 710.86,-670.2 710.86,-670.2 710.86,-670.2 707.55,-669.8 711.61,-666.66 703.24,-669.29"/>
<ellipse fill="none" stroke="black" cx="698.36" cy="-668.71" rx="3.2" ry="3.2"/>
</g>
<!-- crm_lead&#45;&gt;res_users -->
<g id="edge8" class="edge">
<title>crm_lead:w&#45;&gt;res_users:e</title>
<path fill="none" stroke="black" d="M696.87,-489.56C681.41,-475.2 699.41,-431.96 671.52,-414.78 582.98,-360.21 536.58,-383.1 437.52,-414.78 416.73,-421.43 419.35,-443.28 397.52,-443.28"/>
<polygon fill="black" stroke="black" points="703.59,-491.72 710.1,-497.6 707.71,-493.05 710.88,-494.07 710.88,-494.07 710.88,-494.07 707.71,-493.05 712.3,-490.75 703.59,-491.72"/>
<ellipse fill="none" stroke="black" cx="698.9" cy="-490.22" rx="3.2" ry="3.2"/>
</g>
<!-- crm_stage -->
<g id="node3" class="node">
<title>crm_stage</title>
<g id="a_node3"><a xlink:href="../../tables/crm_stage.html" xlink:title="crm_stage" target="_top">
<polygon fill="#ffffff" stroke="none" points="445.52,-534.78 445.52,-888.78 663.52,-888.78 663.52,-534.78 445.52,-534.78"/>
<polygon fill="#f5f5f5" stroke="none" points="447.52,-863.78 447.52,-886.78 661.52,-886.78 661.52,-863.78 447.52,-863.78"/>
<polygon fill="none" stroke="black" points="447.52,-863.78 447.52,-886.78 661.52,-886.78 661.52,-863.78 447.52,-863.78"/>
<text text-anchor="start" x="452.52" y="-871.58" font-family="Helvetica,sans-Serif" font-weight="bold" font-size="11.00">crm_stage</text>
<text text-anchor="start" x="627.27" y="-871.33" font-family="Helvetica,sans-Serif" font-size="11.00">[table]</text>
<polygon fill="none" stroke="black" points="447.52,-841.78 447.52,-863.78 553.52,-863.78 553.52,-841.78 447.52,-841.78"/>
<image xlink:href="../../images/primaryKeys.png" width="11px" height="12px" preserveAspectRatio="xMinYMin meet" x="452.52" y="-858.776"/>
<text text-anchor="start" x="467.52" y="-848.33" font-family="Helvetica,sans-Serif" font-size="11.00">id</text>
<polygon fill="none" stroke="black" points="553.52,-841.78 553.52,-863.78 661.52,-863.78 661.52,-841.78 553.52,-841.78"/>
<text text-anchor="start" x="556.52" y="-849.08" font-family="Helvetica,sans-Serif" font-size="11.00">serial[10]</text>
<polygon fill="none" stroke="black" points="447.52,-819.78 447.52,-841.78 553.52,-841.78 553.52,-819.78 447.52,-819.78"/>
<text text-anchor="start" x="467.52" y="-826.33" font-family="Helvetica,sans-Serif" font-size="11.00">sequence</text>
<polygon fill="none" stroke="black" points="553.52,-819.78 553.52,-841.78 661.52,-841.78 661.52,-819.78 553.52,-819.78"/>
<text text-anchor="start" x="556.52" y="-827.08" font-family="Helvetica,sans-Serif" font-size="11.00">int4[10]</text>
<polygon fill="none" stroke="black" points="447.52,-797.78 447.52,-819.78 553.52,-819.78 553.52,-797.78 447.52,-797.78"/>
<image xlink:href="../../images/foreignKeys.png" width="11px" height="12px" preserveAspectRatio="xMinYMin meet" x="452.52" y="-814.776"/>
<text text-anchor="start" x="467.52" y="-804.33" font-family="Helvetica,sans-Serif" font-size="11.00">team_id</text>
<polygon fill="none" stroke="black" points="553.52,-797.78 553.52,-819.78 661.52,-819.78 661.52,-797.78 553.52,-797.78"/>
<text text-anchor="start" x="556.52" y="-805.08" font-family="Helvetica,sans-Serif" font-size="11.00">int4[10]</text>
<polygon fill="none" stroke="black" points="447.52,-775.78 447.52,-797.78 553.52,-797.78 553.52,-775.78 447.52,-775.78"/>
<image xlink:href="../../images/foreignKeys.png" width="11px" height="12px" preserveAspectRatio="xMinYMin meet" x="452.52" y="-792.776"/>
<text text-anchor="start" x="467.52" y="-782.33" font-family="Helvetica,sans-Serif" font-size="11.00">create_uid</text>
<polygon fill="none" stroke="black" points="553.52,-775.78 553.52,-797.78 661.52,-797.78 661.52,-775.78 553.52,-775.78"/>
<text text-anchor="start" x="556.52" y="-783.08" font-family="Helvetica,sans-Serif" font-size="11.00">int4[10]</text>
<polygon fill="none" stroke="black" points="447.52,-753.78 447.52,-775.78 553.52,-775.78 553.52,-753.78 447.52,-753.78"/>
<image xlink:href="../../images/foreignKeys.png" width="11px" height="12px" preserveAspectRatio="xMinYMin meet" x="452.52" y="-770.776"/>
<text text-anchor="start" x="467.52" y="-760.33" font-family="Helvetica,sans-Serif" font-size="11.00">write_uid</text>
<polygon fill="none" stroke="black" points="553.52,-753.78 553.52,-775.78 661.52,-775.78 661.52,-753.78 553.52,-753.78"/>
<text text-anchor="start" x="556.52" y="-761.08" font-family="Helvetica,sans-Serif" font-size="11.00">int4[10]</text>
<polygon fill="none" stroke="black" points="447.52,-731.78 447.52,-753.78 553.52,-753.78 553.52,-731.78 447.52,-731.78"/>
<text text-anchor="start" x="467.52" y="-738.33" font-family="Helvetica,sans-Serif" font-size="11.00">name</text>
<polygon fill="none" stroke="black" points="553.52,-731.78 553.52,-753.78 661.52,-753.78 661.52,-731.78 553.52,-731.78"/>
<text text-anchor="start" x="556.52" y="-739.08" font-family="Helvetica,sans-Serif" font-size="11.00">jsonb[2147483647]</text>
<polygon fill="none" stroke="black" points="447.52,-709.78 447.52,-731.78 553.52,-731.78 553.52,-709.78 447.52,-709.78"/>
<text text-anchor="start" x="467.52" y="-716.33" font-family="Helvetica,sans-Serif" font-size="11.00">requirements</text>
<polygon fill="none" stroke="black" points="553.52,-709.78 553.52,-731.78 661.52,-731.78 661.52,-709.78 553.52,-709.78"/>
<text text-anchor="start" x="556.52" y="-717.08" font-family="Helvetica,sans-Serif" font-size="11.00">text[2147483647]</text>
<polygon fill="none" stroke="black" points="447.52,-687.78 447.52,-709.78 553.52,-709.78 553.52,-687.78 447.52,-687.78"/>
<text text-anchor="start" x="467.52" y="-694.33" font-family="Helvetica,sans-Serif" font-size="11.00">is_won</text>
<polygon fill="none" stroke="black" points="553.52,-687.78 553.52,-709.78 661.52,-709.78 661.52,-687.78 553.52,-687.78"/>
<text text-anchor="start" x="556.52" y="-695.08" font-family="Helvetica,sans-Serif" font-size="11.00">bool[1]</text>
<polygon fill="none" stroke="black" points="447.52,-665.78 447.52,-687.78 553.52,-687.78 553.52,-665.78 447.52,-665.78"/>
<text text-anchor="start" x="467.52" y="-672.33" font-family="Helvetica,sans-Serif" font-size="11.00">fold</text>
<polygon fill="none" stroke="black" points="553.52,-665.78 553.52,-687.78 661.52,-687.78 661.52,-665.78 553.52,-665.78"/>
<text text-anchor="start" x="556.52" y="-673.08" font-family="Helvetica,sans-Serif" font-size="11.00">bool[1]</text>
<polygon fill="none" stroke="black" points="447.52,-643.78 447.52,-665.78 553.52,-665.78 553.52,-643.78 447.52,-643.78"/>
<text text-anchor="start" x="467.52" y="-650.33" font-family="Helvetica,sans-Serif" font-size="11.00">create_date</text>
<polygon fill="none" stroke="black" points="553.52,-643.78 553.52,-665.78 661.52,-665.78 661.52,-643.78 553.52,-643.78"/>
<text text-anchor="start" x="556.52" y="-651.08" font-family="Helvetica,sans-Serif" font-size="11.00">timestamp[29,6]</text>
<polygon fill="none" stroke="black" points="447.52,-621.78 447.52,-643.78 553.52,-643.78 553.52,-621.78 447.52,-621.78"/>
<text text-anchor="start" x="467.52" y="-628.33" font-family="Helvetica,sans-Serif" font-size="11.00">write_date</text>
<polygon fill="none" stroke="black" points="553.52,-621.78 553.52,-643.78 661.52,-643.78 661.52,-621.78 553.52,-621.78"/>
<text text-anchor="start" x="556.52" y="-629.08" font-family="Helvetica,sans-Serif" font-size="11.00">timestamp[29,6]</text>
<polygon fill="none" stroke="black" points="447.52,-599.78 447.52,-621.78 553.52,-621.78 553.52,-599.78 447.52,-599.78"/>
<text text-anchor="start" x="467.52" y="-606.33" font-family="Helvetica,sans-Serif" font-size="11.00">type</text>
<polygon fill="none" stroke="black" points="553.52,-599.78 553.52,-621.78 661.52,-621.78 661.52,-599.78 553.52,-599.78"/>
<text text-anchor="start" x="556.52" y="-607.08" font-family="Helvetica,sans-Serif" font-size="11.00">varchar[2147483647]</text>
<polygon fill="none" stroke="black" points="447.52,-577.78 447.52,-599.78 553.52,-599.78 553.52,-577.78 447.52,-577.78"/>
<text text-anchor="start" x="467.52" y="-584.33" font-family="Helvetica,sans-Serif" font-size="11.00">is_unreviewed</text>
<polygon fill="none" stroke="black" points="553.52,-577.78 553.52,-599.78 661.52,-599.78 661.52,-577.78 553.52,-577.78"/>
<text text-anchor="start" x="556.52" y="-585.08" font-family="Helvetica,sans-Serif" font-size="11.00">bool[1]</text>
<polygon fill="none" stroke="black" points="447.52,-555.78 447.52,-577.78 553.52,-577.78 553.52,-555.78 447.52,-555.78"/>
<text text-anchor="start" x="467.52" y="-562.33" font-family="Helvetica,sans-Serif" font-size="11.00">is_qualified</text>
<polygon fill="none" stroke="black" points="553.52,-555.78 553.52,-577.78 661.52,-577.78 661.52,-555.78 553.52,-555.78"/>
<text text-anchor="start" x="556.52" y="-563.08" font-family="Helvetica,sans-Serif" font-size="11.00">bool[1]</text>
<polygon fill="#ffffff" stroke="none" points="447.52,-536.78 447.52,-555.78 504.52,-555.78 504.52,-536.78 447.52,-536.78"/>
<polygon fill="none" stroke="black" points="447.52,-536.78 447.52,-555.78 504.52,-555.78 504.52,-536.78 447.52,-536.78"/>
<text text-anchor="start" x="450.52" y="-542.33" font-family="Helvetica,sans-Serif" font-size="11.00">&lt; 3</text>
<polygon fill="#ffffff" stroke="none" points="504.52,-536.78 504.52,-555.78 553.52,-555.78 553.52,-536.78 504.52,-536.78"/>
<polygon fill="none" stroke="black" points="504.52,-536.78 504.52,-555.78 553.52,-555.78 553.52,-536.78 504.52,-536.78"/>
<text text-anchor="start" x="544.52" y="-542.33" font-family="Helvetica,sans-Serif" font-size="11.00"> &#160;</text>
<polygon fill="#ffffff" stroke="none" points="553.52,-536.78 553.52,-555.78 661.52,-555.78 661.52,-536.78 553.52,-536.78"/>
<polygon fill="none" stroke="black" points="553.52,-536.78 553.52,-555.78 661.52,-555.78 661.52,-536.78 553.52,-536.78"/>
<text text-anchor="start" x="642.77" y="-542.33" font-family="Helvetica,sans-Serif" font-size="11.00">3 &gt;</text>
<polygon fill="none" stroke="black" stroke-width="2" points="446.52,-535.78 446.52,-887.78 662.52,-887.78 662.52,-535.78 446.52,-535.78"/>
</a>
</g>
</g>
<!-- crm_lead&#45;&gt;crm_stage -->
<g id="edge5" class="edge">
<title>crm_lead:w&#45;&gt;crm_stage:e</title>
<path fill="none" stroke="black" d="M696.04,-606.28C616.72,-629.79 769.15,-852.78 662.52,-852.78"/>
<polygon fill="black" stroke="black" points="703.25,-605.34 711.65,-607.89 707.55,-604.79 710.86,-604.36 710.86,-604.36 710.86,-604.36 707.55,-604.79 710.73,-600.75 703.25,-605.34"/>
<ellipse fill="none" stroke="black" cx="698.38" cy="-605.97" rx="3.2" ry="3.2"/>
</g>
<!-- crm_team -->
<g id="node4" class="node">
<title>crm_team</title>
<g id="a_node4"><a xlink:href="../../tables/crm_team.html" xlink:title="crm_team" target="_top">
<polygon fill="#ffffff" stroke="none" points="22.52,-383.28 22.52,-554.28 199.52,-554.28 199.52,-383.28 22.52,-383.28"/>
<polygon fill="#f5f5f5" stroke="none" points="22.52,-531.28 22.52,-554.28 199.52,-554.28 199.52,-531.28 22.52,-531.28"/>
<polygon fill="none" stroke="black" points="22.52,-531.28 22.52,-554.28 199.52,-554.28 199.52,-531.28 22.52,-531.28"/>
<text text-anchor="start" x="27.52" y="-539.08" font-family="Helvetica,sans-Serif" font-weight="bold" font-size="11.00">crm_team</text>
<text text-anchor="start" x="165.27" y="-538.83" font-family="Helvetica,sans-Serif" font-size="11.00">[table]</text>
<polygon fill="none" stroke="black" points="22.52,-509.28 22.52,-531.28 199.52,-531.28 199.52,-509.28 22.52,-509.28"/>
<image xlink:href="../../images/primaryKeys.png" width="11px" height="12px" preserveAspectRatio="xMinYMin meet" x="27.5202" y="-526.276"/>
<text text-anchor="start" x="42.52" y="-515.83" font-family="Helvetica,sans-Serif" font-size="11.00">id</text>
<polygon fill="#ffffff" stroke="none" points="22.52,-487.28 22.52,-509.28 199.52,-509.28 199.52,-487.28 22.52,-487.28"/>
<polygon fill="none" stroke="black" points="22.52,-487.28 22.52,-509.28 199.52,-509.28 199.52,-487.28 22.52,-487.28"/>
<text text-anchor="start" x="42.52" y="-493.83" font-family="Helvetica,sans-Serif" font-size="11.00">company_id</text>
<polygon fill="none" stroke="black" points="22.52,-465.28 22.52,-487.28 199.52,-487.28 199.52,-465.28 22.52,-465.28"/>
<image xlink:href="../../images/foreignKeys.png" width="11px" height="12px" preserveAspectRatio="xMinYMin meet" x="27.5202" y="-482.276"/>
<text text-anchor="start" x="42.52" y="-471.83" font-family="Helvetica,sans-Serif" font-size="11.00">user_id</text>
<polygon fill="none" stroke="black" points="22.52,-443.28 22.52,-465.28 199.52,-465.28 199.52,-443.28 22.52,-443.28"/>
<image xlink:href="../../images/foreignKeys.png" width="11px" height="12px" preserveAspectRatio="xMinYMin meet" x="27.5202" y="-460.276"/>
<text text-anchor="start" x="42.52" y="-449.83" font-family="Helvetica,sans-Serif" font-size="11.00">create_uid</text>
<polygon fill="none" stroke="black" points="22.52,-421.28 22.52,-443.28 199.52,-443.28 199.52,-421.28 22.52,-421.28"/>
<image xlink:href="../../images/foreignKeys.png" width="11px" height="12px" preserveAspectRatio="xMinYMin meet" x="27.5202" y="-438.276"/>
<text text-anchor="start" x="42.52" y="-427.83" font-family="Helvetica,sans-Serif" font-size="11.00">write_uid</text>
<polygon fill="none" stroke="black" points="22.52,-402.28 22.52,-421.28 199.52,-421.28 199.52,-402.28 22.52,-402.28"/>
<text text-anchor="start" x="25.52" y="-407.83" font-family="Helvetica,sans-Serif" font-size="11.00">...</text>
<polygon fill="#ffffff" stroke="none" points="22.52,-383.28 22.52,-402.28 104.52,-402.28 104.52,-383.28 22.52,-383.28"/>
<polygon fill="none" stroke="black" points="22.52,-383.28 22.52,-402.28 104.52,-402.28 104.52,-383.28 22.52,-383.28"/>
<text text-anchor="start" x="25.52" y="-388.83" font-family="Helvetica,sans-Serif" font-size="11.00">&lt; 3</text>
<polygon fill="#ffffff" stroke="none" points="104.52,-383.28 104.52,-402.28 147.52,-402.28 147.52,-383.28 104.52,-383.28"/>
<polygon fill="none" stroke="black" points="104.52,-383.28 104.52,-402.28 147.52,-402.28 147.52,-383.28 104.52,-383.28"/>
<text text-anchor="start" x="138.52" y="-388.83" font-family="Helvetica,sans-Serif" font-size="11.00"> &#160;</text>
<polygon fill="#ffffff" stroke="none" points="147.52,-383.28 147.52,-402.28 199.52,-402.28 199.52,-383.28 147.52,-383.28"/>
<polygon fill="none" stroke="black" points="147.52,-383.28 147.52,-402.28 199.52,-402.28 199.52,-383.28 147.52,-383.28"/>
<text text-anchor="start" x="180.77" y="-388.83" font-family="Helvetica,sans-Serif" font-size="11.00">6 &gt;</text>
</a>
</g>
</g>
<!-- crm_lead&#45;&gt;crm_team -->
<g id="edge6" class="edge">
<title>crm_lead:w&#45;&gt;crm_team:e</title>
<path fill="none" stroke="black" d="M697.24,-654.98C666.37,-691.6 710.02,-866.91 671.52,-899.78 592.42,-967.29 532.19,-942.84 437.52,-899.78 316.23,-844.6 302.75,-791.6 240.52,-673.78 207.59,-611.44 271.02,-520.28 200.52,-520.28"/>
<polygon fill="black" stroke="black" points="703.98,-651.82 712.75,-651.68 707.9,-649.98 710.91,-648.56 710.91,-648.56 710.91,-648.56 707.9,-649.98 709.69,-645.16 703.98,-651.82"/>
<ellipse fill="none" stroke="black" cx="699.52" cy="-653.91" rx="3.2" ry="3.2"/>
</g>
<!-- res_users&#45;&gt;crm_team -->
<g id="edge22" class="edge">
<title>res_users:w&#45;&gt;crm_team:e</title>
<path fill="none" stroke="black" d="M232.07,-336.06C178.71,-359.33 280.02,-520.28 200.52,-520.28"/>
<polygon fill="black" stroke="black" points="239.32,-334.76 247.83,-336.88 243.58,-333.99 246.86,-333.39 246.86,-333.39 246.86,-333.39 243.58,-333.99 246.55,-329.79 239.32,-334.76"/>
<ellipse fill="none" stroke="black" cx="234.48" cy="-335.63" rx="3.2" ry="3.2"/>
</g>
<!-- crm_stage&#45;&gt;res_users -->
<g id="edge13" class="edge">
<title>crm_stage:w&#45;&gt;res_users:e</title>
<path fill="none" stroke="black" d="M431.91,-781.1C384.38,-736.44 468.75,-443.28 397.52,-443.28"/>
<polygon fill="black" stroke="black" points="438.75,-783.76 444.9,-790.01 442.79,-785.33 445.9,-786.53 445.9,-786.53 445.9,-786.53 442.79,-785.33 447.51,-783.3 438.75,-783.76"/>
<ellipse fill="none" stroke="black" cx="434.17" cy="-781.98" rx="3.2" ry="3.2"/>
</g>
<!-- crm_stage&#45;&gt;res_users -->
<g id="edge15" class="edge">
<title>crm_stage:w&#45;&gt;res_users:e</title>
<path fill="none" stroke="black" d="M431.94,-758.64C388.8,-714.19 463.86,-443.28 397.52,-443.28"/>
<polygon fill="black" stroke="black" points="438.84,-761.54 444.82,-767.96 442.83,-763.22 445.9,-764.52 445.9,-764.52 445.9,-764.52 442.83,-763.22 447.61,-761.33 438.84,-761.54"/>
<ellipse fill="none" stroke="black" cx="434.3" cy="-759.64" rx="3.2" ry="3.2"/>
</g>
<!-- crm_stage&#45;&gt;crm_team -->
<g id="edge14" class="edge">
<title>crm_stage:w&#45;&gt;crm_team:e</title>
<path fill="none" stroke="black" d="M431.02,-807.9C283.61,-790.48 363.6,-520.28 200.52,-520.28"/>
<polygon fill="black" stroke="black" points="438.2,-808.3 445.98,-812.35 442.53,-808.55 445.85,-808.74 445.85,-808.74 445.85,-808.74 442.53,-808.55 446.39,-805.16 438.2,-808.3"/>
<ellipse fill="none" stroke="black" cx="433.29" cy="-808.03" rx="3.2" ry="3.2"/>
</g>
<!-- crm_team&#45;&gt;res_users -->
<g id="edge19" class="edge">
<title>crm_team:w&#45;&gt;res_users:e</title>
<path fill="none" stroke="black" d="M6.79,-448.97C-7.17,-435.2 3.43,-398.12 22.52,-379.28 81.05,-321.52 141.03,-330.91 207.52,-379.28 246.05,-407.31 201.99,-453.25 240.52,-481.28 296.59,-522.06 346.85,-529.65 396.52,-481.28 408.62,-469.49 414.41,-443.28 397.52,-443.28"/>
<polygon fill="black" stroke="black" points="13.68,-451.45 19.99,-457.55 17.76,-452.92 20.89,-454.05 20.89,-454.05 20.89,-454.05 17.76,-452.92 22.43,-450.78 13.68,-451.45"/>
<ellipse fill="none" stroke="black" cx="9.05" cy="-449.78" rx="3.2" ry="3.2"/>
</g>
<!-- crm_team&#45;&gt;res_users -->
<g id="edge20" class="edge">
<title>crm_team:w&#45;&gt;res_users:e</title>
<path fill="none" stroke="black" d="M11.85,-488.57C7.09,-509.06 13,-548.87 22.52,-558.28 81.01,-616.06 126.83,-574.08 207.52,-558.28 414.84,-517.67 439.02,-443.28 397.52,-443.28"/>
<polygon fill="black" stroke="black" points="16.37,-482.83 24.14,-478.77 19.05,-479.42 21.11,-476.8 21.11,-476.8 21.11,-476.8 19.05,-479.42 18.48,-474.31 16.37,-482.83"/>
<ellipse fill="none" stroke="black" cx="13.32" cy="-486.69" rx="3.2" ry="3.2"/>
</g>
<!-- crm_team&#45;&gt;res_users -->
<g id="edge21" class="edge">
<title>crm_team:w&#45;&gt;res_users:e</title>
<path fill="none" stroke="black" d="M11.08,-420.56C2.63,-381.84 52.83,-266.74 207.52,-379.28 246.05,-407.31 201.99,-453.25 240.52,-481.28 296.59,-522.06 346.85,-529.65 396.52,-481.28 408.62,-469.49 414.41,-443.28 397.52,-443.28"/>
<polygon fill="black" stroke="black" points="15.98,-426.05 18.61,-434.42 18.86,-429.29 21.08,-431.78 21.08,-431.78 21.08,-431.78 18.86,-429.29 23.99,-429.63 15.98,-426.05"/>
<ellipse fill="none" stroke="black" cx="12.71" cy="-422.38" rx="3.2" ry="3.2"/>
</g>
<!-- crm_lead_requirement -->
<g id="node5" class="node">
<title>crm_lead_requirement</title>
<g id="a_node5"><a xlink:href="../../tables/crm_lead_requirement.html" xlink:title="crm_lead_requirement" target="_top">
<polygon fill="#ffffff" stroke="none" points="1006.52,-309.28 1006.52,-480.28 1180.52,-480.28 1180.52,-309.28 1006.52,-309.28"/>
<polygon fill="#f5f5f5" stroke="none" points="1006.52,-457.28 1006.52,-480.28 1180.52,-480.28 1180.52,-457.28 1006.52,-457.28"/>
<polygon fill="none" stroke="black" points="1006.52,-457.28 1006.52,-480.28 1180.52,-480.28 1180.52,-457.28 1006.52,-457.28"/>
<text text-anchor="start" x="1011.52" y="-465.08" font-family="Helvetica,sans-Serif" font-weight="bold" font-size="11.00">crm_lead_requirement</text>
<text text-anchor="start" x="1146.52" y="-464.83" font-family="Helvetica,sans-Serif" font-size="11.00">[table]</text>
<polygon fill="none" stroke="black" points="1006.52,-435.28 1006.52,-457.28 1180.52,-457.28 1180.52,-435.28 1006.52,-435.28"/>
<image xlink:href="../../images/primaryKeys.png" width="11px" height="12px" preserveAspectRatio="xMinYMin meet" x="1011.52" y="-452.276"/>
<text text-anchor="start" x="1035.52" y="-441.83" font-family="Helvetica,sans-Serif" font-size="11.00">id</text>
<polygon fill="none" stroke="black" points="1006.52,-413.28 1006.52,-435.28 1180.52,-435.28 1180.52,-413.28 1006.52,-413.28"/>
<image xlink:href="../../images/foreignKeys.png" width="11px" height="12px" preserveAspectRatio="xMinYMin meet" x="1011.52" y="-430.276"/>
<text text-anchor="start" x="1035.52" y="-419.83" font-family="Helvetica,sans-Serif" font-size="11.00">stage_id</text>
<polygon fill="none" stroke="black" points="1006.52,-391.28 1006.52,-413.28 1180.52,-413.28 1180.52,-391.28 1006.52,-391.28"/>
<image xlink:href="../../images/foreignKeys.png" width="11px" height="12px" preserveAspectRatio="xMinYMin meet" x="1011.52" y="-408.276"/>
<text text-anchor="start" x="1035.52" y="-397.83" font-family="Helvetica,sans-Serif" font-size="11.00">lead_id</text>
<polygon fill="none" stroke="black" points="1006.52,-369.28 1006.52,-391.28 1180.52,-391.28 1180.52,-369.28 1006.52,-369.28"/>
<image xlink:href="../../images/foreignKeys.png" width="11px" height="12px" preserveAspectRatio="xMinYMin meet" x="1011.52" y="-386.276"/>
<text text-anchor="start" x="1035.52" y="-375.83" font-family="Helvetica,sans-Serif" font-size="11.00">create_uid</text>
<polygon fill="none" stroke="black" points="1006.52,-347.28 1006.52,-369.28 1180.52,-369.28 1180.52,-347.28 1006.52,-347.28"/>
<image xlink:href="../../images/foreignKeys.png" width="11px" height="12px" preserveAspectRatio="xMinYMin meet" x="1011.52" y="-364.276"/>
<text text-anchor="start" x="1035.52" y="-353.83" font-family="Helvetica,sans-Serif" font-size="11.00">write_uid</text>
<polygon fill="none" stroke="black" points="1006.52,-328.28 1006.52,-347.28 1180.52,-347.28 1180.52,-328.28 1006.52,-328.28"/>
<text text-anchor="start" x="1009.52" y="-333.83" font-family="Helvetica,sans-Serif" font-size="11.00">...</text>
<polygon fill="#ffffff" stroke="none" points="1006.52,-309.28 1006.52,-328.28 1091.52,-328.28 1091.52,-309.28 1006.52,-309.28"/>
<polygon fill="none" stroke="black" points="1006.52,-309.28 1006.52,-328.28 1091.52,-328.28 1091.52,-309.28 1006.52,-309.28"/>
<text text-anchor="start" x="1009.52" y="-314.83" font-family="Helvetica,sans-Serif" font-size="11.00">&lt; 4</text>
<polygon fill="#ffffff" stroke="none" points="1091.52,-309.28 1091.52,-328.28 1135.52,-328.28 1135.52,-309.28 1091.52,-309.28"/>
<polygon fill="none" stroke="black" points="1091.52,-309.28 1091.52,-328.28 1135.52,-328.28 1135.52,-309.28 1091.52,-309.28"/>
<text text-anchor="start" x="1126.52" y="-314.83" font-family="Helvetica,sans-Serif" font-size="11.00"> &#160;</text>
<polygon fill="#ffffff" stroke="none" points="1135.52,-309.28 1135.52,-328.28 1180.52,-328.28 1180.52,-309.28 1135.52,-309.28"/>
<polygon fill="none" stroke="black" points="1135.52,-309.28 1135.52,-328.28 1180.52,-328.28 1180.52,-309.28 1135.52,-309.28"/>
<text text-anchor="start" x="1171.52" y="-314.83" font-family="Helvetica,sans-Serif" font-size="11.00"> &#160;</text>
</a>
</g>
</g>
<!-- crm_lead_requirement&#45;&gt;crm_lead -->
<g id="edge10" class="edge">
<title>crm_lead_requirement:w&#45;&gt;crm_lead:e</title>
<path fill="none" stroke="black" d="M989.95,-403.98C893.49,-427.75 1083.23,-692.28 958.52,-692.28"/>
<polygon fill="black" stroke="black" points="997.24,-403.18 1005.58,-405.89 1001.54,-402.71 1004.86,-402.35 1004.86,-402.35 1004.86,-402.35 1001.54,-402.71 1004.8,-398.73 997.24,-403.18"/>
<ellipse fill="none" stroke="black" cx="992.35" cy="-403.72" rx="3.2" ry="3.2"/>
</g>
<!-- crm_lead_requirement&#45;&gt;res_users -->
<g id="edge9" class="edge">
<title>crm_lead_requirement:w&#45;&gt;res_users:e</title>
<path fill="none" stroke="black" d="M991.36,-374.43C955.51,-337.92 1007.92,-141.46 965.52,-104.78 921.66,-66.82 761.92,-96.46 704.52,-104.78 582.05,-122.51 518.94,-90.58 437.52,-183.78 399.13,-227.72 455.87,-443.28 397.52,-443.28"/>
<polygon fill="black" stroke="black" points="997.82,-377.1 1003.84,-383.48 1001.82,-378.75 1004.9,-380.02 1004.9,-380.02 1004.9,-380.02 1001.82,-378.75 1006.58,-376.82 997.82,-377.1"/>
<ellipse fill="none" stroke="black" cx="993.27" cy="-375.22" rx="3.2" ry="3.2"/>
</g>
<!-- crm_lead_requirement&#45;&gt;res_users -->
<g id="edge12" class="edge">
<title>crm_lead_requirement:w&#45;&gt;res_users:e</title>
<path fill="none" stroke="black" d="M991.41,-352.45C955.67,-316.07 1007.78,-120.32 965.52,-83.78 876.69,-6.95 521.9,-25.09 437.52,-106.78 383.42,-159.15 472.82,-443.28 397.52,-443.28"/>
<polygon fill="black" stroke="black" points="997.82,-355.1 1003.84,-361.48 1001.82,-356.75 1004.9,-358.02 1004.9,-358.02 1004.9,-358.02 1001.82,-356.75 1006.58,-354.82 997.82,-355.1"/>
<ellipse fill="none" stroke="black" cx="993.27" cy="-353.22" rx="3.2" ry="3.2"/>
</g>
<!-- crm_lead_requirement&#45;&gt;crm_stage -->
<g id="edge11" class="edge">
<title>crm_lead_requirement:w&#45;&gt;crm_stage:e</title>
<path fill="none" stroke="black" d="M993.41,-434.04C958.45,-501.27 1003.27,-893.9 965.52,-928.78 880.32,-1007.49 804.43,-987.71 704.52,-928.78 671.28,-909.17 701.11,-852.78 662.52,-852.78"/>
<polygon fill="black" stroke="black" points="999.03,-429.51 1007.52,-427.29 1002.41,-426.79 1005,-424.7 1005,-424.7 1005,-424.7 1002.41,-426.79 1003,-421.68 999.03,-429.51"/>
<ellipse fill="none" stroke="black" cx="995.2" cy="-432.59" rx="3.2" ry="3.2"/>
</g>
<!-- crm_stage_requirement -->
<g id="node6" class="node">
<title>crm_stage_requirement</title>
<g id="a_node6"><a xlink:href="../../tables/crm_stage_requirement.html" xlink:title="crm_stage_requirement" target="_top">
<polygon fill="#ffffff" stroke="none" points="744.52,-747.28 744.52,-918.28 925.52,-918.28 925.52,-747.28 744.52,-747.28"/>
<polygon fill="#f5f5f5" stroke="none" points="744.52,-895.28 744.52,-918.28 925.52,-918.28 925.52,-895.28 744.52,-895.28"/>
<polygon fill="none" stroke="black" points="744.52,-895.28 744.52,-918.28 925.52,-918.28 925.52,-895.28 744.52,-895.28"/>
<text text-anchor="start" x="749.52" y="-903.08" font-family="Helvetica,sans-Serif" font-weight="bold" font-size="11.00">crm_stage_requirement</text>
<text text-anchor="start" x="891.52" y="-902.83" font-family="Helvetica,sans-Serif" font-size="11.00">[table]</text>
<polygon fill="none" stroke="black" points="744.52,-873.28 744.52,-895.28 925.52,-895.28 925.52,-873.28 744.52,-873.28"/>
<image xlink:href="../../images/primaryKeys.png" width="11px" height="12px" preserveAspectRatio="xMinYMin meet" x="749.52" y="-890.276"/>
<text text-anchor="start" x="773.52" y="-879.83" font-family="Helvetica,sans-Serif" font-size="11.00">id</text>
<polygon fill="#ffffff" stroke="none" points="744.52,-851.28 744.52,-873.28 925.52,-873.28 925.52,-851.28 744.52,-851.28"/>
<polygon fill="none" stroke="black" points="744.52,-851.28 744.52,-873.28 925.52,-873.28 925.52,-851.28 744.52,-851.28"/>
<image xlink:href="../../images/foreignKeys.png" width="11px" height="12px" preserveAspectRatio="xMinYMin meet" x="749.52" y="-868.276"/>
<text text-anchor="start" x="773.52" y="-857.83" font-family="Helvetica,sans-Serif" font-size="11.00">stage_id</text>
<polygon fill="none" stroke="black" points="744.52,-829.28 744.52,-851.28 925.52,-851.28 925.52,-829.28 744.52,-829.28"/>
<image xlink:href="../../images/foreignKeys.png" width="11px" height="12px" preserveAspectRatio="xMinYMin meet" x="749.52" y="-846.276"/>
<text text-anchor="start" x="773.52" y="-835.83" font-family="Helvetica,sans-Serif" font-size="11.00">create_uid</text>
<polygon fill="none" stroke="black" points="744.52,-807.28 744.52,-829.28 925.52,-829.28 925.52,-807.28 744.52,-807.28"/>
<image xlink:href="../../images/foreignKeys.png" width="11px" height="12px" preserveAspectRatio="xMinYMin meet" x="749.52" y="-824.276"/>
<text text-anchor="start" x="773.52" y="-813.83" font-family="Helvetica,sans-Serif" font-size="11.00">write_uid</text>
<polygon fill="#ffffff" stroke="none" points="744.52,-785.28 744.52,-807.28 925.52,-807.28 925.52,-785.28 744.52,-785.28"/>
<polygon fill="none" stroke="black" points="744.52,-785.28 744.52,-807.28 925.52,-807.28 925.52,-785.28 744.52,-785.28"/>
<text text-anchor="start" x="773.52" y="-791.83" font-family="Helvetica,sans-Serif" font-size="11.00">name</text>
<polygon fill="none" stroke="black" points="744.52,-766.28 744.52,-785.28 925.52,-785.28 925.52,-766.28 744.52,-766.28"/>
<text text-anchor="start" x="747.52" y="-771.83" font-family="Helvetica,sans-Serif" font-size="11.00">...</text>
<polygon fill="#ffffff" stroke="none" points="744.52,-747.28 744.52,-766.28 833.52,-766.28 833.52,-747.28 744.52,-747.28"/>
<polygon fill="none" stroke="black" points="744.52,-747.28 744.52,-766.28 833.52,-766.28 833.52,-747.28 744.52,-747.28"/>
<text text-anchor="start" x="747.52" y="-752.83" font-family="Helvetica,sans-Serif" font-size="11.00">&lt; 3</text>
<polygon fill="#ffffff" stroke="none" points="833.52,-747.28 833.52,-766.28 879.52,-766.28 879.52,-747.28 833.52,-747.28"/>
<polygon fill="none" stroke="black" points="833.52,-747.28 833.52,-766.28 879.52,-766.28 879.52,-747.28 833.52,-747.28"/>
<text text-anchor="start" x="870.52" y="-752.83" font-family="Helvetica,sans-Serif" font-size="11.00"> &#160;</text>
<polygon fill="#ffffff" stroke="none" points="879.52,-747.28 879.52,-766.28 925.52,-766.28 925.52,-747.28 879.52,-747.28"/>
<polygon fill="none" stroke="black" points="879.52,-747.28 879.52,-766.28 925.52,-766.28 925.52,-747.28 879.52,-747.28"/>
<text text-anchor="start" x="916.52" y="-752.83" font-family="Helvetica,sans-Serif" font-size="11.00"> &#160;</text>
</a>
</g>
</g>
<!-- crm_stage_requirement&#45;&gt;res_users -->
<g id="edge16" class="edge">
<title>crm_stage_requirement:w&#45;&gt;res_users:e</title>
<path fill="none" stroke="black" d="M728.24,-837.78C699.48,-826.42 715.47,-778.37 704.52,-736.78 692.38,-690.67 705.61,-558.1 671.52,-524.78 596.5,-451.44 528.75,-545.57 437.52,-493.78 412.62,-479.64 426.15,-443.28 397.52,-443.28"/>
<polygon fill="black" stroke="black" points="735.29,-838.93 742.61,-843.77 739.57,-839.63 742.86,-840.17 742.86,-840.17 742.86,-840.17 739.57,-839.63 743.77,-836.67 735.29,-838.93"/>
<ellipse fill="none" stroke="black" cx="730.44" cy="-838.14" rx="3.2" ry="3.2"/>
</g>
<!-- crm_stage_requirement&#45;&gt;res_users -->
<g id="edge18" class="edge">
<title>crm_stage_requirement:w&#45;&gt;res_users:e</title>
<path fill="none" stroke="black" d="M728.27,-815.31C706.73,-804.94 714.24,-769.23 704.52,-736.78 688.95,-684.78 710.29,-532.76 671.52,-494.78 634.13,-458.15 487,-484.85 437.52,-467.78 417.81,-460.98 418.37,-443.28 397.52,-443.28"/>
<polygon fill="black" stroke="black" points="735.34,-816.68 742.5,-821.75 739.59,-817.51 742.86,-818.15 742.86,-818.15 742.86,-818.15 739.59,-817.51 743.88,-814.68 735.34,-816.68"/>
<ellipse fill="none" stroke="black" cx="730.51" cy="-815.74" rx="3.2" ry="3.2"/>
</g>
<!-- crm_stage_requirement&#45;&gt;crm_stage -->
<g id="edge17" class="edge">
<title>crm_stage_requirement:w&#45;&gt;crm_stage:e</title>
<path fill="none" stroke="black" d="M728.01,-861.62C703.84,-859.48 692.96,-852.78 662.52,-852.78"/>
<polygon fill="black" stroke="black" points="735.19,-861.93 743.03,-865.86 739.52,-862.11 742.85,-862.25 742.85,-862.25 742.85,-862.25 739.52,-862.11 743.34,-858.67 735.19,-861.93"/>
<ellipse fill="none" stroke="black" cx="730.28" cy="-861.72" rx="3.2" ry="3.2"/>
</g>
</g>
</svg>
