<?xml version="1.0" encoding="UTF-8" standalone="no"?>
<!DOCTYPE svg PUBLIC "-//W3C//DTD SVG 1.1//EN"
 "http://www.w3.org/Graphics/SVG/1.1/DTD/svg11.dtd">
<!-- Generated by graphviz version 12.0.0 (0)
 -->
<!-- Title: oneDegreeRelationshipsDiagram Pages: 1 -->
<svg width="1306pt" height="1833pt"
 viewBox="0.00 0.00 1305.75 1832.58" xmlns="http://www.w3.org/2000/svg" xmlns:xlink="http://www.w3.org/1999/xlink">
<g id="graph0" class="graph" transform="scale(1 1) rotate(0) translate(4 1828.58)">
<title>oneDegreeRelationshipsDiagram</title>
<polygon fill="#ffffff" stroke="none" points="-4,4 -4,-1828.58 1301.75,-1828.58 1301.75,4 -4,4"/>
<text text-anchor="middle" x="71.38" y="-7.05" font-family="Helvetica,sans-Serif" font-size="11.00">Generated by SchemaSpy</text>
<!-- account_move -->
<g id="node1" class="node">
<title>account_move</title>
<g id="a_node1"><a xlink:href="../../tables/account_move.html" xlink:title="account_move" target="_top">
<polygon fill="#ffffff" stroke="none" points="804.75,-978.7 804.75,-1765.7 1035.75,-1765.7 1035.75,-978.7 804.75,-978.7"/>
<polygon fill="#f5f5f5" stroke="none" points="804.75,-1742.7 804.75,-1765.7 1035.75,-1765.7 1035.75,-1742.7 804.75,-1742.7"/>
<polygon fill="none" stroke="black" points="804.75,-1742.7 804.75,-1765.7 1035.75,-1765.7 1035.75,-1742.7 804.75,-1742.7"/>
<text text-anchor="start" x="809.75" y="-1750.5" font-family="Helvetica,sans-Serif" font-weight="bold" font-size="11.00">account_move</text>
<text text-anchor="start" x="1001.5" y="-1750.25" font-family="Helvetica,sans-Serif" font-size="11.00">[table]</text>
<polygon fill="none" stroke="black" points="804.75,-1720.7 804.75,-1742.7 1035.75,-1742.7 1035.75,-1720.7 804.75,-1720.7"/>
<image xlink:href="../../images/primaryKeys.png" width="11px" height="12px" preserveAspectRatio="xMinYMin meet" x="809.749" y="-1737.7"/>
<text text-anchor="start" x="824.75" y="-1727.25" font-family="Helvetica,sans-Serif" font-size="11.00">id</text>
<polygon fill="#ffffff" stroke="none" points="804.75,-1698.7 804.75,-1720.7 1035.75,-1720.7 1035.75,-1698.7 804.75,-1698.7"/>
<polygon fill="none" stroke="black" points="804.75,-1698.7 804.75,-1720.7 1035.75,-1720.7 1035.75,-1698.7 804.75,-1698.7"/>
<text text-anchor="start" x="824.75" y="-1705.25" font-family="Helvetica,sans-Serif" font-size="11.00">sequence_number</text>
<polygon fill="#ffffff" stroke="none" points="804.75,-1676.7 804.75,-1698.7 1035.75,-1698.7 1035.75,-1676.7 804.75,-1676.7"/>
<polygon fill="none" stroke="black" points="804.75,-1676.7 804.75,-1698.7 1035.75,-1698.7 1035.75,-1676.7 804.75,-1676.7"/>
<image xlink:href="../../images/foreignKeys.png" width="11px" height="12px" preserveAspectRatio="xMinYMin meet" x="809.749" y="-1693.7"/>
<text text-anchor="start" x="824.75" y="-1683.25" font-family="Helvetica,sans-Serif" font-size="11.00">journal_id</text>
<polygon fill="#ffffff" stroke="none" points="804.75,-1654.7 804.75,-1676.7 1035.75,-1676.7 1035.75,-1654.7 804.75,-1654.7"/>
<polygon fill="none" stroke="black" points="804.75,-1654.7 804.75,-1676.7 1035.75,-1676.7 1035.75,-1654.7 804.75,-1654.7"/>
<text text-anchor="start" x="824.75" y="-1661.25" font-family="Helvetica,sans-Serif" font-size="11.00">company_id</text>
<polygon fill="#ffffff" stroke="none" points="804.75,-1632.7 804.75,-1654.7 1035.75,-1654.7 1035.75,-1632.7 804.75,-1632.7"/>
<polygon fill="none" stroke="black" points="804.75,-1632.7 804.75,-1654.7 1035.75,-1654.7 1035.75,-1632.7 804.75,-1632.7"/>
<image xlink:href="../../images/foreignKeys.png" width="11px" height="12px" preserveAspectRatio="xMinYMin meet" x="809.749" y="-1649.7"/>
<text text-anchor="start" x="824.75" y="-1639.25" font-family="Helvetica,sans-Serif" font-size="11.00">payment_id</text>
<polygon fill="#ffffff" stroke="none" points="804.75,-1610.7 804.75,-1632.7 1035.75,-1632.7 1035.75,-1610.7 804.75,-1610.7"/>
<polygon fill="none" stroke="black" points="804.75,-1610.7 804.75,-1632.7 1035.75,-1632.7 1035.75,-1610.7 804.75,-1610.7"/>
<text text-anchor="start" x="824.75" y="-1617.25" font-family="Helvetica,sans-Serif" font-size="11.00">statement_line_id</text>
<polygon fill="#ffffff" stroke="none" points="804.75,-1588.7 804.75,-1610.7 1035.75,-1610.7 1035.75,-1588.7 804.75,-1588.7"/>
<polygon fill="none" stroke="black" points="804.75,-1588.7 804.75,-1610.7 1035.75,-1610.7 1035.75,-1588.7 804.75,-1588.7"/>
<text text-anchor="start" x="824.75" y="-1595.25" font-family="Helvetica,sans-Serif" font-size="11.00">tax_cash_basis_rec_id</text>
<polygon fill="#ffffff" stroke="none" points="804.75,-1566.7 804.75,-1588.7 1035.75,-1588.7 1035.75,-1566.7 804.75,-1566.7"/>
<polygon fill="none" stroke="black" points="804.75,-1566.7 804.75,-1588.7 1035.75,-1588.7 1035.75,-1566.7 804.75,-1566.7"/>
<image xlink:href="../../images/foreignKeys.png" width="11px" height="12px" preserveAspectRatio="xMinYMin meet" x="809.749" y="-1583.7"/>
<text text-anchor="start" x="824.75" y="-1573.25" font-family="Helvetica,sans-Serif" font-size="11.00">tax_cash_basis_origin_move_id</text>
<polygon fill="#ffffff" stroke="none" points="804.75,-1544.7 804.75,-1566.7 1035.75,-1566.7 1035.75,-1544.7 804.75,-1544.7"/>
<polygon fill="none" stroke="black" points="804.75,-1544.7 804.75,-1566.7 1035.75,-1566.7 1035.75,-1544.7 804.75,-1544.7"/>
<image xlink:href="../../images/foreignKeys.png" width="11px" height="12px" preserveAspectRatio="xMinYMin meet" x="809.749" y="-1561.7"/>
<text text-anchor="start" x="824.75" y="-1551.25" font-family="Helvetica,sans-Serif" font-size="11.00">auto_post_origin_id</text>
<polygon fill="#ffffff" stroke="none" points="804.75,-1522.7 804.75,-1544.7 1035.75,-1544.7 1035.75,-1522.7 804.75,-1522.7"/>
<polygon fill="none" stroke="black" points="804.75,-1522.7 804.75,-1544.7 1035.75,-1544.7 1035.75,-1522.7 804.75,-1522.7"/>
<text text-anchor="start" x="824.75" y="-1529.25" font-family="Helvetica,sans-Serif" font-size="11.00">secure_sequence_number</text>
<polygon fill="#ffffff" stroke="none" points="804.75,-1500.7 804.75,-1522.7 1035.75,-1522.7 1035.75,-1500.7 804.75,-1500.7"/>
<polygon fill="none" stroke="black" points="804.75,-1500.7 804.75,-1522.7 1035.75,-1522.7 1035.75,-1500.7 804.75,-1500.7"/>
<image xlink:href="../../images/foreignKeys.png" width="11px" height="12px" preserveAspectRatio="xMinYMin meet" x="809.749" y="-1517.7"/>
<text text-anchor="start" x="824.75" y="-1507.25" font-family="Helvetica,sans-Serif" font-size="11.00">partner_id</text>
<polygon fill="none" stroke="black" points="804.75,-1478.7 804.75,-1500.7 1035.75,-1500.7 1035.75,-1478.7 804.75,-1478.7"/>
<image xlink:href="../../images/foreignKeys.png" width="11px" height="12px" preserveAspectRatio="xMinYMin meet" x="809.749" y="-1495.7"/>
<text text-anchor="start" x="824.75" y="-1485.25" font-family="Helvetica,sans-Serif" font-size="11.00">commercial_partner_id</text>
<polygon fill="none" stroke="black" points="804.75,-1456.7 804.75,-1478.7 1035.75,-1478.7 1035.75,-1456.7 804.75,-1456.7"/>
<image xlink:href="../../images/foreignKeys.png" width="11px" height="12px" preserveAspectRatio="xMinYMin meet" x="809.749" y="-1473.7"/>
<text text-anchor="start" x="824.75" y="-1463.25" font-family="Helvetica,sans-Serif" font-size="11.00">partner_shipping_id</text>
<polygon fill="none" stroke="black" points="804.75,-1434.7 804.75,-1456.7 1035.75,-1456.7 1035.75,-1434.7 804.75,-1434.7"/>
<image xlink:href="../../images/foreignKeys.png" width="11px" height="12px" preserveAspectRatio="xMinYMin meet" x="809.749" y="-1451.7"/>
<text text-anchor="start" x="824.75" y="-1441.25" font-family="Helvetica,sans-Serif" font-size="11.00">fiscal_position_id</text>
<polygon fill="#ffffff" stroke="none" points="804.75,-1412.7 804.75,-1434.7 1035.75,-1434.7 1035.75,-1412.7 804.75,-1412.7"/>
<polygon fill="none" stroke="black" points="804.75,-1412.7 804.75,-1434.7 1035.75,-1434.7 1035.75,-1412.7 804.75,-1412.7"/>
<image xlink:href="../../images/foreignKeys.png" width="11px" height="12px" preserveAspectRatio="xMinYMin meet" x="809.749" y="-1429.7"/>
<text text-anchor="start" x="824.75" y="-1419.25" font-family="Helvetica,sans-Serif" font-size="11.00">reversed_entry_id</text>
<polygon fill="none" stroke="black" points="804.75,-1390.7 804.75,-1412.7 1035.75,-1412.7 1035.75,-1390.7 804.75,-1390.7"/>
<image xlink:href="../../images/foreignKeys.png" width="11px" height="12px" preserveAspectRatio="xMinYMin meet" x="809.749" y="-1407.7"/>
<text text-anchor="start" x="824.75" y="-1397.25" font-family="Helvetica,sans-Serif" font-size="11.00">invoice_user_id</text>
<polygon fill="none" stroke="black" points="804.75,-1368.7 804.75,-1390.7 1035.75,-1390.7 1035.75,-1368.7 804.75,-1368.7"/>
<image xlink:href="../../images/foreignKeys.png" width="11px" height="12px" preserveAspectRatio="xMinYMin meet" x="809.749" y="-1385.7"/>
<text text-anchor="start" x="824.75" y="-1375.25" font-family="Helvetica,sans-Serif" font-size="11.00">create_uid</text>
<polygon fill="none" stroke="black" points="804.75,-1346.7 804.75,-1368.7 1035.75,-1368.7 1035.75,-1346.7 804.75,-1346.7"/>
<image xlink:href="../../images/foreignKeys.png" width="11px" height="12px" preserveAspectRatio="xMinYMin meet" x="809.749" y="-1363.7"/>
<text text-anchor="start" x="824.75" y="-1353.25" font-family="Helvetica,sans-Serif" font-size="11.00">write_uid</text>
<polygon fill="#ffffff" stroke="none" points="804.75,-1324.7 804.75,-1346.7 1035.75,-1346.7 1035.75,-1324.7 804.75,-1324.7"/>
<polygon fill="none" stroke="black" points="804.75,-1324.7 804.75,-1346.7 1035.75,-1346.7 1035.75,-1324.7 804.75,-1324.7"/>
<text text-anchor="start" x="824.75" y="-1331.25" font-family="Helvetica,sans-Serif" font-size="11.00">sequence_prefix</text>
<polygon fill="#ffffff" stroke="none" points="804.75,-1302.7 804.75,-1324.7 1035.75,-1324.7 1035.75,-1302.7 804.75,-1302.7"/>
<polygon fill="none" stroke="black" points="804.75,-1302.7 804.75,-1324.7 1035.75,-1324.7 1035.75,-1302.7 804.75,-1302.7"/>
<text text-anchor="start" x="824.75" y="-1309.25" font-family="Helvetica,sans-Serif" font-size="11.00">name</text>
<polygon fill="#ffffff" stroke="none" points="804.75,-1280.7 804.75,-1302.7 1035.75,-1302.7 1035.75,-1280.7 804.75,-1280.7"/>
<polygon fill="none" stroke="black" points="804.75,-1280.7 804.75,-1302.7 1035.75,-1302.7 1035.75,-1280.7 804.75,-1280.7"/>
<text text-anchor="start" x="824.75" y="-1287.25" font-family="Helvetica,sans-Serif" font-size="11.00">ref</text>
<polygon fill="#ffffff" stroke="none" points="804.75,-1258.7 804.75,-1280.7 1035.75,-1280.7 1035.75,-1258.7 804.75,-1258.7"/>
<polygon fill="none" stroke="black" points="804.75,-1258.7 804.75,-1280.7 1035.75,-1280.7 1035.75,-1258.7 804.75,-1258.7"/>
<text text-anchor="start" x="824.75" y="-1265.25" font-family="Helvetica,sans-Serif" font-size="11.00">state</text>
<polygon fill="#ffffff" stroke="none" points="804.75,-1236.7 804.75,-1258.7 1035.75,-1258.7 1035.75,-1236.7 804.75,-1236.7"/>
<polygon fill="none" stroke="black" points="804.75,-1236.7 804.75,-1258.7 1035.75,-1258.7 1035.75,-1236.7 804.75,-1236.7"/>
<text text-anchor="start" x="824.75" y="-1243.25" font-family="Helvetica,sans-Serif" font-size="11.00">move_type</text>
<polygon fill="#ffffff" stroke="none" points="804.75,-1214.7 804.75,-1236.7 1035.75,-1236.7 1035.75,-1214.7 804.75,-1214.7"/>
<polygon fill="none" stroke="black" points="804.75,-1214.7 804.75,-1236.7 1035.75,-1236.7 1035.75,-1214.7 804.75,-1214.7"/>
<text text-anchor="start" x="824.75" y="-1221.25" font-family="Helvetica,sans-Serif" font-size="11.00">payment_reference</text>
<polygon fill="#ffffff" stroke="none" points="804.75,-1192.7 804.75,-1214.7 1035.75,-1214.7 1035.75,-1192.7 804.75,-1192.7"/>
<polygon fill="none" stroke="black" points="804.75,-1192.7 804.75,-1214.7 1035.75,-1214.7 1035.75,-1192.7 804.75,-1192.7"/>
<text text-anchor="start" x="824.75" y="-1199.25" font-family="Helvetica,sans-Serif" font-size="11.00">payment_state</text>
<polygon fill="#ffffff" stroke="none" points="804.75,-1170.7 804.75,-1192.7 1035.75,-1192.7 1035.75,-1170.7 804.75,-1170.7"/>
<polygon fill="none" stroke="black" points="804.75,-1170.7 804.75,-1192.7 1035.75,-1192.7 1035.75,-1170.7 804.75,-1170.7"/>
<text text-anchor="start" x="824.75" y="-1177.25" font-family="Helvetica,sans-Serif" font-size="11.00">date</text>
<polygon fill="#ffffff" stroke="none" points="804.75,-1148.7 804.75,-1170.7 1035.75,-1170.7 1035.75,-1148.7 804.75,-1148.7"/>
<polygon fill="none" stroke="black" points="804.75,-1148.7 804.75,-1170.7 1035.75,-1170.7 1035.75,-1148.7 804.75,-1148.7"/>
<text text-anchor="start" x="824.75" y="-1155.25" font-family="Helvetica,sans-Serif" font-size="11.00">invoice_date</text>
<polygon fill="#ffffff" stroke="none" points="804.75,-1126.7 804.75,-1148.7 1035.75,-1148.7 1035.75,-1126.7 804.75,-1126.7"/>
<polygon fill="none" stroke="black" points="804.75,-1126.7 804.75,-1148.7 1035.75,-1148.7 1035.75,-1126.7 804.75,-1126.7"/>
<text text-anchor="start" x="824.75" y="-1133.25" font-family="Helvetica,sans-Serif" font-size="11.00">invoice_date_due</text>
<polygon fill="#ffffff" stroke="none" points="804.75,-1104.7 804.75,-1126.7 1035.75,-1126.7 1035.75,-1104.7 804.75,-1104.7"/>
<polygon fill="none" stroke="black" points="804.75,-1104.7 804.75,-1126.7 1035.75,-1126.7 1035.75,-1104.7 804.75,-1104.7"/>
<text text-anchor="start" x="824.75" y="-1111.25" font-family="Helvetica,sans-Serif" font-size="11.00">extract_attachment_id</text>
<polygon fill="none" stroke="black" points="804.75,-1082.7 804.75,-1104.7 1035.75,-1104.7 1035.75,-1082.7 804.75,-1082.7"/>
<image xlink:href="../../images/foreignKeys.png" width="11px" height="12px" preserveAspectRatio="xMinYMin meet" x="809.749" y="-1099.7"/>
<text text-anchor="start" x="824.75" y="-1089.25" font-family="Helvetica,sans-Serif" font-size="11.00">team_id</text>
<polygon fill="#ffffff" stroke="none" points="804.75,-1060.7 804.75,-1082.7 1035.75,-1082.7 1035.75,-1060.7 804.75,-1060.7"/>
<polygon fill="none" stroke="black" points="804.75,-1060.7 804.75,-1082.7 1035.75,-1082.7 1035.75,-1060.7 804.75,-1060.7"/>
<text text-anchor="start" x="824.75" y="-1067.25" font-family="Helvetica,sans-Serif" font-size="11.00">asset_id</text>
<polygon fill="#ffffff" stroke="none" points="804.75,-1038.7 804.75,-1060.7 1035.75,-1060.7 1035.75,-1038.7 804.75,-1038.7"/>
<polygon fill="none" stroke="black" points="804.75,-1038.7 804.75,-1060.7 1035.75,-1060.7 1035.75,-1038.7 804.75,-1038.7"/>
<text text-anchor="start" x="824.75" y="-1045.25" font-family="Helvetica,sans-Serif" font-size="11.00">suspense_statement_line_id</text>
<polygon fill="#ffffff" stroke="none" points="804.75,-1016.7 804.75,-1038.7 1035.75,-1038.7 1035.75,-1016.7 804.75,-1016.7"/>
<polygon fill="none" stroke="black" points="804.75,-1016.7 804.75,-1038.7 1035.75,-1038.7 1035.75,-1016.7 804.75,-1016.7"/>
<text text-anchor="start" x="824.75" y="-1023.25" font-family="Helvetica,sans-Serif" font-size="11.00">expense_sheet_id</text>
<polygon fill="none" stroke="black" points="804.75,-997.7 804.75,-1016.7 1035.75,-1016.7 1035.75,-997.7 804.75,-997.7"/>
<text text-anchor="start" x="807.75" y="-1003.25" font-family="Helvetica,sans-Serif" font-size="11.00">...</text>
<polygon fill="#ffffff" stroke="none" points="804.75,-978.7 804.75,-997.7 916.75,-997.7 916.75,-978.7 804.75,-978.7"/>
<polygon fill="none" stroke="black" points="804.75,-978.7 804.75,-997.7 916.75,-997.7 916.75,-978.7 804.75,-978.7"/>
<text text-anchor="start" x="807.75" y="-984.25" font-family="Helvetica,sans-Serif" font-size="11.00">&lt; 13</text>
<polygon fill="#ffffff" stroke="none" points="916.75,-978.7 916.75,-997.7 971.75,-997.7 971.75,-978.7 916.75,-978.7"/>
<polygon fill="none" stroke="black" points="916.75,-978.7 916.75,-997.7 971.75,-997.7 971.75,-978.7 916.75,-978.7"/>
<text text-anchor="start" x="962.75" y="-984.25" font-family="Helvetica,sans-Serif" font-size="11.00"> &#160;</text>
<polygon fill="#ffffff" stroke="none" points="971.75,-978.7 971.75,-997.7 1035.75,-997.7 1035.75,-978.7 971.75,-978.7"/>
<polygon fill="none" stroke="black" points="971.75,-978.7 971.75,-997.7 1035.75,-997.7 1035.75,-978.7 971.75,-978.7"/>
<text text-anchor="start" x="1017" y="-984.25" font-family="Helvetica,sans-Serif" font-size="11.00">5 &gt;</text>
</a>
</g>
</g>
<!-- res_partner -->
<g id="node2" class="node">
<title>res_partner</title>
<g id="a_node2"><a xlink:href="../../tables/res_partner.html" xlink:title="res_partner" target="_top">
<polygon fill="#ffffff" stroke="none" points="558.75,-725.7 558.75,-1160.7 748.75,-1160.7 748.75,-725.7 558.75,-725.7"/>
<polygon fill="#f5f5f5" stroke="none" points="558.75,-1137.7 558.75,-1160.7 748.75,-1160.7 748.75,-1137.7 558.75,-1137.7"/>
<polygon fill="none" stroke="black" points="558.75,-1137.7 558.75,-1160.7 748.75,-1160.7 748.75,-1137.7 558.75,-1137.7"/>
<text text-anchor="start" x="563.75" y="-1145.5" font-family="Helvetica,sans-Serif" font-weight="bold" font-size="11.00">res_partner</text>
<text text-anchor="start" x="714.5" y="-1145.25" font-family="Helvetica,sans-Serif" font-size="11.00">[table]</text>
<polygon fill="none" stroke="black" points="558.75,-1115.7 558.75,-1137.7 748.75,-1137.7 748.75,-1115.7 558.75,-1115.7"/>
<image xlink:href="../../images/primaryKeys.png" width="11px" height="12px" preserveAspectRatio="xMinYMin meet" x="563.749" y="-1132.7"/>
<text text-anchor="start" x="578.75" y="-1122.25" font-family="Helvetica,sans-Serif" font-size="11.00">id</text>
<polygon fill="#ffffff" stroke="none" points="558.75,-1093.7 558.75,-1115.7 748.75,-1115.7 748.75,-1093.7 558.75,-1093.7"/>
<polygon fill="none" stroke="black" points="558.75,-1093.7 558.75,-1115.7 748.75,-1115.7 748.75,-1093.7 558.75,-1093.7"/>
<text text-anchor="start" x="578.75" y="-1100.25" font-family="Helvetica,sans-Serif" font-size="11.00">company_id</text>
<polygon fill="#ffffff" stroke="none" points="558.75,-1071.7 558.75,-1093.7 748.75,-1093.7 748.75,-1071.7 558.75,-1071.7"/>
<polygon fill="none" stroke="black" points="558.75,-1071.7 558.75,-1093.7 748.75,-1093.7 748.75,-1071.7 558.75,-1071.7"/>
<text text-anchor="start" x="578.75" y="-1078.25" font-family="Helvetica,sans-Serif" font-size="11.00">name</text>
<polygon fill="#ffffff" stroke="none" points="558.75,-1049.7 558.75,-1071.7 748.75,-1071.7 748.75,-1049.7 558.75,-1049.7"/>
<polygon fill="none" stroke="black" points="558.75,-1049.7 558.75,-1071.7 748.75,-1071.7 748.75,-1049.7 558.75,-1049.7"/>
<image xlink:href="../../images/foreignKeys.png" width="11px" height="12px" preserveAspectRatio="xMinYMin meet" x="563.749" y="-1066.7"/>
<text text-anchor="start" x="578.75" y="-1056.25" font-family="Helvetica,sans-Serif" font-size="11.00">parent_id</text>
<polygon fill="none" stroke="black" points="558.75,-1027.7 558.75,-1049.7 748.75,-1049.7 748.75,-1027.7 558.75,-1027.7"/>
<image xlink:href="../../images/foreignKeys.png" width="11px" height="12px" preserveAspectRatio="xMinYMin meet" x="563.749" y="-1044.7"/>
<text text-anchor="start" x="578.75" y="-1034.25" font-family="Helvetica,sans-Serif" font-size="11.00">user_id</text>
<polygon fill="none" stroke="black" points="558.75,-1005.7 558.75,-1027.7 748.75,-1027.7 748.75,-1005.7 558.75,-1005.7"/>
<image xlink:href="../../images/foreignKeys.png" width="11px" height="12px" preserveAspectRatio="xMinYMin meet" x="563.749" y="-1022.7"/>
<text text-anchor="start" x="578.75" y="-1012.25" font-family="Helvetica,sans-Serif" font-size="11.00">country_id</text>
<polygon fill="#ffffff" stroke="none" points="558.75,-983.7 558.75,-1005.7 748.75,-1005.7 748.75,-983.7 558.75,-983.7"/>
<polygon fill="none" stroke="black" points="558.75,-983.7 558.75,-1005.7 748.75,-1005.7 748.75,-983.7 558.75,-983.7"/>
<image xlink:href="../../images/foreignKeys.png" width="11px" height="12px" preserveAspectRatio="xMinYMin meet" x="563.749" y="-1000.7"/>
<text text-anchor="start" x="578.75" y="-990.25" font-family="Helvetica,sans-Serif" font-size="11.00">commercial_partner_id</text>
<polygon fill="none" stroke="black" points="558.75,-961.7 558.75,-983.7 748.75,-983.7 748.75,-961.7 558.75,-961.7"/>
<image xlink:href="../../images/foreignKeys.png" width="11px" height="12px" preserveAspectRatio="xMinYMin meet" x="563.749" y="-978.704"/>
<text text-anchor="start" x="578.75" y="-968.25" font-family="Helvetica,sans-Serif" font-size="11.00">create_uid</text>
<polygon fill="none" stroke="black" points="558.75,-939.7 558.75,-961.7 748.75,-961.7 748.75,-939.7 558.75,-939.7"/>
<image xlink:href="../../images/foreignKeys.png" width="11px" height="12px" preserveAspectRatio="xMinYMin meet" x="563.749" y="-956.704"/>
<text text-anchor="start" x="578.75" y="-946.25" font-family="Helvetica,sans-Serif" font-size="11.00">write_uid</text>
<polygon fill="#ffffff" stroke="none" points="558.75,-917.7 558.75,-939.7 748.75,-939.7 748.75,-917.7 558.75,-917.7"/>
<polygon fill="none" stroke="black" points="558.75,-917.7 558.75,-939.7 748.75,-939.7 748.75,-917.7 558.75,-917.7"/>
<text text-anchor="start" x="578.75" y="-924.25" font-family="Helvetica,sans-Serif" font-size="11.00">complete_name</text>
<polygon fill="#ffffff" stroke="none" points="558.75,-895.7 558.75,-917.7 748.75,-917.7 748.75,-895.7 558.75,-895.7"/>
<polygon fill="none" stroke="black" points="558.75,-895.7 558.75,-917.7 748.75,-917.7 748.75,-895.7 558.75,-895.7"/>
<text text-anchor="start" x="578.75" y="-902.25" font-family="Helvetica,sans-Serif" font-size="11.00">ref</text>
<polygon fill="#ffffff" stroke="none" points="558.75,-873.7 558.75,-895.7 748.75,-895.7 748.75,-873.7 558.75,-873.7"/>
<polygon fill="none" stroke="black" points="558.75,-873.7 558.75,-895.7 748.75,-895.7 748.75,-873.7 558.75,-873.7"/>
<text text-anchor="start" x="578.75" y="-880.25" font-family="Helvetica,sans-Serif" font-size="11.00">vat</text>
<polygon fill="#ffffff" stroke="none" points="558.75,-851.7 558.75,-873.7 748.75,-873.7 748.75,-851.7 558.75,-851.7"/>
<polygon fill="none" stroke="black" points="558.75,-851.7 558.75,-873.7 748.75,-873.7 748.75,-851.7 558.75,-851.7"/>
<text text-anchor="start" x="578.75" y="-858.25" font-family="Helvetica,sans-Serif" font-size="11.00">date</text>
<polygon fill="none" stroke="black" points="558.75,-829.7 558.75,-851.7 748.75,-851.7 748.75,-829.7 558.75,-829.7"/>
<image xlink:href="../../images/foreignKeys.png" width="11px" height="12px" preserveAspectRatio="xMinYMin meet" x="563.749" y="-846.704"/>
<text text-anchor="start" x="578.75" y="-836.25" font-family="Helvetica,sans-Serif" font-size="11.00">team_id</text>
<polygon fill="none" stroke="black" points="558.75,-807.7 558.75,-829.7 748.75,-829.7 748.75,-807.7 558.75,-807.7"/>
<image xlink:href="../../images/foreignKeys.png" width="11px" height="12px" preserveAspectRatio="xMinYMin meet" x="563.749" y="-824.704"/>
<text text-anchor="start" x="578.75" y="-814.25" font-family="Helvetica,sans-Serif" font-size="11.00">buyer_id</text>
<polygon fill="none" stroke="black" points="558.75,-785.7 558.75,-807.7 748.75,-807.7 748.75,-785.7 558.75,-785.7"/>
<image xlink:href="../../images/foreignKeys.png" width="11px" height="12px" preserveAspectRatio="xMinYMin meet" x="563.749" y="-802.704"/>
<text text-anchor="start" x="578.75" y="-792.25" font-family="Helvetica,sans-Serif" font-size="11.00">parent_company_id</text>
<polygon fill="none" stroke="black" points="558.75,-763.7 558.75,-785.7 748.75,-785.7 748.75,-763.7 558.75,-763.7"/>
<image xlink:href="../../images/foreignKeys.png" width="11px" height="12px" preserveAspectRatio="xMinYMin meet" x="563.749" y="-780.704"/>
<text text-anchor="start" x="578.75" y="-770.25" font-family="Helvetica,sans-Serif" font-size="11.00">account_manager_id</text>
<polygon fill="none" stroke="black" points="558.75,-744.7 558.75,-763.7 748.75,-763.7 748.75,-744.7 558.75,-744.7"/>
<text text-anchor="start" x="561.75" y="-750.25" font-family="Helvetica,sans-Serif" font-size="11.00">...</text>
<polygon fill="#ffffff" stroke="none" points="558.75,-725.7 558.75,-744.7 647.75,-744.7 647.75,-725.7 558.75,-725.7"/>
<polygon fill="none" stroke="black" points="558.75,-725.7 558.75,-744.7 647.75,-744.7 647.75,-725.7 558.75,-725.7"/>
<text text-anchor="start" x="561.75" y="-731.25" font-family="Helvetica,sans-Serif" font-size="11.00">&lt; 10</text>
<polygon fill="#ffffff" stroke="none" points="647.75,-725.7 647.75,-744.7 690.75,-744.7 690.75,-725.7 647.75,-725.7"/>
<polygon fill="none" stroke="black" points="647.75,-725.7 647.75,-744.7 690.75,-744.7 690.75,-725.7 647.75,-725.7"/>
<text text-anchor="start" x="681.75" y="-731.25" font-family="Helvetica,sans-Serif" font-size="11.00"> &#160;</text>
<polygon fill="#ffffff" stroke="none" points="690.75,-725.7 690.75,-744.7 748.75,-744.7 748.75,-725.7 690.75,-725.7"/>
<polygon fill="none" stroke="black" points="690.75,-725.7 690.75,-744.7 748.75,-744.7 748.75,-725.7 690.75,-725.7"/>
<text text-anchor="start" x="724" y="-731.25" font-family="Helvetica,sans-Serif" font-size="11.00">23 &gt;</text>
</a>
</g>
</g>
<!-- account_move&#45;&gt;res_partner -->
<g id="edge1" class="edge">
<title>account_move:w&#45;&gt;res_partner:e</title>
<path fill="none" stroke="black" d="M788.91,-1484.29C736.97,-1439.13 825.41,-1126.7 749.75,-1126.7"/>
<polygon fill="black" stroke="black" points="795.92,-1486.85 802.2,-1492.97 799.99,-1488.33 803.12,-1489.47 803.12,-1489.47 803.12,-1489.47 799.99,-1488.33 804.67,-1486.21 795.92,-1486.85"/>
<ellipse fill="none" stroke="black" cx="791.3" cy="-1485.16" rx="3.2" ry="3.2"/>
</g>
<!-- account_move&#45;&gt;res_partner -->
<g id="edge4" class="edge">
<title>account_move:w&#45;&gt;res_partner:e</title>
<path fill="none" stroke="black" d="M788.78,-1506.55C732.64,-1460.87 830.24,-1126.7 749.75,-1126.7"/>
<polygon fill="black" stroke="black" points="795.87,-1508.99 802.26,-1515 799.97,-1510.4 803.12,-1511.49 803.12,-1511.49 803.12,-1511.49 799.97,-1510.4 804.6,-1508.19 795.87,-1508.99"/>
<ellipse fill="none" stroke="black" cx="791.22" cy="-1507.39" rx="3.2" ry="3.2"/>
</g>
<!-- account_move&#45;&gt;res_partner -->
<g id="edge5" class="edge">
<title>account_move:w&#45;&gt;res_partner:e</title>
<path fill="none" stroke="black" d="M789.13,-1462.07C741.15,-1417.73 820.63,-1126.7 749.75,-1126.7"/>
<polygon fill="black" stroke="black" points="795.97,-1464.71 802.14,-1470.94 800.02,-1466.27 803.12,-1467.46 803.12,-1467.46 803.12,-1467.46 800.02,-1466.27 804.73,-1464.22 795.97,-1464.71"/>
<ellipse fill="none" stroke="black" cx="791.38" cy="-1462.94" rx="3.2" ry="3.2"/>
</g>
<!-- res_users -->
<g id="node3" class="node">
<title>res_users</title>
<g id="a_node3"><a xlink:href="../../tables/res_users.html" xlink:title="res_users" target="_top">
<polygon fill="#ffffff" stroke="none" points="361.75,-659.7 361.75,-852.7 509.75,-852.7 509.75,-659.7 361.75,-659.7"/>
<polygon fill="#f5f5f5" stroke="none" points="361.75,-829.7 361.75,-852.7 509.75,-852.7 509.75,-829.7 361.75,-829.7"/>
<polygon fill="none" stroke="black" points="361.75,-829.7 361.75,-852.7 509.75,-852.7 509.75,-829.7 361.75,-829.7"/>
<text text-anchor="start" x="366.37" y="-837.5" font-family="Helvetica,sans-Serif" font-weight="bold" font-size="11.00">res_users</text>
<text text-anchor="start" x="475.5" y="-837.25" font-family="Helvetica,sans-Serif" font-size="11.00">[table]</text>
<polygon fill="none" stroke="black" points="361.75,-807.7 361.75,-829.7 509.75,-829.7 509.75,-807.7 361.75,-807.7"/>
<image xlink:href="../../images/primaryKeys.png" width="11px" height="12px" preserveAspectRatio="xMinYMin meet" x="366.749" y="-824.704"/>
<text text-anchor="start" x="381.75" y="-814.25" font-family="Helvetica,sans-Serif" font-size="11.00">id</text>
<polygon fill="#ffffff" stroke="none" points="361.75,-785.7 361.75,-807.7 509.75,-807.7 509.75,-785.7 361.75,-785.7"/>
<polygon fill="none" stroke="black" points="361.75,-785.7 361.75,-807.7 509.75,-807.7 509.75,-785.7 361.75,-785.7"/>
<image xlink:href="../../images/foreignKeys.png" width="11px" height="12px" preserveAspectRatio="xMinYMin meet" x="366.749" y="-802.704"/>
<text text-anchor="start" x="381.75" y="-792.25" font-family="Helvetica,sans-Serif" font-size="11.00">partner_id</text>
<polygon fill="#ffffff" stroke="none" points="361.75,-763.7 361.75,-785.7 509.75,-785.7 509.75,-763.7 361.75,-763.7"/>
<polygon fill="none" stroke="black" points="361.75,-763.7 361.75,-785.7 509.75,-785.7 509.75,-763.7 361.75,-763.7"/>
<text text-anchor="start" x="381.75" y="-770.25" font-family="Helvetica,sans-Serif" font-size="11.00">login</text>
<polygon fill="none" stroke="black" points="361.75,-741.7 361.75,-763.7 509.75,-763.7 509.75,-741.7 361.75,-741.7"/>
<image xlink:href="../../images/foreignKeys.png" width="11px" height="12px" preserveAspectRatio="xMinYMin meet" x="366.749" y="-758.704"/>
<text text-anchor="start" x="381.75" y="-748.25" font-family="Helvetica,sans-Serif" font-size="11.00">create_uid</text>
<polygon fill="none" stroke="black" points="361.75,-719.7 361.75,-741.7 509.75,-741.7 509.75,-719.7 361.75,-719.7"/>
<image xlink:href="../../images/foreignKeys.png" width="11px" height="12px" preserveAspectRatio="xMinYMin meet" x="366.749" y="-736.704"/>
<text text-anchor="start" x="381.75" y="-726.25" font-family="Helvetica,sans-Serif" font-size="11.00">write_uid</text>
<polygon fill="none" stroke="black" points="361.75,-697.7 361.75,-719.7 509.75,-719.7 509.75,-697.7 361.75,-697.7"/>
<image xlink:href="../../images/foreignKeys.png" width="11px" height="12px" preserveAspectRatio="xMinYMin meet" x="366.749" y="-714.704"/>
<text text-anchor="start" x="381.75" y="-704.25" font-family="Helvetica,sans-Serif" font-size="11.00">sale_team_id</text>
<polygon fill="none" stroke="black" points="361.75,-678.7 361.75,-697.7 509.75,-697.7 509.75,-678.7 361.75,-678.7"/>
<text text-anchor="start" x="364.75" y="-684.25" font-family="Helvetica,sans-Serif" font-size="11.00">...</text>
<polygon fill="#ffffff" stroke="none" points="361.75,-659.7 361.75,-678.7 426.75,-678.7 426.75,-659.7 361.75,-659.7"/>
<polygon fill="none" stroke="black" points="361.75,-659.7 361.75,-678.7 426.75,-678.7 426.75,-659.7 361.75,-659.7"/>
<text text-anchor="start" x="364.75" y="-665.25" font-family="Helvetica,sans-Serif" font-size="11.00">&lt; 4</text>
<polygon fill="#ffffff" stroke="none" points="426.75,-659.7 426.75,-678.7 460.75,-678.7 460.75,-659.7 426.75,-659.7"/>
<polygon fill="none" stroke="black" points="426.75,-659.7 426.75,-678.7 460.75,-678.7 460.75,-659.7 426.75,-659.7"/>
<text text-anchor="start" x="451.75" y="-665.25" font-family="Helvetica,sans-Serif" font-size="11.00"> &#160;</text>
<polygon fill="#ffffff" stroke="none" points="460.75,-659.7 460.75,-678.7 509.75,-678.7 509.75,-659.7 460.75,-659.7"/>
<polygon fill="none" stroke="black" points="460.75,-659.7 460.75,-678.7 509.75,-678.7 509.75,-659.7 460.75,-659.7"/>
<text text-anchor="start" x="485" y="-665.25" font-family="Helvetica,sans-Serif" font-size="11.00">65 &gt;</text>
</a>
</g>
</g>
<!-- account_move&#45;&gt;res_users -->
<g id="edge2" class="edge">
<title>account_move:w&#45;&gt;res_users:e</title>
<path fill="none" stroke="black" d="M787.95,-1380.15C685.45,-1385.86 627.69,-1443.79 550.75,-1369.2 506.72,-1326.52 572.08,-818.7 510.75,-818.7"/>
<polygon fill="black" stroke="black" points="795.42,-1379.94 803.52,-1383.31 799.75,-1379.82 803.08,-1379.72 803.08,-1379.72 803.08,-1379.72 799.75,-1379.82 803.31,-1376.11 795.42,-1379.94"/>
<ellipse fill="none" stroke="black" cx="790.5" cy="-1380.08" rx="3.2" ry="3.2"/>
</g>
<!-- account_move&#45;&gt;res_users -->
<g id="edge3" class="edge">
<title>account_move:w&#45;&gt;res_users:e</title>
<path fill="none" stroke="black" d="M787.96,-1402.18C685.59,-1408.34 628.38,-1470.96 550.75,-1397.2 504.04,-1352.83 575.18,-818.7 510.75,-818.7"/>
<polygon fill="black" stroke="black" points="795.42,-1401.96 803.52,-1405.31 799.75,-1401.82 803.08,-1401.72 803.08,-1401.72 803.08,-1401.72 799.75,-1401.82 803.31,-1398.12 795.42,-1401.96"/>
<ellipse fill="none" stroke="black" cx="790.5" cy="-1402.1" rx="3.2" ry="3.2"/>
</g>
<!-- account_move&#45;&gt;res_users -->
<g id="edge7" class="edge">
<title>account_move:w&#45;&gt;res_users:e</title>
<path fill="none" stroke="black" d="M788.36,-1355.46C743.12,-1339.56 807.84,-1243.02 756.75,-1199.2 686.61,-1139.06 615.36,-1237.26 550.75,-1171.2 495.62,-1114.85 589.59,-818.7 510.75,-818.7"/>
<polygon fill="black" stroke="black" points="795.5,-1356.5 802.9,-1361.22 799.79,-1357.13 803.09,-1357.61 803.09,-1357.61 803.09,-1357.61 799.79,-1357.13 803.94,-1354.09 795.5,-1356.5"/>
<ellipse fill="none" stroke="black" cx="790.63" cy="-1355.8" rx="3.2" ry="3.2"/>
</g>
<!-- crm_team -->
<g id="node4" class="node">
<title>crm_team</title>
<g id="a_node4"><a xlink:href="../../tables/crm_team.html" xlink:title="crm_team" target="_top">
<polygon fill="#ffffff" stroke="none" points="23.75,-544.2 23.75,-986.2 312.75,-986.2 312.75,-544.2 23.75,-544.2"/>
<polygon fill="#f5f5f5" stroke="none" points="25.75,-961.2 25.75,-984.2 310.75,-984.2 310.75,-961.2 25.75,-961.2"/>
<polygon fill="none" stroke="black" points="25.75,-961.2 25.75,-984.2 310.75,-984.2 310.75,-961.2 25.75,-961.2"/>
<text text-anchor="start" x="30.75" y="-969" font-family="Helvetica,sans-Serif" font-weight="bold" font-size="11.00">crm_team</text>
<text text-anchor="start" x="276.5" y="-968.75" font-family="Helvetica,sans-Serif" font-size="11.00">[table]</text>
<polygon fill="none" stroke="black" points="25.75,-939.2 25.75,-961.2 202.75,-961.2 202.75,-939.2 25.75,-939.2"/>
<image xlink:href="../../images/primaryKeys.png" width="11px" height="12px" preserveAspectRatio="xMinYMin meet" x="30.7492" y="-956.204"/>
<text text-anchor="start" x="45.75" y="-945.75" font-family="Helvetica,sans-Serif" font-size="11.00">id</text>
<polygon fill="none" stroke="black" points="202.75,-939.2 202.75,-961.2 310.75,-961.2 310.75,-939.2 202.75,-939.2"/>
<text text-anchor="start" x="205.75" y="-946.5" font-family="Helvetica,sans-Serif" font-size="11.00">serial[10]</text>
<polygon fill="none" stroke="black" points="25.75,-917.2 25.75,-939.2 202.75,-939.2 202.75,-917.2 25.75,-917.2"/>
<text text-anchor="start" x="45.75" y="-923.75" font-family="Helvetica,sans-Serif" font-size="11.00">sequence</text>
<polygon fill="none" stroke="black" points="202.75,-917.2 202.75,-939.2 310.75,-939.2 310.75,-917.2 202.75,-917.2"/>
<text text-anchor="start" x="205.75" y="-924.5" font-family="Helvetica,sans-Serif" font-size="11.00">int4[10]</text>
<polygon fill="#ffffff" stroke="none" points="25.75,-895.2 25.75,-917.2 202.75,-917.2 202.75,-895.2 25.75,-895.2"/>
<polygon fill="none" stroke="black" points="25.75,-895.2 25.75,-917.2 202.75,-917.2 202.75,-895.2 25.75,-895.2"/>
<text text-anchor="start" x="45.75" y="-901.75" font-family="Helvetica,sans-Serif" font-size="11.00">company_id</text>
<polygon fill="none" stroke="black" points="202.75,-895.2 202.75,-917.2 310.75,-917.2 310.75,-895.2 202.75,-895.2"/>
<text text-anchor="start" x="205.75" y="-902.5" font-family="Helvetica,sans-Serif" font-size="11.00">int4[10]</text>
<polygon fill="none" stroke="black" points="25.75,-873.2 25.75,-895.2 202.75,-895.2 202.75,-873.2 25.75,-873.2"/>
<image xlink:href="../../images/foreignKeys.png" width="11px" height="12px" preserveAspectRatio="xMinYMin meet" x="30.7492" y="-890.204"/>
<text text-anchor="start" x="45.75" y="-879.75" font-family="Helvetica,sans-Serif" font-size="11.00">user_id</text>
<polygon fill="none" stroke="black" points="202.75,-873.2 202.75,-895.2 310.75,-895.2 310.75,-873.2 202.75,-873.2"/>
<text text-anchor="start" x="205.75" y="-880.5" font-family="Helvetica,sans-Serif" font-size="11.00">int4[10]</text>
<polygon fill="none" stroke="black" points="25.75,-851.2 25.75,-873.2 202.75,-873.2 202.75,-851.2 25.75,-851.2"/>
<text text-anchor="start" x="45.75" y="-857.75" font-family="Helvetica,sans-Serif" font-size="11.00">color</text>
<polygon fill="none" stroke="black" points="202.75,-851.2 202.75,-873.2 310.75,-873.2 310.75,-851.2 202.75,-851.2"/>
<text text-anchor="start" x="205.75" y="-858.5" font-family="Helvetica,sans-Serif" font-size="11.00">int4[10]</text>
<polygon fill="none" stroke="black" points="25.75,-829.2 25.75,-851.2 202.75,-851.2 202.75,-829.2 25.75,-829.2"/>
<image xlink:href="../../images/foreignKeys.png" width="11px" height="12px" preserveAspectRatio="xMinYMin meet" x="30.7492" y="-846.204"/>
<text text-anchor="start" x="45.75" y="-835.75" font-family="Helvetica,sans-Serif" font-size="11.00">create_uid</text>
<polygon fill="none" stroke="black" points="202.75,-829.2 202.75,-851.2 310.75,-851.2 310.75,-829.2 202.75,-829.2"/>
<text text-anchor="start" x="205.75" y="-836.5" font-family="Helvetica,sans-Serif" font-size="11.00">int4[10]</text>
<polygon fill="none" stroke="black" points="25.75,-807.2 25.75,-829.2 202.75,-829.2 202.75,-807.2 25.75,-807.2"/>
<image xlink:href="../../images/foreignKeys.png" width="11px" height="12px" preserveAspectRatio="xMinYMin meet" x="30.7492" y="-824.204"/>
<text text-anchor="start" x="45.75" y="-813.75" font-family="Helvetica,sans-Serif" font-size="11.00">write_uid</text>
<polygon fill="none" stroke="black" points="202.75,-807.2 202.75,-829.2 310.75,-829.2 310.75,-807.2 202.75,-807.2"/>
<text text-anchor="start" x="205.75" y="-814.5" font-family="Helvetica,sans-Serif" font-size="11.00">int4[10]</text>
<polygon fill="none" stroke="black" points="25.75,-785.2 25.75,-807.2 202.75,-807.2 202.75,-785.2 25.75,-785.2"/>
<text text-anchor="start" x="45.75" y="-791.75" font-family="Helvetica,sans-Serif" font-size="11.00">name</text>
<polygon fill="none" stroke="black" points="202.75,-785.2 202.75,-807.2 310.75,-807.2 310.75,-785.2 202.75,-785.2"/>
<text text-anchor="start" x="205.75" y="-792.5" font-family="Helvetica,sans-Serif" font-size="11.00">jsonb[2147483647]</text>
<polygon fill="none" stroke="black" points="25.75,-763.2 25.75,-785.2 202.75,-785.2 202.75,-763.2 25.75,-763.2"/>
<text text-anchor="start" x="45.75" y="-769.75" font-family="Helvetica,sans-Serif" font-size="11.00">active</text>
<polygon fill="none" stroke="black" points="202.75,-763.2 202.75,-785.2 310.75,-785.2 310.75,-763.2 202.75,-763.2"/>
<text text-anchor="start" x="205.75" y="-770.5" font-family="Helvetica,sans-Serif" font-size="11.00">bool[1]</text>
<polygon fill="none" stroke="black" points="25.75,-741.2 25.75,-763.2 202.75,-763.2 202.75,-741.2 25.75,-741.2"/>
<text text-anchor="start" x="45.75" y="-747.75" font-family="Helvetica,sans-Serif" font-size="11.00">create_date</text>
<polygon fill="none" stroke="black" points="202.75,-741.2 202.75,-763.2 310.75,-763.2 310.75,-741.2 202.75,-741.2"/>
<text text-anchor="start" x="205.75" y="-748.5" font-family="Helvetica,sans-Serif" font-size="11.00">timestamp[29,6]</text>
<polygon fill="none" stroke="black" points="25.75,-719.2 25.75,-741.2 202.75,-741.2 202.75,-719.2 25.75,-719.2"/>
<text text-anchor="start" x="45.75" y="-725.75" font-family="Helvetica,sans-Serif" font-size="11.00">write_date</text>
<polygon fill="none" stroke="black" points="202.75,-719.2 202.75,-741.2 310.75,-741.2 310.75,-719.2 202.75,-719.2"/>
<text text-anchor="start" x="205.75" y="-726.5" font-family="Helvetica,sans-Serif" font-size="11.00">timestamp[29,6]</text>
<polygon fill="none" stroke="black" points="25.75,-697.2 25.75,-719.2 202.75,-719.2 202.75,-697.2 25.75,-697.2"/>
<text text-anchor="start" x="45.75" y="-703.75" font-family="Helvetica,sans-Serif" font-size="11.00">alias_id</text>
<polygon fill="none" stroke="black" points="202.75,-697.2 202.75,-719.2 310.75,-719.2 310.75,-697.2 202.75,-697.2"/>
<text text-anchor="start" x="205.75" y="-704.5" font-family="Helvetica,sans-Serif" font-size="11.00">int4[10]</text>
<polygon fill="none" stroke="black" points="25.75,-675.2 25.75,-697.2 202.75,-697.2 202.75,-675.2 25.75,-675.2"/>
<text text-anchor="start" x="45.75" y="-681.75" font-family="Helvetica,sans-Serif" font-size="11.00">assignment_domain</text>
<polygon fill="none" stroke="black" points="202.75,-675.2 202.75,-697.2 310.75,-697.2 310.75,-675.2 202.75,-675.2"/>
<text text-anchor="start" x="205.75" y="-682.5" font-family="Helvetica,sans-Serif" font-size="11.00">varchar[2147483647]</text>
<polygon fill="none" stroke="black" points="25.75,-653.2 25.75,-675.2 202.75,-675.2 202.75,-653.2 25.75,-653.2"/>
<text text-anchor="start" x="45.75" y="-659.75" font-family="Helvetica,sans-Serif" font-size="11.00">lead_properties_definition</text>
<polygon fill="none" stroke="black" points="202.75,-653.2 202.75,-675.2 310.75,-675.2 310.75,-653.2 202.75,-653.2"/>
<text text-anchor="start" x="205.75" y="-660.5" font-family="Helvetica,sans-Serif" font-size="11.00">jsonb[2147483647]</text>
<polygon fill="none" stroke="black" points="25.75,-631.2 25.75,-653.2 202.75,-653.2 202.75,-631.2 25.75,-631.2"/>
<text text-anchor="start" x="45.75" y="-637.75" font-family="Helvetica,sans-Serif" font-size="11.00">use_leads</text>
<polygon fill="none" stroke="black" points="202.75,-631.2 202.75,-653.2 310.75,-653.2 310.75,-631.2 202.75,-631.2"/>
<text text-anchor="start" x="205.75" y="-638.5" font-family="Helvetica,sans-Serif" font-size="11.00">bool[1]</text>
<polygon fill="none" stroke="black" points="25.75,-609.2 25.75,-631.2 202.75,-631.2 202.75,-609.2 25.75,-609.2"/>
<text text-anchor="start" x="45.75" y="-615.75" font-family="Helvetica,sans-Serif" font-size="11.00">use_opportunities</text>
<polygon fill="none" stroke="black" points="202.75,-609.2 202.75,-631.2 310.75,-631.2 310.75,-609.2 202.75,-609.2"/>
<text text-anchor="start" x="205.75" y="-616.5" font-family="Helvetica,sans-Serif" font-size="11.00">bool[1]</text>
<polygon fill="none" stroke="black" points="25.75,-587.2 25.75,-609.2 202.75,-609.2 202.75,-587.2 25.75,-587.2"/>
<text text-anchor="start" x="45.75" y="-593.75" font-family="Helvetica,sans-Serif" font-size="11.00">assignment_optout</text>
<polygon fill="none" stroke="black" points="202.75,-587.2 202.75,-609.2 310.75,-609.2 310.75,-587.2 202.75,-587.2"/>
<text text-anchor="start" x="205.75" y="-594.5" font-family="Helvetica,sans-Serif" font-size="11.00">bool[1]</text>
<polygon fill="none" stroke="black" points="25.75,-565.2 25.75,-587.2 202.75,-587.2 202.75,-565.2 25.75,-565.2"/>
<text text-anchor="start" x="45.75" y="-571.75" font-family="Helvetica,sans-Serif" font-size="11.00">invoiced_target</text>
<polygon fill="none" stroke="black" points="202.75,-565.2 202.75,-587.2 310.75,-587.2 310.75,-565.2 202.75,-565.2"/>
<text text-anchor="start" x="205.75" y="-572.5" font-family="Helvetica,sans-Serif" font-size="11.00">float8[17,17]</text>
<polygon fill="#ffffff" stroke="none" points="25.75,-546.2 25.75,-565.2 118.75,-565.2 118.75,-546.2 25.75,-546.2"/>
<polygon fill="none" stroke="black" points="25.75,-546.2 25.75,-565.2 118.75,-565.2 118.75,-546.2 25.75,-546.2"/>
<text text-anchor="start" x="28.75" y="-551.75" font-family="Helvetica,sans-Serif" font-size="11.00">&lt; 3</text>
<polygon fill="#ffffff" stroke="none" points="118.75,-546.2 118.75,-565.2 202.75,-565.2 202.75,-546.2 118.75,-546.2"/>
<polygon fill="none" stroke="black" points="118.75,-546.2 118.75,-565.2 202.75,-565.2 202.75,-546.2 118.75,-546.2"/>
<text text-anchor="start" x="193.75" y="-551.75" font-family="Helvetica,sans-Serif" font-size="11.00"> &#160;</text>
<polygon fill="#ffffff" stroke="none" points="202.75,-546.2 202.75,-565.2 310.75,-565.2 310.75,-546.2 202.75,-546.2"/>
<polygon fill="none" stroke="black" points="202.75,-546.2 202.75,-565.2 310.75,-565.2 310.75,-546.2 202.75,-546.2"/>
<text text-anchor="start" x="292" y="-551.75" font-family="Helvetica,sans-Serif" font-size="11.00">6 &gt;</text>
<polygon fill="none" stroke="black" stroke-width="2" points="24.75,-545.2 24.75,-985.2 311.75,-985.2 311.75,-545.2 24.75,-545.2"/>
</a>
</g>
</g>
<!-- account_move&#45;&gt;crm_team -->
<g id="edge6" class="edge">
<title>account_move:w&#45;&gt;crm_team:e</title>
<path fill="none" stroke="black" d="M788.99,-1099.46C749.03,-1137.21 802.64,-1349.06 756.75,-1388.2 687.09,-1447.62 637.83,-1416.48 550.75,-1388.2 447.85,-1354.79 409.57,-1337.88 353.75,-1245.2 319.58,-1188.48 377.97,-950.2 311.75,-950.2"/>
<polygon fill="black" stroke="black" points="795.98,-1096.73 804.75,-1097.18 800.02,-1095.16 803.13,-1093.95 803.13,-1093.95 803.13,-1093.95 800.02,-1095.16 802.13,-1090.47 795.98,-1096.73"/>
<ellipse fill="none" stroke="black" cx="791.4" cy="-1098.52" rx="3.2" ry="3.2"/>
</g>
<!-- res_partner&#45;&gt;res_users -->
<g id="edge24" class="edge">
<title>res_partner:w&#45;&gt;res_users:e</title>
<path fill="none" stroke="black" d="M543.38,-780.46C531.78,-792.38 532.88,-818.7 510.75,-818.7"/>
<polygon fill="black" stroke="black" points="550.01,-777.8 558.78,-778.17 554.04,-776.19 557.13,-774.95 557.13,-774.95 557.13,-774.95 554.04,-776.19 556.1,-771.49 550.01,-777.8"/>
<ellipse fill="none" stroke="black" cx="545.45" cy="-779.63" rx="3.2" ry="3.2"/>
</g>
<!-- res_partner&#45;&gt;res_users -->
<g id="edge25" class="edge">
<title>res_partner:w&#45;&gt;res_users:e</title>
<path fill="none" stroke="black" d="M542.13,-818.7C532.22,-818.7 525.27,-818.7 510.75,-818.7"/>
<polygon fill="black" stroke="black" points="549.41,-818.7 557.41,-822.3 553.75,-818.7 557.08,-818.7 557.08,-818.7 557.08,-818.7 553.75,-818.7 557.41,-815.1 549.41,-818.7"/>
<ellipse fill="none" stroke="black" cx="544.5" cy="-818.7" rx="3.2" ry="3.2"/>
</g>
<!-- res_partner&#45;&gt;res_users -->
<g id="edge26" class="edge">
<title>res_partner:w&#45;&gt;res_users:e</title>
<path fill="none" stroke="black" d="M542.54,-969.34C501.79,-946.82 576.02,-818.7 510.75,-818.7"/>
<polygon fill="black" stroke="black" points="549.61,-970.91 556.65,-976.15 553.84,-971.84 557.1,-972.56 557.1,-972.56 557.1,-972.56 553.84,-971.84 558.2,-969.12 549.61,-970.91"/>
<ellipse fill="none" stroke="black" cx="544.81" cy="-969.85" rx="3.2" ry="3.2"/>
</g>
<!-- res_partner&#45;&gt;res_users -->
<g id="edge28" class="edge">
<title>res_partner:w&#45;&gt;res_users:e</title>
<path fill="none" stroke="black" d="M542.26,-1036.38C475.36,-1012.87 604.68,-818.7 510.75,-818.7"/>
<polygon fill="black" stroke="black" points="549.51,-1037.47 556.88,-1042.21 553.79,-1038.11 557.09,-1038.6 557.09,-1038.6 557.09,-1038.6 553.79,-1038.11 557.95,-1035.09 549.51,-1037.47"/>
<ellipse fill="none" stroke="black" cx="544.64" cy="-1036.74" rx="3.2" ry="3.2"/>
</g>
<!-- res_partner&#45;&gt;res_users -->
<g id="edge29" class="edge">
<title>res_partner:w&#45;&gt;res_users:e</title>
<path fill="none" stroke="black" d="M542.81,-946.9C509.78,-925.25 566.7,-818.7 510.75,-818.7"/>
<polygon fill="black" stroke="black" points="549.67,-948.65 556.54,-954.11 553.87,-949.72 557.1,-950.54 557.1,-950.54 557.1,-950.54 553.87,-949.72 558.31,-947.13 549.67,-948.65"/>
<ellipse fill="none" stroke="black" cx="544.91" cy="-947.43" rx="3.2" ry="3.2"/>
</g>
<!-- res_partner&#45;&gt;crm_team -->
<g id="edge27" class="edge">
<title>res_partner:w&#45;&gt;crm_team:e</title>
<path fill="none" stroke="black" d="M542.57,-844.43C534.67,-849.09 530.05,-857.17 517.75,-863.2 428.52,-906.97 411.13,-950.2 311.75,-950.2"/>
<polygon fill="black" stroke="black" points="549.66,-842.69 558.28,-844.28 553.86,-841.66 557.1,-840.86 557.1,-840.86 557.1,-840.86 553.86,-841.66 556.57,-837.29 549.66,-842.69"/>
<ellipse fill="none" stroke="black" cx="544.88" cy="-843.86" rx="3.2" ry="3.2"/>
</g>
<!-- res_users&#45;&gt;res_partner -->
<g id="edge30" class="edge">
<title>res_users:w&#45;&gt;res_partner:e</title>
<path fill="none" stroke="black" d="M346.98,-803.84C340.59,-816.02 350.01,-841.03 361.75,-856.7 405.29,-914.81 471.09,-849.57 517.75,-905.2 592.46,-994.28 463.51,-1087.85 550.75,-1164.7 567.26,-1179.25 732.99,-1180.05 748.75,-1164.7 760.85,-1152.92 766.64,-1126.7 749.75,-1126.7"/>
<polygon fill="black" stroke="black" points="353.35,-800.54 362.11,-800.05 357.2,-798.54 360.16,-797.01 360.16,-797.01 360.16,-797.01 357.2,-798.54 358.8,-793.66 353.35,-800.54"/>
<ellipse fill="none" stroke="black" cx="348.98" cy="-802.8" rx="3.2" ry="3.2"/>
</g>
<!-- res_users&#45;&gt;crm_team -->
<g id="edge31" class="edge">
<title>res_users:w&#45;&gt;crm_team:e</title>
<path fill="none" stroke="black" d="M345.2,-710.79C268.99,-734.4 415.28,-950.2 311.75,-950.2"/>
<polygon fill="black" stroke="black" points="352.49,-709.81 360.9,-712.32 356.78,-709.24 360.09,-708.79 360.09,-708.79 360.09,-708.79 356.78,-709.24 359.94,-705.18 352.49,-709.81"/>
<ellipse fill="none" stroke="black" cx="347.61" cy="-710.47" rx="3.2" ry="3.2"/>
</g>
<!-- crm_team&#45;&gt;res_users -->
<g id="edge21" class="edge">
<title>crm_team:w&#45;&gt;res_users:e</title>
<path fill="none" stroke="black" d="M11.99,-849C-4.83,-878.08 5.89,-970.47 25.75,-990.2 118.77,-1082.6 212.56,-1064.26 320.75,-990.2 354.19,-967.31 324.12,-932.86 353.75,-905.2 406.83,-855.66 465.93,-914.6 509.75,-856.7 519.94,-843.23 527.64,-818.7 510.75,-818.7"/>
<polygon fill="black" stroke="black" points="17.89,-844.93 26.52,-843.36 21.46,-842.47 24.2,-840.58 24.2,-840.58 24.2,-840.58 21.46,-842.47 22.43,-837.43 17.89,-844.93"/>
<ellipse fill="none" stroke="black" cx="13.84" cy="-847.72" rx="3.2" ry="3.2"/>
</g>
<!-- crm_team&#45;&gt;res_users -->
<g id="edge22" class="edge">
<title>crm_team:w&#45;&gt;res_users:e</title>
<path fill="none" stroke="black" d="M13.56,-895.34C5.04,-919.84 12.67,-977.25 25.75,-990.2 118.89,-1082.48 212.56,-1064.26 320.75,-990.2 354.19,-967.31 324.12,-932.86 353.75,-905.2 406.83,-855.66 465.93,-914.6 509.75,-856.7 519.94,-843.23 527.64,-818.7 510.75,-818.7"/>
<polygon fill="black" stroke="black" points="18.84,-890.08 27.05,-886.99 21.91,-887.03 24.28,-884.68 24.28,-884.68 24.28,-884.68 21.91,-887.03 21.97,-881.89 18.84,-890.08"/>
<ellipse fill="none" stroke="black" cx="15.36" cy="-893.55" rx="3.2" ry="3.2"/>
</g>
<!-- crm_team&#45;&gt;res_users -->
<g id="edge23" class="edge">
<title>crm_team:w&#45;&gt;res_users:e</title>
<path fill="none" stroke="black" d="M11.51,-826.08C-9.77,-856.66 2.45,-967.04 25.75,-990.2 118.73,-1082.64 212.56,-1064.26 320.75,-990.2 354.19,-967.31 324.12,-932.86 353.75,-905.2 406.83,-855.66 465.93,-914.6 509.75,-856.7 519.94,-843.23 527.64,-818.7 510.75,-818.7"/>
<polygon fill="black" stroke="black" points="17.59,-822.46 26.3,-821.47 21.31,-820.25 24.17,-818.55 24.17,-818.55 24.17,-818.55 21.31,-820.25 22.62,-815.28 17.59,-822.46"/>
<ellipse fill="none" stroke="black" cx="13.36" cy="-824.98" rx="3.2" ry="3.2"/>
</g>
<!-- crm_lead -->
<g id="node5" class="node">
<title>crm_lead</title>
<g id="a_node5"><a xlink:href="../../tables/crm_lead.html" xlink:title="crm_lead" target="_top">
<polygon fill="#ffffff" stroke="none" points="797.75,-125.7 797.75,-736.7 1042.75,-736.7 1042.75,-125.7 797.75,-125.7"/>
<polygon fill="#f5f5f5" stroke="none" points="797.75,-713.7 797.75,-736.7 1042.75,-736.7 1042.75,-713.7 797.75,-713.7"/>
<polygon fill="none" stroke="black" points="797.75,-713.7 797.75,-736.7 1042.75,-736.7 1042.75,-713.7 797.75,-713.7"/>
<text text-anchor="start" x="802.75" y="-721.5" font-family="Helvetica,sans-Serif" font-weight="bold" font-size="11.00">crm_lead</text>
<text text-anchor="start" x="1008.5" y="-721.25" font-family="Helvetica,sans-Serif" font-size="11.00">[table]</text>
<polygon fill="none" stroke="black" points="797.75,-691.7 797.75,-713.7 1042.75,-713.7 1042.75,-691.7 797.75,-691.7"/>
<image xlink:href="../../images/primaryKeys.png" width="11px" height="12px" preserveAspectRatio="xMinYMin meet" x="802.749" y="-708.704"/>
<text text-anchor="start" x="817.75" y="-698.25" font-family="Helvetica,sans-Serif" font-size="11.00">id</text>
<polygon fill="#ffffff" stroke="none" points="797.75,-669.7 797.75,-691.7 1042.75,-691.7 1042.75,-669.7 797.75,-669.7"/>
<polygon fill="none" stroke="black" points="797.75,-669.7 797.75,-691.7 1042.75,-691.7 1042.75,-669.7 797.75,-669.7"/>
<image xlink:href="../../images/foreignKeys.png" width="11px" height="12px" preserveAspectRatio="xMinYMin meet" x="802.749" y="-686.704"/>
<text text-anchor="start" x="817.75" y="-676.25" font-family="Helvetica,sans-Serif" font-size="11.00">user_id</text>
<polygon fill="#ffffff" stroke="none" points="797.75,-647.7 797.75,-669.7 1042.75,-669.7 1042.75,-647.7 797.75,-647.7"/>
<polygon fill="none" stroke="black" points="797.75,-647.7 797.75,-669.7 1042.75,-669.7 1042.75,-647.7 797.75,-647.7"/>
<image xlink:href="../../images/foreignKeys.png" width="11px" height="12px" preserveAspectRatio="xMinYMin meet" x="802.749" y="-664.704"/>
<text text-anchor="start" x="817.75" y="-654.25" font-family="Helvetica,sans-Serif" font-size="11.00">team_id</text>
<polygon fill="#ffffff" stroke="none" points="797.75,-625.7 797.75,-647.7 1042.75,-647.7 1042.75,-625.7 797.75,-625.7"/>
<polygon fill="none" stroke="black" points="797.75,-625.7 797.75,-647.7 1042.75,-647.7 1042.75,-625.7 797.75,-625.7"/>
<text text-anchor="start" x="817.75" y="-632.25" font-family="Helvetica,sans-Serif" font-size="11.00">company_id</text>
<polygon fill="#ffffff" stroke="none" points="797.75,-603.7 797.75,-625.7 1042.75,-625.7 1042.75,-603.7 797.75,-603.7"/>
<polygon fill="none" stroke="black" points="797.75,-603.7 797.75,-625.7 1042.75,-625.7 1042.75,-603.7 797.75,-603.7"/>
<image xlink:href="../../images/foreignKeys.png" width="11px" height="12px" preserveAspectRatio="xMinYMin meet" x="802.749" y="-620.704"/>
<text text-anchor="start" x="817.75" y="-610.25" font-family="Helvetica,sans-Serif" font-size="11.00">stage_id</text>
<polygon fill="#ffffff" stroke="none" points="797.75,-581.7 797.75,-603.7 1042.75,-603.7 1042.75,-581.7 797.75,-581.7"/>
<polygon fill="none" stroke="black" points="797.75,-581.7 797.75,-603.7 1042.75,-603.7 1042.75,-581.7 797.75,-581.7"/>
<image xlink:href="../../images/foreignKeys.png" width="11px" height="12px" preserveAspectRatio="xMinYMin meet" x="802.749" y="-598.704"/>
<text text-anchor="start" x="817.75" y="-588.25" font-family="Helvetica,sans-Serif" font-size="11.00">partner_id</text>
<polygon fill="none" stroke="black" points="797.75,-559.7 797.75,-581.7 1042.75,-581.7 1042.75,-559.7 797.75,-559.7"/>
<image xlink:href="../../images/foreignKeys.png" width="11px" height="12px" preserveAspectRatio="xMinYMin meet" x="802.749" y="-576.704"/>
<text text-anchor="start" x="817.75" y="-566.25" font-family="Helvetica,sans-Serif" font-size="11.00">country_id</text>
<polygon fill="#ffffff" stroke="none" points="797.75,-537.7 797.75,-559.7 1042.75,-559.7 1042.75,-537.7 797.75,-537.7"/>
<polygon fill="none" stroke="black" points="797.75,-537.7 797.75,-559.7 1042.75,-559.7 1042.75,-537.7 797.75,-537.7"/>
<image xlink:href="../../images/foreignKeys.png" width="11px" height="12px" preserveAspectRatio="xMinYMin meet" x="802.749" y="-554.704"/>
<text text-anchor="start" x="817.75" y="-544.25" font-family="Helvetica,sans-Serif" font-size="11.00">lost_reason_id</text>
<polygon fill="none" stroke="black" points="797.75,-515.7 797.75,-537.7 1042.75,-537.7 1042.75,-515.7 797.75,-515.7"/>
<image xlink:href="../../images/foreignKeys.png" width="11px" height="12px" preserveAspectRatio="xMinYMin meet" x="802.749" y="-532.704"/>
<text text-anchor="start" x="817.75" y="-522.25" font-family="Helvetica,sans-Serif" font-size="11.00">create_uid</text>
<polygon fill="none" stroke="black" points="797.75,-493.7 797.75,-515.7 1042.75,-515.7 1042.75,-493.7 797.75,-493.7"/>
<image xlink:href="../../images/foreignKeys.png" width="11px" height="12px" preserveAspectRatio="xMinYMin meet" x="802.749" y="-510.704"/>
<text text-anchor="start" x="817.75" y="-500.25" font-family="Helvetica,sans-Serif" font-size="11.00">write_uid</text>
<polygon fill="#ffffff" stroke="none" points="797.75,-471.7 797.75,-493.7 1042.75,-493.7 1042.75,-471.7 797.75,-471.7"/>
<polygon fill="none" stroke="black" points="797.75,-471.7 797.75,-493.7 1042.75,-493.7 1042.75,-471.7 797.75,-471.7"/>
<text text-anchor="start" x="817.75" y="-478.25" font-family="Helvetica,sans-Serif" font-size="11.00">phone_sanitized</text>
<polygon fill="#ffffff" stroke="none" points="797.75,-449.7 797.75,-471.7 1042.75,-471.7 1042.75,-449.7 797.75,-449.7"/>
<polygon fill="none" stroke="black" points="797.75,-449.7 797.75,-471.7 1042.75,-471.7 1042.75,-449.7 797.75,-449.7"/>
<text text-anchor="start" x="817.75" y="-456.25" font-family="Helvetica,sans-Serif" font-size="11.00">email_normalized</text>
<polygon fill="#ffffff" stroke="none" points="797.75,-427.7 797.75,-449.7 1042.75,-449.7 1042.75,-427.7 797.75,-427.7"/>
<polygon fill="none" stroke="black" points="797.75,-427.7 797.75,-449.7 1042.75,-449.7 1042.75,-427.7 797.75,-427.7"/>
<text text-anchor="start" x="817.75" y="-434.25" font-family="Helvetica,sans-Serif" font-size="11.00">name</text>
<polygon fill="#ffffff" stroke="none" points="797.75,-405.7 797.75,-427.7 1042.75,-427.7 1042.75,-405.7 797.75,-405.7"/>
<polygon fill="none" stroke="black" points="797.75,-405.7 797.75,-427.7 1042.75,-427.7 1042.75,-405.7 797.75,-405.7"/>
<text text-anchor="start" x="817.75" y="-412.25" font-family="Helvetica,sans-Serif" font-size="11.00">type</text>
<polygon fill="#ffffff" stroke="none" points="797.75,-383.7 797.75,-405.7 1042.75,-405.7 1042.75,-383.7 797.75,-383.7"/>
<polygon fill="none" stroke="black" points="797.75,-383.7 797.75,-405.7 1042.75,-405.7 1042.75,-383.7 797.75,-383.7"/>
<text text-anchor="start" x="817.75" y="-390.25" font-family="Helvetica,sans-Serif" font-size="11.00">priority</text>
<polygon fill="#ffffff" stroke="none" points="797.75,-361.7 797.75,-383.7 1042.75,-383.7 1042.75,-361.7 797.75,-361.7"/>
<polygon fill="none" stroke="black" points="797.75,-361.7 797.75,-383.7 1042.75,-383.7 1042.75,-361.7 797.75,-361.7"/>
<text text-anchor="start" x="817.75" y="-368.25" font-family="Helvetica,sans-Serif" font-size="11.00">contact_name</text>
<polygon fill="#ffffff" stroke="none" points="797.75,-339.7 797.75,-361.7 1042.75,-361.7 1042.75,-339.7 797.75,-339.7"/>
<polygon fill="none" stroke="black" points="797.75,-339.7 797.75,-361.7 1042.75,-361.7 1042.75,-339.7 797.75,-339.7"/>
<text text-anchor="start" x="817.75" y="-346.25" font-family="Helvetica,sans-Serif" font-size="11.00">partner_name</text>
<polygon fill="#ffffff" stroke="none" points="797.75,-317.7 797.75,-339.7 1042.75,-339.7 1042.75,-317.7 797.75,-317.7"/>
<polygon fill="none" stroke="black" points="797.75,-317.7 797.75,-339.7 1042.75,-339.7 1042.75,-317.7 797.75,-317.7"/>
<text text-anchor="start" x="817.75" y="-324.25" font-family="Helvetica,sans-Serif" font-size="11.00">email_from</text>
<polygon fill="#ffffff" stroke="none" points="797.75,-295.7 797.75,-317.7 1042.75,-317.7 1042.75,-295.7 797.75,-295.7"/>
<polygon fill="none" stroke="black" points="797.75,-295.7 797.75,-317.7 1042.75,-317.7 1042.75,-295.7 797.75,-295.7"/>
<text text-anchor="start" x="817.75" y="-302.25" font-family="Helvetica,sans-Serif" font-size="11.00">email_domain_criterion</text>
<polygon fill="#ffffff" stroke="none" points="797.75,-273.7 797.75,-295.7 1042.75,-295.7 1042.75,-273.7 797.75,-273.7"/>
<polygon fill="none" stroke="black" points="797.75,-273.7 797.75,-295.7 1042.75,-295.7 1042.75,-273.7 797.75,-273.7"/>
<text text-anchor="start" x="817.75" y="-280.25" font-family="Helvetica,sans-Serif" font-size="11.00">date_last_stage_update</text>
<polygon fill="#ffffff" stroke="none" points="797.75,-251.7 797.75,-273.7 1042.75,-273.7 1042.75,-251.7 797.75,-251.7"/>
<polygon fill="none" stroke="black" points="797.75,-251.7 797.75,-273.7 1042.75,-273.7 1042.75,-251.7 797.75,-251.7"/>
<text text-anchor="start" x="817.75" y="-258.25" font-family="Helvetica,sans-Serif" font-size="11.00">create_date</text>
<polygon fill="none" stroke="black" points="797.75,-229.7 797.75,-251.7 1042.75,-251.7 1042.75,-229.7 797.75,-229.7"/>
<image xlink:href="../../images/foreignKeys.png" width="11px" height="12px" preserveAspectRatio="xMinYMin meet" x="802.749" y="-246.704"/>
<text text-anchor="start" x="817.75" y="-236.25" font-family="Helvetica,sans-Serif" font-size="11.00">sales_assist_id</text>
<polygon fill="none" stroke="black" points="797.75,-207.7 797.75,-229.7 1042.75,-229.7 1042.75,-207.7 797.75,-207.7"/>
<image xlink:href="../../images/foreignKeys.png" width="11px" height="12px" preserveAspectRatio="xMinYMin meet" x="802.749" y="-224.704"/>
<text text-anchor="start" x="817.75" y="-214.25" font-family="Helvetica,sans-Serif" font-size="11.00">introduced_by_id</text>
<polygon fill="none" stroke="black" points="797.75,-185.7 797.75,-207.7 1042.75,-207.7 1042.75,-185.7 797.75,-185.7"/>
<image xlink:href="../../images/foreignKeys.png" width="11px" height="12px" preserveAspectRatio="xMinYMin meet" x="802.749" y="-202.704"/>
<text text-anchor="start" x="817.75" y="-192.25" font-family="Helvetica,sans-Serif" font-size="11.00">contact_account_manager_id</text>
<polygon fill="none" stroke="black" points="797.75,-163.7 797.75,-185.7 1042.75,-185.7 1042.75,-163.7 797.75,-163.7"/>
<image xlink:href="../../images/foreignKeys.png" width="11px" height="12px" preserveAspectRatio="xMinYMin meet" x="802.749" y="-180.704"/>
<text text-anchor="start" x="817.75" y="-170.25" font-family="Helvetica,sans-Serif" font-size="11.00">citizen_id</text>
<polygon fill="none" stroke="black" points="797.75,-144.7 797.75,-163.7 1042.75,-163.7 1042.75,-144.7 797.75,-144.7"/>
<text text-anchor="start" x="800.75" y="-150.25" font-family="Helvetica,sans-Serif" font-size="11.00">...</text>
<polygon fill="#ffffff" stroke="none" points="797.75,-125.7 797.75,-144.7 916.75,-144.7 916.75,-125.7 797.75,-125.7"/>
<polygon fill="none" stroke="black" points="797.75,-125.7 797.75,-144.7 916.75,-144.7 916.75,-125.7 797.75,-125.7"/>
<text text-anchor="start" x="800.75" y="-131.25" font-family="Helvetica,sans-Serif" font-size="11.00">&lt; 12</text>
<polygon fill="#ffffff" stroke="none" points="916.75,-125.7 916.75,-144.7 974.75,-144.7 974.75,-125.7 916.75,-125.7"/>
<polygon fill="none" stroke="black" points="916.75,-125.7 916.75,-144.7 974.75,-144.7 974.75,-125.7 916.75,-125.7"/>
<text text-anchor="start" x="965.75" y="-131.25" font-family="Helvetica,sans-Serif" font-size="11.00"> &#160;</text>
<polygon fill="#ffffff" stroke="none" points="974.75,-125.7 974.75,-144.7 1042.75,-144.7 1042.75,-125.7 974.75,-125.7"/>
<polygon fill="none" stroke="black" points="974.75,-125.7 974.75,-144.7 1042.75,-144.7 1042.75,-125.7 974.75,-125.7"/>
<text text-anchor="start" x="1024" y="-131.25" font-family="Helvetica,sans-Serif" font-size="11.00">2 &gt;</text>
</a>
</g>
</g>
<!-- crm_lead&#45;&gt;res_partner -->
<g id="edge8" class="edge">
<title>crm_lead:w&#45;&gt;res_partner:e</title>
<path fill="none" stroke="black" d="M782.64,-181.82C706.88,-268.94 850.28,-1126.7 749.75,-1126.7"/>
<polygon fill="black" stroke="black" points="789.31,-178.46 798.07,-178.07 793.18,-176.5 796.15,-175.01 796.15,-175.01 796.15,-175.01 793.18,-176.5 794.83,-171.64 789.31,-178.46"/>
<ellipse fill="none" stroke="black" cx="784.92" cy="-180.67" rx="3.2" ry="3.2"/>
</g>
<!-- crm_lead&#45;&gt;res_partner -->
<g id="edge12" class="edge">
<title>crm_lead:w&#45;&gt;res_partner:e</title>
<path fill="none" stroke="black" d="M784.84,-602.43C747.89,-674.8 804.54,-1126.7 749.75,-1126.7"/>
<polygon fill="black" stroke="black" points="790.29,-597.97 798.77,-595.7 793.65,-595.23 796.23,-593.13 796.23,-593.13 796.23,-593.13 793.65,-595.23 794.21,-590.13 790.29,-597.97"/>
<ellipse fill="none" stroke="black" cx="786.48" cy="-601.09" rx="3.2" ry="3.2"/>
</g>
<!-- crm_lead&#45;&gt;res_users -->
<g id="edge9" class="edge">
<title>crm_lead:w&#45;&gt;res_users:e</title>
<path fill="none" stroke="black" d="M781.08,-196.69C674.93,-196.61 617.79,-197.73 550.75,-286.2 514.92,-333.49 570.08,-818.7 510.75,-818.7"/>
<polygon fill="black" stroke="black" points="788.41,-196.7 796.41,-200.3 792.75,-196.7 796.08,-196.7 796.08,-196.7 796.08,-196.7 792.75,-196.7 796.42,-193.1 788.41,-196.7"/>
<ellipse fill="none" stroke="black" cx="783.5" cy="-196.69" rx="3.2" ry="3.2"/>
</g>
<!-- crm_lead&#45;&gt;res_users -->
<g id="edge10" class="edge">
<title>crm_lead:w&#45;&gt;res_users:e</title>
<path fill="none" stroke="black" d="M781.2,-527.45C715.66,-533.13 585.63,-570.16 550.75,-610.2 488.78,-681.36 605.11,-818.7 510.75,-818.7"/>
<polygon fill="black" stroke="black" points="788.42,-527.11 796.59,-530.32 792.75,-526.9 796.08,-526.74 796.08,-526.74 796.08,-526.74 792.75,-526.9 796.24,-523.12 788.42,-527.11"/>
<ellipse fill="none" stroke="black" cx="783.51" cy="-527.34" rx="3.2" ry="3.2"/>
</g>
<!-- crm_lead&#45;&gt;res_users -->
<g id="edge11" class="edge">
<title>crm_lead:w&#45;&gt;res_users:e</title>
<path fill="none" stroke="black" d="M784.73,-228.69C735.38,-270.05 550.98,-425.78 550.75,-426.2 530.28,-464.97 554.59,-818.7 510.75,-818.7"/>
<polygon fill="black" stroke="black" points="790.34,-224.03 798.79,-221.69 793.67,-221.26 796.23,-219.13 796.23,-219.13 796.23,-219.13 793.67,-221.26 794.19,-216.15 790.34,-224.03"/>
<ellipse fill="none" stroke="black" cx="786.55" cy="-227.17" rx="3.2" ry="3.2"/>
</g>
<!-- crm_lead&#45;&gt;res_users -->
<g id="edge13" class="edge">
<title>crm_lead:w&#45;&gt;res_users:e</title>
<path fill="none" stroke="black" d="M781.41,-243.69C754.4,-257.22 783.53,-313.62 756.75,-350.2 688.44,-443.53 608.32,-408.89 550.75,-509.2 516.23,-569.35 580.1,-818.7 510.75,-818.7"/>
<polygon fill="black" stroke="black" points="788.57,-242.3 797.11,-244.3 792.82,-241.47 796.09,-240.83 796.09,-240.83 796.09,-240.83 792.82,-241.47 795.73,-237.23 788.57,-242.3"/>
<ellipse fill="none" stroke="black" cx="783.74" cy="-243.24" rx="3.2" ry="3.2"/>
</g>
<!-- crm_lead&#45;&gt;res_users -->
<g id="edge16" class="edge">
<title>crm_lead:w&#45;&gt;res_users:e</title>
<path fill="none" stroke="black" d="M782.23,-674.77C773.54,-664.78 774.41,-644.96 756.75,-637.2 672.92,-600.4 622.12,-579.85 550.75,-637.2 486.36,-688.95 593.35,-818.7 510.75,-818.7"/>
<polygon fill="black" stroke="black" points="789.03,-677.55 795.08,-683.91 793.05,-679.19 796.13,-680.45 796.13,-680.45 796.13,-680.45 793.05,-679.19 797.8,-677.25 789.03,-677.55"/>
<ellipse fill="none" stroke="black" cx="784.48" cy="-675.69" rx="3.2" ry="3.2"/>
</g>
<!-- crm_lead&#45;&gt;res_users -->
<g id="edge17" class="edge">
<title>crm_lead:w&#45;&gt;res_users:e</title>
<path fill="none" stroke="black" d="M781.02,-504.36C681.21,-500.04 625.94,-457.56 550.75,-530.2 504.2,-575.18 575.47,-818.7 510.75,-818.7"/>
<polygon fill="black" stroke="black" points="788.42,-504.52 796.34,-508.3 792.75,-504.62 796.08,-504.69 796.08,-504.69 796.08,-504.69 792.75,-504.62 796.49,-501.1 788.42,-504.52"/>
<ellipse fill="none" stroke="black" cx="783.5" cy="-504.41" rx="3.2" ry="3.2"/>
</g>
<!-- crm_lead&#45;&gt;crm_team -->
<g id="edge15" class="edge">
<title>crm_lead:w&#45;&gt;crm_team:e</title>
<path fill="none" stroke="black" d="M783.56,-666.54C729.48,-740.79 810.51,-1318.39 756.75,-1369.2 723.48,-1400.65 591.97,-1389.11 550.75,-1369.2 423.98,-1308.01 415.75,-1247.58 353.75,-1121.2 319.28,-1050.94 390.01,-950.2 311.75,-950.2"/>
<polygon fill="black" stroke="black" points="789.59,-662.96 798.3,-661.97 793.31,-660.75 796.17,-659.05 796.17,-659.05 796.17,-659.05 793.31,-660.75 794.62,-655.78 789.59,-662.96"/>
<ellipse fill="none" stroke="black" cx="785.36" cy="-665.48" rx="3.2" ry="3.2"/>
</g>
<!-- crm_stage -->
<g id="node6" class="node">
<title>crm_stage</title>
<g id="a_node6"><a xlink:href="../../tables/crm_stage.html" xlink:title="crm_stage" target="_top">
<polygon fill="#ffffff" stroke="none" points="600.75,-1209.7 600.75,-1358.7 706.75,-1358.7 706.75,-1209.7 600.75,-1209.7"/>
<polygon fill="#f5f5f5" stroke="none" points="600.75,-1335.7 600.75,-1358.7 706.75,-1358.7 706.75,-1335.7 600.75,-1335.7"/>
<polygon fill="none" stroke="black" points="600.75,-1335.7 600.75,-1358.7 706.75,-1358.7 706.75,-1335.7 600.75,-1335.7"/>
<text text-anchor="start" x="605.75" y="-1343.5" font-family="Helvetica,sans-Serif" font-weight="bold" font-size="11.00">crm_stage</text>
<text text-anchor="start" x="672.5" y="-1343.25" font-family="Helvetica,sans-Serif" font-size="11.00">[table]</text>
<polygon fill="none" stroke="black" points="600.75,-1313.7 600.75,-1335.7 706.75,-1335.7 706.75,-1313.7 600.75,-1313.7"/>
<image xlink:href="../../images/primaryKeys.png" width="11px" height="12px" preserveAspectRatio="xMinYMin meet" x="605.749" y="-1330.7"/>
<text text-anchor="start" x="620.75" y="-1320.25" font-family="Helvetica,sans-Serif" font-size="11.00">id</text>
<polygon fill="none" stroke="black" points="600.75,-1291.7 600.75,-1313.7 706.75,-1313.7 706.75,-1291.7 600.75,-1291.7"/>
<image xlink:href="../../images/foreignKeys.png" width="11px" height="12px" preserveAspectRatio="xMinYMin meet" x="605.749" y="-1308.7"/>
<text text-anchor="start" x="620.75" y="-1298.25" font-family="Helvetica,sans-Serif" font-size="11.00">team_id</text>
<polygon fill="none" stroke="black" points="600.75,-1269.7 600.75,-1291.7 706.75,-1291.7 706.75,-1269.7 600.75,-1269.7"/>
<image xlink:href="../../images/foreignKeys.png" width="11px" height="12px" preserveAspectRatio="xMinYMin meet" x="605.749" y="-1286.7"/>
<text text-anchor="start" x="620.75" y="-1276.25" font-family="Helvetica,sans-Serif" font-size="11.00">create_uid</text>
<polygon fill="none" stroke="black" points="600.75,-1247.7 600.75,-1269.7 706.75,-1269.7 706.75,-1247.7 600.75,-1247.7"/>
<image xlink:href="../../images/foreignKeys.png" width="11px" height="12px" preserveAspectRatio="xMinYMin meet" x="605.749" y="-1264.7"/>
<text text-anchor="start" x="620.75" y="-1254.25" font-family="Helvetica,sans-Serif" font-size="11.00">write_uid</text>
<polygon fill="none" stroke="black" points="600.75,-1228.7 600.75,-1247.7 706.75,-1247.7 706.75,-1228.7 600.75,-1228.7"/>
<text text-anchor="start" x="603.75" y="-1234.25" font-family="Helvetica,sans-Serif" font-size="11.00">...</text>
<polygon fill="#ffffff" stroke="none" points="600.75,-1209.7 600.75,-1228.7 647.75,-1228.7 647.75,-1209.7 600.75,-1209.7"/>
<polygon fill="none" stroke="black" points="600.75,-1209.7 600.75,-1228.7 647.75,-1228.7 647.75,-1209.7 600.75,-1209.7"/>
<text text-anchor="start" x="603.75" y="-1215.25" font-family="Helvetica,sans-Serif" font-size="11.00">&lt; 3</text>
<polygon fill="#ffffff" stroke="none" points="647.75,-1209.7 647.75,-1228.7 672.75,-1228.7 672.75,-1209.7 647.75,-1209.7"/>
<polygon fill="none" stroke="black" points="647.75,-1209.7 647.75,-1228.7 672.75,-1228.7 672.75,-1209.7 647.75,-1209.7"/>
<text text-anchor="start" x="663.75" y="-1215.25" font-family="Helvetica,sans-Serif" font-size="11.00"> &#160;</text>
<polygon fill="#ffffff" stroke="none" points="672.75,-1209.7 672.75,-1228.7 706.75,-1228.7 706.75,-1209.7 672.75,-1209.7"/>
<polygon fill="none" stroke="black" points="672.75,-1209.7 672.75,-1228.7 706.75,-1228.7 706.75,-1209.7 672.75,-1209.7"/>
<text text-anchor="start" x="688" y="-1215.25" font-family="Helvetica,sans-Serif" font-size="11.00">3 &gt;</text>
</a>
</g>
</g>
<!-- crm_lead&#45;&gt;crm_stage -->
<g id="edge14" class="edge">
<title>crm_lead:w&#45;&gt;crm_stage:e</title>
<path fill="none" stroke="black" d="M783.9,-623.34C739.75,-689.49 767.56,-1115.09 756.75,-1171.2 743.2,-1241.52 779.36,-1324.7 707.75,-1324.7"/>
<polygon fill="black" stroke="black" points="789.83,-619.35 798.48,-617.88 793.43,-616.94 796.19,-615.08 796.19,-615.08 796.19,-615.08 793.43,-616.94 794.46,-611.9 789.83,-619.35"/>
<ellipse fill="none" stroke="black" cx="785.75" cy="-622.1" rx="3.2" ry="3.2"/>
</g>
<!-- crm_stage&#45;&gt;res_users -->
<g id="edge18" class="edge">
<title>crm_stage:w&#45;&gt;res_users:e</title>
<path fill="none" stroke="black" d="M584.16,-1278.23C557.85,-1268.42 562.34,-1231.01 550.75,-1195.2 537.79,-1155.18 552.82,-818.7 510.75,-818.7"/>
<polygon fill="black" stroke="black" points="591.52,-1279.4 598.86,-1284.21 595.8,-1280.08 599.09,-1280.6 599.09,-1280.6 599.09,-1280.6 595.8,-1280.08 599.98,-1277.1 591.52,-1279.4"/>
<ellipse fill="none" stroke="black" cx="586.66" cy="-1278.63" rx="3.2" ry="3.2"/>
</g>
<!-- crm_stage&#45;&gt;res_users -->
<g id="edge20" class="edge">
<title>crm_stage:w&#45;&gt;res_users:e</title>
<path fill="none" stroke="black" d="M584.27,-1256.15C563.68,-1248.17 561.74,-1222.6 550.75,-1195.2 535.09,-1156.16 552.82,-818.7 510.75,-818.7"/>
<polygon fill="black" stroke="black" points="591.53,-1257.35 598.83,-1262.2 595.8,-1258.05 599.09,-1258.59 599.09,-1258.59 599.09,-1258.59 595.8,-1258.05 600.01,-1255.1 591.53,-1257.35"/>
<ellipse fill="none" stroke="black" cx="586.67" cy="-1256.55" rx="3.2" ry="3.2"/>
</g>
<!-- crm_stage&#45;&gt;crm_team -->
<g id="edge19" class="edge">
<title>crm_stage:w&#45;&gt;crm_team:e</title>
<path fill="none" stroke="black" d="M584.13,-1301.95C403.47,-1284.03 508.62,-950.2 311.75,-950.2"/>
<polygon fill="black" stroke="black" points="591.42,-1302.3 599.24,-1306.28 595.75,-1302.51 599.08,-1302.67 599.08,-1302.67 599.08,-1302.67 595.75,-1302.51 599.59,-1299.09 591.42,-1302.3"/>
<ellipse fill="none" stroke="black" cx="586.51" cy="-1302.07" rx="3.2" ry="3.2"/>
</g>
<!-- sale_order -->
<g id="node7" class="node">
<title>sale_order</title>
<g id="a_node7"><a xlink:href="../../tables/sale_order.html" xlink:title="sale_order" target="_top">
<polygon fill="#ffffff" stroke="none" points="1091.75,-411.7 1091.75,-1044.7 1289.75,-1044.7 1289.75,-411.7 1091.75,-411.7"/>
<polygon fill="#f5f5f5" stroke="none" points="1091.75,-1021.7 1091.75,-1044.7 1289.75,-1044.7 1289.75,-1021.7 1091.75,-1021.7"/>
<polygon fill="none" stroke="black" points="1091.75,-1021.7 1091.75,-1044.7 1289.75,-1044.7 1289.75,-1021.7 1091.75,-1021.7"/>
<text text-anchor="start" x="1096.75" y="-1029.5" font-family="Helvetica,sans-Serif" font-weight="bold" font-size="11.00">sale_order</text>
<text text-anchor="start" x="1255.5" y="-1029.25" font-family="Helvetica,sans-Serif" font-size="11.00">[table]</text>
<polygon fill="none" stroke="black" points="1091.75,-999.7 1091.75,-1021.7 1289.75,-1021.7 1289.75,-999.7 1091.75,-999.7"/>
<image xlink:href="../../images/primaryKeys.png" width="11px" height="12px" preserveAspectRatio="xMinYMin meet" x="1096.75" y="-1016.7"/>
<text text-anchor="start" x="1111.75" y="-1006.25" font-family="Helvetica,sans-Serif" font-size="11.00">id</text>
<polygon fill="#ffffff" stroke="none" points="1091.75,-977.7 1091.75,-999.7 1289.75,-999.7 1289.75,-977.7 1091.75,-977.7"/>
<polygon fill="none" stroke="black" points="1091.75,-977.7 1091.75,-999.7 1289.75,-999.7 1289.75,-977.7 1091.75,-977.7"/>
<text text-anchor="start" x="1111.75" y="-984.25" font-family="Helvetica,sans-Serif" font-size="11.00">company_id</text>
<polygon fill="#ffffff" stroke="none" points="1091.75,-955.7 1091.75,-977.7 1289.75,-977.7 1289.75,-955.7 1091.75,-955.7"/>
<polygon fill="none" stroke="black" points="1091.75,-955.7 1091.75,-977.7 1289.75,-977.7 1289.75,-955.7 1091.75,-955.7"/>
<image xlink:href="../../images/foreignKeys.png" width="11px" height="12px" preserveAspectRatio="xMinYMin meet" x="1096.75" y="-972.704"/>
<text text-anchor="start" x="1111.75" y="-962.25" font-family="Helvetica,sans-Serif" font-size="11.00">partner_id</text>
<polygon fill="none" stroke="black" points="1091.75,-933.7 1091.75,-955.7 1289.75,-955.7 1289.75,-933.7 1091.75,-933.7"/>
<image xlink:href="../../images/foreignKeys.png" width="11px" height="12px" preserveAspectRatio="xMinYMin meet" x="1096.75" y="-950.704"/>
<text text-anchor="start" x="1111.75" y="-940.25" font-family="Helvetica,sans-Serif" font-size="11.00">journal_id</text>
<polygon fill="#ffffff" stroke="none" points="1091.75,-911.7 1091.75,-933.7 1289.75,-933.7 1289.75,-911.7 1091.75,-911.7"/>
<polygon fill="none" stroke="black" points="1091.75,-911.7 1091.75,-933.7 1289.75,-933.7 1289.75,-911.7 1091.75,-911.7"/>
<image xlink:href="../../images/foreignKeys.png" width="11px" height="12px" preserveAspectRatio="xMinYMin meet" x="1096.75" y="-928.704"/>
<text text-anchor="start" x="1111.75" y="-918.25" font-family="Helvetica,sans-Serif" font-size="11.00">partner_invoice_id</text>
<polygon fill="#ffffff" stroke="none" points="1091.75,-889.7 1091.75,-911.7 1289.75,-911.7 1289.75,-889.7 1091.75,-889.7"/>
<polygon fill="none" stroke="black" points="1091.75,-889.7 1091.75,-911.7 1289.75,-911.7 1289.75,-889.7 1091.75,-889.7"/>
<image xlink:href="../../images/foreignKeys.png" width="11px" height="12px" preserveAspectRatio="xMinYMin meet" x="1096.75" y="-906.704"/>
<text text-anchor="start" x="1111.75" y="-896.25" font-family="Helvetica,sans-Serif" font-size="11.00">partner_shipping_id</text>
<polygon fill="none" stroke="black" points="1091.75,-867.7 1091.75,-889.7 1289.75,-889.7 1289.75,-867.7 1091.75,-867.7"/>
<image xlink:href="../../images/foreignKeys.png" width="11px" height="12px" preserveAspectRatio="xMinYMin meet" x="1096.75" y="-884.704"/>
<text text-anchor="start" x="1111.75" y="-874.25" font-family="Helvetica,sans-Serif" font-size="11.00">fiscal_position_id</text>
<polygon fill="#ffffff" stroke="none" points="1091.75,-845.7 1091.75,-867.7 1289.75,-867.7 1289.75,-845.7 1091.75,-845.7"/>
<polygon fill="none" stroke="black" points="1091.75,-845.7 1091.75,-867.7 1289.75,-867.7 1289.75,-845.7 1091.75,-845.7"/>
<image xlink:href="../../images/foreignKeys.png" width="11px" height="12px" preserveAspectRatio="xMinYMin meet" x="1096.75" y="-862.704"/>
<text text-anchor="start" x="1111.75" y="-852.25" font-family="Helvetica,sans-Serif" font-size="11.00">user_id</text>
<polygon fill="none" stroke="black" points="1091.75,-823.7 1091.75,-845.7 1289.75,-845.7 1289.75,-823.7 1091.75,-823.7"/>
<image xlink:href="../../images/foreignKeys.png" width="11px" height="12px" preserveAspectRatio="xMinYMin meet" x="1096.75" y="-840.704"/>
<text text-anchor="start" x="1111.75" y="-830.25" font-family="Helvetica,sans-Serif" font-size="11.00">team_id</text>
<polygon fill="none" stroke="black" points="1091.75,-801.7 1091.75,-823.7 1289.75,-823.7 1289.75,-801.7 1091.75,-801.7"/>
<image xlink:href="../../images/foreignKeys.png" width="11px" height="12px" preserveAspectRatio="xMinYMin meet" x="1096.75" y="-818.704"/>
<text text-anchor="start" x="1111.75" y="-808.25" font-family="Helvetica,sans-Serif" font-size="11.00">create_uid</text>
<polygon fill="none" stroke="black" points="1091.75,-779.7 1091.75,-801.7 1289.75,-801.7 1289.75,-779.7 1091.75,-779.7"/>
<image xlink:href="../../images/foreignKeys.png" width="11px" height="12px" preserveAspectRatio="xMinYMin meet" x="1096.75" y="-796.704"/>
<text text-anchor="start" x="1111.75" y="-786.25" font-family="Helvetica,sans-Serif" font-size="11.00">write_uid</text>
<polygon fill="#ffffff" stroke="none" points="1091.75,-757.7 1091.75,-779.7 1289.75,-779.7 1289.75,-757.7 1091.75,-757.7"/>
<polygon fill="none" stroke="black" points="1091.75,-757.7 1091.75,-779.7 1289.75,-779.7 1289.75,-757.7 1091.75,-757.7"/>
<text text-anchor="start" x="1111.75" y="-764.25" font-family="Helvetica,sans-Serif" font-size="11.00">name</text>
<polygon fill="#ffffff" stroke="none" points="1091.75,-735.7 1091.75,-757.7 1289.75,-757.7 1289.75,-735.7 1091.75,-735.7"/>
<polygon fill="none" stroke="black" points="1091.75,-735.7 1091.75,-757.7 1289.75,-757.7 1289.75,-735.7 1091.75,-735.7"/>
<text text-anchor="start" x="1111.75" y="-742.25" font-family="Helvetica,sans-Serif" font-size="11.00">state</text>
<polygon fill="#ffffff" stroke="none" points="1091.75,-713.7 1091.75,-735.7 1289.75,-735.7 1289.75,-713.7 1091.75,-713.7"/>
<polygon fill="none" stroke="black" points="1091.75,-713.7 1091.75,-735.7 1289.75,-735.7 1289.75,-713.7 1091.75,-713.7"/>
<text text-anchor="start" x="1111.75" y="-720.25" font-family="Helvetica,sans-Serif" font-size="11.00">create_date</text>
<polygon fill="#ffffff" stroke="none" points="1091.75,-691.7 1091.75,-713.7 1289.75,-713.7 1289.75,-691.7 1091.75,-691.7"/>
<polygon fill="none" stroke="black" points="1091.75,-691.7 1091.75,-713.7 1289.75,-713.7 1289.75,-691.7 1091.75,-691.7"/>
<text text-anchor="start" x="1111.75" y="-698.25" font-family="Helvetica,sans-Serif" font-size="11.00">date_order</text>
<polygon fill="none" stroke="black" points="1091.75,-669.7 1091.75,-691.7 1289.75,-691.7 1289.75,-669.7 1091.75,-669.7"/>
<image xlink:href="../../images/foreignKeys.png" width="11px" height="12px" preserveAspectRatio="xMinYMin meet" x="1096.75" y="-686.704"/>
<text text-anchor="start" x="1111.75" y="-676.25" font-family="Helvetica,sans-Serif" font-size="11.00">opportunity_id</text>
<polygon fill="#ffffff" stroke="none" points="1091.75,-647.7 1091.75,-669.7 1289.75,-669.7 1289.75,-647.7 1091.75,-647.7"/>
<polygon fill="none" stroke="black" points="1091.75,-647.7 1091.75,-669.7 1289.75,-669.7 1289.75,-647.7 1091.75,-647.7"/>
<text text-anchor="start" x="1111.75" y="-654.25" font-family="Helvetica,sans-Serif" font-size="11.00">is_subscription</text>
<polygon fill="#ffffff" stroke="none" points="1091.75,-625.7 1091.75,-647.7 1289.75,-647.7 1289.75,-625.7 1091.75,-625.7"/>
<polygon fill="none" stroke="black" points="1091.75,-625.7 1091.75,-647.7 1289.75,-647.7 1289.75,-625.7 1091.75,-625.7"/>
<text text-anchor="start" x="1111.75" y="-632.25" font-family="Helvetica,sans-Serif" font-size="11.00">subscription_state</text>
<polygon fill="#ffffff" stroke="none" points="1091.75,-603.7 1091.75,-625.7 1289.75,-625.7 1289.75,-603.7 1091.75,-603.7"/>
<polygon fill="none" stroke="black" points="1091.75,-603.7 1091.75,-625.7 1289.75,-625.7 1289.75,-603.7 1091.75,-603.7"/>
<image xlink:href="../../images/foreignKeys.png" width="11px" height="12px" preserveAspectRatio="xMinYMin meet" x="1096.75" y="-620.704"/>
<text text-anchor="start" x="1111.75" y="-610.25" font-family="Helvetica,sans-Serif" font-size="11.00">origin_order_id</text>
<polygon fill="#ffffff" stroke="none" points="1091.75,-581.7 1091.75,-603.7 1289.75,-603.7 1289.75,-581.7 1091.75,-581.7"/>
<polygon fill="none" stroke="black" points="1091.75,-581.7 1091.75,-603.7 1289.75,-603.7 1289.75,-581.7 1091.75,-581.7"/>
<image xlink:href="../../images/foreignKeys.png" width="11px" height="12px" preserveAspectRatio="xMinYMin meet" x="1096.75" y="-598.704"/>
<text text-anchor="start" x="1111.75" y="-588.25" font-family="Helvetica,sans-Serif" font-size="11.00">subscription_id</text>
<polygon fill="#ffffff" stroke="none" points="1091.75,-559.7 1091.75,-581.7 1289.75,-581.7 1289.75,-559.7 1091.75,-559.7"/>
<polygon fill="none" stroke="black" points="1091.75,-559.7 1091.75,-581.7 1289.75,-581.7 1289.75,-559.7 1091.75,-559.7"/>
<text text-anchor="start" x="1111.75" y="-566.25" font-family="Helvetica,sans-Serif" font-size="11.00">plan_id</text>
<polygon fill="none" stroke="black" points="1091.75,-537.7 1091.75,-559.7 1289.75,-559.7 1289.75,-537.7 1091.75,-537.7"/>
<image xlink:href="../../images/foreignKeys.png" width="11px" height="12px" preserveAspectRatio="xMinYMin meet" x="1096.75" y="-554.704"/>
<text text-anchor="start" x="1111.75" y="-544.25" font-family="Helvetica,sans-Serif" font-size="11.00">project_id</text>
<polygon fill="none" stroke="black" points="1091.75,-515.7 1091.75,-537.7 1289.75,-537.7 1289.75,-515.7 1091.75,-515.7"/>
<image xlink:href="../../images/foreignKeys.png" width="11px" height="12px" preserveAspectRatio="xMinYMin meet" x="1096.75" y="-532.704"/>
<text text-anchor="start" x="1111.75" y="-522.25" font-family="Helvetica,sans-Serif" font-size="11.00">sale_assist_user_id</text>
<polygon fill="none" stroke="black" points="1091.75,-493.7 1091.75,-515.7 1289.75,-515.7 1289.75,-493.7 1091.75,-493.7"/>
<image xlink:href="../../images/foreignKeys.png" width="11px" height="12px" preserveAspectRatio="xMinYMin meet" x="1096.75" y="-510.704"/>
<text text-anchor="start" x="1111.75" y="-500.25" font-family="Helvetica,sans-Serif" font-size="11.00">introduced_by_user_id</text>
<polygon fill="none" stroke="black" points="1091.75,-471.7 1091.75,-493.7 1289.75,-493.7 1289.75,-471.7 1091.75,-471.7"/>
<image xlink:href="../../images/foreignKeys.png" width="11px" height="12px" preserveAspectRatio="xMinYMin meet" x="1096.75" y="-488.704"/>
<text text-anchor="start" x="1111.75" y="-478.25" font-family="Helvetica,sans-Serif" font-size="11.00">citizen_id</text>
<polygon fill="none" stroke="black" points="1091.75,-449.7 1091.75,-471.7 1289.75,-471.7 1289.75,-449.7 1091.75,-449.7"/>
<image xlink:href="../../images/foreignKeys.png" width="11px" height="12px" preserveAspectRatio="xMinYMin meet" x="1096.75" y="-466.704"/>
<text text-anchor="start" x="1111.75" y="-456.25" font-family="Helvetica,sans-Serif" font-size="11.00">project_campaign_id</text>
<polygon fill="none" stroke="black" points="1091.75,-430.7 1091.75,-449.7 1289.75,-449.7 1289.75,-430.7 1091.75,-430.7"/>
<text text-anchor="start" x="1094.75" y="-436.25" font-family="Helvetica,sans-Serif" font-size="11.00">...</text>
<polygon fill="#ffffff" stroke="none" points="1091.75,-411.7 1091.75,-430.7 1187.75,-430.7 1187.75,-411.7 1091.75,-411.7"/>
<polygon fill="none" stroke="black" points="1091.75,-411.7 1091.75,-430.7 1187.75,-430.7 1187.75,-411.7 1091.75,-411.7"/>
<text text-anchor="start" x="1094.75" y="-417.25" font-family="Helvetica,sans-Serif" font-size="11.00">&lt; 17</text>
<polygon fill="#ffffff" stroke="none" points="1187.75,-411.7 1187.75,-430.7 1233.75,-430.7 1233.75,-411.7 1187.75,-411.7"/>
<polygon fill="none" stroke="black" points="1187.75,-411.7 1187.75,-430.7 1233.75,-430.7 1233.75,-411.7 1187.75,-411.7"/>
<text text-anchor="start" x="1224.75" y="-417.25" font-family="Helvetica,sans-Serif" font-size="11.00"> &#160;</text>
<polygon fill="#ffffff" stroke="none" points="1233.75,-411.7 1233.75,-430.7 1289.75,-430.7 1289.75,-411.7 1233.75,-411.7"/>
<polygon fill="none" stroke="black" points="1233.75,-411.7 1233.75,-430.7 1289.75,-430.7 1289.75,-411.7 1233.75,-411.7"/>
<text text-anchor="start" x="1271" y="-417.25" font-family="Helvetica,sans-Serif" font-size="11.00">5 &gt;</text>
</a>
</g>
</g>
<!-- sale_order&#45;&gt;res_partner -->
<g id="edge32" class="edge">
<title>sale_order:w&#45;&gt;res_partner:e</title>
<path fill="none" stroke="black" d="M1076.38,-488.52C1040.92,-523.25 1081.47,-703.23 1050.75,-747.2 974.99,-855.63 866.45,-782.44 789.75,-890.2 758.84,-933.63 803.05,-1126.7 749.75,-1126.7"/>
<polygon fill="black" stroke="black" points="1083.02,-485.83 1091.79,-486.17 1087.04,-484.2 1090.13,-482.95 1090.13,-482.95 1090.13,-482.95 1087.04,-484.2 1089.09,-479.49 1083.02,-485.83"/>
<ellipse fill="none" stroke="black" cx="1078.46" cy="-487.68" rx="3.2" ry="3.2"/>
</g>
<!-- sale_order&#45;&gt;res_partner -->
<g id="edge36" class="edge">
<title>sale_order:w&#45;&gt;res_partner:e</title>
<path fill="none" stroke="black" d="M1075.03,-966.16C998.98,-961.52 838.71,-929.87 789.75,-968.2 732.55,-1012.99 822.4,-1126.7 749.75,-1126.7"/>
<polygon fill="black" stroke="black" points="1082.42,-966.41 1090.29,-970.29 1086.75,-966.56 1090.08,-966.68 1090.08,-966.68 1090.08,-966.68 1086.75,-966.56 1090.54,-963.09 1082.42,-966.41"/>
<ellipse fill="none" stroke="black" cx="1077.5" cy="-966.24" rx="3.2" ry="3.2"/>
</g>
<!-- sale_order&#45;&gt;res_partner -->
<g id="edge37" class="edge">
<title>sale_order:w&#45;&gt;res_partner:e</title>
<path fill="none" stroke="black" d="M1074.96,-922.43C998.54,-920.14 836.84,-905.29 789.75,-946.2 727.72,-1000.09 831.92,-1126.7 749.75,-1126.7"/>
<polygon fill="black" stroke="black" points="1082.42,-922.56 1090.35,-926.3 1086.75,-922.63 1090.08,-922.69 1090.08,-922.69 1090.08,-922.69 1086.75,-922.63 1090.48,-919.1 1082.42,-922.56"/>
<ellipse fill="none" stroke="black" cx="1077.5" cy="-922.47" rx="3.2" ry="3.2"/>
</g>
<!-- sale_order&#45;&gt;res_partner -->
<g id="edge38" class="edge">
<title>sale_order:w&#45;&gt;res_partner:e</title>
<path fill="none" stroke="black" d="M1074.98,-900.36C951.5,-895.02 886.84,-829.95 789.75,-914.2 717.17,-977.19 845.85,-1126.7 749.75,-1126.7"/>
<polygon fill="black" stroke="black" points="1082.42,-900.52 1090.34,-904.3 1086.75,-900.62 1090.08,-900.69 1090.08,-900.69 1090.08,-900.69 1086.75,-900.62 1090.49,-897.1 1082.42,-900.52"/>
<ellipse fill="none" stroke="black" cx="1077.5" cy="-900.42" rx="3.2" ry="3.2"/>
</g>
<!-- sale_order&#45;&gt;res_users -->
<g id="edge33" class="edge">
<title>sale_order:w&#45;&gt;res_users:e</title>
<path fill="none" stroke="black" d="M1075.01,-813.07C998.95,-816.1 838.94,-836.37 789.75,-798.2 750.43,-767.7 796.79,-720.76 756.75,-691.2 719.92,-664.02 587.65,-664.11 550.75,-691.2 502.88,-726.36 570.14,-818.7 510.75,-818.7"/>
<polygon fill="black" stroke="black" points="1082.42,-812.9 1090.5,-816.31 1086.75,-812.8 1090.08,-812.72 1090.08,-812.72 1090.08,-812.72 1086.75,-812.8 1090.33,-809.11 1082.42,-812.9"/>
<ellipse fill="none" stroke="black" cx="1077.5" cy="-813.01" rx="3.2" ry="3.2"/>
</g>
<!-- sale_order&#45;&gt;res_users -->
<g id="edge34" class="edge">
<title>sale_order:w&#45;&gt;res_users:e</title>
<path fill="none" stroke="black" d="M1075.84,-500.74C1012.78,-461.9 1114.83,-149.38 1050.75,-91.2 968.49,-16.51 631.44,-14.82 550.75,-91.2 491.95,-146.85 591.7,-818.7 510.75,-818.7"/>
<polygon fill="black" stroke="black" points="1082.69,-502.56 1089.5,-508.1 1086.88,-503.68 1090.1,-504.53 1090.1,-504.53 1090.1,-504.53 1086.88,-503.68 1091.35,-501.14 1082.69,-502.56"/>
<ellipse fill="none" stroke="black" cx="1077.94" cy="-501.3" rx="3.2" ry="3.2"/>
</g>
<!-- sale_order&#45;&gt;res_users -->
<g id="edge39" class="edge">
<title>sale_order:w&#45;&gt;res_users:e</title>
<path fill="none" stroke="black" d="M1075.52,-522.52C1013.55,-482.81 1114.4,-172.97 1050.75,-115.2 967.45,-39.61 619.52,-105.18 550.75,-194.2 508.24,-249.23 580.28,-818.7 510.75,-818.7"/>
<polygon fill="black" stroke="black" points="1082.71,-524.49 1089.47,-530.09 1086.89,-525.64 1090.1,-526.53 1090.1,-526.53 1090.1,-526.53 1086.89,-525.64 1091.38,-523.14 1082.71,-524.49"/>
<ellipse fill="none" stroke="black" cx="1077.97" cy="-523.19" rx="3.2" ry="3.2"/>
</g>
<!-- sale_order&#45;&gt;res_users -->
<g id="edge41" class="edge">
<title>sale_order:w&#45;&gt;res_users:e</title>
<path fill="none" stroke="black" d="M1074.92,-856.77C998.42,-857.25 837.93,-859.27 789.75,-819.2 752.46,-788.2 795.88,-743.84 756.75,-715.2 719.81,-688.17 588.51,-689.32 550.75,-715.2 510.08,-743.09 560.06,-818.7 510.75,-818.7"/>
<polygon fill="black" stroke="black" points="1082.41,-856.74 1090.43,-860.31 1086.75,-856.72 1090.08,-856.71 1090.08,-856.71 1090.08,-856.71 1086.75,-856.72 1090.4,-853.11 1082.41,-856.74"/>
<ellipse fill="none" stroke="black" cx="1077.5" cy="-856.76" rx="3.2" ry="3.2"/>
</g>
<!-- sale_order&#45;&gt;res_users -->
<g id="edge42" class="edge">
<title>sale_order:w&#45;&gt;res_users:e</title>
<path fill="none" stroke="black" d="M1074.91,-790.66C998.47,-790.23 839.33,-785.8 789.75,-747.2 759.4,-723.58 788.71,-688.6 756.75,-667.2 718.7,-641.74 587.02,-639.27 550.75,-667.2 495.58,-709.7 580.39,-818.7 510.75,-818.7"/>
<polygon fill="black" stroke="black" points="1082.41,-790.68 1090.41,-794.3 1086.75,-790.69 1090.08,-790.7 1090.08,-790.7 1090.08,-790.7 1086.75,-790.69 1090.42,-787.1 1082.41,-790.68"/>
<ellipse fill="none" stroke="black" cx="1077.5" cy="-790.67" rx="3.2" ry="3.2"/>
</g>
<!-- sale_order&#45;&gt;crm_team -->
<g id="edge40" class="edge">
<title>sale_order:w&#45;&gt;crm_team:e</title>
<path fill="none" stroke="black" d="M1081.27,-847.17C1044.93,-956.06 1085.92,-1742.49 1050.75,-1776.2 967,-1856.47 896.41,-1821.79 789.75,-1776.2 531.91,-1666 472.68,-1574.13 353.75,-1320.2 318.65,-1245.27 394.5,-950.2 311.75,-950.2"/>
<polygon fill="black" stroke="black" points="1085.71,-841.34 1093.41,-837.15 1088.33,-837.89 1090.34,-835.24 1090.34,-835.24 1090.34,-835.24 1088.33,-837.89 1087.68,-832.79 1085.71,-841.34"/>
<ellipse fill="none" stroke="black" cx="1082.73" cy="-845.25" rx="3.2" ry="3.2"/>
</g>
<!-- sale_order&#45;&gt;crm_lead -->
<g id="edge35" class="edge">
<title>sale_order:w&#45;&gt;crm_lead:e</title>
<path fill="none" stroke="black" d="M1075.57,-684.95C1065.44,-691.34 1060.33,-702.7 1043.75,-702.7"/>
<polygon fill="black" stroke="black" points="1082.72,-682.95 1091.4,-684.26 1086.9,-681.78 1090.1,-680.88 1090.1,-680.88 1090.1,-680.88 1086.9,-681.78 1089.46,-677.33 1082.72,-682.95"/>
<ellipse fill="none" stroke="black" cx="1077.99" cy="-684.27" rx="3.2" ry="3.2"/>
</g>
</g>
</svg>
