<?xml version="1.0" encoding="UTF-8" standalone="no"?>
<!DOCTYPE svg PUBLIC "-//W3C//DTD SVG 1.1//EN"
 "http://www.w3.org/Graphics/SVG/1.1/DTD/svg11.dtd">
<!-- Generated by graphviz version 12.0.0 (0)
 -->
<!-- Title: oneDegreeRelationshipsDiagram Pages: 1 -->
<svg width="651pt" height="366pt"
 viewBox="0.00 0.00 651.00 366.00" xmlns="http://www.w3.org/2000/svg" xmlns:xlink="http://www.w3.org/1999/xlink">
<g id="graph0" class="graph" transform="scale(1 1) rotate(0) translate(4 362)">
<title>oneDegreeRelationshipsDiagram</title>
<polygon fill="#ffffff" stroke="none" points="-4,4 -4,-362 647,-362 647,4 -4,4"/>
<text text-anchor="middle" x="71.38" y="-7.05" font-family="Helvetica,sans-Serif" font-size="11.00">Generated by SchemaSpy</text>
<!-- crm_stage -->
<g id="node1" class="node">
<title>crm_stage</title>
<g id="a_node1"><a xlink:href="../../tables/crm_stage.html" xlink:title="crm_stage" target="_top">
<polygon fill="#ffffff" stroke="none" points="205,-205 205,-354 311,-354 311,-205 205,-205"/>
<polygon fill="#f5f5f5" stroke="none" points="205,-331 205,-354 311,-354 311,-331 205,-331"/>
<polygon fill="none" stroke="black" points="205,-331 205,-354 311,-354 311,-331 205,-331"/>
<text text-anchor="start" x="210" y="-338.8" font-family="Helvetica,sans-Serif" font-weight="bold" font-size="11.00">crm_stage</text>
<text text-anchor="start" x="276.75" y="-338.55" font-family="Helvetica,sans-Serif" font-size="11.00">[table]</text>
<polygon fill="none" stroke="black" points="205,-309 205,-331 311,-331 311,-309 205,-309"/>
<image xlink:href="../../images/primaryKeys.png" width="11px" height="12px" preserveAspectRatio="xMinYMin meet" x="210" y="-326"/>
<text text-anchor="start" x="225" y="-315.55" font-family="Helvetica,sans-Serif" font-size="11.00">id</text>
<polygon fill="none" stroke="black" points="205,-287 205,-309 311,-309 311,-287 205,-287"/>
<image xlink:href="../../images/foreignKeys.png" width="11px" height="12px" preserveAspectRatio="xMinYMin meet" x="210" y="-304"/>
<text text-anchor="start" x="225" y="-293.55" font-family="Helvetica,sans-Serif" font-size="11.00">team_id</text>
<polygon fill="none" stroke="black" points="205,-265 205,-287 311,-287 311,-265 205,-265"/>
<image xlink:href="../../images/foreignKeys.png" width="11px" height="12px" preserveAspectRatio="xMinYMin meet" x="210" y="-282"/>
<text text-anchor="start" x="225" y="-271.55" font-family="Helvetica,sans-Serif" font-size="11.00">create_uid</text>
<polygon fill="none" stroke="black" points="205,-243 205,-265 311,-265 311,-243 205,-243"/>
<image xlink:href="../../images/foreignKeys.png" width="11px" height="12px" preserveAspectRatio="xMinYMin meet" x="210" y="-260"/>
<text text-anchor="start" x="225" y="-249.55" font-family="Helvetica,sans-Serif" font-size="11.00">write_uid</text>
<polygon fill="none" stroke="black" points="205,-224 205,-243 311,-243 311,-224 205,-224"/>
<text text-anchor="start" x="208" y="-229.55" font-family="Helvetica,sans-Serif" font-size="11.00">...</text>
<polygon fill="#ffffff" stroke="none" points="205,-205 205,-224 252,-224 252,-205 205,-205"/>
<polygon fill="none" stroke="black" points="205,-205 205,-224 252,-224 252,-205 205,-205"/>
<text text-anchor="start" x="208" y="-210.55" font-family="Helvetica,sans-Serif" font-size="11.00">&lt; 3</text>
<polygon fill="#ffffff" stroke="none" points="252,-205 252,-224 277,-224 277,-205 252,-205"/>
<polygon fill="none" stroke="black" points="252,-205 252,-224 277,-224 277,-205 252,-205"/>
<text text-anchor="start" x="268" y="-210.55" font-family="Helvetica,sans-Serif" font-size="11.00"> &#160;</text>
<polygon fill="#ffffff" stroke="none" points="277,-205 277,-224 311,-224 311,-205 277,-205"/>
<polygon fill="none" stroke="black" points="277,-205 277,-224 311,-224 311,-205 277,-205"/>
<text text-anchor="start" x="292.25" y="-210.55" font-family="Helvetica,sans-Serif" font-size="11.00">3 &gt;</text>
</a>
</g>
</g>
<!-- res_users -->
<g id="node2" class="node">
<title>res_users</title>
<g id="a_node2"><a xlink:href="../../tables/res_users.html" xlink:title="res_users" target="_top">
<polygon fill="#ffffff" stroke="none" points="8,-58 8,-251 156,-251 156,-58 8,-58"/>
<polygon fill="#f5f5f5" stroke="none" points="8,-228 8,-251 156,-251 156,-228 8,-228"/>
<polygon fill="none" stroke="black" points="8,-228 8,-251 156,-251 156,-228 8,-228"/>
<text text-anchor="start" x="12.62" y="-235.8" font-family="Helvetica,sans-Serif" font-weight="bold" font-size="11.00">res_users</text>
<text text-anchor="start" x="121.75" y="-235.55" font-family="Helvetica,sans-Serif" font-size="11.00">[table]</text>
<polygon fill="none" stroke="black" points="8,-206 8,-228 156,-228 156,-206 8,-206"/>
<image xlink:href="../../images/primaryKeys.png" width="11px" height="12px" preserveAspectRatio="xMinYMin meet" x="13" y="-223"/>
<text text-anchor="start" x="28" y="-212.55" font-family="Helvetica,sans-Serif" font-size="11.00">id</text>
<polygon fill="#ffffff" stroke="none" points="8,-184 8,-206 156,-206 156,-184 8,-184"/>
<polygon fill="none" stroke="black" points="8,-184 8,-206 156,-206 156,-184 8,-184"/>
<image xlink:href="../../images/foreignKeys.png" width="11px" height="12px" preserveAspectRatio="xMinYMin meet" x="13" y="-201"/>
<text text-anchor="start" x="28" y="-190.55" font-family="Helvetica,sans-Serif" font-size="11.00">partner_id</text>
<polygon fill="#ffffff" stroke="none" points="8,-162 8,-184 156,-184 156,-162 8,-162"/>
<polygon fill="none" stroke="black" points="8,-162 8,-184 156,-184 156,-162 8,-162"/>
<text text-anchor="start" x="28" y="-168.55" font-family="Helvetica,sans-Serif" font-size="11.00">login</text>
<polygon fill="none" stroke="black" points="8,-140 8,-162 156,-162 156,-140 8,-140"/>
<image xlink:href="../../images/foreignKeys.png" width="11px" height="12px" preserveAspectRatio="xMinYMin meet" x="13" y="-157"/>
<text text-anchor="start" x="28" y="-146.55" font-family="Helvetica,sans-Serif" font-size="11.00">create_uid</text>
<polygon fill="none" stroke="black" points="8,-118 8,-140 156,-140 156,-118 8,-118"/>
<image xlink:href="../../images/foreignKeys.png" width="11px" height="12px" preserveAspectRatio="xMinYMin meet" x="13" y="-135"/>
<text text-anchor="start" x="28" y="-124.55" font-family="Helvetica,sans-Serif" font-size="11.00">write_uid</text>
<polygon fill="none" stroke="black" points="8,-96 8,-118 156,-118 156,-96 8,-96"/>
<image xlink:href="../../images/foreignKeys.png" width="11px" height="12px" preserveAspectRatio="xMinYMin meet" x="13" y="-113"/>
<text text-anchor="start" x="28" y="-102.55" font-family="Helvetica,sans-Serif" font-size="11.00">sale_team_id</text>
<polygon fill="none" stroke="black" points="8,-77 8,-96 156,-96 156,-77 8,-77"/>
<text text-anchor="start" x="11" y="-82.55" font-family="Helvetica,sans-Serif" font-size="11.00">...</text>
<polygon fill="#ffffff" stroke="none" points="8,-58 8,-77 73,-77 73,-58 8,-58"/>
<polygon fill="none" stroke="black" points="8,-58 8,-77 73,-77 73,-58 8,-58"/>
<text text-anchor="start" x="11" y="-63.55" font-family="Helvetica,sans-Serif" font-size="11.00">&lt; 4</text>
<polygon fill="#ffffff" stroke="none" points="73,-58 73,-77 107,-77 107,-58 73,-58"/>
<polygon fill="none" stroke="black" points="73,-58 73,-77 107,-77 107,-58 73,-58"/>
<text text-anchor="start" x="98" y="-63.55" font-family="Helvetica,sans-Serif" font-size="11.00"> &#160;</text>
<polygon fill="#ffffff" stroke="none" points="107,-58 107,-77 156,-77 156,-58 107,-58"/>
<polygon fill="none" stroke="black" points="107,-58 107,-77 156,-77 156,-58 107,-58"/>
<text text-anchor="start" x="131.25" y="-63.55" font-family="Helvetica,sans-Serif" font-size="11.00">65 &gt;</text>
</a>
</g>
</g>
<!-- crm_stage&#45;&gt;res_users -->
<g id="edge1" class="edge">
<title>crm_stage:w&#45;&gt;res_users:e</title>
<path fill="none" stroke="black" d="M189.69,-270.13C176.26,-255.2 183.98,-217 157,-217"/>
<polygon fill="black" stroke="black" points="196.29,-272.84 202.32,-279.2 200.3,-274.48 203.38,-275.75 203.38,-275.75 203.38,-275.75 200.3,-274.48 205.06,-272.54 196.29,-272.84"/>
<ellipse fill="none" stroke="black" cx="191.74" cy="-270.97" rx="3.2" ry="3.2"/>
</g>
<!-- crm_stage&#45;&gt;res_users -->
<g id="edge2" class="edge">
<title>crm_stage:w&#45;&gt;res_users:e</title>
<path fill="none" stroke="black" d="M189.52,-248.54C178.48,-238.25 177.15,-217 157,-217"/>
<polygon fill="black" stroke="black" points="196.2,-251.06 202.42,-257.25 200.26,-252.59 203.37,-253.76 203.37,-253.76 203.37,-253.76 200.26,-252.59 204.96,-250.51 196.2,-251.06"/>
<ellipse fill="none" stroke="black" cx="191.6" cy="-249.33" rx="3.2" ry="3.2"/>
</g>
<!-- crm_stage_requirement -->
<g id="node3" class="node">
<title>crm_stage_requirement</title>
<g id="a_node3"><a xlink:href="../../tables/crm_stage_requirement.html" xlink:title="crm_stage_requirement" target="_top">
<polygon fill="#ffffff" stroke="none" points="360,-38.5 360,-304.5 635,-304.5 635,-38.5 360,-38.5"/>
<polygon fill="#f5f5f5" stroke="none" points="362,-279.5 362,-302.5 633,-302.5 633,-279.5 362,-279.5"/>
<polygon fill="none" stroke="black" points="362,-279.5 362,-302.5 633,-302.5 633,-279.5 362,-279.5"/>
<text text-anchor="start" x="367" y="-287.3" font-family="Helvetica,sans-Serif" font-weight="bold" font-size="11.00">crm_stage_requirement</text>
<text text-anchor="start" x="598.75" y="-287.05" font-family="Helvetica,sans-Serif" font-size="11.00">[table]</text>
<polygon fill="none" stroke="black" points="362,-257.5 362,-279.5 525,-279.5 525,-257.5 362,-257.5"/>
<image xlink:href="../../images/primaryKeys.png" width="11px" height="12px" preserveAspectRatio="xMinYMin meet" x="367" y="-274.5"/>
<text text-anchor="start" x="382" y="-264.05" font-family="Helvetica,sans-Serif" font-size="11.00">id</text>
<polygon fill="none" stroke="black" points="525,-257.5 525,-279.5 633,-279.5 633,-257.5 525,-257.5"/>
<text text-anchor="start" x="528" y="-264.8" font-family="Helvetica,sans-Serif" font-size="11.00">serial[10]</text>
<polygon fill="none" stroke="black" points="362,-235.5 362,-257.5 525,-257.5 525,-235.5 362,-235.5"/>
<text text-anchor="start" x="382" y="-242.05" font-family="Helvetica,sans-Serif" font-size="11.00">sequence</text>
<polygon fill="none" stroke="black" points="525,-235.5 525,-257.5 633,-257.5 633,-235.5 525,-235.5"/>
<text text-anchor="start" x="528" y="-242.8" font-family="Helvetica,sans-Serif" font-size="11.00">int4[10]</text>
<polygon fill="#ffffff" stroke="none" points="362,-213.5 362,-235.5 525,-235.5 525,-213.5 362,-213.5"/>
<polygon fill="none" stroke="black" points="362,-213.5 362,-235.5 525,-235.5 525,-213.5 362,-213.5"/>
<image xlink:href="../../images/foreignKeys.png" width="11px" height="12px" preserveAspectRatio="xMinYMin meet" x="367" y="-230.5"/>
<text text-anchor="start" x="382" y="-220.05" font-family="Helvetica,sans-Serif" font-size="11.00">stage_id</text>
<polygon fill="none" stroke="black" points="525,-213.5 525,-235.5 633,-235.5 633,-213.5 525,-213.5"/>
<text text-anchor="start" x="528" y="-220.8" font-family="Helvetica,sans-Serif" font-size="11.00">int4[10]</text>
<polygon fill="none" stroke="black" points="362,-191.5 362,-213.5 525,-213.5 525,-191.5 362,-191.5"/>
<text text-anchor="start" x="382" y="-198.05" font-family="Helvetica,sans-Serif" font-size="11.00">company_id</text>
<polygon fill="none" stroke="black" points="525,-191.5 525,-213.5 633,-213.5 633,-191.5 525,-191.5"/>
<text text-anchor="start" x="528" y="-198.8" font-family="Helvetica,sans-Serif" font-size="11.00">int4[10]</text>
<polygon fill="none" stroke="black" points="362,-169.5 362,-191.5 525,-191.5 525,-169.5 362,-169.5"/>
<image xlink:href="../../images/foreignKeys.png" width="11px" height="12px" preserveAspectRatio="xMinYMin meet" x="367" y="-186.5"/>
<text text-anchor="start" x="382" y="-176.05" font-family="Helvetica,sans-Serif" font-size="11.00">create_uid</text>
<polygon fill="none" stroke="black" points="525,-169.5 525,-191.5 633,-191.5 633,-169.5 525,-169.5"/>
<text text-anchor="start" x="528" y="-176.8" font-family="Helvetica,sans-Serif" font-size="11.00">int4[10]</text>
<polygon fill="none" stroke="black" points="362,-147.5 362,-169.5 525,-169.5 525,-147.5 362,-147.5"/>
<image xlink:href="../../images/foreignKeys.png" width="11px" height="12px" preserveAspectRatio="xMinYMin meet" x="367" y="-164.5"/>
<text text-anchor="start" x="382" y="-154.05" font-family="Helvetica,sans-Serif" font-size="11.00">write_uid</text>
<polygon fill="none" stroke="black" points="525,-147.5 525,-169.5 633,-169.5 633,-147.5 525,-147.5"/>
<text text-anchor="start" x="528" y="-154.8" font-family="Helvetica,sans-Serif" font-size="11.00">int4[10]</text>
<polygon fill="#ffffff" stroke="none" points="362,-125.5 362,-147.5 525,-147.5 525,-125.5 362,-125.5"/>
<polygon fill="none" stroke="black" points="362,-125.5 362,-147.5 525,-147.5 525,-125.5 362,-125.5"/>
<text text-anchor="start" x="382" y="-132.05" font-family="Helvetica,sans-Serif" font-size="11.00">name</text>
<polygon fill="none" stroke="black" points="525,-125.5 525,-147.5 633,-147.5 633,-125.5 525,-125.5"/>
<text text-anchor="start" x="528" y="-132.8" font-family="Helvetica,sans-Serif" font-size="11.00">varchar[2147483647]</text>
<polygon fill="none" stroke="black" points="362,-103.5 362,-125.5 525,-125.5 525,-103.5 362,-103.5"/>
<text text-anchor="start" x="382" y="-110.05" font-family="Helvetica,sans-Serif" font-size="11.00">description</text>
<polygon fill="none" stroke="black" points="525,-103.5 525,-125.5 633,-125.5 633,-103.5 525,-103.5"/>
<text text-anchor="start" x="528" y="-110.8" font-family="Helvetica,sans-Serif" font-size="11.00">varchar[2147483647]</text>
<polygon fill="none" stroke="black" points="362,-81.5 362,-103.5 525,-103.5 525,-81.5 362,-81.5"/>
<text text-anchor="start" x="382" y="-88.05" font-family="Helvetica,sans-Serif" font-size="11.00">create_date</text>
<polygon fill="none" stroke="black" points="525,-81.5 525,-103.5 633,-103.5 633,-81.5 525,-81.5"/>
<text text-anchor="start" x="528" y="-88.8" font-family="Helvetica,sans-Serif" font-size="11.00">timestamp[29,6]</text>
<polygon fill="none" stroke="black" points="362,-59.5 362,-81.5 525,-81.5 525,-59.5 362,-59.5"/>
<text text-anchor="start" x="382" y="-66.05" font-family="Helvetica,sans-Serif" font-size="11.00">write_date</text>
<polygon fill="none" stroke="black" points="525,-59.5 525,-81.5 633,-81.5 633,-59.5 525,-59.5"/>
<text text-anchor="start" x="528" y="-66.8" font-family="Helvetica,sans-Serif" font-size="11.00">timestamp[29,6]</text>
<polygon fill="#ffffff" stroke="none" points="362,-40.5 362,-59.5 448,-59.5 448,-40.5 362,-40.5"/>
<polygon fill="none" stroke="black" points="362,-40.5 362,-59.5 448,-59.5 448,-40.5 362,-40.5"/>
<text text-anchor="start" x="365" y="-46.05" font-family="Helvetica,sans-Serif" font-size="11.00">&lt; 3</text>
<polygon fill="#ffffff" stroke="none" points="448,-40.5 448,-59.5 525,-59.5 525,-40.5 448,-40.5"/>
<polygon fill="none" stroke="black" points="448,-40.5 448,-59.5 525,-59.5 525,-40.5 448,-40.5"/>
<text text-anchor="start" x="516" y="-46.05" font-family="Helvetica,sans-Serif" font-size="11.00"> &#160;</text>
<polygon fill="#ffffff" stroke="none" points="525,-40.5 525,-59.5 633,-59.5 633,-40.5 525,-40.5"/>
<polygon fill="none" stroke="black" points="525,-40.5 525,-59.5 633,-59.5 633,-40.5 525,-40.5"/>
<text text-anchor="start" x="614.25" y="-46.05" font-family="Helvetica,sans-Serif" font-size="11.00">0 &gt;</text>
<polygon fill="none" stroke="black" stroke-width="2" points="361,-39.5 361,-303.5 634,-303.5 634,-39.5 361,-39.5"/>
</a>
</g>
</g>
<!-- crm_stage_requirement&#45;&gt;crm_stage -->
<g id="edge4" class="edge">
<title>crm_stage_requirement:w&#45;&gt;crm_stage:e</title>
<path fill="none" stroke="black" d="M346.23,-229.37C324.23,-248.83 353.18,-320 312,-320"/>
<polygon fill="black" stroke="black" points="353.08,-227.11 361.81,-228.02 357.2,-225.75 360.36,-224.71 360.36,-224.71 360.36,-224.71 357.2,-225.75 359.56,-221.19 353.08,-227.11"/>
<ellipse fill="none" stroke="black" cx="348.41" cy="-228.65" rx="3.2" ry="3.2"/>
</g>
<!-- crm_stage_requirement&#45;&gt;res_users -->
<g id="edge3" class="edge">
<title>crm_stage_requirement:w&#45;&gt;res_users:e</title>
<path fill="none" stroke="black" d="M345.53,-180.39C284.47,-179.54 261.72,-174.57 197,-194.5 177.51,-200.5 177.4,-217 157,-217"/>
<polygon fill="black" stroke="black" points="352.67,-180.44 360.64,-184.1 357,-180.47 360.33,-180.5 360.33,-180.5 360.33,-180.5 357,-180.47 360.69,-176.9 352.67,-180.44"/>
<ellipse fill="none" stroke="black" cx="347.75" cy="-180.41" rx="3.2" ry="3.2"/>
</g>
<!-- crm_stage_requirement&#45;&gt;res_users -->
<g id="edge5" class="edge">
<title>crm_stage_requirement:w&#45;&gt;res_users:e</title>
<path fill="none" stroke="black" d="M345.45,-158.28C283.81,-156.52 257.98,-145.78 197,-175.5 173.97,-186.72 182.62,-217 157,-217"/>
<polygon fill="black" stroke="black" points="352.67,-158.38 360.61,-162.09 357,-158.44 360.33,-158.49 360.33,-158.49 360.33,-158.49 357,-158.44 360.72,-154.9 352.67,-158.38"/>
<ellipse fill="none" stroke="black" cx="347.75" cy="-158.31" rx="3.2" ry="3.2"/>
</g>
</g>
</svg>
