<?xml version="1.0" encoding="UTF-8" standalone="no"?>
<!DOCTYPE svg PUBLIC "-//W3C//DTD SVG 1.1//EN"
 "http://www.w3.org/Graphics/SVG/1.1/DTD/svg11.dtd">
<!-- Generated by graphviz version 12.0.0 (0)
 -->
<!-- Title: oneDegreeRelationshipsDiagram Pages: 1 -->
<svg width="733pt" height="662pt"
 viewBox="0.00 0.00 733.00 661.50" xmlns="http://www.w3.org/2000/svg" xmlns:xlink="http://www.w3.org/1999/xlink">
<g id="graph0" class="graph" transform="scale(1 1) rotate(0) translate(4 657.5)">
<title>oneDegreeRelationshipsDiagram</title>
<polygon fill="#ffffff" stroke="none" points="-4,4 -4,-657.5 729,-657.5 729,4 -4,4"/>
<text text-anchor="middle" x="71.38" y="-7.05" font-family="Helvetica,sans-Serif" font-size="11.00">Generated by SchemaSpy</text>
<!-- crm_lead -->
<g id="node1" class="node">
<title>crm_lead</title>
<g id="a_node1"><a xlink:href="../../tables/crm_lead.html" xlink:title="crm_lead" target="_top">
<polygon fill="#ffffff" stroke="none" points="472,-38.5 472,-649.5 717,-649.5 717,-38.5 472,-38.5"/>
<polygon fill="#f5f5f5" stroke="none" points="472,-626.5 472,-649.5 717,-649.5 717,-626.5 472,-626.5"/>
<polygon fill="none" stroke="black" points="472,-626.5 472,-649.5 717,-649.5 717,-626.5 472,-626.5"/>
<text text-anchor="start" x="477" y="-634.3" font-family="Helvetica,sans-Serif" font-weight="bold" font-size="11.00">crm_lead</text>
<text text-anchor="start" x="682.75" y="-634.05" font-family="Helvetica,sans-Serif" font-size="11.00">[table]</text>
<polygon fill="none" stroke="black" points="472,-604.5 472,-626.5 717,-626.5 717,-604.5 472,-604.5"/>
<image xlink:href="../../images/primaryKeys.png" width="11px" height="12px" preserveAspectRatio="xMinYMin meet" x="477" y="-621.5"/>
<text text-anchor="start" x="492" y="-611.05" font-family="Helvetica,sans-Serif" font-size="11.00">id</text>
<polygon fill="#ffffff" stroke="none" points="472,-582.5 472,-604.5 717,-604.5 717,-582.5 472,-582.5"/>
<polygon fill="none" stroke="black" points="472,-582.5 472,-604.5 717,-604.5 717,-582.5 472,-582.5"/>
<image xlink:href="../../images/foreignKeys.png" width="11px" height="12px" preserveAspectRatio="xMinYMin meet" x="477" y="-599.5"/>
<text text-anchor="start" x="492" y="-589.05" font-family="Helvetica,sans-Serif" font-size="11.00">user_id</text>
<polygon fill="#ffffff" stroke="none" points="472,-560.5 472,-582.5 717,-582.5 717,-560.5 472,-560.5"/>
<polygon fill="none" stroke="black" points="472,-560.5 472,-582.5 717,-582.5 717,-560.5 472,-560.5"/>
<image xlink:href="../../images/foreignKeys.png" width="11px" height="12px" preserveAspectRatio="xMinYMin meet" x="477" y="-577.5"/>
<text text-anchor="start" x="492" y="-567.05" font-family="Helvetica,sans-Serif" font-size="11.00">team_id</text>
<polygon fill="#ffffff" stroke="none" points="472,-538.5 472,-560.5 717,-560.5 717,-538.5 472,-538.5"/>
<polygon fill="none" stroke="black" points="472,-538.5 472,-560.5 717,-560.5 717,-538.5 472,-538.5"/>
<text text-anchor="start" x="492" y="-545.05" font-family="Helvetica,sans-Serif" font-size="11.00">company_id</text>
<polygon fill="#ffffff" stroke="none" points="472,-516.5 472,-538.5 717,-538.5 717,-516.5 472,-516.5"/>
<polygon fill="none" stroke="black" points="472,-516.5 472,-538.5 717,-538.5 717,-516.5 472,-516.5"/>
<image xlink:href="../../images/foreignKeys.png" width="11px" height="12px" preserveAspectRatio="xMinYMin meet" x="477" y="-533.5"/>
<text text-anchor="start" x="492" y="-523.05" font-family="Helvetica,sans-Serif" font-size="11.00">stage_id</text>
<polygon fill="#ffffff" stroke="none" points="472,-494.5 472,-516.5 717,-516.5 717,-494.5 472,-494.5"/>
<polygon fill="none" stroke="black" points="472,-494.5 472,-516.5 717,-516.5 717,-494.5 472,-494.5"/>
<image xlink:href="../../images/foreignKeys.png" width="11px" height="12px" preserveAspectRatio="xMinYMin meet" x="477" y="-511.5"/>
<text text-anchor="start" x="492" y="-501.05" font-family="Helvetica,sans-Serif" font-size="11.00">partner_id</text>
<polygon fill="none" stroke="black" points="472,-472.5 472,-494.5 717,-494.5 717,-472.5 472,-472.5"/>
<image xlink:href="../../images/foreignKeys.png" width="11px" height="12px" preserveAspectRatio="xMinYMin meet" x="477" y="-489.5"/>
<text text-anchor="start" x="492" y="-479.05" font-family="Helvetica,sans-Serif" font-size="11.00">country_id</text>
<polygon fill="#ffffff" stroke="none" points="472,-450.5 472,-472.5 717,-472.5 717,-450.5 472,-450.5"/>
<polygon fill="none" stroke="black" points="472,-450.5 472,-472.5 717,-472.5 717,-450.5 472,-450.5"/>
<image xlink:href="../../images/foreignKeys.png" width="11px" height="12px" preserveAspectRatio="xMinYMin meet" x="477" y="-467.5"/>
<text text-anchor="start" x="492" y="-457.05" font-family="Helvetica,sans-Serif" font-size="11.00">lost_reason_id</text>
<polygon fill="none" stroke="black" points="472,-428.5 472,-450.5 717,-450.5 717,-428.5 472,-428.5"/>
<image xlink:href="../../images/foreignKeys.png" width="11px" height="12px" preserveAspectRatio="xMinYMin meet" x="477" y="-445.5"/>
<text text-anchor="start" x="492" y="-435.05" font-family="Helvetica,sans-Serif" font-size="11.00">create_uid</text>
<polygon fill="none" stroke="black" points="472,-406.5 472,-428.5 717,-428.5 717,-406.5 472,-406.5"/>
<image xlink:href="../../images/foreignKeys.png" width="11px" height="12px" preserveAspectRatio="xMinYMin meet" x="477" y="-423.5"/>
<text text-anchor="start" x="492" y="-413.05" font-family="Helvetica,sans-Serif" font-size="11.00">write_uid</text>
<polygon fill="#ffffff" stroke="none" points="472,-384.5 472,-406.5 717,-406.5 717,-384.5 472,-384.5"/>
<polygon fill="none" stroke="black" points="472,-384.5 472,-406.5 717,-406.5 717,-384.5 472,-384.5"/>
<text text-anchor="start" x="492" y="-391.05" font-family="Helvetica,sans-Serif" font-size="11.00">phone_sanitized</text>
<polygon fill="#ffffff" stroke="none" points="472,-362.5 472,-384.5 717,-384.5 717,-362.5 472,-362.5"/>
<polygon fill="none" stroke="black" points="472,-362.5 472,-384.5 717,-384.5 717,-362.5 472,-362.5"/>
<text text-anchor="start" x="492" y="-369.05" font-family="Helvetica,sans-Serif" font-size="11.00">email_normalized</text>
<polygon fill="#ffffff" stroke="none" points="472,-340.5 472,-362.5 717,-362.5 717,-340.5 472,-340.5"/>
<polygon fill="none" stroke="black" points="472,-340.5 472,-362.5 717,-362.5 717,-340.5 472,-340.5"/>
<text text-anchor="start" x="492" y="-347.05" font-family="Helvetica,sans-Serif" font-size="11.00">name</text>
<polygon fill="#ffffff" stroke="none" points="472,-318.5 472,-340.5 717,-340.5 717,-318.5 472,-318.5"/>
<polygon fill="none" stroke="black" points="472,-318.5 472,-340.5 717,-340.5 717,-318.5 472,-318.5"/>
<text text-anchor="start" x="492" y="-325.05" font-family="Helvetica,sans-Serif" font-size="11.00">type</text>
<polygon fill="#ffffff" stroke="none" points="472,-296.5 472,-318.5 717,-318.5 717,-296.5 472,-296.5"/>
<polygon fill="none" stroke="black" points="472,-296.5 472,-318.5 717,-318.5 717,-296.5 472,-296.5"/>
<text text-anchor="start" x="492" y="-303.05" font-family="Helvetica,sans-Serif" font-size="11.00">priority</text>
<polygon fill="#ffffff" stroke="none" points="472,-274.5 472,-296.5 717,-296.5 717,-274.5 472,-274.5"/>
<polygon fill="none" stroke="black" points="472,-274.5 472,-296.5 717,-296.5 717,-274.5 472,-274.5"/>
<text text-anchor="start" x="492" y="-281.05" font-family="Helvetica,sans-Serif" font-size="11.00">contact_name</text>
<polygon fill="#ffffff" stroke="none" points="472,-252.5 472,-274.5 717,-274.5 717,-252.5 472,-252.5"/>
<polygon fill="none" stroke="black" points="472,-252.5 472,-274.5 717,-274.5 717,-252.5 472,-252.5"/>
<text text-anchor="start" x="492" y="-259.05" font-family="Helvetica,sans-Serif" font-size="11.00">partner_name</text>
<polygon fill="#ffffff" stroke="none" points="472,-230.5 472,-252.5 717,-252.5 717,-230.5 472,-230.5"/>
<polygon fill="none" stroke="black" points="472,-230.5 472,-252.5 717,-252.5 717,-230.5 472,-230.5"/>
<text text-anchor="start" x="492" y="-237.05" font-family="Helvetica,sans-Serif" font-size="11.00">email_from</text>
<polygon fill="#ffffff" stroke="none" points="472,-208.5 472,-230.5 717,-230.5 717,-208.5 472,-208.5"/>
<polygon fill="none" stroke="black" points="472,-208.5 472,-230.5 717,-230.5 717,-208.5 472,-208.5"/>
<text text-anchor="start" x="492" y="-215.05" font-family="Helvetica,sans-Serif" font-size="11.00">email_domain_criterion</text>
<polygon fill="#ffffff" stroke="none" points="472,-186.5 472,-208.5 717,-208.5 717,-186.5 472,-186.5"/>
<polygon fill="none" stroke="black" points="472,-186.5 472,-208.5 717,-208.5 717,-186.5 472,-186.5"/>
<text text-anchor="start" x="492" y="-193.05" font-family="Helvetica,sans-Serif" font-size="11.00">date_last_stage_update</text>
<polygon fill="#ffffff" stroke="none" points="472,-164.5 472,-186.5 717,-186.5 717,-164.5 472,-164.5"/>
<polygon fill="none" stroke="black" points="472,-164.5 472,-186.5 717,-186.5 717,-164.5 472,-164.5"/>
<text text-anchor="start" x="492" y="-171.05" font-family="Helvetica,sans-Serif" font-size="11.00">create_date</text>
<polygon fill="none" stroke="black" points="472,-142.5 472,-164.5 717,-164.5 717,-142.5 472,-142.5"/>
<image xlink:href="../../images/foreignKeys.png" width="11px" height="12px" preserveAspectRatio="xMinYMin meet" x="477" y="-159.5"/>
<text text-anchor="start" x="492" y="-149.05" font-family="Helvetica,sans-Serif" font-size="11.00">sales_assist_id</text>
<polygon fill="none" stroke="black" points="472,-120.5 472,-142.5 717,-142.5 717,-120.5 472,-120.5"/>
<image xlink:href="../../images/foreignKeys.png" width="11px" height="12px" preserveAspectRatio="xMinYMin meet" x="477" y="-137.5"/>
<text text-anchor="start" x="492" y="-127.05" font-family="Helvetica,sans-Serif" font-size="11.00">introduced_by_id</text>
<polygon fill="none" stroke="black" points="472,-98.5 472,-120.5 717,-120.5 717,-98.5 472,-98.5"/>
<image xlink:href="../../images/foreignKeys.png" width="11px" height="12px" preserveAspectRatio="xMinYMin meet" x="477" y="-115.5"/>
<text text-anchor="start" x="492" y="-105.05" font-family="Helvetica,sans-Serif" font-size="11.00">contact_account_manager_id</text>
<polygon fill="none" stroke="black" points="472,-76.5 472,-98.5 717,-98.5 717,-76.5 472,-76.5"/>
<image xlink:href="../../images/foreignKeys.png" width="11px" height="12px" preserveAspectRatio="xMinYMin meet" x="477" y="-93.5"/>
<text text-anchor="start" x="492" y="-83.05" font-family="Helvetica,sans-Serif" font-size="11.00">citizen_id</text>
<polygon fill="none" stroke="black" points="472,-57.5 472,-76.5 717,-76.5 717,-57.5 472,-57.5"/>
<text text-anchor="start" x="475" y="-63.05" font-family="Helvetica,sans-Serif" font-size="11.00">...</text>
<polygon fill="#ffffff" stroke="none" points="472,-38.5 472,-57.5 591,-57.5 591,-38.5 472,-38.5"/>
<polygon fill="none" stroke="black" points="472,-38.5 472,-57.5 591,-57.5 591,-38.5 472,-38.5"/>
<text text-anchor="start" x="475" y="-44.05" font-family="Helvetica,sans-Serif" font-size="11.00">&lt; 12</text>
<polygon fill="#ffffff" stroke="none" points="591,-38.5 591,-57.5 649,-57.5 649,-38.5 591,-38.5"/>
<polygon fill="none" stroke="black" points="591,-38.5 591,-57.5 649,-57.5 649,-38.5 591,-38.5"/>
<text text-anchor="start" x="640" y="-44.05" font-family="Helvetica,sans-Serif" font-size="11.00"> &#160;</text>
<polygon fill="#ffffff" stroke="none" points="649,-38.5 649,-57.5 717,-57.5 717,-38.5 649,-38.5"/>
<polygon fill="none" stroke="black" points="649,-38.5 649,-57.5 717,-57.5 717,-38.5 649,-38.5"/>
<text text-anchor="start" x="698.25" y="-44.05" font-family="Helvetica,sans-Serif" font-size="11.00">2 &gt;</text>
</a>
</g>
</g>
<!-- res_users -->
<g id="node2" class="node">
<title>res_users</title>
<g id="a_node2"><a xlink:href="../../tables/res_users.html" xlink:title="res_users" target="_top">
<polygon fill="#ffffff" stroke="none" points="8,-100.5 8,-293.5 156,-293.5 156,-100.5 8,-100.5"/>
<polygon fill="#f5f5f5" stroke="none" points="8,-270.5 8,-293.5 156,-293.5 156,-270.5 8,-270.5"/>
<polygon fill="none" stroke="black" points="8,-270.5 8,-293.5 156,-293.5 156,-270.5 8,-270.5"/>
<text text-anchor="start" x="12.62" y="-278.3" font-family="Helvetica,sans-Serif" font-weight="bold" font-size="11.00">res_users</text>
<text text-anchor="start" x="121.75" y="-278.05" font-family="Helvetica,sans-Serif" font-size="11.00">[table]</text>
<polygon fill="none" stroke="black" points="8,-248.5 8,-270.5 156,-270.5 156,-248.5 8,-248.5"/>
<image xlink:href="../../images/primaryKeys.png" width="11px" height="12px" preserveAspectRatio="xMinYMin meet" x="13" y="-265.5"/>
<text text-anchor="start" x="28" y="-255.05" font-family="Helvetica,sans-Serif" font-size="11.00">id</text>
<polygon fill="#ffffff" stroke="none" points="8,-226.5 8,-248.5 156,-248.5 156,-226.5 8,-226.5"/>
<polygon fill="none" stroke="black" points="8,-226.5 8,-248.5 156,-248.5 156,-226.5 8,-226.5"/>
<image xlink:href="../../images/foreignKeys.png" width="11px" height="12px" preserveAspectRatio="xMinYMin meet" x="13" y="-243.5"/>
<text text-anchor="start" x="28" y="-233.05" font-family="Helvetica,sans-Serif" font-size="11.00">partner_id</text>
<polygon fill="#ffffff" stroke="none" points="8,-204.5 8,-226.5 156,-226.5 156,-204.5 8,-204.5"/>
<polygon fill="none" stroke="black" points="8,-204.5 8,-226.5 156,-226.5 156,-204.5 8,-204.5"/>
<text text-anchor="start" x="28" y="-211.05" font-family="Helvetica,sans-Serif" font-size="11.00">login</text>
<polygon fill="none" stroke="black" points="8,-182.5 8,-204.5 156,-204.5 156,-182.5 8,-182.5"/>
<image xlink:href="../../images/foreignKeys.png" width="11px" height="12px" preserveAspectRatio="xMinYMin meet" x="13" y="-199.5"/>
<text text-anchor="start" x="28" y="-189.05" font-family="Helvetica,sans-Serif" font-size="11.00">create_uid</text>
<polygon fill="none" stroke="black" points="8,-160.5 8,-182.5 156,-182.5 156,-160.5 8,-160.5"/>
<image xlink:href="../../images/foreignKeys.png" width="11px" height="12px" preserveAspectRatio="xMinYMin meet" x="13" y="-177.5"/>
<text text-anchor="start" x="28" y="-167.05" font-family="Helvetica,sans-Serif" font-size="11.00">write_uid</text>
<polygon fill="none" stroke="black" points="8,-138.5 8,-160.5 156,-160.5 156,-138.5 8,-138.5"/>
<image xlink:href="../../images/foreignKeys.png" width="11px" height="12px" preserveAspectRatio="xMinYMin meet" x="13" y="-155.5"/>
<text text-anchor="start" x="28" y="-145.05" font-family="Helvetica,sans-Serif" font-size="11.00">sale_team_id</text>
<polygon fill="none" stroke="black" points="8,-119.5 8,-138.5 156,-138.5 156,-119.5 8,-119.5"/>
<text text-anchor="start" x="11" y="-125.05" font-family="Helvetica,sans-Serif" font-size="11.00">...</text>
<polygon fill="#ffffff" stroke="none" points="8,-100.5 8,-119.5 73,-119.5 73,-100.5 8,-100.5"/>
<polygon fill="none" stroke="black" points="8,-100.5 8,-119.5 73,-119.5 73,-100.5 8,-100.5"/>
<text text-anchor="start" x="11" y="-106.05" font-family="Helvetica,sans-Serif" font-size="11.00">&lt; 4</text>
<polygon fill="#ffffff" stroke="none" points="73,-100.5 73,-119.5 107,-119.5 107,-100.5 73,-100.5"/>
<polygon fill="none" stroke="black" points="73,-100.5 73,-119.5 107,-119.5 107,-100.5 73,-100.5"/>
<text text-anchor="start" x="98" y="-106.05" font-family="Helvetica,sans-Serif" font-size="11.00"> &#160;</text>
<polygon fill="#ffffff" stroke="none" points="107,-100.5 107,-119.5 156,-119.5 156,-100.5 107,-100.5"/>
<polygon fill="none" stroke="black" points="107,-100.5 107,-119.5 156,-119.5 156,-100.5 107,-100.5"/>
<text text-anchor="start" x="131.25" y="-106.05" font-family="Helvetica,sans-Serif" font-size="11.00">65 &gt;</text>
</a>
</g>
</g>
<!-- crm_lead&#45;&gt;res_users -->
<g id="edge1" class="edge">
<title>crm_lead:w&#45;&gt;res_users:e</title>
<path fill="none" stroke="black" d="M455.17,-109.29C343.06,-106.29 288.2,-73.8 197,-148 156.16,-181.23 209.65,-259.5 157,-259.5"/>
<polygon fill="black" stroke="black" points="462.67,-109.39 470.62,-113.1 467,-109.45 470.33,-109.49 470.33,-109.49 470.33,-109.49 467,-109.45 470.71,-105.9 462.67,-109.39"/>
<ellipse fill="none" stroke="black" cx="457.75" cy="-109.32" rx="3.2" ry="3.2"/>
</g>
<!-- crm_lead&#45;&gt;res_users -->
<g id="edge2" class="edge">
<title>crm_lead:w&#45;&gt;res_users:e</title>
<path fill="none" stroke="black" d="M455.62,-437.03C414.8,-420.77 479.48,-328.43 431,-287 384.48,-247.24 218.19,-259.5 157,-259.5"/>
<polygon fill="black" stroke="black" points="462.77,-438.18 470.1,-443 467.05,-438.87 470.34,-439.39 470.34,-439.39 470.34,-439.39 467.05,-438.87 471.24,-435.89 462.77,-438.18"/>
<ellipse fill="none" stroke="black" cx="457.91" cy="-437.4" rx="3.2" ry="3.2"/>
</g>
<!-- crm_lead&#45;&gt;res_users -->
<g id="edge3" class="edge">
<title>crm_lead:w&#45;&gt;res_users:e</title>
<path fill="none" stroke="black" d="M455.49,-132.06C385.05,-136.65 244.79,-168.78 197,-202 171.44,-219.77 188.13,-259.5 157,-259.5"/>
<polygon fill="black" stroke="black" points="462.67,-131.8 470.8,-135.11 467,-131.64 470.33,-131.52 470.33,-131.52 470.33,-131.52 467,-131.64 470.54,-127.91 462.67,-131.8"/>
<ellipse fill="none" stroke="black" cx="457.76" cy="-131.98" rx="3.2" ry="3.2"/>
</g>
<!-- crm_lead&#45;&gt;res_users -->
<g id="edge5" class="edge">
<title>crm_lead:w&#45;&gt;res_users:e</title>
<path fill="none" stroke="black" d="M456.01,-157.94C448.18,-163.62 444.18,-173.38 431,-179 332.54,-221 296.2,-195.79 197,-236 177.89,-243.74 177.62,-259.5 157,-259.5"/>
<polygon fill="black" stroke="black" points="463.01,-155.87 471.7,-157.05 467.16,-154.64 470.36,-153.69 470.36,-153.69 470.36,-153.69 467.16,-154.64 469.66,-150.14 463.01,-155.87"/>
<ellipse fill="none" stroke="black" cx="458.29" cy="-157.27" rx="3.2" ry="3.2"/>
</g>
<!-- crm_lead&#45;&gt;res_users -->
<g id="edge6" class="edge">
<title>crm_lead:w&#45;&gt;res_users:e</title>
<path fill="none" stroke="black" d="M455.27,-593.55C338.11,-594.23 277.03,-600.36 197,-508 160.37,-465.73 212.93,-259.5 157,-259.5"/>
<polygon fill="black" stroke="black" points="462.67,-593.53 470.68,-597.1 467,-593.51 470.33,-593.5 470.33,-593.5 470.33,-593.5 467,-593.51 470.65,-589.9 462.67,-593.53"/>
<ellipse fill="none" stroke="black" cx="457.75" cy="-593.54" rx="3.2" ry="3.2"/>
</g>
<!-- crm_lead&#45;&gt;res_users -->
<g id="edge7" class="edge">
<title>crm_lead:w&#45;&gt;res_users:e</title>
<path fill="none" stroke="black" d="M455.5,-415.06C412.1,-398.21 483.95,-298.37 431,-257 335.04,-182.02 278.78,-259.5 157,-259.5"/>
<polygon fill="black" stroke="black" points="462.77,-416.21 470.11,-421 467.05,-416.88 470.34,-417.4 470.34,-417.4 470.34,-417.4 467.05,-416.88 471.23,-413.89 462.77,-416.21"/>
<ellipse fill="none" stroke="black" cx="457.91" cy="-415.44" rx="3.2" ry="3.2"/>
</g>
<!-- crm_lost_reason -->
<g id="node3" class="node">
<title>crm_lost_reason</title>
<g id="a_node3"><a xlink:href="../../tables/crm_lost_reason.html" xlink:title="crm_lost_reason" target="_top">
<polygon fill="#ffffff" stroke="none" points="205,-297 205,-497 423,-497 423,-297 205,-297"/>
<polygon fill="#f5f5f5" stroke="none" points="207,-472 207,-495 421,-495 421,-472 207,-472"/>
<polygon fill="none" stroke="black" points="207,-472 207,-495 421,-495 421,-472 207,-472"/>
<text text-anchor="start" x="212" y="-479.8" font-family="Helvetica,sans-Serif" font-weight="bold" font-size="11.00">crm_lost_reason</text>
<text text-anchor="start" x="386.75" y="-479.55" font-family="Helvetica,sans-Serif" font-size="11.00">[table]</text>
<polygon fill="none" stroke="black" points="207,-450 207,-472 324,-472 324,-450 207,-450"/>
<image xlink:href="../../images/primaryKeys.png" width="11px" height="12px" preserveAspectRatio="xMinYMin meet" x="212" y="-467"/>
<text text-anchor="start" x="227" y="-456.55" font-family="Helvetica,sans-Serif" font-size="11.00">id</text>
<polygon fill="none" stroke="black" points="324,-450 324,-472 421,-472 421,-450 324,-450"/>
<text text-anchor="start" x="327" y="-457.3" font-family="Helvetica,sans-Serif" font-size="11.00">serial[10]</text>
<polygon fill="none" stroke="black" points="207,-428 207,-450 324,-450 324,-428 207,-428"/>
<image xlink:href="../../images/foreignKeys.png" width="11px" height="12px" preserveAspectRatio="xMinYMin meet" x="212" y="-445"/>
<text text-anchor="start" x="227" y="-434.55" font-family="Helvetica,sans-Serif" font-size="11.00">create_uid</text>
<polygon fill="none" stroke="black" points="324,-428 324,-450 421,-450 421,-428 324,-428"/>
<text text-anchor="start" x="327" y="-435.3" font-family="Helvetica,sans-Serif" font-size="11.00">int4[10]</text>
<polygon fill="none" stroke="black" points="207,-406 207,-428 324,-428 324,-406 207,-406"/>
<image xlink:href="../../images/foreignKeys.png" width="11px" height="12px" preserveAspectRatio="xMinYMin meet" x="212" y="-423"/>
<text text-anchor="start" x="227" y="-412.55" font-family="Helvetica,sans-Serif" font-size="11.00">write_uid</text>
<polygon fill="none" stroke="black" points="324,-406 324,-428 421,-428 421,-406 324,-406"/>
<text text-anchor="start" x="327" y="-413.3" font-family="Helvetica,sans-Serif" font-size="11.00">int4[10]</text>
<polygon fill="none" stroke="black" points="207,-384 207,-406 324,-406 324,-384 207,-384"/>
<text text-anchor="start" x="227" y="-390.55" font-family="Helvetica,sans-Serif" font-size="11.00">name</text>
<polygon fill="none" stroke="black" points="324,-384 324,-406 421,-406 421,-384 324,-384"/>
<text text-anchor="start" x="326.75" y="-391.3" font-family="Helvetica,sans-Serif" font-size="11.00">jsonb[2147483647]</text>
<polygon fill="none" stroke="black" points="207,-362 207,-384 324,-384 324,-362 207,-362"/>
<text text-anchor="start" x="227" y="-368.55" font-family="Helvetica,sans-Serif" font-size="11.00">active</text>
<polygon fill="none" stroke="black" points="324,-362 324,-384 421,-384 421,-362 324,-362"/>
<text text-anchor="start" x="327" y="-369.3" font-family="Helvetica,sans-Serif" font-size="11.00">bool[1]</text>
<polygon fill="none" stroke="black" points="207,-340 207,-362 324,-362 324,-340 207,-340"/>
<text text-anchor="start" x="227" y="-346.55" font-family="Helvetica,sans-Serif" font-size="11.00">create_date</text>
<polygon fill="none" stroke="black" points="324,-340 324,-362 421,-362 421,-340 324,-340"/>
<text text-anchor="start" x="327" y="-347.3" font-family="Helvetica,sans-Serif" font-size="11.00">timestamp[29,6]</text>
<polygon fill="none" stroke="black" points="207,-318 207,-340 324,-340 324,-318 207,-318"/>
<text text-anchor="start" x="227" y="-324.55" font-family="Helvetica,sans-Serif" font-size="11.00">write_date</text>
<polygon fill="none" stroke="black" points="324,-318 324,-340 421,-340 421,-318 324,-318"/>
<text text-anchor="start" x="327" y="-325.3" font-family="Helvetica,sans-Serif" font-size="11.00">timestamp[29,6]</text>
<polygon fill="#ffffff" stroke="none" points="207,-299 207,-318 270,-318 270,-299 207,-299"/>
<polygon fill="none" stroke="black" points="207,-299 207,-318 270,-318 270,-299 207,-299"/>
<text text-anchor="start" x="210" y="-304.55" font-family="Helvetica,sans-Serif" font-size="11.00">&lt; 2</text>
<polygon fill="#ffffff" stroke="none" points="270,-299 270,-318 324,-318 324,-299 270,-299"/>
<polygon fill="none" stroke="black" points="270,-299 270,-318 324,-318 324,-299 270,-299"/>
<text text-anchor="start" x="315" y="-304.55" font-family="Helvetica,sans-Serif" font-size="11.00"> &#160;</text>
<polygon fill="#ffffff" stroke="none" points="324,-299 324,-318 421,-318 421,-299 324,-299"/>
<polygon fill="none" stroke="black" points="324,-299 324,-318 421,-318 421,-299 324,-299"/>
<text text-anchor="start" x="402.25" y="-304.55" font-family="Helvetica,sans-Serif" font-size="11.00">1 &gt;</text>
<polygon fill="none" stroke="black" stroke-width="2" points="206,-298 206,-496 422,-496 422,-298 206,-298"/>
</a>
</g>
</g>
<!-- crm_lead&#45;&gt;crm_lost_reason -->
<g id="edge4" class="edge">
<title>crm_lead:w&#45;&gt;crm_lost_reason:e</title>
<path fill="none" stroke="black" d="M455.42,-461.4C444.71,-461.25 437.48,-461 422,-461"/>
<polygon fill="black" stroke="black" points="462.67,-461.45 470.64,-465.1 467,-461.47 470.33,-461.5 470.33,-461.5 470.33,-461.5 467,-461.47 470.69,-457.9 462.67,-461.45"/>
<ellipse fill="none" stroke="black" cx="457.75" cy="-461.41" rx="3.2" ry="3.2"/>
</g>
<!-- crm_lost_reason&#45;&gt;res_users -->
<g id="edge8" class="edge">
<title>crm_lost_reason:w&#45;&gt;res_users:e</title>
<path fill="none" stroke="black" d="M190.71,-436.18C139.48,-413.34 233.56,-259.5 157,-259.5"/>
<polygon fill="black" stroke="black" points="197.8,-437.49 205.02,-442.48 202.07,-438.27 205.34,-438.88 205.34,-438.88 205.34,-438.88 202.07,-438.27 206.32,-435.4 197.8,-437.49"/>
<ellipse fill="none" stroke="black" cx="192.97" cy="-436.6" rx="3.2" ry="3.2"/>
</g>
<!-- crm_lost_reason&#45;&gt;res_users -->
<g id="edge9" class="edge">
<title>crm_lost_reason:w&#45;&gt;res_users:e</title>
<path fill="none" stroke="black" d="M190.67,-413.71C148.21,-391.09 224.01,-259.5 157,-259.5"/>
<polygon fill="black" stroke="black" points="197.85,-415.25 204.92,-420.45 202.09,-416.16 205.35,-416.86 205.35,-416.86 205.35,-416.86 202.09,-416.16 206.43,-413.41 197.85,-415.25"/>
<ellipse fill="none" stroke="black" cx="193.04" cy="-414.22" rx="3.2" ry="3.2"/>
</g>
</g>
</svg>
