<?xml version="1.0" encoding="UTF-8" standalone="no"?>
<!DOCTYPE svg PUBLIC "-//W3C//DTD SVG 1.1//EN"
 "http://www.w3.org/Graphics/SVG/1.1/DTD/svg11.dtd">
<!-- Generated by graphviz version 12.0.0 (0)
 -->
<!-- Title: oneDegreeRelationshipsDiagram Pages: 1 -->
<svg width="938pt" height="790pt"
 viewBox="0.00 0.00 938.00 789.52" xmlns="http://www.w3.org/2000/svg" xmlns:xlink="http://www.w3.org/1999/xlink">
<g id="graph0" class="graph" transform="scale(1 1) rotate(0) translate(4 785.52)">
<title>oneDegreeRelationshipsDiagram</title>
<polygon fill="#ffffff" stroke="none" points="-4,4 -4,-785.52 934,-785.52 934,4 -4,4"/>
<text text-anchor="middle" x="71.38" y="-7.05" font-family="Helvetica,sans-Serif" font-size="11.00">Generated by SchemaSpy</text>
<!-- crm_lead -->
<g id="node1" class="node">
<title>crm_lead</title>
<g id="a_node1"><a xlink:href="../../tables/crm_lead.html" xlink:title="crm_lead" target="_top">
<polygon fill="#ffffff" stroke="none" points="360,-105.24 360,-716.24 605,-716.24 605,-105.24 360,-105.24"/>
<polygon fill="#f5f5f5" stroke="none" points="360,-693.24 360,-716.24 605,-716.24 605,-693.24 360,-693.24"/>
<polygon fill="none" stroke="black" points="360,-693.24 360,-716.24 605,-716.24 605,-693.24 360,-693.24"/>
<text text-anchor="start" x="365" y="-701.04" font-family="Helvetica,sans-Serif" font-weight="bold" font-size="11.00">crm_lead</text>
<text text-anchor="start" x="570.75" y="-700.79" font-family="Helvetica,sans-Serif" font-size="11.00">[table]</text>
<polygon fill="none" stroke="black" points="360,-671.24 360,-693.24 605,-693.24 605,-671.24 360,-671.24"/>
<image xlink:href="../../images/primaryKeys.png" width="11px" height="12px" preserveAspectRatio="xMinYMin meet" x="365" y="-688.237"/>
<text text-anchor="start" x="380" y="-677.79" font-family="Helvetica,sans-Serif" font-size="11.00">id</text>
<polygon fill="#ffffff" stroke="none" points="360,-649.24 360,-671.24 605,-671.24 605,-649.24 360,-649.24"/>
<polygon fill="none" stroke="black" points="360,-649.24 360,-671.24 605,-671.24 605,-649.24 360,-649.24"/>
<image xlink:href="../../images/foreignKeys.png" width="11px" height="12px" preserveAspectRatio="xMinYMin meet" x="365" y="-666.237"/>
<text text-anchor="start" x="380" y="-655.79" font-family="Helvetica,sans-Serif" font-size="11.00">user_id</text>
<polygon fill="#ffffff" stroke="none" points="360,-627.24 360,-649.24 605,-649.24 605,-627.24 360,-627.24"/>
<polygon fill="none" stroke="black" points="360,-627.24 360,-649.24 605,-649.24 605,-627.24 360,-627.24"/>
<image xlink:href="../../images/foreignKeys.png" width="11px" height="12px" preserveAspectRatio="xMinYMin meet" x="365" y="-644.237"/>
<text text-anchor="start" x="380" y="-633.79" font-family="Helvetica,sans-Serif" font-size="11.00">team_id</text>
<polygon fill="#ffffff" stroke="none" points="360,-605.24 360,-627.24 605,-627.24 605,-605.24 360,-605.24"/>
<polygon fill="none" stroke="black" points="360,-605.24 360,-627.24 605,-627.24 605,-605.24 360,-605.24"/>
<text text-anchor="start" x="380" y="-611.79" font-family="Helvetica,sans-Serif" font-size="11.00">company_id</text>
<polygon fill="#ffffff" stroke="none" points="360,-583.24 360,-605.24 605,-605.24 605,-583.24 360,-583.24"/>
<polygon fill="none" stroke="black" points="360,-583.24 360,-605.24 605,-605.24 605,-583.24 360,-583.24"/>
<image xlink:href="../../images/foreignKeys.png" width="11px" height="12px" preserveAspectRatio="xMinYMin meet" x="365" y="-600.237"/>
<text text-anchor="start" x="380" y="-589.79" font-family="Helvetica,sans-Serif" font-size="11.00">stage_id</text>
<polygon fill="#ffffff" stroke="none" points="360,-561.24 360,-583.24 605,-583.24 605,-561.24 360,-561.24"/>
<polygon fill="none" stroke="black" points="360,-561.24 360,-583.24 605,-583.24 605,-561.24 360,-561.24"/>
<image xlink:href="../../images/foreignKeys.png" width="11px" height="12px" preserveAspectRatio="xMinYMin meet" x="365" y="-578.237"/>
<text text-anchor="start" x="380" y="-567.79" font-family="Helvetica,sans-Serif" font-size="11.00">partner_id</text>
<polygon fill="none" stroke="black" points="360,-539.24 360,-561.24 605,-561.24 605,-539.24 360,-539.24"/>
<image xlink:href="../../images/foreignKeys.png" width="11px" height="12px" preserveAspectRatio="xMinYMin meet" x="365" y="-556.237"/>
<text text-anchor="start" x="380" y="-545.79" font-family="Helvetica,sans-Serif" font-size="11.00">country_id</text>
<polygon fill="#ffffff" stroke="none" points="360,-517.24 360,-539.24 605,-539.24 605,-517.24 360,-517.24"/>
<polygon fill="none" stroke="black" points="360,-517.24 360,-539.24 605,-539.24 605,-517.24 360,-517.24"/>
<image xlink:href="../../images/foreignKeys.png" width="11px" height="12px" preserveAspectRatio="xMinYMin meet" x="365" y="-534.237"/>
<text text-anchor="start" x="380" y="-523.79" font-family="Helvetica,sans-Serif" font-size="11.00">lost_reason_id</text>
<polygon fill="none" stroke="black" points="360,-495.24 360,-517.24 605,-517.24 605,-495.24 360,-495.24"/>
<image xlink:href="../../images/foreignKeys.png" width="11px" height="12px" preserveAspectRatio="xMinYMin meet" x="365" y="-512.237"/>
<text text-anchor="start" x="380" y="-501.79" font-family="Helvetica,sans-Serif" font-size="11.00">create_uid</text>
<polygon fill="none" stroke="black" points="360,-473.24 360,-495.24 605,-495.24 605,-473.24 360,-473.24"/>
<image xlink:href="../../images/foreignKeys.png" width="11px" height="12px" preserveAspectRatio="xMinYMin meet" x="365" y="-490.237"/>
<text text-anchor="start" x="380" y="-479.79" font-family="Helvetica,sans-Serif" font-size="11.00">write_uid</text>
<polygon fill="#ffffff" stroke="none" points="360,-451.24 360,-473.24 605,-473.24 605,-451.24 360,-451.24"/>
<polygon fill="none" stroke="black" points="360,-451.24 360,-473.24 605,-473.24 605,-451.24 360,-451.24"/>
<text text-anchor="start" x="380" y="-457.79" font-family="Helvetica,sans-Serif" font-size="11.00">phone_sanitized</text>
<polygon fill="#ffffff" stroke="none" points="360,-429.24 360,-451.24 605,-451.24 605,-429.24 360,-429.24"/>
<polygon fill="none" stroke="black" points="360,-429.24 360,-451.24 605,-451.24 605,-429.24 360,-429.24"/>
<text text-anchor="start" x="380" y="-435.79" font-family="Helvetica,sans-Serif" font-size="11.00">email_normalized</text>
<polygon fill="#ffffff" stroke="none" points="360,-407.24 360,-429.24 605,-429.24 605,-407.24 360,-407.24"/>
<polygon fill="none" stroke="black" points="360,-407.24 360,-429.24 605,-429.24 605,-407.24 360,-407.24"/>
<text text-anchor="start" x="380" y="-413.79" font-family="Helvetica,sans-Serif" font-size="11.00">name</text>
<polygon fill="#ffffff" stroke="none" points="360,-385.24 360,-407.24 605,-407.24 605,-385.24 360,-385.24"/>
<polygon fill="none" stroke="black" points="360,-385.24 360,-407.24 605,-407.24 605,-385.24 360,-385.24"/>
<text text-anchor="start" x="380" y="-391.79" font-family="Helvetica,sans-Serif" font-size="11.00">type</text>
<polygon fill="#ffffff" stroke="none" points="360,-363.24 360,-385.24 605,-385.24 605,-363.24 360,-363.24"/>
<polygon fill="none" stroke="black" points="360,-363.24 360,-385.24 605,-385.24 605,-363.24 360,-363.24"/>
<text text-anchor="start" x="380" y="-369.79" font-family="Helvetica,sans-Serif" font-size="11.00">priority</text>
<polygon fill="#ffffff" stroke="none" points="360,-341.24 360,-363.24 605,-363.24 605,-341.24 360,-341.24"/>
<polygon fill="none" stroke="black" points="360,-341.24 360,-363.24 605,-363.24 605,-341.24 360,-341.24"/>
<text text-anchor="start" x="380" y="-347.79" font-family="Helvetica,sans-Serif" font-size="11.00">contact_name</text>
<polygon fill="#ffffff" stroke="none" points="360,-319.24 360,-341.24 605,-341.24 605,-319.24 360,-319.24"/>
<polygon fill="none" stroke="black" points="360,-319.24 360,-341.24 605,-341.24 605,-319.24 360,-319.24"/>
<text text-anchor="start" x="380" y="-325.79" font-family="Helvetica,sans-Serif" font-size="11.00">partner_name</text>
<polygon fill="#ffffff" stroke="none" points="360,-297.24 360,-319.24 605,-319.24 605,-297.24 360,-297.24"/>
<polygon fill="none" stroke="black" points="360,-297.24 360,-319.24 605,-319.24 605,-297.24 360,-297.24"/>
<text text-anchor="start" x="380" y="-303.79" font-family="Helvetica,sans-Serif" font-size="11.00">email_from</text>
<polygon fill="#ffffff" stroke="none" points="360,-275.24 360,-297.24 605,-297.24 605,-275.24 360,-275.24"/>
<polygon fill="none" stroke="black" points="360,-275.24 360,-297.24 605,-297.24 605,-275.24 360,-275.24"/>
<text text-anchor="start" x="380" y="-281.79" font-family="Helvetica,sans-Serif" font-size="11.00">email_domain_criterion</text>
<polygon fill="#ffffff" stroke="none" points="360,-253.24 360,-275.24 605,-275.24 605,-253.24 360,-253.24"/>
<polygon fill="none" stroke="black" points="360,-253.24 360,-275.24 605,-275.24 605,-253.24 360,-253.24"/>
<text text-anchor="start" x="380" y="-259.79" font-family="Helvetica,sans-Serif" font-size="11.00">date_last_stage_update</text>
<polygon fill="#ffffff" stroke="none" points="360,-231.24 360,-253.24 605,-253.24 605,-231.24 360,-231.24"/>
<polygon fill="none" stroke="black" points="360,-231.24 360,-253.24 605,-253.24 605,-231.24 360,-231.24"/>
<text text-anchor="start" x="380" y="-237.79" font-family="Helvetica,sans-Serif" font-size="11.00">create_date</text>
<polygon fill="none" stroke="black" points="360,-209.24 360,-231.24 605,-231.24 605,-209.24 360,-209.24"/>
<image xlink:href="../../images/foreignKeys.png" width="11px" height="12px" preserveAspectRatio="xMinYMin meet" x="365" y="-226.237"/>
<text text-anchor="start" x="380" y="-215.79" font-family="Helvetica,sans-Serif" font-size="11.00">sales_assist_id</text>
<polygon fill="none" stroke="black" points="360,-187.24 360,-209.24 605,-209.24 605,-187.24 360,-187.24"/>
<image xlink:href="../../images/foreignKeys.png" width="11px" height="12px" preserveAspectRatio="xMinYMin meet" x="365" y="-204.237"/>
<text text-anchor="start" x="380" y="-193.79" font-family="Helvetica,sans-Serif" font-size="11.00">introduced_by_id</text>
<polygon fill="none" stroke="black" points="360,-165.24 360,-187.24 605,-187.24 605,-165.24 360,-165.24"/>
<image xlink:href="../../images/foreignKeys.png" width="11px" height="12px" preserveAspectRatio="xMinYMin meet" x="365" y="-182.237"/>
<text text-anchor="start" x="380" y="-171.79" font-family="Helvetica,sans-Serif" font-size="11.00">contact_account_manager_id</text>
<polygon fill="none" stroke="black" points="360,-143.24 360,-165.24 605,-165.24 605,-143.24 360,-143.24"/>
<image xlink:href="../../images/foreignKeys.png" width="11px" height="12px" preserveAspectRatio="xMinYMin meet" x="365" y="-160.237"/>
<text text-anchor="start" x="380" y="-149.79" font-family="Helvetica,sans-Serif" font-size="11.00">citizen_id</text>
<polygon fill="none" stroke="black" points="360,-124.24 360,-143.24 605,-143.24 605,-124.24 360,-124.24"/>
<text text-anchor="start" x="363" y="-129.79" font-family="Helvetica,sans-Serif" font-size="11.00">...</text>
<polygon fill="#ffffff" stroke="none" points="360,-105.24 360,-124.24 479,-124.24 479,-105.24 360,-105.24"/>
<polygon fill="none" stroke="black" points="360,-105.24 360,-124.24 479,-124.24 479,-105.24 360,-105.24"/>
<text text-anchor="start" x="363" y="-110.79" font-family="Helvetica,sans-Serif" font-size="11.00">&lt; 12</text>
<polygon fill="#ffffff" stroke="none" points="479,-105.24 479,-124.24 537,-124.24 537,-105.24 479,-105.24"/>
<polygon fill="none" stroke="black" points="479,-105.24 479,-124.24 537,-124.24 537,-105.24 479,-105.24"/>
<text text-anchor="start" x="528" y="-110.79" font-family="Helvetica,sans-Serif" font-size="11.00"> &#160;</text>
<polygon fill="#ffffff" stroke="none" points="537,-105.24 537,-124.24 605,-124.24 605,-105.24 537,-105.24"/>
<polygon fill="none" stroke="black" points="537,-105.24 537,-124.24 605,-124.24 605,-105.24 537,-105.24"/>
<text text-anchor="start" x="586.25" y="-110.79" font-family="Helvetica,sans-Serif" font-size="11.00">2 &gt;</text>
</a>
</g>
</g>
<!-- res_users -->
<g id="node2" class="node">
<title>res_users</title>
<g id="a_node2"><a xlink:href="../../tables/res_users.html" xlink:title="res_users" target="_top">
<polygon fill="#ffffff" stroke="none" points="8,-202.24 8,-395.24 156,-395.24 156,-202.24 8,-202.24"/>
<polygon fill="#f5f5f5" stroke="none" points="8,-372.24 8,-395.24 156,-395.24 156,-372.24 8,-372.24"/>
<polygon fill="none" stroke="black" points="8,-372.24 8,-395.24 156,-395.24 156,-372.24 8,-372.24"/>
<text text-anchor="start" x="12.62" y="-380.04" font-family="Helvetica,sans-Serif" font-weight="bold" font-size="11.00">res_users</text>
<text text-anchor="start" x="121.75" y="-379.79" font-family="Helvetica,sans-Serif" font-size="11.00">[table]</text>
<polygon fill="none" stroke="black" points="8,-350.24 8,-372.24 156,-372.24 156,-350.24 8,-350.24"/>
<image xlink:href="../../images/primaryKeys.png" width="11px" height="12px" preserveAspectRatio="xMinYMin meet" x="13" y="-367.237"/>
<text text-anchor="start" x="28" y="-356.79" font-family="Helvetica,sans-Serif" font-size="11.00">id</text>
<polygon fill="#ffffff" stroke="none" points="8,-328.24 8,-350.24 156,-350.24 156,-328.24 8,-328.24"/>
<polygon fill="none" stroke="black" points="8,-328.24 8,-350.24 156,-350.24 156,-328.24 8,-328.24"/>
<image xlink:href="../../images/foreignKeys.png" width="11px" height="12px" preserveAspectRatio="xMinYMin meet" x="13" y="-345.237"/>
<text text-anchor="start" x="28" y="-334.79" font-family="Helvetica,sans-Serif" font-size="11.00">partner_id</text>
<polygon fill="#ffffff" stroke="none" points="8,-306.24 8,-328.24 156,-328.24 156,-306.24 8,-306.24"/>
<polygon fill="none" stroke="black" points="8,-306.24 8,-328.24 156,-328.24 156,-306.24 8,-306.24"/>
<text text-anchor="start" x="28" y="-312.79" font-family="Helvetica,sans-Serif" font-size="11.00">login</text>
<polygon fill="none" stroke="black" points="8,-284.24 8,-306.24 156,-306.24 156,-284.24 8,-284.24"/>
<image xlink:href="../../images/foreignKeys.png" width="11px" height="12px" preserveAspectRatio="xMinYMin meet" x="13" y="-301.237"/>
<text text-anchor="start" x="28" y="-290.79" font-family="Helvetica,sans-Serif" font-size="11.00">create_uid</text>
<polygon fill="none" stroke="black" points="8,-262.24 8,-284.24 156,-284.24 156,-262.24 8,-262.24"/>
<image xlink:href="../../images/foreignKeys.png" width="11px" height="12px" preserveAspectRatio="xMinYMin meet" x="13" y="-279.237"/>
<text text-anchor="start" x="28" y="-268.79" font-family="Helvetica,sans-Serif" font-size="11.00">write_uid</text>
<polygon fill="none" stroke="black" points="8,-240.24 8,-262.24 156,-262.24 156,-240.24 8,-240.24"/>
<image xlink:href="../../images/foreignKeys.png" width="11px" height="12px" preserveAspectRatio="xMinYMin meet" x="13" y="-257.237"/>
<text text-anchor="start" x="28" y="-246.79" font-family="Helvetica,sans-Serif" font-size="11.00">sale_team_id</text>
<polygon fill="none" stroke="black" points="8,-221.24 8,-240.24 156,-240.24 156,-221.24 8,-221.24"/>
<text text-anchor="start" x="11" y="-226.79" font-family="Helvetica,sans-Serif" font-size="11.00">...</text>
<polygon fill="#ffffff" stroke="none" points="8,-202.24 8,-221.24 73,-221.24 73,-202.24 8,-202.24"/>
<polygon fill="none" stroke="black" points="8,-202.24 8,-221.24 73,-221.24 73,-202.24 8,-202.24"/>
<text text-anchor="start" x="11" y="-207.79" font-family="Helvetica,sans-Serif" font-size="11.00">&lt; 4</text>
<polygon fill="#ffffff" stroke="none" points="73,-202.24 73,-221.24 107,-221.24 107,-202.24 73,-202.24"/>
<polygon fill="none" stroke="black" points="73,-202.24 73,-221.24 107,-221.24 107,-202.24 73,-202.24"/>
<text text-anchor="start" x="98" y="-207.79" font-family="Helvetica,sans-Serif" font-size="11.00"> &#160;</text>
<polygon fill="#ffffff" stroke="none" points="107,-202.24 107,-221.24 156,-221.24 156,-202.24 107,-202.24"/>
<polygon fill="none" stroke="black" points="107,-202.24 107,-221.24 156,-221.24 156,-202.24 107,-202.24"/>
<text text-anchor="start" x="131.25" y="-207.79" font-family="Helvetica,sans-Serif" font-size="11.00">65 &gt;</text>
</a>
</g>
</g>
<!-- crm_lead&#45;&gt;res_users -->
<g id="edge1" class="edge">
<title>crm_lead:w&#45;&gt;res_users:e</title>
<path fill="none" stroke="black" d="M343.35,-176.61C273.32,-180.14 248.29,-208.58 197,-265.74 166.27,-299.99 203.02,-361.24 157,-361.24"/>
<polygon fill="black" stroke="black" points="350.67,-176.44 358.75,-179.84 355,-176.33 358.33,-176.25 358.33,-176.25 358.33,-176.25 355,-176.33 358.58,-172.65 350.67,-176.44"/>
<ellipse fill="none" stroke="black" cx="345.75" cy="-176.55" rx="3.2" ry="3.2"/>
</g>
<!-- crm_lead&#45;&gt;res_users -->
<g id="edge2" class="edge">
<title>crm_lead:w&#45;&gt;res_users:e</title>
<path fill="none" stroke="black" d="M344.1,-501.38C331.22,-489.4 339.87,-458.15 319,-440.74 274.38,-403.52 247.28,-422.86 197,-393.74 177.18,-382.26 179.91,-361.24 157,-361.24"/>
<polygon fill="black" stroke="black" points="351.08,-503.65 357.57,-509.56 355.2,-505 358.36,-506.03 358.36,-506.03 358.36,-506.03 355.2,-505 359.8,-502.71 351.08,-503.65"/>
<ellipse fill="none" stroke="black" cx="346.4" cy="-502.13" rx="3.2" ry="3.2"/>
</g>
<!-- crm_lead&#45;&gt;res_users -->
<g id="edge3" class="edge">
<title>crm_lead:w&#45;&gt;res_users:e</title>
<path fill="none" stroke="black" d="M343.94,-202.4C334.88,-208.78 331.77,-221.31 319,-231.74 265.33,-275.53 250.99,-285.34 197,-328.74 179.15,-343.09 179.91,-361.24 157,-361.24"/>
<polygon fill="black" stroke="black" points="350.97,-200.46 359.64,-201.8 355.14,-199.3 358.36,-198.42 358.36,-198.42 358.36,-198.42 355.14,-199.3 357.72,-194.86 350.97,-200.46"/>
<ellipse fill="none" stroke="black" cx="346.23" cy="-201.77" rx="3.2" ry="3.2"/>
</g>
<!-- crm_lead&#45;&gt;res_users -->
<g id="edge4" class="edge">
<title>crm_lead:w&#45;&gt;res_users:e</title>
<path fill="none" stroke="black" d="M343.94,-224.96C330.16,-237.25 340.33,-270.57 319,-289.74 260.46,-342.34 235.7,-361.24 157,-361.24"/>
<polygon fill="black" stroke="black" points="351.05,-222.73 359.76,-223.77 355.18,-221.43 358.36,-220.44 358.36,-220.44 358.36,-220.44 355.18,-221.43 357.6,-216.9 351.05,-222.73"/>
<ellipse fill="none" stroke="black" cx="346.35" cy="-224.2" rx="3.2" ry="3.2"/>
</g>
<!-- crm_lead&#45;&gt;res_users -->
<g id="edge6" class="edge">
<title>crm_lead:w&#45;&gt;res_users:e</title>
<path fill="none" stroke="black" d="M343.6,-658.5C284.95,-643.03 373.49,-527.76 319,-466.74 280.99,-424.17 241.74,-462.16 197,-426.74 170.26,-405.56 191.11,-361.24 157,-361.24"/>
<polygon fill="black" stroke="black" points="350.72,-659.3 358.26,-663.78 355.03,-659.79 358.34,-660.16 358.34,-660.16 358.34,-660.16 355.03,-659.79 359.07,-656.62 350.72,-659.3"/>
<ellipse fill="none" stroke="black" cx="345.83" cy="-658.75" rx="3.2" ry="3.2"/>
</g>
<!-- crm_lead&#45;&gt;res_users -->
<g id="edge7" class="edge">
<title>crm_lead:w&#45;&gt;res_users:e</title>
<path fill="none" stroke="black" d="M343.93,-480.05C325.41,-465.65 347.65,-417.77 319,-394.74 261.7,-348.67 230.52,-361.24 157,-361.24"/>
<polygon fill="black" stroke="black" points="350.97,-482.01 357.71,-487.62 355.15,-483.17 358.36,-484.06 358.36,-484.06 358.36,-484.06 355.15,-483.17 359.64,-480.68 350.97,-482.01"/>
<ellipse fill="none" stroke="black" cx="346.23" cy="-480.69" rx="3.2" ry="3.2"/>
</g>
<!-- crm_stage -->
<g id="node3" class="node">
<title>crm_stage</title>
<g id="a_node3"><a xlink:href="../../tables/crm_stage.html" xlink:title="crm_stage" target="_top">
<polygon fill="#ffffff" stroke="none" points="205,-477.24 205,-626.24 311,-626.24 311,-477.24 205,-477.24"/>
<polygon fill="#f5f5f5" stroke="none" points="205,-603.24 205,-626.24 311,-626.24 311,-603.24 205,-603.24"/>
<polygon fill="none" stroke="black" points="205,-603.24 205,-626.24 311,-626.24 311,-603.24 205,-603.24"/>
<text text-anchor="start" x="210" y="-611.04" font-family="Helvetica,sans-Serif" font-weight="bold" font-size="11.00">crm_stage</text>
<text text-anchor="start" x="276.75" y="-610.79" font-family="Helvetica,sans-Serif" font-size="11.00">[table]</text>
<polygon fill="none" stroke="black" points="205,-581.24 205,-603.24 311,-603.24 311,-581.24 205,-581.24"/>
<image xlink:href="../../images/primaryKeys.png" width="11px" height="12px" preserveAspectRatio="xMinYMin meet" x="210" y="-598.237"/>
<text text-anchor="start" x="225" y="-587.79" font-family="Helvetica,sans-Serif" font-size="11.00">id</text>
<polygon fill="none" stroke="black" points="205,-559.24 205,-581.24 311,-581.24 311,-559.24 205,-559.24"/>
<image xlink:href="../../images/foreignKeys.png" width="11px" height="12px" preserveAspectRatio="xMinYMin meet" x="210" y="-576.237"/>
<text text-anchor="start" x="225" y="-565.79" font-family="Helvetica,sans-Serif" font-size="11.00">team_id</text>
<polygon fill="none" stroke="black" points="205,-537.24 205,-559.24 311,-559.24 311,-537.24 205,-537.24"/>
<image xlink:href="../../images/foreignKeys.png" width="11px" height="12px" preserveAspectRatio="xMinYMin meet" x="210" y="-554.237"/>
<text text-anchor="start" x="225" y="-543.79" font-family="Helvetica,sans-Serif" font-size="11.00">create_uid</text>
<polygon fill="none" stroke="black" points="205,-515.24 205,-537.24 311,-537.24 311,-515.24 205,-515.24"/>
<image xlink:href="../../images/foreignKeys.png" width="11px" height="12px" preserveAspectRatio="xMinYMin meet" x="210" y="-532.237"/>
<text text-anchor="start" x="225" y="-521.79" font-family="Helvetica,sans-Serif" font-size="11.00">write_uid</text>
<polygon fill="none" stroke="black" points="205,-496.24 205,-515.24 311,-515.24 311,-496.24 205,-496.24"/>
<text text-anchor="start" x="208" y="-501.79" font-family="Helvetica,sans-Serif" font-size="11.00">...</text>
<polygon fill="#ffffff" stroke="none" points="205,-477.24 205,-496.24 252,-496.24 252,-477.24 205,-477.24"/>
<polygon fill="none" stroke="black" points="205,-477.24 205,-496.24 252,-496.24 252,-477.24 205,-477.24"/>
<text text-anchor="start" x="208" y="-482.79" font-family="Helvetica,sans-Serif" font-size="11.00">&lt; 3</text>
<polygon fill="#ffffff" stroke="none" points="252,-477.24 252,-496.24 277,-496.24 277,-477.24 252,-477.24"/>
<polygon fill="none" stroke="black" points="252,-477.24 252,-496.24 277,-496.24 277,-477.24 252,-477.24"/>
<text text-anchor="start" x="268" y="-482.79" font-family="Helvetica,sans-Serif" font-size="11.00"> &#160;</text>
<polygon fill="#ffffff" stroke="none" points="277,-477.24 277,-496.24 311,-496.24 311,-477.24 277,-477.24"/>
<polygon fill="none" stroke="black" points="277,-477.24 277,-496.24 311,-496.24 311,-477.24 277,-477.24"/>
<text text-anchor="start" x="292.25" y="-482.79" font-family="Helvetica,sans-Serif" font-size="11.00">3 &gt;</text>
</a>
</g>
</g>
<!-- crm_lead&#45;&gt;crm_stage -->
<g id="edge5" class="edge">
<title>crm_lead:w&#45;&gt;crm_stage:e</title>
<path fill="none" stroke="black" d="M343.38,-593.79C333.47,-593.2 326.54,-592.24 312,-592.24"/>
<polygon fill="black" stroke="black" points="350.67,-594 358.56,-597.83 355,-594.12 358.33,-594.22 358.33,-594.22 358.33,-594.22 355,-594.12 358.77,-590.63 350.67,-594"/>
<ellipse fill="none" stroke="black" cx="345.75" cy="-593.86" rx="3.2" ry="3.2"/>
</g>
<!-- crm_stage&#45;&gt;res_users -->
<g id="edge12" class="edge">
<title>crm_stage:w&#45;&gt;res_users:e</title>
<path fill="none" stroke="black" d="M188.55,-545.45C135.19,-522.19 236.5,-361.24 157,-361.24"/>
<polygon fill="black" stroke="black" points="195.8,-546.76 203.03,-551.72 200.06,-547.53 203.34,-548.12 203.34,-548.12 203.34,-548.12 200.06,-547.53 204.31,-544.63 195.8,-546.76"/>
<ellipse fill="none" stroke="black" cx="190.96" cy="-545.88" rx="3.2" ry="3.2"/>
</g>
<!-- crm_stage&#45;&gt;res_users -->
<g id="edge13" class="edge">
<title>crm_stage:w&#45;&gt;res_users:e</title>
<path fill="none" stroke="black" d="M188.7,-523.09C143.84,-500.28 227,-361.24 157,-361.24"/>
<polygon fill="black" stroke="black" points="195.84,-524.56 202.95,-529.7 200.08,-525.43 203.34,-526.1 203.34,-526.1 203.34,-526.1 200.08,-525.43 204.4,-522.64 195.84,-524.56"/>
<ellipse fill="none" stroke="black" cx="191.02" cy="-523.56" rx="3.2" ry="3.2"/>
</g>
<!-- crm_lead_requirement -->
<g id="node4" class="node">
<title>crm_lead_requirement</title>
<g id="a_node4"><a xlink:href="../../tables/crm_lead_requirement.html" xlink:title="crm_lead_requirement" target="_top">
<polygon fill="#ffffff" stroke="none" points="654,-150.74 654,-504.74 922,-504.74 922,-150.74 654,-150.74"/>
<polygon fill="#f5f5f5" stroke="none" points="656,-479.74 656,-502.74 920,-502.74 920,-479.74 656,-479.74"/>
<polygon fill="none" stroke="black" points="656,-479.74 656,-502.74 920,-502.74 920,-479.74 656,-479.74"/>
<text text-anchor="start" x="661" y="-487.54" font-family="Helvetica,sans-Serif" font-weight="bold" font-size="11.00">crm_lead_requirement</text>
<text text-anchor="start" x="885.75" y="-487.29" font-family="Helvetica,sans-Serif" font-size="11.00">[table]</text>
<polygon fill="none" stroke="black" points="656,-457.74 656,-479.74 812,-479.74 812,-457.74 656,-457.74"/>
<image xlink:href="../../images/primaryKeys.png" width="11px" height="12px" preserveAspectRatio="xMinYMin meet" x="661" y="-474.737"/>
<text text-anchor="start" x="676" y="-464.29" font-family="Helvetica,sans-Serif" font-size="11.00">id</text>
<polygon fill="none" stroke="black" points="812,-457.74 812,-479.74 920,-479.74 920,-457.74 812,-457.74"/>
<text text-anchor="start" x="815" y="-465.04" font-family="Helvetica,sans-Serif" font-size="11.00">serial[10]</text>
<polygon fill="none" stroke="black" points="656,-435.74 656,-457.74 812,-457.74 812,-435.74 656,-435.74"/>
<text text-anchor="start" x="676" y="-442.29" font-family="Helvetica,sans-Serif" font-size="11.00">sequence</text>
<polygon fill="none" stroke="black" points="812,-435.74 812,-457.74 920,-457.74 920,-435.74 812,-435.74"/>
<text text-anchor="start" x="815" y="-443.04" font-family="Helvetica,sans-Serif" font-size="11.00">int4[10]</text>
<polygon fill="none" stroke="black" points="656,-413.74 656,-435.74 812,-435.74 812,-413.74 656,-413.74"/>
<image xlink:href="../../images/foreignKeys.png" width="11px" height="12px" preserveAspectRatio="xMinYMin meet" x="661" y="-430.737"/>
<text text-anchor="start" x="676" y="-420.29" font-family="Helvetica,sans-Serif" font-size="11.00">stage_id</text>
<polygon fill="none" stroke="black" points="812,-413.74 812,-435.74 920,-435.74 920,-413.74 812,-413.74"/>
<text text-anchor="start" x="815" y="-421.04" font-family="Helvetica,sans-Serif" font-size="11.00">int4[10]</text>
<polygon fill="none" stroke="black" points="656,-391.74 656,-413.74 812,-413.74 812,-391.74 656,-391.74"/>
<image xlink:href="../../images/foreignKeys.png" width="11px" height="12px" preserveAspectRatio="xMinYMin meet" x="661" y="-408.737"/>
<text text-anchor="start" x="676" y="-398.29" font-family="Helvetica,sans-Serif" font-size="11.00">lead_id</text>
<polygon fill="none" stroke="black" points="812,-391.74 812,-413.74 920,-413.74 920,-391.74 812,-391.74"/>
<text text-anchor="start" x="815" y="-399.04" font-family="Helvetica,sans-Serif" font-size="11.00">int4[10]</text>
<polygon fill="none" stroke="black" points="656,-369.74 656,-391.74 812,-391.74 812,-369.74 656,-369.74"/>
<text text-anchor="start" x="676" y="-376.29" font-family="Helvetica,sans-Serif" font-size="11.00">company_id</text>
<polygon fill="none" stroke="black" points="812,-369.74 812,-391.74 920,-391.74 920,-369.74 812,-369.74"/>
<text text-anchor="start" x="815" y="-377.04" font-family="Helvetica,sans-Serif" font-size="11.00">int4[10]</text>
<polygon fill="none" stroke="black" points="656,-347.74 656,-369.74 812,-369.74 812,-347.74 656,-347.74"/>
<image xlink:href="../../images/foreignKeys.png" width="11px" height="12px" preserveAspectRatio="xMinYMin meet" x="661" y="-364.737"/>
<text text-anchor="start" x="676" y="-354.29" font-family="Helvetica,sans-Serif" font-size="11.00">create_uid</text>
<polygon fill="none" stroke="black" points="812,-347.74 812,-369.74 920,-369.74 920,-347.74 812,-347.74"/>
<text text-anchor="start" x="815" y="-355.04" font-family="Helvetica,sans-Serif" font-size="11.00">int4[10]</text>
<polygon fill="none" stroke="black" points="656,-325.74 656,-347.74 812,-347.74 812,-325.74 656,-325.74"/>
<image xlink:href="../../images/foreignKeys.png" width="11px" height="12px" preserveAspectRatio="xMinYMin meet" x="661" y="-342.737"/>
<text text-anchor="start" x="676" y="-332.29" font-family="Helvetica,sans-Serif" font-size="11.00">write_uid</text>
<polygon fill="none" stroke="black" points="812,-325.74 812,-347.74 920,-347.74 920,-325.74 812,-325.74"/>
<text text-anchor="start" x="815" y="-333.04" font-family="Helvetica,sans-Serif" font-size="11.00">int4[10]</text>
<polygon fill="none" stroke="black" points="656,-303.74 656,-325.74 812,-325.74 812,-303.74 656,-303.74"/>
<text text-anchor="start" x="676" y="-310.29" font-family="Helvetica,sans-Serif" font-size="11.00">name</text>
<polygon fill="none" stroke="black" points="812,-303.74 812,-325.74 920,-325.74 920,-303.74 812,-303.74"/>
<text text-anchor="start" x="815" y="-311.04" font-family="Helvetica,sans-Serif" font-size="11.00">varchar[2147483647]</text>
<polygon fill="none" stroke="black" points="656,-281.74 656,-303.74 812,-303.74 812,-281.74 656,-281.74"/>
<text text-anchor="start" x="676" y="-288.29" font-family="Helvetica,sans-Serif" font-size="11.00">description</text>
<polygon fill="none" stroke="black" points="812,-281.74 812,-303.74 920,-303.74 920,-281.74 812,-281.74"/>
<text text-anchor="start" x="815" y="-289.04" font-family="Helvetica,sans-Serif" font-size="11.00">varchar[2147483647]</text>
<polygon fill="none" stroke="black" points="656,-259.74 656,-281.74 812,-281.74 812,-259.74 656,-259.74"/>
<text text-anchor="start" x="676" y="-266.29" font-family="Helvetica,sans-Serif" font-size="11.00">feedback</text>
<polygon fill="none" stroke="black" points="812,-259.74 812,-281.74 920,-281.74 920,-259.74 812,-259.74"/>
<text text-anchor="start" x="815" y="-267.04" font-family="Helvetica,sans-Serif" font-size="11.00">varchar[2147483647]</text>
<polygon fill="none" stroke="black" points="656,-237.74 656,-259.74 812,-259.74 812,-237.74 656,-237.74"/>
<text text-anchor="start" x="676" y="-244.29" font-family="Helvetica,sans-Serif" font-size="11.00">done</text>
<polygon fill="none" stroke="black" points="812,-237.74 812,-259.74 920,-259.74 920,-237.74 812,-237.74"/>
<text text-anchor="start" x="815" y="-245.04" font-family="Helvetica,sans-Serif" font-size="11.00">bool[1]</text>
<polygon fill="none" stroke="black" points="656,-215.74 656,-237.74 812,-237.74 812,-215.74 656,-215.74"/>
<text text-anchor="start" x="676" y="-222.29" font-family="Helvetica,sans-Serif" font-size="11.00">done_date</text>
<polygon fill="none" stroke="black" points="812,-215.74 812,-237.74 920,-237.74 920,-215.74 812,-215.74"/>
<text text-anchor="start" x="815" y="-223.04" font-family="Helvetica,sans-Serif" font-size="11.00">timestamp[29,6]</text>
<polygon fill="none" stroke="black" points="656,-193.74 656,-215.74 812,-215.74 812,-193.74 656,-193.74"/>
<text text-anchor="start" x="676" y="-200.29" font-family="Helvetica,sans-Serif" font-size="11.00">create_date</text>
<polygon fill="none" stroke="black" points="812,-193.74 812,-215.74 920,-215.74 920,-193.74 812,-193.74"/>
<text text-anchor="start" x="815" y="-201.04" font-family="Helvetica,sans-Serif" font-size="11.00">timestamp[29,6]</text>
<polygon fill="none" stroke="black" points="656,-171.74 656,-193.74 812,-193.74 812,-171.74 656,-171.74"/>
<text text-anchor="start" x="676" y="-178.29" font-family="Helvetica,sans-Serif" font-size="11.00">write_date</text>
<polygon fill="none" stroke="black" points="812,-171.74 812,-193.74 920,-193.74 920,-171.74 812,-171.74"/>
<text text-anchor="start" x="815" y="-179.04" font-family="Helvetica,sans-Serif" font-size="11.00">timestamp[29,6]</text>
<polygon fill="#ffffff" stroke="none" points="656,-152.74 656,-171.74 738,-171.74 738,-152.74 656,-152.74"/>
<polygon fill="none" stroke="black" points="656,-152.74 656,-171.74 738,-171.74 738,-152.74 656,-152.74"/>
<text text-anchor="start" x="659" y="-158.29" font-family="Helvetica,sans-Serif" font-size="11.00">&lt; 4</text>
<polygon fill="#ffffff" stroke="none" points="738,-152.74 738,-171.74 812,-171.74 812,-152.74 738,-152.74"/>
<polygon fill="none" stroke="black" points="738,-152.74 738,-171.74 812,-171.74 812,-152.74 738,-152.74"/>
<text text-anchor="start" x="803" y="-158.29" font-family="Helvetica,sans-Serif" font-size="11.00"> &#160;</text>
<polygon fill="#ffffff" stroke="none" points="812,-152.74 812,-171.74 920,-171.74 920,-152.74 812,-152.74"/>
<polygon fill="none" stroke="black" points="812,-152.74 812,-171.74 920,-171.74 920,-152.74 812,-152.74"/>
<text text-anchor="start" x="901.25" y="-158.29" font-family="Helvetica,sans-Serif" font-size="11.00">0 &gt;</text>
<polygon fill="none" stroke="black" stroke-width="2" points="655,-151.74 655,-503.74 921,-503.74 921,-151.74 655,-151.74"/>
</a>
</g>
</g>
<!-- crm_lead_requirement&#45;&gt;crm_lead -->
<g id="edge9" class="edge">
<title>crm_lead_requirement:w&#45;&gt;crm_lead:e</title>
<path fill="none" stroke="black" d="M639.37,-404.52C547.21,-428.33 726.21,-682.24 606,-682.24"/>
<polygon fill="black" stroke="black" points="646.72,-403.68 655.08,-406.35 651.03,-403.19 654.34,-402.81 654.34,-402.81 654.34,-402.81 651.03,-403.19 654.26,-399.2 646.72,-403.68"/>
<ellipse fill="none" stroke="black" cx="641.83" cy="-404.24" rx="3.2" ry="3.2"/>
</g>
<!-- crm_lead_requirement&#45;&gt;res_users -->
<g id="edge8" class="edge">
<title>crm_lead_requirement:w&#45;&gt;res_users:e</title>
<path fill="none" stroke="black" d="M640.87,-352.67C606.79,-316.49 653.77,-129.54 613,-94.74 568.88,-57.08 408.33,-80.91 352,-94.74 276.51,-113.27 244.09,-113.9 197,-175.74 145.9,-242.84 241.34,-361.24 157,-361.24"/>
<polygon fill="black" stroke="black" points="647.34,-355.45 653.27,-361.91 651.32,-357.16 654.39,-358.47 654.39,-358.47 654.39,-358.47 651.32,-357.16 656.11,-355.3 647.34,-355.45"/>
<ellipse fill="none" stroke="black" cx="642.82" cy="-353.51" rx="3.2" ry="3.2"/>
</g>
<!-- crm_lead_requirement&#45;&gt;res_users -->
<g id="edge11" class="edge">
<title>crm_lead_requirement:w&#45;&gt;res_users:e</title>
<path fill="none" stroke="black" d="M640.78,-330.63C606.49,-294.17 654.05,-105.82 613,-70.74 524.81,4.62 467.5,-60.02 352,-70.74 282.22,-77.21 245.73,-49.36 197,-99.74 156.13,-141.99 215.79,-361.24 157,-361.24"/>
<polygon fill="black" stroke="black" points="647.34,-333.45 653.27,-339.91 651.32,-335.16 654.39,-336.47 654.39,-336.47 654.39,-336.47 651.32,-335.16 656.11,-333.3 647.34,-333.45"/>
<ellipse fill="none" stroke="black" cx="642.82" cy="-331.51" rx="3.2" ry="3.2"/>
</g>
<!-- crm_lead_requirement&#45;&gt;crm_stage -->
<g id="edge10" class="edge">
<title>crm_lead_requirement:w&#45;&gt;crm_stage:e</title>
<path fill="none" stroke="black" d="M640.3,-430.39C599.77,-468.36 659.61,-686.16 613,-726.74 525.51,-802.9 444.98,-796.09 352,-726.74 302.01,-689.45 374.37,-592.24 312,-592.24"/>
<polygon fill="black" stroke="black" points="647.22,-427.73 655.98,-428.22 651.27,-426.17 654.38,-424.98 654.38,-424.98 654.38,-424.98 651.27,-426.17 653.4,-421.5 647.22,-427.73"/>
<ellipse fill="none" stroke="black" cx="642.63" cy="-429.49" rx="3.2" ry="3.2"/>
</g>
</g>
</svg>
