<?xml version="1.0" encoding="UTF-8" standalone="no"?>
<!DOCTYPE svg PUBLIC "-//W3C//DTD SVG 1.1//EN"
 "http://www.w3.org/Graphics/SVG/1.1/DTD/svg11.dtd">
<!-- Generated by graphviz version 12.0.0 (0)
 -->
<!-- Title: oneDegreeRelationshipsDiagram Pages: 1 -->
<svg width="1017pt" height="1088pt"
 viewBox="0.00 0.00 1017.35 1088.00" xmlns="http://www.w3.org/2000/svg" xmlns:xlink="http://www.w3.org/1999/xlink">
<g id="graph0" class="graph" transform="scale(1 1) rotate(0) translate(4 1084)">
<title>oneDegreeRelationshipsDiagram</title>
<polygon fill="#ffffff" stroke="none" points="-4,4 -4,-1084 1013.35,-1084 1013.35,4 -4,4"/>
<text text-anchor="middle" x="71.38" y="-7.05" font-family="Helvetica,sans-Serif" font-size="11.00">Generated by SchemaSpy</text>
<!-- product_category -->
<g id="node1" class="node">
<title>product_category</title>
<g id="a_node1"><a xlink:href="../../tables/product_category.html" xlink:title="product_category" target="_top">
<polygon fill="#ffffff" stroke="none" points="453.35,-861 453.35,-1076 652.35,-1076 652.35,-861 453.35,-861"/>
<polygon fill="#f5f5f5" stroke="none" points="453.35,-1053 453.35,-1076 652.35,-1076 652.35,-1053 453.35,-1053"/>
<polygon fill="none" stroke="black" points="453.35,-1053 453.35,-1076 652.35,-1076 652.35,-1053 453.35,-1053"/>
<text text-anchor="start" x="458.35" y="-1060.8" font-family="Helvetica,sans-Serif" font-weight="bold" font-size="11.00">product_category</text>
<text text-anchor="start" x="618.1" y="-1060.55" font-family="Helvetica,sans-Serif" font-size="11.00">[table]</text>
<polygon fill="none" stroke="black" points="453.35,-1031 453.35,-1053 652.35,-1053 652.35,-1031 453.35,-1031"/>
<image xlink:href="../../images/primaryKeys.png" width="11px" height="12px" preserveAspectRatio="xMinYMin meet" x="458.354" y="-1048"/>
<text text-anchor="start" x="473.35" y="-1037.55" font-family="Helvetica,sans-Serif" font-size="11.00">id</text>
<polygon fill="#ffffff" stroke="none" points="453.35,-1009 453.35,-1031 652.35,-1031 652.35,-1009 453.35,-1009"/>
<polygon fill="none" stroke="black" points="453.35,-1009 453.35,-1031 652.35,-1031 652.35,-1009 453.35,-1009"/>
<image xlink:href="../../images/foreignKeys.png" width="11px" height="12px" preserveAspectRatio="xMinYMin meet" x="458.354" y="-1026"/>
<text text-anchor="start" x="473.35" y="-1015.55" font-family="Helvetica,sans-Serif" font-size="11.00">parent_id</text>
<polygon fill="none" stroke="black" points="453.35,-987 453.35,-1009 652.35,-1009 652.35,-987 453.35,-987"/>
<image xlink:href="../../images/foreignKeys.png" width="11px" height="12px" preserveAspectRatio="xMinYMin meet" x="458.354" y="-1004"/>
<text text-anchor="start" x="473.35" y="-993.55" font-family="Helvetica,sans-Serif" font-size="11.00">create_uid</text>
<polygon fill="none" stroke="black" points="453.35,-965 453.35,-987 652.35,-987 652.35,-965 453.35,-965"/>
<image xlink:href="../../images/foreignKeys.png" width="11px" height="12px" preserveAspectRatio="xMinYMin meet" x="458.354" y="-982"/>
<text text-anchor="start" x="473.35" y="-971.55" font-family="Helvetica,sans-Serif" font-size="11.00">write_uid</text>
<polygon fill="#ffffff" stroke="none" points="453.35,-943 453.35,-965 652.35,-965 652.35,-943 453.35,-943"/>
<polygon fill="none" stroke="black" points="453.35,-943 453.35,-965 652.35,-965 652.35,-943 453.35,-943"/>
<text text-anchor="start" x="473.35" y="-949.55" font-family="Helvetica,sans-Serif" font-size="11.00">name</text>
<polygon fill="#ffffff" stroke="none" points="453.35,-921 453.35,-943 652.35,-943 652.35,-921 453.35,-921"/>
<polygon fill="none" stroke="black" points="453.35,-921 453.35,-943 652.35,-943 652.35,-921 453.35,-921"/>
<text text-anchor="start" x="473.35" y="-927.55" font-family="Helvetica,sans-Serif" font-size="11.00">parent_path</text>
<polygon fill="none" stroke="black" points="453.35,-899 453.35,-921 652.35,-921 652.35,-899 453.35,-899"/>
<image xlink:href="../../images/foreignKeys.png" width="11px" height="12px" preserveAspectRatio="xMinYMin meet" x="458.354" y="-916"/>
<text text-anchor="start" x="473.35" y="-905.55" font-family="Helvetica,sans-Serif" font-size="11.00">citizen_id</text>
<polygon fill="none" stroke="black" points="453.35,-880 453.35,-899 652.35,-899 652.35,-880 453.35,-880"/>
<text text-anchor="start" x="456.35" y="-885.55" font-family="Helvetica,sans-Serif" font-size="11.00">...</text>
<polygon fill="#ffffff" stroke="none" points="453.35,-861 453.35,-880 546.35,-880 546.35,-861 453.35,-861"/>
<polygon fill="none" stroke="black" points="453.35,-861 453.35,-880 546.35,-880 546.35,-861 453.35,-861"/>
<text text-anchor="start" x="456.35" y="-866.55" font-family="Helvetica,sans-Serif" font-size="11.00">&lt; 4</text>
<polygon fill="#ffffff" stroke="none" points="546.35,-861 546.35,-880 594.35,-880 594.35,-861 546.35,-861"/>
<polygon fill="none" stroke="black" points="546.35,-861 546.35,-880 594.35,-880 594.35,-861 546.35,-861"/>
<text text-anchor="start" x="585.35" y="-866.55" font-family="Helvetica,sans-Serif" font-size="11.00"> &#160;</text>
<polygon fill="#ffffff" stroke="none" points="594.35,-861 594.35,-880 652.35,-880 652.35,-861 594.35,-861"/>
<polygon fill="none" stroke="black" points="594.35,-861 594.35,-880 652.35,-880 652.35,-861 594.35,-861"/>
<text text-anchor="start" x="633.6" y="-866.55" font-family="Helvetica,sans-Serif" font-size="11.00">2 &gt;</text>
</a>
</g>
</g>
<!-- res_partner -->
<g id="node2" class="node">
<title>res_partner</title>
<g id="a_node2"><a xlink:href="../../tables/res_partner.html" xlink:title="res_partner" target="_top">
<polygon fill="#ffffff" stroke="none" points="214.35,-350 214.35,-785 404.35,-785 404.35,-350 214.35,-350"/>
<polygon fill="#f5f5f5" stroke="none" points="214.35,-762 214.35,-785 404.35,-785 404.35,-762 214.35,-762"/>
<polygon fill="none" stroke="black" points="214.35,-762 214.35,-785 404.35,-785 404.35,-762 214.35,-762"/>
<text text-anchor="start" x="219.35" y="-769.8" font-family="Helvetica,sans-Serif" font-weight="bold" font-size="11.00">res_partner</text>
<text text-anchor="start" x="370.1" y="-769.55" font-family="Helvetica,sans-Serif" font-size="11.00">[table]</text>
<polygon fill="none" stroke="black" points="214.35,-740 214.35,-762 404.35,-762 404.35,-740 214.35,-740"/>
<image xlink:href="../../images/primaryKeys.png" width="11px" height="12px" preserveAspectRatio="xMinYMin meet" x="219.354" y="-757"/>
<text text-anchor="start" x="234.35" y="-746.55" font-family="Helvetica,sans-Serif" font-size="11.00">id</text>
<polygon fill="#ffffff" stroke="none" points="214.35,-718 214.35,-740 404.35,-740 404.35,-718 214.35,-718"/>
<polygon fill="none" stroke="black" points="214.35,-718 214.35,-740 404.35,-740 404.35,-718 214.35,-718"/>
<text text-anchor="start" x="234.35" y="-724.55" font-family="Helvetica,sans-Serif" font-size="11.00">company_id</text>
<polygon fill="#ffffff" stroke="none" points="214.35,-696 214.35,-718 404.35,-718 404.35,-696 214.35,-696"/>
<polygon fill="none" stroke="black" points="214.35,-696 214.35,-718 404.35,-718 404.35,-696 214.35,-696"/>
<text text-anchor="start" x="234.35" y="-702.55" font-family="Helvetica,sans-Serif" font-size="11.00">name</text>
<polygon fill="#ffffff" stroke="none" points="214.35,-674 214.35,-696 404.35,-696 404.35,-674 214.35,-674"/>
<polygon fill="none" stroke="black" points="214.35,-674 214.35,-696 404.35,-696 404.35,-674 214.35,-674"/>
<image xlink:href="../../images/foreignKeys.png" width="11px" height="12px" preserveAspectRatio="xMinYMin meet" x="219.354" y="-691"/>
<text text-anchor="start" x="234.35" y="-680.55" font-family="Helvetica,sans-Serif" font-size="11.00">parent_id</text>
<polygon fill="none" stroke="black" points="214.35,-652 214.35,-674 404.35,-674 404.35,-652 214.35,-652"/>
<image xlink:href="../../images/foreignKeys.png" width="11px" height="12px" preserveAspectRatio="xMinYMin meet" x="219.354" y="-669"/>
<text text-anchor="start" x="234.35" y="-658.55" font-family="Helvetica,sans-Serif" font-size="11.00">user_id</text>
<polygon fill="none" stroke="black" points="214.35,-630 214.35,-652 404.35,-652 404.35,-630 214.35,-630"/>
<image xlink:href="../../images/foreignKeys.png" width="11px" height="12px" preserveAspectRatio="xMinYMin meet" x="219.354" y="-647"/>
<text text-anchor="start" x="234.35" y="-636.55" font-family="Helvetica,sans-Serif" font-size="11.00">country_id</text>
<polygon fill="#ffffff" stroke="none" points="214.35,-608 214.35,-630 404.35,-630 404.35,-608 214.35,-608"/>
<polygon fill="none" stroke="black" points="214.35,-608 214.35,-630 404.35,-630 404.35,-608 214.35,-608"/>
<image xlink:href="../../images/foreignKeys.png" width="11px" height="12px" preserveAspectRatio="xMinYMin meet" x="219.354" y="-625"/>
<text text-anchor="start" x="234.35" y="-614.55" font-family="Helvetica,sans-Serif" font-size="11.00">commercial_partner_id</text>
<polygon fill="none" stroke="black" points="214.35,-586 214.35,-608 404.35,-608 404.35,-586 214.35,-586"/>
<image xlink:href="../../images/foreignKeys.png" width="11px" height="12px" preserveAspectRatio="xMinYMin meet" x="219.354" y="-603"/>
<text text-anchor="start" x="234.35" y="-592.55" font-family="Helvetica,sans-Serif" font-size="11.00">create_uid</text>
<polygon fill="none" stroke="black" points="214.35,-564 214.35,-586 404.35,-586 404.35,-564 214.35,-564"/>
<image xlink:href="../../images/foreignKeys.png" width="11px" height="12px" preserveAspectRatio="xMinYMin meet" x="219.354" y="-581"/>
<text text-anchor="start" x="234.35" y="-570.55" font-family="Helvetica,sans-Serif" font-size="11.00">write_uid</text>
<polygon fill="#ffffff" stroke="none" points="214.35,-542 214.35,-564 404.35,-564 404.35,-542 214.35,-542"/>
<polygon fill="none" stroke="black" points="214.35,-542 214.35,-564 404.35,-564 404.35,-542 214.35,-542"/>
<text text-anchor="start" x="234.35" y="-548.55" font-family="Helvetica,sans-Serif" font-size="11.00">complete_name</text>
<polygon fill="#ffffff" stroke="none" points="214.35,-520 214.35,-542 404.35,-542 404.35,-520 214.35,-520"/>
<polygon fill="none" stroke="black" points="214.35,-520 214.35,-542 404.35,-542 404.35,-520 214.35,-520"/>
<text text-anchor="start" x="234.35" y="-526.55" font-family="Helvetica,sans-Serif" font-size="11.00">ref</text>
<polygon fill="#ffffff" stroke="none" points="214.35,-498 214.35,-520 404.35,-520 404.35,-498 214.35,-498"/>
<polygon fill="none" stroke="black" points="214.35,-498 214.35,-520 404.35,-520 404.35,-498 214.35,-498"/>
<text text-anchor="start" x="234.35" y="-504.55" font-family="Helvetica,sans-Serif" font-size="11.00">vat</text>
<polygon fill="#ffffff" stroke="none" points="214.35,-476 214.35,-498 404.35,-498 404.35,-476 214.35,-476"/>
<polygon fill="none" stroke="black" points="214.35,-476 214.35,-498 404.35,-498 404.35,-476 214.35,-476"/>
<text text-anchor="start" x="234.35" y="-482.55" font-family="Helvetica,sans-Serif" font-size="11.00">date</text>
<polygon fill="none" stroke="black" points="214.35,-454 214.35,-476 404.35,-476 404.35,-454 214.35,-454"/>
<image xlink:href="../../images/foreignKeys.png" width="11px" height="12px" preserveAspectRatio="xMinYMin meet" x="219.354" y="-471"/>
<text text-anchor="start" x="234.35" y="-460.55" font-family="Helvetica,sans-Serif" font-size="11.00">team_id</text>
<polygon fill="none" stroke="black" points="214.35,-432 214.35,-454 404.35,-454 404.35,-432 214.35,-432"/>
<image xlink:href="../../images/foreignKeys.png" width="11px" height="12px" preserveAspectRatio="xMinYMin meet" x="219.354" y="-449"/>
<text text-anchor="start" x="234.35" y="-438.55" font-family="Helvetica,sans-Serif" font-size="11.00">buyer_id</text>
<polygon fill="none" stroke="black" points="214.35,-410 214.35,-432 404.35,-432 404.35,-410 214.35,-410"/>
<image xlink:href="../../images/foreignKeys.png" width="11px" height="12px" preserveAspectRatio="xMinYMin meet" x="219.354" y="-427"/>
<text text-anchor="start" x="234.35" y="-416.55" font-family="Helvetica,sans-Serif" font-size="11.00">parent_company_id</text>
<polygon fill="none" stroke="black" points="214.35,-388 214.35,-410 404.35,-410 404.35,-388 214.35,-388"/>
<image xlink:href="../../images/foreignKeys.png" width="11px" height="12px" preserveAspectRatio="xMinYMin meet" x="219.354" y="-405"/>
<text text-anchor="start" x="234.35" y="-394.55" font-family="Helvetica,sans-Serif" font-size="11.00">account_manager_id</text>
<polygon fill="none" stroke="black" points="214.35,-369 214.35,-388 404.35,-388 404.35,-369 214.35,-369"/>
<text text-anchor="start" x="217.35" y="-374.55" font-family="Helvetica,sans-Serif" font-size="11.00">...</text>
<polygon fill="#ffffff" stroke="none" points="214.35,-350 214.35,-369 303.35,-369 303.35,-350 214.35,-350"/>
<polygon fill="none" stroke="black" points="214.35,-350 214.35,-369 303.35,-369 303.35,-350 214.35,-350"/>
<text text-anchor="start" x="217.35" y="-355.55" font-family="Helvetica,sans-Serif" font-size="11.00">&lt; 10</text>
<polygon fill="#ffffff" stroke="none" points="303.35,-350 303.35,-369 346.35,-369 346.35,-350 303.35,-350"/>
<polygon fill="none" stroke="black" points="303.35,-350 303.35,-369 346.35,-369 346.35,-350 303.35,-350"/>
<text text-anchor="start" x="337.35" y="-355.55" font-family="Helvetica,sans-Serif" font-size="11.00"> &#160;</text>
<polygon fill="#ffffff" stroke="none" points="346.35,-350 346.35,-369 404.35,-369 404.35,-350 346.35,-350"/>
<polygon fill="none" stroke="black" points="346.35,-350 346.35,-369 404.35,-369 404.35,-350 346.35,-350"/>
<text text-anchor="start" x="379.6" y="-355.55" font-family="Helvetica,sans-Serif" font-size="11.00">23 &gt;</text>
</a>
</g>
</g>
<!-- product_category&#45;&gt;res_partner -->
<g id="edge1" class="edge">
<title>product_category:w&#45;&gt;res_partner:e</title>
<path fill="none" stroke="black" d="M436.99,-906.68C394.63,-883.85 472.71,-751 405.35,-751"/>
<polygon fill="black" stroke="black" points="444.21,-908.24 451.27,-913.45 448.44,-909.15 451.7,-909.86 451.7,-909.86 451.7,-909.86 448.44,-909.15 452.79,-906.41 444.21,-908.24"/>
<ellipse fill="none" stroke="black" cx="439.4" cy="-907.2" rx="3.2" ry="3.2"/>
</g>
<!-- res_users -->
<g id="node3" class="node">
<title>res_users</title>
<g id="a_node3"><a xlink:href="../../tables/res_users.html" xlink:title="res_users" target="_top">
<polygon fill="#ffffff" stroke="none" points="17.35,-559 17.35,-752 165.35,-752 165.35,-559 17.35,-559"/>
<polygon fill="#f5f5f5" stroke="none" points="17.35,-729 17.35,-752 165.35,-752 165.35,-729 17.35,-729"/>
<polygon fill="none" stroke="black" points="17.35,-729 17.35,-752 165.35,-752 165.35,-729 17.35,-729"/>
<text text-anchor="start" x="21.98" y="-736.8" font-family="Helvetica,sans-Serif" font-weight="bold" font-size="11.00">res_users</text>
<text text-anchor="start" x="131.1" y="-736.55" font-family="Helvetica,sans-Serif" font-size="11.00">[table]</text>
<polygon fill="none" stroke="black" points="17.35,-707 17.35,-729 165.35,-729 165.35,-707 17.35,-707"/>
<image xlink:href="../../images/primaryKeys.png" width="11px" height="12px" preserveAspectRatio="xMinYMin meet" x="22.354" y="-724"/>
<text text-anchor="start" x="37.35" y="-713.55" font-family="Helvetica,sans-Serif" font-size="11.00">id</text>
<polygon fill="#ffffff" stroke="none" points="17.35,-685 17.35,-707 165.35,-707 165.35,-685 17.35,-685"/>
<polygon fill="none" stroke="black" points="17.35,-685 17.35,-707 165.35,-707 165.35,-685 17.35,-685"/>
<image xlink:href="../../images/foreignKeys.png" width="11px" height="12px" preserveAspectRatio="xMinYMin meet" x="22.354" y="-702"/>
<text text-anchor="start" x="37.35" y="-691.55" font-family="Helvetica,sans-Serif" font-size="11.00">partner_id</text>
<polygon fill="#ffffff" stroke="none" points="17.35,-663 17.35,-685 165.35,-685 165.35,-663 17.35,-663"/>
<polygon fill="none" stroke="black" points="17.35,-663 17.35,-685 165.35,-685 165.35,-663 17.35,-663"/>
<text text-anchor="start" x="37.35" y="-669.55" font-family="Helvetica,sans-Serif" font-size="11.00">login</text>
<polygon fill="none" stroke="black" points="17.35,-641 17.35,-663 165.35,-663 165.35,-641 17.35,-641"/>
<image xlink:href="../../images/foreignKeys.png" width="11px" height="12px" preserveAspectRatio="xMinYMin meet" x="22.354" y="-658"/>
<text text-anchor="start" x="37.35" y="-647.55" font-family="Helvetica,sans-Serif" font-size="11.00">create_uid</text>
<polygon fill="none" stroke="black" points="17.35,-619 17.35,-641 165.35,-641 165.35,-619 17.35,-619"/>
<image xlink:href="../../images/foreignKeys.png" width="11px" height="12px" preserveAspectRatio="xMinYMin meet" x="22.354" y="-636"/>
<text text-anchor="start" x="37.35" y="-625.55" font-family="Helvetica,sans-Serif" font-size="11.00">write_uid</text>
<polygon fill="none" stroke="black" points="17.35,-597 17.35,-619 165.35,-619 165.35,-597 17.35,-597"/>
<image xlink:href="../../images/foreignKeys.png" width="11px" height="12px" preserveAspectRatio="xMinYMin meet" x="22.354" y="-614"/>
<text text-anchor="start" x="37.35" y="-603.55" font-family="Helvetica,sans-Serif" font-size="11.00">sale_team_id</text>
<polygon fill="none" stroke="black" points="17.35,-578 17.35,-597 165.35,-597 165.35,-578 17.35,-578"/>
<text text-anchor="start" x="20.35" y="-583.55" font-family="Helvetica,sans-Serif" font-size="11.00">...</text>
<polygon fill="#ffffff" stroke="none" points="17.35,-559 17.35,-578 82.35,-578 82.35,-559 17.35,-559"/>
<polygon fill="none" stroke="black" points="17.35,-559 17.35,-578 82.35,-578 82.35,-559 17.35,-559"/>
<text text-anchor="start" x="20.35" y="-564.55" font-family="Helvetica,sans-Serif" font-size="11.00">&lt; 4</text>
<polygon fill="#ffffff" stroke="none" points="82.35,-559 82.35,-578 116.35,-578 116.35,-559 82.35,-559"/>
<polygon fill="none" stroke="black" points="82.35,-559 82.35,-578 116.35,-578 116.35,-559 82.35,-559"/>
<text text-anchor="start" x="107.35" y="-564.55" font-family="Helvetica,sans-Serif" font-size="11.00"> &#160;</text>
<polygon fill="#ffffff" stroke="none" points="116.35,-559 116.35,-578 165.35,-578 165.35,-559 116.35,-559"/>
<polygon fill="none" stroke="black" points="116.35,-559 116.35,-578 165.35,-578 165.35,-559 116.35,-559"/>
<text text-anchor="start" x="140.6" y="-564.55" font-family="Helvetica,sans-Serif" font-size="11.00">65 &gt;</text>
</a>
</g>
</g>
<!-- product_category&#45;&gt;res_users -->
<g id="edge2" class="edge">
<title>product_category:w&#45;&gt;res_users:e</title>
<path fill="none" stroke="black" d="M436.56,-997.94C329.9,-997.1 279.04,-985.99 206.35,-900.5 152.57,-837.24 249.39,-718 166.35,-718"/>
<polygon fill="black" stroke="black" points="444.02,-997.97 452.01,-1001.6 448.35,-997.99 451.69,-998 451.69,-998 451.69,-998 448.35,-997.99 452.03,-994.4 444.02,-997.97"/>
<ellipse fill="none" stroke="black" cx="439.1" cy="-997.95" rx="3.2" ry="3.2"/>
</g>
<!-- product_category&#45;&gt;res_users -->
<g id="edge3" class="edge">
<title>product_category:w&#45;&gt;res_users:e</title>
<path fill="none" stroke="black" d="M437.65,-971.5C422.67,-958.51 436.53,-920.63 412.35,-901.5 338.05,-842.69 274.72,-912.12 206.35,-846.5 163.2,-805.08 226.17,-718 166.35,-718"/>
<polygon fill="black" stroke="black" points="444.38,-973.56 450.98,-979.34 448.53,-974.83 451.71,-975.8 451.71,-975.8 451.71,-975.8 448.53,-974.83 453.09,-972.46 444.38,-973.56"/>
<ellipse fill="none" stroke="black" cx="439.68" cy="-972.12" rx="3.2" ry="3.2"/>
</g>
<!-- res_partner&#45;&gt;res_users -->
<g id="edge8" class="edge">
<title>res_partner:w&#45;&gt;res_users:e</title>
<path fill="none" stroke="black" d="M197.6,-400.57C89.06,-424.63 303.78,-718 166.35,-718"/>
<polygon fill="black" stroke="black" points="205.06,-399.82 213.38,-402.62 209.37,-399.4 212.69,-399.07 212.69,-399.07 212.69,-399.07 209.37,-399.4 212.67,-395.45 205.06,-399.82"/>
<ellipse fill="none" stroke="black" cx="200.17" cy="-400.31" rx="3.2" ry="3.2"/>
</g>
<!-- res_partner&#45;&gt;res_users -->
<g id="edge9" class="edge">
<title>res_partner:w&#45;&gt;res_users:e</title>
<path fill="none" stroke="black" d="M197.72,-444.83C107.85,-468.69 284.42,-718 166.35,-718"/>
<polygon fill="black" stroke="black" points="205.08,-443.97 213.44,-446.61 209.38,-443.46 212.69,-443.08 212.69,-443.08 212.69,-443.08 209.38,-443.46 212.6,-439.46 205.08,-443.97"/>
<ellipse fill="none" stroke="black" cx="200.19" cy="-444.54" rx="3.2" ry="3.2"/>
</g>
<!-- res_partner&#45;&gt;res_users -->
<g id="edge10" class="edge">
<title>res_partner:w&#45;&gt;res_users:e</title>
<path fill="none" stroke="black" d="M198.23,-601.31C169.54,-622.86 217.51,-718 166.35,-718"/>
<polygon fill="black" stroke="black" points="205.34,-599.28 214.02,-600.55 209.51,-598.1 212.71,-597.18 212.71,-597.18 212.71,-597.18 209.51,-598.1 212.05,-593.63 205.34,-599.28"/>
<ellipse fill="none" stroke="black" cx="200.61" cy="-600.63" rx="3.2" ry="3.2"/>
</g>
<!-- res_partner&#45;&gt;res_users -->
<g id="edge11" class="edge">
<title>res_partner:w&#45;&gt;res_users:e</title>
<path fill="none" stroke="black" d="M199.05,-668.89C186.19,-683.07 191.98,-718 166.35,-718"/>
<polygon fill="black" stroke="black" points="205.65,-666.17 214.41,-666.46 209.66,-664.52 212.74,-663.25 212.74,-663.25 212.74,-663.25 209.66,-664.52 211.67,-659.8 205.65,-666.17"/>
<ellipse fill="none" stroke="black" cx="201.1" cy="-668.04" rx="3.2" ry="3.2"/>
</g>
<!-- res_partner&#45;&gt;res_users -->
<g id="edge12" class="edge">
<title>res_partner:w&#45;&gt;res_users:e</title>
<path fill="none" stroke="black" d="M198.34,-578.53C161.38,-600.56 226.98,-718 166.35,-718"/>
<polygon fill="black" stroke="black" points="205.24,-576.91 213.85,-578.58 209.46,-575.92 212.7,-575.15 212.7,-575.15 212.7,-575.15 209.46,-575.92 212.2,-571.57 205.24,-576.91"/>
<ellipse fill="none" stroke="black" cx="200.45" cy="-578.04" rx="3.2" ry="3.2"/>
</g>
<!-- res_users&#45;&gt;res_partner -->
<g id="edge13" class="edge">
<title>res_users:w&#45;&gt;res_partner:e</title>
<path fill="none" stroke="black" d="M2.37,-703.3C-4.33,-715.73 4.63,-741.11 17.35,-756 72.76,-820.82 121.4,-781.64 206.35,-789 228.27,-790.9 388.59,-804.35 404.35,-789 416.46,-777.21 422.25,-751 405.35,-751"/>
<polygon fill="black" stroke="black" points="8.97,-699.86 17.72,-699.35 12.81,-697.85 15.76,-696.31 15.76,-696.31 15.76,-696.31 12.81,-697.85 14.39,-692.96 8.97,-699.86"/>
<ellipse fill="none" stroke="black" cx="4.61" cy="-702.13" rx="3.2" ry="3.2"/>
</g>
<!-- product_template -->
<g id="node4" class="node">
<title>product_template</title>
<g id="a_node4"><a xlink:href="../../tables/product_template.html" xlink:title="product_template" target="_top">
<polygon fill="#ffffff" stroke="none" points="701.35,-38.5 701.35,-1074.5 1001.35,-1074.5 1001.35,-38.5 701.35,-38.5"/>
<polygon fill="#f5f5f5" stroke="none" points="703.35,-1049.5 703.35,-1072.5 999.35,-1072.5 999.35,-1049.5 703.35,-1049.5"/>
<polygon fill="none" stroke="black" points="703.35,-1049.5 703.35,-1072.5 999.35,-1072.5 999.35,-1049.5 703.35,-1049.5"/>
<text text-anchor="start" x="708.35" y="-1057.3" font-family="Helvetica,sans-Serif" font-weight="bold" font-size="11.00">product_template</text>
<text text-anchor="start" x="965.1" y="-1057.05" font-family="Helvetica,sans-Serif" font-size="11.00">[table]</text>
<polygon fill="none" stroke="black" points="703.35,-1027.5 703.35,-1049.5 891.35,-1049.5 891.35,-1027.5 703.35,-1027.5"/>
<image xlink:href="../../images/primaryKeys.png" width="11px" height="12px" preserveAspectRatio="xMinYMin meet" x="708.354" y="-1044.5"/>
<text text-anchor="start" x="723.35" y="-1034.05" font-family="Helvetica,sans-Serif" font-size="11.00">id</text>
<polygon fill="none" stroke="black" points="891.35,-1027.5 891.35,-1049.5 999.35,-1049.5 999.35,-1027.5 891.35,-1027.5"/>
<text text-anchor="start" x="894.35" y="-1034.8" font-family="Helvetica,sans-Serif" font-size="11.00">serial[10]</text>
<polygon fill="none" stroke="black" points="703.35,-1005.5 703.35,-1027.5 891.35,-1027.5 891.35,-1005.5 703.35,-1005.5"/>
<text text-anchor="start" x="723.35" y="-1012.05" font-family="Helvetica,sans-Serif" font-size="11.00">sequence</text>
<polygon fill="none" stroke="black" points="891.35,-1005.5 891.35,-1027.5 999.35,-1027.5 999.35,-1005.5 891.35,-1005.5"/>
<text text-anchor="start" x="894.35" y="-1012.8" font-family="Helvetica,sans-Serif" font-size="11.00">int4[10]</text>
<polygon fill="none" stroke="black" points="703.35,-983.5 703.35,-1005.5 891.35,-1005.5 891.35,-983.5 703.35,-983.5"/>
<image xlink:href="../../images/foreignKeys.png" width="11px" height="12px" preserveAspectRatio="xMinYMin meet" x="708.354" y="-1000.5"/>
<text text-anchor="start" x="723.35" y="-990.05" font-family="Helvetica,sans-Serif" font-size="11.00">categ_id</text>
<polygon fill="none" stroke="black" points="891.35,-983.5 891.35,-1005.5 999.35,-1005.5 999.35,-983.5 891.35,-983.5"/>
<text text-anchor="start" x="894.35" y="-990.8" font-family="Helvetica,sans-Serif" font-size="11.00">int4[10]</text>
<polygon fill="none" stroke="black" points="703.35,-961.5 703.35,-983.5 891.35,-983.5 891.35,-961.5 703.35,-961.5"/>
<text text-anchor="start" x="723.35" y="-968.05" font-family="Helvetica,sans-Serif" font-size="11.00">uom_id</text>
<polygon fill="none" stroke="black" points="891.35,-961.5 891.35,-983.5 999.35,-983.5 999.35,-961.5 891.35,-961.5"/>
<text text-anchor="start" x="894.35" y="-968.8" font-family="Helvetica,sans-Serif" font-size="11.00">int4[10]</text>
<polygon fill="none" stroke="black" points="703.35,-939.5 703.35,-961.5 891.35,-961.5 891.35,-939.5 703.35,-939.5"/>
<text text-anchor="start" x="723.35" y="-946.05" font-family="Helvetica,sans-Serif" font-size="11.00">uom_po_id</text>
<polygon fill="none" stroke="black" points="891.35,-939.5 891.35,-961.5 999.35,-961.5 999.35,-939.5 891.35,-939.5"/>
<text text-anchor="start" x="894.35" y="-946.8" font-family="Helvetica,sans-Serif" font-size="11.00">int4[10]</text>
<polygon fill="#ffffff" stroke="none" points="703.35,-917.5 703.35,-939.5 891.35,-939.5 891.35,-917.5 703.35,-917.5"/>
<polygon fill="none" stroke="black" points="703.35,-917.5 703.35,-939.5 891.35,-939.5 891.35,-917.5 703.35,-917.5"/>
<text text-anchor="start" x="723.35" y="-924.05" font-family="Helvetica,sans-Serif" font-size="11.00">company_id</text>
<polygon fill="none" stroke="black" points="891.35,-917.5 891.35,-939.5 999.35,-939.5 999.35,-917.5 891.35,-917.5"/>
<text text-anchor="start" x="894.35" y="-924.8" font-family="Helvetica,sans-Serif" font-size="11.00">int4[10]</text>
<polygon fill="none" stroke="black" points="703.35,-895.5 703.35,-917.5 891.35,-917.5 891.35,-895.5 703.35,-895.5"/>
<text text-anchor="start" x="723.35" y="-902.05" font-family="Helvetica,sans-Serif" font-size="11.00">color</text>
<polygon fill="none" stroke="black" points="891.35,-895.5 891.35,-917.5 999.35,-917.5 999.35,-895.5 891.35,-895.5"/>
<text text-anchor="start" x="894.35" y="-902.8" font-family="Helvetica,sans-Serif" font-size="11.00">int4[10]</text>
<polygon fill="none" stroke="black" points="703.35,-873.5 703.35,-895.5 891.35,-895.5 891.35,-873.5 703.35,-873.5"/>
<image xlink:href="../../images/foreignKeys.png" width="11px" height="12px" preserveAspectRatio="xMinYMin meet" x="708.354" y="-890.5"/>
<text text-anchor="start" x="723.35" y="-880.05" font-family="Helvetica,sans-Serif" font-size="11.00">create_uid</text>
<polygon fill="none" stroke="black" points="891.35,-873.5 891.35,-895.5 999.35,-895.5 999.35,-873.5 891.35,-873.5"/>
<text text-anchor="start" x="894.35" y="-880.8" font-family="Helvetica,sans-Serif" font-size="11.00">int4[10]</text>
<polygon fill="none" stroke="black" points="703.35,-851.5 703.35,-873.5 891.35,-873.5 891.35,-851.5 703.35,-851.5"/>
<image xlink:href="../../images/foreignKeys.png" width="11px" height="12px" preserveAspectRatio="xMinYMin meet" x="708.354" y="-868.5"/>
<text text-anchor="start" x="723.35" y="-858.05" font-family="Helvetica,sans-Serif" font-size="11.00">write_uid</text>
<polygon fill="none" stroke="black" points="891.35,-851.5 891.35,-873.5 999.35,-873.5 999.35,-851.5 891.35,-851.5"/>
<text text-anchor="start" x="894.35" y="-858.8" font-family="Helvetica,sans-Serif" font-size="11.00">int4[10]</text>
<polygon fill="none" stroke="black" points="703.35,-829.5 703.35,-851.5 891.35,-851.5 891.35,-829.5 703.35,-829.5"/>
<text text-anchor="start" x="723.35" y="-836.05" font-family="Helvetica,sans-Serif" font-size="11.00">detailed_type</text>
<polygon fill="none" stroke="black" points="891.35,-829.5 891.35,-851.5 999.35,-851.5 999.35,-829.5 891.35,-829.5"/>
<text text-anchor="start" x="894.35" y="-836.8" font-family="Helvetica,sans-Serif" font-size="11.00">varchar[2147483647]</text>
<polygon fill="none" stroke="black" points="703.35,-807.5 703.35,-829.5 891.35,-829.5 891.35,-807.5 703.35,-807.5"/>
<text text-anchor="start" x="723.35" y="-814.05" font-family="Helvetica,sans-Serif" font-size="11.00">type</text>
<polygon fill="none" stroke="black" points="891.35,-807.5 891.35,-829.5 999.35,-829.5 999.35,-807.5 891.35,-807.5"/>
<text text-anchor="start" x="894.35" y="-814.8" font-family="Helvetica,sans-Serif" font-size="11.00">varchar[2147483647]</text>
<polygon fill="none" stroke="black" points="703.35,-785.5 703.35,-807.5 891.35,-807.5 891.35,-785.5 703.35,-785.5"/>
<text text-anchor="start" x="723.35" y="-792.05" font-family="Helvetica,sans-Serif" font-size="11.00">default_code</text>
<polygon fill="none" stroke="black" points="891.35,-785.5 891.35,-807.5 999.35,-807.5 999.35,-785.5 891.35,-785.5"/>
<text text-anchor="start" x="894.35" y="-792.8" font-family="Helvetica,sans-Serif" font-size="11.00">varchar[2147483647]</text>
<polygon fill="none" stroke="black" points="703.35,-763.5 703.35,-785.5 891.35,-785.5 891.35,-763.5 703.35,-763.5"/>
<text text-anchor="start" x="723.35" y="-770.05" font-family="Helvetica,sans-Serif" font-size="11.00">priority</text>
<polygon fill="none" stroke="black" points="891.35,-763.5 891.35,-785.5 999.35,-785.5 999.35,-763.5 891.35,-763.5"/>
<text text-anchor="start" x="894.35" y="-770.8" font-family="Helvetica,sans-Serif" font-size="11.00">varchar[2147483647]</text>
<polygon fill="none" stroke="black" points="703.35,-741.5 703.35,-763.5 891.35,-763.5 891.35,-741.5 703.35,-741.5"/>
<text text-anchor="start" x="723.35" y="-748.05" font-family="Helvetica,sans-Serif" font-size="11.00">name</text>
<polygon fill="none" stroke="black" points="891.35,-741.5 891.35,-763.5 999.35,-763.5 999.35,-741.5 891.35,-741.5"/>
<text text-anchor="start" x="894.35" y="-748.8" font-family="Helvetica,sans-Serif" font-size="11.00">jsonb[2147483647]</text>
<polygon fill="none" stroke="black" points="703.35,-719.5 703.35,-741.5 891.35,-741.5 891.35,-719.5 703.35,-719.5"/>
<text text-anchor="start" x="723.35" y="-726.05" font-family="Helvetica,sans-Serif" font-size="11.00">description</text>
<polygon fill="none" stroke="black" points="891.35,-719.5 891.35,-741.5 999.35,-741.5 999.35,-719.5 891.35,-719.5"/>
<text text-anchor="start" x="894.35" y="-726.8" font-family="Helvetica,sans-Serif" font-size="11.00">jsonb[2147483647]</text>
<polygon fill="none" stroke="black" points="703.35,-697.5 703.35,-719.5 891.35,-719.5 891.35,-697.5 703.35,-697.5"/>
<text text-anchor="start" x="723.35" y="-704.05" font-family="Helvetica,sans-Serif" font-size="11.00">description_purchase</text>
<polygon fill="none" stroke="black" points="891.35,-697.5 891.35,-719.5 999.35,-719.5 999.35,-697.5 891.35,-697.5"/>
<text text-anchor="start" x="894.35" y="-704.8" font-family="Helvetica,sans-Serif" font-size="11.00">jsonb[2147483647]</text>
<polygon fill="none" stroke="black" points="703.35,-675.5 703.35,-697.5 891.35,-697.5 891.35,-675.5 703.35,-675.5"/>
<text text-anchor="start" x="723.35" y="-682.05" font-family="Helvetica,sans-Serif" font-size="11.00">description_sale</text>
<polygon fill="none" stroke="black" points="891.35,-675.5 891.35,-697.5 999.35,-697.5 999.35,-675.5 891.35,-675.5"/>
<text text-anchor="start" x="894.35" y="-682.8" font-family="Helvetica,sans-Serif" font-size="11.00">jsonb[2147483647]</text>
<polygon fill="none" stroke="black" points="703.35,-653.5 703.35,-675.5 891.35,-675.5 891.35,-653.5 703.35,-653.5"/>
<text text-anchor="start" x="723.35" y="-660.05" font-family="Helvetica,sans-Serif" font-size="11.00">product_properties</text>
<polygon fill="none" stroke="black" points="891.35,-653.5 891.35,-675.5 999.35,-675.5 999.35,-653.5 891.35,-653.5"/>
<text text-anchor="start" x="894.35" y="-660.8" font-family="Helvetica,sans-Serif" font-size="11.00">jsonb[2147483647]</text>
<polygon fill="none" stroke="black" points="703.35,-631.5 703.35,-653.5 891.35,-653.5 891.35,-631.5 703.35,-631.5"/>
<text text-anchor="start" x="723.35" y="-638.05" font-family="Helvetica,sans-Serif" font-size="11.00">list_price</text>
<polygon fill="none" stroke="black" points="891.35,-631.5 891.35,-653.5 999.35,-653.5 999.35,-631.5 891.35,-631.5"/>
<text text-anchor="start" x="894.35" y="-638.8" font-family="Helvetica,sans-Serif" font-size="11.00">numeric[0]</text>
<polygon fill="none" stroke="black" points="703.35,-609.5 703.35,-631.5 891.35,-631.5 891.35,-609.5 703.35,-609.5"/>
<text text-anchor="start" x="723.35" y="-616.05" font-family="Helvetica,sans-Serif" font-size="11.00">volume</text>
<polygon fill="none" stroke="black" points="891.35,-609.5 891.35,-631.5 999.35,-631.5 999.35,-609.5 891.35,-609.5"/>
<text text-anchor="start" x="894.35" y="-616.8" font-family="Helvetica,sans-Serif" font-size="11.00">numeric[0]</text>
<polygon fill="none" stroke="black" points="703.35,-587.5 703.35,-609.5 891.35,-609.5 891.35,-587.5 703.35,-587.5"/>
<text text-anchor="start" x="723.35" y="-594.05" font-family="Helvetica,sans-Serif" font-size="11.00">weight</text>
<polygon fill="none" stroke="black" points="891.35,-587.5 891.35,-609.5 999.35,-609.5 999.35,-587.5 891.35,-587.5"/>
<text text-anchor="start" x="894.35" y="-594.8" font-family="Helvetica,sans-Serif" font-size="11.00">numeric[0]</text>
<polygon fill="none" stroke="black" points="703.35,-565.5 703.35,-587.5 891.35,-587.5 891.35,-565.5 703.35,-565.5"/>
<text text-anchor="start" x="723.35" y="-572.05" font-family="Helvetica,sans-Serif" font-size="11.00">sale_ok</text>
<polygon fill="none" stroke="black" points="891.35,-565.5 891.35,-587.5 999.35,-587.5 999.35,-565.5 891.35,-565.5"/>
<text text-anchor="start" x="894.35" y="-572.8" font-family="Helvetica,sans-Serif" font-size="11.00">bool[1]</text>
<polygon fill="none" stroke="black" points="703.35,-543.5 703.35,-565.5 891.35,-565.5 891.35,-543.5 703.35,-543.5"/>
<text text-anchor="start" x="723.35" y="-550.05" font-family="Helvetica,sans-Serif" font-size="11.00">purchase_ok</text>
<polygon fill="none" stroke="black" points="891.35,-543.5 891.35,-565.5 999.35,-565.5 999.35,-543.5 891.35,-543.5"/>
<text text-anchor="start" x="894.35" y="-550.8" font-family="Helvetica,sans-Serif" font-size="11.00">bool[1]</text>
<polygon fill="none" stroke="black" points="703.35,-521.5 703.35,-543.5 891.35,-543.5 891.35,-521.5 703.35,-521.5"/>
<text text-anchor="start" x="723.35" y="-528.05" font-family="Helvetica,sans-Serif" font-size="11.00">active</text>
<polygon fill="none" stroke="black" points="891.35,-521.5 891.35,-543.5 999.35,-543.5 999.35,-521.5 891.35,-521.5"/>
<text text-anchor="start" x="894.35" y="-528.8" font-family="Helvetica,sans-Serif" font-size="11.00">bool[1]</text>
<polygon fill="none" stroke="black" points="703.35,-499.5 703.35,-521.5 891.35,-521.5 891.35,-499.5 703.35,-499.5"/>
<text text-anchor="start" x="723.35" y="-506.05" font-family="Helvetica,sans-Serif" font-size="11.00">can_image_1024_be_zoomed</text>
<polygon fill="none" stroke="black" points="891.35,-499.5 891.35,-521.5 999.35,-521.5 999.35,-499.5 891.35,-499.5"/>
<text text-anchor="start" x="894.35" y="-506.8" font-family="Helvetica,sans-Serif" font-size="11.00">bool[1]</text>
<polygon fill="none" stroke="black" points="703.35,-477.5 703.35,-499.5 891.35,-499.5 891.35,-477.5 703.35,-477.5"/>
<text text-anchor="start" x="723.35" y="-484.05" font-family="Helvetica,sans-Serif" font-size="11.00">has_configurable_attributes</text>
<polygon fill="none" stroke="black" points="891.35,-477.5 891.35,-499.5 999.35,-499.5 999.35,-477.5 891.35,-477.5"/>
<text text-anchor="start" x="894.35" y="-484.8" font-family="Helvetica,sans-Serif" font-size="11.00">bool[1]</text>
<polygon fill="none" stroke="black" points="703.35,-455.5 703.35,-477.5 891.35,-477.5 891.35,-455.5 703.35,-455.5"/>
<text text-anchor="start" x="723.35" y="-462.05" font-family="Helvetica,sans-Serif" font-size="11.00">create_date</text>
<polygon fill="none" stroke="black" points="891.35,-455.5 891.35,-477.5 999.35,-477.5 999.35,-455.5 891.35,-455.5"/>
<text text-anchor="start" x="894.35" y="-462.8" font-family="Helvetica,sans-Serif" font-size="11.00">timestamp[29,6]</text>
<polygon fill="none" stroke="black" points="703.35,-433.5 703.35,-455.5 891.35,-455.5 891.35,-433.5 703.35,-433.5"/>
<text text-anchor="start" x="723.35" y="-440.05" font-family="Helvetica,sans-Serif" font-size="11.00">write_date</text>
<polygon fill="none" stroke="black" points="891.35,-433.5 891.35,-455.5 999.35,-455.5 999.35,-433.5 891.35,-433.5"/>
<text text-anchor="start" x="894.35" y="-440.8" font-family="Helvetica,sans-Serif" font-size="11.00">timestamp[29,6]</text>
<polygon fill="none" stroke="black" points="703.35,-411.5 703.35,-433.5 891.35,-433.5 891.35,-411.5 703.35,-411.5"/>
<text text-anchor="start" x="723.35" y="-418.05" font-family="Helvetica,sans-Serif" font-size="11.00">purchase_method</text>
<polygon fill="none" stroke="black" points="891.35,-411.5 891.35,-433.5 999.35,-433.5 999.35,-411.5 891.35,-411.5"/>
<text text-anchor="start" x="894.35" y="-418.8" font-family="Helvetica,sans-Serif" font-size="11.00">varchar[2147483647]</text>
<polygon fill="none" stroke="black" points="703.35,-389.5 703.35,-411.5 891.35,-411.5 891.35,-389.5 703.35,-389.5"/>
<text text-anchor="start" x="723.35" y="-396.05" font-family="Helvetica,sans-Serif" font-size="11.00">purchase_line_warn</text>
<polygon fill="none" stroke="black" points="891.35,-389.5 891.35,-411.5 999.35,-411.5 999.35,-389.5 891.35,-389.5"/>
<text text-anchor="start" x="894.35" y="-396.8" font-family="Helvetica,sans-Serif" font-size="11.00">varchar[2147483647]</text>
<polygon fill="none" stroke="black" points="703.35,-367.5 703.35,-389.5 891.35,-389.5 891.35,-367.5 703.35,-367.5"/>
<text text-anchor="start" x="723.35" y="-374.05" font-family="Helvetica,sans-Serif" font-size="11.00">purchase_line_warn_msg</text>
<polygon fill="none" stroke="black" points="891.35,-367.5 891.35,-389.5 999.35,-389.5 999.35,-367.5 891.35,-367.5"/>
<text text-anchor="start" x="894.35" y="-374.8" font-family="Helvetica,sans-Serif" font-size="11.00">text[2147483647]</text>
<polygon fill="none" stroke="black" points="703.35,-345.5 703.35,-367.5 891.35,-367.5 891.35,-345.5 703.35,-345.5"/>
<text text-anchor="start" x="723.35" y="-352.05" font-family="Helvetica,sans-Serif" font-size="11.00">service_type</text>
<polygon fill="none" stroke="black" points="891.35,-345.5 891.35,-367.5 999.35,-367.5 999.35,-345.5 891.35,-345.5"/>
<text text-anchor="start" x="894.35" y="-352.8" font-family="Helvetica,sans-Serif" font-size="11.00">varchar[2147483647]</text>
<polygon fill="none" stroke="black" points="703.35,-323.5 703.35,-345.5 891.35,-345.5 891.35,-323.5 703.35,-323.5"/>
<text text-anchor="start" x="723.35" y="-330.05" font-family="Helvetica,sans-Serif" font-size="11.00">sale_line_warn</text>
<polygon fill="none" stroke="black" points="891.35,-323.5 891.35,-345.5 999.35,-345.5 999.35,-323.5 891.35,-323.5"/>
<text text-anchor="start" x="894.35" y="-330.8" font-family="Helvetica,sans-Serif" font-size="11.00">varchar[2147483647]</text>
<polygon fill="none" stroke="black" points="703.35,-301.5 703.35,-323.5 891.35,-323.5 891.35,-301.5 703.35,-301.5"/>
<text text-anchor="start" x="723.35" y="-308.05" font-family="Helvetica,sans-Serif" font-size="11.00">expense_policy</text>
<polygon fill="none" stroke="black" points="891.35,-301.5 891.35,-323.5 999.35,-323.5 999.35,-301.5 891.35,-301.5"/>
<text text-anchor="start" x="894.35" y="-308.8" font-family="Helvetica,sans-Serif" font-size="11.00">varchar[2147483647]</text>
<polygon fill="none" stroke="black" points="703.35,-279.5 703.35,-301.5 891.35,-301.5 891.35,-279.5 703.35,-279.5"/>
<text text-anchor="start" x="723.35" y="-286.05" font-family="Helvetica,sans-Serif" font-size="11.00">invoice_policy</text>
<polygon fill="none" stroke="black" points="891.35,-279.5 891.35,-301.5 999.35,-301.5 999.35,-279.5 891.35,-279.5"/>
<text text-anchor="start" x="894.35" y="-286.8" font-family="Helvetica,sans-Serif" font-size="11.00">varchar[2147483647]</text>
<polygon fill="none" stroke="black" points="703.35,-257.5 703.35,-279.5 891.35,-279.5 891.35,-257.5 703.35,-257.5"/>
<text text-anchor="start" x="723.35" y="-264.05" font-family="Helvetica,sans-Serif" font-size="11.00">sale_line_warn_msg</text>
<polygon fill="none" stroke="black" points="891.35,-257.5 891.35,-279.5 999.35,-279.5 999.35,-257.5 891.35,-257.5"/>
<text text-anchor="start" x="894.35" y="-264.8" font-family="Helvetica,sans-Serif" font-size="11.00">text[2147483647]</text>
<polygon fill="none" stroke="black" points="703.35,-235.5 703.35,-257.5 891.35,-257.5 891.35,-235.5 703.35,-235.5"/>
<text text-anchor="start" x="723.35" y="-242.05" font-family="Helvetica,sans-Serif" font-size="11.00">recurring_invoice</text>
<polygon fill="none" stroke="black" points="891.35,-235.5 891.35,-257.5 999.35,-257.5 999.35,-235.5 891.35,-235.5"/>
<text text-anchor="start" x="894.35" y="-242.8" font-family="Helvetica,sans-Serif" font-size="11.00">bool[1]</text>
<polygon fill="none" stroke="black" points="703.35,-213.5 703.35,-235.5 891.35,-235.5 891.35,-213.5 703.35,-213.5"/>
<text text-anchor="start" x="723.35" y="-220.05" font-family="Helvetica,sans-Serif" font-size="11.00">product_sequence_id</text>
<polygon fill="none" stroke="black" points="891.35,-213.5 891.35,-235.5 999.35,-235.5 999.35,-213.5 891.35,-213.5"/>
<text text-anchor="start" x="894.35" y="-220.8" font-family="Helvetica,sans-Serif" font-size="11.00">int4[10]</text>
<polygon fill="none" stroke="black" points="703.35,-191.5 703.35,-213.5 891.35,-213.5 891.35,-191.5 703.35,-191.5"/>
<image xlink:href="../../images/foreignKeys.png" width="11px" height="12px" preserveAspectRatio="xMinYMin meet" x="708.354" y="-208.5"/>
<text text-anchor="start" x="723.35" y="-198.05" font-family="Helvetica,sans-Serif" font-size="11.00">citizen_id</text>
<polygon fill="none" stroke="black" points="891.35,-191.5 891.35,-213.5 999.35,-213.5 999.35,-191.5 891.35,-191.5"/>
<text text-anchor="start" x="894.35" y="-198.8" font-family="Helvetica,sans-Serif" font-size="11.00">int4[10]</text>
<polygon fill="none" stroke="black" points="703.35,-169.5 703.35,-191.5 891.35,-191.5 891.35,-169.5 703.35,-169.5"/>
<text text-anchor="start" x="723.35" y="-176.05" font-family="Helvetica,sans-Serif" font-size="11.00">integration_system_name</text>
<polygon fill="none" stroke="black" points="891.35,-169.5 891.35,-191.5 999.35,-191.5 999.35,-169.5 891.35,-169.5"/>
<text text-anchor="start" x="894.35" y="-176.8" font-family="Helvetica,sans-Serif" font-size="11.00">varchar[2147483647]</text>
<polygon fill="none" stroke="black" points="703.35,-147.5 703.35,-169.5 891.35,-169.5 891.35,-147.5 703.35,-147.5"/>
<text text-anchor="start" x="723.35" y="-154.05" font-family="Helvetica,sans-Serif" font-size="11.00">integration_external_key</text>
<polygon fill="none" stroke="black" points="891.35,-147.5 891.35,-169.5 999.35,-169.5 999.35,-147.5 891.35,-147.5"/>
<text text-anchor="start" x="894.35" y="-154.8" font-family="Helvetica,sans-Serif" font-size="11.00">varchar[2147483647]</text>
<polygon fill="none" stroke="black" points="703.35,-125.5 703.35,-147.5 891.35,-147.5 891.35,-125.5 703.35,-125.5"/>
<text text-anchor="start" x="723.35" y="-132.05" font-family="Helvetica,sans-Serif" font-size="11.00">is_from_create</text>
<polygon fill="none" stroke="black" points="891.35,-125.5 891.35,-147.5 999.35,-147.5 999.35,-125.5 891.35,-125.5"/>
<text text-anchor="start" x="894.35" y="-132.8" font-family="Helvetica,sans-Serif" font-size="11.00">bool[1]</text>
<polygon fill="none" stroke="black" points="703.35,-103.5 703.35,-125.5 891.35,-125.5 891.35,-103.5 703.35,-103.5"/>
<text text-anchor="start" x="723.35" y="-110.05" font-family="Helvetica,sans-Serif" font-size="11.00">service_tracking</text>
<polygon fill="none" stroke="black" points="891.35,-103.5 891.35,-125.5 999.35,-125.5 999.35,-103.5 891.35,-103.5"/>
<text text-anchor="start" x="894.35" y="-110.8" font-family="Helvetica,sans-Serif" font-size="11.00">varchar[2147483647]</text>
<polygon fill="none" stroke="black" points="703.35,-81.5 703.35,-103.5 891.35,-103.5 891.35,-81.5 703.35,-81.5"/>
<text text-anchor="start" x="723.35" y="-88.05" font-family="Helvetica,sans-Serif" font-size="11.00">service_upsell_threshold</text>
<polygon fill="none" stroke="black" points="891.35,-81.5 891.35,-103.5 999.35,-103.5 999.35,-81.5 891.35,-81.5"/>
<text text-anchor="start" x="894.35" y="-88.8" font-family="Helvetica,sans-Serif" font-size="11.00">float8[17,17]</text>
<polygon fill="none" stroke="black" points="703.35,-59.5 703.35,-81.5 891.35,-81.5 891.35,-59.5 703.35,-59.5"/>
<text text-anchor="start" x="723.35" y="-66.05" font-family="Helvetica,sans-Serif" font-size="11.00">can_be_expensed</text>
<polygon fill="none" stroke="black" points="891.35,-59.5 891.35,-81.5 999.35,-81.5 999.35,-59.5 891.35,-59.5"/>
<text text-anchor="start" x="894.35" y="-66.8" font-family="Helvetica,sans-Serif" font-size="11.00">bool[1]</text>
<polygon fill="#ffffff" stroke="none" points="703.35,-40.5 703.35,-59.5 801.35,-59.5 801.35,-40.5 703.35,-40.5"/>
<polygon fill="none" stroke="black" points="703.35,-40.5 703.35,-59.5 801.35,-59.5 801.35,-40.5 703.35,-40.5"/>
<text text-anchor="start" x="706.35" y="-46.05" font-family="Helvetica,sans-Serif" font-size="11.00">&lt; 4</text>
<polygon fill="#ffffff" stroke="none" points="801.35,-40.5 801.35,-59.5 891.35,-59.5 891.35,-40.5 801.35,-40.5"/>
<polygon fill="none" stroke="black" points="801.35,-40.5 801.35,-59.5 891.35,-59.5 891.35,-40.5 801.35,-40.5"/>
<text text-anchor="start" x="882.35" y="-46.05" font-family="Helvetica,sans-Serif" font-size="11.00"> &#160;</text>
<polygon fill="#ffffff" stroke="none" points="891.35,-40.5 891.35,-59.5 999.35,-59.5 999.35,-40.5 891.35,-40.5"/>
<polygon fill="none" stroke="black" points="891.35,-40.5 891.35,-59.5 999.35,-59.5 999.35,-40.5 891.35,-40.5"/>
<text text-anchor="start" x="980.6" y="-46.05" font-family="Helvetica,sans-Serif" font-size="11.00">0 &gt;</text>
<polygon fill="none" stroke="black" stroke-width="2" points="702.35,-39.5 702.35,-1073.5 1000.35,-1073.5 1000.35,-39.5 702.35,-39.5"/>
</a>
</g>
</g>
<!-- product_template&#45;&gt;product_category -->
<g id="edge4" class="edge">
<title>product_template:w&#45;&gt;product_category:e</title>
<path fill="none" stroke="black" d="M687.98,-999.95C675.07,-1012.43 677.29,-1042 653.35,-1042"/>
<polygon fill="black" stroke="black" points="694.56,-997.45 703.32,-997.98 698.61,-995.92 701.73,-994.74 701.73,-994.74 701.73,-994.74 698.61,-995.92 700.77,-991.25 694.56,-997.45"/>
<ellipse fill="none" stroke="black" cx="689.96" cy="-999.2" rx="3.2" ry="3.2"/>
</g>
<!-- product_template&#45;&gt;res_partner -->
<g id="edge5" class="edge">
<title>product_template:w&#45;&gt;res_partner:e</title>
<path fill="none" stroke="black" d="M686.71,-203.12C434.99,-223.72 677.16,-751 405.35,-751"/>
<polygon fill="black" stroke="black" points="694.03,-202.83 702.16,-206.11 698.36,-202.66 701.69,-202.53 701.69,-202.53 701.69,-202.53 698.36,-202.66 701.88,-198.92 694.03,-202.83"/>
<ellipse fill="none" stroke="black" cx="689.11" cy="-203.02" rx="3.2" ry="3.2"/>
</g>
<!-- product_template&#45;&gt;res_users -->
<g id="edge6" class="edge">
<title>product_template:w&#45;&gt;res_users:e</title>
<path fill="none" stroke="black" d="M687.6,-879.44C678.68,-871.61 676.42,-856.81 660.35,-850.5 566.23,-813.52 287.96,-879.22 206.35,-819.5 167.23,-790.86 214.84,-718 166.35,-718"/>
<polygon fill="black" stroke="black" points="694.47,-881.8 700.87,-887.8 698.57,-883.2 701.72,-884.28 701.72,-884.28 701.72,-884.28 698.57,-883.2 703.21,-880.99 694.47,-881.8"/>
<ellipse fill="none" stroke="black" cx="689.82" cy="-880.2" rx="3.2" ry="3.2"/>
</g>
<!-- product_template&#45;&gt;res_users -->
<g id="edge7" class="edge">
<title>product_template:w&#45;&gt;res_users:e</title>
<path fill="none" stroke="black" d="M687.51,-857.94C678.87,-851.44 675.24,-839.71 660.35,-834.5 612.57,-817.77 248.42,-823.67 206.35,-795.5 174.15,-773.93 205.12,-718 166.35,-718"/>
<polygon fill="black" stroke="black" points="694.39,-860.05 700.98,-865.84 698.53,-861.33 701.71,-862.3 701.71,-862.3 701.71,-862.3 698.53,-861.33 703.09,-858.96 694.39,-860.05"/>
<ellipse fill="none" stroke="black" cx="689.68" cy="-858.61" rx="3.2" ry="3.2"/>
</g>
</g>
</svg>
