<?xml version="1.0" encoding="UTF-8" standalone="no"?>
<!DOCTYPE svg PUBLIC "-//W3C//DTD SVG 1.1//EN"
 "http://www.w3.org/Graphics/SVG/1.1/DTD/svg11.dtd">
<!-- Generated by graphviz version 12.0.0 (0)
 -->
<!-- Title: oneDegreeRelationshipsDiagram Pages: 1 -->
<svg width="1017pt" height="999pt"
 viewBox="0.00 0.00 1017.35 999.00" xmlns="http://www.w3.org/2000/svg" xmlns:xlink="http://www.w3.org/1999/xlink">
<g id="graph0" class="graph" transform="scale(1 1) rotate(0) translate(4 995)">
<title>oneDegreeRelationshipsDiagram</title>
<polygon fill="#ffffff" stroke="none" points="-4,4 -4,-995 1013.35,-995 1013.35,4 -4,4"/>
<text text-anchor="middle" x="71.38" y="-7.05" font-family="Helvetica,sans-Serif" font-size="11.00">Generated by SchemaSpy</text>
<!-- product_category -->
<g id="node1" class="node">
<title>product_category</title>
<g id="a_node1"><a xlink:href="../../tables/product_category.html" xlink:title="product_category" target="_top">
<polygon fill="#ffffff" stroke="none" points="453.35,-549 453.35,-969 764.35,-969 764.35,-549 453.35,-549"/>
<polygon fill="#f5f5f5" stroke="none" points="455.35,-944 455.35,-967 762.35,-967 762.35,-944 455.35,-944"/>
<polygon fill="none" stroke="black" points="455.35,-944 455.35,-967 762.35,-967 762.35,-944 455.35,-944"/>
<text text-anchor="start" x="460.35" y="-951.8" font-family="Helvetica,sans-Serif" font-weight="bold" font-size="11.00">product_category</text>
<text text-anchor="start" x="728.1" y="-951.55" font-family="Helvetica,sans-Serif" font-size="11.00">[table]</text>
<polygon fill="none" stroke="black" points="455.35,-922 455.35,-944 654.35,-944 654.35,-922 455.35,-922"/>
<image xlink:href="../../images/primaryKeys.png" width="11px" height="12px" preserveAspectRatio="xMinYMin meet" x="460.354" y="-939"/>
<text text-anchor="start" x="475.35" y="-928.55" font-family="Helvetica,sans-Serif" font-size="11.00">id</text>
<polygon fill="none" stroke="black" points="654.35,-922 654.35,-944 762.35,-944 762.35,-922 654.35,-922"/>
<text text-anchor="start" x="657.35" y="-929.3" font-family="Helvetica,sans-Serif" font-size="11.00">serial[10]</text>
<polygon fill="#ffffff" stroke="none" points="455.35,-900 455.35,-922 654.35,-922 654.35,-900 455.35,-900"/>
<polygon fill="none" stroke="black" points="455.35,-900 455.35,-922 654.35,-922 654.35,-900 455.35,-900"/>
<image xlink:href="../../images/foreignKeys.png" width="11px" height="12px" preserveAspectRatio="xMinYMin meet" x="460.354" y="-917"/>
<text text-anchor="start" x="475.35" y="-906.55" font-family="Helvetica,sans-Serif" font-size="11.00">parent_id</text>
<polygon fill="none" stroke="black" points="654.35,-900 654.35,-922 762.35,-922 762.35,-900 654.35,-900"/>
<text text-anchor="start" x="657.35" y="-907.3" font-family="Helvetica,sans-Serif" font-size="11.00">int4[10]</text>
<polygon fill="none" stroke="black" points="455.35,-878 455.35,-900 654.35,-900 654.35,-878 455.35,-878"/>
<image xlink:href="../../images/foreignKeys.png" width="11px" height="12px" preserveAspectRatio="xMinYMin meet" x="460.354" y="-895"/>
<text text-anchor="start" x="475.35" y="-884.55" font-family="Helvetica,sans-Serif" font-size="11.00">create_uid</text>
<polygon fill="none" stroke="black" points="654.35,-878 654.35,-900 762.35,-900 762.35,-878 654.35,-878"/>
<text text-anchor="start" x="657.35" y="-885.3" font-family="Helvetica,sans-Serif" font-size="11.00">int4[10]</text>
<polygon fill="none" stroke="black" points="455.35,-856 455.35,-878 654.35,-878 654.35,-856 455.35,-856"/>
<image xlink:href="../../images/foreignKeys.png" width="11px" height="12px" preserveAspectRatio="xMinYMin meet" x="460.354" y="-873"/>
<text text-anchor="start" x="475.35" y="-862.55" font-family="Helvetica,sans-Serif" font-size="11.00">write_uid</text>
<polygon fill="none" stroke="black" points="654.35,-856 654.35,-878 762.35,-878 762.35,-856 654.35,-856"/>
<text text-anchor="start" x="657.35" y="-863.3" font-family="Helvetica,sans-Serif" font-size="11.00">int4[10]</text>
<polygon fill="#ffffff" stroke="none" points="455.35,-834 455.35,-856 654.35,-856 654.35,-834 455.35,-834"/>
<polygon fill="none" stroke="black" points="455.35,-834 455.35,-856 654.35,-856 654.35,-834 455.35,-834"/>
<text text-anchor="start" x="475.35" y="-840.55" font-family="Helvetica,sans-Serif" font-size="11.00">name</text>
<polygon fill="none" stroke="black" points="654.35,-834 654.35,-856 762.35,-856 762.35,-834 654.35,-834"/>
<text text-anchor="start" x="657.35" y="-841.3" font-family="Helvetica,sans-Serif" font-size="11.00">varchar[2147483647]</text>
<polygon fill="none" stroke="black" points="455.35,-812 455.35,-834 654.35,-834 654.35,-812 455.35,-812"/>
<text text-anchor="start" x="475.35" y="-818.55" font-family="Helvetica,sans-Serif" font-size="11.00">complete_name</text>
<polygon fill="none" stroke="black" points="654.35,-812 654.35,-834 762.35,-834 762.35,-812 654.35,-812"/>
<text text-anchor="start" x="657.35" y="-819.3" font-family="Helvetica,sans-Serif" font-size="11.00">varchar[2147483647]</text>
<polygon fill="#ffffff" stroke="none" points="455.35,-790 455.35,-812 654.35,-812 654.35,-790 455.35,-790"/>
<polygon fill="none" stroke="black" points="455.35,-790 455.35,-812 654.35,-812 654.35,-790 455.35,-790"/>
<text text-anchor="start" x="475.35" y="-796.55" font-family="Helvetica,sans-Serif" font-size="11.00">parent_path</text>
<polygon fill="none" stroke="black" points="654.35,-790 654.35,-812 762.35,-812 762.35,-790 654.35,-790"/>
<text text-anchor="start" x="657.35" y="-797.3" font-family="Helvetica,sans-Serif" font-size="11.00">varchar[2147483647]</text>
<polygon fill="none" stroke="black" points="455.35,-768 455.35,-790 654.35,-790 654.35,-768 455.35,-768"/>
<text text-anchor="start" x="475.35" y="-774.55" font-family="Helvetica,sans-Serif" font-size="11.00">product_properties_definition</text>
<polygon fill="none" stroke="black" points="654.35,-768 654.35,-790 762.35,-790 762.35,-768 654.35,-768"/>
<text text-anchor="start" x="657.35" y="-775.3" font-family="Helvetica,sans-Serif" font-size="11.00">jsonb[2147483647]</text>
<polygon fill="none" stroke="black" points="455.35,-746 455.35,-768 654.35,-768 654.35,-746 455.35,-746"/>
<text text-anchor="start" x="475.35" y="-752.55" font-family="Helvetica,sans-Serif" font-size="11.00">create_date</text>
<polygon fill="none" stroke="black" points="654.35,-746 654.35,-768 762.35,-768 762.35,-746 654.35,-746"/>
<text text-anchor="start" x="657.35" y="-753.3" font-family="Helvetica,sans-Serif" font-size="11.00">timestamp[29,6]</text>
<polygon fill="none" stroke="black" points="455.35,-724 455.35,-746 654.35,-746 654.35,-724 455.35,-724"/>
<text text-anchor="start" x="475.35" y="-730.55" font-family="Helvetica,sans-Serif" font-size="11.00">write_date</text>
<polygon fill="none" stroke="black" points="654.35,-724 654.35,-746 762.35,-746 762.35,-724 654.35,-724"/>
<text text-anchor="start" x="657.35" y="-731.3" font-family="Helvetica,sans-Serif" font-size="11.00">timestamp[29,6]</text>
<polygon fill="none" stroke="black" points="455.35,-702 455.35,-724 654.35,-724 654.35,-702 455.35,-702"/>
<text text-anchor="start" x="475.35" y="-708.55" font-family="Helvetica,sans-Serif" font-size="11.00">product_sequence_id</text>
<polygon fill="none" stroke="black" points="654.35,-702 654.35,-724 762.35,-724 762.35,-702 654.35,-702"/>
<text text-anchor="start" x="657.35" y="-709.3" font-family="Helvetica,sans-Serif" font-size="11.00">int4[10]</text>
<polygon fill="none" stroke="black" points="455.35,-680 455.35,-702 654.35,-702 654.35,-680 455.35,-680"/>
<image xlink:href="../../images/foreignKeys.png" width="11px" height="12px" preserveAspectRatio="xMinYMin meet" x="460.354" y="-697"/>
<text text-anchor="start" x="475.35" y="-686.55" font-family="Helvetica,sans-Serif" font-size="11.00">citizen_id</text>
<polygon fill="none" stroke="black" points="654.35,-680 654.35,-702 762.35,-702 762.35,-680 654.35,-680"/>
<text text-anchor="start" x="657.35" y="-687.3" font-family="Helvetica,sans-Serif" font-size="11.00">int4[10]</text>
<polygon fill="none" stroke="black" points="455.35,-658 455.35,-680 654.35,-680 654.35,-658 455.35,-658"/>
<text text-anchor="start" x="475.35" y="-664.55" font-family="Helvetica,sans-Serif" font-size="11.00">integration_system_name</text>
<polygon fill="none" stroke="black" points="654.35,-658 654.35,-680 762.35,-680 762.35,-658 654.35,-658"/>
<text text-anchor="start" x="657.35" y="-665.3" font-family="Helvetica,sans-Serif" font-size="11.00">varchar[2147483647]</text>
<polygon fill="none" stroke="black" points="455.35,-636 455.35,-658 654.35,-658 654.35,-636 455.35,-636"/>
<text text-anchor="start" x="475.35" y="-642.55" font-family="Helvetica,sans-Serif" font-size="11.00">integration_external_key</text>
<polygon fill="none" stroke="black" points="654.35,-636 654.35,-658 762.35,-658 762.35,-636 654.35,-636"/>
<text text-anchor="start" x="657.35" y="-643.3" font-family="Helvetica,sans-Serif" font-size="11.00">varchar[2147483647]</text>
<polygon fill="none" stroke="black" points="455.35,-614 455.35,-636 654.35,-636 654.35,-614 455.35,-614"/>
<text text-anchor="start" x="475.35" y="-620.55" font-family="Helvetica,sans-Serif" font-size="11.00">category_type</text>
<polygon fill="none" stroke="black" points="654.35,-614 654.35,-636 762.35,-636 762.35,-614 654.35,-614"/>
<text text-anchor="start" x="657.35" y="-621.3" font-family="Helvetica,sans-Serif" font-size="11.00">varchar[2147483647]</text>
<polygon fill="none" stroke="black" points="455.35,-592 455.35,-614 654.35,-614 654.35,-592 455.35,-592"/>
<text text-anchor="start" x="475.35" y="-598.55" font-family="Helvetica,sans-Serif" font-size="11.00">description</text>
<polygon fill="none" stroke="black" points="654.35,-592 654.35,-614 762.35,-614 762.35,-592 654.35,-592"/>
<text text-anchor="start" x="657.35" y="-599.3" font-family="Helvetica,sans-Serif" font-size="11.00">text[2147483647]</text>
<polygon fill="none" stroke="black" points="455.35,-570 455.35,-592 654.35,-592 654.35,-570 455.35,-570"/>
<text text-anchor="start" x="475.35" y="-576.55" font-family="Helvetica,sans-Serif" font-size="11.00">is_from_create</text>
<polygon fill="none" stroke="black" points="654.35,-570 654.35,-592 762.35,-592 762.35,-570 654.35,-570"/>
<text text-anchor="start" x="657.35" y="-577.3" font-family="Helvetica,sans-Serif" font-size="11.00">bool[1]</text>
<polygon fill="#ffffff" stroke="none" points="455.35,-551 455.35,-570 559.35,-570 559.35,-551 455.35,-551"/>
<polygon fill="none" stroke="black" points="455.35,-551 455.35,-570 559.35,-570 559.35,-551 455.35,-551"/>
<text text-anchor="start" x="458.35" y="-556.55" font-family="Helvetica,sans-Serif" font-size="11.00">&lt; 4</text>
<polygon fill="#ffffff" stroke="none" points="559.35,-551 559.35,-570 654.35,-570 654.35,-551 559.35,-551"/>
<polygon fill="none" stroke="black" points="559.35,-551 559.35,-570 654.35,-570 654.35,-551 559.35,-551"/>
<text text-anchor="start" x="645.35" y="-556.55" font-family="Helvetica,sans-Serif" font-size="11.00"> &#160;</text>
<polygon fill="#ffffff" stroke="none" points="654.35,-551 654.35,-570 762.35,-570 762.35,-551 654.35,-551"/>
<polygon fill="none" stroke="black" points="654.35,-551 654.35,-570 762.35,-570 762.35,-551 654.35,-551"/>
<text text-anchor="start" x="743.6" y="-556.55" font-family="Helvetica,sans-Serif" font-size="11.00">2 &gt;</text>
<polygon fill="none" stroke="black" stroke-width="2" points="454.35,-550 454.35,-968 763.35,-968 763.35,-550 454.35,-550"/>
</a>
</g>
</g>
<!-- product_category&#45;&gt;product_category -->
<g id="edge3" class="edge">
<title>product_category:w&#45;&gt;product_category:e</title>
<path fill="none" stroke="black" d="M443.81,-921.37C381.41,-978.26 393.2,-986 608.85,-986 836.98,-986 836.98,-977.33 762.35,-933"/>
<polygon fill="black" stroke="black" points="449.15,-916.57 457.51,-913.9 452.38,-913.67 454.86,-911.45 454.86,-911.45 454.86,-911.45 452.38,-913.67 452.7,-908.55 449.15,-916.57"/>
<ellipse fill="none" stroke="black" cx="445.49" cy="-919.86" rx="3.2" ry="3.2"/>
</g>
<!-- res_partner -->
<g id="node2" class="node">
<title>res_partner</title>
<g id="a_node2"><a xlink:href="../../tables/res_partner.html" xlink:title="res_partner" target="_top">
<polygon fill="#ffffff" stroke="none" points="214.35,-38.5 214.35,-473.5 404.35,-473.5 404.35,-38.5 214.35,-38.5"/>
<polygon fill="#f5f5f5" stroke="none" points="214.35,-450.5 214.35,-473.5 404.35,-473.5 404.35,-450.5 214.35,-450.5"/>
<polygon fill="none" stroke="black" points="214.35,-450.5 214.35,-473.5 404.35,-473.5 404.35,-450.5 214.35,-450.5"/>
<text text-anchor="start" x="219.35" y="-458.3" font-family="Helvetica,sans-Serif" font-weight="bold" font-size="11.00">res_partner</text>
<text text-anchor="start" x="370.1" y="-458.05" font-family="Helvetica,sans-Serif" font-size="11.00">[table]</text>
<polygon fill="none" stroke="black" points="214.35,-428.5 214.35,-450.5 404.35,-450.5 404.35,-428.5 214.35,-428.5"/>
<image xlink:href="../../images/primaryKeys.png" width="11px" height="12px" preserveAspectRatio="xMinYMin meet" x="219.354" y="-445.5"/>
<text text-anchor="start" x="234.35" y="-435.05" font-family="Helvetica,sans-Serif" font-size="11.00">id</text>
<polygon fill="#ffffff" stroke="none" points="214.35,-406.5 214.35,-428.5 404.35,-428.5 404.35,-406.5 214.35,-406.5"/>
<polygon fill="none" stroke="black" points="214.35,-406.5 214.35,-428.5 404.35,-428.5 404.35,-406.5 214.35,-406.5"/>
<text text-anchor="start" x="234.35" y="-413.05" font-family="Helvetica,sans-Serif" font-size="11.00">company_id</text>
<polygon fill="#ffffff" stroke="none" points="214.35,-384.5 214.35,-406.5 404.35,-406.5 404.35,-384.5 214.35,-384.5"/>
<polygon fill="none" stroke="black" points="214.35,-384.5 214.35,-406.5 404.35,-406.5 404.35,-384.5 214.35,-384.5"/>
<text text-anchor="start" x="234.35" y="-391.05" font-family="Helvetica,sans-Serif" font-size="11.00">name</text>
<polygon fill="#ffffff" stroke="none" points="214.35,-362.5 214.35,-384.5 404.35,-384.5 404.35,-362.5 214.35,-362.5"/>
<polygon fill="none" stroke="black" points="214.35,-362.5 214.35,-384.5 404.35,-384.5 404.35,-362.5 214.35,-362.5"/>
<image xlink:href="../../images/foreignKeys.png" width="11px" height="12px" preserveAspectRatio="xMinYMin meet" x="219.354" y="-379.5"/>
<text text-anchor="start" x="234.35" y="-369.05" font-family="Helvetica,sans-Serif" font-size="11.00">parent_id</text>
<polygon fill="none" stroke="black" points="214.35,-340.5 214.35,-362.5 404.35,-362.5 404.35,-340.5 214.35,-340.5"/>
<image xlink:href="../../images/foreignKeys.png" width="11px" height="12px" preserveAspectRatio="xMinYMin meet" x="219.354" y="-357.5"/>
<text text-anchor="start" x="234.35" y="-347.05" font-family="Helvetica,sans-Serif" font-size="11.00">user_id</text>
<polygon fill="none" stroke="black" points="214.35,-318.5 214.35,-340.5 404.35,-340.5 404.35,-318.5 214.35,-318.5"/>
<image xlink:href="../../images/foreignKeys.png" width="11px" height="12px" preserveAspectRatio="xMinYMin meet" x="219.354" y="-335.5"/>
<text text-anchor="start" x="234.35" y="-325.05" font-family="Helvetica,sans-Serif" font-size="11.00">country_id</text>
<polygon fill="#ffffff" stroke="none" points="214.35,-296.5 214.35,-318.5 404.35,-318.5 404.35,-296.5 214.35,-296.5"/>
<polygon fill="none" stroke="black" points="214.35,-296.5 214.35,-318.5 404.35,-318.5 404.35,-296.5 214.35,-296.5"/>
<image xlink:href="../../images/foreignKeys.png" width="11px" height="12px" preserveAspectRatio="xMinYMin meet" x="219.354" y="-313.5"/>
<text text-anchor="start" x="234.35" y="-303.05" font-family="Helvetica,sans-Serif" font-size="11.00">commercial_partner_id</text>
<polygon fill="none" stroke="black" points="214.35,-274.5 214.35,-296.5 404.35,-296.5 404.35,-274.5 214.35,-274.5"/>
<image xlink:href="../../images/foreignKeys.png" width="11px" height="12px" preserveAspectRatio="xMinYMin meet" x="219.354" y="-291.5"/>
<text text-anchor="start" x="234.35" y="-281.05" font-family="Helvetica,sans-Serif" font-size="11.00">create_uid</text>
<polygon fill="none" stroke="black" points="214.35,-252.5 214.35,-274.5 404.35,-274.5 404.35,-252.5 214.35,-252.5"/>
<image xlink:href="../../images/foreignKeys.png" width="11px" height="12px" preserveAspectRatio="xMinYMin meet" x="219.354" y="-269.5"/>
<text text-anchor="start" x="234.35" y="-259.05" font-family="Helvetica,sans-Serif" font-size="11.00">write_uid</text>
<polygon fill="#ffffff" stroke="none" points="214.35,-230.5 214.35,-252.5 404.35,-252.5 404.35,-230.5 214.35,-230.5"/>
<polygon fill="none" stroke="black" points="214.35,-230.5 214.35,-252.5 404.35,-252.5 404.35,-230.5 214.35,-230.5"/>
<text text-anchor="start" x="234.35" y="-237.05" font-family="Helvetica,sans-Serif" font-size="11.00">complete_name</text>
<polygon fill="#ffffff" stroke="none" points="214.35,-208.5 214.35,-230.5 404.35,-230.5 404.35,-208.5 214.35,-208.5"/>
<polygon fill="none" stroke="black" points="214.35,-208.5 214.35,-230.5 404.35,-230.5 404.35,-208.5 214.35,-208.5"/>
<text text-anchor="start" x="234.35" y="-215.05" font-family="Helvetica,sans-Serif" font-size="11.00">ref</text>
<polygon fill="#ffffff" stroke="none" points="214.35,-186.5 214.35,-208.5 404.35,-208.5 404.35,-186.5 214.35,-186.5"/>
<polygon fill="none" stroke="black" points="214.35,-186.5 214.35,-208.5 404.35,-208.5 404.35,-186.5 214.35,-186.5"/>
<text text-anchor="start" x="234.35" y="-193.05" font-family="Helvetica,sans-Serif" font-size="11.00">vat</text>
<polygon fill="#ffffff" stroke="none" points="214.35,-164.5 214.35,-186.5 404.35,-186.5 404.35,-164.5 214.35,-164.5"/>
<polygon fill="none" stroke="black" points="214.35,-164.5 214.35,-186.5 404.35,-186.5 404.35,-164.5 214.35,-164.5"/>
<text text-anchor="start" x="234.35" y="-171.05" font-family="Helvetica,sans-Serif" font-size="11.00">date</text>
<polygon fill="none" stroke="black" points="214.35,-142.5 214.35,-164.5 404.35,-164.5 404.35,-142.5 214.35,-142.5"/>
<image xlink:href="../../images/foreignKeys.png" width="11px" height="12px" preserveAspectRatio="xMinYMin meet" x="219.354" y="-159.5"/>
<text text-anchor="start" x="234.35" y="-149.05" font-family="Helvetica,sans-Serif" font-size="11.00">team_id</text>
<polygon fill="none" stroke="black" points="214.35,-120.5 214.35,-142.5 404.35,-142.5 404.35,-120.5 214.35,-120.5"/>
<image xlink:href="../../images/foreignKeys.png" width="11px" height="12px" preserveAspectRatio="xMinYMin meet" x="219.354" y="-137.5"/>
<text text-anchor="start" x="234.35" y="-127.05" font-family="Helvetica,sans-Serif" font-size="11.00">buyer_id</text>
<polygon fill="none" stroke="black" points="214.35,-98.5 214.35,-120.5 404.35,-120.5 404.35,-98.5 214.35,-98.5"/>
<image xlink:href="../../images/foreignKeys.png" width="11px" height="12px" preserveAspectRatio="xMinYMin meet" x="219.354" y="-115.5"/>
<text text-anchor="start" x="234.35" y="-105.05" font-family="Helvetica,sans-Serif" font-size="11.00">parent_company_id</text>
<polygon fill="none" stroke="black" points="214.35,-76.5 214.35,-98.5 404.35,-98.5 404.35,-76.5 214.35,-76.5"/>
<image xlink:href="../../images/foreignKeys.png" width="11px" height="12px" preserveAspectRatio="xMinYMin meet" x="219.354" y="-93.5"/>
<text text-anchor="start" x="234.35" y="-83.05" font-family="Helvetica,sans-Serif" font-size="11.00">account_manager_id</text>
<polygon fill="none" stroke="black" points="214.35,-57.5 214.35,-76.5 404.35,-76.5 404.35,-57.5 214.35,-57.5"/>
<text text-anchor="start" x="217.35" y="-63.05" font-family="Helvetica,sans-Serif" font-size="11.00">...</text>
<polygon fill="#ffffff" stroke="none" points="214.35,-38.5 214.35,-57.5 303.35,-57.5 303.35,-38.5 214.35,-38.5"/>
<polygon fill="none" stroke="black" points="214.35,-38.5 214.35,-57.5 303.35,-57.5 303.35,-38.5 214.35,-38.5"/>
<text text-anchor="start" x="217.35" y="-44.05" font-family="Helvetica,sans-Serif" font-size="11.00">&lt; 10</text>
<polygon fill="#ffffff" stroke="none" points="303.35,-38.5 303.35,-57.5 346.35,-57.5 346.35,-38.5 303.35,-38.5"/>
<polygon fill="none" stroke="black" points="303.35,-38.5 303.35,-57.5 346.35,-57.5 346.35,-38.5 303.35,-38.5"/>
<text text-anchor="start" x="337.35" y="-44.05" font-family="Helvetica,sans-Serif" font-size="11.00"> &#160;</text>
<polygon fill="#ffffff" stroke="none" points="346.35,-38.5 346.35,-57.5 404.35,-57.5 404.35,-38.5 346.35,-38.5"/>
<polygon fill="none" stroke="black" points="346.35,-38.5 346.35,-57.5 404.35,-57.5 404.35,-38.5 346.35,-38.5"/>
<text text-anchor="start" x="379.6" y="-44.05" font-family="Helvetica,sans-Serif" font-size="11.00">23 &gt;</text>
</a>
</g>
</g>
<!-- product_category&#45;&gt;res_partner -->
<g id="edge1" class="edge">
<title>product_category:w&#45;&gt;res_partner:e</title>
<path fill="none" stroke="black" d="M438.69,-688.98C358.51,-665.17 513.23,-439.5 405.35,-439.5"/>
<polygon fill="black" stroke="black" points="446.09,-689.93 453.56,-694.53 450.39,-690.49 453.69,-690.91 453.69,-690.91 453.69,-690.91 450.39,-690.49 454.48,-687.39 446.09,-689.93"/>
<ellipse fill="none" stroke="black" cx="441.21" cy="-689.3" rx="3.2" ry="3.2"/>
</g>
<!-- res_users -->
<g id="node3" class="node">
<title>res_users</title>
<g id="a_node3"><a xlink:href="../../tables/res_users.html" xlink:title="res_users" target="_top">
<polygon fill="#ffffff" stroke="none" points="17.35,-247.5 17.35,-440.5 165.35,-440.5 165.35,-247.5 17.35,-247.5"/>
<polygon fill="#f5f5f5" stroke="none" points="17.35,-417.5 17.35,-440.5 165.35,-440.5 165.35,-417.5 17.35,-417.5"/>
<polygon fill="none" stroke="black" points="17.35,-417.5 17.35,-440.5 165.35,-440.5 165.35,-417.5 17.35,-417.5"/>
<text text-anchor="start" x="21.98" y="-425.3" font-family="Helvetica,sans-Serif" font-weight="bold" font-size="11.00">res_users</text>
<text text-anchor="start" x="131.1" y="-425.05" font-family="Helvetica,sans-Serif" font-size="11.00">[table]</text>
<polygon fill="none" stroke="black" points="17.35,-395.5 17.35,-417.5 165.35,-417.5 165.35,-395.5 17.35,-395.5"/>
<image xlink:href="../../images/primaryKeys.png" width="11px" height="12px" preserveAspectRatio="xMinYMin meet" x="22.354" y="-412.5"/>
<text text-anchor="start" x="37.35" y="-402.05" font-family="Helvetica,sans-Serif" font-size="11.00">id</text>
<polygon fill="#ffffff" stroke="none" points="17.35,-373.5 17.35,-395.5 165.35,-395.5 165.35,-373.5 17.35,-373.5"/>
<polygon fill="none" stroke="black" points="17.35,-373.5 17.35,-395.5 165.35,-395.5 165.35,-373.5 17.35,-373.5"/>
<image xlink:href="../../images/foreignKeys.png" width="11px" height="12px" preserveAspectRatio="xMinYMin meet" x="22.354" y="-390.5"/>
<text text-anchor="start" x="37.35" y="-380.05" font-family="Helvetica,sans-Serif" font-size="11.00">partner_id</text>
<polygon fill="#ffffff" stroke="none" points="17.35,-351.5 17.35,-373.5 165.35,-373.5 165.35,-351.5 17.35,-351.5"/>
<polygon fill="none" stroke="black" points="17.35,-351.5 17.35,-373.5 165.35,-373.5 165.35,-351.5 17.35,-351.5"/>
<text text-anchor="start" x="37.35" y="-358.05" font-family="Helvetica,sans-Serif" font-size="11.00">login</text>
<polygon fill="none" stroke="black" points="17.35,-329.5 17.35,-351.5 165.35,-351.5 165.35,-329.5 17.35,-329.5"/>
<image xlink:href="../../images/foreignKeys.png" width="11px" height="12px" preserveAspectRatio="xMinYMin meet" x="22.354" y="-346.5"/>
<text text-anchor="start" x="37.35" y="-336.05" font-family="Helvetica,sans-Serif" font-size="11.00">create_uid</text>
<polygon fill="none" stroke="black" points="17.35,-307.5 17.35,-329.5 165.35,-329.5 165.35,-307.5 17.35,-307.5"/>
<image xlink:href="../../images/foreignKeys.png" width="11px" height="12px" preserveAspectRatio="xMinYMin meet" x="22.354" y="-324.5"/>
<text text-anchor="start" x="37.35" y="-314.05" font-family="Helvetica,sans-Serif" font-size="11.00">write_uid</text>
<polygon fill="none" stroke="black" points="17.35,-285.5 17.35,-307.5 165.35,-307.5 165.35,-285.5 17.35,-285.5"/>
<image xlink:href="../../images/foreignKeys.png" width="11px" height="12px" preserveAspectRatio="xMinYMin meet" x="22.354" y="-302.5"/>
<text text-anchor="start" x="37.35" y="-292.05" font-family="Helvetica,sans-Serif" font-size="11.00">sale_team_id</text>
<polygon fill="none" stroke="black" points="17.35,-266.5 17.35,-285.5 165.35,-285.5 165.35,-266.5 17.35,-266.5"/>
<text text-anchor="start" x="20.35" y="-272.05" font-family="Helvetica,sans-Serif" font-size="11.00">...</text>
<polygon fill="#ffffff" stroke="none" points="17.35,-247.5 17.35,-266.5 82.35,-266.5 82.35,-247.5 17.35,-247.5"/>
<polygon fill="none" stroke="black" points="17.35,-247.5 17.35,-266.5 82.35,-266.5 82.35,-247.5 17.35,-247.5"/>
<text text-anchor="start" x="20.35" y="-253.05" font-family="Helvetica,sans-Serif" font-size="11.00">&lt; 4</text>
<polygon fill="#ffffff" stroke="none" points="82.35,-247.5 82.35,-266.5 116.35,-266.5 116.35,-247.5 82.35,-247.5"/>
<polygon fill="none" stroke="black" points="82.35,-247.5 82.35,-266.5 116.35,-266.5 116.35,-247.5 82.35,-247.5"/>
<text text-anchor="start" x="107.35" y="-253.05" font-family="Helvetica,sans-Serif" font-size="11.00"> &#160;</text>
<polygon fill="#ffffff" stroke="none" points="116.35,-247.5 116.35,-266.5 165.35,-266.5 165.35,-247.5 116.35,-247.5"/>
<polygon fill="none" stroke="black" points="116.35,-247.5 116.35,-266.5 165.35,-266.5 165.35,-247.5 116.35,-247.5"/>
<text text-anchor="start" x="140.6" y="-253.05" font-family="Helvetica,sans-Serif" font-size="11.00">65 &gt;</text>
</a>
</g>
</g>
<!-- product_category&#45;&gt;res_users -->
<g id="edge2" class="edge">
<title>product_category:w&#45;&gt;res_users:e</title>
<path fill="none" stroke="black" d="M438.67,-888.72C316.64,-884.31 273.25,-827.03 206.35,-717 170.21,-657.55 235.92,-406.5 166.35,-406.5"/>
<polygon fill="black" stroke="black" points="446.02,-888.85 453.96,-892.59 450.35,-888.93 453.69,-888.99 453.69,-888.99 453.69,-888.99 450.35,-888.93 454.08,-885.39 446.02,-888.85"/>
<ellipse fill="none" stroke="black" cx="441.1" cy="-888.77" rx="3.2" ry="3.2"/>
</g>
<!-- product_category&#45;&gt;res_users -->
<g id="edge4" class="edge">
<title>product_category:w&#45;&gt;res_users:e</title>
<path fill="none" stroke="black" d="M438.84,-864.89C396.12,-850.97 445.6,-771.07 412.35,-718 347.34,-614.22 272.76,-637.9 206.35,-535 173.92,-484.74 226.17,-406.5 166.35,-406.5"/>
<polygon fill="black" stroke="black" points="446.1,-865.88 453.54,-870.52 450.39,-866.46 453.69,-866.91 453.69,-866.91 453.69,-866.91 450.39,-866.46 454.51,-863.39 446.1,-865.88"/>
<ellipse fill="none" stroke="black" cx="441.22" cy="-865.22" rx="3.2" ry="3.2"/>
</g>
<!-- res_partner&#45;&gt;res_users -->
<g id="edge9" class="edge">
<title>res_partner:w&#45;&gt;res_users:e</title>
<path fill="none" stroke="black" d="M197.6,-89.07C89.06,-113.13 303.78,-406.5 166.35,-406.5"/>
<polygon fill="black" stroke="black" points="205.06,-88.32 213.38,-91.12 209.37,-87.9 212.69,-87.57 212.69,-87.57 212.69,-87.57 209.37,-87.9 212.67,-83.95 205.06,-88.32"/>
<ellipse fill="none" stroke="black" cx="200.17" cy="-88.81" rx="3.2" ry="3.2"/>
</g>
<!-- res_partner&#45;&gt;res_users -->
<g id="edge10" class="edge">
<title>res_partner:w&#45;&gt;res_users:e</title>
<path fill="none" stroke="black" d="M197.72,-133.33C107.85,-157.19 284.42,-406.5 166.35,-406.5"/>
<polygon fill="black" stroke="black" points="205.08,-132.47 213.44,-135.11 209.38,-131.96 212.69,-131.58 212.69,-131.58 212.69,-131.58 209.38,-131.96 212.6,-127.96 205.08,-132.47"/>
<ellipse fill="none" stroke="black" cx="200.19" cy="-133.04" rx="3.2" ry="3.2"/>
</g>
<!-- res_partner&#45;&gt;res_users -->
<g id="edge11" class="edge">
<title>res_partner:w&#45;&gt;res_users:e</title>
<path fill="none" stroke="black" d="M198.23,-289.81C169.54,-311.36 217.51,-406.5 166.35,-406.5"/>
<polygon fill="black" stroke="black" points="205.34,-287.78 214.02,-289.05 209.51,-286.6 212.71,-285.68 212.71,-285.68 212.71,-285.68 209.51,-286.6 212.05,-282.13 205.34,-287.78"/>
<ellipse fill="none" stroke="black" cx="200.61" cy="-289.13" rx="3.2" ry="3.2"/>
</g>
<!-- res_partner&#45;&gt;res_users -->
<g id="edge12" class="edge">
<title>res_partner:w&#45;&gt;res_users:e</title>
<path fill="none" stroke="black" d="M199.05,-357.39C186.19,-371.57 191.98,-406.5 166.35,-406.5"/>
<polygon fill="black" stroke="black" points="205.65,-354.67 214.41,-354.96 209.66,-353.02 212.74,-351.75 212.74,-351.75 212.74,-351.75 209.66,-353.02 211.67,-348.3 205.65,-354.67"/>
<ellipse fill="none" stroke="black" cx="201.1" cy="-356.54" rx="3.2" ry="3.2"/>
</g>
<!-- res_partner&#45;&gt;res_users -->
<g id="edge13" class="edge">
<title>res_partner:w&#45;&gt;res_users:e</title>
<path fill="none" stroke="black" d="M198.34,-267.03C161.38,-289.06 226.98,-406.5 166.35,-406.5"/>
<polygon fill="black" stroke="black" points="205.24,-265.41 213.85,-267.08 209.46,-264.42 212.7,-263.65 212.7,-263.65 212.7,-263.65 209.46,-264.42 212.2,-260.07 205.24,-265.41"/>
<ellipse fill="none" stroke="black" cx="200.45" cy="-266.54" rx="3.2" ry="3.2"/>
</g>
<!-- res_users&#45;&gt;res_partner -->
<g id="edge14" class="edge">
<title>res_users:w&#45;&gt;res_partner:e</title>
<path fill="none" stroke="black" d="M2.37,-391.8C-4.33,-404.23 4.63,-429.61 17.35,-444.5 72.76,-509.32 121.4,-470.14 206.35,-477.5 228.27,-479.4 388.59,-492.85 404.35,-477.5 416.46,-465.71 422.25,-439.5 405.35,-439.5"/>
<polygon fill="black" stroke="black" points="8.97,-388.36 17.72,-387.85 12.81,-386.35 15.76,-384.81 15.76,-384.81 15.76,-384.81 12.81,-386.35 14.39,-381.46 8.97,-388.36"/>
<ellipse fill="none" stroke="black" cx="4.61" cy="-390.63" rx="3.2" ry="3.2"/>
</g>
<!-- product_template -->
<g id="node4" class="node">
<title>product_template</title>
<g id="a_node4"><a xlink:href="../../tables/product_template.html" xlink:title="product_template" target="_top">
<polygon fill="#ffffff" stroke="none" points="813.35,-428.5 813.35,-621.5 1001.35,-621.5 1001.35,-428.5 813.35,-428.5"/>
<polygon fill="#f5f5f5" stroke="none" points="813.35,-598.5 813.35,-621.5 1001.35,-621.5 1001.35,-598.5 813.35,-598.5"/>
<polygon fill="none" stroke="black" points="813.35,-598.5 813.35,-621.5 1001.35,-621.5 1001.35,-598.5 813.35,-598.5"/>
<text text-anchor="start" x="818.35" y="-606.3" font-family="Helvetica,sans-Serif" font-weight="bold" font-size="11.00">product_template</text>
<text text-anchor="start" x="967.1" y="-606.05" font-family="Helvetica,sans-Serif" font-size="11.00">[table]</text>
<polygon fill="none" stroke="black" points="813.35,-576.5 813.35,-598.5 1001.35,-598.5 1001.35,-576.5 813.35,-576.5"/>
<image xlink:href="../../images/primaryKeys.png" width="11px" height="12px" preserveAspectRatio="xMinYMin meet" x="818.354" y="-593.5"/>
<text text-anchor="start" x="833.35" y="-583.05" font-family="Helvetica,sans-Serif" font-size="11.00">id</text>
<polygon fill="none" stroke="black" points="813.35,-554.5 813.35,-576.5 1001.35,-576.5 1001.35,-554.5 813.35,-554.5"/>
<image xlink:href="../../images/foreignKeys.png" width="11px" height="12px" preserveAspectRatio="xMinYMin meet" x="818.354" y="-571.5"/>
<text text-anchor="start" x="833.35" y="-561.05" font-family="Helvetica,sans-Serif" font-size="11.00">categ_id</text>
<polygon fill="#ffffff" stroke="none" points="813.35,-532.5 813.35,-554.5 1001.35,-554.5 1001.35,-532.5 813.35,-532.5"/>
<polygon fill="none" stroke="black" points="813.35,-532.5 813.35,-554.5 1001.35,-554.5 1001.35,-532.5 813.35,-532.5"/>
<text text-anchor="start" x="833.35" y="-539.05" font-family="Helvetica,sans-Serif" font-size="11.00">company_id</text>
<polygon fill="none" stroke="black" points="813.35,-510.5 813.35,-532.5 1001.35,-532.5 1001.35,-510.5 813.35,-510.5"/>
<image xlink:href="../../images/foreignKeys.png" width="11px" height="12px" preserveAspectRatio="xMinYMin meet" x="818.354" y="-527.5"/>
<text text-anchor="start" x="833.35" y="-517.05" font-family="Helvetica,sans-Serif" font-size="11.00">create_uid</text>
<polygon fill="none" stroke="black" points="813.35,-488.5 813.35,-510.5 1001.35,-510.5 1001.35,-488.5 813.35,-488.5"/>
<image xlink:href="../../images/foreignKeys.png" width="11px" height="12px" preserveAspectRatio="xMinYMin meet" x="818.354" y="-505.5"/>
<text text-anchor="start" x="833.35" y="-495.05" font-family="Helvetica,sans-Serif" font-size="11.00">write_uid</text>
<polygon fill="none" stroke="black" points="813.35,-466.5 813.35,-488.5 1001.35,-488.5 1001.35,-466.5 813.35,-466.5"/>
<image xlink:href="../../images/foreignKeys.png" width="11px" height="12px" preserveAspectRatio="xMinYMin meet" x="818.354" y="-483.5"/>
<text text-anchor="start" x="833.35" y="-473.05" font-family="Helvetica,sans-Serif" font-size="11.00">citizen_id</text>
<polygon fill="none" stroke="black" points="813.35,-447.5 813.35,-466.5 1001.35,-466.5 1001.35,-447.5 813.35,-447.5"/>
<text text-anchor="start" x="816.35" y="-453.05" font-family="Helvetica,sans-Serif" font-size="11.00">...</text>
<polygon fill="#ffffff" stroke="none" points="813.35,-428.5 813.35,-447.5 905.35,-447.5 905.35,-428.5 813.35,-428.5"/>
<polygon fill="none" stroke="black" points="813.35,-428.5 813.35,-447.5 905.35,-447.5 905.35,-428.5 813.35,-428.5"/>
<text text-anchor="start" x="816.35" y="-434.05" font-family="Helvetica,sans-Serif" font-size="11.00">&lt; 4</text>
<polygon fill="#ffffff" stroke="none" points="905.35,-428.5 905.35,-447.5 953.35,-447.5 953.35,-428.5 905.35,-428.5"/>
<polygon fill="none" stroke="black" points="905.35,-428.5 905.35,-447.5 953.35,-447.5 953.35,-428.5 905.35,-428.5"/>
<text text-anchor="start" x="944.35" y="-434.05" font-family="Helvetica,sans-Serif" font-size="11.00"> &#160;</text>
<polygon fill="#ffffff" stroke="none" points="953.35,-428.5 953.35,-447.5 1001.35,-447.5 1001.35,-428.5 953.35,-428.5"/>
<polygon fill="none" stroke="black" points="953.35,-428.5 953.35,-447.5 1001.35,-447.5 1001.35,-428.5 953.35,-428.5"/>
<text text-anchor="start" x="992.35" y="-434.05" font-family="Helvetica,sans-Serif" font-size="11.00"> &#160;</text>
</a>
</g>
</g>
<!-- product_template&#45;&gt;product_category -->
<g id="edge5" class="edge">
<title>product_template:w&#45;&gt;product_category:e</title>
<path fill="none" stroke="black" d="M797.78,-570.7C745.27,-615.36 839.95,-933 763.35,-933"/>
<polygon fill="black" stroke="black" points="804.5,-568.3 813.25,-569 808.59,-566.84 811.72,-565.72 811.72,-565.72 811.72,-565.72 808.59,-566.84 810.83,-562.22 804.5,-568.3"/>
<ellipse fill="none" stroke="black" cx="799.87" cy="-569.95" rx="3.2" ry="3.2"/>
</g>
<!-- product_template&#45;&gt;res_partner -->
<g id="edge6" class="edge">
<title>product_template:w&#45;&gt;res_partner:e</title>
<path fill="none" stroke="black" d="M796.73,-477.4C628,-475.31 581.71,-439.5 405.35,-439.5"/>
<polygon fill="black" stroke="black" points="804.02,-477.45 812,-481.1 808.35,-477.48 811.69,-477.5 811.69,-477.5 811.69,-477.5 808.35,-477.48 812.04,-473.9 804.02,-477.45"/>
<ellipse fill="none" stroke="black" cx="799.1" cy="-477.42" rx="3.2" ry="3.2"/>
</g>
<!-- product_template&#45;&gt;res_users -->
<g id="edge7" class="edge">
<title>product_template:w&#45;&gt;res_users:e</title>
<path fill="none" stroke="black" d="M796.73,-521.73C690.72,-524.17 258.42,-544.3 206.35,-508 166.58,-480.27 214.84,-406.5 166.35,-406.5"/>
<polygon fill="black" stroke="black" points="804.02,-521.62 812.07,-525.1 808.35,-521.56 811.69,-521.51 811.69,-521.51 811.69,-521.51 808.35,-521.56 811.97,-517.91 804.02,-521.62"/>
<ellipse fill="none" stroke="black" cx="799.1" cy="-521.7" rx="3.2" ry="3.2"/>
</g>
<!-- product_template&#45;&gt;res_users -->
<g id="edge8" class="edge">
<title>product_template:w&#45;&gt;res_users:e</title>
<path fill="none" stroke="black" d="M796.75,-499.69C690.91,-501.65 260.13,-517.71 206.35,-484 173.51,-463.41 205.12,-406.5 166.35,-406.5"/>
<polygon fill="black" stroke="black" points="804.02,-499.6 812.06,-503.1 808.35,-499.55 811.69,-499.51 811.69,-499.51 811.69,-499.51 808.35,-499.55 811.98,-495.9 804.02,-499.6"/>
<ellipse fill="none" stroke="black" cx="799.1" cy="-499.66" rx="3.2" ry="3.2"/>
</g>
</g>
</svg>
