<?xml version="1.0" encoding="UTF-8" standalone="no"?>
<!DOCTYPE svg PUBLIC "-//W3C//DTD SVG 1.1//EN"
 "http://www.w3.org/Graphics/SVG/1.1/DTD/svg11.dtd">
<!-- Generated by graphviz version 12.0.0 (0)
 -->
<!-- Title: oneDegreeRelationshipsDiagram Pages: 1 -->
<svg width="1655pt" height="1395pt"
 viewBox="0.00 0.00 1654.86 1395.38" xmlns="http://www.w3.org/2000/svg" xmlns:xlink="http://www.w3.org/1999/xlink">
<g id="graph0" class="graph" transform="scale(1 1) rotate(0) translate(4 1391.38)">
<title>oneDegreeRelationshipsDiagram</title>
<polygon fill="#ffffff" stroke="none" points="-4,4 -4,-1391.38 1650.86,-1391.38 1650.86,4 -4,4"/>
<text text-anchor="middle" x="71.38" y="-7.05" font-family="Helvetica,sans-Serif" font-size="11.00">Generated by SchemaSpy</text>
<!-- project_campaign -->
<g id="node1" class="node">
<title>project_campaign</title>
<g id="a_node1"><a xlink:href="../../tables/project_campaign.html" xlink:title="project_campaign" target="_top">
<polygon fill="#ffffff" stroke="none" points="446.86,-113.88 446.86,-350.88 591.86,-350.88 591.86,-113.88 446.86,-113.88"/>
<polygon fill="#f5f5f5" stroke="none" points="446.86,-327.88 446.86,-350.88 591.86,-350.88 591.86,-327.88 446.86,-327.88"/>
<polygon fill="none" stroke="black" points="446.86,-327.88 446.86,-350.88 591.86,-350.88 591.86,-327.88 446.86,-327.88"/>
<text text-anchor="start" x="451.86" y="-335.68" font-family="Helvetica,sans-Serif" font-weight="bold" font-size="11.00">project_campaign</text>
<text text-anchor="start" x="557.86" y="-335.43" font-family="Helvetica,sans-Serif" font-size="11.00">[table]</text>
<polygon fill="none" stroke="black" points="446.86,-305.88 446.86,-327.88 591.86,-327.88 591.86,-305.88 446.86,-305.88"/>
<image xlink:href="../../images/primaryKeys.png" width="11px" height="12px" preserveAspectRatio="xMinYMin meet" x="451.858" y="-322.884"/>
<text text-anchor="start" x="475.86" y="-312.43" font-family="Helvetica,sans-Serif" font-size="11.00">id</text>
<polygon fill="#ffffff" stroke="none" points="446.86,-283.88 446.86,-305.88 591.86,-305.88 591.86,-283.88 446.86,-283.88"/>
<polygon fill="none" stroke="black" points="446.86,-283.88 446.86,-305.88 591.86,-305.88 591.86,-283.88 446.86,-283.88"/>
<text text-anchor="start" x="475.86" y="-290.43" font-family="Helvetica,sans-Serif" font-size="11.00">company_id</text>
<polygon fill="#ffffff" stroke="none" points="446.86,-261.88 446.86,-283.88 591.86,-283.88 591.86,-261.88 446.86,-261.88"/>
<polygon fill="none" stroke="black" points="446.86,-261.88 446.86,-283.88 591.86,-283.88 591.86,-261.88 446.86,-261.88"/>
<image xlink:href="../../images/foreignKeys.png" width="11px" height="12px" preserveAspectRatio="xMinYMin meet" x="451.858" y="-278.884"/>
<text text-anchor="start" x="475.86" y="-268.43" font-family="Helvetica,sans-Serif" font-size="11.00">user_id</text>
<polygon fill="none" stroke="black" points="446.86,-239.88 446.86,-261.88 591.86,-261.88 591.86,-239.88 446.86,-239.88"/>
<image xlink:href="../../images/foreignKeys.png" width="11px" height="12px" preserveAspectRatio="xMinYMin meet" x="451.858" y="-256.884"/>
<text text-anchor="start" x="475.86" y="-246.43" font-family="Helvetica,sans-Serif" font-size="11.00">partner_id</text>
<polygon fill="none" stroke="black" points="446.86,-217.88 446.86,-239.88 591.86,-239.88 591.86,-217.88 446.86,-217.88"/>
<image xlink:href="../../images/foreignKeys.png" width="11px" height="12px" preserveAspectRatio="xMinYMin meet" x="451.858" y="-234.884"/>
<text text-anchor="start" x="475.86" y="-224.43" font-family="Helvetica,sans-Serif" font-size="11.00">create_uid</text>
<polygon fill="none" stroke="black" points="446.86,-195.88 446.86,-217.88 591.86,-217.88 591.86,-195.88 446.86,-195.88"/>
<image xlink:href="../../images/foreignKeys.png" width="11px" height="12px" preserveAspectRatio="xMinYMin meet" x="451.858" y="-212.884"/>
<text text-anchor="start" x="475.86" y="-202.43" font-family="Helvetica,sans-Serif" font-size="11.00">write_uid</text>
<polygon fill="#ffffff" stroke="none" points="446.86,-173.88 446.86,-195.88 591.86,-195.88 591.86,-173.88 446.86,-173.88"/>
<polygon fill="none" stroke="black" points="446.86,-173.88 446.86,-195.88 591.86,-195.88 591.86,-173.88 446.86,-173.88"/>
<text text-anchor="start" x="475.86" y="-180.43" font-family="Helvetica,sans-Serif" font-size="11.00">name</text>
<polygon fill="none" stroke="black" points="446.86,-151.88 446.86,-173.88 591.86,-173.88 591.86,-151.88 446.86,-151.88"/>
<image xlink:href="../../images/foreignKeys.png" width="11px" height="12px" preserveAspectRatio="xMinYMin meet" x="451.858" y="-168.884"/>
<text text-anchor="start" x="475.86" y="-158.43" font-family="Helvetica,sans-Serif" font-size="11.00">citizen_id</text>
<polygon fill="none" stroke="black" points="446.86,-132.88 446.86,-151.88 591.86,-151.88 591.86,-132.88 446.86,-132.88"/>
<text text-anchor="start" x="449.86" y="-138.43" font-family="Helvetica,sans-Serif" font-size="11.00">...</text>
<polygon fill="#ffffff" stroke="none" points="446.86,-113.88 446.86,-132.88 512.86,-132.88 512.86,-113.88 446.86,-113.88"/>
<polygon fill="none" stroke="black" points="446.86,-113.88 446.86,-132.88 512.86,-132.88 512.86,-113.88 446.86,-113.88"/>
<text text-anchor="start" x="449.86" y="-119.43" font-family="Helvetica,sans-Serif" font-size="11.00">&lt; 5</text>
<polygon fill="#ffffff" stroke="none" points="512.86,-113.88 512.86,-132.88 547.86,-132.88 547.86,-113.88 512.86,-113.88"/>
<polygon fill="none" stroke="black" points="512.86,-113.88 512.86,-132.88 547.86,-132.88 547.86,-113.88 512.86,-113.88"/>
<text text-anchor="start" x="538.86" y="-119.43" font-family="Helvetica,sans-Serif" font-size="11.00"> &#160;</text>
<polygon fill="#ffffff" stroke="none" points="547.86,-113.88 547.86,-132.88 591.86,-132.88 591.86,-113.88 547.86,-113.88"/>
<polygon fill="none" stroke="black" points="547.86,-113.88 547.86,-132.88 591.86,-132.88 591.86,-113.88 547.86,-113.88"/>
<text text-anchor="start" x="573.11" y="-119.43" font-family="Helvetica,sans-Serif" font-size="11.00">2 &gt;</text>
</a>
</g>
</g>
<!-- res_partner -->
<g id="node2" class="node">
<title>res_partner</title>
<g id="a_node2"><a xlink:href="../../tables/res_partner.html" xlink:title="res_partner" target="_top">
<polygon fill="#ffffff" stroke="none" points="207.86,-534.88 207.86,-969.88 397.86,-969.88 397.86,-534.88 207.86,-534.88"/>
<polygon fill="#f5f5f5" stroke="none" points="207.86,-946.88 207.86,-969.88 397.86,-969.88 397.86,-946.88 207.86,-946.88"/>
<polygon fill="none" stroke="black" points="207.86,-946.88 207.86,-969.88 397.86,-969.88 397.86,-946.88 207.86,-946.88"/>
<text text-anchor="start" x="212.86" y="-954.68" font-family="Helvetica,sans-Serif" font-weight="bold" font-size="11.00">res_partner</text>
<text text-anchor="start" x="363.61" y="-954.43" font-family="Helvetica,sans-Serif" font-size="11.00">[table]</text>
<polygon fill="none" stroke="black" points="207.86,-924.88 207.86,-946.88 397.86,-946.88 397.86,-924.88 207.86,-924.88"/>
<image xlink:href="../../images/primaryKeys.png" width="11px" height="12px" preserveAspectRatio="xMinYMin meet" x="212.858" y="-941.884"/>
<text text-anchor="start" x="227.86" y="-931.43" font-family="Helvetica,sans-Serif" font-size="11.00">id</text>
<polygon fill="#ffffff" stroke="none" points="207.86,-902.88 207.86,-924.88 397.86,-924.88 397.86,-902.88 207.86,-902.88"/>
<polygon fill="none" stroke="black" points="207.86,-902.88 207.86,-924.88 397.86,-924.88 397.86,-902.88 207.86,-902.88"/>
<text text-anchor="start" x="227.86" y="-909.43" font-family="Helvetica,sans-Serif" font-size="11.00">company_id</text>
<polygon fill="#ffffff" stroke="none" points="207.86,-880.88 207.86,-902.88 397.86,-902.88 397.86,-880.88 207.86,-880.88"/>
<polygon fill="none" stroke="black" points="207.86,-880.88 207.86,-902.88 397.86,-902.88 397.86,-880.88 207.86,-880.88"/>
<text text-anchor="start" x="227.86" y="-887.43" font-family="Helvetica,sans-Serif" font-size="11.00">name</text>
<polygon fill="#ffffff" stroke="none" points="207.86,-858.88 207.86,-880.88 397.86,-880.88 397.86,-858.88 207.86,-858.88"/>
<polygon fill="none" stroke="black" points="207.86,-858.88 207.86,-880.88 397.86,-880.88 397.86,-858.88 207.86,-858.88"/>
<image xlink:href="../../images/foreignKeys.png" width="11px" height="12px" preserveAspectRatio="xMinYMin meet" x="212.858" y="-875.884"/>
<text text-anchor="start" x="227.86" y="-865.43" font-family="Helvetica,sans-Serif" font-size="11.00">parent_id</text>
<polygon fill="none" stroke="black" points="207.86,-836.88 207.86,-858.88 397.86,-858.88 397.86,-836.88 207.86,-836.88"/>
<image xlink:href="../../images/foreignKeys.png" width="11px" height="12px" preserveAspectRatio="xMinYMin meet" x="212.858" y="-853.884"/>
<text text-anchor="start" x="227.86" y="-843.43" font-family="Helvetica,sans-Serif" font-size="11.00">user_id</text>
<polygon fill="none" stroke="black" points="207.86,-814.88 207.86,-836.88 397.86,-836.88 397.86,-814.88 207.86,-814.88"/>
<image xlink:href="../../images/foreignKeys.png" width="11px" height="12px" preserveAspectRatio="xMinYMin meet" x="212.858" y="-831.884"/>
<text text-anchor="start" x="227.86" y="-821.43" font-family="Helvetica,sans-Serif" font-size="11.00">country_id</text>
<polygon fill="#ffffff" stroke="none" points="207.86,-792.88 207.86,-814.88 397.86,-814.88 397.86,-792.88 207.86,-792.88"/>
<polygon fill="none" stroke="black" points="207.86,-792.88 207.86,-814.88 397.86,-814.88 397.86,-792.88 207.86,-792.88"/>
<image xlink:href="../../images/foreignKeys.png" width="11px" height="12px" preserveAspectRatio="xMinYMin meet" x="212.858" y="-809.884"/>
<text text-anchor="start" x="227.86" y="-799.43" font-family="Helvetica,sans-Serif" font-size="11.00">commercial_partner_id</text>
<polygon fill="none" stroke="black" points="207.86,-770.88 207.86,-792.88 397.86,-792.88 397.86,-770.88 207.86,-770.88"/>
<image xlink:href="../../images/foreignKeys.png" width="11px" height="12px" preserveAspectRatio="xMinYMin meet" x="212.858" y="-787.884"/>
<text text-anchor="start" x="227.86" y="-777.43" font-family="Helvetica,sans-Serif" font-size="11.00">create_uid</text>
<polygon fill="none" stroke="black" points="207.86,-748.88 207.86,-770.88 397.86,-770.88 397.86,-748.88 207.86,-748.88"/>
<image xlink:href="../../images/foreignKeys.png" width="11px" height="12px" preserveAspectRatio="xMinYMin meet" x="212.858" y="-765.884"/>
<text text-anchor="start" x="227.86" y="-755.43" font-family="Helvetica,sans-Serif" font-size="11.00">write_uid</text>
<polygon fill="#ffffff" stroke="none" points="207.86,-726.88 207.86,-748.88 397.86,-748.88 397.86,-726.88 207.86,-726.88"/>
<polygon fill="none" stroke="black" points="207.86,-726.88 207.86,-748.88 397.86,-748.88 397.86,-726.88 207.86,-726.88"/>
<text text-anchor="start" x="227.86" y="-733.43" font-family="Helvetica,sans-Serif" font-size="11.00">complete_name</text>
<polygon fill="#ffffff" stroke="none" points="207.86,-704.88 207.86,-726.88 397.86,-726.88 397.86,-704.88 207.86,-704.88"/>
<polygon fill="none" stroke="black" points="207.86,-704.88 207.86,-726.88 397.86,-726.88 397.86,-704.88 207.86,-704.88"/>
<text text-anchor="start" x="227.86" y="-711.43" font-family="Helvetica,sans-Serif" font-size="11.00">ref</text>
<polygon fill="#ffffff" stroke="none" points="207.86,-682.88 207.86,-704.88 397.86,-704.88 397.86,-682.88 207.86,-682.88"/>
<polygon fill="none" stroke="black" points="207.86,-682.88 207.86,-704.88 397.86,-704.88 397.86,-682.88 207.86,-682.88"/>
<text text-anchor="start" x="227.86" y="-689.43" font-family="Helvetica,sans-Serif" font-size="11.00">vat</text>
<polygon fill="#ffffff" stroke="none" points="207.86,-660.88 207.86,-682.88 397.86,-682.88 397.86,-660.88 207.86,-660.88"/>
<polygon fill="none" stroke="black" points="207.86,-660.88 207.86,-682.88 397.86,-682.88 397.86,-660.88 207.86,-660.88"/>
<text text-anchor="start" x="227.86" y="-667.43" font-family="Helvetica,sans-Serif" font-size="11.00">date</text>
<polygon fill="none" stroke="black" points="207.86,-638.88 207.86,-660.88 397.86,-660.88 397.86,-638.88 207.86,-638.88"/>
<image xlink:href="../../images/foreignKeys.png" width="11px" height="12px" preserveAspectRatio="xMinYMin meet" x="212.858" y="-655.884"/>
<text text-anchor="start" x="227.86" y="-645.43" font-family="Helvetica,sans-Serif" font-size="11.00">team_id</text>
<polygon fill="none" stroke="black" points="207.86,-616.88 207.86,-638.88 397.86,-638.88 397.86,-616.88 207.86,-616.88"/>
<image xlink:href="../../images/foreignKeys.png" width="11px" height="12px" preserveAspectRatio="xMinYMin meet" x="212.858" y="-633.884"/>
<text text-anchor="start" x="227.86" y="-623.43" font-family="Helvetica,sans-Serif" font-size="11.00">buyer_id</text>
<polygon fill="none" stroke="black" points="207.86,-594.88 207.86,-616.88 397.86,-616.88 397.86,-594.88 207.86,-594.88"/>
<image xlink:href="../../images/foreignKeys.png" width="11px" height="12px" preserveAspectRatio="xMinYMin meet" x="212.858" y="-611.884"/>
<text text-anchor="start" x="227.86" y="-601.43" font-family="Helvetica,sans-Serif" font-size="11.00">parent_company_id</text>
<polygon fill="none" stroke="black" points="207.86,-572.88 207.86,-594.88 397.86,-594.88 397.86,-572.88 207.86,-572.88"/>
<image xlink:href="../../images/foreignKeys.png" width="11px" height="12px" preserveAspectRatio="xMinYMin meet" x="212.858" y="-589.884"/>
<text text-anchor="start" x="227.86" y="-579.43" font-family="Helvetica,sans-Serif" font-size="11.00">account_manager_id</text>
<polygon fill="none" stroke="black" points="207.86,-553.88 207.86,-572.88 397.86,-572.88 397.86,-553.88 207.86,-553.88"/>
<text text-anchor="start" x="210.86" y="-559.43" font-family="Helvetica,sans-Serif" font-size="11.00">...</text>
<polygon fill="#ffffff" stroke="none" points="207.86,-534.88 207.86,-553.88 296.86,-553.88 296.86,-534.88 207.86,-534.88"/>
<polygon fill="none" stroke="black" points="207.86,-534.88 207.86,-553.88 296.86,-553.88 296.86,-534.88 207.86,-534.88"/>
<text text-anchor="start" x="210.86" y="-540.43" font-family="Helvetica,sans-Serif" font-size="11.00">&lt; 10</text>
<polygon fill="#ffffff" stroke="none" points="296.86,-534.88 296.86,-553.88 339.86,-553.88 339.86,-534.88 296.86,-534.88"/>
<polygon fill="none" stroke="black" points="296.86,-534.88 296.86,-553.88 339.86,-553.88 339.86,-534.88 296.86,-534.88"/>
<text text-anchor="start" x="330.86" y="-540.43" font-family="Helvetica,sans-Serif" font-size="11.00"> &#160;</text>
<polygon fill="#ffffff" stroke="none" points="339.86,-534.88 339.86,-553.88 397.86,-553.88 397.86,-534.88 339.86,-534.88"/>
<polygon fill="none" stroke="black" points="339.86,-534.88 339.86,-553.88 397.86,-553.88 397.86,-534.88 339.86,-534.88"/>
<text text-anchor="start" x="373.11" y="-540.43" font-family="Helvetica,sans-Serif" font-size="11.00">23 &gt;</text>
</a>
</g>
</g>
<!-- project_campaign&#45;&gt;res_partner -->
<g id="edge1" class="edge">
<title>project_campaign:w&#45;&gt;res_partner:e</title>
<path fill="none" stroke="black" d="M432.46,-171.04C374.18,-253.66 479.7,-935.88 398.86,-935.88"/>
<polygon fill="black" stroke="black" points="438.74,-167.22 447.44,-166.13 442.44,-164.96 445.29,-163.23 445.29,-163.23 445.29,-163.23 442.44,-164.96 443.7,-159.98 438.74,-167.22"/>
<ellipse fill="none" stroke="black" cx="434.54" cy="-169.78" rx="3.2" ry="3.2"/>
</g>
<!-- project_campaign&#45;&gt;res_partner -->
<g id="edge3" class="edge">
<title>project_campaign:w&#45;&gt;res_partner:e</title>
<path fill="none" stroke="black" d="M432.8,-259.8C382.97,-340.09 470.01,-935.88 398.86,-935.88"/>
<polygon fill="black" stroke="black" points="438.97,-255.58 447.61,-254.05 442.55,-253.14 445.31,-251.26 445.31,-251.26 445.31,-251.26 442.55,-253.14 443.55,-248.1 438.97,-255.58"/>
<ellipse fill="none" stroke="black" cx="434.91" cy="-258.36" rx="3.2" ry="3.2"/>
</g>
<!-- res_users -->
<g id="node3" class="node">
<title>res_users</title>
<g id="a_node3"><a xlink:href="../../tables/res_users.html" xlink:title="res_users" target="_top">
<polygon fill="#ffffff" stroke="none" points="10.86,-387.88 10.86,-580.88 158.86,-580.88 158.86,-387.88 10.86,-387.88"/>
<polygon fill="#f5f5f5" stroke="none" points="10.86,-557.88 10.86,-580.88 158.86,-580.88 158.86,-557.88 10.86,-557.88"/>
<polygon fill="none" stroke="black" points="10.86,-557.88 10.86,-580.88 158.86,-580.88 158.86,-557.88 10.86,-557.88"/>
<text text-anchor="start" x="15.48" y="-565.68" font-family="Helvetica,sans-Serif" font-weight="bold" font-size="11.00">res_users</text>
<text text-anchor="start" x="124.61" y="-565.43" font-family="Helvetica,sans-Serif" font-size="11.00">[table]</text>
<polygon fill="none" stroke="black" points="10.86,-535.88 10.86,-557.88 158.86,-557.88 158.86,-535.88 10.86,-535.88"/>
<image xlink:href="../../images/primaryKeys.png" width="11px" height="12px" preserveAspectRatio="xMinYMin meet" x="15.8575" y="-552.884"/>
<text text-anchor="start" x="30.86" y="-542.43" font-family="Helvetica,sans-Serif" font-size="11.00">id</text>
<polygon fill="#ffffff" stroke="none" points="10.86,-513.88 10.86,-535.88 158.86,-535.88 158.86,-513.88 10.86,-513.88"/>
<polygon fill="none" stroke="black" points="10.86,-513.88 10.86,-535.88 158.86,-535.88 158.86,-513.88 10.86,-513.88"/>
<image xlink:href="../../images/foreignKeys.png" width="11px" height="12px" preserveAspectRatio="xMinYMin meet" x="15.8575" y="-530.884"/>
<text text-anchor="start" x="30.86" y="-520.43" font-family="Helvetica,sans-Serif" font-size="11.00">partner_id</text>
<polygon fill="#ffffff" stroke="none" points="10.86,-491.88 10.86,-513.88 158.86,-513.88 158.86,-491.88 10.86,-491.88"/>
<polygon fill="none" stroke="black" points="10.86,-491.88 10.86,-513.88 158.86,-513.88 158.86,-491.88 10.86,-491.88"/>
<text text-anchor="start" x="30.86" y="-498.43" font-family="Helvetica,sans-Serif" font-size="11.00">login</text>
<polygon fill="none" stroke="black" points="10.86,-469.88 10.86,-491.88 158.86,-491.88 158.86,-469.88 10.86,-469.88"/>
<image xlink:href="../../images/foreignKeys.png" width="11px" height="12px" preserveAspectRatio="xMinYMin meet" x="15.8575" y="-486.884"/>
<text text-anchor="start" x="30.86" y="-476.43" font-family="Helvetica,sans-Serif" font-size="11.00">create_uid</text>
<polygon fill="none" stroke="black" points="10.86,-447.88 10.86,-469.88 158.86,-469.88 158.86,-447.88 10.86,-447.88"/>
<image xlink:href="../../images/foreignKeys.png" width="11px" height="12px" preserveAspectRatio="xMinYMin meet" x="15.8575" y="-464.884"/>
<text text-anchor="start" x="30.86" y="-454.43" font-family="Helvetica,sans-Serif" font-size="11.00">write_uid</text>
<polygon fill="none" stroke="black" points="10.86,-425.88 10.86,-447.88 158.86,-447.88 158.86,-425.88 10.86,-425.88"/>
<image xlink:href="../../images/foreignKeys.png" width="11px" height="12px" preserveAspectRatio="xMinYMin meet" x="15.8575" y="-442.884"/>
<text text-anchor="start" x="30.86" y="-432.43" font-family="Helvetica,sans-Serif" font-size="11.00">sale_team_id</text>
<polygon fill="none" stroke="black" points="10.86,-406.88 10.86,-425.88 158.86,-425.88 158.86,-406.88 10.86,-406.88"/>
<text text-anchor="start" x="13.86" y="-412.43" font-family="Helvetica,sans-Serif" font-size="11.00">...</text>
<polygon fill="#ffffff" stroke="none" points="10.86,-387.88 10.86,-406.88 75.86,-406.88 75.86,-387.88 10.86,-387.88"/>
<polygon fill="none" stroke="black" points="10.86,-387.88 10.86,-406.88 75.86,-406.88 75.86,-387.88 10.86,-387.88"/>
<text text-anchor="start" x="13.86" y="-393.43" font-family="Helvetica,sans-Serif" font-size="11.00">&lt; 4</text>
<polygon fill="#ffffff" stroke="none" points="75.86,-387.88 75.86,-406.88 109.86,-406.88 109.86,-387.88 75.86,-387.88"/>
<polygon fill="none" stroke="black" points="75.86,-387.88 75.86,-406.88 109.86,-406.88 109.86,-387.88 75.86,-387.88"/>
<text text-anchor="start" x="100.86" y="-393.43" font-family="Helvetica,sans-Serif" font-size="11.00"> &#160;</text>
<polygon fill="#ffffff" stroke="none" points="109.86,-387.88 109.86,-406.88 158.86,-406.88 158.86,-387.88 109.86,-387.88"/>
<polygon fill="none" stroke="black" points="109.86,-387.88 109.86,-406.88 158.86,-406.88 158.86,-387.88 109.86,-387.88"/>
<text text-anchor="start" x="134.11" y="-393.43" font-family="Helvetica,sans-Serif" font-size="11.00">65 &gt;</text>
</a>
</g>
</g>
<!-- project_campaign&#45;&gt;res_users -->
<g id="edge2" class="edge">
<title>project_campaign:w&#45;&gt;res_users:e</title>
<path fill="none" stroke="black" d="M430.04,-228.94C323.11,-229.73 270.96,-240.37 199.86,-327.38 168.49,-365.78 209.44,-546.88 159.86,-546.88"/>
<polygon fill="black" stroke="black" points="437.52,-228.91 445.54,-232.49 441.86,-228.9 445.19,-228.89 445.19,-228.89 445.19,-228.89 441.86,-228.9 445.51,-225.29 437.52,-228.91"/>
<ellipse fill="none" stroke="black" cx="432.6" cy="-228.93" rx="3.2" ry="3.2"/>
</g>
<!-- project_campaign&#45;&gt;res_users -->
<g id="edge4" class="edge">
<title>project_campaign:w&#45;&gt;res_users:e</title>
<path fill="none" stroke="black" d="M430.55,-275.77C422.88,-279.12 417.61,-284.79 405.86,-289.38 314.96,-324.89 264,-291.83 199.86,-365.38 145.57,-427.64 242.46,-546.88 159.86,-546.88"/>
<polygon fill="black" stroke="black" points="437.67,-274.43 446.19,-276.48 441.93,-273.62 445.2,-273.01 445.2,-273.01 445.2,-273.01 441.93,-273.62 444.86,-269.41 437.67,-274.43"/>
<ellipse fill="none" stroke="black" cx="432.83" cy="-275.34" rx="3.2" ry="3.2"/>
</g>
<!-- project_campaign&#45;&gt;res_users -->
<g id="edge5" class="edge">
<title>project_campaign:w&#45;&gt;res_users:e</title>
<path fill="none" stroke="black" d="M430.14,-206.52C330.42,-201.94 274.95,-156.81 199.86,-229.38 148.72,-278.8 230.97,-546.88 159.86,-546.88"/>
<polygon fill="black" stroke="black" points="437.53,-206.69 445.44,-210.48 441.86,-206.79 445.19,-206.87 445.19,-206.87 445.19,-206.87 441.86,-206.79 445.61,-203.28 437.53,-206.69"/>
<ellipse fill="none" stroke="black" cx="432.61" cy="-206.58" rx="3.2" ry="3.2"/>
</g>
<!-- res_partner&#45;&gt;res_users -->
<g id="edge18" class="edge">
<title>res_partner:w&#45;&gt;res_users:e</title>
<path fill="none" stroke="black" d="M192.37,-578.42C181.34,-568.13 180,-546.88 159.86,-546.88"/>
<polygon fill="black" stroke="black" points="199.06,-580.94 205.27,-587.13 203.11,-582.47 206.23,-583.65 206.23,-583.65 206.23,-583.65 203.11,-582.47 207.81,-580.4 199.06,-580.94"/>
<ellipse fill="none" stroke="black" cx="194.46" cy="-579.21" rx="3.2" ry="3.2"/>
</g>
<!-- res_partner&#45;&gt;res_users -->
<g id="edge19" class="edge">
<title>res_partner:w&#45;&gt;res_users:e</title>
<path fill="none" stroke="black" d="M192.21,-622.32C174.85,-604.02 194.81,-546.88 159.86,-546.88"/>
<polygon fill="black" stroke="black" points="199.07,-624.92 205.27,-631.13 203.12,-626.46 206.23,-627.65 206.23,-627.65 206.23,-627.65 203.12,-626.46 207.82,-624.4 199.07,-624.92"/>
<ellipse fill="none" stroke="black" cx="194.47" cy="-623.17" rx="3.2" ry="3.2"/>
</g>
<!-- res_partner&#45;&gt;res_users -->
<g id="edge20" class="edge">
<title>res_partner:w&#45;&gt;res_users:e</title>
<path fill="none" stroke="black" d="M191.28,-779.71C118.28,-756.02 260.34,-546.88 159.86,-546.88"/>
<polygon fill="black" stroke="black" points="198.6,-780.73 206.03,-785.4 202.9,-781.33 206.2,-781.79 206.2,-781.79 206.2,-781.79 202.9,-781.33 207.02,-778.27 198.6,-780.73"/>
<ellipse fill="none" stroke="black" cx="193.73" cy="-780.05" rx="3.2" ry="3.2"/>
</g>
<!-- res_partner&#45;&gt;res_users -->
<g id="edge21" class="edge">
<title>res_partner:w&#45;&gt;res_users:e</title>
<path fill="none" stroke="black" d="M191.34,-846.26C90.03,-822.57 289.44,-546.88 159.86,-546.88"/>
<polygon fill="black" stroke="black" points="198.57,-847.02 206.15,-851.43 202.88,-847.47 206.19,-847.81 206.19,-847.81 206.19,-847.81 202.88,-847.47 206.9,-844.27 198.57,-847.02"/>
<ellipse fill="none" stroke="black" cx="193.68" cy="-846.51" rx="3.2" ry="3.2"/>
</g>
<!-- res_partner&#45;&gt;res_users -->
<g id="edge22" class="edge">
<title>res_partner:w&#45;&gt;res_users:e</title>
<path fill="none" stroke="black" d="M191.42,-757.49C127.32,-734.09 250.74,-546.88 159.86,-546.88"/>
<polygon fill="black" stroke="black" points="198.62,-758.61 205.98,-763.39 202.9,-759.27 206.2,-759.78 206.2,-759.78 206.2,-759.78 202.9,-759.27 207.08,-756.28 198.62,-758.61"/>
<ellipse fill="none" stroke="black" cx="193.76" cy="-757.85" rx="3.2" ry="3.2"/>
</g>
<!-- res_users&#45;&gt;res_partner -->
<g id="edge23" class="edge">
<title>res_users:w&#45;&gt;res_partner:e</title>
<path fill="none" stroke="black" d="M0.7,-537.49C-4.9,-607.7 158.69,-948.12 199.86,-973.88 218.51,-985.56 382.1,-989.23 397.86,-973.88 409.96,-962.1 415.75,-935.88 398.86,-935.88"/>
<polygon fill="black" stroke="black" points="4.96,-531.63 12.57,-527.27 7.51,-528.12 9.46,-525.43 9.46,-525.43 9.46,-525.43 7.51,-528.12 6.75,-523.04 4.96,-531.63"/>
<ellipse fill="none" stroke="black" cx="2.07" cy="-535.61" rx="3.2" ry="3.2"/>
</g>
<!-- project_project -->
<g id="node4" class="node">
<title>project_project</title>
<g id="a_node4"><a xlink:href="../../tables/project_project.html" xlink:title="project_project" target="_top">
<polygon fill="#ffffff" stroke="none" points="1349.86,-391.38 1349.86,-1383.38 1638.86,-1383.38 1638.86,-391.38 1349.86,-391.38"/>
<polygon fill="#f5f5f5" stroke="none" points="1351.86,-1358.38 1351.86,-1381.38 1636.86,-1381.38 1636.86,-1358.38 1351.86,-1358.38"/>
<polygon fill="none" stroke="black" points="1351.86,-1358.38 1351.86,-1381.38 1636.86,-1381.38 1636.86,-1358.38 1351.86,-1358.38"/>
<text text-anchor="start" x="1356.86" y="-1366.18" font-family="Helvetica,sans-Serif" font-weight="bold" font-size="11.00">project_project</text>
<text text-anchor="start" x="1602.61" y="-1365.93" font-family="Helvetica,sans-Serif" font-size="11.00">[table]</text>
<polygon fill="none" stroke="black" points="1351.86,-1336.38 1351.86,-1358.38 1528.86,-1358.38 1528.86,-1336.38 1351.86,-1336.38"/>
<image xlink:href="../../images/primaryKeys.png" width="11px" height="12px" preserveAspectRatio="xMinYMin meet" x="1356.86" y="-1353.38"/>
<text text-anchor="start" x="1371.86" y="-1342.93" font-family="Helvetica,sans-Serif" font-size="11.00">id</text>
<polygon fill="none" stroke="black" points="1528.86,-1336.38 1528.86,-1358.38 1636.86,-1358.38 1636.86,-1336.38 1528.86,-1336.38"/>
<text text-anchor="start" x="1531.86" y="-1343.68" font-family="Helvetica,sans-Serif" font-size="11.00">serial[10]</text>
<polygon fill="none" stroke="black" points="1351.86,-1314.38 1351.86,-1336.38 1528.86,-1336.38 1528.86,-1314.38 1351.86,-1314.38"/>
<text text-anchor="start" x="1371.86" y="-1320.93" font-family="Helvetica,sans-Serif" font-size="11.00">alias_id</text>
<polygon fill="none" stroke="black" points="1528.86,-1314.38 1528.86,-1336.38 1636.86,-1336.38 1636.86,-1314.38 1528.86,-1314.38"/>
<text text-anchor="start" x="1531.86" y="-1321.68" font-family="Helvetica,sans-Serif" font-size="11.00">int4[10]</text>
<polygon fill="none" stroke="black" points="1351.86,-1292.38 1351.86,-1314.38 1528.86,-1314.38 1528.86,-1292.38 1351.86,-1292.38"/>
<text text-anchor="start" x="1371.86" y="-1298.93" font-family="Helvetica,sans-Serif" font-size="11.00">sequence</text>
<polygon fill="none" stroke="black" points="1528.86,-1292.38 1528.86,-1314.38 1636.86,-1314.38 1636.86,-1292.38 1528.86,-1292.38"/>
<text text-anchor="start" x="1531.86" y="-1299.68" font-family="Helvetica,sans-Serif" font-size="11.00">int4[10]</text>
<polygon fill="none" stroke="black" points="1351.86,-1270.38 1351.86,-1292.38 1528.86,-1292.38 1528.86,-1270.38 1351.86,-1270.38"/>
<image xlink:href="../../images/foreignKeys.png" width="11px" height="12px" preserveAspectRatio="xMinYMin meet" x="1356.86" y="-1287.38"/>
<text text-anchor="start" x="1371.86" y="-1276.93" font-family="Helvetica,sans-Serif" font-size="11.00">partner_id</text>
<polygon fill="none" stroke="black" points="1528.86,-1270.38 1528.86,-1292.38 1636.86,-1292.38 1636.86,-1270.38 1528.86,-1270.38"/>
<text text-anchor="start" x="1531.86" y="-1277.68" font-family="Helvetica,sans-Serif" font-size="11.00">int4[10]</text>
<polygon fill="none" stroke="black" points="1351.86,-1248.38 1351.86,-1270.38 1528.86,-1270.38 1528.86,-1248.38 1351.86,-1248.38"/>
<text text-anchor="start" x="1371.86" y="-1254.93" font-family="Helvetica,sans-Serif" font-size="11.00">company_id</text>
<polygon fill="none" stroke="black" points="1528.86,-1248.38 1528.86,-1270.38 1636.86,-1270.38 1636.86,-1248.38 1528.86,-1248.38"/>
<text text-anchor="start" x="1531.86" y="-1255.68" font-family="Helvetica,sans-Serif" font-size="11.00">int4[10]</text>
<polygon fill="none" stroke="black" points="1351.86,-1226.38 1351.86,-1248.38 1528.86,-1248.38 1528.86,-1226.38 1351.86,-1226.38"/>
<text text-anchor="start" x="1371.86" y="-1232.93" font-family="Helvetica,sans-Serif" font-size="11.00">analytic_account_id</text>
<polygon fill="none" stroke="black" points="1528.86,-1226.38 1528.86,-1248.38 1636.86,-1248.38 1636.86,-1226.38 1528.86,-1226.38"/>
<text text-anchor="start" x="1531.86" y="-1233.68" font-family="Helvetica,sans-Serif" font-size="11.00">int4[10]</text>
<polygon fill="none" stroke="black" points="1351.86,-1204.38 1351.86,-1226.38 1528.86,-1226.38 1528.86,-1204.38 1351.86,-1204.38"/>
<text text-anchor="start" x="1371.86" y="-1210.93" font-family="Helvetica,sans-Serif" font-size="11.00">color</text>
<polygon fill="none" stroke="black" points="1528.86,-1204.38 1528.86,-1226.38 1636.86,-1226.38 1636.86,-1204.38 1528.86,-1204.38"/>
<text text-anchor="start" x="1531.86" y="-1211.68" font-family="Helvetica,sans-Serif" font-size="11.00">int4[10]</text>
<polygon fill="none" stroke="black" points="1351.86,-1182.38 1351.86,-1204.38 1528.86,-1204.38 1528.86,-1182.38 1351.86,-1182.38"/>
<image xlink:href="../../images/foreignKeys.png" width="11px" height="12px" preserveAspectRatio="xMinYMin meet" x="1356.86" y="-1199.38"/>
<text text-anchor="start" x="1371.86" y="-1188.93" font-family="Helvetica,sans-Serif" font-size="11.00">user_id</text>
<polygon fill="none" stroke="black" points="1528.86,-1182.38 1528.86,-1204.38 1636.86,-1204.38 1636.86,-1182.38 1528.86,-1182.38"/>
<text text-anchor="start" x="1531.86" y="-1189.68" font-family="Helvetica,sans-Serif" font-size="11.00">int4[10]</text>
<polygon fill="#ffffff" stroke="none" points="1351.86,-1160.38 1351.86,-1182.38 1528.86,-1182.38 1528.86,-1160.38 1351.86,-1160.38"/>
<polygon fill="none" stroke="black" points="1351.86,-1160.38 1351.86,-1182.38 1528.86,-1182.38 1528.86,-1160.38 1351.86,-1160.38"/>
<text text-anchor="start" x="1371.86" y="-1166.93" font-family="Helvetica,sans-Serif" font-size="11.00">stage_id</text>
<polygon fill="none" stroke="black" points="1528.86,-1160.38 1528.86,-1182.38 1636.86,-1182.38 1636.86,-1160.38 1528.86,-1160.38"/>
<text text-anchor="start" x="1531.86" y="-1167.68" font-family="Helvetica,sans-Serif" font-size="11.00">int4[10]</text>
<polygon fill="none" stroke="black" points="1351.86,-1138.38 1351.86,-1160.38 1528.86,-1160.38 1528.86,-1138.38 1351.86,-1138.38"/>
<text text-anchor="start" x="1371.86" y="-1144.93" font-family="Helvetica,sans-Serif" font-size="11.00">last_update_id</text>
<polygon fill="none" stroke="black" points="1528.86,-1138.38 1528.86,-1160.38 1636.86,-1160.38 1636.86,-1138.38 1528.86,-1138.38"/>
<text text-anchor="start" x="1531.86" y="-1145.68" font-family="Helvetica,sans-Serif" font-size="11.00">int4[10]</text>
<polygon fill="none" stroke="black" points="1351.86,-1116.38 1351.86,-1138.38 1528.86,-1138.38 1528.86,-1116.38 1351.86,-1116.38"/>
<image xlink:href="../../images/foreignKeys.png" width="11px" height="12px" preserveAspectRatio="xMinYMin meet" x="1356.86" y="-1133.38"/>
<text text-anchor="start" x="1371.86" y="-1122.93" font-family="Helvetica,sans-Serif" font-size="11.00">create_uid</text>
<polygon fill="none" stroke="black" points="1528.86,-1116.38 1528.86,-1138.38 1636.86,-1138.38 1636.86,-1116.38 1528.86,-1116.38"/>
<text text-anchor="start" x="1531.86" y="-1123.68" font-family="Helvetica,sans-Serif" font-size="11.00">int4[10]</text>
<polygon fill="none" stroke="black" points="1351.86,-1094.38 1351.86,-1116.38 1528.86,-1116.38 1528.86,-1094.38 1351.86,-1094.38"/>
<image xlink:href="../../images/foreignKeys.png" width="11px" height="12px" preserveAspectRatio="xMinYMin meet" x="1356.86" y="-1111.38"/>
<text text-anchor="start" x="1371.86" y="-1100.93" font-family="Helvetica,sans-Serif" font-size="11.00">write_uid</text>
<polygon fill="none" stroke="black" points="1528.86,-1094.38 1528.86,-1116.38 1636.86,-1116.38 1636.86,-1094.38 1528.86,-1094.38"/>
<text text-anchor="start" x="1531.86" y="-1101.68" font-family="Helvetica,sans-Serif" font-size="11.00">int4[10]</text>
<polygon fill="none" stroke="black" points="1351.86,-1072.38 1351.86,-1094.38 1528.86,-1094.38 1528.86,-1072.38 1351.86,-1072.38"/>
<text text-anchor="start" x="1371.86" y="-1078.93" font-family="Helvetica,sans-Serif" font-size="11.00">access_token</text>
<polygon fill="none" stroke="black" points="1528.86,-1072.38 1528.86,-1094.38 1636.86,-1094.38 1636.86,-1072.38 1528.86,-1072.38"/>
<text text-anchor="start" x="1531.86" y="-1079.68" font-family="Helvetica,sans-Serif" font-size="11.00">varchar[2147483647]</text>
<polygon fill="none" stroke="black" points="1351.86,-1050.38 1351.86,-1072.38 1528.86,-1072.38 1528.86,-1050.38 1351.86,-1050.38"/>
<text text-anchor="start" x="1371.86" y="-1056.93" font-family="Helvetica,sans-Serif" font-size="11.00">privacy_visibility</text>
<polygon fill="none" stroke="black" points="1528.86,-1050.38 1528.86,-1072.38 1636.86,-1072.38 1636.86,-1050.38 1528.86,-1050.38"/>
<text text-anchor="start" x="1531.86" y="-1057.68" font-family="Helvetica,sans-Serif" font-size="11.00">varchar[2147483647]</text>
<polygon fill="none" stroke="black" points="1351.86,-1028.38 1351.86,-1050.38 1528.86,-1050.38 1528.86,-1028.38 1351.86,-1028.38"/>
<text text-anchor="start" x="1371.86" y="-1034.93" font-family="Helvetica,sans-Serif" font-size="11.00">rating_status</text>
<polygon fill="none" stroke="black" points="1528.86,-1028.38 1528.86,-1050.38 1636.86,-1050.38 1636.86,-1028.38 1528.86,-1028.38"/>
<text text-anchor="start" x="1531.86" y="-1035.68" font-family="Helvetica,sans-Serif" font-size="11.00">varchar[2147483647]</text>
<polygon fill="none" stroke="black" points="1351.86,-1006.38 1351.86,-1028.38 1528.86,-1028.38 1528.86,-1006.38 1351.86,-1006.38"/>
<text text-anchor="start" x="1371.86" y="-1012.93" font-family="Helvetica,sans-Serif" font-size="11.00">rating_status_period</text>
<polygon fill="none" stroke="black" points="1528.86,-1006.38 1528.86,-1028.38 1636.86,-1028.38 1636.86,-1006.38 1528.86,-1006.38"/>
<text text-anchor="start" x="1531.86" y="-1013.68" font-family="Helvetica,sans-Serif" font-size="11.00">varchar[2147483647]</text>
<polygon fill="none" stroke="black" points="1351.86,-984.38 1351.86,-1006.38 1528.86,-1006.38 1528.86,-984.38 1351.86,-984.38"/>
<text text-anchor="start" x="1371.86" y="-990.93" font-family="Helvetica,sans-Serif" font-size="11.00">last_update_status</text>
<polygon fill="none" stroke="black" points="1528.86,-984.38 1528.86,-1006.38 1636.86,-1006.38 1636.86,-984.38 1528.86,-984.38"/>
<text text-anchor="start" x="1531.86" y="-991.68" font-family="Helvetica,sans-Serif" font-size="11.00">varchar[2147483647]</text>
<polygon fill="none" stroke="black" points="1351.86,-962.38 1351.86,-984.38 1528.86,-984.38 1528.86,-962.38 1351.86,-962.38"/>
<text text-anchor="start" x="1371.86" y="-968.93" font-family="Helvetica,sans-Serif" font-size="11.00">date_start</text>
<polygon fill="none" stroke="black" points="1528.86,-962.38 1528.86,-984.38 1636.86,-984.38 1636.86,-962.38 1528.86,-962.38"/>
<text text-anchor="start" x="1531.86" y="-969.68" font-family="Helvetica,sans-Serif" font-size="11.00">date[13]</text>
<polygon fill="#ffffff" stroke="none" points="1351.86,-940.38 1351.86,-962.38 1528.86,-962.38 1528.86,-940.38 1351.86,-940.38"/>
<polygon fill="none" stroke="black" points="1351.86,-940.38 1351.86,-962.38 1528.86,-962.38 1528.86,-940.38 1351.86,-940.38"/>
<text text-anchor="start" x="1371.86" y="-946.93" font-family="Helvetica,sans-Serif" font-size="11.00">date</text>
<polygon fill="none" stroke="black" points="1528.86,-940.38 1528.86,-962.38 1636.86,-962.38 1636.86,-940.38 1528.86,-940.38"/>
<text text-anchor="start" x="1531.86" y="-947.68" font-family="Helvetica,sans-Serif" font-size="11.00">date[13]</text>
<polygon fill="none" stroke="black" points="1351.86,-918.38 1351.86,-940.38 1528.86,-940.38 1528.86,-918.38 1351.86,-918.38"/>
<text text-anchor="start" x="1371.86" y="-924.93" font-family="Helvetica,sans-Serif" font-size="11.00">name</text>
<polygon fill="none" stroke="black" points="1528.86,-918.38 1528.86,-940.38 1636.86,-940.38 1636.86,-918.38 1528.86,-918.38"/>
<text text-anchor="start" x="1531.86" y="-925.68" font-family="Helvetica,sans-Serif" font-size="11.00">jsonb[2147483647]</text>
<polygon fill="none" stroke="black" points="1351.86,-896.38 1351.86,-918.38 1528.86,-918.38 1528.86,-896.38 1351.86,-896.38"/>
<text text-anchor="start" x="1371.86" y="-902.93" font-family="Helvetica,sans-Serif" font-size="11.00">label_tasks</text>
<polygon fill="none" stroke="black" points="1528.86,-896.38 1528.86,-918.38 1636.86,-918.38 1636.86,-896.38 1528.86,-896.38"/>
<text text-anchor="start" x="1531.86" y="-903.68" font-family="Helvetica,sans-Serif" font-size="11.00">jsonb[2147483647]</text>
<polygon fill="none" stroke="black" points="1351.86,-874.38 1351.86,-896.38 1528.86,-896.38 1528.86,-874.38 1351.86,-874.38"/>
<text text-anchor="start" x="1371.86" y="-880.93" font-family="Helvetica,sans-Serif" font-size="11.00">task_properties_definition</text>
<polygon fill="none" stroke="black" points="1528.86,-874.38 1528.86,-896.38 1636.86,-896.38 1636.86,-874.38 1528.86,-874.38"/>
<text text-anchor="start" x="1531.86" y="-881.68" font-family="Helvetica,sans-Serif" font-size="11.00">jsonb[2147483647]</text>
<polygon fill="none" stroke="black" points="1351.86,-852.38 1351.86,-874.38 1528.86,-874.38 1528.86,-852.38 1351.86,-852.38"/>
<text text-anchor="start" x="1371.86" y="-858.93" font-family="Helvetica,sans-Serif" font-size="11.00">description</text>
<polygon fill="none" stroke="black" points="1528.86,-852.38 1528.86,-874.38 1636.86,-874.38 1636.86,-852.38 1528.86,-852.38"/>
<text text-anchor="start" x="1531.86" y="-859.68" font-family="Helvetica,sans-Serif" font-size="11.00">text[2147483647]</text>
<polygon fill="none" stroke="black" points="1351.86,-830.38 1351.86,-852.38 1528.86,-852.38 1528.86,-830.38 1351.86,-830.38"/>
<text text-anchor="start" x="1371.86" y="-836.93" font-family="Helvetica,sans-Serif" font-size="11.00">active</text>
<polygon fill="none" stroke="black" points="1528.86,-830.38 1528.86,-852.38 1636.86,-852.38 1636.86,-830.38 1528.86,-830.38"/>
<text text-anchor="start" x="1531.86" y="-837.68" font-family="Helvetica,sans-Serif" font-size="11.00">bool[1]</text>
<polygon fill="none" stroke="black" points="1351.86,-808.38 1351.86,-830.38 1528.86,-830.38 1528.86,-808.38 1351.86,-808.38"/>
<text text-anchor="start" x="1371.86" y="-814.93" font-family="Helvetica,sans-Serif" font-size="11.00">allow_task_dependencies</text>
<polygon fill="none" stroke="black" points="1528.86,-808.38 1528.86,-830.38 1636.86,-830.38 1636.86,-808.38 1528.86,-808.38"/>
<text text-anchor="start" x="1531.86" y="-815.68" font-family="Helvetica,sans-Serif" font-size="11.00">bool[1]</text>
<polygon fill="none" stroke="black" points="1351.86,-786.38 1351.86,-808.38 1528.86,-808.38 1528.86,-786.38 1351.86,-786.38"/>
<text text-anchor="start" x="1371.86" y="-792.93" font-family="Helvetica,sans-Serif" font-size="11.00">allow_milestones</text>
<polygon fill="none" stroke="black" points="1528.86,-786.38 1528.86,-808.38 1636.86,-808.38 1636.86,-786.38 1528.86,-786.38"/>
<text text-anchor="start" x="1531.86" y="-793.68" font-family="Helvetica,sans-Serif" font-size="11.00">bool[1]</text>
<polygon fill="none" stroke="black" points="1351.86,-764.38 1351.86,-786.38 1528.86,-786.38 1528.86,-764.38 1351.86,-764.38"/>
<text text-anchor="start" x="1371.86" y="-770.93" font-family="Helvetica,sans-Serif" font-size="11.00">rating_active</text>
<polygon fill="none" stroke="black" points="1528.86,-764.38 1528.86,-786.38 1636.86,-786.38 1636.86,-764.38 1528.86,-764.38"/>
<text text-anchor="start" x="1531.86" y="-771.68" font-family="Helvetica,sans-Serif" font-size="11.00">bool[1]</text>
<polygon fill="none" stroke="black" points="1351.86,-742.38 1351.86,-764.38 1528.86,-764.38 1528.86,-742.38 1351.86,-742.38"/>
<text text-anchor="start" x="1371.86" y="-748.93" font-family="Helvetica,sans-Serif" font-size="11.00">rating_request_deadline</text>
<polygon fill="none" stroke="black" points="1528.86,-742.38 1528.86,-764.38 1636.86,-764.38 1636.86,-742.38 1528.86,-742.38"/>
<text text-anchor="start" x="1531.86" y="-749.68" font-family="Helvetica,sans-Serif" font-size="11.00">timestamp[29,6]</text>
<polygon fill="none" stroke="black" points="1351.86,-720.38 1351.86,-742.38 1528.86,-742.38 1528.86,-720.38 1351.86,-720.38"/>
<text text-anchor="start" x="1371.86" y="-726.93" font-family="Helvetica,sans-Serif" font-size="11.00">create_date</text>
<polygon fill="none" stroke="black" points="1528.86,-720.38 1528.86,-742.38 1636.86,-742.38 1636.86,-720.38 1528.86,-720.38"/>
<text text-anchor="start" x="1531.86" y="-727.68" font-family="Helvetica,sans-Serif" font-size="11.00">timestamp[29,6]</text>
<polygon fill="none" stroke="black" points="1351.86,-698.38 1351.86,-720.38 1528.86,-720.38 1528.86,-698.38 1351.86,-698.38"/>
<text text-anchor="start" x="1371.86" y="-704.93" font-family="Helvetica,sans-Serif" font-size="11.00">write_date</text>
<polygon fill="none" stroke="black" points="1528.86,-698.38 1528.86,-720.38 1636.86,-720.38 1636.86,-698.38 1528.86,-698.38"/>
<text text-anchor="start" x="1531.86" y="-705.68" font-family="Helvetica,sans-Serif" font-size="11.00">timestamp[29,6]</text>
<polygon fill="none" stroke="black" points="1351.86,-676.38 1351.86,-698.38 1528.86,-698.38 1528.86,-676.38 1351.86,-676.38"/>
<text text-anchor="start" x="1371.86" y="-682.93" font-family="Helvetica,sans-Serif" font-size="11.00">documents_folder_id</text>
<polygon fill="none" stroke="black" points="1528.86,-676.38 1528.86,-698.38 1636.86,-698.38 1636.86,-676.38 1528.86,-676.38"/>
<text text-anchor="start" x="1531.86" y="-683.68" font-family="Helvetica,sans-Serif" font-size="11.00">int4[10]</text>
<polygon fill="none" stroke="black" points="1351.86,-654.38 1351.86,-676.38 1528.86,-676.38 1528.86,-654.38 1351.86,-654.38"/>
<text text-anchor="start" x="1371.86" y="-660.93" font-family="Helvetica,sans-Serif" font-size="11.00">use_documents</text>
<polygon fill="none" stroke="black" points="1528.86,-654.38 1528.86,-676.38 1636.86,-676.38 1636.86,-654.38 1528.86,-654.38"/>
<text text-anchor="start" x="1531.86" y="-661.68" font-family="Helvetica,sans-Serif" font-size="11.00">bool[1]</text>
<polygon fill="none" stroke="black" points="1351.86,-632.38 1351.86,-654.38 1528.86,-654.38 1528.86,-632.38 1351.86,-632.38"/>
<text text-anchor="start" x="1371.86" y="-638.93" font-family="Helvetica,sans-Serif" font-size="11.00">allow_timesheets</text>
<polygon fill="none" stroke="black" points="1528.86,-632.38 1528.86,-654.38 1636.86,-654.38 1636.86,-632.38 1528.86,-632.38"/>
<text text-anchor="start" x="1531.86" y="-639.68" font-family="Helvetica,sans-Serif" font-size="11.00">bool[1]</text>
<polygon fill="none" stroke="black" points="1351.86,-610.38 1351.86,-632.38 1528.86,-632.38 1528.86,-610.38 1351.86,-610.38"/>
<text text-anchor="start" x="1371.86" y="-616.93" font-family="Helvetica,sans-Serif" font-size="11.00">allocated_hours</text>
<polygon fill="none" stroke="black" points="1528.86,-610.38 1528.86,-632.38 1636.86,-632.38 1636.86,-610.38 1528.86,-610.38"/>
<text text-anchor="start" x="1531.86" y="-617.68" font-family="Helvetica,sans-Serif" font-size="11.00">float8[17,17]</text>
<polygon fill="none" stroke="black" points="1351.86,-588.38 1351.86,-610.38 1528.86,-610.38 1528.86,-588.38 1351.86,-588.38"/>
<image xlink:href="../../images/foreignKeys.png" width="11px" height="12px" preserveAspectRatio="xMinYMin meet" x="1356.86" y="-605.384"/>
<text text-anchor="start" x="1371.86" y="-594.93" font-family="Helvetica,sans-Serif" font-size="11.00">campaign_id</text>
<polygon fill="none" stroke="black" points="1528.86,-588.38 1528.86,-610.38 1636.86,-610.38 1636.86,-588.38 1528.86,-588.38"/>
<text text-anchor="start" x="1531.86" y="-595.68" font-family="Helvetica,sans-Serif" font-size="11.00">int4[10]</text>
<polygon fill="none" stroke="black" points="1351.86,-566.38 1351.86,-588.38 1528.86,-588.38 1528.86,-566.38 1351.86,-566.38"/>
<text text-anchor="start" x="1371.86" y="-572.93" font-family="Helvetica,sans-Serif" font-size="11.00">integration_system_name</text>
<polygon fill="none" stroke="black" points="1528.86,-566.38 1528.86,-588.38 1636.86,-588.38 1636.86,-566.38 1528.86,-566.38"/>
<text text-anchor="start" x="1531.86" y="-573.68" font-family="Helvetica,sans-Serif" font-size="11.00">varchar[2147483647]</text>
<polygon fill="none" stroke="black" points="1351.86,-544.38 1351.86,-566.38 1528.86,-566.38 1528.86,-544.38 1351.86,-544.38"/>
<text text-anchor="start" x="1371.86" y="-550.93" font-family="Helvetica,sans-Serif" font-size="11.00">integration_external_key</text>
<polygon fill="none" stroke="black" points="1528.86,-544.38 1528.86,-566.38 1636.86,-566.38 1636.86,-544.38 1528.86,-544.38"/>
<text text-anchor="start" x="1531.86" y="-551.68" font-family="Helvetica,sans-Serif" font-size="11.00">varchar[2147483647]</text>
<polygon fill="none" stroke="black" points="1351.86,-522.38 1351.86,-544.38 1528.86,-544.38 1528.86,-522.38 1351.86,-522.38"/>
<text text-anchor="start" x="1371.86" y="-528.93" font-family="Helvetica,sans-Serif" font-size="11.00">is_from_create</text>
<polygon fill="none" stroke="black" points="1528.86,-522.38 1528.86,-544.38 1636.86,-544.38 1636.86,-522.38 1528.86,-522.38"/>
<text text-anchor="start" x="1531.86" y="-529.68" font-family="Helvetica,sans-Serif" font-size="11.00">bool[1]</text>
<polygon fill="#ffffff" stroke="none" points="1351.86,-500.38 1351.86,-522.38 1528.86,-522.38 1528.86,-500.38 1351.86,-500.38"/>
<polygon fill="none" stroke="black" points="1351.86,-500.38 1351.86,-522.38 1528.86,-522.38 1528.86,-500.38 1351.86,-500.38"/>
<image xlink:href="../../images/foreignKeys.png" width="11px" height="12px" preserveAspectRatio="xMinYMin meet" x="1356.86" y="-517.384"/>
<text text-anchor="start" x="1371.86" y="-506.93" font-family="Helvetica,sans-Serif" font-size="11.00">sale_line_id</text>
<polygon fill="none" stroke="black" points="1528.86,-500.38 1528.86,-522.38 1636.86,-522.38 1636.86,-500.38 1528.86,-500.38"/>
<text text-anchor="start" x="1531.86" y="-507.68" font-family="Helvetica,sans-Serif" font-size="11.00">int4[10]</text>
<polygon fill="none" stroke="black" points="1351.86,-478.38 1351.86,-500.38 1528.86,-500.38 1528.86,-478.38 1351.86,-478.38"/>
<text text-anchor="start" x="1371.86" y="-484.93" font-family="Helvetica,sans-Serif" font-size="11.00">allow_billable</text>
<polygon fill="none" stroke="black" points="1528.86,-478.38 1528.86,-500.38 1636.86,-500.38 1636.86,-478.38 1528.86,-478.38"/>
<text text-anchor="start" x="1531.86" y="-485.68" font-family="Helvetica,sans-Serif" font-size="11.00">bool[1]</text>
<polygon fill="none" stroke="black" points="1351.86,-456.38 1351.86,-478.38 1528.86,-478.38 1528.86,-456.38 1351.86,-456.38"/>
<text text-anchor="start" x="1371.86" y="-462.93" font-family="Helvetica,sans-Serif" font-size="11.00">timesheet_product_id</text>
<polygon fill="none" stroke="black" points="1528.86,-456.38 1528.86,-478.38 1636.86,-478.38 1636.86,-456.38 1528.86,-456.38"/>
<text text-anchor="start" x="1531.86" y="-463.68" font-family="Helvetica,sans-Serif" font-size="11.00">int4[10]</text>
<polygon fill="none" stroke="black" points="1351.86,-434.38 1351.86,-456.38 1528.86,-456.38 1528.86,-434.38 1351.86,-434.38"/>
<text text-anchor="start" x="1371.86" y="-440.93" font-family="Helvetica,sans-Serif" font-size="11.00">billing_type</text>
<polygon fill="none" stroke="black" points="1528.86,-434.38 1528.86,-456.38 1636.86,-456.38 1636.86,-434.38 1528.86,-434.38"/>
<text text-anchor="start" x="1531.86" y="-441.68" font-family="Helvetica,sans-Serif" font-size="11.00">varchar[2147483647]</text>
<polygon fill="none" stroke="black" points="1351.86,-412.38 1351.86,-434.38 1528.86,-434.38 1528.86,-412.38 1351.86,-412.38"/>
<text text-anchor="start" x="1371.86" y="-418.93" font-family="Helvetica,sans-Serif" font-size="11.00">is_template</text>
<polygon fill="none" stroke="black" points="1528.86,-412.38 1528.86,-434.38 1636.86,-434.38 1636.86,-412.38 1528.86,-412.38"/>
<text text-anchor="start" x="1531.86" y="-419.68" font-family="Helvetica,sans-Serif" font-size="11.00">bool[1]</text>
<polygon fill="#ffffff" stroke="none" points="1351.86,-393.38 1351.86,-412.38 1444.86,-412.38 1444.86,-393.38 1351.86,-393.38"/>
<polygon fill="none" stroke="black" points="1351.86,-393.38 1351.86,-412.38 1444.86,-412.38 1444.86,-393.38 1351.86,-393.38"/>
<text text-anchor="start" x="1354.86" y="-398.93" font-family="Helvetica,sans-Serif" font-size="11.00">&lt; 6</text>
<polygon fill="#ffffff" stroke="none" points="1444.86,-393.38 1444.86,-412.38 1528.86,-412.38 1528.86,-393.38 1444.86,-393.38"/>
<polygon fill="none" stroke="black" points="1444.86,-393.38 1444.86,-412.38 1528.86,-412.38 1528.86,-393.38 1444.86,-393.38"/>
<text text-anchor="start" x="1519.86" y="-398.93" font-family="Helvetica,sans-Serif" font-size="11.00"> &#160;</text>
<polygon fill="#ffffff" stroke="none" points="1528.86,-393.38 1528.86,-412.38 1636.86,-412.38 1636.86,-393.38 1528.86,-393.38"/>
<polygon fill="none" stroke="black" points="1528.86,-393.38 1528.86,-412.38 1636.86,-412.38 1636.86,-393.38 1528.86,-393.38"/>
<text text-anchor="start" x="1618.11" y="-398.93" font-family="Helvetica,sans-Serif" font-size="11.00">3 &gt;</text>
<polygon fill="none" stroke="black" stroke-width="2" points="1350.86,-392.38 1350.86,-1382.38 1637.86,-1382.38 1637.86,-392.38 1350.86,-392.38"/>
</a>
</g>
</g>
<!-- project_project&#45;&gt;project_campaign -->
<g id="edge6" class="edge">
<title>project_project:w&#45;&gt;project_campaign:e</title>
<path fill="none" stroke="black" d="M1335.39,-597.69C1279.56,-583.4 1350.38,-482.25 1308.86,-417.38 1233.71,-299.98 1192.76,-270.48 1060.86,-225.38 880.86,-163.85 792.04,-121.24 632.86,-225.38 595.72,-249.68 637.24,-316.88 592.86,-316.88"/>
<polygon fill="black" stroke="black" points="1342.57,-598.47 1350.13,-602.93 1346.88,-598.95 1350.19,-599.31 1350.19,-599.31 1350.19,-599.31 1346.88,-598.95 1350.92,-595.77 1342.57,-598.47"/>
<ellipse fill="none" stroke="black" cx="1337.68" cy="-597.94" rx="3.2" ry="3.2"/>
</g>
<!-- project_project&#45;&gt;res_partner -->
<g id="edge8" class="edge">
<title>project_project:w&#45;&gt;res_partner:e</title>
<path fill="none" stroke="black" d="M1338.7,-1271.48C1281.11,-1201.53 1086.73,-784.46 1060.86,-769.38 991.36,-728.88 942.45,-718.85 879.86,-769.38 825.73,-813.08 900,-877.49 846.86,-922.38 694.68,-1050.93 598.06,-935.88 398.86,-935.88"/>
<polygon fill="black" stroke="black" points="1344.4,-1276.12 1348.32,-1283.96 1347.76,-1278.86 1350.34,-1280.96 1350.34,-1280.96 1350.34,-1280.96 1347.76,-1278.86 1352.87,-1278.38 1344.4,-1276.12"/>
<ellipse fill="none" stroke="black" cx="1340.58" cy="-1273.01" rx="3.2" ry="3.2"/>
</g>
<!-- project_project&#45;&gt;res_users -->
<g id="edge7" class="edge">
<title>project_project:w&#45;&gt;res_users:e</title>
<path fill="none" stroke="black" d="M1335.6,-1130.55C1306,-1146.54 1349.5,-1218.82 1308.86,-1249.38 1248.84,-1294.52 1046.45,-1266.38 971.36,-1266.38 971.36,-1266.38 971.36,-1266.38 518.36,-1266.38 447.48,-1266.38 250.07,-1299.41 199.86,-1249.38 144.48,-1194.2 238.04,-546.88 159.86,-546.88"/>
<polygon fill="black" stroke="black" points="1342.7,-1129.08 1351.26,-1130.98 1346.94,-1128.2 1350.2,-1127.52 1350.2,-1127.52 1350.2,-1127.52 1346.94,-1128.2 1349.8,-1123.93 1342.7,-1129.08"/>
<ellipse fill="none" stroke="black" cx="1337.88" cy="-1130.08" rx="3.2" ry="3.2"/>
</g>
<!-- project_project&#45;&gt;res_users -->
<g id="edge10" class="edge">
<title>project_project:w&#45;&gt;res_users:e</title>
<path fill="none" stroke="black" d="M1336.07,-1197.94C1320.09,-1211.83 1336.29,-1253.76 1308.86,-1271.38 1182.38,-1352.62 1121.68,-1293.38 971.36,-1293.38 971.36,-1293.38 971.36,-1293.38 518.36,-1293.38 376.49,-1293.38 299.63,-1373.23 199.86,-1272.38 143.08,-1214.99 240.59,-546.88 159.86,-546.88"/>
<polygon fill="black" stroke="black" points="1342.89,-1195.84 1351.6,-1196.92 1347.04,-1194.56 1350.22,-1193.58 1350.22,-1193.58 1350.22,-1193.58 1347.04,-1194.56 1349.48,-1190.04 1342.89,-1195.84"/>
<ellipse fill="none" stroke="black" cx="1338.19" cy="-1197.29" rx="3.2" ry="3.2"/>
</g>
<!-- project_project&#45;&gt;res_users -->
<g id="edge11" class="edge">
<title>project_project:w&#45;&gt;res_users:e</title>
<path fill="none" stroke="black" d="M1335.04,-1105.75C1170.52,-1113.37 1144.81,-1239.38 971.36,-1239.38 971.36,-1239.38 971.36,-1239.38 518.36,-1239.38 357.27,-1239.38 287.47,-1201.57 199.86,-1066.38 168.37,-1017.8 217.75,-546.88 159.86,-546.88"/>
<polygon fill="black" stroke="black" points="1342.53,-1105.57 1350.61,-1108.99 1346.86,-1105.48 1350.19,-1105.4 1350.19,-1105.4 1350.19,-1105.4 1346.86,-1105.48 1350.44,-1101.79 1342.53,-1105.57"/>
<ellipse fill="none" stroke="black" cx="1337.61" cy="-1105.69" rx="3.2" ry="3.2"/>
</g>
<!-- sale_order_line -->
<g id="node5" class="node">
<title>sale_order_line</title>
<g id="a_node5"><a xlink:href="../../tables/sale_order_line.html" xlink:title="sale_order_line" target="_top">
<polygon fill="#ffffff" stroke="none" points="1101.86,-427.88 1101.86,-730.88 1300.86,-730.88 1300.86,-427.88 1101.86,-427.88"/>
<polygon fill="#f5f5f5" stroke="none" points="1101.86,-707.88 1101.86,-730.88 1300.86,-730.88 1300.86,-707.88 1101.86,-707.88"/>
<polygon fill="none" stroke="black" points="1101.86,-707.88 1101.86,-730.88 1300.86,-730.88 1300.86,-707.88 1101.86,-707.88"/>
<text text-anchor="start" x="1106.86" y="-715.68" font-family="Helvetica,sans-Serif" font-weight="bold" font-size="11.00">sale_order_line</text>
<text text-anchor="start" x="1266.61" y="-715.43" font-family="Helvetica,sans-Serif" font-size="11.00">[table]</text>
<polygon fill="none" stroke="black" points="1101.86,-685.88 1101.86,-707.88 1300.86,-707.88 1300.86,-685.88 1101.86,-685.88"/>
<image xlink:href="../../images/primaryKeys.png" width="11px" height="12px" preserveAspectRatio="xMinYMin meet" x="1106.86" y="-702.884"/>
<text text-anchor="start" x="1121.86" y="-692.43" font-family="Helvetica,sans-Serif" font-size="11.00">id</text>
<polygon fill="#ffffff" stroke="none" points="1101.86,-663.88 1101.86,-685.88 1300.86,-685.88 1300.86,-663.88 1101.86,-663.88"/>
<polygon fill="none" stroke="black" points="1101.86,-663.88 1101.86,-685.88 1300.86,-685.88 1300.86,-663.88 1101.86,-663.88"/>
<image xlink:href="../../images/foreignKeys.png" width="11px" height="12px" preserveAspectRatio="xMinYMin meet" x="1106.86" y="-680.884"/>
<text text-anchor="start" x="1121.86" y="-670.43" font-family="Helvetica,sans-Serif" font-size="11.00">order_id</text>
<polygon fill="#ffffff" stroke="none" points="1101.86,-641.88 1101.86,-663.88 1300.86,-663.88 1300.86,-641.88 1101.86,-641.88"/>
<polygon fill="none" stroke="black" points="1101.86,-641.88 1101.86,-663.88 1300.86,-663.88 1300.86,-641.88 1101.86,-641.88"/>
<text text-anchor="start" x="1121.86" y="-648.43" font-family="Helvetica,sans-Serif" font-size="11.00">company_id</text>
<polygon fill="#ffffff" stroke="none" points="1101.86,-619.88 1101.86,-641.88 1300.86,-641.88 1300.86,-619.88 1101.86,-619.88"/>
<polygon fill="none" stroke="black" points="1101.86,-619.88 1101.86,-641.88 1300.86,-641.88 1300.86,-619.88 1101.86,-619.88"/>
<image xlink:href="../../images/foreignKeys.png" width="11px" height="12px" preserveAspectRatio="xMinYMin meet" x="1106.86" y="-636.884"/>
<text text-anchor="start" x="1121.86" y="-626.43" font-family="Helvetica,sans-Serif" font-size="11.00">order_partner_id</text>
<polygon fill="none" stroke="black" points="1101.86,-597.88 1101.86,-619.88 1300.86,-619.88 1300.86,-597.88 1101.86,-597.88"/>
<image xlink:href="../../images/foreignKeys.png" width="11px" height="12px" preserveAspectRatio="xMinYMin meet" x="1106.86" y="-614.884"/>
<text text-anchor="start" x="1121.86" y="-604.43" font-family="Helvetica,sans-Serif" font-size="11.00">salesman_id</text>
<polygon fill="#ffffff" stroke="none" points="1101.86,-575.88 1101.86,-597.88 1300.86,-597.88 1300.86,-575.88 1101.86,-575.88"/>
<polygon fill="none" stroke="black" points="1101.86,-575.88 1101.86,-597.88 1300.86,-597.88 1300.86,-575.88 1101.86,-575.88"/>
<text text-anchor="start" x="1121.86" y="-582.43" font-family="Helvetica,sans-Serif" font-size="11.00">product_id</text>
<polygon fill="none" stroke="black" points="1101.86,-553.88 1101.86,-575.88 1300.86,-575.88 1300.86,-553.88 1101.86,-553.88"/>
<image xlink:href="../../images/foreignKeys.png" width="11px" height="12px" preserveAspectRatio="xMinYMin meet" x="1106.86" y="-570.884"/>
<text text-anchor="start" x="1121.86" y="-560.43" font-family="Helvetica,sans-Serif" font-size="11.00">create_uid</text>
<polygon fill="none" stroke="black" points="1101.86,-531.88 1101.86,-553.88 1300.86,-553.88 1300.86,-531.88 1101.86,-531.88"/>
<image xlink:href="../../images/foreignKeys.png" width="11px" height="12px" preserveAspectRatio="xMinYMin meet" x="1106.86" y="-548.884"/>
<text text-anchor="start" x="1121.86" y="-538.43" font-family="Helvetica,sans-Serif" font-size="11.00">write_uid</text>
<polygon fill="#ffffff" stroke="none" points="1101.86,-509.88 1101.86,-531.88 1300.86,-531.88 1300.86,-509.88 1101.86,-509.88"/>
<polygon fill="none" stroke="black" points="1101.86,-509.88 1101.86,-531.88 1300.86,-531.88 1300.86,-509.88 1101.86,-509.88"/>
<image xlink:href="../../images/foreignKeys.png" width="11px" height="12px" preserveAspectRatio="xMinYMin meet" x="1106.86" y="-526.884"/>
<text text-anchor="start" x="1121.86" y="-516.43" font-family="Helvetica,sans-Serif" font-size="11.00">parent_line_id</text>
<polygon fill="#ffffff" stroke="none" points="1101.86,-487.88 1101.86,-509.88 1300.86,-509.88 1300.86,-487.88 1101.86,-487.88"/>
<polygon fill="none" stroke="black" points="1101.86,-487.88 1101.86,-509.88 1300.86,-509.88 1300.86,-487.88 1101.86,-487.88"/>
<image xlink:href="../../images/foreignKeys.png" width="11px" height="12px" preserveAspectRatio="xMinYMin meet" x="1106.86" y="-504.884"/>
<text text-anchor="start" x="1121.86" y="-494.43" font-family="Helvetica,sans-Serif" font-size="11.00">project_id</text>
<polygon fill="#ffffff" stroke="none" points="1101.86,-465.88 1101.86,-487.88 1300.86,-487.88 1300.86,-465.88 1101.86,-465.88"/>
<polygon fill="none" stroke="black" points="1101.86,-465.88 1101.86,-487.88 1300.86,-487.88 1300.86,-465.88 1101.86,-465.88"/>
<image xlink:href="../../images/foreignKeys.png" width="11px" height="12px" preserveAspectRatio="xMinYMin meet" x="1106.86" y="-482.884"/>
<text text-anchor="start" x="1121.86" y="-472.43" font-family="Helvetica,sans-Serif" font-size="11.00">task_id</text>
<polygon fill="none" stroke="black" points="1101.86,-446.88 1101.86,-465.88 1300.86,-465.88 1300.86,-446.88 1101.86,-446.88"/>
<text text-anchor="start" x="1104.86" y="-452.43" font-family="Helvetica,sans-Serif" font-size="11.00">...</text>
<polygon fill="#ffffff" stroke="none" points="1101.86,-427.88 1101.86,-446.88 1194.86,-446.88 1194.86,-427.88 1101.86,-427.88"/>
<polygon fill="none" stroke="black" points="1101.86,-427.88 1101.86,-446.88 1194.86,-446.88 1194.86,-427.88 1101.86,-427.88"/>
<text text-anchor="start" x="1104.86" y="-433.43" font-family="Helvetica,sans-Serif" font-size="11.00">&lt; 8</text>
<polygon fill="#ffffff" stroke="none" points="1194.86,-427.88 1194.86,-446.88 1242.86,-446.88 1242.86,-427.88 1194.86,-427.88"/>
<polygon fill="none" stroke="black" points="1194.86,-427.88 1194.86,-446.88 1242.86,-446.88 1242.86,-427.88 1194.86,-427.88"/>
<text text-anchor="start" x="1233.86" y="-433.43" font-family="Helvetica,sans-Serif" font-size="11.00"> &#160;</text>
<polygon fill="#ffffff" stroke="none" points="1242.86,-427.88 1242.86,-446.88 1300.86,-446.88 1300.86,-427.88 1242.86,-427.88"/>
<polygon fill="none" stroke="black" points="1242.86,-427.88 1242.86,-446.88 1300.86,-446.88 1300.86,-427.88 1242.86,-427.88"/>
<text text-anchor="start" x="1282.11" y="-433.43" font-family="Helvetica,sans-Serif" font-size="11.00">3 &gt;</text>
</a>
</g>
</g>
<!-- project_project&#45;&gt;sale_order_line -->
<g id="edge9" class="edge">
<title>project_project:w&#45;&gt;sale_order_line:e</title>
<path fill="none" stroke="black" d="M1335.45,-514.15C1282.07,-537.23 1380.97,-696.88 1301.86,-696.88"/>
<polygon fill="black" stroke="black" points="1342.65,-512.86 1351.16,-514.99 1346.92,-512.09 1350.2,-511.5 1350.2,-511.5 1350.2,-511.5 1346.92,-512.09 1349.89,-507.9 1342.65,-512.86"/>
<ellipse fill="none" stroke="black" cx="1337.81" cy="-513.73" rx="3.2" ry="3.2"/>
</g>
<!-- sale_order_line&#45;&gt;res_partner -->
<g id="edge37" class="edge">
<title>sale_order_line:w&#45;&gt;res_partner:e</title>
<path fill="none" stroke="black" d="M1085.12,-631.08C985.93,-633.61 943.48,-661.58 879.86,-745.38 836.48,-802.52 900.85,-856.15 846.86,-903.38 837.47,-911.6 411.33,-935.88 398.86,-935.88"/>
<polygon fill="black" stroke="black" points="1092.52,-630.99 1100.57,-634.49 1096.86,-630.93 1100.19,-630.89 1100.19,-630.89 1100.19,-630.89 1096.86,-630.93 1100.48,-627.29 1092.52,-630.99"/>
<ellipse fill="none" stroke="black" cx="1087.61" cy="-631.05" rx="3.2" ry="3.2"/>
</g>
<!-- sale_order_line&#45;&gt;res_users -->
<g id="edge35" class="edge">
<title>sale_order_line:w&#45;&gt;res_users:e</title>
<path fill="none" stroke="black" d="M1085.8,-560.02C1036.85,-522.67 1102.85,-281.43 1060.86,-225.38 968.19,-101.72 895.39,-89.38 740.86,-89.38 740.86,-89.38 740.86,-89.38 518.36,-89.38 370.38,-89.38 292.16,-70.72 199.86,-186.38 149.58,-249.39 240.46,-546.88 159.86,-546.88"/>
<polygon fill="black" stroke="black" points="1092.93,-562.32 1099.43,-568.21 1097.05,-563.65 1100.22,-564.68 1100.22,-564.68 1100.22,-564.68 1097.05,-563.65 1101.65,-561.36 1092.93,-562.32"/>
<ellipse fill="none" stroke="black" cx="1088.25" cy="-560.81" rx="3.2" ry="3.2"/>
</g>
<!-- sale_order_line&#45;&gt;res_users -->
<g id="edge39" class="edge">
<title>sale_order_line:w&#45;&gt;res_users:e</title>
<path fill="none" stroke="black" d="M1085.23,-608.27C911.42,-594.02 1015.74,-336.85 846.86,-249.38 762.4,-205.65 709.02,-192.42 632.86,-249.38 591.3,-280.46 640.26,-328.82 599.86,-361.38 530.46,-417.31 268.22,-333.21 199.86,-390.38 144.79,-436.44 231.65,-546.88 159.86,-546.88"/>
<polygon fill="black" stroke="black" points="1092.53,-608.56 1100.38,-612.47 1096.86,-608.73 1100.19,-608.86 1100.19,-608.86 1100.19,-608.86 1096.86,-608.73 1100.67,-605.27 1092.53,-608.56"/>
<ellipse fill="none" stroke="black" cx="1087.61" cy="-608.36" rx="3.2" ry="3.2"/>
</g>
<!-- sale_order_line&#45;&gt;res_users -->
<g id="edge41" class="edge">
<title>sale_order_line:w&#45;&gt;res_users:e</title>
<path fill="none" stroke="black" d="M1085.62,-539.15C1015.73,-499.93 1126.62,-163.24 1060.86,-96.38 960.56,5.58 883.88,-62.38 740.86,-62.38 740.86,-62.38 740.86,-62.38 518.36,-62.38 376.4,-62.38 300.81,13.42 199.86,-86.38 163.33,-122.49 211.22,-546.88 159.86,-546.88"/>
<polygon fill="black" stroke="black" points="1092.76,-540.9 1099.68,-546.3 1096.97,-541.93 1100.21,-542.73 1100.21,-542.73 1100.21,-542.73 1096.97,-541.93 1101.39,-539.31 1092.76,-540.9"/>
<ellipse fill="none" stroke="black" cx="1087.98" cy="-539.73" rx="3.2" ry="3.2"/>
</g>
<!-- sale_order_line&#45;&gt;project_project -->
<g id="edge38" class="edge">
<title>sale_order_line:w&#45;&gt;project_project:e</title>
<path fill="none" stroke="black" d="M1086.12,-493.57C1072.17,-479.81 1082.76,-442.73 1101.86,-423.88 1167.34,-359.27 1233.73,-370.79 1308.86,-423.88 1319.97,-431.74 1649.46,-1347.38 1635.86,-1347.38"/>
<polygon fill="black" stroke="black" points="1093.02,-496.06 1099.32,-502.16 1097.09,-497.53 1100.23,-498.66 1100.23,-498.66 1100.23,-498.66 1097.09,-497.53 1101.76,-495.38 1093.02,-496.06"/>
<ellipse fill="none" stroke="black" cx="1088.39" cy="-494.39" rx="3.2" ry="3.2"/>
</g>
<!-- project_task -->
<g id="node6" class="node">
<title>project_task</title>
<g id="a_node6"><a xlink:href="../../tables/project_task.html" xlink:title="project_task" target="_top">
<polygon fill="#ffffff" stroke="none" points="887.86,-779.88 887.86,-1214.88 1052.86,-1214.88 1052.86,-779.88 887.86,-779.88"/>
<polygon fill="#f5f5f5" stroke="none" points="887.86,-1191.88 887.86,-1214.88 1052.86,-1214.88 1052.86,-1191.88 887.86,-1191.88"/>
<polygon fill="none" stroke="black" points="887.86,-1191.88 887.86,-1214.88 1052.86,-1214.88 1052.86,-1191.88 887.86,-1191.88"/>
<text text-anchor="start" x="892.86" y="-1199.68" font-family="Helvetica,sans-Serif" font-weight="bold" font-size="11.00">project_task</text>
<text text-anchor="start" x="1018.61" y="-1199.43" font-family="Helvetica,sans-Serif" font-size="11.00">[table]</text>
<polygon fill="none" stroke="black" points="887.86,-1169.88 887.86,-1191.88 1052.86,-1191.88 1052.86,-1169.88 887.86,-1169.88"/>
<image xlink:href="../../images/primaryKeys.png" width="11px" height="12px" preserveAspectRatio="xMinYMin meet" x="892.858" y="-1186.88"/>
<text text-anchor="start" x="907.86" y="-1176.43" font-family="Helvetica,sans-Serif" font-size="11.00">id</text>
<polygon fill="#ffffff" stroke="none" points="887.86,-1147.88 887.86,-1169.88 1052.86,-1169.88 1052.86,-1147.88 887.86,-1147.88"/>
<polygon fill="none" stroke="black" points="887.86,-1147.88 887.86,-1169.88 1052.86,-1169.88 1052.86,-1147.88 887.86,-1147.88"/>
<image xlink:href="../../images/foreignKeys.png" width="11px" height="12px" preserveAspectRatio="xMinYMin meet" x="892.858" y="-1164.88"/>
<text text-anchor="start" x="907.86" y="-1154.43" font-family="Helvetica,sans-Serif" font-size="11.00">stage_id</text>
<polygon fill="#ffffff" stroke="none" points="887.86,-1125.88 887.86,-1147.88 1052.86,-1147.88 1052.86,-1125.88 887.86,-1125.88"/>
<polygon fill="none" stroke="black" points="887.86,-1125.88 887.86,-1147.88 1052.86,-1147.88 1052.86,-1125.88 887.86,-1125.88"/>
<image xlink:href="../../images/foreignKeys.png" width="11px" height="12px" preserveAspectRatio="xMinYMin meet" x="892.858" y="-1142.88"/>
<text text-anchor="start" x="907.86" y="-1132.43" font-family="Helvetica,sans-Serif" font-size="11.00">project_id</text>
<polygon fill="none" stroke="black" points="887.86,-1103.88 887.86,-1125.88 1052.86,-1125.88 1052.86,-1103.88 887.86,-1103.88"/>
<image xlink:href="../../images/foreignKeys.png" width="11px" height="12px" preserveAspectRatio="xMinYMin meet" x="892.858" y="-1120.88"/>
<text text-anchor="start" x="907.86" y="-1110.43" font-family="Helvetica,sans-Serif" font-size="11.00">partner_id</text>
<polygon fill="#ffffff" stroke="none" points="887.86,-1081.88 887.86,-1103.88 1052.86,-1103.88 1052.86,-1081.88 887.86,-1081.88"/>
<polygon fill="none" stroke="black" points="887.86,-1081.88 887.86,-1103.88 1052.86,-1103.88 1052.86,-1081.88 887.86,-1081.88"/>
<image xlink:href="../../images/foreignKeys.png" width="11px" height="12px" preserveAspectRatio="xMinYMin meet" x="892.858" y="-1098.88"/>
<text text-anchor="start" x="907.86" y="-1088.43" font-family="Helvetica,sans-Serif" font-size="11.00">parent_id</text>
<polygon fill="#ffffff" stroke="none" points="887.86,-1059.88 887.86,-1081.88 1052.86,-1081.88 1052.86,-1059.88 887.86,-1059.88"/>
<polygon fill="none" stroke="black" points="887.86,-1059.88 887.86,-1081.88 1052.86,-1081.88 1052.86,-1059.88 887.86,-1059.88"/>
<text text-anchor="start" x="907.86" y="-1066.43" font-family="Helvetica,sans-Serif" font-size="11.00">milestone_id</text>
<polygon fill="none" stroke="black" points="887.86,-1037.88 887.86,-1059.88 1052.86,-1059.88 1052.86,-1037.88 887.86,-1037.88"/>
<image xlink:href="../../images/foreignKeys.png" width="11px" height="12px" preserveAspectRatio="xMinYMin meet" x="892.858" y="-1054.88"/>
<text text-anchor="start" x="907.86" y="-1044.43" font-family="Helvetica,sans-Serif" font-size="11.00">create_uid</text>
<polygon fill="none" stroke="black" points="887.86,-1015.88 887.86,-1037.88 1052.86,-1037.88 1052.86,-1015.88 887.86,-1015.88"/>
<image xlink:href="../../images/foreignKeys.png" width="11px" height="12px" preserveAspectRatio="xMinYMin meet" x="892.858" y="-1032.88"/>
<text text-anchor="start" x="907.86" y="-1022.43" font-family="Helvetica,sans-Serif" font-size="11.00">write_uid</text>
<polygon fill="#ffffff" stroke="none" points="887.86,-993.88 887.86,-1015.88 1052.86,-1015.88 1052.86,-993.88 887.86,-993.88"/>
<polygon fill="none" stroke="black" points="887.86,-993.88 887.86,-1015.88 1052.86,-1015.88 1052.86,-993.88 887.86,-993.88"/>
<text text-anchor="start" x="907.86" y="-1000.43" font-family="Helvetica,sans-Serif" font-size="11.00">name</text>
<polygon fill="#ffffff" stroke="none" points="887.86,-971.88 887.86,-993.88 1052.86,-993.88 1052.86,-971.88 887.86,-971.88"/>
<polygon fill="none" stroke="black" points="887.86,-971.88 887.86,-993.88 1052.86,-993.88 1052.86,-971.88 887.86,-971.88"/>
<text text-anchor="start" x="907.86" y="-978.43" font-family="Helvetica,sans-Serif" font-size="11.00">priority</text>
<polygon fill="#ffffff" stroke="none" points="887.86,-949.88 887.86,-971.88 1052.86,-971.88 1052.86,-949.88 887.86,-949.88"/>
<polygon fill="none" stroke="black" points="887.86,-949.88 887.86,-971.88 1052.86,-971.88 1052.86,-949.88 887.86,-949.88"/>
<text text-anchor="start" x="907.86" y="-956.43" font-family="Helvetica,sans-Serif" font-size="11.00">state</text>
<polygon fill="#ffffff" stroke="none" points="887.86,-927.88 887.86,-949.88 1052.86,-949.88 1052.86,-927.88 887.86,-927.88"/>
<polygon fill="none" stroke="black" points="887.86,-927.88 887.86,-949.88 1052.86,-949.88 1052.86,-927.88 887.86,-927.88"/>
<text text-anchor="start" x="907.86" y="-934.43" font-family="Helvetica,sans-Serif" font-size="11.00">create_date</text>
<polygon fill="#ffffff" stroke="none" points="887.86,-905.88 887.86,-927.88 1052.86,-927.88 1052.86,-905.88 887.86,-905.88"/>
<polygon fill="none" stroke="black" points="887.86,-905.88 887.86,-927.88 1052.86,-927.88 1052.86,-905.88 887.86,-905.88"/>
<text text-anchor="start" x="907.86" y="-912.43" font-family="Helvetica,sans-Serif" font-size="11.00">date_end</text>
<polygon fill="#ffffff" stroke="none" points="887.86,-883.88 887.86,-905.88 1052.86,-905.88 1052.86,-883.88 887.86,-883.88"/>
<polygon fill="none" stroke="black" points="887.86,-883.88 887.86,-905.88 1052.86,-905.88 1052.86,-883.88 887.86,-883.88"/>
<text text-anchor="start" x="907.86" y="-890.43" font-family="Helvetica,sans-Serif" font-size="11.00">date_deadline</text>
<polygon fill="#ffffff" stroke="none" points="887.86,-861.88 887.86,-883.88 1052.86,-883.88 1052.86,-861.88 887.86,-861.88"/>
<polygon fill="none" stroke="black" points="887.86,-861.88 887.86,-883.88 1052.86,-883.88 1052.86,-861.88 887.86,-861.88"/>
<text text-anchor="start" x="907.86" y="-868.43" font-family="Helvetica,sans-Serif" font-size="11.00">date_last_stage_update</text>
<polygon fill="none" stroke="black" points="887.86,-839.88 887.86,-861.88 1052.86,-861.88 1052.86,-839.88 887.86,-839.88"/>
<image xlink:href="../../images/foreignKeys.png" width="11px" height="12px" preserveAspectRatio="xMinYMin meet" x="892.858" y="-856.884"/>
<text text-anchor="start" x="907.86" y="-846.43" font-family="Helvetica,sans-Serif" font-size="11.00">sale_order_id</text>
<polygon fill="#ffffff" stroke="none" points="887.86,-817.88 887.86,-839.88 1052.86,-839.88 1052.86,-817.88 887.86,-817.88"/>
<polygon fill="none" stroke="black" points="887.86,-817.88 887.86,-839.88 1052.86,-839.88 1052.86,-817.88 887.86,-817.88"/>
<image xlink:href="../../images/foreignKeys.png" width="11px" height="12px" preserveAspectRatio="xMinYMin meet" x="892.858" y="-834.884"/>
<text text-anchor="start" x="907.86" y="-824.43" font-family="Helvetica,sans-Serif" font-size="11.00">sale_line_id</text>
<polygon fill="none" stroke="black" points="887.86,-798.88 887.86,-817.88 1052.86,-817.88 1052.86,-798.88 887.86,-798.88"/>
<text text-anchor="start" x="890.86" y="-804.43" font-family="Helvetica,sans-Serif" font-size="11.00">...</text>
<polygon fill="#ffffff" stroke="none" points="887.86,-779.88 887.86,-798.88 963.86,-798.88 963.86,-779.88 887.86,-779.88"/>
<polygon fill="none" stroke="black" points="887.86,-779.88 887.86,-798.88 963.86,-798.88 963.86,-779.88 887.86,-779.88"/>
<text text-anchor="start" x="890.86" y="-785.43" font-family="Helvetica,sans-Serif" font-size="11.00">&lt; 8</text>
<polygon fill="#ffffff" stroke="none" points="963.86,-779.88 963.86,-798.88 1003.86,-798.88 1003.86,-779.88 963.86,-779.88"/>
<polygon fill="none" stroke="black" points="963.86,-779.88 963.86,-798.88 1003.86,-798.88 1003.86,-779.88 963.86,-779.88"/>
<text text-anchor="start" x="994.86" y="-785.43" font-family="Helvetica,sans-Serif" font-size="11.00"> &#160;</text>
<polygon fill="#ffffff" stroke="none" points="1003.86,-779.88 1003.86,-798.88 1052.86,-798.88 1052.86,-779.88 1003.86,-779.88"/>
<polygon fill="none" stroke="black" points="1003.86,-779.88 1003.86,-798.88 1052.86,-798.88 1052.86,-779.88 1003.86,-779.88"/>
<text text-anchor="start" x="1034.11" y="-785.43" font-family="Helvetica,sans-Serif" font-size="11.00">2 &gt;</text>
</a>
</g>
</g>
<!-- sale_order_line&#45;&gt;project_task -->
<g id="edge40" class="edge">
<title>sale_order_line:w&#45;&gt;project_task:e</title>
<path fill="none" stroke="black" d="M1087.78,-485.53C1036.02,-566 1127.12,-1180.88 1053.86,-1180.88"/>
<polygon fill="black" stroke="black" points="1093.91,-481.48 1102.56,-480.07 1097.52,-479.09 1100.3,-477.25 1100.3,-477.25 1100.3,-477.25 1097.52,-479.09 1098.59,-474.07 1093.91,-481.48"/>
<ellipse fill="none" stroke="black" cx="1089.8" cy="-484.19" rx="3.2" ry="3.2"/>
</g>
<!-- sale_order -->
<g id="node7" class="node">
<title>sale_order</title>
<g id="a_node7"><a xlink:href="../../tables/sale_order.html" xlink:title="sale_order" target="_top">
<polygon fill="#ffffff" stroke="none" points="640.86,-259.88 640.86,-892.88 838.86,-892.88 838.86,-259.88 640.86,-259.88"/>
<polygon fill="#f5f5f5" stroke="none" points="640.86,-869.88 640.86,-892.88 838.86,-892.88 838.86,-869.88 640.86,-869.88"/>
<polygon fill="none" stroke="black" points="640.86,-869.88 640.86,-892.88 838.86,-892.88 838.86,-869.88 640.86,-869.88"/>
<text text-anchor="start" x="645.86" y="-877.68" font-family="Helvetica,sans-Serif" font-weight="bold" font-size="11.00">sale_order</text>
<text text-anchor="start" x="804.61" y="-877.43" font-family="Helvetica,sans-Serif" font-size="11.00">[table]</text>
<polygon fill="none" stroke="black" points="640.86,-847.88 640.86,-869.88 838.86,-869.88 838.86,-847.88 640.86,-847.88"/>
<image xlink:href="../../images/primaryKeys.png" width="11px" height="12px" preserveAspectRatio="xMinYMin meet" x="645.858" y="-864.884"/>
<text text-anchor="start" x="660.86" y="-854.43" font-family="Helvetica,sans-Serif" font-size="11.00">id</text>
<polygon fill="#ffffff" stroke="none" points="640.86,-825.88 640.86,-847.88 838.86,-847.88 838.86,-825.88 640.86,-825.88"/>
<polygon fill="none" stroke="black" points="640.86,-825.88 640.86,-847.88 838.86,-847.88 838.86,-825.88 640.86,-825.88"/>
<text text-anchor="start" x="660.86" y="-832.43" font-family="Helvetica,sans-Serif" font-size="11.00">company_id</text>
<polygon fill="#ffffff" stroke="none" points="640.86,-803.88 640.86,-825.88 838.86,-825.88 838.86,-803.88 640.86,-803.88"/>
<polygon fill="none" stroke="black" points="640.86,-803.88 640.86,-825.88 838.86,-825.88 838.86,-803.88 640.86,-803.88"/>
<image xlink:href="../../images/foreignKeys.png" width="11px" height="12px" preserveAspectRatio="xMinYMin meet" x="645.858" y="-820.884"/>
<text text-anchor="start" x="660.86" y="-810.43" font-family="Helvetica,sans-Serif" font-size="11.00">partner_id</text>
<polygon fill="none" stroke="black" points="640.86,-781.88 640.86,-803.88 838.86,-803.88 838.86,-781.88 640.86,-781.88"/>
<image xlink:href="../../images/foreignKeys.png" width="11px" height="12px" preserveAspectRatio="xMinYMin meet" x="645.858" y="-798.884"/>
<text text-anchor="start" x="660.86" y="-788.43" font-family="Helvetica,sans-Serif" font-size="11.00">journal_id</text>
<polygon fill="#ffffff" stroke="none" points="640.86,-759.88 640.86,-781.88 838.86,-781.88 838.86,-759.88 640.86,-759.88"/>
<polygon fill="none" stroke="black" points="640.86,-759.88 640.86,-781.88 838.86,-781.88 838.86,-759.88 640.86,-759.88"/>
<image xlink:href="../../images/foreignKeys.png" width="11px" height="12px" preserveAspectRatio="xMinYMin meet" x="645.858" y="-776.884"/>
<text text-anchor="start" x="660.86" y="-766.43" font-family="Helvetica,sans-Serif" font-size="11.00">partner_invoice_id</text>
<polygon fill="#ffffff" stroke="none" points="640.86,-737.88 640.86,-759.88 838.86,-759.88 838.86,-737.88 640.86,-737.88"/>
<polygon fill="none" stroke="black" points="640.86,-737.88 640.86,-759.88 838.86,-759.88 838.86,-737.88 640.86,-737.88"/>
<image xlink:href="../../images/foreignKeys.png" width="11px" height="12px" preserveAspectRatio="xMinYMin meet" x="645.858" y="-754.884"/>
<text text-anchor="start" x="660.86" y="-744.43" font-family="Helvetica,sans-Serif" font-size="11.00">partner_shipping_id</text>
<polygon fill="none" stroke="black" points="640.86,-715.88 640.86,-737.88 838.86,-737.88 838.86,-715.88 640.86,-715.88"/>
<image xlink:href="../../images/foreignKeys.png" width="11px" height="12px" preserveAspectRatio="xMinYMin meet" x="645.858" y="-732.884"/>
<text text-anchor="start" x="660.86" y="-722.43" font-family="Helvetica,sans-Serif" font-size="11.00">fiscal_position_id</text>
<polygon fill="#ffffff" stroke="none" points="640.86,-693.88 640.86,-715.88 838.86,-715.88 838.86,-693.88 640.86,-693.88"/>
<polygon fill="none" stroke="black" points="640.86,-693.88 640.86,-715.88 838.86,-715.88 838.86,-693.88 640.86,-693.88"/>
<image xlink:href="../../images/foreignKeys.png" width="11px" height="12px" preserveAspectRatio="xMinYMin meet" x="645.858" y="-710.884"/>
<text text-anchor="start" x="660.86" y="-700.43" font-family="Helvetica,sans-Serif" font-size="11.00">user_id</text>
<polygon fill="none" stroke="black" points="640.86,-671.88 640.86,-693.88 838.86,-693.88 838.86,-671.88 640.86,-671.88"/>
<image xlink:href="../../images/foreignKeys.png" width="11px" height="12px" preserveAspectRatio="xMinYMin meet" x="645.858" y="-688.884"/>
<text text-anchor="start" x="660.86" y="-678.43" font-family="Helvetica,sans-Serif" font-size="11.00">team_id</text>
<polygon fill="none" stroke="black" points="640.86,-649.88 640.86,-671.88 838.86,-671.88 838.86,-649.88 640.86,-649.88"/>
<image xlink:href="../../images/foreignKeys.png" width="11px" height="12px" preserveAspectRatio="xMinYMin meet" x="645.858" y="-666.884"/>
<text text-anchor="start" x="660.86" y="-656.43" font-family="Helvetica,sans-Serif" font-size="11.00">create_uid</text>
<polygon fill="none" stroke="black" points="640.86,-627.88 640.86,-649.88 838.86,-649.88 838.86,-627.88 640.86,-627.88"/>
<image xlink:href="../../images/foreignKeys.png" width="11px" height="12px" preserveAspectRatio="xMinYMin meet" x="645.858" y="-644.884"/>
<text text-anchor="start" x="660.86" y="-634.43" font-family="Helvetica,sans-Serif" font-size="11.00">write_uid</text>
<polygon fill="#ffffff" stroke="none" points="640.86,-605.88 640.86,-627.88 838.86,-627.88 838.86,-605.88 640.86,-605.88"/>
<polygon fill="none" stroke="black" points="640.86,-605.88 640.86,-627.88 838.86,-627.88 838.86,-605.88 640.86,-605.88"/>
<text text-anchor="start" x="660.86" y="-612.43" font-family="Helvetica,sans-Serif" font-size="11.00">name</text>
<polygon fill="#ffffff" stroke="none" points="640.86,-583.88 640.86,-605.88 838.86,-605.88 838.86,-583.88 640.86,-583.88"/>
<polygon fill="none" stroke="black" points="640.86,-583.88 640.86,-605.88 838.86,-605.88 838.86,-583.88 640.86,-583.88"/>
<text text-anchor="start" x="660.86" y="-590.43" font-family="Helvetica,sans-Serif" font-size="11.00">state</text>
<polygon fill="#ffffff" stroke="none" points="640.86,-561.88 640.86,-583.88 838.86,-583.88 838.86,-561.88 640.86,-561.88"/>
<polygon fill="none" stroke="black" points="640.86,-561.88 640.86,-583.88 838.86,-583.88 838.86,-561.88 640.86,-561.88"/>
<text text-anchor="start" x="660.86" y="-568.43" font-family="Helvetica,sans-Serif" font-size="11.00">create_date</text>
<polygon fill="#ffffff" stroke="none" points="640.86,-539.88 640.86,-561.88 838.86,-561.88 838.86,-539.88 640.86,-539.88"/>
<polygon fill="none" stroke="black" points="640.86,-539.88 640.86,-561.88 838.86,-561.88 838.86,-539.88 640.86,-539.88"/>
<text text-anchor="start" x="660.86" y="-546.43" font-family="Helvetica,sans-Serif" font-size="11.00">date_order</text>
<polygon fill="none" stroke="black" points="640.86,-517.88 640.86,-539.88 838.86,-539.88 838.86,-517.88 640.86,-517.88"/>
<image xlink:href="../../images/foreignKeys.png" width="11px" height="12px" preserveAspectRatio="xMinYMin meet" x="645.858" y="-534.884"/>
<text text-anchor="start" x="660.86" y="-524.43" font-family="Helvetica,sans-Serif" font-size="11.00">opportunity_id</text>
<polygon fill="#ffffff" stroke="none" points="640.86,-495.88 640.86,-517.88 838.86,-517.88 838.86,-495.88 640.86,-495.88"/>
<polygon fill="none" stroke="black" points="640.86,-495.88 640.86,-517.88 838.86,-517.88 838.86,-495.88 640.86,-495.88"/>
<text text-anchor="start" x="660.86" y="-502.43" font-family="Helvetica,sans-Serif" font-size="11.00">is_subscription</text>
<polygon fill="#ffffff" stroke="none" points="640.86,-473.88 640.86,-495.88 838.86,-495.88 838.86,-473.88 640.86,-473.88"/>
<polygon fill="none" stroke="black" points="640.86,-473.88 640.86,-495.88 838.86,-495.88 838.86,-473.88 640.86,-473.88"/>
<text text-anchor="start" x="660.86" y="-480.43" font-family="Helvetica,sans-Serif" font-size="11.00">subscription_state</text>
<polygon fill="#ffffff" stroke="none" points="640.86,-451.88 640.86,-473.88 838.86,-473.88 838.86,-451.88 640.86,-451.88"/>
<polygon fill="none" stroke="black" points="640.86,-451.88 640.86,-473.88 838.86,-473.88 838.86,-451.88 640.86,-451.88"/>
<image xlink:href="../../images/foreignKeys.png" width="11px" height="12px" preserveAspectRatio="xMinYMin meet" x="645.858" y="-468.884"/>
<text text-anchor="start" x="660.86" y="-458.43" font-family="Helvetica,sans-Serif" font-size="11.00">origin_order_id</text>
<polygon fill="#ffffff" stroke="none" points="640.86,-429.88 640.86,-451.88 838.86,-451.88 838.86,-429.88 640.86,-429.88"/>
<polygon fill="none" stroke="black" points="640.86,-429.88 640.86,-451.88 838.86,-451.88 838.86,-429.88 640.86,-429.88"/>
<image xlink:href="../../images/foreignKeys.png" width="11px" height="12px" preserveAspectRatio="xMinYMin meet" x="645.858" y="-446.884"/>
<text text-anchor="start" x="660.86" y="-436.43" font-family="Helvetica,sans-Serif" font-size="11.00">subscription_id</text>
<polygon fill="#ffffff" stroke="none" points="640.86,-407.88 640.86,-429.88 838.86,-429.88 838.86,-407.88 640.86,-407.88"/>
<polygon fill="none" stroke="black" points="640.86,-407.88 640.86,-429.88 838.86,-429.88 838.86,-407.88 640.86,-407.88"/>
<text text-anchor="start" x="660.86" y="-414.43" font-family="Helvetica,sans-Serif" font-size="11.00">plan_id</text>
<polygon fill="none" stroke="black" points="640.86,-385.88 640.86,-407.88 838.86,-407.88 838.86,-385.88 640.86,-385.88"/>
<image xlink:href="../../images/foreignKeys.png" width="11px" height="12px" preserveAspectRatio="xMinYMin meet" x="645.858" y="-402.884"/>
<text text-anchor="start" x="660.86" y="-392.43" font-family="Helvetica,sans-Serif" font-size="11.00">project_id</text>
<polygon fill="none" stroke="black" points="640.86,-363.88 640.86,-385.88 838.86,-385.88 838.86,-363.88 640.86,-363.88"/>
<image xlink:href="../../images/foreignKeys.png" width="11px" height="12px" preserveAspectRatio="xMinYMin meet" x="645.858" y="-380.884"/>
<text text-anchor="start" x="660.86" y="-370.43" font-family="Helvetica,sans-Serif" font-size="11.00">sale_assist_user_id</text>
<polygon fill="none" stroke="black" points="640.86,-341.88 640.86,-363.88 838.86,-363.88 838.86,-341.88 640.86,-341.88"/>
<image xlink:href="../../images/foreignKeys.png" width="11px" height="12px" preserveAspectRatio="xMinYMin meet" x="645.858" y="-358.884"/>
<text text-anchor="start" x="660.86" y="-348.43" font-family="Helvetica,sans-Serif" font-size="11.00">introduced_by_user_id</text>
<polygon fill="none" stroke="black" points="640.86,-319.88 640.86,-341.88 838.86,-341.88 838.86,-319.88 640.86,-319.88"/>
<image xlink:href="../../images/foreignKeys.png" width="11px" height="12px" preserveAspectRatio="xMinYMin meet" x="645.858" y="-336.884"/>
<text text-anchor="start" x="660.86" y="-326.43" font-family="Helvetica,sans-Serif" font-size="11.00">citizen_id</text>
<polygon fill="none" stroke="black" points="640.86,-297.88 640.86,-319.88 838.86,-319.88 838.86,-297.88 640.86,-297.88"/>
<image xlink:href="../../images/foreignKeys.png" width="11px" height="12px" preserveAspectRatio="xMinYMin meet" x="645.858" y="-314.884"/>
<text text-anchor="start" x="660.86" y="-304.43" font-family="Helvetica,sans-Serif" font-size="11.00">project_campaign_id</text>
<polygon fill="none" stroke="black" points="640.86,-278.88 640.86,-297.88 838.86,-297.88 838.86,-278.88 640.86,-278.88"/>
<text text-anchor="start" x="643.86" y="-284.43" font-family="Helvetica,sans-Serif" font-size="11.00">...</text>
<polygon fill="#ffffff" stroke="none" points="640.86,-259.88 640.86,-278.88 736.86,-278.88 736.86,-259.88 640.86,-259.88"/>
<polygon fill="none" stroke="black" points="640.86,-259.88 640.86,-278.88 736.86,-278.88 736.86,-259.88 640.86,-259.88"/>
<text text-anchor="start" x="643.86" y="-265.43" font-family="Helvetica,sans-Serif" font-size="11.00">&lt; 17</text>
<polygon fill="#ffffff" stroke="none" points="736.86,-259.88 736.86,-278.88 782.86,-278.88 782.86,-259.88 736.86,-259.88"/>
<polygon fill="none" stroke="black" points="736.86,-259.88 736.86,-278.88 782.86,-278.88 782.86,-259.88 736.86,-259.88"/>
<text text-anchor="start" x="773.86" y="-265.43" font-family="Helvetica,sans-Serif" font-size="11.00"> &#160;</text>
<polygon fill="#ffffff" stroke="none" points="782.86,-259.88 782.86,-278.88 838.86,-278.88 838.86,-259.88 782.86,-259.88"/>
<polygon fill="none" stroke="black" points="782.86,-259.88 782.86,-278.88 838.86,-278.88 838.86,-259.88 782.86,-259.88"/>
<text text-anchor="start" x="820.11" y="-265.43" font-family="Helvetica,sans-Serif" font-size="11.00">5 &gt;</text>
</a>
</g>
</g>
<!-- sale_order_line&#45;&gt;sale_order -->
<g id="edge36" class="edge">
<title>sale_order_line:w&#45;&gt;sale_order:e</title>
<path fill="none" stroke="black" d="M1085.17,-674.69C995.6,-672.54 949.56,-654.24 879.86,-718.38 832.08,-762.35 904.78,-858.88 839.86,-858.88"/>
<polygon fill="black" stroke="black" points="1092.52,-674.78 1100.48,-678.48 1096.86,-674.84 1100.19,-674.88 1100.19,-674.88 1100.19,-674.88 1096.86,-674.84 1100.57,-671.28 1092.52,-674.78"/>
<ellipse fill="none" stroke="black" cx="1087.61" cy="-674.72" rx="3.2" ry="3.2"/>
</g>
<!-- project_task&#45;&gt;res_partner -->
<g id="edge13" class="edge">
<title>project_task:w&#45;&gt;res_partner:e</title>
<path fill="none" stroke="black" d="M871.07,-1114.73C673.18,-1110.8 629.62,-1032.49 438.86,-954.38 420.73,-946.96 418.44,-935.88 398.86,-935.88"/>
<polygon fill="black" stroke="black" points="878.52,-1114.8 886.49,-1118.48 882.86,-1114.85 886.19,-1114.88 886.19,-1114.88 886.19,-1114.88 882.86,-1114.85 886.56,-1111.28 878.52,-1114.8"/>
<ellipse fill="none" stroke="black" cx="873.61" cy="-1114.75" rx="3.2" ry="3.2"/>
</g>
<!-- project_task&#45;&gt;res_users -->
<g id="edge12" class="edge">
<title>project_task:w&#45;&gt;res_users:e</title>
<path fill="none" stroke="black" d="M871.3,-1049.03C575.32,-1054.56 414.9,-1214.63 199.86,-1004.38 126.89,-933.04 261.91,-546.88 159.86,-546.88"/>
<polygon fill="black" stroke="black" points="878.52,-1048.96 886.56,-1052.49 882.86,-1048.92 886.19,-1048.89 886.19,-1048.89 886.19,-1048.89 882.86,-1048.92 886.49,-1045.29 878.52,-1048.96"/>
<ellipse fill="none" stroke="black" cx="873.61" cy="-1049.01" rx="3.2" ry="3.2"/>
</g>
<!-- project_task&#45;&gt;res_users -->
<g id="edge17" class="edge">
<title>project_task:w&#45;&gt;res_users:e</title>
<path fill="none" stroke="black" d="M871.03,-1026.29C768.24,-1021.76 212.46,-992.69 199.86,-980.38 130.62,-912.82 256.6,-546.88 159.86,-546.88"/>
<polygon fill="black" stroke="black" points="878.53,-1026.57 886.39,-1030.47 882.86,-1026.73 886.19,-1026.86 886.19,-1026.86 886.19,-1026.86 882.86,-1026.73 886.66,-1023.27 878.53,-1026.57"/>
<ellipse fill="none" stroke="black" cx="873.61" cy="-1026.39" rx="3.2" ry="3.2"/>
</g>
<!-- project_task&#45;&gt;project_project -->
<g id="edge14" class="edge">
<title>project_task:w&#45;&gt;project_project:e</title>
<path fill="none" stroke="black" d="M871.8,-1141.78C857.39,-1155.25 872.54,-1193.54 887.86,-1218.88 941.69,-1307.99 993.35,-1303.25 1093.86,-1330.38 1108.4,-1334.31 1650.92,-1347.38 1635.86,-1347.38"/>
<polygon fill="black" stroke="black" points="878.93,-1139.46 887.65,-1140.41 883.05,-1138.12 886.22,-1137.09 886.22,-1137.09 886.22,-1137.09 883.05,-1138.12 885.43,-1133.56 878.93,-1139.46"/>
<ellipse fill="none" stroke="black" cx="874.25" cy="-1140.98" rx="3.2" ry="3.2"/>
</g>
<!-- project_task&#45;&gt;sale_order_line -->
<g id="edge15" class="edge">
<title>project_task:w&#45;&gt;sale_order_line:e</title>
<path fill="none" stroke="black" d="M873.57,-820.47C869.21,-808.84 876.75,-787.92 887.86,-775.88 1012.96,-640.34 1175.25,-869.97 1300.86,-734.88 1312.36,-722.51 1318.75,-696.88 1301.86,-696.88"/>
<polygon fill="black" stroke="black" points="879.82,-824.43 884.65,-831.75 883.48,-826.74 886.29,-828.53 886.29,-828.53 886.29,-828.53 883.48,-826.74 888.5,-825.66 879.82,-824.43"/>
<ellipse fill="none" stroke="black" cx="875.66" cy="-821.8" rx="3.2" ry="3.2"/>
</g>
<!-- project_task&#45;&gt;sale_order -->
<g id="edge16" class="edge">
<title>project_task:w&#45;&gt;sale_order:e</title>
<path fill="none" stroke="black" d="M871.17,-852.66C861.31,-855.02 854.59,-858.88 839.86,-858.88"/>
<polygon fill="black" stroke="black" points="878.58,-851.82 886.93,-854.5 882.88,-851.33 886.19,-850.96 886.19,-850.96 886.19,-850.96 882.88,-851.33 886.12,-847.34 878.58,-851.82"/>
<ellipse fill="none" stroke="black" cx="873.69" cy="-852.37" rx="3.2" ry="3.2"/>
</g>
<!-- sale_order&#45;&gt;project_campaign -->
<g id="edge30" class="edge">
<title>sale_order:w&#45;&gt;project_campaign:e</title>
<path fill="none" stroke="black" d="M624.17,-310.66C614.31,-313.02 607.59,-316.88 592.86,-316.88"/>
<polygon fill="black" stroke="black" points="631.58,-309.82 639.93,-312.5 635.88,-309.33 639.19,-308.96 639.19,-308.96 639.19,-308.96 635.88,-309.33 639.12,-305.34 631.58,-309.82"/>
<ellipse fill="none" stroke="black" cx="626.69" cy="-310.37" rx="3.2" ry="3.2"/>
</g>
<!-- sale_order&#45;&gt;res_partner -->
<g id="edge24" class="edge">
<title>sale_order:w&#45;&gt;res_partner:e</title>
<path fill="none" stroke="black" d="M624.2,-332.71C575.17,-346.1 625.94,-430.29 599.86,-493.38 546.92,-621.44 490.69,-631.87 438.86,-760.38 423.9,-797.48 438.86,-935.88 398.86,-935.88"/>
<polygon fill="black" stroke="black" points="631.58,-331.85 639.94,-334.5 635.88,-331.35 639.19,-330.96 639.19,-330.96 639.19,-330.96 635.88,-331.35 639.11,-327.35 631.58,-331.85"/>
<ellipse fill="none" stroke="black" cx="626.69" cy="-332.42" rx="3.2" ry="3.2"/>
</g>
<!-- sale_order&#45;&gt;res_partner -->
<g id="edge27" class="edge">
<title>sale_order:w&#45;&gt;res_partner:e</title>
<path fill="none" stroke="black" d="M625.14,-819.79C579.59,-838.17 447.96,-902.11 438.86,-907.38 419.97,-918.33 420.69,-935.88 398.86,-935.88"/>
<polygon fill="black" stroke="black" points="631.95,-817.52 640.68,-818.41 636.06,-816.15 639.22,-815.1 639.22,-815.1 639.22,-815.1 636.06,-816.15 638.4,-811.58 631.95,-817.52"/>
<ellipse fill="none" stroke="black" cx="627.29" cy="-819.08" rx="3.2" ry="3.2"/>
</g>
<!-- sale_order&#45;&gt;res_partner -->
<g id="edge28" class="edge">
<title>sale_order:w&#45;&gt;res_partner:e</title>
<path fill="none" stroke="black" d="M624.67,-774.63C578.3,-787.17 442.45,-827.05 438.86,-830.38 402.1,-864.5 449,-935.88 398.86,-935.88"/>
<polygon fill="black" stroke="black" points="631.77,-772.88 640.39,-774.46 635.97,-771.84 639.21,-771.04 639.21,-771.04 639.21,-771.04 635.97,-771.84 638.67,-767.47 631.77,-772.88"/>
<ellipse fill="none" stroke="black" cx="626.99" cy="-774.06" rx="3.2" ry="3.2"/>
</g>
<!-- sale_order&#45;&gt;res_partner -->
<g id="edge29" class="edge">
<title>sale_order:w&#45;&gt;res_partner:e</title>
<path fill="none" stroke="black" d="M624.42,-748.61C544.17,-745.86 501.83,-724.01 438.86,-781.38 386.42,-829.15 469.79,-935.88 398.86,-935.88"/>
<polygon fill="black" stroke="black" points="631.52,-748.74 639.46,-752.48 635.86,-748.81 639.19,-748.87 639.19,-748.87 639.19,-748.87 635.86,-748.81 639.59,-745.28 631.52,-748.74"/>
<ellipse fill="none" stroke="black" cx="626.61" cy="-748.65" rx="3.2" ry="3.2"/>
</g>
<!-- sale_order&#45;&gt;res_users -->
<g id="edge25" class="edge">
<title>sale_order:w&#45;&gt;res_users:e</title>
<path fill="none" stroke="black" d="M624.42,-658.58C578.43,-641.78 654.73,-537.63 599.86,-494.38 572.79,-473.05 246.01,-478.5 199.86,-500.38 175.23,-512.06 187.12,-546.88 159.86,-546.88"/>
<polygon fill="black" stroke="black" points="631.61,-659.65 639,-664.4 635.9,-660.29 639.2,-660.79 639.2,-660.79 639.2,-660.79 635.9,-660.29 640.06,-657.27 631.61,-659.65"/>
<ellipse fill="none" stroke="black" cx="626.75" cy="-658.93" rx="3.2" ry="3.2"/>
</g>
<!-- sale_order&#45;&gt;res_users -->
<g id="edge26" class="edge">
<title>sale_order:w&#45;&gt;res_users:e</title>
<path fill="none" stroke="black" d="M625.24,-358.18C617.18,-365.74 614.79,-379.36 599.86,-385.38 517.13,-418.77 269.46,-363.58 199.86,-419.38 153.52,-456.53 219.25,-546.88 159.86,-546.88"/>
<polygon fill="black" stroke="black" points="632.02,-355.72 640.77,-356.38 636.1,-354.25 639.23,-353.11 639.23,-353.11 639.23,-353.11 636.1,-354.25 638.32,-349.61 632.02,-355.72"/>
<ellipse fill="none" stroke="black" cx="627.4" cy="-357.4" rx="3.2" ry="3.2"/>
</g>
<!-- sale_order&#45;&gt;res_users -->
<g id="edge32" class="edge">
<title>sale_order:w&#45;&gt;res_users:e</title>
<path fill="none" stroke="black" d="M624.9,-379.78C617.21,-385.97 613.48,-396.43 599.86,-401.38 557.82,-416.66 235.41,-419.25 199.86,-446.38 161.64,-475.56 207.93,-546.88 159.86,-546.88"/>
<polygon fill="black" stroke="black" points="631.94,-377.47 640.66,-378.41 636.06,-376.13 639.22,-375.09 639.22,-375.09 639.22,-375.09 636.06,-376.13 638.42,-371.57 631.94,-377.47"/>
<ellipse fill="none" stroke="black" cx="627.26" cy="-379" rx="3.2" ry="3.2"/>
</g>
<!-- sale_order&#45;&gt;res_users -->
<g id="edge33" class="edge">
<title>sale_order:w&#45;&gt;res_users:e</title>
<path fill="none" stroke="black" d="M624.1,-704.17C510.07,-693.45 524.96,-564.98 405.86,-524.38 319.2,-494.84 288.42,-501.18 199.86,-524.38 180.13,-529.55 180.25,-546.88 159.86,-546.88"/>
<polygon fill="black" stroke="black" points="631.53,-704.51 639.36,-708.47 635.86,-704.7 639.19,-704.85 639.19,-704.85 639.19,-704.85 635.86,-704.7 639.69,-701.27 631.53,-704.51"/>
<ellipse fill="none" stroke="black" cx="626.62" cy="-704.28" rx="3.2" ry="3.2"/>
</g>
<!-- sale_order&#45;&gt;res_users -->
<g id="edge34" class="edge">
<title>sale_order:w&#45;&gt;res_users:e</title>
<path fill="none" stroke="black" d="M624.27,-636.43C580.64,-619.48 653.09,-519.04 599.86,-477.38 564.86,-449.99 238.33,-455.14 199.86,-477.38 169,-495.22 195.5,-546.88 159.86,-546.88"/>
<polygon fill="black" stroke="black" points="631.62,-637.59 638.97,-642.39 635.91,-638.26 639.2,-638.78 639.2,-638.78 639.2,-638.78 635.91,-638.26 640.09,-635.28 631.62,-637.59"/>
<ellipse fill="none" stroke="black" cx="626.77" cy="-636.83" rx="3.2" ry="3.2"/>
</g>
<!-- sale_order&#45;&gt;project_project -->
<g id="edge31" class="edge">
<title>sale_order:w&#45;&gt;project_project:e</title>
<path fill="none" stroke="black" d="M627.22,-387.44C612.35,-358.87 622.44,-274.17 640.86,-255.88 648.98,-247.82 838.47,-248.09 846.86,-255.88 920.07,-323.91 819.4,-624.81 879.86,-704.38 931.57,-772.44 988.73,-723.52 1060.86,-769.38 1079.97,-781.54 1658.5,-1347.38 1635.86,-1347.38"/>
<polygon fill="black" stroke="black" points="633.18,-391.89 637.43,-399.57 636.65,-394.49 639.32,-396.48 639.32,-396.48 639.32,-396.48 636.65,-394.49 641.75,-393.8 633.18,-391.89"/>
<ellipse fill="none" stroke="black" cx="629.24" cy="-388.95" rx="3.2" ry="3.2"/>
</g>
</g>
</svg>
