<?xml version="1.0" encoding="UTF-8" standalone="no"?>
<!DOCTYPE svg PUBLIC "-//W3C//DTD SVG 1.1//EN"
 "http://www.w3.org/Graphics/SVG/1.1/DTD/svg11.dtd">
<!-- Generated by graphviz version 12.0.0 (0)
 -->
<!-- Title: oneDegreeRelationshipsDiagram Pages: 1 -->
<svg width="685pt" height="719pt"
 viewBox="0.00 0.00 685.00 719.00" xmlns="http://www.w3.org/2000/svg" xmlns:xlink="http://www.w3.org/1999/xlink">
<g id="graph0" class="graph" transform="scale(1 1) rotate(0) translate(4 715)">
<title>oneDegreeRelationshipsDiagram</title>
<polygon fill="#ffffff" stroke="none" points="-4,4 -4,-715 681,-715 681,4 -4,4"/>
<text text-anchor="middle" x="71.38" y="-7.05" font-family="Helvetica,sans-Serif" font-size="11.00">Generated by SchemaSpy</text>
<!-- project_task -->
<g id="node1" class="node">
<title>project_task</title>
<g id="a_node1"><a xlink:href="../../tables/project_task.html" xlink:title="project_task" target="_top">
<polygon fill="#ffffff" stroke="none" points="504,-38.5 504,-473.5 669,-473.5 669,-38.5 504,-38.5"/>
<polygon fill="#f5f5f5" stroke="none" points="504,-450.5 504,-473.5 669,-473.5 669,-450.5 504,-450.5"/>
<polygon fill="none" stroke="black" points="504,-450.5 504,-473.5 669,-473.5 669,-450.5 504,-450.5"/>
<text text-anchor="start" x="509" y="-458.3" font-family="Helvetica,sans-Serif" font-weight="bold" font-size="11.00">project_task</text>
<text text-anchor="start" x="634.75" y="-458.05" font-family="Helvetica,sans-Serif" font-size="11.00">[table]</text>
<polygon fill="none" stroke="black" points="504,-428.5 504,-450.5 669,-450.5 669,-428.5 504,-428.5"/>
<image xlink:href="../../images/primaryKeys.png" width="11px" height="12px" preserveAspectRatio="xMinYMin meet" x="509" y="-445.5"/>
<text text-anchor="start" x="524" y="-435.05" font-family="Helvetica,sans-Serif" font-size="11.00">id</text>
<polygon fill="#ffffff" stroke="none" points="504,-406.5 504,-428.5 669,-428.5 669,-406.5 504,-406.5"/>
<polygon fill="none" stroke="black" points="504,-406.5 504,-428.5 669,-428.5 669,-406.5 504,-406.5"/>
<image xlink:href="../../images/foreignKeys.png" width="11px" height="12px" preserveAspectRatio="xMinYMin meet" x="509" y="-423.5"/>
<text text-anchor="start" x="524" y="-413.05" font-family="Helvetica,sans-Serif" font-size="11.00">stage_id</text>
<polygon fill="#ffffff" stroke="none" points="504,-384.5 504,-406.5 669,-406.5 669,-384.5 504,-384.5"/>
<polygon fill="none" stroke="black" points="504,-384.5 504,-406.5 669,-406.5 669,-384.5 504,-384.5"/>
<image xlink:href="../../images/foreignKeys.png" width="11px" height="12px" preserveAspectRatio="xMinYMin meet" x="509" y="-401.5"/>
<text text-anchor="start" x="524" y="-391.05" font-family="Helvetica,sans-Serif" font-size="11.00">project_id</text>
<polygon fill="none" stroke="black" points="504,-362.5 504,-384.5 669,-384.5 669,-362.5 504,-362.5"/>
<image xlink:href="../../images/foreignKeys.png" width="11px" height="12px" preserveAspectRatio="xMinYMin meet" x="509" y="-379.5"/>
<text text-anchor="start" x="524" y="-369.05" font-family="Helvetica,sans-Serif" font-size="11.00">partner_id</text>
<polygon fill="#ffffff" stroke="none" points="504,-340.5 504,-362.5 669,-362.5 669,-340.5 504,-340.5"/>
<polygon fill="none" stroke="black" points="504,-340.5 504,-362.5 669,-362.5 669,-340.5 504,-340.5"/>
<image xlink:href="../../images/foreignKeys.png" width="11px" height="12px" preserveAspectRatio="xMinYMin meet" x="509" y="-357.5"/>
<text text-anchor="start" x="524" y="-347.05" font-family="Helvetica,sans-Serif" font-size="11.00">parent_id</text>
<polygon fill="#ffffff" stroke="none" points="504,-318.5 504,-340.5 669,-340.5 669,-318.5 504,-318.5"/>
<polygon fill="none" stroke="black" points="504,-318.5 504,-340.5 669,-340.5 669,-318.5 504,-318.5"/>
<text text-anchor="start" x="524" y="-325.05" font-family="Helvetica,sans-Serif" font-size="11.00">milestone_id</text>
<polygon fill="none" stroke="black" points="504,-296.5 504,-318.5 669,-318.5 669,-296.5 504,-296.5"/>
<image xlink:href="../../images/foreignKeys.png" width="11px" height="12px" preserveAspectRatio="xMinYMin meet" x="509" y="-313.5"/>
<text text-anchor="start" x="524" y="-303.05" font-family="Helvetica,sans-Serif" font-size="11.00">create_uid</text>
<polygon fill="none" stroke="black" points="504,-274.5 504,-296.5 669,-296.5 669,-274.5 504,-274.5"/>
<image xlink:href="../../images/foreignKeys.png" width="11px" height="12px" preserveAspectRatio="xMinYMin meet" x="509" y="-291.5"/>
<text text-anchor="start" x="524" y="-281.05" font-family="Helvetica,sans-Serif" font-size="11.00">write_uid</text>
<polygon fill="#ffffff" stroke="none" points="504,-252.5 504,-274.5 669,-274.5 669,-252.5 504,-252.5"/>
<polygon fill="none" stroke="black" points="504,-252.5 504,-274.5 669,-274.5 669,-252.5 504,-252.5"/>
<text text-anchor="start" x="524" y="-259.05" font-family="Helvetica,sans-Serif" font-size="11.00">name</text>
<polygon fill="#ffffff" stroke="none" points="504,-230.5 504,-252.5 669,-252.5 669,-230.5 504,-230.5"/>
<polygon fill="none" stroke="black" points="504,-230.5 504,-252.5 669,-252.5 669,-230.5 504,-230.5"/>
<text text-anchor="start" x="524" y="-237.05" font-family="Helvetica,sans-Serif" font-size="11.00">priority</text>
<polygon fill="#ffffff" stroke="none" points="504,-208.5 504,-230.5 669,-230.5 669,-208.5 504,-208.5"/>
<polygon fill="none" stroke="black" points="504,-208.5 504,-230.5 669,-230.5 669,-208.5 504,-208.5"/>
<text text-anchor="start" x="524" y="-215.05" font-family="Helvetica,sans-Serif" font-size="11.00">state</text>
<polygon fill="#ffffff" stroke="none" points="504,-186.5 504,-208.5 669,-208.5 669,-186.5 504,-186.5"/>
<polygon fill="none" stroke="black" points="504,-186.5 504,-208.5 669,-208.5 669,-186.5 504,-186.5"/>
<text text-anchor="start" x="524" y="-193.05" font-family="Helvetica,sans-Serif" font-size="11.00">create_date</text>
<polygon fill="#ffffff" stroke="none" points="504,-164.5 504,-186.5 669,-186.5 669,-164.5 504,-164.5"/>
<polygon fill="none" stroke="black" points="504,-164.5 504,-186.5 669,-186.5 669,-164.5 504,-164.5"/>
<text text-anchor="start" x="524" y="-171.05" font-family="Helvetica,sans-Serif" font-size="11.00">date_end</text>
<polygon fill="#ffffff" stroke="none" points="504,-142.5 504,-164.5 669,-164.5 669,-142.5 504,-142.5"/>
<polygon fill="none" stroke="black" points="504,-142.5 504,-164.5 669,-164.5 669,-142.5 504,-142.5"/>
<text text-anchor="start" x="524" y="-149.05" font-family="Helvetica,sans-Serif" font-size="11.00">date_deadline</text>
<polygon fill="#ffffff" stroke="none" points="504,-120.5 504,-142.5 669,-142.5 669,-120.5 504,-120.5"/>
<polygon fill="none" stroke="black" points="504,-120.5 504,-142.5 669,-142.5 669,-120.5 504,-120.5"/>
<text text-anchor="start" x="524" y="-127.05" font-family="Helvetica,sans-Serif" font-size="11.00">date_last_stage_update</text>
<polygon fill="none" stroke="black" points="504,-98.5 504,-120.5 669,-120.5 669,-98.5 504,-98.5"/>
<image xlink:href="../../images/foreignKeys.png" width="11px" height="12px" preserveAspectRatio="xMinYMin meet" x="509" y="-115.5"/>
<text text-anchor="start" x="524" y="-105.05" font-family="Helvetica,sans-Serif" font-size="11.00">sale_order_id</text>
<polygon fill="#ffffff" stroke="none" points="504,-76.5 504,-98.5 669,-98.5 669,-76.5 504,-76.5"/>
<polygon fill="none" stroke="black" points="504,-76.5 504,-98.5 669,-98.5 669,-76.5 504,-76.5"/>
<image xlink:href="../../images/foreignKeys.png" width="11px" height="12px" preserveAspectRatio="xMinYMin meet" x="509" y="-93.5"/>
<text text-anchor="start" x="524" y="-83.05" font-family="Helvetica,sans-Serif" font-size="11.00">sale_line_id</text>
<polygon fill="none" stroke="black" points="504,-57.5 504,-76.5 669,-76.5 669,-57.5 504,-57.5"/>
<text text-anchor="start" x="507" y="-63.05" font-family="Helvetica,sans-Serif" font-size="11.00">...</text>
<polygon fill="#ffffff" stroke="none" points="504,-38.5 504,-57.5 580,-57.5 580,-38.5 504,-38.5"/>
<polygon fill="none" stroke="black" points="504,-38.5 504,-57.5 580,-57.5 580,-38.5 504,-38.5"/>
<text text-anchor="start" x="507" y="-44.05" font-family="Helvetica,sans-Serif" font-size="11.00">&lt; 8</text>
<polygon fill="#ffffff" stroke="none" points="580,-38.5 580,-57.5 620,-57.5 620,-38.5 580,-38.5"/>
<polygon fill="none" stroke="black" points="580,-38.5 580,-57.5 620,-57.5 620,-38.5 580,-38.5"/>
<text text-anchor="start" x="611" y="-44.05" font-family="Helvetica,sans-Serif" font-size="11.00"> &#160;</text>
<polygon fill="#ffffff" stroke="none" points="620,-38.5 620,-57.5 669,-57.5 669,-38.5 620,-38.5"/>
<polygon fill="none" stroke="black" points="620,-38.5 620,-57.5 669,-57.5 669,-38.5 620,-38.5"/>
<text text-anchor="start" x="650.25" y="-44.05" font-family="Helvetica,sans-Serif" font-size="11.00">2 &gt;</text>
</a>
</g>
</g>
<!-- res_users -->
<g id="node2" class="node">
<title>res_users</title>
<g id="a_node2"><a xlink:href="../../tables/res_users.html" xlink:title="res_users" target="_top">
<polygon fill="#ffffff" stroke="none" points="8,-380.5 8,-573.5 156,-573.5 156,-380.5 8,-380.5"/>
<polygon fill="#f5f5f5" stroke="none" points="8,-550.5 8,-573.5 156,-573.5 156,-550.5 8,-550.5"/>
<polygon fill="none" stroke="black" points="8,-550.5 8,-573.5 156,-573.5 156,-550.5 8,-550.5"/>
<text text-anchor="start" x="12.62" y="-558.3" font-family="Helvetica,sans-Serif" font-weight="bold" font-size="11.00">res_users</text>
<text text-anchor="start" x="121.75" y="-558.05" font-family="Helvetica,sans-Serif" font-size="11.00">[table]</text>
<polygon fill="none" stroke="black" points="8,-528.5 8,-550.5 156,-550.5 156,-528.5 8,-528.5"/>
<image xlink:href="../../images/primaryKeys.png" width="11px" height="12px" preserveAspectRatio="xMinYMin meet" x="13" y="-545.5"/>
<text text-anchor="start" x="28" y="-535.05" font-family="Helvetica,sans-Serif" font-size="11.00">id</text>
<polygon fill="#ffffff" stroke="none" points="8,-506.5 8,-528.5 156,-528.5 156,-506.5 8,-506.5"/>
<polygon fill="none" stroke="black" points="8,-506.5 8,-528.5 156,-528.5 156,-506.5 8,-506.5"/>
<image xlink:href="../../images/foreignKeys.png" width="11px" height="12px" preserveAspectRatio="xMinYMin meet" x="13" y="-523.5"/>
<text text-anchor="start" x="28" y="-513.05" font-family="Helvetica,sans-Serif" font-size="11.00">partner_id</text>
<polygon fill="#ffffff" stroke="none" points="8,-484.5 8,-506.5 156,-506.5 156,-484.5 8,-484.5"/>
<polygon fill="none" stroke="black" points="8,-484.5 8,-506.5 156,-506.5 156,-484.5 8,-484.5"/>
<text text-anchor="start" x="28" y="-491.05" font-family="Helvetica,sans-Serif" font-size="11.00">login</text>
<polygon fill="none" stroke="black" points="8,-462.5 8,-484.5 156,-484.5 156,-462.5 8,-462.5"/>
<image xlink:href="../../images/foreignKeys.png" width="11px" height="12px" preserveAspectRatio="xMinYMin meet" x="13" y="-479.5"/>
<text text-anchor="start" x="28" y="-469.05" font-family="Helvetica,sans-Serif" font-size="11.00">create_uid</text>
<polygon fill="none" stroke="black" points="8,-440.5 8,-462.5 156,-462.5 156,-440.5 8,-440.5"/>
<image xlink:href="../../images/foreignKeys.png" width="11px" height="12px" preserveAspectRatio="xMinYMin meet" x="13" y="-457.5"/>
<text text-anchor="start" x="28" y="-447.05" font-family="Helvetica,sans-Serif" font-size="11.00">write_uid</text>
<polygon fill="none" stroke="black" points="8,-418.5 8,-440.5 156,-440.5 156,-418.5 8,-418.5"/>
<image xlink:href="../../images/foreignKeys.png" width="11px" height="12px" preserveAspectRatio="xMinYMin meet" x="13" y="-435.5"/>
<text text-anchor="start" x="28" y="-425.05" font-family="Helvetica,sans-Serif" font-size="11.00">sale_team_id</text>
<polygon fill="none" stroke="black" points="8,-399.5 8,-418.5 156,-418.5 156,-399.5 8,-399.5"/>
<text text-anchor="start" x="11" y="-405.05" font-family="Helvetica,sans-Serif" font-size="11.00">...</text>
<polygon fill="#ffffff" stroke="none" points="8,-380.5 8,-399.5 73,-399.5 73,-380.5 8,-380.5"/>
<polygon fill="none" stroke="black" points="8,-380.5 8,-399.5 73,-399.5 73,-380.5 8,-380.5"/>
<text text-anchor="start" x="11" y="-386.05" font-family="Helvetica,sans-Serif" font-size="11.00">&lt; 4</text>
<polygon fill="#ffffff" stroke="none" points="73,-380.5 73,-399.5 107,-399.5 107,-380.5 73,-380.5"/>
<polygon fill="none" stroke="black" points="73,-380.5 73,-399.5 107,-399.5 107,-380.5 73,-380.5"/>
<text text-anchor="start" x="98" y="-386.05" font-family="Helvetica,sans-Serif" font-size="11.00"> &#160;</text>
<polygon fill="#ffffff" stroke="none" points="107,-380.5 107,-399.5 156,-399.5 156,-380.5 107,-380.5"/>
<polygon fill="none" stroke="black" points="107,-380.5 107,-399.5 156,-399.5 156,-380.5 107,-380.5"/>
<text text-anchor="start" x="131.25" y="-386.05" font-family="Helvetica,sans-Serif" font-size="11.00">65 &gt;</text>
</a>
</g>
</g>
<!-- project_task&#45;&gt;res_users -->
<g id="edge1" class="edge">
<title>project_task:w&#45;&gt;res_users:e</title>
<path fill="none" stroke="black" d="M487.46,-307.08C410.07,-303.46 244.85,-278.4 197,-320 122.17,-385.06 256.16,-539.5 157,-539.5"/>
<polygon fill="black" stroke="black" points="494.67,-307.28 502.57,-311.09 499,-307.39 502.33,-307.48 502.33,-307.48 502.33,-307.48 499,-307.39 502.76,-303.89 494.67,-307.28"/>
<ellipse fill="none" stroke="black" cx="489.75" cy="-307.15" rx="3.2" ry="3.2"/>
</g>
<!-- project_task&#45;&gt;res_users -->
<g id="edge3" class="edge">
<title>project_task:w&#45;&gt;res_users:e</title>
<path fill="none" stroke="black" d="M487.36,-285.14C361.62,-279.43 295.42,-207.94 197,-294 155.39,-330.39 212.27,-539.5 157,-539.5"/>
<polygon fill="black" stroke="black" points="494.67,-285.31 502.58,-289.09 499,-285.41 502.33,-285.48 502.33,-285.48 502.33,-285.48 499,-285.41 502.75,-281.89 494.67,-285.31"/>
<ellipse fill="none" stroke="black" cx="489.75" cy="-285.2" rx="3.2" ry="3.2"/>
</g>
<!-- project_task_type -->
<g id="node3" class="node">
<title>project_task_type</title>
<g id="a_node3"><a xlink:href="../../tables/project_task_type.html" xlink:title="project_task_type" target="_top">
<polygon fill="#ffffff" stroke="none" points="205,-331 205,-707 455,-707 455,-331 205,-331"/>
<polygon fill="#f5f5f5" stroke="none" points="207,-682 207,-705 453,-705 453,-682 207,-682"/>
<polygon fill="none" stroke="black" points="207,-682 207,-705 453,-705 453,-682 207,-682"/>
<text text-anchor="start" x="212" y="-689.8" font-family="Helvetica,sans-Serif" font-weight="bold" font-size="11.00">project_task_type</text>
<text text-anchor="start" x="418.75" y="-689.55" font-family="Helvetica,sans-Serif" font-size="11.00">[table]</text>
<polygon fill="none" stroke="black" points="207,-660 207,-682 356,-682 356,-660 207,-660"/>
<image xlink:href="../../images/primaryKeys.png" width="11px" height="12px" preserveAspectRatio="xMinYMin meet" x="212" y="-677"/>
<text text-anchor="start" x="227" y="-666.55" font-family="Helvetica,sans-Serif" font-size="11.00">id</text>
<polygon fill="none" stroke="black" points="356,-660 356,-682 453,-682 453,-660 356,-660"/>
<text text-anchor="start" x="359" y="-667.3" font-family="Helvetica,sans-Serif" font-size="11.00">serial[10]</text>
<polygon fill="none" stroke="black" points="207,-638 207,-660 356,-660 356,-638 207,-638"/>
<text text-anchor="start" x="227" y="-644.55" font-family="Helvetica,sans-Serif" font-size="11.00">sequence</text>
<polygon fill="none" stroke="black" points="356,-638 356,-660 453,-660 453,-638 356,-638"/>
<text text-anchor="start" x="359" y="-645.3" font-family="Helvetica,sans-Serif" font-size="11.00">int4[10]</text>
<polygon fill="none" stroke="black" points="207,-616 207,-638 356,-638 356,-616 207,-616"/>
<text text-anchor="start" x="227" y="-622.55" font-family="Helvetica,sans-Serif" font-size="11.00">mail_template_id</text>
<polygon fill="none" stroke="black" points="356,-616 356,-638 453,-638 453,-616 356,-616"/>
<text text-anchor="start" x="359" y="-623.3" font-family="Helvetica,sans-Serif" font-size="11.00">int4[10]</text>
<polygon fill="none" stroke="black" points="207,-594 207,-616 356,-616 356,-594 207,-594"/>
<text text-anchor="start" x="227" y="-600.55" font-family="Helvetica,sans-Serif" font-size="11.00">rating_template_id</text>
<polygon fill="none" stroke="black" points="356,-594 356,-616 453,-616 453,-594 356,-594"/>
<text text-anchor="start" x="359" y="-601.3" font-family="Helvetica,sans-Serif" font-size="11.00">int4[10]</text>
<polygon fill="#ffffff" stroke="none" points="207,-572 207,-594 356,-594 356,-572 207,-572"/>
<polygon fill="none" stroke="black" points="207,-572 207,-594 356,-594 356,-572 207,-572"/>
<image xlink:href="../../images/foreignKeys.png" width="11px" height="12px" preserveAspectRatio="xMinYMin meet" x="212" y="-589"/>
<text text-anchor="start" x="227" y="-578.55" font-family="Helvetica,sans-Serif" font-size="11.00">user_id</text>
<polygon fill="none" stroke="black" points="356,-572 356,-594 453,-594 453,-572 356,-572"/>
<text text-anchor="start" x="359" y="-579.3" font-family="Helvetica,sans-Serif" font-size="11.00">int4[10]</text>
<polygon fill="none" stroke="black" points="207,-550 207,-572 356,-572 356,-550 207,-550"/>
<image xlink:href="../../images/foreignKeys.png" width="11px" height="12px" preserveAspectRatio="xMinYMin meet" x="212" y="-567"/>
<text text-anchor="start" x="227" y="-556.55" font-family="Helvetica,sans-Serif" font-size="11.00">create_uid</text>
<polygon fill="none" stroke="black" points="356,-550 356,-572 453,-572 453,-550 356,-550"/>
<text text-anchor="start" x="359" y="-557.3" font-family="Helvetica,sans-Serif" font-size="11.00">int4[10]</text>
<polygon fill="none" stroke="black" points="207,-528 207,-550 356,-550 356,-528 207,-528"/>
<image xlink:href="../../images/foreignKeys.png" width="11px" height="12px" preserveAspectRatio="xMinYMin meet" x="212" y="-545"/>
<text text-anchor="start" x="227" y="-534.55" font-family="Helvetica,sans-Serif" font-size="11.00">write_uid</text>
<polygon fill="none" stroke="black" points="356,-528 356,-550 453,-550 453,-528 356,-528"/>
<text text-anchor="start" x="359" y="-535.3" font-family="Helvetica,sans-Serif" font-size="11.00">int4[10]</text>
<polygon fill="none" stroke="black" points="207,-506 207,-528 356,-528 356,-506 207,-506"/>
<text text-anchor="start" x="227" y="-512.55" font-family="Helvetica,sans-Serif" font-size="11.00">name</text>
<polygon fill="none" stroke="black" points="356,-506 356,-528 453,-528 453,-506 356,-506"/>
<text text-anchor="start" x="358.75" y="-513.3" font-family="Helvetica,sans-Serif" font-size="11.00">jsonb[2147483647]</text>
<polygon fill="none" stroke="black" points="207,-484 207,-506 356,-506 356,-484 207,-484"/>
<text text-anchor="start" x="227" y="-490.55" font-family="Helvetica,sans-Serif" font-size="11.00">description</text>
<polygon fill="none" stroke="black" points="356,-484 356,-506 453,-506 453,-484 356,-484"/>
<text text-anchor="start" x="358.75" y="-491.3" font-family="Helvetica,sans-Serif" font-size="11.00">jsonb[2147483647]</text>
<polygon fill="none" stroke="black" points="207,-462 207,-484 356,-484 356,-462 207,-462"/>
<text text-anchor="start" x="227" y="-468.55" font-family="Helvetica,sans-Serif" font-size="11.00">active</text>
<polygon fill="none" stroke="black" points="356,-462 356,-484 453,-484 453,-462 356,-462"/>
<text text-anchor="start" x="359" y="-469.3" font-family="Helvetica,sans-Serif" font-size="11.00">bool[1]</text>
<polygon fill="none" stroke="black" points="207,-440 207,-462 356,-462 356,-440 207,-440"/>
<text text-anchor="start" x="227" y="-446.55" font-family="Helvetica,sans-Serif" font-size="11.00">fold</text>
<polygon fill="none" stroke="black" points="356,-440 356,-462 453,-462 453,-440 356,-440"/>
<text text-anchor="start" x="359" y="-447.3" font-family="Helvetica,sans-Serif" font-size="11.00">bool[1]</text>
<polygon fill="none" stroke="black" points="207,-418 207,-440 356,-440 356,-418 207,-418"/>
<text text-anchor="start" x="227" y="-424.55" font-family="Helvetica,sans-Serif" font-size="11.00">auto_validation_state</text>
<polygon fill="none" stroke="black" points="356,-418 356,-440 453,-440 453,-418 356,-418"/>
<text text-anchor="start" x="359" y="-425.3" font-family="Helvetica,sans-Serif" font-size="11.00">bool[1]</text>
<polygon fill="none" stroke="black" points="207,-396 207,-418 356,-418 356,-396 207,-396"/>
<text text-anchor="start" x="227" y="-402.55" font-family="Helvetica,sans-Serif" font-size="11.00">create_date</text>
<polygon fill="none" stroke="black" points="356,-396 356,-418 453,-418 453,-396 356,-396"/>
<text text-anchor="start" x="359" y="-403.3" font-family="Helvetica,sans-Serif" font-size="11.00">timestamp[29,6]</text>
<polygon fill="none" stroke="black" points="207,-374 207,-396 356,-396 356,-374 207,-374"/>
<text text-anchor="start" x="227" y="-380.55" font-family="Helvetica,sans-Serif" font-size="11.00">write_date</text>
<polygon fill="none" stroke="black" points="356,-374 356,-396 453,-396 453,-374 356,-374"/>
<text text-anchor="start" x="359" y="-381.3" font-family="Helvetica,sans-Serif" font-size="11.00">timestamp[29,6]</text>
<polygon fill="none" stroke="black" points="207,-352 207,-374 356,-374 356,-352 207,-352"/>
<text text-anchor="start" x="227" y="-358.55" font-family="Helvetica,sans-Serif" font-size="11.00">sms_template_id</text>
<polygon fill="none" stroke="black" points="356,-352 356,-374 453,-374 453,-352 356,-352"/>
<text text-anchor="start" x="359" y="-359.3" font-family="Helvetica,sans-Serif" font-size="11.00">int4[10]</text>
<polygon fill="#ffffff" stroke="none" points="207,-333 207,-352 286,-352 286,-333 207,-333"/>
<polygon fill="none" stroke="black" points="207,-333 207,-352 286,-352 286,-333 207,-333"/>
<text text-anchor="start" x="210" y="-338.55" font-family="Helvetica,sans-Serif" font-size="11.00">&lt; 3</text>
<polygon fill="#ffffff" stroke="none" points="286,-333 286,-352 356,-352 356,-333 286,-333"/>
<polygon fill="none" stroke="black" points="286,-333 286,-352 356,-352 356,-333 286,-333"/>
<text text-anchor="start" x="347" y="-338.55" font-family="Helvetica,sans-Serif" font-size="11.00"> &#160;</text>
<polygon fill="#ffffff" stroke="none" points="356,-333 356,-352 453,-352 453,-333 356,-333"/>
<polygon fill="none" stroke="black" points="356,-333 356,-352 453,-352 453,-333 356,-333"/>
<text text-anchor="start" x="434.25" y="-338.55" font-family="Helvetica,sans-Serif" font-size="11.00">1 &gt;</text>
<polygon fill="none" stroke="black" stroke-width="2" points="206,-332 206,-706 454,-706 454,-332 206,-332"/>
</a>
</g>
</g>
<!-- project_task&#45;&gt;project_task_type -->
<g id="edge2" class="edge">
<title>project_task:w&#45;&gt;project_task_type:e</title>
<path fill="none" stroke="black" d="M487.47,-419.47C406.14,-443.06 562.81,-671 454,-671"/>
<polygon fill="black" stroke="black" points="494.73,-418.55 503.12,-421.11 499.03,-418 502.34,-417.58 502.34,-417.58 502.34,-417.58 499.03,-418 502.22,-413.97 494.73,-418.55"/>
<ellipse fill="none" stroke="black" cx="489.85" cy="-419.17" rx="3.2" ry="3.2"/>
</g>
<!-- project_task_type&#45;&gt;res_users -->
<g id="edge4" class="edge">
<title>project_task_type:w&#45;&gt;res_users:e</title>
<path fill="none" stroke="black" d="M190.94,-557.25C179.88,-551.1 174.46,-539.5 157,-539.5"/>
<polygon fill="black" stroke="black" points="197.91,-558.99 204.81,-564.41 202.12,-560.03 205.35,-560.84 205.35,-560.84 205.35,-560.84 202.12,-560.03 206.54,-557.43 197.91,-558.99"/>
<ellipse fill="none" stroke="black" cx="193.14" cy="-557.8" rx="3.2" ry="3.2"/>
</g>
<!-- project_task_type&#45;&gt;res_users -->
<g id="edge5" class="edge">
<title>project_task_type:w&#45;&gt;res_users:e</title>
<path fill="none" stroke="black" d="M191.22,-577.31C179.1,-565.52 179.52,-539.5 157,-539.5"/>
<polygon fill="black" stroke="black" points="198.22,-580.01 204.39,-586.24 202.27,-581.56 205.38,-582.76 205.38,-582.76 205.38,-582.76 202.27,-581.56 206.98,-579.52 198.22,-580.01"/>
<ellipse fill="none" stroke="black" cx="193.63" cy="-578.24" rx="3.2" ry="3.2"/>
</g>
<!-- project_task_type&#45;&gt;res_users -->
<g id="edge6" class="edge">
<title>project_task_type:w&#45;&gt;res_users:e</title>
<path fill="none" stroke="black" d="M190.42,-539.1C179.71,-539.25 172.48,-539.5 157,-539.5"/>
<polygon fill="black" stroke="black" points="197.67,-539.05 205.69,-542.6 202,-539.03 205.33,-539 205.33,-539 205.33,-539 202,-539.03 205.64,-535.4 197.67,-539.05"/>
<ellipse fill="none" stroke="black" cx="192.75" cy="-539.09" rx="3.2" ry="3.2"/>
</g>
</g>
</svg>
