<?xml version="1.0" encoding="UTF-8" standalone="no"?>
<!DOCTYPE svg PUBLIC "-//W3C//DTD SVG 1.1//EN"
 "http://www.w3.org/Graphics/SVG/1.1/DTD/svg11.dtd">
<!-- Generated by graphviz version 12.0.0 (0)
 -->
<!-- Title: oneDegreeRelationshipsDiagram Pages: 1 -->
<svg width="1478pt" height="1424pt"
 viewBox="0.00 0.00 1478.10 1424.39" xmlns="http://www.w3.org/2000/svg" xmlns:xlink="http://www.w3.org/1999/xlink">
<g id="graph0" class="graph" transform="scale(1 1) rotate(0) translate(4 1420.39)">
<title>oneDegreeRelationshipsDiagram</title>
<polygon fill="#ffffff" stroke="none" points="-4,4 -4,-1420.39 1474.1,-1420.39 1474.1,4 -4,4"/>
<text text-anchor="middle" x="71.38" y="-7.05" font-family="Helvetica,sans-Serif" font-size="11.00">Generated by SchemaSpy</text>
<!-- project_project -->
<g id="node1" class="node">
<title>project_project</title>
<g id="a_node1"><a xlink:href="../../tables/project_project.html" xlink:title="project_project" target="_top">
<polygon fill="#ffffff" stroke="none" points="1276.01,-209.89 1276.01,-468.89 1453.01,-468.89 1453.01,-209.89 1276.01,-209.89"/>
<polygon fill="#f5f5f5" stroke="none" points="1276.01,-445.89 1276.01,-468.89 1453.01,-468.89 1453.01,-445.89 1276.01,-445.89"/>
<polygon fill="none" stroke="black" points="1276.01,-445.89 1276.01,-468.89 1453.01,-468.89 1453.01,-445.89 1276.01,-445.89"/>
<text text-anchor="start" x="1281.01" y="-453.69" font-family="Helvetica,sans-Serif" font-weight="bold" font-size="11.00">project_project</text>
<text text-anchor="start" x="1418.76" y="-453.44" font-family="Helvetica,sans-Serif" font-size="11.00">[table]</text>
<polygon fill="none" stroke="black" points="1276.01,-423.89 1276.01,-445.89 1453.01,-445.89 1453.01,-423.89 1276.01,-423.89"/>
<image xlink:href="../../images/primaryKeys.png" width="11px" height="12px" preserveAspectRatio="xMinYMin meet" x="1281.01" y="-440.887"/>
<text text-anchor="start" x="1296.01" y="-430.44" font-family="Helvetica,sans-Serif" font-size="11.00">id</text>
<polygon fill="none" stroke="black" points="1276.01,-401.89 1276.01,-423.89 1453.01,-423.89 1453.01,-401.89 1276.01,-401.89"/>
<image xlink:href="../../images/foreignKeys.png" width="11px" height="12px" preserveAspectRatio="xMinYMin meet" x="1281.01" y="-418.887"/>
<text text-anchor="start" x="1296.01" y="-408.44" font-family="Helvetica,sans-Serif" font-size="11.00">partner_id</text>
<polygon fill="none" stroke="black" points="1276.01,-379.89 1276.01,-401.89 1453.01,-401.89 1453.01,-379.89 1276.01,-379.89"/>
<image xlink:href="../../images/foreignKeys.png" width="11px" height="12px" preserveAspectRatio="xMinYMin meet" x="1281.01" y="-396.887"/>
<text text-anchor="start" x="1296.01" y="-386.44" font-family="Helvetica,sans-Serif" font-size="11.00">user_id</text>
<polygon fill="#ffffff" stroke="none" points="1276.01,-357.89 1276.01,-379.89 1453.01,-379.89 1453.01,-357.89 1276.01,-357.89"/>
<polygon fill="none" stroke="black" points="1276.01,-357.89 1276.01,-379.89 1453.01,-379.89 1453.01,-357.89 1276.01,-357.89"/>
<text text-anchor="start" x="1296.01" y="-364.44" font-family="Helvetica,sans-Serif" font-size="11.00">stage_id</text>
<polygon fill="none" stroke="black" points="1276.01,-335.89 1276.01,-357.89 1453.01,-357.89 1453.01,-335.89 1276.01,-335.89"/>
<image xlink:href="../../images/foreignKeys.png" width="11px" height="12px" preserveAspectRatio="xMinYMin meet" x="1281.01" y="-352.887"/>
<text text-anchor="start" x="1296.01" y="-342.44" font-family="Helvetica,sans-Serif" font-size="11.00">create_uid</text>
<polygon fill="none" stroke="black" points="1276.01,-313.89 1276.01,-335.89 1453.01,-335.89 1453.01,-313.89 1276.01,-313.89"/>
<image xlink:href="../../images/foreignKeys.png" width="11px" height="12px" preserveAspectRatio="xMinYMin meet" x="1281.01" y="-330.887"/>
<text text-anchor="start" x="1296.01" y="-320.44" font-family="Helvetica,sans-Serif" font-size="11.00">write_uid</text>
<polygon fill="#ffffff" stroke="none" points="1276.01,-291.89 1276.01,-313.89 1453.01,-313.89 1453.01,-291.89 1276.01,-291.89"/>
<polygon fill="none" stroke="black" points="1276.01,-291.89 1276.01,-313.89 1453.01,-313.89 1453.01,-291.89 1276.01,-291.89"/>
<text text-anchor="start" x="1296.01" y="-298.44" font-family="Helvetica,sans-Serif" font-size="11.00">date</text>
<polygon fill="none" stroke="black" points="1276.01,-269.89 1276.01,-291.89 1453.01,-291.89 1453.01,-269.89 1276.01,-269.89"/>
<image xlink:href="../../images/foreignKeys.png" width="11px" height="12px" preserveAspectRatio="xMinYMin meet" x="1281.01" y="-286.887"/>
<text text-anchor="start" x="1296.01" y="-276.44" font-family="Helvetica,sans-Serif" font-size="11.00">campaign_id</text>
<polygon fill="#ffffff" stroke="none" points="1276.01,-247.89 1276.01,-269.89 1453.01,-269.89 1453.01,-247.89 1276.01,-247.89"/>
<polygon fill="none" stroke="black" points="1276.01,-247.89 1276.01,-269.89 1453.01,-269.89 1453.01,-247.89 1276.01,-247.89"/>
<image xlink:href="../../images/foreignKeys.png" width="11px" height="12px" preserveAspectRatio="xMinYMin meet" x="1281.01" y="-264.887"/>
<text text-anchor="start" x="1296.01" y="-254.44" font-family="Helvetica,sans-Serif" font-size="11.00">sale_line_id</text>
<polygon fill="none" stroke="black" points="1276.01,-228.89 1276.01,-247.89 1453.01,-247.89 1453.01,-228.89 1276.01,-228.89"/>
<text text-anchor="start" x="1279.01" y="-234.44" font-family="Helvetica,sans-Serif" font-size="11.00">...</text>
<polygon fill="#ffffff" stroke="none" points="1276.01,-209.89 1276.01,-228.89 1358.01,-228.89 1358.01,-209.89 1276.01,-209.89"/>
<polygon fill="none" stroke="black" points="1276.01,-209.89 1276.01,-228.89 1358.01,-228.89 1358.01,-209.89 1276.01,-209.89"/>
<text text-anchor="start" x="1279.01" y="-215.44" font-family="Helvetica,sans-Serif" font-size="11.00">&lt; 6</text>
<polygon fill="#ffffff" stroke="none" points="1358.01,-209.89 1358.01,-228.89 1401.01,-228.89 1401.01,-209.89 1358.01,-209.89"/>
<polygon fill="none" stroke="black" points="1358.01,-209.89 1358.01,-228.89 1401.01,-228.89 1401.01,-209.89 1358.01,-209.89"/>
<text text-anchor="start" x="1392.01" y="-215.44" font-family="Helvetica,sans-Serif" font-size="11.00"> &#160;</text>
<polygon fill="#ffffff" stroke="none" points="1401.01,-209.89 1401.01,-228.89 1453.01,-228.89 1453.01,-209.89 1401.01,-209.89"/>
<polygon fill="none" stroke="black" points="1401.01,-209.89 1401.01,-228.89 1453.01,-228.89 1453.01,-209.89 1401.01,-209.89"/>
<text text-anchor="start" x="1434.26" y="-215.44" font-family="Helvetica,sans-Serif" font-size="11.00">3 &gt;</text>
</a>
</g>
</g>
<!-- res_users -->
<g id="node2" class="node">
<title>res_users</title>
<g id="a_node2"><a xlink:href="../../tables/res_users.html" xlink:title="res_users" target="_top">
<polygon fill="#ffffff" stroke="none" points="258.01,-275.89 258.01,-468.89 406.01,-468.89 406.01,-275.89 258.01,-275.89"/>
<polygon fill="#f5f5f5" stroke="none" points="258.01,-445.89 258.01,-468.89 406.01,-468.89 406.01,-445.89 258.01,-445.89"/>
<polygon fill="none" stroke="black" points="258.01,-445.89 258.01,-468.89 406.01,-468.89 406.01,-445.89 258.01,-445.89"/>
<text text-anchor="start" x="262.63" y="-453.69" font-family="Helvetica,sans-Serif" font-weight="bold" font-size="11.00">res_users</text>
<text text-anchor="start" x="371.76" y="-453.44" font-family="Helvetica,sans-Serif" font-size="11.00">[table]</text>
<polygon fill="none" stroke="black" points="258.01,-423.89 258.01,-445.89 406.01,-445.89 406.01,-423.89 258.01,-423.89"/>
<image xlink:href="../../images/primaryKeys.png" width="11px" height="12px" preserveAspectRatio="xMinYMin meet" x="263.005" y="-440.887"/>
<text text-anchor="start" x="278.01" y="-430.44" font-family="Helvetica,sans-Serif" font-size="11.00">id</text>
<polygon fill="#ffffff" stroke="none" points="258.01,-401.89 258.01,-423.89 406.01,-423.89 406.01,-401.89 258.01,-401.89"/>
<polygon fill="none" stroke="black" points="258.01,-401.89 258.01,-423.89 406.01,-423.89 406.01,-401.89 258.01,-401.89"/>
<image xlink:href="../../images/foreignKeys.png" width="11px" height="12px" preserveAspectRatio="xMinYMin meet" x="263.005" y="-418.887"/>
<text text-anchor="start" x="278.01" y="-408.44" font-family="Helvetica,sans-Serif" font-size="11.00">partner_id</text>
<polygon fill="#ffffff" stroke="none" points="258.01,-379.89 258.01,-401.89 406.01,-401.89 406.01,-379.89 258.01,-379.89"/>
<polygon fill="none" stroke="black" points="258.01,-379.89 258.01,-401.89 406.01,-401.89 406.01,-379.89 258.01,-379.89"/>
<text text-anchor="start" x="278.01" y="-386.44" font-family="Helvetica,sans-Serif" font-size="11.00">login</text>
<polygon fill="none" stroke="black" points="258.01,-357.89 258.01,-379.89 406.01,-379.89 406.01,-357.89 258.01,-357.89"/>
<image xlink:href="../../images/foreignKeys.png" width="11px" height="12px" preserveAspectRatio="xMinYMin meet" x="263.005" y="-374.887"/>
<text text-anchor="start" x="278.01" y="-364.44" font-family="Helvetica,sans-Serif" font-size="11.00">create_uid</text>
<polygon fill="none" stroke="black" points="258.01,-335.89 258.01,-357.89 406.01,-357.89 406.01,-335.89 258.01,-335.89"/>
<image xlink:href="../../images/foreignKeys.png" width="11px" height="12px" preserveAspectRatio="xMinYMin meet" x="263.005" y="-352.887"/>
<text text-anchor="start" x="278.01" y="-342.44" font-family="Helvetica,sans-Serif" font-size="11.00">write_uid</text>
<polygon fill="none" stroke="black" points="258.01,-313.89 258.01,-335.89 406.01,-335.89 406.01,-313.89 258.01,-313.89"/>
<image xlink:href="../../images/foreignKeys.png" width="11px" height="12px" preserveAspectRatio="xMinYMin meet" x="263.005" y="-330.887"/>
<text text-anchor="start" x="278.01" y="-320.44" font-family="Helvetica,sans-Serif" font-size="11.00">sale_team_id</text>
<polygon fill="none" stroke="black" points="258.01,-294.89 258.01,-313.89 406.01,-313.89 406.01,-294.89 258.01,-294.89"/>
<text text-anchor="start" x="261.01" y="-300.44" font-family="Helvetica,sans-Serif" font-size="11.00">...</text>
<polygon fill="#ffffff" stroke="none" points="258.01,-275.89 258.01,-294.89 323.01,-294.89 323.01,-275.89 258.01,-275.89"/>
<polygon fill="none" stroke="black" points="258.01,-275.89 258.01,-294.89 323.01,-294.89 323.01,-275.89 258.01,-275.89"/>
<text text-anchor="start" x="261.01" y="-281.44" font-family="Helvetica,sans-Serif" font-size="11.00">&lt; 4</text>
<polygon fill="#ffffff" stroke="none" points="323.01,-275.89 323.01,-294.89 357.01,-294.89 357.01,-275.89 323.01,-275.89"/>
<polygon fill="none" stroke="black" points="323.01,-275.89 323.01,-294.89 357.01,-294.89 357.01,-275.89 323.01,-275.89"/>
<text text-anchor="start" x="348.01" y="-281.44" font-family="Helvetica,sans-Serif" font-size="11.00"> &#160;</text>
<polygon fill="#ffffff" stroke="none" points="357.01,-275.89 357.01,-294.89 406.01,-294.89 406.01,-275.89 357.01,-275.89"/>
<polygon fill="none" stroke="black" points="357.01,-275.89 357.01,-294.89 406.01,-294.89 406.01,-275.89 357.01,-275.89"/>
<text text-anchor="start" x="381.26" y="-281.44" font-family="Helvetica,sans-Serif" font-size="11.00">65 &gt;</text>
</a>
</g>
</g>
<!-- project_project&#45;&gt;res_users -->
<g id="edge1" class="edge">
<title>project_project:w&#45;&gt;res_users:e</title>
<path fill="none" stroke="black" d="M1259.3,-345.03C1198.01,-327.93 1301.75,-197.34 1235.01,-142.39 1201.21,-114.56 479.99,-113.61 447.01,-142.39 397.57,-185.52 472.61,-434.89 407.01,-434.89"/>
<polygon fill="black" stroke="black" points="1266.73,-345.91 1274.25,-350.42 1271.03,-346.42 1274.34,-346.81 1274.34,-346.81 1274.34,-346.81 1271.03,-346.42 1275.1,-343.27 1266.73,-345.91"/>
<ellipse fill="none" stroke="black" cx="1261.84" cy="-345.33" rx="3.2" ry="3.2"/>
</g>
<!-- project_project&#45;&gt;res_users -->
<g id="edge4" class="edge">
<title>project_project:w&#45;&gt;res_users:e</title>
<path fill="none" stroke="black" d="M1259.57,-389.3C1189.16,-372.58 1307.78,-228.09 1235.01,-166.39 1222.56,-155.84 471.44,-142.29 447.01,-163.39 400.85,-203.24 467.99,-434.89 407.01,-434.89"/>
<polygon fill="black" stroke="black" points="1266.71,-390.04 1274.3,-394.43 1271.03,-390.48 1274.34,-390.82 1274.34,-390.82 1274.34,-390.82 1271.03,-390.48 1275.04,-387.27 1266.71,-390.04"/>
<ellipse fill="none" stroke="black" cx="1261.82" cy="-389.53" rx="3.2" ry="3.2"/>
</g>
<!-- project_project&#45;&gt;res_users -->
<g id="edge5" class="edge">
<title>project_project:w&#45;&gt;res_users:e</title>
<path fill="none" stroke="black" d="M1259.3,-323.03C1197.97,-305.98 1301.42,-175.75 1235.01,-120.39 1100.5,-8.27 577.7,-3.84 447.01,-120.39 394.42,-167.28 477.46,-434.89 407.01,-434.89"/>
<polygon fill="black" stroke="black" points="1266.73,-323.91 1274.25,-328.42 1271.03,-324.42 1274.34,-324.81 1274.34,-324.81 1274.34,-324.81 1271.03,-324.42 1275.09,-321.27 1266.73,-323.91"/>
<ellipse fill="none" stroke="black" cx="1261.84" cy="-323.33" rx="3.2" ry="3.2"/>
</g>
<!-- res_partner -->
<g id="node3" class="node">
<title>res_partner</title>
<g id="a_node3"><a xlink:href="../../tables/res_partner.html" xlink:title="res_partner" target="_top">
<polygon fill="#ffffff" stroke="none" points="19.01,-385.89 19.01,-820.89 209.01,-820.89 209.01,-385.89 19.01,-385.89"/>
<polygon fill="#f5f5f5" stroke="none" points="19.01,-797.89 19.01,-820.89 209.01,-820.89 209.01,-797.89 19.01,-797.89"/>
<polygon fill="none" stroke="black" points="19.01,-797.89 19.01,-820.89 209.01,-820.89 209.01,-797.89 19.01,-797.89"/>
<text text-anchor="start" x="24.01" y="-805.69" font-family="Helvetica,sans-Serif" font-weight="bold" font-size="11.00">res_partner</text>
<text text-anchor="start" x="174.76" y="-805.44" font-family="Helvetica,sans-Serif" font-size="11.00">[table]</text>
<polygon fill="none" stroke="black" points="19.01,-775.89 19.01,-797.89 209.01,-797.89 209.01,-775.89 19.01,-775.89"/>
<image xlink:href="../../images/primaryKeys.png" width="11px" height="12px" preserveAspectRatio="xMinYMin meet" x="24.0051" y="-792.887"/>
<text text-anchor="start" x="39.01" y="-782.44" font-family="Helvetica,sans-Serif" font-size="11.00">id</text>
<polygon fill="#ffffff" stroke="none" points="19.01,-753.89 19.01,-775.89 209.01,-775.89 209.01,-753.89 19.01,-753.89"/>
<polygon fill="none" stroke="black" points="19.01,-753.89 19.01,-775.89 209.01,-775.89 209.01,-753.89 19.01,-753.89"/>
<text text-anchor="start" x="39.01" y="-760.44" font-family="Helvetica,sans-Serif" font-size="11.00">company_id</text>
<polygon fill="#ffffff" stroke="none" points="19.01,-731.89 19.01,-753.89 209.01,-753.89 209.01,-731.89 19.01,-731.89"/>
<polygon fill="none" stroke="black" points="19.01,-731.89 19.01,-753.89 209.01,-753.89 209.01,-731.89 19.01,-731.89"/>
<text text-anchor="start" x="39.01" y="-738.44" font-family="Helvetica,sans-Serif" font-size="11.00">name</text>
<polygon fill="#ffffff" stroke="none" points="19.01,-709.89 19.01,-731.89 209.01,-731.89 209.01,-709.89 19.01,-709.89"/>
<polygon fill="none" stroke="black" points="19.01,-709.89 19.01,-731.89 209.01,-731.89 209.01,-709.89 19.01,-709.89"/>
<image xlink:href="../../images/foreignKeys.png" width="11px" height="12px" preserveAspectRatio="xMinYMin meet" x="24.0051" y="-726.887"/>
<text text-anchor="start" x="39.01" y="-716.44" font-family="Helvetica,sans-Serif" font-size="11.00">parent_id</text>
<polygon fill="none" stroke="black" points="19.01,-687.89 19.01,-709.89 209.01,-709.89 209.01,-687.89 19.01,-687.89"/>
<image xlink:href="../../images/foreignKeys.png" width="11px" height="12px" preserveAspectRatio="xMinYMin meet" x="24.0051" y="-704.887"/>
<text text-anchor="start" x="39.01" y="-694.44" font-family="Helvetica,sans-Serif" font-size="11.00">user_id</text>
<polygon fill="none" stroke="black" points="19.01,-665.89 19.01,-687.89 209.01,-687.89 209.01,-665.89 19.01,-665.89"/>
<image xlink:href="../../images/foreignKeys.png" width="11px" height="12px" preserveAspectRatio="xMinYMin meet" x="24.0051" y="-682.887"/>
<text text-anchor="start" x="39.01" y="-672.44" font-family="Helvetica,sans-Serif" font-size="11.00">country_id</text>
<polygon fill="#ffffff" stroke="none" points="19.01,-643.89 19.01,-665.89 209.01,-665.89 209.01,-643.89 19.01,-643.89"/>
<polygon fill="none" stroke="black" points="19.01,-643.89 19.01,-665.89 209.01,-665.89 209.01,-643.89 19.01,-643.89"/>
<image xlink:href="../../images/foreignKeys.png" width="11px" height="12px" preserveAspectRatio="xMinYMin meet" x="24.0051" y="-660.887"/>
<text text-anchor="start" x="39.01" y="-650.44" font-family="Helvetica,sans-Serif" font-size="11.00">commercial_partner_id</text>
<polygon fill="none" stroke="black" points="19.01,-621.89 19.01,-643.89 209.01,-643.89 209.01,-621.89 19.01,-621.89"/>
<image xlink:href="../../images/foreignKeys.png" width="11px" height="12px" preserveAspectRatio="xMinYMin meet" x="24.0051" y="-638.887"/>
<text text-anchor="start" x="39.01" y="-628.44" font-family="Helvetica,sans-Serif" font-size="11.00">create_uid</text>
<polygon fill="none" stroke="black" points="19.01,-599.89 19.01,-621.89 209.01,-621.89 209.01,-599.89 19.01,-599.89"/>
<image xlink:href="../../images/foreignKeys.png" width="11px" height="12px" preserveAspectRatio="xMinYMin meet" x="24.0051" y="-616.887"/>
<text text-anchor="start" x="39.01" y="-606.44" font-family="Helvetica,sans-Serif" font-size="11.00">write_uid</text>
<polygon fill="#ffffff" stroke="none" points="19.01,-577.89 19.01,-599.89 209.01,-599.89 209.01,-577.89 19.01,-577.89"/>
<polygon fill="none" stroke="black" points="19.01,-577.89 19.01,-599.89 209.01,-599.89 209.01,-577.89 19.01,-577.89"/>
<text text-anchor="start" x="39.01" y="-584.44" font-family="Helvetica,sans-Serif" font-size="11.00">complete_name</text>
<polygon fill="#ffffff" stroke="none" points="19.01,-555.89 19.01,-577.89 209.01,-577.89 209.01,-555.89 19.01,-555.89"/>
<polygon fill="none" stroke="black" points="19.01,-555.89 19.01,-577.89 209.01,-577.89 209.01,-555.89 19.01,-555.89"/>
<text text-anchor="start" x="39.01" y="-562.44" font-family="Helvetica,sans-Serif" font-size="11.00">ref</text>
<polygon fill="#ffffff" stroke="none" points="19.01,-533.89 19.01,-555.89 209.01,-555.89 209.01,-533.89 19.01,-533.89"/>
<polygon fill="none" stroke="black" points="19.01,-533.89 19.01,-555.89 209.01,-555.89 209.01,-533.89 19.01,-533.89"/>
<text text-anchor="start" x="39.01" y="-540.44" font-family="Helvetica,sans-Serif" font-size="11.00">vat</text>
<polygon fill="#ffffff" stroke="none" points="19.01,-511.89 19.01,-533.89 209.01,-533.89 209.01,-511.89 19.01,-511.89"/>
<polygon fill="none" stroke="black" points="19.01,-511.89 19.01,-533.89 209.01,-533.89 209.01,-511.89 19.01,-511.89"/>
<text text-anchor="start" x="39.01" y="-518.44" font-family="Helvetica,sans-Serif" font-size="11.00">date</text>
<polygon fill="none" stroke="black" points="19.01,-489.89 19.01,-511.89 209.01,-511.89 209.01,-489.89 19.01,-489.89"/>
<image xlink:href="../../images/foreignKeys.png" width="11px" height="12px" preserveAspectRatio="xMinYMin meet" x="24.0051" y="-506.887"/>
<text text-anchor="start" x="39.01" y="-496.44" font-family="Helvetica,sans-Serif" font-size="11.00">team_id</text>
<polygon fill="none" stroke="black" points="19.01,-467.89 19.01,-489.89 209.01,-489.89 209.01,-467.89 19.01,-467.89"/>
<image xlink:href="../../images/foreignKeys.png" width="11px" height="12px" preserveAspectRatio="xMinYMin meet" x="24.0051" y="-484.887"/>
<text text-anchor="start" x="39.01" y="-474.44" font-family="Helvetica,sans-Serif" font-size="11.00">buyer_id</text>
<polygon fill="none" stroke="black" points="19.01,-445.89 19.01,-467.89 209.01,-467.89 209.01,-445.89 19.01,-445.89"/>
<image xlink:href="../../images/foreignKeys.png" width="11px" height="12px" preserveAspectRatio="xMinYMin meet" x="24.0051" y="-462.887"/>
<text text-anchor="start" x="39.01" y="-452.44" font-family="Helvetica,sans-Serif" font-size="11.00">parent_company_id</text>
<polygon fill="none" stroke="black" points="19.01,-423.89 19.01,-445.89 209.01,-445.89 209.01,-423.89 19.01,-423.89"/>
<image xlink:href="../../images/foreignKeys.png" width="11px" height="12px" preserveAspectRatio="xMinYMin meet" x="24.0051" y="-440.887"/>
<text text-anchor="start" x="39.01" y="-430.44" font-family="Helvetica,sans-Serif" font-size="11.00">account_manager_id</text>
<polygon fill="none" stroke="black" points="19.01,-404.89 19.01,-423.89 209.01,-423.89 209.01,-404.89 19.01,-404.89"/>
<text text-anchor="start" x="22.01" y="-410.44" font-family="Helvetica,sans-Serif" font-size="11.00">...</text>
<polygon fill="#ffffff" stroke="none" points="19.01,-385.89 19.01,-404.89 108.01,-404.89 108.01,-385.89 19.01,-385.89"/>
<polygon fill="none" stroke="black" points="19.01,-385.89 19.01,-404.89 108.01,-404.89 108.01,-385.89 19.01,-385.89"/>
<text text-anchor="start" x="22.01" y="-391.44" font-family="Helvetica,sans-Serif" font-size="11.00">&lt; 10</text>
<polygon fill="#ffffff" stroke="none" points="108.01,-385.89 108.01,-404.89 151.01,-404.89 151.01,-385.89 108.01,-385.89"/>
<polygon fill="none" stroke="black" points="108.01,-385.89 108.01,-404.89 151.01,-404.89 151.01,-385.89 108.01,-385.89"/>
<text text-anchor="start" x="142.01" y="-391.44" font-family="Helvetica,sans-Serif" font-size="11.00"> &#160;</text>
<polygon fill="#ffffff" stroke="none" points="151.01,-385.89 151.01,-404.89 209.01,-404.89 209.01,-385.89 151.01,-385.89"/>
<polygon fill="none" stroke="black" points="151.01,-385.89 151.01,-404.89 209.01,-404.89 209.01,-385.89 151.01,-385.89"/>
<text text-anchor="start" x="184.26" y="-391.44" font-family="Helvetica,sans-Serif" font-size="11.00">23 &gt;</text>
</a>
</g>
</g>
<!-- project_project&#45;&gt;res_partner -->
<g id="edge2" class="edge">
<title>project_project:w&#45;&gt;res_partner:e</title>
<path fill="none" stroke="black" d="M1261.04,-420.15C1195.84,-496.5 1279.32,-1150.12 1235.01,-1222.39 1133.07,-1388.61 1036.49,-1416.39 841.51,-1416.39 841.51,-1416.39 841.51,-1416.39 553.01,-1416.39 376.13,-1416.39 332.68,-1314.75 250.01,-1158.39 211.2,-1084.98 293.04,-786.89 210.01,-786.89"/>
<polygon fill="black" stroke="black" points="1267.61,-416.73 1276.37,-416.24 1271.46,-414.73 1274.41,-413.2 1274.41,-413.2 1274.41,-413.2 1271.46,-414.73 1273.05,-409.85 1267.61,-416.73"/>
<ellipse fill="none" stroke="black" cx="1263.25" cy="-419" rx="3.2" ry="3.2"/>
</g>
<!-- sale_order_line -->
<g id="node4" class="node">
<title>sale_order_line</title>
<g id="a_node4"><a xlink:href="../../tables/sale_order_line.html" xlink:title="sale_order_line" target="_top">
<polygon fill="#ffffff" stroke="none" points="1028.01,-176.89 1028.01,-479.89 1227.01,-479.89 1227.01,-176.89 1028.01,-176.89"/>
<polygon fill="#f5f5f5" stroke="none" points="1028.01,-456.89 1028.01,-479.89 1227.01,-479.89 1227.01,-456.89 1028.01,-456.89"/>
<polygon fill="none" stroke="black" points="1028.01,-456.89 1028.01,-479.89 1227.01,-479.89 1227.01,-456.89 1028.01,-456.89"/>
<text text-anchor="start" x="1033.01" y="-464.69" font-family="Helvetica,sans-Serif" font-weight="bold" font-size="11.00">sale_order_line</text>
<text text-anchor="start" x="1192.76" y="-464.44" font-family="Helvetica,sans-Serif" font-size="11.00">[table]</text>
<polygon fill="none" stroke="black" points="1028.01,-434.89 1028.01,-456.89 1227.01,-456.89 1227.01,-434.89 1028.01,-434.89"/>
<image xlink:href="../../images/primaryKeys.png" width="11px" height="12px" preserveAspectRatio="xMinYMin meet" x="1033.01" y="-451.887"/>
<text text-anchor="start" x="1048.01" y="-441.44" font-family="Helvetica,sans-Serif" font-size="11.00">id</text>
<polygon fill="#ffffff" stroke="none" points="1028.01,-412.89 1028.01,-434.89 1227.01,-434.89 1227.01,-412.89 1028.01,-412.89"/>
<polygon fill="none" stroke="black" points="1028.01,-412.89 1028.01,-434.89 1227.01,-434.89 1227.01,-412.89 1028.01,-412.89"/>
<image xlink:href="../../images/foreignKeys.png" width="11px" height="12px" preserveAspectRatio="xMinYMin meet" x="1033.01" y="-429.887"/>
<text text-anchor="start" x="1048.01" y="-419.44" font-family="Helvetica,sans-Serif" font-size="11.00">order_id</text>
<polygon fill="#ffffff" stroke="none" points="1028.01,-390.89 1028.01,-412.89 1227.01,-412.89 1227.01,-390.89 1028.01,-390.89"/>
<polygon fill="none" stroke="black" points="1028.01,-390.89 1028.01,-412.89 1227.01,-412.89 1227.01,-390.89 1028.01,-390.89"/>
<text text-anchor="start" x="1048.01" y="-397.44" font-family="Helvetica,sans-Serif" font-size="11.00">company_id</text>
<polygon fill="#ffffff" stroke="none" points="1028.01,-368.89 1028.01,-390.89 1227.01,-390.89 1227.01,-368.89 1028.01,-368.89"/>
<polygon fill="none" stroke="black" points="1028.01,-368.89 1028.01,-390.89 1227.01,-390.89 1227.01,-368.89 1028.01,-368.89"/>
<image xlink:href="../../images/foreignKeys.png" width="11px" height="12px" preserveAspectRatio="xMinYMin meet" x="1033.01" y="-385.887"/>
<text text-anchor="start" x="1048.01" y="-375.44" font-family="Helvetica,sans-Serif" font-size="11.00">order_partner_id</text>
<polygon fill="none" stroke="black" points="1028.01,-346.89 1028.01,-368.89 1227.01,-368.89 1227.01,-346.89 1028.01,-346.89"/>
<image xlink:href="../../images/foreignKeys.png" width="11px" height="12px" preserveAspectRatio="xMinYMin meet" x="1033.01" y="-363.887"/>
<text text-anchor="start" x="1048.01" y="-353.44" font-family="Helvetica,sans-Serif" font-size="11.00">salesman_id</text>
<polygon fill="#ffffff" stroke="none" points="1028.01,-324.89 1028.01,-346.89 1227.01,-346.89 1227.01,-324.89 1028.01,-324.89"/>
<polygon fill="none" stroke="black" points="1028.01,-324.89 1028.01,-346.89 1227.01,-346.89 1227.01,-324.89 1028.01,-324.89"/>
<text text-anchor="start" x="1048.01" y="-331.44" font-family="Helvetica,sans-Serif" font-size="11.00">product_id</text>
<polygon fill="none" stroke="black" points="1028.01,-302.89 1028.01,-324.89 1227.01,-324.89 1227.01,-302.89 1028.01,-302.89"/>
<image xlink:href="../../images/foreignKeys.png" width="11px" height="12px" preserveAspectRatio="xMinYMin meet" x="1033.01" y="-319.887"/>
<text text-anchor="start" x="1048.01" y="-309.44" font-family="Helvetica,sans-Serif" font-size="11.00">create_uid</text>
<polygon fill="none" stroke="black" points="1028.01,-280.89 1028.01,-302.89 1227.01,-302.89 1227.01,-280.89 1028.01,-280.89"/>
<image xlink:href="../../images/foreignKeys.png" width="11px" height="12px" preserveAspectRatio="xMinYMin meet" x="1033.01" y="-297.887"/>
<text text-anchor="start" x="1048.01" y="-287.44" font-family="Helvetica,sans-Serif" font-size="11.00">write_uid</text>
<polygon fill="#ffffff" stroke="none" points="1028.01,-258.89 1028.01,-280.89 1227.01,-280.89 1227.01,-258.89 1028.01,-258.89"/>
<polygon fill="none" stroke="black" points="1028.01,-258.89 1028.01,-280.89 1227.01,-280.89 1227.01,-258.89 1028.01,-258.89"/>
<image xlink:href="../../images/foreignKeys.png" width="11px" height="12px" preserveAspectRatio="xMinYMin meet" x="1033.01" y="-275.887"/>
<text text-anchor="start" x="1048.01" y="-265.44" font-family="Helvetica,sans-Serif" font-size="11.00">parent_line_id</text>
<polygon fill="#ffffff" stroke="none" points="1028.01,-236.89 1028.01,-258.89 1227.01,-258.89 1227.01,-236.89 1028.01,-236.89"/>
<polygon fill="none" stroke="black" points="1028.01,-236.89 1028.01,-258.89 1227.01,-258.89 1227.01,-236.89 1028.01,-236.89"/>
<image xlink:href="../../images/foreignKeys.png" width="11px" height="12px" preserveAspectRatio="xMinYMin meet" x="1033.01" y="-253.887"/>
<text text-anchor="start" x="1048.01" y="-243.44" font-family="Helvetica,sans-Serif" font-size="11.00">project_id</text>
<polygon fill="#ffffff" stroke="none" points="1028.01,-214.89 1028.01,-236.89 1227.01,-236.89 1227.01,-214.89 1028.01,-214.89"/>
<polygon fill="none" stroke="black" points="1028.01,-214.89 1028.01,-236.89 1227.01,-236.89 1227.01,-214.89 1028.01,-214.89"/>
<image xlink:href="../../images/foreignKeys.png" width="11px" height="12px" preserveAspectRatio="xMinYMin meet" x="1033.01" y="-231.887"/>
<text text-anchor="start" x="1048.01" y="-221.44" font-family="Helvetica,sans-Serif" font-size="11.00">task_id</text>
<polygon fill="none" stroke="black" points="1028.01,-195.89 1028.01,-214.89 1227.01,-214.89 1227.01,-195.89 1028.01,-195.89"/>
<text text-anchor="start" x="1031.01" y="-201.44" font-family="Helvetica,sans-Serif" font-size="11.00">...</text>
<polygon fill="#ffffff" stroke="none" points="1028.01,-176.89 1028.01,-195.89 1121.01,-195.89 1121.01,-176.89 1028.01,-176.89"/>
<polygon fill="none" stroke="black" points="1028.01,-176.89 1028.01,-195.89 1121.01,-195.89 1121.01,-176.89 1028.01,-176.89"/>
<text text-anchor="start" x="1031.01" y="-182.44" font-family="Helvetica,sans-Serif" font-size="11.00">&lt; 8</text>
<polygon fill="#ffffff" stroke="none" points="1121.01,-176.89 1121.01,-195.89 1169.01,-195.89 1169.01,-176.89 1121.01,-176.89"/>
<polygon fill="none" stroke="black" points="1121.01,-176.89 1121.01,-195.89 1169.01,-195.89 1169.01,-176.89 1121.01,-176.89"/>
<text text-anchor="start" x="1160.01" y="-182.44" font-family="Helvetica,sans-Serif" font-size="11.00"> &#160;</text>
<polygon fill="#ffffff" stroke="none" points="1169.01,-176.89 1169.01,-195.89 1227.01,-195.89 1227.01,-176.89 1169.01,-176.89"/>
<polygon fill="none" stroke="black" points="1169.01,-176.89 1169.01,-195.89 1227.01,-195.89 1227.01,-176.89 1169.01,-176.89"/>
<text text-anchor="start" x="1208.26" y="-182.44" font-family="Helvetica,sans-Serif" font-size="11.00">3 &gt;</text>
</a>
</g>
</g>
<!-- project_project&#45;&gt;sale_order_line -->
<g id="edge3" class="edge">
<title>project_project:w&#45;&gt;sale_order_line:e</title>
<path fill="none" stroke="black" d="M1259.56,-261.68C1206.19,-284.94 1307.51,-445.89 1228.01,-445.89"/>
<polygon fill="black" stroke="black" points="1266.8,-260.37 1275.32,-262.49 1271.07,-259.6 1274.35,-259.01 1274.35,-259.01 1274.35,-259.01 1271.07,-259.6 1274.04,-255.4 1266.8,-260.37"/>
<ellipse fill="none" stroke="black" cx="1261.96" cy="-261.24" rx="3.2" ry="3.2"/>
</g>
<!-- res_users&#45;&gt;res_partner -->
<g id="edge22" class="edge">
<title>res_users:w&#45;&gt;res_partner:e</title>
<path fill="none" stroke="black" d="M242.22,-418.17C189.18,-463.63 287.88,-786.89 210.01,-786.89"/>
<polygon fill="black" stroke="black" points="249.16,-415.69 257.9,-416.39 253.24,-414.23 256.38,-413.11 256.38,-413.11 256.38,-413.11 253.24,-414.23 255.48,-409.61 249.16,-415.69"/>
<ellipse fill="none" stroke="black" cx="244.53" cy="-417.35" rx="3.2" ry="3.2"/>
</g>
<!-- res_partner&#45;&gt;res_users -->
<g id="edge17" class="edge">
<title>res_partner:w&#45;&gt;res_users:e</title>
<path fill="none" stroke="black" d="M6.07,-424.48C-9.15,-385.22 35.41,-254.57 217.01,-381.89 252.23,-406.58 214.78,-448.19 250.01,-472.89 306.78,-512.69 356.34,-521.26 406.01,-472.89 418.11,-461.1 423.9,-434.89 407.01,-434.89"/>
<polygon fill="black" stroke="black" points="11.72,-429.41 15.39,-437.38 14.99,-432.26 17.5,-434.45 17.5,-434.45 17.5,-434.45 14.99,-432.26 20.12,-431.95 11.72,-429.41"/>
<ellipse fill="none" stroke="black" cx="8.01" cy="-426.18" rx="3.2" ry="3.2"/>
</g>
<!-- res_partner&#45;&gt;res_users -->
<g id="edge18" class="edge">
<title>res_partner:w&#45;&gt;res_users:e</title>
<path fill="none" stroke="black" d="M7.33,-467.31C0.28,-444.19 7.27,-393.5 19.01,-381.89 81.55,-319.98 144.95,-331.37 217.01,-381.89 252.23,-406.58 214.78,-448.19 250.01,-472.89 306.78,-512.69 356.34,-521.26 406.01,-472.89 418.11,-461.1 423.9,-434.89 407.01,-434.89"/>
<polygon fill="black" stroke="black" points="12.35,-472.76 15.13,-481.08 15.29,-475.95 17.55,-478.4 17.55,-478.4 17.55,-478.4 15.29,-475.95 20.42,-476.2 12.35,-472.76"/>
<ellipse fill="none" stroke="black" cx="9.02" cy="-469.15" rx="3.2" ry="3.2"/>
</g>
<!-- res_partner&#45;&gt;res_users -->
<g id="edge19" class="edge">
<title>res_partner:w&#45;&gt;res_users:e</title>
<path fill="none" stroke="black" d="M9.57,-646.26C-0.68,-687.76 6.42,-812.37 19.01,-824.89 81.39,-886.95 148.87,-880.58 217.01,-824.89 274.07,-778.25 218.31,-728.92 250.01,-662.39 296.92,-563.9 367.83,-575.08 406.01,-472.89 411.92,-457.06 423.9,-434.89 407.01,-434.89"/>
<polygon fill="black" stroke="black" points="13.56,-639.94 20.87,-635.09 15.87,-636.27 17.65,-633.45 17.65,-633.45 17.65,-633.45 15.87,-636.27 14.78,-631.25 13.56,-639.94"/>
<ellipse fill="none" stroke="black" cx="10.94" cy="-644.1" rx="3.2" ry="3.2"/>
</g>
<!-- res_partner&#45;&gt;res_users -->
<g id="edge20" class="edge">
<title>res_partner:w&#45;&gt;res_users:e</title>
<path fill="none" stroke="black" d="M6,-708.83C-6.2,-735.7 2.85,-808.86 19.01,-824.89 81.48,-886.87 148.87,-880.58 217.01,-824.89 274.07,-778.25 218.31,-728.92 250.01,-662.39 296.92,-563.9 367.83,-575.08 406.01,-472.89 411.92,-457.06 423.9,-434.89 407.01,-434.89"/>
<polygon fill="black" stroke="black" points="11.58,-704.2 20.04,-701.87 14.92,-701.44 17.49,-699.31 17.49,-699.31 17.49,-699.31 14.92,-701.44 15.45,-696.33 11.58,-704.2"/>
<ellipse fill="none" stroke="black" cx="7.79" cy="-707.34" rx="3.2" ry="3.2"/>
</g>
<!-- res_partner&#45;&gt;res_users -->
<g id="edge21" class="edge">
<title>res_partner:w&#45;&gt;res_users:e</title>
<path fill="none" stroke="black" d="M9.09,-623.89C-3.08,-668.11 4.79,-810.73 19.01,-824.89 81.38,-886.97 148.87,-880.58 217.01,-824.89 274.07,-778.25 218.31,-728.92 250.01,-662.39 296.92,-563.9 367.83,-575.08 406.01,-472.89 411.92,-457.06 423.9,-434.89 407.01,-434.89"/>
<polygon fill="black" stroke="black" points="13.29,-617.76 20.79,-613.2 15.74,-614.19 17.63,-611.44 17.63,-611.44 17.63,-611.44 15.74,-614.19 14.85,-609.13 13.29,-617.76"/>
<ellipse fill="none" stroke="black" cx="10.51" cy="-621.82" rx="3.2" ry="3.2"/>
</g>
<!-- sale_order_line&#45;&gt;project_project -->
<g id="edge36" class="edge">
<title>sale_order_line:w&#45;&gt;project_project:e</title>
<path fill="none" stroke="black" d="M1012.27,-242.58C998.31,-228.81 1008.91,-191.73 1028.01,-172.89 1036.19,-164.81 1226.44,-165.21 1235.01,-172.89 1284.96,-217.64 1218.05,-428.13 1268.01,-472.89 1329.24,-527.76 1394.11,-530.26 1453.01,-472.89 1465.11,-461.1 1470.9,-434.89 1454.01,-434.89"/>
<polygon fill="black" stroke="black" points="1019.16,-245.06 1025.47,-251.16 1023.24,-246.53 1026.38,-247.66 1026.38,-247.66 1026.38,-247.66 1023.24,-246.53 1027.91,-244.39 1019.16,-245.06"/>
<ellipse fill="none" stroke="black" cx="1014.54" cy="-243.39" rx="3.2" ry="3.2"/>
</g>
<!-- sale_order_line&#45;&gt;res_users -->
<g id="edge33" class="edge">
<title>sale_order_line:w&#45;&gt;res_users:e</title>
<path fill="none" stroke="black" d="M1011.98,-309.43C993.89,-294.14 1018.1,-243.64 987.01,-223.39 936.73,-190.64 493.21,-185.11 447.01,-223.39 373.34,-284.43 502.67,-434.89 407.01,-434.89"/>
<polygon fill="black" stroke="black" points="1019.01,-311.52 1025.66,-317.24 1023.17,-312.75 1026.36,-313.7 1026.36,-313.7 1026.36,-313.7 1023.17,-312.75 1027.71,-310.34 1019.01,-311.52"/>
<ellipse fill="none" stroke="black" cx="1014.3" cy="-310.12" rx="3.2" ry="3.2"/>
</g>
<!-- sale_order_line&#45;&gt;res_users -->
<g id="edge37" class="edge">
<title>sale_order_line:w&#45;&gt;res_users:e</title>
<path fill="none" stroke="black" d="M1011.71,-354.15C987.33,-337.97 1024.25,-273.52 987.01,-247.39 937.88,-212.92 493.16,-218.03 447.01,-256.39 384.48,-308.35 488.31,-434.89 407.01,-434.89"/>
<polygon fill="black" stroke="black" points="1018.91,-355.91 1025.83,-361.31 1023.12,-356.94 1026.36,-357.73 1026.36,-357.73 1026.36,-357.73 1023.12,-356.94 1027.53,-354.31 1018.91,-355.91"/>
<ellipse fill="none" stroke="black" cx="1014.13" cy="-354.74" rx="3.2" ry="3.2"/>
</g>
<!-- sale_order_line&#45;&gt;res_users -->
<g id="edge39" class="edge">
<title>sale_order_line:w&#45;&gt;res_users:e</title>
<path fill="none" stroke="black" d="M1011.85,-287.72C991.39,-272 1020.54,-215.96 987.01,-193.39 937.23,-159.88 492.77,-154.58 447.01,-193.39 405.52,-228.57 461.4,-434.89 407.01,-434.89"/>
<polygon fill="black" stroke="black" points="1018.97,-289.68 1025.73,-295.27 1023.15,-290.83 1026.36,-291.71 1026.36,-291.71 1026.36,-291.71 1023.15,-290.83 1027.64,-288.33 1018.97,-289.68"/>
<ellipse fill="none" stroke="black" cx="1014.23" cy="-288.38" rx="3.2" ry="3.2"/>
</g>
<!-- sale_order_line&#45;&gt;res_partner -->
<g id="edge35" class="edge">
<title>sale_order_line:w&#45;&gt;res_partner:e</title>
<path fill="none" stroke="black" d="M1017.52,-392.37C981.14,-501.37 1022.22,-1288.64 987.01,-1322.39 862.85,-1441.38 348.17,-1227.59 250.01,-1086.39 211.68,-1031.25 277.15,-786.89 210.01,-786.89"/>
<polygon fill="black" stroke="black" points="1021.96,-386.52 1029.67,-382.33 1024.58,-383.07 1026.6,-380.42 1026.6,-380.42 1026.6,-380.42 1024.58,-383.07 1023.94,-377.98 1021.96,-386.52"/>
<ellipse fill="none" stroke="black" cx="1018.99" cy="-390.44" rx="3.2" ry="3.2"/>
</g>
<!-- project_task -->
<g id="node5" class="node">
<title>project_task</title>
<g id="a_node5"><a xlink:href="../../tables/project_task.html" xlink:title="project_task" target="_top">
<polygon fill="#ffffff" stroke="none" points="702.01,-257.39 702.01,-1293.39 979.01,-1293.39 979.01,-257.39 702.01,-257.39"/>
<polygon fill="#f5f5f5" stroke="none" points="704.01,-1268.39 704.01,-1291.39 977.01,-1291.39 977.01,-1268.39 704.01,-1268.39"/>
<polygon fill="none" stroke="black" points="704.01,-1268.39 704.01,-1291.39 977.01,-1291.39 977.01,-1268.39 704.01,-1268.39"/>
<text text-anchor="start" x="709.01" y="-1276.19" font-family="Helvetica,sans-Serif" font-weight="bold" font-size="11.00">project_task</text>
<text text-anchor="start" x="942.76" y="-1275.94" font-family="Helvetica,sans-Serif" font-size="11.00">[table]</text>
<polygon fill="none" stroke="black" points="704.01,-1246.39 704.01,-1268.39 869.01,-1268.39 869.01,-1246.39 704.01,-1246.39"/>
<image xlink:href="../../images/primaryKeys.png" width="11px" height="12px" preserveAspectRatio="xMinYMin meet" x="709.005" y="-1263.39"/>
<text text-anchor="start" x="724.01" y="-1252.94" font-family="Helvetica,sans-Serif" font-size="11.00">id</text>
<polygon fill="none" stroke="black" points="869.01,-1246.39 869.01,-1268.39 977.01,-1268.39 977.01,-1246.39 869.01,-1246.39"/>
<text text-anchor="start" x="872.01" y="-1253.69" font-family="Helvetica,sans-Serif" font-size="11.00">serial[10]</text>
<polygon fill="none" stroke="black" points="704.01,-1224.39 704.01,-1246.39 869.01,-1246.39 869.01,-1224.39 704.01,-1224.39"/>
<text text-anchor="start" x="724.01" y="-1230.94" font-family="Helvetica,sans-Serif" font-size="11.00">sequence</text>
<polygon fill="none" stroke="black" points="869.01,-1224.39 869.01,-1246.39 977.01,-1246.39 977.01,-1224.39 869.01,-1224.39"/>
<text text-anchor="start" x="872.01" y="-1231.69" font-family="Helvetica,sans-Serif" font-size="11.00">int4[10]</text>
<polygon fill="#ffffff" stroke="none" points="704.01,-1202.39 704.01,-1224.39 869.01,-1224.39 869.01,-1202.39 704.01,-1202.39"/>
<polygon fill="none" stroke="black" points="704.01,-1202.39 704.01,-1224.39 869.01,-1224.39 869.01,-1202.39 704.01,-1202.39"/>
<image xlink:href="../../images/foreignKeys.png" width="11px" height="12px" preserveAspectRatio="xMinYMin meet" x="709.005" y="-1219.39"/>
<text text-anchor="start" x="724.01" y="-1208.94" font-family="Helvetica,sans-Serif" font-size="11.00">stage_id</text>
<polygon fill="none" stroke="black" points="869.01,-1202.39 869.01,-1224.39 977.01,-1224.39 977.01,-1202.39 869.01,-1202.39"/>
<text text-anchor="start" x="872.01" y="-1209.69" font-family="Helvetica,sans-Serif" font-size="11.00">int4[10]</text>
<polygon fill="#ffffff" stroke="none" points="704.01,-1180.39 704.01,-1202.39 869.01,-1202.39 869.01,-1180.39 704.01,-1180.39"/>
<polygon fill="none" stroke="black" points="704.01,-1180.39 704.01,-1202.39 869.01,-1202.39 869.01,-1180.39 704.01,-1180.39"/>
<image xlink:href="../../images/foreignKeys.png" width="11px" height="12px" preserveAspectRatio="xMinYMin meet" x="709.005" y="-1197.39"/>
<text text-anchor="start" x="724.01" y="-1186.94" font-family="Helvetica,sans-Serif" font-size="11.00">project_id</text>
<polygon fill="none" stroke="black" points="869.01,-1180.39 869.01,-1202.39 977.01,-1202.39 977.01,-1180.39 869.01,-1180.39"/>
<text text-anchor="start" x="872.01" y="-1187.69" font-family="Helvetica,sans-Serif" font-size="11.00">int4[10]</text>
<polygon fill="none" stroke="black" points="704.01,-1158.39 704.01,-1180.39 869.01,-1180.39 869.01,-1158.39 704.01,-1158.39"/>
<image xlink:href="../../images/foreignKeys.png" width="11px" height="12px" preserveAspectRatio="xMinYMin meet" x="709.005" y="-1175.39"/>
<text text-anchor="start" x="724.01" y="-1164.94" font-family="Helvetica,sans-Serif" font-size="11.00">partner_id</text>
<polygon fill="none" stroke="black" points="869.01,-1158.39 869.01,-1180.39 977.01,-1180.39 977.01,-1158.39 869.01,-1158.39"/>
<text text-anchor="start" x="872.01" y="-1165.69" font-family="Helvetica,sans-Serif" font-size="11.00">int4[10]</text>
<polygon fill="none" stroke="black" points="704.01,-1136.39 704.01,-1158.39 869.01,-1158.39 869.01,-1136.39 704.01,-1136.39"/>
<text text-anchor="start" x="724.01" y="-1142.94" font-family="Helvetica,sans-Serif" font-size="11.00">company_id</text>
<polygon fill="none" stroke="black" points="869.01,-1136.39 869.01,-1158.39 977.01,-1158.39 977.01,-1136.39 869.01,-1136.39"/>
<text text-anchor="start" x="872.01" y="-1143.69" font-family="Helvetica,sans-Serif" font-size="11.00">int4[10]</text>
<polygon fill="none" stroke="black" points="704.01,-1114.39 704.01,-1136.39 869.01,-1136.39 869.01,-1114.39 704.01,-1114.39"/>
<text text-anchor="start" x="724.01" y="-1120.94" font-family="Helvetica,sans-Serif" font-size="11.00">color</text>
<polygon fill="none" stroke="black" points="869.01,-1114.39 869.01,-1136.39 977.01,-1136.39 977.01,-1114.39 869.01,-1114.39"/>
<text text-anchor="start" x="872.01" y="-1121.69" font-family="Helvetica,sans-Serif" font-size="11.00">int4[10]</text>
<polygon fill="none" stroke="black" points="704.01,-1092.39 704.01,-1114.39 869.01,-1114.39 869.01,-1092.39 704.01,-1092.39"/>
<text text-anchor="start" x="724.01" y="-1098.94" font-family="Helvetica,sans-Serif" font-size="11.00">displayed_image_id</text>
<polygon fill="none" stroke="black" points="869.01,-1092.39 869.01,-1114.39 977.01,-1114.39 977.01,-1092.39 869.01,-1092.39"/>
<text text-anchor="start" x="872.01" y="-1099.69" font-family="Helvetica,sans-Serif" font-size="11.00">int4[10]</text>
<polygon fill="#ffffff" stroke="none" points="704.01,-1070.39 704.01,-1092.39 869.01,-1092.39 869.01,-1070.39 704.01,-1070.39"/>
<polygon fill="none" stroke="black" points="704.01,-1070.39 704.01,-1092.39 869.01,-1092.39 869.01,-1070.39 704.01,-1070.39"/>
<image xlink:href="../../images/foreignKeys.png" width="11px" height="12px" preserveAspectRatio="xMinYMin meet" x="709.005" y="-1087.39"/>
<text text-anchor="start" x="724.01" y="-1076.94" font-family="Helvetica,sans-Serif" font-size="11.00">parent_id</text>
<polygon fill="none" stroke="black" points="869.01,-1070.39 869.01,-1092.39 977.01,-1092.39 977.01,-1070.39 869.01,-1070.39"/>
<text text-anchor="start" x="872.01" y="-1077.69" font-family="Helvetica,sans-Serif" font-size="11.00">int4[10]</text>
<polygon fill="#ffffff" stroke="none" points="704.01,-1048.39 704.01,-1070.39 869.01,-1070.39 869.01,-1048.39 704.01,-1048.39"/>
<polygon fill="none" stroke="black" points="704.01,-1048.39 704.01,-1070.39 869.01,-1070.39 869.01,-1048.39 704.01,-1048.39"/>
<text text-anchor="start" x="724.01" y="-1054.94" font-family="Helvetica,sans-Serif" font-size="11.00">milestone_id</text>
<polygon fill="none" stroke="black" points="869.01,-1048.39 869.01,-1070.39 977.01,-1070.39 977.01,-1048.39 869.01,-1048.39"/>
<text text-anchor="start" x="872.01" y="-1055.69" font-family="Helvetica,sans-Serif" font-size="11.00">int4[10]</text>
<polygon fill="none" stroke="black" points="704.01,-1026.39 704.01,-1048.39 869.01,-1048.39 869.01,-1026.39 704.01,-1026.39"/>
<text text-anchor="start" x="724.01" y="-1032.94" font-family="Helvetica,sans-Serif" font-size="11.00">recurrence_id</text>
<polygon fill="none" stroke="black" points="869.01,-1026.39 869.01,-1048.39 977.01,-1048.39 977.01,-1026.39 869.01,-1026.39"/>
<text text-anchor="start" x="872.01" y="-1033.69" font-family="Helvetica,sans-Serif" font-size="11.00">int4[10]</text>
<polygon fill="none" stroke="black" points="704.01,-1004.39 704.01,-1026.39 869.01,-1026.39 869.01,-1004.39 704.01,-1004.39"/>
<text text-anchor="start" x="724.01" y="-1010.94" font-family="Helvetica,sans-Serif" font-size="11.00">analytic_account_id</text>
<polygon fill="none" stroke="black" points="869.01,-1004.39 869.01,-1026.39 977.01,-1026.39 977.01,-1004.39 869.01,-1004.39"/>
<text text-anchor="start" x="872.01" y="-1011.69" font-family="Helvetica,sans-Serif" font-size="11.00">int4[10]</text>
<polygon fill="none" stroke="black" points="704.01,-982.39 704.01,-1004.39 869.01,-1004.39 869.01,-982.39 704.01,-982.39"/>
<image xlink:href="../../images/foreignKeys.png" width="11px" height="12px" preserveAspectRatio="xMinYMin meet" x="709.005" y="-999.387"/>
<text text-anchor="start" x="724.01" y="-988.94" font-family="Helvetica,sans-Serif" font-size="11.00">create_uid</text>
<polygon fill="none" stroke="black" points="869.01,-982.39 869.01,-1004.39 977.01,-1004.39 977.01,-982.39 869.01,-982.39"/>
<text text-anchor="start" x="872.01" y="-989.69" font-family="Helvetica,sans-Serif" font-size="11.00">int4[10]</text>
<polygon fill="none" stroke="black" points="704.01,-960.39 704.01,-982.39 869.01,-982.39 869.01,-960.39 704.01,-960.39"/>
<image xlink:href="../../images/foreignKeys.png" width="11px" height="12px" preserveAspectRatio="xMinYMin meet" x="709.005" y="-977.387"/>
<text text-anchor="start" x="724.01" y="-966.94" font-family="Helvetica,sans-Serif" font-size="11.00">write_uid</text>
<polygon fill="none" stroke="black" points="869.01,-960.39 869.01,-982.39 977.01,-982.39 977.01,-960.39 869.01,-960.39"/>
<text text-anchor="start" x="872.01" y="-967.69" font-family="Helvetica,sans-Serif" font-size="11.00">int4[10]</text>
<polygon fill="none" stroke="black" points="704.01,-938.39 704.01,-960.39 869.01,-960.39 869.01,-938.39 704.01,-938.39"/>
<text text-anchor="start" x="724.01" y="-944.94" font-family="Helvetica,sans-Serif" font-size="11.00">email_cc</text>
<polygon fill="none" stroke="black" points="869.01,-938.39 869.01,-960.39 977.01,-960.39 977.01,-938.39 869.01,-938.39"/>
<text text-anchor="start" x="872.01" y="-945.69" font-family="Helvetica,sans-Serif" font-size="11.00">varchar[2147483647]</text>
<polygon fill="none" stroke="black" points="704.01,-916.39 704.01,-938.39 869.01,-938.39 869.01,-916.39 704.01,-916.39"/>
<text text-anchor="start" x="724.01" y="-922.94" font-family="Helvetica,sans-Serif" font-size="11.00">access_token</text>
<polygon fill="none" stroke="black" points="869.01,-916.39 869.01,-938.39 977.01,-938.39 977.01,-916.39 869.01,-916.39"/>
<text text-anchor="start" x="872.01" y="-923.69" font-family="Helvetica,sans-Serif" font-size="11.00">varchar[2147483647]</text>
<polygon fill="#ffffff" stroke="none" points="704.01,-894.39 704.01,-916.39 869.01,-916.39 869.01,-894.39 704.01,-894.39"/>
<polygon fill="none" stroke="black" points="704.01,-894.39 704.01,-916.39 869.01,-916.39 869.01,-894.39 704.01,-894.39"/>
<text text-anchor="start" x="724.01" y="-900.94" font-family="Helvetica,sans-Serif" font-size="11.00">name</text>
<polygon fill="none" stroke="black" points="869.01,-894.39 869.01,-916.39 977.01,-916.39 977.01,-894.39 869.01,-894.39"/>
<text text-anchor="start" x="872.01" y="-901.69" font-family="Helvetica,sans-Serif" font-size="11.00">varchar[2147483647]</text>
<polygon fill="#ffffff" stroke="none" points="704.01,-872.39 704.01,-894.39 869.01,-894.39 869.01,-872.39 704.01,-872.39"/>
<polygon fill="none" stroke="black" points="704.01,-872.39 704.01,-894.39 869.01,-894.39 869.01,-872.39 704.01,-872.39"/>
<text text-anchor="start" x="724.01" y="-878.94" font-family="Helvetica,sans-Serif" font-size="11.00">priority</text>
<polygon fill="none" stroke="black" points="869.01,-872.39 869.01,-894.39 977.01,-894.39 977.01,-872.39 869.01,-872.39"/>
<text text-anchor="start" x="872.01" y="-879.69" font-family="Helvetica,sans-Serif" font-size="11.00">varchar[2147483647]</text>
<polygon fill="#ffffff" stroke="none" points="704.01,-850.39 704.01,-872.39 869.01,-872.39 869.01,-850.39 704.01,-850.39"/>
<polygon fill="none" stroke="black" points="704.01,-850.39 704.01,-872.39 869.01,-872.39 869.01,-850.39 704.01,-850.39"/>
<text text-anchor="start" x="724.01" y="-856.94" font-family="Helvetica,sans-Serif" font-size="11.00">state</text>
<polygon fill="none" stroke="black" points="869.01,-850.39 869.01,-872.39 977.01,-872.39 977.01,-850.39 869.01,-850.39"/>
<text text-anchor="start" x="872.01" y="-857.69" font-family="Helvetica,sans-Serif" font-size="11.00">varchar[2147483647]</text>
<polygon fill="none" stroke="black" points="704.01,-828.39 704.01,-850.39 869.01,-850.39 869.01,-828.39 704.01,-828.39"/>
<text text-anchor="start" x="724.01" y="-834.94" font-family="Helvetica,sans-Serif" font-size="11.00">task_properties</text>
<polygon fill="none" stroke="black" points="869.01,-828.39 869.01,-850.39 977.01,-850.39 977.01,-828.39 869.01,-828.39"/>
<text text-anchor="start" x="872.01" y="-835.69" font-family="Helvetica,sans-Serif" font-size="11.00">jsonb[2147483647]</text>
<polygon fill="none" stroke="black" points="704.01,-806.39 704.01,-828.39 869.01,-828.39 869.01,-806.39 704.01,-806.39"/>
<text text-anchor="start" x="724.01" y="-812.94" font-family="Helvetica,sans-Serif" font-size="11.00">description</text>
<polygon fill="none" stroke="black" points="869.01,-806.39 869.01,-828.39 977.01,-828.39 977.01,-806.39 869.01,-806.39"/>
<text text-anchor="start" x="872.01" y="-813.69" font-family="Helvetica,sans-Serif" font-size="11.00">text[2147483647]</text>
<polygon fill="none" stroke="black" points="704.01,-784.39 704.01,-806.39 869.01,-806.39 869.01,-784.39 704.01,-784.39"/>
<text text-anchor="start" x="724.01" y="-790.94" font-family="Helvetica,sans-Serif" font-size="11.00">working_hours_open</text>
<polygon fill="none" stroke="black" points="869.01,-784.39 869.01,-806.39 977.01,-806.39 977.01,-784.39 869.01,-784.39"/>
<text text-anchor="start" x="872.01" y="-791.69" font-family="Helvetica,sans-Serif" font-size="11.00">numeric[0]</text>
<polygon fill="none" stroke="black" points="704.01,-762.39 704.01,-784.39 869.01,-784.39 869.01,-762.39 704.01,-762.39"/>
<text text-anchor="start" x="724.01" y="-768.94" font-family="Helvetica,sans-Serif" font-size="11.00">working_hours_close</text>
<polygon fill="none" stroke="black" points="869.01,-762.39 869.01,-784.39 977.01,-784.39 977.01,-762.39 869.01,-762.39"/>
<text text-anchor="start" x="872.01" y="-769.69" font-family="Helvetica,sans-Serif" font-size="11.00">numeric[0]</text>
<polygon fill="none" stroke="black" points="704.01,-740.39 704.01,-762.39 869.01,-762.39 869.01,-740.39 704.01,-740.39"/>
<text text-anchor="start" x="724.01" y="-746.94" font-family="Helvetica,sans-Serif" font-size="11.00">active</text>
<polygon fill="none" stroke="black" points="869.01,-740.39 869.01,-762.39 977.01,-762.39 977.01,-740.39 869.01,-740.39"/>
<text text-anchor="start" x="872.01" y="-747.69" font-family="Helvetica,sans-Serif" font-size="11.00">bool[1]</text>
<polygon fill="none" stroke="black" points="704.01,-718.39 704.01,-740.39 869.01,-740.39 869.01,-718.39 704.01,-718.39"/>
<text text-anchor="start" x="724.01" y="-724.94" font-family="Helvetica,sans-Serif" font-size="11.00">display_in_project</text>
<polygon fill="none" stroke="black" points="869.01,-718.39 869.01,-740.39 977.01,-740.39 977.01,-718.39 869.01,-718.39"/>
<text text-anchor="start" x="872.01" y="-725.69" font-family="Helvetica,sans-Serif" font-size="11.00">bool[1]</text>
<polygon fill="none" stroke="black" points="704.01,-696.39 704.01,-718.39 869.01,-718.39 869.01,-696.39 704.01,-696.39"/>
<text text-anchor="start" x="724.01" y="-702.94" font-family="Helvetica,sans-Serif" font-size="11.00">recurring_task</text>
<polygon fill="none" stroke="black" points="869.01,-696.39 869.01,-718.39 977.01,-718.39 977.01,-696.39 869.01,-696.39"/>
<text text-anchor="start" x="872.01" y="-703.69" font-family="Helvetica,sans-Serif" font-size="11.00">bool[1]</text>
<polygon fill="#ffffff" stroke="none" points="704.01,-674.39 704.01,-696.39 869.01,-696.39 869.01,-674.39 704.01,-674.39"/>
<polygon fill="none" stroke="black" points="704.01,-674.39 704.01,-696.39 869.01,-696.39 869.01,-674.39 704.01,-674.39"/>
<text text-anchor="start" x="724.01" y="-680.94" font-family="Helvetica,sans-Serif" font-size="11.00">create_date</text>
<polygon fill="none" stroke="black" points="869.01,-674.39 869.01,-696.39 977.01,-696.39 977.01,-674.39 869.01,-674.39"/>
<text text-anchor="start" x="872.01" y="-681.69" font-family="Helvetica,sans-Serif" font-size="11.00">timestamp[29,6]</text>
<polygon fill="none" stroke="black" points="704.01,-652.39 704.01,-674.39 869.01,-674.39 869.01,-652.39 704.01,-652.39"/>
<text text-anchor="start" x="724.01" y="-658.94" font-family="Helvetica,sans-Serif" font-size="11.00">write_date</text>
<polygon fill="none" stroke="black" points="869.01,-652.39 869.01,-674.39 977.01,-674.39 977.01,-652.39 869.01,-652.39"/>
<text text-anchor="start" x="872.01" y="-659.69" font-family="Helvetica,sans-Serif" font-size="11.00">timestamp[29,6]</text>
<polygon fill="#ffffff" stroke="none" points="704.01,-630.39 704.01,-652.39 869.01,-652.39 869.01,-630.39 704.01,-630.39"/>
<polygon fill="none" stroke="black" points="704.01,-630.39 704.01,-652.39 869.01,-652.39 869.01,-630.39 704.01,-630.39"/>
<text text-anchor="start" x="724.01" y="-636.94" font-family="Helvetica,sans-Serif" font-size="11.00">date_end</text>
<polygon fill="none" stroke="black" points="869.01,-630.39 869.01,-652.39 977.01,-652.39 977.01,-630.39 869.01,-630.39"/>
<text text-anchor="start" x="872.01" y="-637.69" font-family="Helvetica,sans-Serif" font-size="11.00">timestamp[29,6]</text>
<polygon fill="none" stroke="black" points="704.01,-608.39 704.01,-630.39 869.01,-630.39 869.01,-608.39 704.01,-608.39"/>
<text text-anchor="start" x="724.01" y="-614.94" font-family="Helvetica,sans-Serif" font-size="11.00">date_assign</text>
<polygon fill="none" stroke="black" points="869.01,-608.39 869.01,-630.39 977.01,-630.39 977.01,-608.39 869.01,-608.39"/>
<text text-anchor="start" x="872.01" y="-615.69" font-family="Helvetica,sans-Serif" font-size="11.00">timestamp[29,6]</text>
<polygon fill="#ffffff" stroke="none" points="704.01,-586.39 704.01,-608.39 869.01,-608.39 869.01,-586.39 704.01,-586.39"/>
<polygon fill="none" stroke="black" points="704.01,-586.39 704.01,-608.39 869.01,-608.39 869.01,-586.39 704.01,-586.39"/>
<text text-anchor="start" x="724.01" y="-592.94" font-family="Helvetica,sans-Serif" font-size="11.00">date_deadline</text>
<polygon fill="none" stroke="black" points="869.01,-586.39 869.01,-608.39 977.01,-608.39 977.01,-586.39 869.01,-586.39"/>
<text text-anchor="start" x="872.01" y="-593.69" font-family="Helvetica,sans-Serif" font-size="11.00">timestamp[29,6]</text>
<polygon fill="#ffffff" stroke="none" points="704.01,-564.39 704.01,-586.39 869.01,-586.39 869.01,-564.39 704.01,-564.39"/>
<polygon fill="none" stroke="black" points="704.01,-564.39 704.01,-586.39 869.01,-586.39 869.01,-564.39 704.01,-564.39"/>
<text text-anchor="start" x="724.01" y="-570.94" font-family="Helvetica,sans-Serif" font-size="11.00">date_last_stage_update</text>
<polygon fill="none" stroke="black" points="869.01,-564.39 869.01,-586.39 977.01,-586.39 977.01,-564.39 869.01,-564.39"/>
<text text-anchor="start" x="872.01" y="-571.69" font-family="Helvetica,sans-Serif" font-size="11.00">timestamp[29,6]</text>
<polygon fill="none" stroke="black" points="704.01,-542.39 704.01,-564.39 869.01,-564.39 869.01,-542.39 704.01,-542.39"/>
<text text-anchor="start" x="724.01" y="-548.94" font-family="Helvetica,sans-Serif" font-size="11.00">rating_last_value</text>
<polygon fill="none" stroke="black" points="869.01,-542.39 869.01,-564.39 977.01,-564.39 977.01,-542.39 869.01,-542.39"/>
<text text-anchor="start" x="872.01" y="-549.69" font-family="Helvetica,sans-Serif" font-size="11.00">float8[17,17]</text>
<polygon fill="none" stroke="black" points="704.01,-520.39 704.01,-542.39 869.01,-542.39 869.01,-520.39 704.01,-520.39"/>
<text text-anchor="start" x="724.01" y="-526.94" font-family="Helvetica,sans-Serif" font-size="11.00">allocated_hours</text>
<polygon fill="none" stroke="black" points="869.01,-520.39 869.01,-542.39 977.01,-542.39 977.01,-520.39 869.01,-520.39"/>
<text text-anchor="start" x="872.01" y="-527.69" font-family="Helvetica,sans-Serif" font-size="11.00">float8[17,17]</text>
<polygon fill="none" stroke="black" points="704.01,-498.39 704.01,-520.39 869.01,-520.39 869.01,-498.39 704.01,-498.39"/>
<text text-anchor="start" x="724.01" y="-504.94" font-family="Helvetica,sans-Serif" font-size="11.00">working_days_open</text>
<polygon fill="none" stroke="black" points="869.01,-498.39 869.01,-520.39 977.01,-520.39 977.01,-498.39 869.01,-498.39"/>
<text text-anchor="start" x="872.01" y="-505.69" font-family="Helvetica,sans-Serif" font-size="11.00">float8[17,17]</text>
<polygon fill="none" stroke="black" points="704.01,-476.39 704.01,-498.39 869.01,-498.39 869.01,-476.39 704.01,-476.39"/>
<text text-anchor="start" x="724.01" y="-482.94" font-family="Helvetica,sans-Serif" font-size="11.00">working_days_close</text>
<polygon fill="none" stroke="black" points="869.01,-476.39 869.01,-498.39 977.01,-498.39 977.01,-476.39 869.01,-476.39"/>
<text text-anchor="start" x="872.01" y="-483.69" font-family="Helvetica,sans-Serif" font-size="11.00">float8[17,17]</text>
<polygon fill="none" stroke="black" points="704.01,-454.39 704.01,-476.39 869.01,-476.39 869.01,-454.39 704.01,-454.39"/>
<text text-anchor="start" x="724.01" y="-460.94" font-family="Helvetica,sans-Serif" font-size="11.00">remaining_hours</text>
<polygon fill="none" stroke="black" points="869.01,-454.39 869.01,-476.39 977.01,-476.39 977.01,-454.39 869.01,-454.39"/>
<text text-anchor="start" x="872.01" y="-461.69" font-family="Helvetica,sans-Serif" font-size="11.00">float8[17,17]</text>
<polygon fill="none" stroke="black" points="704.01,-432.39 704.01,-454.39 869.01,-454.39 869.01,-432.39 704.01,-432.39"/>
<text text-anchor="start" x="724.01" y="-438.94" font-family="Helvetica,sans-Serif" font-size="11.00">effective_hours</text>
<polygon fill="none" stroke="black" points="869.01,-432.39 869.01,-454.39 977.01,-454.39 977.01,-432.39 869.01,-432.39"/>
<text text-anchor="start" x="872.01" y="-439.69" font-family="Helvetica,sans-Serif" font-size="11.00">float8[17,17]</text>
<polygon fill="none" stroke="black" points="704.01,-410.39 704.01,-432.39 869.01,-432.39 869.01,-410.39 704.01,-410.39"/>
<text text-anchor="start" x="724.01" y="-416.94" font-family="Helvetica,sans-Serif" font-size="11.00">total_hours_spent</text>
<polygon fill="none" stroke="black" points="869.01,-410.39 869.01,-432.39 977.01,-432.39 977.01,-410.39 869.01,-410.39"/>
<text text-anchor="start" x="872.01" y="-417.69" font-family="Helvetica,sans-Serif" font-size="11.00">float8[17,17]</text>
<polygon fill="none" stroke="black" points="704.01,-388.39 704.01,-410.39 869.01,-410.39 869.01,-388.39 704.01,-388.39"/>
<text text-anchor="start" x="724.01" y="-394.94" font-family="Helvetica,sans-Serif" font-size="11.00">progress</text>
<polygon fill="none" stroke="black" points="869.01,-388.39 869.01,-410.39 977.01,-410.39 977.01,-388.39 869.01,-388.39"/>
<text text-anchor="start" x="872.01" y="-395.69" font-family="Helvetica,sans-Serif" font-size="11.00">float8[17,17]</text>
<polygon fill="none" stroke="black" points="704.01,-366.39 704.01,-388.39 869.01,-388.39 869.01,-366.39 704.01,-366.39"/>
<text text-anchor="start" x="724.01" y="-372.94" font-family="Helvetica,sans-Serif" font-size="11.00">overtime</text>
<polygon fill="none" stroke="black" points="869.01,-366.39 869.01,-388.39 977.01,-388.39 977.01,-366.39 869.01,-366.39"/>
<text text-anchor="start" x="872.01" y="-373.69" font-family="Helvetica,sans-Serif" font-size="11.00">float8[17,17]</text>
<polygon fill="none" stroke="black" points="704.01,-344.39 704.01,-366.39 869.01,-366.39 869.01,-344.39 704.01,-344.39"/>
<text text-anchor="start" x="724.01" y="-350.94" font-family="Helvetica,sans-Serif" font-size="11.00">subtask_effective_hours</text>
<polygon fill="none" stroke="black" points="869.01,-344.39 869.01,-366.39 977.01,-366.39 977.01,-344.39 869.01,-344.39"/>
<text text-anchor="start" x="872.01" y="-351.69" font-family="Helvetica,sans-Serif" font-size="11.00">float8[17,17]</text>
<polygon fill="none" stroke="black" points="704.01,-322.39 704.01,-344.39 869.01,-344.39 869.01,-322.39 704.01,-322.39"/>
<text text-anchor="start" x="724.01" y="-328.94" font-family="Helvetica,sans-Serif" font-size="11.00">planned_date_begin</text>
<polygon fill="none" stroke="black" points="869.01,-322.39 869.01,-344.39 977.01,-344.39 977.01,-322.39 869.01,-322.39"/>
<text text-anchor="start" x="872.01" y="-329.69" font-family="Helvetica,sans-Serif" font-size="11.00">timestamp[29,6]</text>
<polygon fill="none" stroke="black" points="704.01,-300.39 704.01,-322.39 869.01,-322.39 869.01,-300.39 704.01,-300.39"/>
<image xlink:href="../../images/foreignKeys.png" width="11px" height="12px" preserveAspectRatio="xMinYMin meet" x="709.005" y="-317.387"/>
<text text-anchor="start" x="724.01" y="-306.94" font-family="Helvetica,sans-Serif" font-size="11.00">sale_order_id</text>
<polygon fill="none" stroke="black" points="869.01,-300.39 869.01,-322.39 977.01,-322.39 977.01,-300.39 869.01,-300.39"/>
<text text-anchor="start" x="872.01" y="-307.69" font-family="Helvetica,sans-Serif" font-size="11.00">int4[10]</text>
<polygon fill="#ffffff" stroke="none" points="704.01,-278.39 704.01,-300.39 869.01,-300.39 869.01,-278.39 704.01,-278.39"/>
<polygon fill="none" stroke="black" points="704.01,-278.39 704.01,-300.39 869.01,-300.39 869.01,-278.39 704.01,-278.39"/>
<image xlink:href="../../images/foreignKeys.png" width="11px" height="12px" preserveAspectRatio="xMinYMin meet" x="709.005" y="-295.387"/>
<text text-anchor="start" x="724.01" y="-284.94" font-family="Helvetica,sans-Serif" font-size="11.00">sale_line_id</text>
<polygon fill="none" stroke="black" points="869.01,-278.39 869.01,-300.39 977.01,-300.39 977.01,-278.39 869.01,-278.39"/>
<text text-anchor="start" x="872.01" y="-285.69" font-family="Helvetica,sans-Serif" font-size="11.00">int4[10]</text>
<polygon fill="#ffffff" stroke="none" points="704.01,-259.39 704.01,-278.39 791.01,-278.39 791.01,-259.39 704.01,-259.39"/>
<polygon fill="none" stroke="black" points="704.01,-259.39 704.01,-278.39 791.01,-278.39 791.01,-259.39 704.01,-259.39"/>
<text text-anchor="start" x="707.01" y="-264.94" font-family="Helvetica,sans-Serif" font-size="11.00">&lt; 8</text>
<polygon fill="#ffffff" stroke="none" points="791.01,-259.39 791.01,-278.39 869.01,-278.39 869.01,-259.39 791.01,-259.39"/>
<polygon fill="none" stroke="black" points="791.01,-259.39 791.01,-278.39 869.01,-278.39 869.01,-259.39 791.01,-259.39"/>
<text text-anchor="start" x="860.01" y="-264.94" font-family="Helvetica,sans-Serif" font-size="11.00"> &#160;</text>
<polygon fill="#ffffff" stroke="none" points="869.01,-259.39 869.01,-278.39 977.01,-278.39 977.01,-259.39 869.01,-259.39"/>
<polygon fill="none" stroke="black" points="869.01,-259.39 869.01,-278.39 977.01,-278.39 977.01,-259.39 869.01,-259.39"/>
<text text-anchor="start" x="958.26" y="-264.94" font-family="Helvetica,sans-Serif" font-size="11.00">2 &gt;</text>
<polygon fill="none" stroke="black" stroke-width="2" points="703.01,-258.39 703.01,-1292.39 978.01,-1292.39 978.01,-258.39 703.01,-258.39"/>
</a>
</g>
</g>
<!-- sale_order_line&#45;&gt;project_task -->
<g id="edge38" class="edge">
<title>sale_order_line:w&#45;&gt;project_task:e</title>
<path fill="none" stroke="black" d="M1012.75,-232.47C928.54,-320.32 1087.37,-1257.39 978.01,-1257.39"/>
<polygon fill="black" stroke="black" points="1019.44,-229.38 1028.21,-229.3 1023.37,-227.57 1026.4,-226.17 1026.4,-226.17 1026.4,-226.17 1023.37,-227.57 1025.19,-222.76 1019.44,-229.38"/>
<ellipse fill="none" stroke="black" cx="1014.98" cy="-231.45" rx="3.2" ry="3.2"/>
</g>
<!-- sale_order -->
<g id="node6" class="node">
<title>sale_order</title>
<g id="a_node6"><a xlink:href="../../tables/sale_order.html" xlink:title="sale_order" target="_top">
<polygon fill="#ffffff" stroke="none" points="455.01,-511.89 455.01,-1144.89 653.01,-1144.89 653.01,-511.89 455.01,-511.89"/>
<polygon fill="#f5f5f5" stroke="none" points="455.01,-1121.89 455.01,-1144.89 653.01,-1144.89 653.01,-1121.89 455.01,-1121.89"/>
<polygon fill="none" stroke="black" points="455.01,-1121.89 455.01,-1144.89 653.01,-1144.89 653.01,-1121.89 455.01,-1121.89"/>
<text text-anchor="start" x="460.01" y="-1129.69" font-family="Helvetica,sans-Serif" font-weight="bold" font-size="11.00">sale_order</text>
<text text-anchor="start" x="618.76" y="-1129.44" font-family="Helvetica,sans-Serif" font-size="11.00">[table]</text>
<polygon fill="none" stroke="black" points="455.01,-1099.89 455.01,-1121.89 653.01,-1121.89 653.01,-1099.89 455.01,-1099.89"/>
<image xlink:href="../../images/primaryKeys.png" width="11px" height="12px" preserveAspectRatio="xMinYMin meet" x="460.005" y="-1116.89"/>
<text text-anchor="start" x="475.01" y="-1106.44" font-family="Helvetica,sans-Serif" font-size="11.00">id</text>
<polygon fill="#ffffff" stroke="none" points="455.01,-1077.89 455.01,-1099.89 653.01,-1099.89 653.01,-1077.89 455.01,-1077.89"/>
<polygon fill="none" stroke="black" points="455.01,-1077.89 455.01,-1099.89 653.01,-1099.89 653.01,-1077.89 455.01,-1077.89"/>
<text text-anchor="start" x="475.01" y="-1084.44" font-family="Helvetica,sans-Serif" font-size="11.00">company_id</text>
<polygon fill="#ffffff" stroke="none" points="455.01,-1055.89 455.01,-1077.89 653.01,-1077.89 653.01,-1055.89 455.01,-1055.89"/>
<polygon fill="none" stroke="black" points="455.01,-1055.89 455.01,-1077.89 653.01,-1077.89 653.01,-1055.89 455.01,-1055.89"/>
<image xlink:href="../../images/foreignKeys.png" width="11px" height="12px" preserveAspectRatio="xMinYMin meet" x="460.005" y="-1072.89"/>
<text text-anchor="start" x="475.01" y="-1062.44" font-family="Helvetica,sans-Serif" font-size="11.00">partner_id</text>
<polygon fill="none" stroke="black" points="455.01,-1033.89 455.01,-1055.89 653.01,-1055.89 653.01,-1033.89 455.01,-1033.89"/>
<image xlink:href="../../images/foreignKeys.png" width="11px" height="12px" preserveAspectRatio="xMinYMin meet" x="460.005" y="-1050.89"/>
<text text-anchor="start" x="475.01" y="-1040.44" font-family="Helvetica,sans-Serif" font-size="11.00">journal_id</text>
<polygon fill="#ffffff" stroke="none" points="455.01,-1011.89 455.01,-1033.89 653.01,-1033.89 653.01,-1011.89 455.01,-1011.89"/>
<polygon fill="none" stroke="black" points="455.01,-1011.89 455.01,-1033.89 653.01,-1033.89 653.01,-1011.89 455.01,-1011.89"/>
<image xlink:href="../../images/foreignKeys.png" width="11px" height="12px" preserveAspectRatio="xMinYMin meet" x="460.005" y="-1028.89"/>
<text text-anchor="start" x="475.01" y="-1018.44" font-family="Helvetica,sans-Serif" font-size="11.00">partner_invoice_id</text>
<polygon fill="#ffffff" stroke="none" points="455.01,-989.89 455.01,-1011.89 653.01,-1011.89 653.01,-989.89 455.01,-989.89"/>
<polygon fill="none" stroke="black" points="455.01,-989.89 455.01,-1011.89 653.01,-1011.89 653.01,-989.89 455.01,-989.89"/>
<image xlink:href="../../images/foreignKeys.png" width="11px" height="12px" preserveAspectRatio="xMinYMin meet" x="460.005" y="-1006.89"/>
<text text-anchor="start" x="475.01" y="-996.44" font-family="Helvetica,sans-Serif" font-size="11.00">partner_shipping_id</text>
<polygon fill="none" stroke="black" points="455.01,-967.89 455.01,-989.89 653.01,-989.89 653.01,-967.89 455.01,-967.89"/>
<image xlink:href="../../images/foreignKeys.png" width="11px" height="12px" preserveAspectRatio="xMinYMin meet" x="460.005" y="-984.887"/>
<text text-anchor="start" x="475.01" y="-974.44" font-family="Helvetica,sans-Serif" font-size="11.00">fiscal_position_id</text>
<polygon fill="#ffffff" stroke="none" points="455.01,-945.89 455.01,-967.89 653.01,-967.89 653.01,-945.89 455.01,-945.89"/>
<polygon fill="none" stroke="black" points="455.01,-945.89 455.01,-967.89 653.01,-967.89 653.01,-945.89 455.01,-945.89"/>
<image xlink:href="../../images/foreignKeys.png" width="11px" height="12px" preserveAspectRatio="xMinYMin meet" x="460.005" y="-962.887"/>
<text text-anchor="start" x="475.01" y="-952.44" font-family="Helvetica,sans-Serif" font-size="11.00">user_id</text>
<polygon fill="none" stroke="black" points="455.01,-923.89 455.01,-945.89 653.01,-945.89 653.01,-923.89 455.01,-923.89"/>
<image xlink:href="../../images/foreignKeys.png" width="11px" height="12px" preserveAspectRatio="xMinYMin meet" x="460.005" y="-940.887"/>
<text text-anchor="start" x="475.01" y="-930.44" font-family="Helvetica,sans-Serif" font-size="11.00">team_id</text>
<polygon fill="none" stroke="black" points="455.01,-901.89 455.01,-923.89 653.01,-923.89 653.01,-901.89 455.01,-901.89"/>
<image xlink:href="../../images/foreignKeys.png" width="11px" height="12px" preserveAspectRatio="xMinYMin meet" x="460.005" y="-918.887"/>
<text text-anchor="start" x="475.01" y="-908.44" font-family="Helvetica,sans-Serif" font-size="11.00">create_uid</text>
<polygon fill="none" stroke="black" points="455.01,-879.89 455.01,-901.89 653.01,-901.89 653.01,-879.89 455.01,-879.89"/>
<image xlink:href="../../images/foreignKeys.png" width="11px" height="12px" preserveAspectRatio="xMinYMin meet" x="460.005" y="-896.887"/>
<text text-anchor="start" x="475.01" y="-886.44" font-family="Helvetica,sans-Serif" font-size="11.00">write_uid</text>
<polygon fill="#ffffff" stroke="none" points="455.01,-857.89 455.01,-879.89 653.01,-879.89 653.01,-857.89 455.01,-857.89"/>
<polygon fill="none" stroke="black" points="455.01,-857.89 455.01,-879.89 653.01,-879.89 653.01,-857.89 455.01,-857.89"/>
<text text-anchor="start" x="475.01" y="-864.44" font-family="Helvetica,sans-Serif" font-size="11.00">name</text>
<polygon fill="#ffffff" stroke="none" points="455.01,-835.89 455.01,-857.89 653.01,-857.89 653.01,-835.89 455.01,-835.89"/>
<polygon fill="none" stroke="black" points="455.01,-835.89 455.01,-857.89 653.01,-857.89 653.01,-835.89 455.01,-835.89"/>
<text text-anchor="start" x="475.01" y="-842.44" font-family="Helvetica,sans-Serif" font-size="11.00">state</text>
<polygon fill="#ffffff" stroke="none" points="455.01,-813.89 455.01,-835.89 653.01,-835.89 653.01,-813.89 455.01,-813.89"/>
<polygon fill="none" stroke="black" points="455.01,-813.89 455.01,-835.89 653.01,-835.89 653.01,-813.89 455.01,-813.89"/>
<text text-anchor="start" x="475.01" y="-820.44" font-family="Helvetica,sans-Serif" font-size="11.00">create_date</text>
<polygon fill="#ffffff" stroke="none" points="455.01,-791.89 455.01,-813.89 653.01,-813.89 653.01,-791.89 455.01,-791.89"/>
<polygon fill="none" stroke="black" points="455.01,-791.89 455.01,-813.89 653.01,-813.89 653.01,-791.89 455.01,-791.89"/>
<text text-anchor="start" x="475.01" y="-798.44" font-family="Helvetica,sans-Serif" font-size="11.00">date_order</text>
<polygon fill="none" stroke="black" points="455.01,-769.89 455.01,-791.89 653.01,-791.89 653.01,-769.89 455.01,-769.89"/>
<image xlink:href="../../images/foreignKeys.png" width="11px" height="12px" preserveAspectRatio="xMinYMin meet" x="460.005" y="-786.887"/>
<text text-anchor="start" x="475.01" y="-776.44" font-family="Helvetica,sans-Serif" font-size="11.00">opportunity_id</text>
<polygon fill="#ffffff" stroke="none" points="455.01,-747.89 455.01,-769.89 653.01,-769.89 653.01,-747.89 455.01,-747.89"/>
<polygon fill="none" stroke="black" points="455.01,-747.89 455.01,-769.89 653.01,-769.89 653.01,-747.89 455.01,-747.89"/>
<text text-anchor="start" x="475.01" y="-754.44" font-family="Helvetica,sans-Serif" font-size="11.00">is_subscription</text>
<polygon fill="#ffffff" stroke="none" points="455.01,-725.89 455.01,-747.89 653.01,-747.89 653.01,-725.89 455.01,-725.89"/>
<polygon fill="none" stroke="black" points="455.01,-725.89 455.01,-747.89 653.01,-747.89 653.01,-725.89 455.01,-725.89"/>
<text text-anchor="start" x="475.01" y="-732.44" font-family="Helvetica,sans-Serif" font-size="11.00">subscription_state</text>
<polygon fill="#ffffff" stroke="none" points="455.01,-703.89 455.01,-725.89 653.01,-725.89 653.01,-703.89 455.01,-703.89"/>
<polygon fill="none" stroke="black" points="455.01,-703.89 455.01,-725.89 653.01,-725.89 653.01,-703.89 455.01,-703.89"/>
<image xlink:href="../../images/foreignKeys.png" width="11px" height="12px" preserveAspectRatio="xMinYMin meet" x="460.005" y="-720.887"/>
<text text-anchor="start" x="475.01" y="-710.44" font-family="Helvetica,sans-Serif" font-size="11.00">origin_order_id</text>
<polygon fill="#ffffff" stroke="none" points="455.01,-681.89 455.01,-703.89 653.01,-703.89 653.01,-681.89 455.01,-681.89"/>
<polygon fill="none" stroke="black" points="455.01,-681.89 455.01,-703.89 653.01,-703.89 653.01,-681.89 455.01,-681.89"/>
<image xlink:href="../../images/foreignKeys.png" width="11px" height="12px" preserveAspectRatio="xMinYMin meet" x="460.005" y="-698.887"/>
<text text-anchor="start" x="475.01" y="-688.44" font-family="Helvetica,sans-Serif" font-size="11.00">subscription_id</text>
<polygon fill="#ffffff" stroke="none" points="455.01,-659.89 455.01,-681.89 653.01,-681.89 653.01,-659.89 455.01,-659.89"/>
<polygon fill="none" stroke="black" points="455.01,-659.89 455.01,-681.89 653.01,-681.89 653.01,-659.89 455.01,-659.89"/>
<text text-anchor="start" x="475.01" y="-666.44" font-family="Helvetica,sans-Serif" font-size="11.00">plan_id</text>
<polygon fill="none" stroke="black" points="455.01,-637.89 455.01,-659.89 653.01,-659.89 653.01,-637.89 455.01,-637.89"/>
<image xlink:href="../../images/foreignKeys.png" width="11px" height="12px" preserveAspectRatio="xMinYMin meet" x="460.005" y="-654.887"/>
<text text-anchor="start" x="475.01" y="-644.44" font-family="Helvetica,sans-Serif" font-size="11.00">project_id</text>
<polygon fill="none" stroke="black" points="455.01,-615.89 455.01,-637.89 653.01,-637.89 653.01,-615.89 455.01,-615.89"/>
<image xlink:href="../../images/foreignKeys.png" width="11px" height="12px" preserveAspectRatio="xMinYMin meet" x="460.005" y="-632.887"/>
<text text-anchor="start" x="475.01" y="-622.44" font-family="Helvetica,sans-Serif" font-size="11.00">sale_assist_user_id</text>
<polygon fill="none" stroke="black" points="455.01,-593.89 455.01,-615.89 653.01,-615.89 653.01,-593.89 455.01,-593.89"/>
<image xlink:href="../../images/foreignKeys.png" width="11px" height="12px" preserveAspectRatio="xMinYMin meet" x="460.005" y="-610.887"/>
<text text-anchor="start" x="475.01" y="-600.44" font-family="Helvetica,sans-Serif" font-size="11.00">introduced_by_user_id</text>
<polygon fill="none" stroke="black" points="455.01,-571.89 455.01,-593.89 653.01,-593.89 653.01,-571.89 455.01,-571.89"/>
<image xlink:href="../../images/foreignKeys.png" width="11px" height="12px" preserveAspectRatio="xMinYMin meet" x="460.005" y="-588.887"/>
<text text-anchor="start" x="475.01" y="-578.44" font-family="Helvetica,sans-Serif" font-size="11.00">citizen_id</text>
<polygon fill="none" stroke="black" points="455.01,-549.89 455.01,-571.89 653.01,-571.89 653.01,-549.89 455.01,-549.89"/>
<image xlink:href="../../images/foreignKeys.png" width="11px" height="12px" preserveAspectRatio="xMinYMin meet" x="460.005" y="-566.887"/>
<text text-anchor="start" x="475.01" y="-556.44" font-family="Helvetica,sans-Serif" font-size="11.00">project_campaign_id</text>
<polygon fill="none" stroke="black" points="455.01,-530.89 455.01,-549.89 653.01,-549.89 653.01,-530.89 455.01,-530.89"/>
<text text-anchor="start" x="458.01" y="-536.44" font-family="Helvetica,sans-Serif" font-size="11.00">...</text>
<polygon fill="#ffffff" stroke="none" points="455.01,-511.89 455.01,-530.89 551.01,-530.89 551.01,-511.89 455.01,-511.89"/>
<polygon fill="none" stroke="black" points="455.01,-511.89 455.01,-530.89 551.01,-530.89 551.01,-511.89 455.01,-511.89"/>
<text text-anchor="start" x="458.01" y="-517.44" font-family="Helvetica,sans-Serif" font-size="11.00">&lt; 17</text>
<polygon fill="#ffffff" stroke="none" points="551.01,-511.89 551.01,-530.89 597.01,-530.89 597.01,-511.89 551.01,-511.89"/>
<polygon fill="none" stroke="black" points="551.01,-511.89 551.01,-530.89 597.01,-530.89 597.01,-511.89 551.01,-511.89"/>
<text text-anchor="start" x="588.01" y="-517.44" font-family="Helvetica,sans-Serif" font-size="11.00"> &#160;</text>
<polygon fill="#ffffff" stroke="none" points="597.01,-511.89 597.01,-530.89 653.01,-530.89 653.01,-511.89 597.01,-511.89"/>
<polygon fill="none" stroke="black" points="597.01,-511.89 597.01,-530.89 653.01,-530.89 653.01,-511.89 597.01,-511.89"/>
<text text-anchor="start" x="634.26" y="-517.44" font-family="Helvetica,sans-Serif" font-size="11.00">5 &gt;</text>
</a>
</g>
</g>
<!-- sale_order_line&#45;&gt;sale_order -->
<g id="edge34" class="edge">
<title>sale_order_line:w&#45;&gt;sale_order:e</title>
<path fill="none" stroke="black" d="M1013.07,-430.57C940.44,-509.25 1055.41,-1256.96 987.01,-1322.39 892.9,-1412.4 794.28,-1405.47 694.01,-1322.39 620.34,-1261.35 749.67,-1110.89 654.01,-1110.89"/>
<polygon fill="black" stroke="black" points="1019.49,-427.49 1028.26,-427.28 1023.4,-425.62 1026.4,-424.18 1026.4,-424.18 1026.4,-424.18 1023.4,-425.62 1025.15,-420.79 1019.49,-427.49"/>
<ellipse fill="none" stroke="black" cx="1015.06" cy="-429.62" rx="3.2" ry="3.2"/>
</g>
<!-- project_task&#45;&gt;project_project -->
<g id="edge9" class="edge">
<title>project_task:w&#45;&gt;project_project:e</title>
<path fill="none" stroke="black" d="M691.82,-1202.53C683.3,-1227.02 690.93,-1284.44 704.01,-1297.39 748.68,-1341.65 932.69,-1329.08 987.01,-1297.39 1081.13,-1242.47 1562.98,-434.89 1454.01,-434.89"/>
<polygon fill="black" stroke="black" points="697.1,-1197.27 705.31,-1194.17 700.17,-1194.21 702.53,-1191.86 702.53,-1191.86 702.53,-1191.86 700.17,-1194.21 700.23,-1189.07 697.1,-1197.27"/>
<ellipse fill="none" stroke="black" cx="693.61" cy="-1200.74" rx="3.2" ry="3.2"/>
</g>
<!-- project_task&#45;&gt;res_users -->
<g id="edge6" class="edge">
<title>project_task:w&#45;&gt;res_users:e</title>
<path fill="none" stroke="black" d="M690.03,-985.19C640.33,-912.4 711.07,-378.38 661.01,-331.39 626.33,-298.84 486.23,-304.5 447.01,-331.39 406.33,-359.27 456.32,-434.89 407.01,-434.89"/>
<polygon fill="black" stroke="black" points="695.96,-988.94 700.8,-996.25 699.62,-991.25 702.44,-993.03 702.44,-993.03 702.44,-993.03 699.62,-991.25 704.64,-990.17 695.96,-988.94"/>
<ellipse fill="none" stroke="black" cx="691.8" cy="-986.31" rx="3.2" ry="3.2"/>
</g>
<!-- project_task&#45;&gt;res_users -->
<g id="edge13" class="edge">
<title>project_task:w&#45;&gt;res_users:e</title>
<path fill="none" stroke="black" d="M689.95,-963.14C639.99,-889.91 711.36,-352.67 661.01,-305.39 591.67,-240.28 523.54,-248.92 447.01,-305.39 398.53,-341.15 467.24,-434.89 407.01,-434.89"/>
<polygon fill="black" stroke="black" points="695.96,-966.94 700.8,-974.25 699.62,-969.25 702.44,-971.03 702.44,-971.03 702.44,-971.03 699.62,-969.25 704.65,-968.17 695.96,-966.94"/>
<ellipse fill="none" stroke="black" cx="691.8" cy="-964.31" rx="3.2" ry="3.2"/>
</g>
<!-- project_task&#45;&gt;res_partner -->
<g id="edge8" class="edge">
<title>project_task:w&#45;&gt;res_partner:e</title>
<path fill="none" stroke="black" d="M687.17,-1169.42C482.57,-1170.18 359.23,-1183.33 250.01,-1005.39 224.18,-963.32 259.37,-786.89 210.01,-786.89"/>
<polygon fill="black" stroke="black" points="694.67,-1169.4 702.68,-1172.99 699.01,-1169.4 702.34,-1169.39 702.34,-1169.39 702.34,-1169.39 699.01,-1169.4 702.66,-1165.79 694.67,-1169.4"/>
<ellipse fill="none" stroke="black" cx="689.75" cy="-1169.41" rx="3.2" ry="3.2"/>
</g>
<!-- project_task&#45;&gt;sale_order_line -->
<g id="edge10" class="edge">
<title>project_task:w&#45;&gt;sale_order_line:e</title>
<path fill="none" stroke="black" d="M693.07,-277.33C693.36,-269.39 697.82,-259.4 704.01,-253.39 715.28,-242.43 975.13,-243.09 987.01,-253.39 1065.2,-321.18 941.81,-416.09 1020.01,-483.89 1089.52,-544.16 1161.1,-548.08 1227.01,-483.89 1239.11,-472.1 1244.9,-445.89 1228.01,-445.89"/>
<polygon fill="black" stroke="black" points="697.71,-282.95 700.01,-291.42 700.46,-286.3 702.58,-288.87 702.58,-288.87 702.58,-288.87 700.46,-286.3 705.57,-286.84 697.71,-282.95"/>
<ellipse fill="none" stroke="black" cx="694.58" cy="-279.16" rx="3.2" ry="3.2"/>
</g>
<!-- project_task&#45;&gt;project_task -->
<g id="edge7" class="edge">
<title>project_task:w&#45;&gt;project_task:e</title>
<path fill="none" stroke="black" d="M698.19,-1095.98C632.54,-1262.5 638.17,-1310.39 840.51,-1310.39 1048.63,-1310.39 1048.63,-1301.72 977.01,-1257.39"/>
<polygon fill="black" stroke="black" points="700.92,-1089.13 707.23,-1083.03 702.53,-1085.1 703.76,-1082.01 703.76,-1082.01 703.76,-1082.01 702.53,-1085.1 700.54,-1080.37 700.92,-1089.13"/>
<ellipse fill="none" stroke="black" cx="699.1" cy="-1093.7" rx="3.2" ry="3.2"/>
</g>
<!-- project_task&#45;&gt;sale_order -->
<g id="edge11" class="edge">
<title>project_task:w&#45;&gt;sale_order:e</title>
<path fill="none" stroke="black" d="M689.52,-319.3C628.37,-402.33 737.79,-1110.89 654.01,-1110.89"/>
<polygon fill="black" stroke="black" points="695.82,-315.6 704.54,-314.66 699.56,-313.41 702.43,-311.73 702.43,-311.73 702.43,-311.73 699.56,-313.41 700.89,-308.45 695.82,-315.6"/>
<ellipse fill="none" stroke="black" cx="691.57" cy="-318.09" rx="3.2" ry="3.2"/>
</g>
<!-- project_task_type -->
<g id="node7" class="node">
<title>project_task_type</title>
<g id="a_node7"><a xlink:href="../../tables/project_task_type.html" xlink:title="project_task_type" target="_top">
<polygon fill="#ffffff" stroke="none" points="479.51,-341.89 479.51,-490.89 628.51,-490.89 628.51,-341.89 479.51,-341.89"/>
<polygon fill="#f5f5f5" stroke="none" points="479.51,-467.89 479.51,-490.89 628.51,-490.89 628.51,-467.89 479.51,-467.89"/>
<polygon fill="none" stroke="black" points="479.51,-467.89 479.51,-490.89 628.51,-490.89 628.51,-467.89 479.51,-467.89"/>
<text text-anchor="start" x="484.51" y="-475.69" font-family="Helvetica,sans-Serif" font-weight="bold" font-size="11.00">project_task_type</text>
<text text-anchor="start" x="594.26" y="-475.44" font-family="Helvetica,sans-Serif" font-size="11.00">[table]</text>
<polygon fill="none" stroke="black" points="479.51,-445.89 479.51,-467.89 628.51,-467.89 628.51,-445.89 479.51,-445.89"/>
<image xlink:href="../../images/primaryKeys.png" width="11px" height="12px" preserveAspectRatio="xMinYMin meet" x="484.505" y="-462.887"/>
<text text-anchor="start" x="499.51" y="-452.44" font-family="Helvetica,sans-Serif" font-size="11.00">id</text>
<polygon fill="#ffffff" stroke="none" points="479.51,-423.89 479.51,-445.89 628.51,-445.89 628.51,-423.89 479.51,-423.89"/>
<polygon fill="none" stroke="black" points="479.51,-423.89 479.51,-445.89 628.51,-445.89 628.51,-423.89 479.51,-423.89"/>
<image xlink:href="../../images/foreignKeys.png" width="11px" height="12px" preserveAspectRatio="xMinYMin meet" x="484.505" y="-440.887"/>
<text text-anchor="start" x="499.51" y="-430.44" font-family="Helvetica,sans-Serif" font-size="11.00">user_id</text>
<polygon fill="none" stroke="black" points="479.51,-401.89 479.51,-423.89 628.51,-423.89 628.51,-401.89 479.51,-401.89"/>
<image xlink:href="../../images/foreignKeys.png" width="11px" height="12px" preserveAspectRatio="xMinYMin meet" x="484.505" y="-418.887"/>
<text text-anchor="start" x="499.51" y="-408.44" font-family="Helvetica,sans-Serif" font-size="11.00">create_uid</text>
<polygon fill="none" stroke="black" points="479.51,-379.89 479.51,-401.89 628.51,-401.89 628.51,-379.89 479.51,-379.89"/>
<image xlink:href="../../images/foreignKeys.png" width="11px" height="12px" preserveAspectRatio="xMinYMin meet" x="484.505" y="-396.887"/>
<text text-anchor="start" x="499.51" y="-386.44" font-family="Helvetica,sans-Serif" font-size="11.00">write_uid</text>
<polygon fill="none" stroke="black" points="479.51,-360.89 479.51,-379.89 628.51,-379.89 628.51,-360.89 479.51,-360.89"/>
<text text-anchor="start" x="482.51" y="-366.44" font-family="Helvetica,sans-Serif" font-size="11.00">...</text>
<polygon fill="#ffffff" stroke="none" points="479.51,-341.89 479.51,-360.89 547.51,-360.89 547.51,-341.89 479.51,-341.89"/>
<polygon fill="none" stroke="black" points="479.51,-341.89 479.51,-360.89 547.51,-360.89 547.51,-341.89 479.51,-341.89"/>
<text text-anchor="start" x="482.51" y="-347.44" font-family="Helvetica,sans-Serif" font-size="11.00">&lt; 3</text>
<polygon fill="#ffffff" stroke="none" points="547.51,-341.89 547.51,-360.89 583.51,-360.89 583.51,-341.89 547.51,-341.89"/>
<polygon fill="none" stroke="black" points="547.51,-341.89 547.51,-360.89 583.51,-360.89 583.51,-341.89 547.51,-341.89"/>
<text text-anchor="start" x="574.51" y="-347.44" font-family="Helvetica,sans-Serif" font-size="11.00"> &#160;</text>
<polygon fill="#ffffff" stroke="none" points="583.51,-341.89 583.51,-360.89 628.51,-360.89 628.51,-341.89 583.51,-341.89"/>
<polygon fill="none" stroke="black" points="583.51,-341.89 583.51,-360.89 628.51,-360.89 628.51,-341.89 583.51,-341.89"/>
<text text-anchor="start" x="609.76" y="-347.44" font-family="Helvetica,sans-Serif" font-size="11.00">1 &gt;</text>
</a>
</g>
</g>
<!-- project_task&#45;&gt;project_task_type -->
<g id="edge12" class="edge">
<title>project_task:w&#45;&gt;project_task_type:e</title>
<path fill="none" stroke="black" d="M689.4,-1205.77C631.57,-1133.58 685.55,-571.35 661.01,-501.39 652.98,-478.52 653.74,-456.89 629.51,-456.89"/>
<polygon fill="black" stroke="black" points="695.73,-1209.31 700.95,-1216.36 699.52,-1211.43 702.42,-1213.06 702.42,-1213.06 702.42,-1213.06 699.52,-1211.43 704.47,-1210.08 695.73,-1209.31"/>
<ellipse fill="none" stroke="black" cx="691.44" cy="-1206.91" rx="3.2" ry="3.2"/>
</g>
<!-- sale_order&#45;&gt;project_project -->
<g id="edge29" class="edge">
<title>sale_order:w&#45;&gt;project_project:e</title>
<path fill="none" stroke="black" d="M441.37,-639.44C426.5,-610.87 436.59,-526.17 455.01,-507.89 463.13,-499.82 652.75,-499.96 661.01,-507.89 726.33,-570.62 628.68,-1259.65 694.01,-1322.39 787.93,-1412.59 864.58,-1366.77 987.01,-1322.39 1121.98,-1273.46 1153.8,-1233.79 1235.01,-1115.39 1279.93,-1049.88 1533.44,-434.89 1454.01,-434.89"/>
<polygon fill="black" stroke="black" points="447.33,-643.9 451.58,-651.57 450.8,-646.49 453.47,-648.49 453.47,-648.49 453.47,-648.49 450.8,-646.49 455.89,-645.8 447.33,-643.9"/>
<ellipse fill="none" stroke="black" cx="443.39" cy="-640.95" rx="3.2" ry="3.2"/>
</g>
<!-- sale_order&#45;&gt;res_users -->
<g id="edge24" class="edge">
<title>sale_order:w&#45;&gt;res_users:e</title>
<path fill="none" stroke="black" d="M438.86,-908.75C364.66,-862.04 507.9,-434.89 407.01,-434.89"/>
<polygon fill="black" stroke="black" points="445.96,-910.69 452.73,-916.27 450.15,-911.83 453.36,-912.71 453.36,-912.71 453.36,-912.71 450.15,-911.83 454.63,-909.33 445.96,-910.69"/>
<ellipse fill="none" stroke="black" cx="441.22" cy="-909.4" rx="3.2" ry="3.2"/>
</g>
<!-- sale_order&#45;&gt;res_users -->
<g id="edge25" class="edge">
<title>sale_order:w&#45;&gt;res_users:e</title>
<path fill="none" stroke="black" d="M438.6,-601.79C391.99,-578.75 479.12,-434.89 407.01,-434.89"/>
<polygon fill="black" stroke="black" points="445.83,-603.25 452.97,-608.35 450.08,-604.1 453.35,-604.76 453.35,-604.76 453.35,-604.76 450.08,-604.1 454.39,-601.29 445.83,-603.25"/>
<ellipse fill="none" stroke="black" cx="441.01" cy="-602.28" rx="3.2" ry="3.2"/>
</g>
<!-- sale_order&#45;&gt;res_users -->
<g id="edge30" class="edge">
<title>sale_order:w&#45;&gt;res_users:e</title>
<path fill="none" stroke="black" d="M438.53,-624.17C383.18,-600.84 488.68,-434.89 407.01,-434.89"/>
<polygon fill="black" stroke="black" points="445.8,-625.45 453.05,-630.38 450.07,-626.2 453.35,-626.77 453.35,-626.77 453.35,-626.77 450.07,-626.2 454.3,-623.28 445.8,-625.45"/>
<ellipse fill="none" stroke="black" cx="440.95" cy="-624.6" rx="3.2" ry="3.2"/>
</g>
<!-- sale_order&#45;&gt;res_users -->
<g id="edge31" class="edge">
<title>sale_order:w&#45;&gt;res_users:e</title>
<path fill="none" stroke="black" d="M442.11,-946.93C406.31,-874.76 460.46,-434.89 407.01,-434.89"/>
<polygon fill="black" stroke="black" points="447.62,-951.54 451.44,-959.43 450.94,-954.32 453.49,-956.46 453.49,-956.46 453.49,-956.46 450.94,-954.32 456.06,-953.91 447.62,-951.54"/>
<ellipse fill="none" stroke="black" cx="443.84" cy="-948.38" rx="3.2" ry="3.2"/>
</g>
<!-- sale_order&#45;&gt;res_users -->
<g id="edge32" class="edge">
<title>sale_order:w&#45;&gt;res_users:e</title>
<path fill="none" stroke="black" d="M439.09,-886.66C369.06,-840.69 503.11,-434.89 407.01,-434.89"/>
<polygon fill="black" stroke="black" points="445.99,-888.62 452.7,-894.26 450.16,-889.8 453.36,-890.7 453.36,-890.7 453.36,-890.7 450.16,-889.8 454.66,-887.33 445.99,-888.62"/>
<ellipse fill="none" stroke="black" cx="441.25" cy="-887.28" rx="3.2" ry="3.2"/>
</g>
<!-- sale_order&#45;&gt;res_partner -->
<g id="edge23" class="edge">
<title>sale_order:w&#45;&gt;res_partner:e</title>
<path fill="none" stroke="black" d="M438.24,-583.8C315.4,-598.51 345.84,-786.89 210.01,-786.89"/>
<polygon fill="black" stroke="black" points="445.68,-583.37 453.88,-586.5 450.01,-583.12 453.34,-582.93 453.34,-582.93 453.34,-582.93 450.01,-583.12 453.46,-579.31 445.68,-583.37"/>
<ellipse fill="none" stroke="black" cx="440.77" cy="-583.65" rx="3.2" ry="3.2"/>
</g>
<!-- sale_order&#45;&gt;res_partner -->
<g id="edge26" class="edge">
<title>sale_order:w&#45;&gt;res_partner:e</title>
<path fill="none" stroke="black" d="M438.21,-1066.52C341.32,-1061.85 310.93,-1012.84 250.01,-928.39 211.77,-875.39 275.36,-786.89 210.01,-786.89"/>
<polygon fill="black" stroke="black" points="445.67,-1066.69 453.59,-1070.48 450.01,-1066.79 453.34,-1066.87 453.34,-1066.87 453.34,-1066.87 450.01,-1066.79 453.75,-1063.28 445.67,-1066.69"/>
<ellipse fill="none" stroke="black" cx="440.76" cy="-1066.58" rx="3.2" ry="3.2"/>
</g>
<!-- sale_order&#45;&gt;res_partner -->
<g id="edge27" class="edge">
<title>sale_order:w&#45;&gt;res_partner:e</title>
<path fill="none" stroke="black" d="M438.78,-1019.17C418.09,-1005.49 440.47,-957.33 414.01,-929.39 358.11,-870.36 310.78,-902.38 250.01,-848.39 225.63,-826.73 242.61,-786.89 210.01,-786.89"/>
<polygon fill="black" stroke="black" points="445.91,-1020.91 452.83,-1026.3 450.12,-1021.94 453.36,-1022.73 453.36,-1022.73 453.36,-1022.73 450.12,-1021.94 454.53,-1019.31 445.91,-1020.91"/>
<ellipse fill="none" stroke="black" cx="441.13" cy="-1019.74" rx="3.2" ry="3.2"/>
</g>
<!-- sale_order&#45;&gt;res_partner -->
<g id="edge28" class="edge">
<title>sale_order:w&#45;&gt;res_partner:e</title>
<path fill="none" stroke="black" d="M438.61,-998.54C397.35,-983.1 457.94,-895.08 414.01,-849.39 348.28,-781.03 304.83,-786.89 210.01,-786.89"/>
<polygon fill="black" stroke="black" points="445.77,-999.63 453.13,-1004.4 450.05,-1000.29 453.34,-1000.79 453.34,-1000.79 453.34,-1000.79 450.05,-1000.29 454.22,-997.28 445.77,-999.63"/>
<ellipse fill="none" stroke="black" cx="440.9" cy="-998.89" rx="3.2" ry="3.2"/>
</g>
<!-- project_task_type&#45;&gt;res_users -->
<g id="edge14" class="edge">
<title>project_task_type:w&#45;&gt;res_users:e</title>
<path fill="none" stroke="black" d="M462.99,-414.76C442.55,-420.08 434.28,-434.89 407.01,-434.89"/>
<polygon fill="black" stroke="black" points="470.23,-413.89 478.61,-416.5 474.53,-413.37 477.84,-412.97 477.84,-412.97 477.84,-412.97 474.53,-413.37 477.74,-409.35 470.23,-413.89"/>
<ellipse fill="none" stroke="black" cx="465.35" cy="-414.48" rx="3.2" ry="3.2"/>
</g>
<!-- project_task_type&#45;&gt;res_users -->
<g id="edge15" class="edge">
<title>project_task_type:w&#45;&gt;res_users:e</title>
<path fill="none" stroke="black" d="M462.83,-434.89C442.91,-434.89 432.82,-434.89 407.01,-434.89"/>
<polygon fill="black" stroke="black" points="470.17,-434.89 478.17,-438.49 474.51,-434.89 477.84,-434.89 477.84,-434.89 477.84,-434.89 474.51,-434.89 478.17,-431.29 470.17,-434.89"/>
<ellipse fill="none" stroke="black" cx="465.25" cy="-434.89" rx="3.2" ry="3.2"/>
</g>
<!-- project_task_type&#45;&gt;res_users -->
<g id="edge16" class="edge">
<title>project_task_type:w&#45;&gt;res_users:e</title>
<path fill="none" stroke="black" d="M463.05,-394.05C441.13,-404.14 438.2,-434.89 407.01,-434.89"/>
<polygon fill="black" stroke="black" points="470.34,-392.56 478.9,-394.48 474.59,-391.69 477.85,-391.02 477.85,-391.02 477.85,-391.02 474.59,-391.69 477.46,-387.43 470.34,-392.56"/>
<ellipse fill="none" stroke="black" cx="465.52" cy="-393.55" rx="3.2" ry="3.2"/>
</g>
</g>
</svg>
