<?xml version="1.0" encoding="UTF-8" standalone="no"?>
<!DOCTYPE svg PUBLIC "-//W3C//DTD SVG 1.1//EN"
 "http://www.w3.org/Graphics/SVG/1.1/DTD/svg11.dtd">
<!-- Generated by graphviz version 12.0.0 (0)
 -->
<!-- Title: oneDegreeRelationshipsDiagram Pages: 1 -->
<svg width="1480pt" height="1341pt"
 viewBox="0.00 0.00 1480.01 1340.93" xmlns="http://www.w3.org/2000/svg" xmlns:xlink="http://www.w3.org/1999/xlink">
<g id="graph0" class="graph" transform="scale(1 1) rotate(0) translate(4 1336.93)">
<title>oneDegreeRelationshipsDiagram</title>
<polygon fill="#ffffff" stroke="none" points="-4,4 -4,-1336.93 1476.01,-1336.93 1476.01,4 -4,4"/>
<text text-anchor="middle" x="71.38" y="-7.05" font-family="Helvetica,sans-Serif" font-size="11.00">Generated by SchemaSpy</text>
<!-- project_project -->
<g id="node1" class="node">
<title>project_project</title>
<g id="a_node1"><a xlink:href="../../tables/project_project.html" xlink:title="project_project" target="_top">
<polygon fill="#ffffff" stroke="none" points="1276.01,-523.63 1276.01,-782.63 1453.01,-782.63 1453.01,-523.63 1276.01,-523.63"/>
<polygon fill="#f5f5f5" stroke="none" points="1276.01,-759.63 1276.01,-782.63 1453.01,-782.63 1453.01,-759.63 1276.01,-759.63"/>
<polygon fill="none" stroke="black" points="1276.01,-759.63 1276.01,-782.63 1453.01,-782.63 1453.01,-759.63 1276.01,-759.63"/>
<text text-anchor="start" x="1281.01" y="-767.43" font-family="Helvetica,sans-Serif" font-weight="bold" font-size="11.00">project_project</text>
<text text-anchor="start" x="1418.76" y="-767.18" font-family="Helvetica,sans-Serif" font-size="11.00">[table]</text>
<polygon fill="none" stroke="black" points="1276.01,-737.63 1276.01,-759.63 1453.01,-759.63 1453.01,-737.63 1276.01,-737.63"/>
<image xlink:href="../../images/primaryKeys.png" width="11px" height="12px" preserveAspectRatio="xMinYMin meet" x="1281.01" y="-754.631"/>
<text text-anchor="start" x="1296.01" y="-744.18" font-family="Helvetica,sans-Serif" font-size="11.00">id</text>
<polygon fill="none" stroke="black" points="1276.01,-715.63 1276.01,-737.63 1453.01,-737.63 1453.01,-715.63 1276.01,-715.63"/>
<image xlink:href="../../images/foreignKeys.png" width="11px" height="12px" preserveAspectRatio="xMinYMin meet" x="1281.01" y="-732.631"/>
<text text-anchor="start" x="1296.01" y="-722.18" font-family="Helvetica,sans-Serif" font-size="11.00">partner_id</text>
<polygon fill="none" stroke="black" points="1276.01,-693.63 1276.01,-715.63 1453.01,-715.63 1453.01,-693.63 1276.01,-693.63"/>
<image xlink:href="../../images/foreignKeys.png" width="11px" height="12px" preserveAspectRatio="xMinYMin meet" x="1281.01" y="-710.631"/>
<text text-anchor="start" x="1296.01" y="-700.18" font-family="Helvetica,sans-Serif" font-size="11.00">user_id</text>
<polygon fill="#ffffff" stroke="none" points="1276.01,-671.63 1276.01,-693.63 1453.01,-693.63 1453.01,-671.63 1276.01,-671.63"/>
<polygon fill="none" stroke="black" points="1276.01,-671.63 1276.01,-693.63 1453.01,-693.63 1453.01,-671.63 1276.01,-671.63"/>
<text text-anchor="start" x="1296.01" y="-678.18" font-family="Helvetica,sans-Serif" font-size="11.00">stage_id</text>
<polygon fill="none" stroke="black" points="1276.01,-649.63 1276.01,-671.63 1453.01,-671.63 1453.01,-649.63 1276.01,-649.63"/>
<image xlink:href="../../images/foreignKeys.png" width="11px" height="12px" preserveAspectRatio="xMinYMin meet" x="1281.01" y="-666.631"/>
<text text-anchor="start" x="1296.01" y="-656.18" font-family="Helvetica,sans-Serif" font-size="11.00">create_uid</text>
<polygon fill="none" stroke="black" points="1276.01,-627.63 1276.01,-649.63 1453.01,-649.63 1453.01,-627.63 1276.01,-627.63"/>
<image xlink:href="../../images/foreignKeys.png" width="11px" height="12px" preserveAspectRatio="xMinYMin meet" x="1281.01" y="-644.631"/>
<text text-anchor="start" x="1296.01" y="-634.18" font-family="Helvetica,sans-Serif" font-size="11.00">write_uid</text>
<polygon fill="#ffffff" stroke="none" points="1276.01,-605.63 1276.01,-627.63 1453.01,-627.63 1453.01,-605.63 1276.01,-605.63"/>
<polygon fill="none" stroke="black" points="1276.01,-605.63 1276.01,-627.63 1453.01,-627.63 1453.01,-605.63 1276.01,-605.63"/>
<text text-anchor="start" x="1296.01" y="-612.18" font-family="Helvetica,sans-Serif" font-size="11.00">date</text>
<polygon fill="none" stroke="black" points="1276.01,-583.63 1276.01,-605.63 1453.01,-605.63 1453.01,-583.63 1276.01,-583.63"/>
<image xlink:href="../../images/foreignKeys.png" width="11px" height="12px" preserveAspectRatio="xMinYMin meet" x="1281.01" y="-600.631"/>
<text text-anchor="start" x="1296.01" y="-590.18" font-family="Helvetica,sans-Serif" font-size="11.00">campaign_id</text>
<polygon fill="#ffffff" stroke="none" points="1276.01,-561.63 1276.01,-583.63 1453.01,-583.63 1453.01,-561.63 1276.01,-561.63"/>
<polygon fill="none" stroke="black" points="1276.01,-561.63 1276.01,-583.63 1453.01,-583.63 1453.01,-561.63 1276.01,-561.63"/>
<image xlink:href="../../images/foreignKeys.png" width="11px" height="12px" preserveAspectRatio="xMinYMin meet" x="1281.01" y="-578.631"/>
<text text-anchor="start" x="1296.01" y="-568.18" font-family="Helvetica,sans-Serif" font-size="11.00">sale_line_id</text>
<polygon fill="none" stroke="black" points="1276.01,-542.63 1276.01,-561.63 1453.01,-561.63 1453.01,-542.63 1276.01,-542.63"/>
<text text-anchor="start" x="1279.01" y="-548.18" font-family="Helvetica,sans-Serif" font-size="11.00">...</text>
<polygon fill="#ffffff" stroke="none" points="1276.01,-523.63 1276.01,-542.63 1358.01,-542.63 1358.01,-523.63 1276.01,-523.63"/>
<polygon fill="none" stroke="black" points="1276.01,-523.63 1276.01,-542.63 1358.01,-542.63 1358.01,-523.63 1276.01,-523.63"/>
<text text-anchor="start" x="1279.01" y="-529.18" font-family="Helvetica,sans-Serif" font-size="11.00">&lt; 6</text>
<polygon fill="#ffffff" stroke="none" points="1358.01,-523.63 1358.01,-542.63 1401.01,-542.63 1401.01,-523.63 1358.01,-523.63"/>
<polygon fill="none" stroke="black" points="1358.01,-523.63 1358.01,-542.63 1401.01,-542.63 1401.01,-523.63 1358.01,-523.63"/>
<text text-anchor="start" x="1392.01" y="-529.18" font-family="Helvetica,sans-Serif" font-size="11.00"> &#160;</text>
<polygon fill="#ffffff" stroke="none" points="1401.01,-523.63 1401.01,-542.63 1453.01,-542.63 1453.01,-523.63 1401.01,-523.63"/>
<polygon fill="none" stroke="black" points="1401.01,-523.63 1401.01,-542.63 1453.01,-542.63 1453.01,-523.63 1401.01,-523.63"/>
<text text-anchor="start" x="1434.26" y="-529.18" font-family="Helvetica,sans-Serif" font-size="11.00">3 &gt;</text>
</a>
</g>
</g>
<!-- res_users -->
<g id="node2" class="node">
<title>res_users</title>
<g id="a_node2"><a xlink:href="../../tables/res_users.html" xlink:title="res_users" target="_top">
<polygon fill="#ffffff" stroke="none" points="258.01,-470.63 258.01,-663.63 406.01,-663.63 406.01,-470.63 258.01,-470.63"/>
<polygon fill="#f5f5f5" stroke="none" points="258.01,-640.63 258.01,-663.63 406.01,-663.63 406.01,-640.63 258.01,-640.63"/>
<polygon fill="none" stroke="black" points="258.01,-640.63 258.01,-663.63 406.01,-663.63 406.01,-640.63 258.01,-640.63"/>
<text text-anchor="start" x="262.63" y="-648.43" font-family="Helvetica,sans-Serif" font-weight="bold" font-size="11.00">res_users</text>
<text text-anchor="start" x="371.76" y="-648.18" font-family="Helvetica,sans-Serif" font-size="11.00">[table]</text>
<polygon fill="none" stroke="black" points="258.01,-618.63 258.01,-640.63 406.01,-640.63 406.01,-618.63 258.01,-618.63"/>
<image xlink:href="../../images/primaryKeys.png" width="11px" height="12px" preserveAspectRatio="xMinYMin meet" x="263.005" y="-635.631"/>
<text text-anchor="start" x="278.01" y="-625.18" font-family="Helvetica,sans-Serif" font-size="11.00">id</text>
<polygon fill="#ffffff" stroke="none" points="258.01,-596.63 258.01,-618.63 406.01,-618.63 406.01,-596.63 258.01,-596.63"/>
<polygon fill="none" stroke="black" points="258.01,-596.63 258.01,-618.63 406.01,-618.63 406.01,-596.63 258.01,-596.63"/>
<image xlink:href="../../images/foreignKeys.png" width="11px" height="12px" preserveAspectRatio="xMinYMin meet" x="263.005" y="-613.631"/>
<text text-anchor="start" x="278.01" y="-603.18" font-family="Helvetica,sans-Serif" font-size="11.00">partner_id</text>
<polygon fill="#ffffff" stroke="none" points="258.01,-574.63 258.01,-596.63 406.01,-596.63 406.01,-574.63 258.01,-574.63"/>
<polygon fill="none" stroke="black" points="258.01,-574.63 258.01,-596.63 406.01,-596.63 406.01,-574.63 258.01,-574.63"/>
<text text-anchor="start" x="278.01" y="-581.18" font-family="Helvetica,sans-Serif" font-size="11.00">login</text>
<polygon fill="none" stroke="black" points="258.01,-552.63 258.01,-574.63 406.01,-574.63 406.01,-552.63 258.01,-552.63"/>
<image xlink:href="../../images/foreignKeys.png" width="11px" height="12px" preserveAspectRatio="xMinYMin meet" x="263.005" y="-569.631"/>
<text text-anchor="start" x="278.01" y="-559.18" font-family="Helvetica,sans-Serif" font-size="11.00">create_uid</text>
<polygon fill="none" stroke="black" points="258.01,-530.63 258.01,-552.63 406.01,-552.63 406.01,-530.63 258.01,-530.63"/>
<image xlink:href="../../images/foreignKeys.png" width="11px" height="12px" preserveAspectRatio="xMinYMin meet" x="263.005" y="-547.631"/>
<text text-anchor="start" x="278.01" y="-537.18" font-family="Helvetica,sans-Serif" font-size="11.00">write_uid</text>
<polygon fill="none" stroke="black" points="258.01,-508.63 258.01,-530.63 406.01,-530.63 406.01,-508.63 258.01,-508.63"/>
<image xlink:href="../../images/foreignKeys.png" width="11px" height="12px" preserveAspectRatio="xMinYMin meet" x="263.005" y="-525.631"/>
<text text-anchor="start" x="278.01" y="-515.18" font-family="Helvetica,sans-Serif" font-size="11.00">sale_team_id</text>
<polygon fill="none" stroke="black" points="258.01,-489.63 258.01,-508.63 406.01,-508.63 406.01,-489.63 258.01,-489.63"/>
<text text-anchor="start" x="261.01" y="-495.18" font-family="Helvetica,sans-Serif" font-size="11.00">...</text>
<polygon fill="#ffffff" stroke="none" points="258.01,-470.63 258.01,-489.63 323.01,-489.63 323.01,-470.63 258.01,-470.63"/>
<polygon fill="none" stroke="black" points="258.01,-470.63 258.01,-489.63 323.01,-489.63 323.01,-470.63 258.01,-470.63"/>
<text text-anchor="start" x="261.01" y="-476.18" font-family="Helvetica,sans-Serif" font-size="11.00">&lt; 4</text>
<polygon fill="#ffffff" stroke="none" points="323.01,-470.63 323.01,-489.63 357.01,-489.63 357.01,-470.63 323.01,-470.63"/>
<polygon fill="none" stroke="black" points="323.01,-470.63 323.01,-489.63 357.01,-489.63 357.01,-470.63 323.01,-470.63"/>
<text text-anchor="start" x="348.01" y="-476.18" font-family="Helvetica,sans-Serif" font-size="11.00"> &#160;</text>
<polygon fill="#ffffff" stroke="none" points="357.01,-470.63 357.01,-489.63 406.01,-489.63 406.01,-470.63 357.01,-470.63"/>
<polygon fill="none" stroke="black" points="357.01,-470.63 357.01,-489.63 406.01,-489.63 406.01,-470.63 357.01,-470.63"/>
<text text-anchor="start" x="381.26" y="-476.18" font-family="Helvetica,sans-Serif" font-size="11.00">65 &gt;</text>
</a>
</g>
</g>
<!-- project_project&#45;&gt;res_users -->
<g id="edge1" class="edge">
<title>project_project:w&#45;&gt;res_users:e</title>
<path fill="none" stroke="black" d="M1262.72,-650.71C1227.29,-582.42 1273.33,-183.58 1235.01,-148.13 1202.87,-118.4 479.22,-118.48 447.01,-148.13 407.5,-184.49 460.69,-629.63 407.01,-629.63"/>
<polygon fill="black" stroke="black" points="1268.52,-655.4 1272.48,-663.22 1271.89,-658.12 1274.48,-660.21 1274.48,-660.21 1274.48,-660.21 1271.89,-658.12 1277.01,-657.62 1268.52,-655.4"/>
<ellipse fill="none" stroke="black" cx="1264.69" cy="-652.31" rx="3.2" ry="3.2"/>
</g>
<!-- project_project&#45;&gt;res_users -->
<g id="edge4" class="edge">
<title>project_project:w&#45;&gt;res_users:e</title>
<path fill="none" stroke="black" d="M1262.74,-695.22C1225.26,-626.93 1274.93,-209.17 1235.01,-172.13 1181.73,-122.71 979.81,-160.96 908.01,-172.13 695.51,-205.19 584.74,-153.97 447.01,-319.13 402.45,-372.56 476.58,-629.63 407.01,-629.63"/>
<polygon fill="black" stroke="black" points="1268.39,-699.55 1272.55,-707.28 1271.83,-702.19 1274.47,-704.22 1274.47,-704.22 1274.47,-704.22 1271.83,-702.19 1276.93,-701.57 1268.39,-699.55"/>
<ellipse fill="none" stroke="black" cx="1264.49" cy="-696.56" rx="3.2" ry="3.2"/>
</g>
<!-- project_project&#45;&gt;res_users -->
<g id="edge5" class="edge">
<title>project_project:w&#45;&gt;res_users:e</title>
<path fill="none" stroke="black" d="M1262.88,-629.09C1226.84,-561.69 1273.58,-158.93 1235.01,-123.13 1106.65,-4.02 574.9,-5.52 447.01,-125.13 405.93,-163.54 463.24,-629.63 407.01,-629.63"/>
<polygon fill="black" stroke="black" points="1268.45,-633.48 1272.52,-641.25 1271.86,-636.16 1274.48,-638.22 1274.48,-638.22 1274.48,-638.22 1271.86,-636.16 1276.97,-635.59 1268.45,-633.48"/>
<ellipse fill="none" stroke="black" cx="1264.59" cy="-630.44" rx="3.2" ry="3.2"/>
</g>
<!-- res_partner -->
<g id="node3" class="node">
<title>res_partner</title>
<g id="a_node3"><a xlink:href="../../tables/res_partner.html" xlink:title="res_partner" target="_top">
<polygon fill="#ffffff" stroke="none" points="19.01,-580.63 19.01,-1015.63 209.01,-1015.63 209.01,-580.63 19.01,-580.63"/>
<polygon fill="#f5f5f5" stroke="none" points="19.01,-992.63 19.01,-1015.63 209.01,-1015.63 209.01,-992.63 19.01,-992.63"/>
<polygon fill="none" stroke="black" points="19.01,-992.63 19.01,-1015.63 209.01,-1015.63 209.01,-992.63 19.01,-992.63"/>
<text text-anchor="start" x="24.01" y="-1000.43" font-family="Helvetica,sans-Serif" font-weight="bold" font-size="11.00">res_partner</text>
<text text-anchor="start" x="174.76" y="-1000.18" font-family="Helvetica,sans-Serif" font-size="11.00">[table]</text>
<polygon fill="none" stroke="black" points="19.01,-970.63 19.01,-992.63 209.01,-992.63 209.01,-970.63 19.01,-970.63"/>
<image xlink:href="../../images/primaryKeys.png" width="11px" height="12px" preserveAspectRatio="xMinYMin meet" x="24.0051" y="-987.631"/>
<text text-anchor="start" x="39.01" y="-977.18" font-family="Helvetica,sans-Serif" font-size="11.00">id</text>
<polygon fill="#ffffff" stroke="none" points="19.01,-948.63 19.01,-970.63 209.01,-970.63 209.01,-948.63 19.01,-948.63"/>
<polygon fill="none" stroke="black" points="19.01,-948.63 19.01,-970.63 209.01,-970.63 209.01,-948.63 19.01,-948.63"/>
<text text-anchor="start" x="39.01" y="-955.18" font-family="Helvetica,sans-Serif" font-size="11.00">company_id</text>
<polygon fill="#ffffff" stroke="none" points="19.01,-926.63 19.01,-948.63 209.01,-948.63 209.01,-926.63 19.01,-926.63"/>
<polygon fill="none" stroke="black" points="19.01,-926.63 19.01,-948.63 209.01,-948.63 209.01,-926.63 19.01,-926.63"/>
<text text-anchor="start" x="39.01" y="-933.18" font-family="Helvetica,sans-Serif" font-size="11.00">name</text>
<polygon fill="#ffffff" stroke="none" points="19.01,-904.63 19.01,-926.63 209.01,-926.63 209.01,-904.63 19.01,-904.63"/>
<polygon fill="none" stroke="black" points="19.01,-904.63 19.01,-926.63 209.01,-926.63 209.01,-904.63 19.01,-904.63"/>
<image xlink:href="../../images/foreignKeys.png" width="11px" height="12px" preserveAspectRatio="xMinYMin meet" x="24.0051" y="-921.631"/>
<text text-anchor="start" x="39.01" y="-911.18" font-family="Helvetica,sans-Serif" font-size="11.00">parent_id</text>
<polygon fill="none" stroke="black" points="19.01,-882.63 19.01,-904.63 209.01,-904.63 209.01,-882.63 19.01,-882.63"/>
<image xlink:href="../../images/foreignKeys.png" width="11px" height="12px" preserveAspectRatio="xMinYMin meet" x="24.0051" y="-899.631"/>
<text text-anchor="start" x="39.01" y="-889.18" font-family="Helvetica,sans-Serif" font-size="11.00">user_id</text>
<polygon fill="none" stroke="black" points="19.01,-860.63 19.01,-882.63 209.01,-882.63 209.01,-860.63 19.01,-860.63"/>
<image xlink:href="../../images/foreignKeys.png" width="11px" height="12px" preserveAspectRatio="xMinYMin meet" x="24.0051" y="-877.631"/>
<text text-anchor="start" x="39.01" y="-867.18" font-family="Helvetica,sans-Serif" font-size="11.00">country_id</text>
<polygon fill="#ffffff" stroke="none" points="19.01,-838.63 19.01,-860.63 209.01,-860.63 209.01,-838.63 19.01,-838.63"/>
<polygon fill="none" stroke="black" points="19.01,-838.63 19.01,-860.63 209.01,-860.63 209.01,-838.63 19.01,-838.63"/>
<image xlink:href="../../images/foreignKeys.png" width="11px" height="12px" preserveAspectRatio="xMinYMin meet" x="24.0051" y="-855.631"/>
<text text-anchor="start" x="39.01" y="-845.18" font-family="Helvetica,sans-Serif" font-size="11.00">commercial_partner_id</text>
<polygon fill="none" stroke="black" points="19.01,-816.63 19.01,-838.63 209.01,-838.63 209.01,-816.63 19.01,-816.63"/>
<image xlink:href="../../images/foreignKeys.png" width="11px" height="12px" preserveAspectRatio="xMinYMin meet" x="24.0051" y="-833.631"/>
<text text-anchor="start" x="39.01" y="-823.18" font-family="Helvetica,sans-Serif" font-size="11.00">create_uid</text>
<polygon fill="none" stroke="black" points="19.01,-794.63 19.01,-816.63 209.01,-816.63 209.01,-794.63 19.01,-794.63"/>
<image xlink:href="../../images/foreignKeys.png" width="11px" height="12px" preserveAspectRatio="xMinYMin meet" x="24.0051" y="-811.631"/>
<text text-anchor="start" x="39.01" y="-801.18" font-family="Helvetica,sans-Serif" font-size="11.00">write_uid</text>
<polygon fill="#ffffff" stroke="none" points="19.01,-772.63 19.01,-794.63 209.01,-794.63 209.01,-772.63 19.01,-772.63"/>
<polygon fill="none" stroke="black" points="19.01,-772.63 19.01,-794.63 209.01,-794.63 209.01,-772.63 19.01,-772.63"/>
<text text-anchor="start" x="39.01" y="-779.18" font-family="Helvetica,sans-Serif" font-size="11.00">complete_name</text>
<polygon fill="#ffffff" stroke="none" points="19.01,-750.63 19.01,-772.63 209.01,-772.63 209.01,-750.63 19.01,-750.63"/>
<polygon fill="none" stroke="black" points="19.01,-750.63 19.01,-772.63 209.01,-772.63 209.01,-750.63 19.01,-750.63"/>
<text text-anchor="start" x="39.01" y="-757.18" font-family="Helvetica,sans-Serif" font-size="11.00">ref</text>
<polygon fill="#ffffff" stroke="none" points="19.01,-728.63 19.01,-750.63 209.01,-750.63 209.01,-728.63 19.01,-728.63"/>
<polygon fill="none" stroke="black" points="19.01,-728.63 19.01,-750.63 209.01,-750.63 209.01,-728.63 19.01,-728.63"/>
<text text-anchor="start" x="39.01" y="-735.18" font-family="Helvetica,sans-Serif" font-size="11.00">vat</text>
<polygon fill="#ffffff" stroke="none" points="19.01,-706.63 19.01,-728.63 209.01,-728.63 209.01,-706.63 19.01,-706.63"/>
<polygon fill="none" stroke="black" points="19.01,-706.63 19.01,-728.63 209.01,-728.63 209.01,-706.63 19.01,-706.63"/>
<text text-anchor="start" x="39.01" y="-713.18" font-family="Helvetica,sans-Serif" font-size="11.00">date</text>
<polygon fill="none" stroke="black" points="19.01,-684.63 19.01,-706.63 209.01,-706.63 209.01,-684.63 19.01,-684.63"/>
<image xlink:href="../../images/foreignKeys.png" width="11px" height="12px" preserveAspectRatio="xMinYMin meet" x="24.0051" y="-701.631"/>
<text text-anchor="start" x="39.01" y="-691.18" font-family="Helvetica,sans-Serif" font-size="11.00">team_id</text>
<polygon fill="none" stroke="black" points="19.01,-662.63 19.01,-684.63 209.01,-684.63 209.01,-662.63 19.01,-662.63"/>
<image xlink:href="../../images/foreignKeys.png" width="11px" height="12px" preserveAspectRatio="xMinYMin meet" x="24.0051" y="-679.631"/>
<text text-anchor="start" x="39.01" y="-669.18" font-family="Helvetica,sans-Serif" font-size="11.00">buyer_id</text>
<polygon fill="none" stroke="black" points="19.01,-640.63 19.01,-662.63 209.01,-662.63 209.01,-640.63 19.01,-640.63"/>
<image xlink:href="../../images/foreignKeys.png" width="11px" height="12px" preserveAspectRatio="xMinYMin meet" x="24.0051" y="-657.631"/>
<text text-anchor="start" x="39.01" y="-647.18" font-family="Helvetica,sans-Serif" font-size="11.00">parent_company_id</text>
<polygon fill="none" stroke="black" points="19.01,-618.63 19.01,-640.63 209.01,-640.63 209.01,-618.63 19.01,-618.63"/>
<image xlink:href="../../images/foreignKeys.png" width="11px" height="12px" preserveAspectRatio="xMinYMin meet" x="24.0051" y="-635.631"/>
<text text-anchor="start" x="39.01" y="-625.18" font-family="Helvetica,sans-Serif" font-size="11.00">account_manager_id</text>
<polygon fill="none" stroke="black" points="19.01,-599.63 19.01,-618.63 209.01,-618.63 209.01,-599.63 19.01,-599.63"/>
<text text-anchor="start" x="22.01" y="-605.18" font-family="Helvetica,sans-Serif" font-size="11.00">...</text>
<polygon fill="#ffffff" stroke="none" points="19.01,-580.63 19.01,-599.63 108.01,-599.63 108.01,-580.63 19.01,-580.63"/>
<polygon fill="none" stroke="black" points="19.01,-580.63 19.01,-599.63 108.01,-599.63 108.01,-580.63 19.01,-580.63"/>
<text text-anchor="start" x="22.01" y="-586.18" font-family="Helvetica,sans-Serif" font-size="11.00">&lt; 10</text>
<polygon fill="#ffffff" stroke="none" points="108.01,-580.63 108.01,-599.63 151.01,-599.63 151.01,-580.63 108.01,-580.63"/>
<polygon fill="none" stroke="black" points="108.01,-580.63 108.01,-599.63 151.01,-599.63 151.01,-580.63 108.01,-580.63"/>
<text text-anchor="start" x="142.01" y="-586.18" font-family="Helvetica,sans-Serif" font-size="11.00"> &#160;</text>
<polygon fill="#ffffff" stroke="none" points="151.01,-580.63 151.01,-599.63 209.01,-599.63 209.01,-580.63 151.01,-580.63"/>
<polygon fill="none" stroke="black" points="151.01,-580.63 151.01,-599.63 209.01,-599.63 209.01,-580.63 151.01,-580.63"/>
<text text-anchor="start" x="184.26" y="-586.18" font-family="Helvetica,sans-Serif" font-size="11.00">23 &gt;</text>
</a>
</g>
</g>
<!-- project_project&#45;&gt;res_partner -->
<g id="edge2" class="edge">
<title>project_project:w&#45;&gt;res_partner:e</title>
<path fill="none" stroke="black" d="M1262.53,-736.39C1225.43,-805.37 1272.92,-1217.62 1235.01,-1256.13 1094.26,-1399.08 986.11,-1297.13 785.51,-1297.13 785.51,-1297.13 785.51,-1297.13 553.01,-1297.13 406.99,-1297.13 343.12,-1282.61 250.01,-1170.13 195.39,-1104.16 295.65,-981.63 210.01,-981.63"/>
<polygon fill="black" stroke="black" points="1268.44,-731.77 1276.96,-729.67 1271.86,-729.1 1274.48,-727.04 1274.48,-727.04 1274.48,-727.04 1271.86,-729.1 1272.52,-724 1268.44,-731.77"/>
<ellipse fill="none" stroke="black" cx="1264.57" cy="-734.8" rx="3.2" ry="3.2"/>
</g>
<!-- sale_order_line -->
<g id="node4" class="node">
<title>sale_order_line</title>
<g id="a_node4"><a xlink:href="../../tables/sale_order_line.html" xlink:title="sale_order_line" target="_top">
<polygon fill="#ffffff" stroke="none" points="916.01,-182.13 916.01,-1174.13 1227.01,-1174.13 1227.01,-182.13 916.01,-182.13"/>
<polygon fill="#f5f5f5" stroke="none" points="918.01,-1149.13 918.01,-1172.13 1225.01,-1172.13 1225.01,-1149.13 918.01,-1149.13"/>
<polygon fill="none" stroke="black" points="918.01,-1149.13 918.01,-1172.13 1225.01,-1172.13 1225.01,-1149.13 918.01,-1149.13"/>
<text text-anchor="start" x="923.01" y="-1156.93" font-family="Helvetica,sans-Serif" font-weight="bold" font-size="11.00">sale_order_line</text>
<text text-anchor="start" x="1190.76" y="-1156.68" font-family="Helvetica,sans-Serif" font-size="11.00">[table]</text>
<polygon fill="none" stroke="black" points="918.01,-1127.13 918.01,-1149.13 1117.01,-1149.13 1117.01,-1127.13 918.01,-1127.13"/>
<image xlink:href="../../images/primaryKeys.png" width="11px" height="12px" preserveAspectRatio="xMinYMin meet" x="923.005" y="-1144.13"/>
<text text-anchor="start" x="938.01" y="-1133.68" font-family="Helvetica,sans-Serif" font-size="11.00">id</text>
<polygon fill="none" stroke="black" points="1117.01,-1127.13 1117.01,-1149.13 1225.01,-1149.13 1225.01,-1127.13 1117.01,-1127.13"/>
<text text-anchor="start" x="1120.01" y="-1134.43" font-family="Helvetica,sans-Serif" font-size="11.00">serial[10]</text>
<polygon fill="#ffffff" stroke="none" points="918.01,-1105.13 918.01,-1127.13 1117.01,-1127.13 1117.01,-1105.13 918.01,-1105.13"/>
<polygon fill="none" stroke="black" points="918.01,-1105.13 918.01,-1127.13 1117.01,-1127.13 1117.01,-1105.13 918.01,-1105.13"/>
<image xlink:href="../../images/foreignKeys.png" width="11px" height="12px" preserveAspectRatio="xMinYMin meet" x="923.005" y="-1122.13"/>
<text text-anchor="start" x="938.01" y="-1111.68" font-family="Helvetica,sans-Serif" font-size="11.00">order_id</text>
<polygon fill="none" stroke="black" points="1117.01,-1105.13 1117.01,-1127.13 1225.01,-1127.13 1225.01,-1105.13 1117.01,-1105.13"/>
<text text-anchor="start" x="1120.01" y="-1112.43" font-family="Helvetica,sans-Serif" font-size="11.00">int4[10]</text>
<polygon fill="none" stroke="black" points="918.01,-1083.13 918.01,-1105.13 1117.01,-1105.13 1117.01,-1083.13 918.01,-1083.13"/>
<text text-anchor="start" x="938.01" y="-1089.68" font-family="Helvetica,sans-Serif" font-size="11.00">sequence</text>
<polygon fill="none" stroke="black" points="1117.01,-1083.13 1117.01,-1105.13 1225.01,-1105.13 1225.01,-1083.13 1117.01,-1083.13"/>
<text text-anchor="start" x="1120.01" y="-1090.43" font-family="Helvetica,sans-Serif" font-size="11.00">int4[10]</text>
<polygon fill="#ffffff" stroke="none" points="918.01,-1061.13 918.01,-1083.13 1117.01,-1083.13 1117.01,-1061.13 918.01,-1061.13"/>
<polygon fill="none" stroke="black" points="918.01,-1061.13 918.01,-1083.13 1117.01,-1083.13 1117.01,-1061.13 918.01,-1061.13"/>
<text text-anchor="start" x="938.01" y="-1067.68" font-family="Helvetica,sans-Serif" font-size="11.00">company_id</text>
<polygon fill="none" stroke="black" points="1117.01,-1061.13 1117.01,-1083.13 1225.01,-1083.13 1225.01,-1061.13 1117.01,-1061.13"/>
<text text-anchor="start" x="1120.01" y="-1068.43" font-family="Helvetica,sans-Serif" font-size="11.00">int4[10]</text>
<polygon fill="none" stroke="black" points="918.01,-1039.13 918.01,-1061.13 1117.01,-1061.13 1117.01,-1039.13 918.01,-1039.13"/>
<text text-anchor="start" x="938.01" y="-1045.68" font-family="Helvetica,sans-Serif" font-size="11.00">currency_id</text>
<polygon fill="none" stroke="black" points="1117.01,-1039.13 1117.01,-1061.13 1225.01,-1061.13 1225.01,-1039.13 1117.01,-1039.13"/>
<text text-anchor="start" x="1120.01" y="-1046.43" font-family="Helvetica,sans-Serif" font-size="11.00">int4[10]</text>
<polygon fill="#ffffff" stroke="none" points="918.01,-1017.13 918.01,-1039.13 1117.01,-1039.13 1117.01,-1017.13 918.01,-1017.13"/>
<polygon fill="none" stroke="black" points="918.01,-1017.13 918.01,-1039.13 1117.01,-1039.13 1117.01,-1017.13 918.01,-1017.13"/>
<image xlink:href="../../images/foreignKeys.png" width="11px" height="12px" preserveAspectRatio="xMinYMin meet" x="923.005" y="-1034.13"/>
<text text-anchor="start" x="938.01" y="-1023.68" font-family="Helvetica,sans-Serif" font-size="11.00">order_partner_id</text>
<polygon fill="none" stroke="black" points="1117.01,-1017.13 1117.01,-1039.13 1225.01,-1039.13 1225.01,-1017.13 1117.01,-1017.13"/>
<text text-anchor="start" x="1120.01" y="-1024.43" font-family="Helvetica,sans-Serif" font-size="11.00">int4[10]</text>
<polygon fill="none" stroke="black" points="918.01,-995.13 918.01,-1017.13 1117.01,-1017.13 1117.01,-995.13 918.01,-995.13"/>
<image xlink:href="../../images/foreignKeys.png" width="11px" height="12px" preserveAspectRatio="xMinYMin meet" x="923.005" y="-1012.13"/>
<text text-anchor="start" x="938.01" y="-1001.68" font-family="Helvetica,sans-Serif" font-size="11.00">salesman_id</text>
<polygon fill="none" stroke="black" points="1117.01,-995.13 1117.01,-1017.13 1225.01,-1017.13 1225.01,-995.13 1117.01,-995.13"/>
<text text-anchor="start" x="1120.01" y="-1002.43" font-family="Helvetica,sans-Serif" font-size="11.00">int4[10]</text>
<polygon fill="#ffffff" stroke="none" points="918.01,-973.13 918.01,-995.13 1117.01,-995.13 1117.01,-973.13 918.01,-973.13"/>
<polygon fill="none" stroke="black" points="918.01,-973.13 918.01,-995.13 1117.01,-995.13 1117.01,-973.13 918.01,-973.13"/>
<text text-anchor="start" x="938.01" y="-979.68" font-family="Helvetica,sans-Serif" font-size="11.00">product_id</text>
<polygon fill="none" stroke="black" points="1117.01,-973.13 1117.01,-995.13 1225.01,-995.13 1225.01,-973.13 1117.01,-973.13"/>
<text text-anchor="start" x="1120.01" y="-980.43" font-family="Helvetica,sans-Serif" font-size="11.00">int4[10]</text>
<polygon fill="none" stroke="black" points="918.01,-951.13 918.01,-973.13 1117.01,-973.13 1117.01,-951.13 918.01,-951.13"/>
<text text-anchor="start" x="938.01" y="-957.68" font-family="Helvetica,sans-Serif" font-size="11.00">product_uom</text>
<polygon fill="none" stroke="black" points="1117.01,-951.13 1117.01,-973.13 1225.01,-973.13 1225.01,-951.13 1117.01,-951.13"/>
<text text-anchor="start" x="1120.01" y="-958.43" font-family="Helvetica,sans-Serif" font-size="11.00">int4[10]</text>
<polygon fill="none" stroke="black" points="918.01,-929.13 918.01,-951.13 1117.01,-951.13 1117.01,-929.13 918.01,-929.13"/>
<text text-anchor="start" x="938.01" y="-935.68" font-family="Helvetica,sans-Serif" font-size="11.00">product_packaging_id</text>
<polygon fill="none" stroke="black" points="1117.01,-929.13 1117.01,-951.13 1225.01,-951.13 1225.01,-929.13 1117.01,-929.13"/>
<text text-anchor="start" x="1120.01" y="-936.43" font-family="Helvetica,sans-Serif" font-size="11.00">int4[10]</text>
<polygon fill="none" stroke="black" points="918.01,-907.13 918.01,-929.13 1117.01,-929.13 1117.01,-907.13 918.01,-907.13"/>
<image xlink:href="../../images/foreignKeys.png" width="11px" height="12px" preserveAspectRatio="xMinYMin meet" x="923.005" y="-924.131"/>
<text text-anchor="start" x="938.01" y="-913.68" font-family="Helvetica,sans-Serif" font-size="11.00">create_uid</text>
<polygon fill="none" stroke="black" points="1117.01,-907.13 1117.01,-929.13 1225.01,-929.13 1225.01,-907.13 1117.01,-907.13"/>
<text text-anchor="start" x="1120.01" y="-914.43" font-family="Helvetica,sans-Serif" font-size="11.00">int4[10]</text>
<polygon fill="none" stroke="black" points="918.01,-885.13 918.01,-907.13 1117.01,-907.13 1117.01,-885.13 918.01,-885.13"/>
<image xlink:href="../../images/foreignKeys.png" width="11px" height="12px" preserveAspectRatio="xMinYMin meet" x="923.005" y="-902.131"/>
<text text-anchor="start" x="938.01" y="-891.68" font-family="Helvetica,sans-Serif" font-size="11.00">write_uid</text>
<polygon fill="none" stroke="black" points="1117.01,-885.13 1117.01,-907.13 1225.01,-907.13 1225.01,-885.13 1117.01,-885.13"/>
<text text-anchor="start" x="1120.01" y="-892.43" font-family="Helvetica,sans-Serif" font-size="11.00">int4[10]</text>
<polygon fill="none" stroke="black" points="918.01,-863.13 918.01,-885.13 1117.01,-885.13 1117.01,-863.13 918.01,-863.13"/>
<text text-anchor="start" x="938.01" y="-869.68" font-family="Helvetica,sans-Serif" font-size="11.00">state</text>
<polygon fill="none" stroke="black" points="1117.01,-863.13 1117.01,-885.13 1225.01,-885.13 1225.01,-863.13 1117.01,-863.13"/>
<text text-anchor="start" x="1120.01" y="-870.43" font-family="Helvetica,sans-Serif" font-size="11.00">varchar[2147483647]</text>
<polygon fill="none" stroke="black" points="918.01,-841.13 918.01,-863.13 1117.01,-863.13 1117.01,-841.13 918.01,-841.13"/>
<text text-anchor="start" x="938.01" y="-847.68" font-family="Helvetica,sans-Serif" font-size="11.00">display_type</text>
<polygon fill="none" stroke="black" points="1117.01,-841.13 1117.01,-863.13 1225.01,-863.13 1225.01,-841.13 1117.01,-841.13"/>
<text text-anchor="start" x="1120.01" y="-848.43" font-family="Helvetica,sans-Serif" font-size="11.00">varchar[2147483647]</text>
<polygon fill="none" stroke="black" points="918.01,-819.13 918.01,-841.13 1117.01,-841.13 1117.01,-819.13 918.01,-819.13"/>
<text text-anchor="start" x="938.01" y="-825.68" font-family="Helvetica,sans-Serif" font-size="11.00">qty_delivered_method</text>
<polygon fill="none" stroke="black" points="1117.01,-819.13 1117.01,-841.13 1225.01,-841.13 1225.01,-819.13 1117.01,-819.13"/>
<text text-anchor="start" x="1120.01" y="-826.43" font-family="Helvetica,sans-Serif" font-size="11.00">varchar[2147483647]</text>
<polygon fill="none" stroke="black" points="918.01,-797.13 918.01,-819.13 1117.01,-819.13 1117.01,-797.13 918.01,-797.13"/>
<text text-anchor="start" x="938.01" y="-803.68" font-family="Helvetica,sans-Serif" font-size="11.00">invoice_status</text>
<polygon fill="none" stroke="black" points="1117.01,-797.13 1117.01,-819.13 1225.01,-819.13 1225.01,-797.13 1117.01,-797.13"/>
<text text-anchor="start" x="1120.01" y="-804.43" font-family="Helvetica,sans-Serif" font-size="11.00">varchar[2147483647]</text>
<polygon fill="none" stroke="black" points="918.01,-775.13 918.01,-797.13 1117.01,-797.13 1117.01,-775.13 918.01,-775.13"/>
<text text-anchor="start" x="938.01" y="-781.68" font-family="Helvetica,sans-Serif" font-size="11.00">analytic_distribution</text>
<polygon fill="none" stroke="black" points="1117.01,-775.13 1117.01,-797.13 1225.01,-797.13 1225.01,-775.13 1117.01,-775.13"/>
<text text-anchor="start" x="1120.01" y="-782.43" font-family="Helvetica,sans-Serif" font-size="11.00">jsonb[2147483647]</text>
<polygon fill="none" stroke="black" points="918.01,-753.13 918.01,-775.13 1117.01,-775.13 1117.01,-753.13 918.01,-753.13"/>
<text text-anchor="start" x="938.01" y="-759.68" font-family="Helvetica,sans-Serif" font-size="11.00">name</text>
<polygon fill="none" stroke="black" points="1117.01,-753.13 1117.01,-775.13 1225.01,-775.13 1225.01,-753.13 1117.01,-753.13"/>
<text text-anchor="start" x="1120.01" y="-760.43" font-family="Helvetica,sans-Serif" font-size="11.00">text[2147483647]</text>
<polygon fill="none" stroke="black" points="918.01,-731.13 918.01,-753.13 1117.01,-753.13 1117.01,-731.13 918.01,-731.13"/>
<text text-anchor="start" x="938.01" y="-737.68" font-family="Helvetica,sans-Serif" font-size="11.00">product_uom_qty</text>
<polygon fill="none" stroke="black" points="1117.01,-731.13 1117.01,-753.13 1225.01,-753.13 1225.01,-731.13 1117.01,-731.13"/>
<text text-anchor="start" x="1120.01" y="-738.43" font-family="Helvetica,sans-Serif" font-size="11.00">numeric[0]</text>
<polygon fill="none" stroke="black" points="918.01,-709.13 918.01,-731.13 1117.01,-731.13 1117.01,-709.13 918.01,-709.13"/>
<text text-anchor="start" x="938.01" y="-715.68" font-family="Helvetica,sans-Serif" font-size="11.00">price_unit</text>
<polygon fill="none" stroke="black" points="1117.01,-709.13 1117.01,-731.13 1225.01,-731.13 1225.01,-709.13 1117.01,-709.13"/>
<text text-anchor="start" x="1120.01" y="-716.43" font-family="Helvetica,sans-Serif" font-size="11.00">numeric[0]</text>
<polygon fill="none" stroke="black" points="918.01,-687.13 918.01,-709.13 1117.01,-709.13 1117.01,-687.13 918.01,-687.13"/>
<text text-anchor="start" x="938.01" y="-693.68" font-family="Helvetica,sans-Serif" font-size="11.00">discount</text>
<polygon fill="none" stroke="black" points="1117.01,-687.13 1117.01,-709.13 1225.01,-709.13 1225.01,-687.13 1117.01,-687.13"/>
<text text-anchor="start" x="1120.01" y="-694.43" font-family="Helvetica,sans-Serif" font-size="11.00">numeric[0]</text>
<polygon fill="none" stroke="black" points="918.01,-665.13 918.01,-687.13 1117.01,-687.13 1117.01,-665.13 918.01,-665.13"/>
<text text-anchor="start" x="938.01" y="-671.68" font-family="Helvetica,sans-Serif" font-size="11.00">price_subtotal</text>
<polygon fill="none" stroke="black" points="1117.01,-665.13 1117.01,-687.13 1225.01,-687.13 1225.01,-665.13 1117.01,-665.13"/>
<text text-anchor="start" x="1120.01" y="-672.43" font-family="Helvetica,sans-Serif" font-size="11.00">numeric[0]</text>
<polygon fill="none" stroke="black" points="918.01,-643.13 918.01,-665.13 1117.01,-665.13 1117.01,-643.13 918.01,-643.13"/>
<text text-anchor="start" x="938.01" y="-649.68" font-family="Helvetica,sans-Serif" font-size="11.00">price_total</text>
<polygon fill="none" stroke="black" points="1117.01,-643.13 1117.01,-665.13 1225.01,-665.13 1225.01,-643.13 1117.01,-643.13"/>
<text text-anchor="start" x="1120.01" y="-650.43" font-family="Helvetica,sans-Serif" font-size="11.00">numeric[0]</text>
<polygon fill="none" stroke="black" points="918.01,-621.13 918.01,-643.13 1117.01,-643.13 1117.01,-621.13 918.01,-621.13"/>
<text text-anchor="start" x="938.01" y="-627.68" font-family="Helvetica,sans-Serif" font-size="11.00">price_reduce_taxexcl</text>
<polygon fill="none" stroke="black" points="1117.01,-621.13 1117.01,-643.13 1225.01,-643.13 1225.01,-621.13 1117.01,-621.13"/>
<text text-anchor="start" x="1120.01" y="-628.43" font-family="Helvetica,sans-Serif" font-size="11.00">numeric[0]</text>
<polygon fill="none" stroke="black" points="918.01,-599.13 918.01,-621.13 1117.01,-621.13 1117.01,-599.13 918.01,-599.13"/>
<text text-anchor="start" x="938.01" y="-605.68" font-family="Helvetica,sans-Serif" font-size="11.00">price_reduce_taxinc</text>
<polygon fill="none" stroke="black" points="1117.01,-599.13 1117.01,-621.13 1225.01,-621.13 1225.01,-599.13 1117.01,-599.13"/>
<text text-anchor="start" x="1120.01" y="-606.43" font-family="Helvetica,sans-Serif" font-size="11.00">numeric[0]</text>
<polygon fill="none" stroke="black" points="918.01,-577.13 918.01,-599.13 1117.01,-599.13 1117.01,-577.13 918.01,-577.13"/>
<text text-anchor="start" x="938.01" y="-583.68" font-family="Helvetica,sans-Serif" font-size="11.00">qty_delivered</text>
<polygon fill="none" stroke="black" points="1117.01,-577.13 1117.01,-599.13 1225.01,-599.13 1225.01,-577.13 1117.01,-577.13"/>
<text text-anchor="start" x="1120.01" y="-584.43" font-family="Helvetica,sans-Serif" font-size="11.00">numeric[0]</text>
<polygon fill="none" stroke="black" points="918.01,-555.13 918.01,-577.13 1117.01,-577.13 1117.01,-555.13 918.01,-555.13"/>
<text text-anchor="start" x="938.01" y="-561.68" font-family="Helvetica,sans-Serif" font-size="11.00">qty_invoiced</text>
<polygon fill="none" stroke="black" points="1117.01,-555.13 1117.01,-577.13 1225.01,-577.13 1225.01,-555.13 1117.01,-555.13"/>
<text text-anchor="start" x="1120.01" y="-562.43" font-family="Helvetica,sans-Serif" font-size="11.00">numeric[0]</text>
<polygon fill="none" stroke="black" points="918.01,-533.13 918.01,-555.13 1117.01,-555.13 1117.01,-533.13 918.01,-533.13"/>
<text text-anchor="start" x="938.01" y="-539.68" font-family="Helvetica,sans-Serif" font-size="11.00">qty_to_invoice</text>
<polygon fill="none" stroke="black" points="1117.01,-533.13 1117.01,-555.13 1225.01,-555.13 1225.01,-533.13 1117.01,-533.13"/>
<text text-anchor="start" x="1120.01" y="-540.43" font-family="Helvetica,sans-Serif" font-size="11.00">numeric[0]</text>
<polygon fill="none" stroke="black" points="918.01,-511.13 918.01,-533.13 1117.01,-533.13 1117.01,-511.13 918.01,-511.13"/>
<text text-anchor="start" x="938.01" y="-517.68" font-family="Helvetica,sans-Serif" font-size="11.00">untaxed_amount_invoiced</text>
<polygon fill="none" stroke="black" points="1117.01,-511.13 1117.01,-533.13 1225.01,-533.13 1225.01,-511.13 1117.01,-511.13"/>
<text text-anchor="start" x="1120.01" y="-518.43" font-family="Helvetica,sans-Serif" font-size="11.00">numeric[0]</text>
<polygon fill="none" stroke="black" points="918.01,-489.13 918.01,-511.13 1117.01,-511.13 1117.01,-489.13 918.01,-489.13"/>
<text text-anchor="start" x="938.01" y="-495.68" font-family="Helvetica,sans-Serif" font-size="11.00">untaxed_amount_to_invoice</text>
<polygon fill="none" stroke="black" points="1117.01,-489.13 1117.01,-511.13 1225.01,-511.13 1225.01,-489.13 1117.01,-489.13"/>
<text text-anchor="start" x="1120.01" y="-496.43" font-family="Helvetica,sans-Serif" font-size="11.00">numeric[0]</text>
<polygon fill="none" stroke="black" points="918.01,-467.13 918.01,-489.13 1117.01,-489.13 1117.01,-467.13 918.01,-467.13"/>
<text text-anchor="start" x="938.01" y="-473.68" font-family="Helvetica,sans-Serif" font-size="11.00">is_downpayment</text>
<polygon fill="none" stroke="black" points="1117.01,-467.13 1117.01,-489.13 1225.01,-489.13 1225.01,-467.13 1117.01,-467.13"/>
<text text-anchor="start" x="1120.01" y="-474.43" font-family="Helvetica,sans-Serif" font-size="11.00">bool[1]</text>
<polygon fill="none" stroke="black" points="918.01,-445.13 918.01,-467.13 1117.01,-467.13 1117.01,-445.13 918.01,-445.13"/>
<text text-anchor="start" x="938.01" y="-451.68" font-family="Helvetica,sans-Serif" font-size="11.00">is_expense</text>
<polygon fill="none" stroke="black" points="1117.01,-445.13 1117.01,-467.13 1225.01,-467.13 1225.01,-445.13 1117.01,-445.13"/>
<text text-anchor="start" x="1120.01" y="-452.43" font-family="Helvetica,sans-Serif" font-size="11.00">bool[1]</text>
<polygon fill="none" stroke="black" points="918.01,-423.13 918.01,-445.13 1117.01,-445.13 1117.01,-423.13 918.01,-423.13"/>
<text text-anchor="start" x="938.01" y="-429.68" font-family="Helvetica,sans-Serif" font-size="11.00">create_date</text>
<polygon fill="none" stroke="black" points="1117.01,-423.13 1117.01,-445.13 1225.01,-445.13 1225.01,-423.13 1117.01,-423.13"/>
<text text-anchor="start" x="1120.01" y="-430.43" font-family="Helvetica,sans-Serif" font-size="11.00">timestamp[29,6]</text>
<polygon fill="none" stroke="black" points="918.01,-401.13 918.01,-423.13 1117.01,-423.13 1117.01,-401.13 918.01,-401.13"/>
<text text-anchor="start" x="938.01" y="-407.68" font-family="Helvetica,sans-Serif" font-size="11.00">write_date</text>
<polygon fill="none" stroke="black" points="1117.01,-401.13 1117.01,-423.13 1225.01,-423.13 1225.01,-401.13 1117.01,-401.13"/>
<text text-anchor="start" x="1120.01" y="-408.43" font-family="Helvetica,sans-Serif" font-size="11.00">timestamp[29,6]</text>
<polygon fill="none" stroke="black" points="918.01,-379.13 918.01,-401.13 1117.01,-401.13 1117.01,-379.13 918.01,-379.13"/>
<text text-anchor="start" x="938.01" y="-385.68" font-family="Helvetica,sans-Serif" font-size="11.00">price_tax</text>
<polygon fill="none" stroke="black" points="1117.01,-379.13 1117.01,-401.13 1225.01,-401.13 1225.01,-379.13 1117.01,-379.13"/>
<text text-anchor="start" x="1120.01" y="-386.43" font-family="Helvetica,sans-Serif" font-size="11.00">float8[17,17]</text>
<polygon fill="none" stroke="black" points="918.01,-357.13 918.01,-379.13 1117.01,-379.13 1117.01,-357.13 918.01,-357.13"/>
<text text-anchor="start" x="938.01" y="-363.68" font-family="Helvetica,sans-Serif" font-size="11.00">product_packaging_qty</text>
<polygon fill="none" stroke="black" points="1117.01,-357.13 1117.01,-379.13 1225.01,-379.13 1225.01,-357.13 1117.01,-357.13"/>
<text text-anchor="start" x="1120.01" y="-364.43" font-family="Helvetica,sans-Serif" font-size="11.00">float8[17,17]</text>
<polygon fill="none" stroke="black" points="918.01,-335.13 918.01,-357.13 1117.01,-357.13 1117.01,-335.13 918.01,-335.13"/>
<text text-anchor="start" x="938.01" y="-341.68" font-family="Helvetica,sans-Serif" font-size="11.00">customer_lead</text>
<polygon fill="none" stroke="black" points="1117.01,-335.13 1117.01,-357.13 1225.01,-357.13 1225.01,-335.13 1117.01,-335.13"/>
<text text-anchor="start" x="1120.01" y="-342.43" font-family="Helvetica,sans-Serif" font-size="11.00">float8[17,17]</text>
<polygon fill="none" stroke="black" points="918.01,-313.13 918.01,-335.13 1117.01,-335.13 1117.01,-313.13 918.01,-313.13"/>
<text text-anchor="start" x="938.01" y="-319.68" font-family="Helvetica,sans-Serif" font-size="11.00">is_service</text>
<polygon fill="none" stroke="black" points="1117.01,-313.13 1117.01,-335.13 1225.01,-335.13 1225.01,-313.13 1117.01,-313.13"/>
<text text-anchor="start" x="1120.01" y="-320.43" font-family="Helvetica,sans-Serif" font-size="11.00">bool[1]</text>
<polygon fill="#ffffff" stroke="none" points="918.01,-291.13 918.01,-313.13 1117.01,-313.13 1117.01,-291.13 918.01,-291.13"/>
<polygon fill="none" stroke="black" points="918.01,-291.13 918.01,-313.13 1117.01,-313.13 1117.01,-291.13 918.01,-291.13"/>
<image xlink:href="../../images/foreignKeys.png" width="11px" height="12px" preserveAspectRatio="xMinYMin meet" x="923.005" y="-308.131"/>
<text text-anchor="start" x="938.01" y="-297.68" font-family="Helvetica,sans-Serif" font-size="11.00">parent_line_id</text>
<polygon fill="none" stroke="black" points="1117.01,-291.13 1117.01,-313.13 1225.01,-313.13 1225.01,-291.13 1117.01,-291.13"/>
<text text-anchor="start" x="1120.01" y="-298.43" font-family="Helvetica,sans-Serif" font-size="11.00">int4[10]</text>
<polygon fill="#ffffff" stroke="none" points="918.01,-269.13 918.01,-291.13 1117.01,-291.13 1117.01,-269.13 918.01,-269.13"/>
<polygon fill="none" stroke="black" points="918.01,-269.13 918.01,-291.13 1117.01,-291.13 1117.01,-269.13 918.01,-269.13"/>
<image xlink:href="../../images/foreignKeys.png" width="11px" height="12px" preserveAspectRatio="xMinYMin meet" x="923.005" y="-286.131"/>
<text text-anchor="start" x="938.01" y="-275.68" font-family="Helvetica,sans-Serif" font-size="11.00">project_id</text>
<polygon fill="none" stroke="black" points="1117.01,-269.13 1117.01,-291.13 1225.01,-291.13 1225.01,-269.13 1117.01,-269.13"/>
<text text-anchor="start" x="1120.01" y="-276.43" font-family="Helvetica,sans-Serif" font-size="11.00">int4[10]</text>
<polygon fill="#ffffff" stroke="none" points="918.01,-247.13 918.01,-269.13 1117.01,-269.13 1117.01,-247.13 918.01,-247.13"/>
<polygon fill="none" stroke="black" points="918.01,-247.13 918.01,-269.13 1117.01,-269.13 1117.01,-247.13 918.01,-247.13"/>
<image xlink:href="../../images/foreignKeys.png" width="11px" height="12px" preserveAspectRatio="xMinYMin meet" x="923.005" y="-264.131"/>
<text text-anchor="start" x="938.01" y="-253.68" font-family="Helvetica,sans-Serif" font-size="11.00">task_id</text>
<polygon fill="none" stroke="black" points="1117.01,-247.13 1117.01,-269.13 1225.01,-269.13 1225.01,-247.13 1117.01,-247.13"/>
<text text-anchor="start" x="1120.01" y="-254.43" font-family="Helvetica,sans-Serif" font-size="11.00">int4[10]</text>
<polygon fill="none" stroke="black" points="918.01,-225.13 918.01,-247.13 1117.01,-247.13 1117.01,-225.13 918.01,-225.13"/>
<text text-anchor="start" x="938.01" y="-231.68" font-family="Helvetica,sans-Serif" font-size="11.00">has_displayed_warning_upsell</text>
<polygon fill="none" stroke="black" points="1117.01,-225.13 1117.01,-247.13 1225.01,-247.13 1225.01,-225.13 1117.01,-225.13"/>
<text text-anchor="start" x="1120.01" y="-232.43" font-family="Helvetica,sans-Serif" font-size="11.00">bool[1]</text>
<polygon fill="none" stroke="black" points="918.01,-203.13 918.01,-225.13 1117.01,-225.13 1117.01,-203.13 918.01,-203.13"/>
<text text-anchor="start" x="938.01" y="-209.68" font-family="Helvetica,sans-Serif" font-size="11.00">remaining_hours</text>
<polygon fill="none" stroke="black" points="1117.01,-203.13 1117.01,-225.13 1225.01,-225.13 1225.01,-203.13 1117.01,-203.13"/>
<text text-anchor="start" x="1120.01" y="-210.43" font-family="Helvetica,sans-Serif" font-size="11.00">float8[17,17]</text>
<polygon fill="#ffffff" stroke="none" points="918.01,-184.13 918.01,-203.13 1022.01,-203.13 1022.01,-184.13 918.01,-184.13"/>
<polygon fill="none" stroke="black" points="918.01,-184.13 918.01,-203.13 1022.01,-203.13 1022.01,-184.13 918.01,-184.13"/>
<text text-anchor="start" x="921.01" y="-189.68" font-family="Helvetica,sans-Serif" font-size="11.00">&lt; 8</text>
<polygon fill="#ffffff" stroke="none" points="1022.01,-184.13 1022.01,-203.13 1117.01,-203.13 1117.01,-184.13 1022.01,-184.13"/>
<polygon fill="none" stroke="black" points="1022.01,-184.13 1022.01,-203.13 1117.01,-203.13 1117.01,-184.13 1022.01,-184.13"/>
<text text-anchor="start" x="1108.01" y="-189.68" font-family="Helvetica,sans-Serif" font-size="11.00"> &#160;</text>
<polygon fill="#ffffff" stroke="none" points="1117.01,-184.13 1117.01,-203.13 1225.01,-203.13 1225.01,-184.13 1117.01,-184.13"/>
<polygon fill="none" stroke="black" points="1117.01,-184.13 1117.01,-203.13 1225.01,-203.13 1225.01,-184.13 1117.01,-184.13"/>
<text text-anchor="start" x="1206.26" y="-189.68" font-family="Helvetica,sans-Serif" font-size="11.00">3 &gt;</text>
<polygon fill="none" stroke="black" stroke-width="2" points="917.01,-183.13 917.01,-1173.13 1226.01,-1173.13 1226.01,-183.13 917.01,-183.13"/>
</a>
</g>
</g>
<!-- project_project&#45;&gt;sale_order_line -->
<g id="edge3" class="edge">
<title>project_project:w&#45;&gt;sale_order_line:e</title>
<path fill="none" stroke="black" d="M1259.65,-576.1C1166.83,-623.35 1346.35,-1138.13 1226.01,-1138.13"/>
<polygon fill="black" stroke="black" points="1266.88,-574.47 1275.47,-576.22 1271.1,-573.51 1274.35,-572.78 1274.35,-572.78 1274.35,-572.78 1271.1,-573.51 1273.89,-569.19 1266.88,-574.47"/>
<ellipse fill="none" stroke="black" cx="1262.08" cy="-575.55" rx="3.2" ry="3.2"/>
</g>
<!-- res_users&#45;&gt;res_partner -->
<g id="edge17" class="edge">
<title>res_users:w&#45;&gt;res_partner:e</title>
<path fill="none" stroke="black" d="M242.22,-612.92C189.18,-658.38 287.88,-981.63 210.01,-981.63"/>
<polygon fill="black" stroke="black" points="249.16,-610.44 257.9,-611.13 253.24,-608.98 256.38,-607.86 256.38,-607.86 256.38,-607.86 253.24,-608.98 255.48,-604.35 249.16,-610.44"/>
<ellipse fill="none" stroke="black" cx="244.53" cy="-612.09" rx="3.2" ry="3.2"/>
</g>
<!-- res_partner&#45;&gt;res_users -->
<g id="edge12" class="edge">
<title>res_partner:w&#45;&gt;res_users:e</title>
<path fill="none" stroke="black" d="M6.07,-619.23C-9.15,-579.97 35.41,-449.32 217.01,-576.63 252.23,-601.33 214.78,-642.93 250.01,-667.63 306.78,-707.43 356.34,-716.01 406.01,-667.63 418.11,-655.84 423.9,-629.63 407.01,-629.63"/>
<polygon fill="black" stroke="black" points="11.72,-624.15 15.39,-632.12 14.99,-627 17.5,-629.19 17.5,-629.19 17.5,-629.19 14.99,-627 20.12,-626.7 11.72,-624.15"/>
<ellipse fill="none" stroke="black" cx="8.01" cy="-620.92" rx="3.2" ry="3.2"/>
</g>
<!-- res_partner&#45;&gt;res_users -->
<g id="edge13" class="edge">
<title>res_partner:w&#45;&gt;res_users:e</title>
<path fill="none" stroke="black" d="M7.33,-662.06C0.28,-638.93 7.27,-588.24 19.01,-576.63 81.55,-514.73 144.95,-526.11 217.01,-576.63 252.23,-601.33 214.78,-642.93 250.01,-667.63 306.78,-707.43 356.34,-716.01 406.01,-667.63 418.11,-655.84 423.9,-629.63 407.01,-629.63"/>
<polygon fill="black" stroke="black" points="12.35,-667.51 15.13,-675.83 15.29,-670.69 17.55,-673.14 17.55,-673.14 17.55,-673.14 15.29,-670.69 20.42,-670.94 12.35,-667.51"/>
<ellipse fill="none" stroke="black" cx="9.02" cy="-663.89" rx="3.2" ry="3.2"/>
</g>
<!-- res_partner&#45;&gt;res_users -->
<g id="edge14" class="edge">
<title>res_partner:w&#45;&gt;res_users:e</title>
<path fill="none" stroke="black" d="M9.57,-841C-0.68,-882.51 6.42,-1007.11 19.01,-1019.63 81.39,-1081.69 150.07,-1076.76 217.01,-1019.63 288.03,-959.01 206,-894.49 250.01,-812.13 294.54,-728.77 367.04,-753.73 406.01,-667.63 412.97,-652.24 423.9,-629.63 407.01,-629.63"/>
<polygon fill="black" stroke="black" points="13.56,-834.68 20.87,-829.83 15.87,-831.01 17.65,-828.2 17.65,-828.2 17.65,-828.2 15.87,-831.01 14.78,-825.99 13.56,-834.68"/>
<ellipse fill="none" stroke="black" cx="10.94" cy="-838.84" rx="3.2" ry="3.2"/>
</g>
<!-- res_partner&#45;&gt;res_users -->
<g id="edge15" class="edge">
<title>res_partner:w&#45;&gt;res_users:e</title>
<path fill="none" stroke="black" d="M6,-903.57C-6.2,-930.44 2.85,-1003.61 19.01,-1019.63 81.48,-1081.61 150.07,-1076.76 217.01,-1019.63 288.03,-959.01 206,-894.49 250.01,-812.13 294.54,-728.77 367.04,-753.73 406.01,-667.63 412.97,-652.24 423.9,-629.63 407.01,-629.63"/>
<polygon fill="black" stroke="black" points="11.58,-898.94 20.04,-896.62 14.92,-896.18 17.49,-894.06 17.49,-894.06 17.49,-894.06 14.92,-896.18 15.45,-891.07 11.58,-898.94"/>
<ellipse fill="none" stroke="black" cx="7.79" cy="-902.08" rx="3.2" ry="3.2"/>
</g>
<!-- res_partner&#45;&gt;res_users -->
<g id="edge16" class="edge">
<title>res_partner:w&#45;&gt;res_users:e</title>
<path fill="none" stroke="black" d="M9.09,-818.64C-3.08,-862.86 4.79,-1005.48 19.01,-1019.63 81.38,-1081.71 150.07,-1076.76 217.01,-1019.63 288.03,-959.01 206,-894.49 250.01,-812.13 294.54,-728.77 367.04,-753.73 406.01,-667.63 412.97,-652.24 423.9,-629.63 407.01,-629.63"/>
<polygon fill="black" stroke="black" points="13.29,-812.51 20.79,-807.94 15.74,-808.93 17.63,-806.18 17.63,-806.18 17.63,-806.18 15.74,-808.93 14.85,-803.87 13.29,-812.51"/>
<ellipse fill="none" stroke="black" cx="10.51" cy="-816.56" rx="3.2" ry="3.2"/>
</g>
<!-- sale_order_line&#45;&gt;project_project -->
<g id="edge32" class="edge">
<title>sale_order_line:w&#45;&gt;project_project:e</title>
<path fill="none" stroke="black" d="M906.12,-269.06C898.13,-245.29 905.48,-190.53 918.01,-178.13 930.52,-165.74 1222.22,-166.02 1235.01,-178.13 1333.32,-271.26 1169.69,-693.5 1268.01,-786.63 1327.7,-843.17 1394.11,-844 1453.01,-786.63 1465.11,-774.84 1470.9,-748.63 1454.01,-748.63"/>
<polygon fill="black" stroke="black" points="911.16,-274.19 914.2,-282.42 914.2,-277.28 916.54,-279.65 916.54,-279.65 916.54,-279.65 914.2,-277.28 919.34,-277.37 911.16,-274.19"/>
<ellipse fill="none" stroke="black" cx="907.72" cy="-270.68" rx="3.2" ry="3.2"/>
</g>
<!-- sale_order_line&#45;&gt;res_users -->
<g id="edge28" class="edge">
<title>sale_order_line:w&#45;&gt;res_users:e</title>
<path fill="none" stroke="black" d="M901.77,-914.63C825.92,-875 948.89,-510.77 875.01,-443.13 839.93,-411.02 483.99,-413.24 447.01,-443.13 381.07,-496.42 491.78,-629.63 407.01,-629.63"/>
<polygon fill="black" stroke="black" points="908.88,-916.26 915.87,-921.56 913.11,-917.24 916.35,-917.98 916.35,-917.98 916.35,-917.98 913.11,-917.24 917.48,-914.55 908.88,-916.26"/>
<ellipse fill="none" stroke="black" cx="904.09" cy="-915.16" rx="3.2" ry="3.2"/>
</g>
<!-- sale_order_line&#45;&gt;res_users -->
<g id="edge33" class="edge">
<title>sale_order_line:w&#45;&gt;res_users:e</title>
<path fill="none" stroke="black" d="M902.52,-1000.56C865.65,-967.29 896.01,-794.59 875.01,-746.13 813.14,-603.39 800.65,-537.71 661.01,-469.13 618.32,-448.17 484.48,-439.85 447.01,-469.13 389.08,-514.39 480.52,-629.63 407.01,-629.63"/>
<polygon fill="black" stroke="black" points="909.23,-1003.14 915.4,-1009.37 913.27,-1004.7 916.38,-1005.89 916.38,-1005.89 916.38,-1005.89 913.27,-1004.7 917.98,-1002.65 909.23,-1003.14"/>
<ellipse fill="none" stroke="black" cx="904.63" cy="-1001.37" rx="3.2" ry="3.2"/>
</g>
<!-- sale_order_line&#45;&gt;res_users -->
<g id="edge35" class="edge">
<title>sale_order_line:w&#45;&gt;res_users:e</title>
<path fill="none" stroke="black" d="M901.61,-892.59C825.02,-852.55 949.63,-484.51 875.01,-416.13 734.76,-287.62 593.37,-294.64 447.01,-416.13 372.72,-477.79 503.54,-629.63 407.01,-629.63"/>
<polygon fill="black" stroke="black" points="908.88,-894.26 915.87,-899.56 913.11,-895.23 916.35,-895.98 916.35,-895.98 916.35,-895.98 913.11,-895.23 917.49,-892.55 908.88,-894.26"/>
<ellipse fill="none" stroke="black" cx="904.09" cy="-893.16" rx="3.2" ry="3.2"/>
</g>
<!-- sale_order_line&#45;&gt;res_partner -->
<g id="edge30" class="edge">
<title>sale_order_line:w&#45;&gt;res_partner:e</title>
<path fill="none" stroke="black" d="M901.49,-1030.32C852.09,-1047.17 932.63,-1156.76 875.01,-1202.13 861.64,-1212.65 498.18,-1208.51 447.01,-1199.13 355.31,-1182.32 313.16,-1195.7 250.01,-1127.13 204.57,-1077.8 277.07,-981.63 210.01,-981.63"/>
<polygon fill="black" stroke="black" points="908.75,-1029.29 917.18,-1031.74 913.04,-1028.69 916.34,-1028.22 916.34,-1028.22 916.34,-1028.22 913.04,-1028.69 916.17,-1024.61 908.75,-1029.29"/>
<ellipse fill="none" stroke="black" cx="903.88" cy="-1029.98" rx="3.2" ry="3.2"/>
</g>
<!-- sale_order_line&#45;&gt;sale_order_line -->
<g id="edge31" class="edge">
<title>sale_order_line:w&#45;&gt;sale_order_line:e</title>
<path fill="none" stroke="black" d="M912.48,-316.77C846.41,-510.49 852.19,-1191.13 1071.51,-1191.13 1296.76,-1191.13 1296.76,-1182.46 1225.01,-1138.13"/>
<polygon fill="black" stroke="black" points="915.06,-309.93 921.26,-303.71 916.59,-305.87 917.77,-302.76 917.77,-302.76 917.77,-302.76 916.59,-305.87 914.52,-301.17 915.06,-309.93"/>
<ellipse fill="none" stroke="black" cx="913.33" cy="-314.53" rx="3.2" ry="3.2"/>
</g>
<!-- project_task -->
<g id="node5" class="node">
<title>project_task</title>
<g id="a_node5"><a xlink:href="../../tables/project_task.html" xlink:title="project_task" target="_top">
<polygon fill="#ffffff" stroke="none" points="702.01,-756.63 702.01,-1191.63 867.01,-1191.63 867.01,-756.63 702.01,-756.63"/>
<polygon fill="#f5f5f5" stroke="none" points="702.01,-1168.63 702.01,-1191.63 867.01,-1191.63 867.01,-1168.63 702.01,-1168.63"/>
<polygon fill="none" stroke="black" points="702.01,-1168.63 702.01,-1191.63 867.01,-1191.63 867.01,-1168.63 702.01,-1168.63"/>
<text text-anchor="start" x="707.01" y="-1176.43" font-family="Helvetica,sans-Serif" font-weight="bold" font-size="11.00">project_task</text>
<text text-anchor="start" x="832.76" y="-1176.18" font-family="Helvetica,sans-Serif" font-size="11.00">[table]</text>
<polygon fill="none" stroke="black" points="702.01,-1146.63 702.01,-1168.63 867.01,-1168.63 867.01,-1146.63 702.01,-1146.63"/>
<image xlink:href="../../images/primaryKeys.png" width="11px" height="12px" preserveAspectRatio="xMinYMin meet" x="707.005" y="-1163.63"/>
<text text-anchor="start" x="722.01" y="-1153.18" font-family="Helvetica,sans-Serif" font-size="11.00">id</text>
<polygon fill="#ffffff" stroke="none" points="702.01,-1124.63 702.01,-1146.63 867.01,-1146.63 867.01,-1124.63 702.01,-1124.63"/>
<polygon fill="none" stroke="black" points="702.01,-1124.63 702.01,-1146.63 867.01,-1146.63 867.01,-1124.63 702.01,-1124.63"/>
<image xlink:href="../../images/foreignKeys.png" width="11px" height="12px" preserveAspectRatio="xMinYMin meet" x="707.005" y="-1141.63"/>
<text text-anchor="start" x="722.01" y="-1131.18" font-family="Helvetica,sans-Serif" font-size="11.00">stage_id</text>
<polygon fill="#ffffff" stroke="none" points="702.01,-1102.63 702.01,-1124.63 867.01,-1124.63 867.01,-1102.63 702.01,-1102.63"/>
<polygon fill="none" stroke="black" points="702.01,-1102.63 702.01,-1124.63 867.01,-1124.63 867.01,-1102.63 702.01,-1102.63"/>
<image xlink:href="../../images/foreignKeys.png" width="11px" height="12px" preserveAspectRatio="xMinYMin meet" x="707.005" y="-1119.63"/>
<text text-anchor="start" x="722.01" y="-1109.18" font-family="Helvetica,sans-Serif" font-size="11.00">project_id</text>
<polygon fill="none" stroke="black" points="702.01,-1080.63 702.01,-1102.63 867.01,-1102.63 867.01,-1080.63 702.01,-1080.63"/>
<image xlink:href="../../images/foreignKeys.png" width="11px" height="12px" preserveAspectRatio="xMinYMin meet" x="707.005" y="-1097.63"/>
<text text-anchor="start" x="722.01" y="-1087.18" font-family="Helvetica,sans-Serif" font-size="11.00">partner_id</text>
<polygon fill="#ffffff" stroke="none" points="702.01,-1058.63 702.01,-1080.63 867.01,-1080.63 867.01,-1058.63 702.01,-1058.63"/>
<polygon fill="none" stroke="black" points="702.01,-1058.63 702.01,-1080.63 867.01,-1080.63 867.01,-1058.63 702.01,-1058.63"/>
<image xlink:href="../../images/foreignKeys.png" width="11px" height="12px" preserveAspectRatio="xMinYMin meet" x="707.005" y="-1075.63"/>
<text text-anchor="start" x="722.01" y="-1065.18" font-family="Helvetica,sans-Serif" font-size="11.00">parent_id</text>
<polygon fill="#ffffff" stroke="none" points="702.01,-1036.63 702.01,-1058.63 867.01,-1058.63 867.01,-1036.63 702.01,-1036.63"/>
<polygon fill="none" stroke="black" points="702.01,-1036.63 702.01,-1058.63 867.01,-1058.63 867.01,-1036.63 702.01,-1036.63"/>
<text text-anchor="start" x="722.01" y="-1043.18" font-family="Helvetica,sans-Serif" font-size="11.00">milestone_id</text>
<polygon fill="none" stroke="black" points="702.01,-1014.63 702.01,-1036.63 867.01,-1036.63 867.01,-1014.63 702.01,-1014.63"/>
<image xlink:href="../../images/foreignKeys.png" width="11px" height="12px" preserveAspectRatio="xMinYMin meet" x="707.005" y="-1031.63"/>
<text text-anchor="start" x="722.01" y="-1021.18" font-family="Helvetica,sans-Serif" font-size="11.00">create_uid</text>
<polygon fill="none" stroke="black" points="702.01,-992.63 702.01,-1014.63 867.01,-1014.63 867.01,-992.63 702.01,-992.63"/>
<image xlink:href="../../images/foreignKeys.png" width="11px" height="12px" preserveAspectRatio="xMinYMin meet" x="707.005" y="-1009.63"/>
<text text-anchor="start" x="722.01" y="-999.18" font-family="Helvetica,sans-Serif" font-size="11.00">write_uid</text>
<polygon fill="#ffffff" stroke="none" points="702.01,-970.63 702.01,-992.63 867.01,-992.63 867.01,-970.63 702.01,-970.63"/>
<polygon fill="none" stroke="black" points="702.01,-970.63 702.01,-992.63 867.01,-992.63 867.01,-970.63 702.01,-970.63"/>
<text text-anchor="start" x="722.01" y="-977.18" font-family="Helvetica,sans-Serif" font-size="11.00">name</text>
<polygon fill="#ffffff" stroke="none" points="702.01,-948.63 702.01,-970.63 867.01,-970.63 867.01,-948.63 702.01,-948.63"/>
<polygon fill="none" stroke="black" points="702.01,-948.63 702.01,-970.63 867.01,-970.63 867.01,-948.63 702.01,-948.63"/>
<text text-anchor="start" x="722.01" y="-955.18" font-family="Helvetica,sans-Serif" font-size="11.00">priority</text>
<polygon fill="#ffffff" stroke="none" points="702.01,-926.63 702.01,-948.63 867.01,-948.63 867.01,-926.63 702.01,-926.63"/>
<polygon fill="none" stroke="black" points="702.01,-926.63 702.01,-948.63 867.01,-948.63 867.01,-926.63 702.01,-926.63"/>
<text text-anchor="start" x="722.01" y="-933.18" font-family="Helvetica,sans-Serif" font-size="11.00">state</text>
<polygon fill="#ffffff" stroke="none" points="702.01,-904.63 702.01,-926.63 867.01,-926.63 867.01,-904.63 702.01,-904.63"/>
<polygon fill="none" stroke="black" points="702.01,-904.63 702.01,-926.63 867.01,-926.63 867.01,-904.63 702.01,-904.63"/>
<text text-anchor="start" x="722.01" y="-911.18" font-family="Helvetica,sans-Serif" font-size="11.00">create_date</text>
<polygon fill="#ffffff" stroke="none" points="702.01,-882.63 702.01,-904.63 867.01,-904.63 867.01,-882.63 702.01,-882.63"/>
<polygon fill="none" stroke="black" points="702.01,-882.63 702.01,-904.63 867.01,-904.63 867.01,-882.63 702.01,-882.63"/>
<text text-anchor="start" x="722.01" y="-889.18" font-family="Helvetica,sans-Serif" font-size="11.00">date_end</text>
<polygon fill="#ffffff" stroke="none" points="702.01,-860.63 702.01,-882.63 867.01,-882.63 867.01,-860.63 702.01,-860.63"/>
<polygon fill="none" stroke="black" points="702.01,-860.63 702.01,-882.63 867.01,-882.63 867.01,-860.63 702.01,-860.63"/>
<text text-anchor="start" x="722.01" y="-867.18" font-family="Helvetica,sans-Serif" font-size="11.00">date_deadline</text>
<polygon fill="#ffffff" stroke="none" points="702.01,-838.63 702.01,-860.63 867.01,-860.63 867.01,-838.63 702.01,-838.63"/>
<polygon fill="none" stroke="black" points="702.01,-838.63 702.01,-860.63 867.01,-860.63 867.01,-838.63 702.01,-838.63"/>
<text text-anchor="start" x="722.01" y="-845.18" font-family="Helvetica,sans-Serif" font-size="11.00">date_last_stage_update</text>
<polygon fill="none" stroke="black" points="702.01,-816.63 702.01,-838.63 867.01,-838.63 867.01,-816.63 702.01,-816.63"/>
<image xlink:href="../../images/foreignKeys.png" width="11px" height="12px" preserveAspectRatio="xMinYMin meet" x="707.005" y="-833.631"/>
<text text-anchor="start" x="722.01" y="-823.18" font-family="Helvetica,sans-Serif" font-size="11.00">sale_order_id</text>
<polygon fill="#ffffff" stroke="none" points="702.01,-794.63 702.01,-816.63 867.01,-816.63 867.01,-794.63 702.01,-794.63"/>
<polygon fill="none" stroke="black" points="702.01,-794.63 702.01,-816.63 867.01,-816.63 867.01,-794.63 702.01,-794.63"/>
<image xlink:href="../../images/foreignKeys.png" width="11px" height="12px" preserveAspectRatio="xMinYMin meet" x="707.005" y="-811.631"/>
<text text-anchor="start" x="722.01" y="-801.18" font-family="Helvetica,sans-Serif" font-size="11.00">sale_line_id</text>
<polygon fill="none" stroke="black" points="702.01,-775.63 702.01,-794.63 867.01,-794.63 867.01,-775.63 702.01,-775.63"/>
<text text-anchor="start" x="705.01" y="-781.18" font-family="Helvetica,sans-Serif" font-size="11.00">...</text>
<polygon fill="#ffffff" stroke="none" points="702.01,-756.63 702.01,-775.63 778.01,-775.63 778.01,-756.63 702.01,-756.63"/>
<polygon fill="none" stroke="black" points="702.01,-756.63 702.01,-775.63 778.01,-775.63 778.01,-756.63 702.01,-756.63"/>
<text text-anchor="start" x="705.01" y="-762.18" font-family="Helvetica,sans-Serif" font-size="11.00">&lt; 8</text>
<polygon fill="#ffffff" stroke="none" points="778.01,-756.63 778.01,-775.63 818.01,-775.63 818.01,-756.63 778.01,-756.63"/>
<polygon fill="none" stroke="black" points="778.01,-756.63 778.01,-775.63 818.01,-775.63 818.01,-756.63 778.01,-756.63"/>
<text text-anchor="start" x="809.01" y="-762.18" font-family="Helvetica,sans-Serif" font-size="11.00"> &#160;</text>
<polygon fill="#ffffff" stroke="none" points="818.01,-756.63 818.01,-775.63 867.01,-775.63 867.01,-756.63 818.01,-756.63"/>
<polygon fill="none" stroke="black" points="818.01,-756.63 818.01,-775.63 867.01,-775.63 867.01,-756.63 818.01,-756.63"/>
<text text-anchor="start" x="848.26" y="-762.18" font-family="Helvetica,sans-Serif" font-size="11.00">2 &gt;</text>
</a>
</g>
</g>
<!-- sale_order_line&#45;&gt;project_task -->
<g id="edge34" class="edge">
<title>sale_order_line:w&#45;&gt;project_task:e</title>
<path fill="none" stroke="black" d="M903.19,-265.37C832.16,-350.5 962.82,-1157.63 868.01,-1157.63"/>
<polygon fill="black" stroke="black" points="909.62,-262 918.38,-261.47 913.46,-259.99 916.41,-258.44 916.41,-258.44 916.41,-258.44 913.46,-259.99 915.04,-255.1 909.62,-262"/>
<ellipse fill="none" stroke="black" cx="905.27" cy="-264.28" rx="3.2" ry="3.2"/>
</g>
<!-- sale_order -->
<g id="node6" class="node">
<title>sale_order</title>
<g id="a_node6"><a xlink:href="../../tables/sale_order.html" xlink:title="sale_order" target="_top">
<polygon fill="#ffffff" stroke="none" points="455.01,-531.63 455.01,-1164.63 653.01,-1164.63 653.01,-531.63 455.01,-531.63"/>
<polygon fill="#f5f5f5" stroke="none" points="455.01,-1141.63 455.01,-1164.63 653.01,-1164.63 653.01,-1141.63 455.01,-1141.63"/>
<polygon fill="none" stroke="black" points="455.01,-1141.63 455.01,-1164.63 653.01,-1164.63 653.01,-1141.63 455.01,-1141.63"/>
<text text-anchor="start" x="460.01" y="-1149.43" font-family="Helvetica,sans-Serif" font-weight="bold" font-size="11.00">sale_order</text>
<text text-anchor="start" x="618.76" y="-1149.18" font-family="Helvetica,sans-Serif" font-size="11.00">[table]</text>
<polygon fill="none" stroke="black" points="455.01,-1119.63 455.01,-1141.63 653.01,-1141.63 653.01,-1119.63 455.01,-1119.63"/>
<image xlink:href="../../images/primaryKeys.png" width="11px" height="12px" preserveAspectRatio="xMinYMin meet" x="460.005" y="-1136.63"/>
<text text-anchor="start" x="475.01" y="-1126.18" font-family="Helvetica,sans-Serif" font-size="11.00">id</text>
<polygon fill="#ffffff" stroke="none" points="455.01,-1097.63 455.01,-1119.63 653.01,-1119.63 653.01,-1097.63 455.01,-1097.63"/>
<polygon fill="none" stroke="black" points="455.01,-1097.63 455.01,-1119.63 653.01,-1119.63 653.01,-1097.63 455.01,-1097.63"/>
<text text-anchor="start" x="475.01" y="-1104.18" font-family="Helvetica,sans-Serif" font-size="11.00">company_id</text>
<polygon fill="#ffffff" stroke="none" points="455.01,-1075.63 455.01,-1097.63 653.01,-1097.63 653.01,-1075.63 455.01,-1075.63"/>
<polygon fill="none" stroke="black" points="455.01,-1075.63 455.01,-1097.63 653.01,-1097.63 653.01,-1075.63 455.01,-1075.63"/>
<image xlink:href="../../images/foreignKeys.png" width="11px" height="12px" preserveAspectRatio="xMinYMin meet" x="460.005" y="-1092.63"/>
<text text-anchor="start" x="475.01" y="-1082.18" font-family="Helvetica,sans-Serif" font-size="11.00">partner_id</text>
<polygon fill="none" stroke="black" points="455.01,-1053.63 455.01,-1075.63 653.01,-1075.63 653.01,-1053.63 455.01,-1053.63"/>
<image xlink:href="../../images/foreignKeys.png" width="11px" height="12px" preserveAspectRatio="xMinYMin meet" x="460.005" y="-1070.63"/>
<text text-anchor="start" x="475.01" y="-1060.18" font-family="Helvetica,sans-Serif" font-size="11.00">journal_id</text>
<polygon fill="#ffffff" stroke="none" points="455.01,-1031.63 455.01,-1053.63 653.01,-1053.63 653.01,-1031.63 455.01,-1031.63"/>
<polygon fill="none" stroke="black" points="455.01,-1031.63 455.01,-1053.63 653.01,-1053.63 653.01,-1031.63 455.01,-1031.63"/>
<image xlink:href="../../images/foreignKeys.png" width="11px" height="12px" preserveAspectRatio="xMinYMin meet" x="460.005" y="-1048.63"/>
<text text-anchor="start" x="475.01" y="-1038.18" font-family="Helvetica,sans-Serif" font-size="11.00">partner_invoice_id</text>
<polygon fill="#ffffff" stroke="none" points="455.01,-1009.63 455.01,-1031.63 653.01,-1031.63 653.01,-1009.63 455.01,-1009.63"/>
<polygon fill="none" stroke="black" points="455.01,-1009.63 455.01,-1031.63 653.01,-1031.63 653.01,-1009.63 455.01,-1009.63"/>
<image xlink:href="../../images/foreignKeys.png" width="11px" height="12px" preserveAspectRatio="xMinYMin meet" x="460.005" y="-1026.63"/>
<text text-anchor="start" x="475.01" y="-1016.18" font-family="Helvetica,sans-Serif" font-size="11.00">partner_shipping_id</text>
<polygon fill="none" stroke="black" points="455.01,-987.63 455.01,-1009.63 653.01,-1009.63 653.01,-987.63 455.01,-987.63"/>
<image xlink:href="../../images/foreignKeys.png" width="11px" height="12px" preserveAspectRatio="xMinYMin meet" x="460.005" y="-1004.63"/>
<text text-anchor="start" x="475.01" y="-994.18" font-family="Helvetica,sans-Serif" font-size="11.00">fiscal_position_id</text>
<polygon fill="#ffffff" stroke="none" points="455.01,-965.63 455.01,-987.63 653.01,-987.63 653.01,-965.63 455.01,-965.63"/>
<polygon fill="none" stroke="black" points="455.01,-965.63 455.01,-987.63 653.01,-987.63 653.01,-965.63 455.01,-965.63"/>
<image xlink:href="../../images/foreignKeys.png" width="11px" height="12px" preserveAspectRatio="xMinYMin meet" x="460.005" y="-982.631"/>
<text text-anchor="start" x="475.01" y="-972.18" font-family="Helvetica,sans-Serif" font-size="11.00">user_id</text>
<polygon fill="none" stroke="black" points="455.01,-943.63 455.01,-965.63 653.01,-965.63 653.01,-943.63 455.01,-943.63"/>
<image xlink:href="../../images/foreignKeys.png" width="11px" height="12px" preserveAspectRatio="xMinYMin meet" x="460.005" y="-960.631"/>
<text text-anchor="start" x="475.01" y="-950.18" font-family="Helvetica,sans-Serif" font-size="11.00">team_id</text>
<polygon fill="none" stroke="black" points="455.01,-921.63 455.01,-943.63 653.01,-943.63 653.01,-921.63 455.01,-921.63"/>
<image xlink:href="../../images/foreignKeys.png" width="11px" height="12px" preserveAspectRatio="xMinYMin meet" x="460.005" y="-938.631"/>
<text text-anchor="start" x="475.01" y="-928.18" font-family="Helvetica,sans-Serif" font-size="11.00">create_uid</text>
<polygon fill="none" stroke="black" points="455.01,-899.63 455.01,-921.63 653.01,-921.63 653.01,-899.63 455.01,-899.63"/>
<image xlink:href="../../images/foreignKeys.png" width="11px" height="12px" preserveAspectRatio="xMinYMin meet" x="460.005" y="-916.631"/>
<text text-anchor="start" x="475.01" y="-906.18" font-family="Helvetica,sans-Serif" font-size="11.00">write_uid</text>
<polygon fill="#ffffff" stroke="none" points="455.01,-877.63 455.01,-899.63 653.01,-899.63 653.01,-877.63 455.01,-877.63"/>
<polygon fill="none" stroke="black" points="455.01,-877.63 455.01,-899.63 653.01,-899.63 653.01,-877.63 455.01,-877.63"/>
<text text-anchor="start" x="475.01" y="-884.18" font-family="Helvetica,sans-Serif" font-size="11.00">name</text>
<polygon fill="#ffffff" stroke="none" points="455.01,-855.63 455.01,-877.63 653.01,-877.63 653.01,-855.63 455.01,-855.63"/>
<polygon fill="none" stroke="black" points="455.01,-855.63 455.01,-877.63 653.01,-877.63 653.01,-855.63 455.01,-855.63"/>
<text text-anchor="start" x="475.01" y="-862.18" font-family="Helvetica,sans-Serif" font-size="11.00">state</text>
<polygon fill="#ffffff" stroke="none" points="455.01,-833.63 455.01,-855.63 653.01,-855.63 653.01,-833.63 455.01,-833.63"/>
<polygon fill="none" stroke="black" points="455.01,-833.63 455.01,-855.63 653.01,-855.63 653.01,-833.63 455.01,-833.63"/>
<text text-anchor="start" x="475.01" y="-840.18" font-family="Helvetica,sans-Serif" font-size="11.00">create_date</text>
<polygon fill="#ffffff" stroke="none" points="455.01,-811.63 455.01,-833.63 653.01,-833.63 653.01,-811.63 455.01,-811.63"/>
<polygon fill="none" stroke="black" points="455.01,-811.63 455.01,-833.63 653.01,-833.63 653.01,-811.63 455.01,-811.63"/>
<text text-anchor="start" x="475.01" y="-818.18" font-family="Helvetica,sans-Serif" font-size="11.00">date_order</text>
<polygon fill="none" stroke="black" points="455.01,-789.63 455.01,-811.63 653.01,-811.63 653.01,-789.63 455.01,-789.63"/>
<image xlink:href="../../images/foreignKeys.png" width="11px" height="12px" preserveAspectRatio="xMinYMin meet" x="460.005" y="-806.631"/>
<text text-anchor="start" x="475.01" y="-796.18" font-family="Helvetica,sans-Serif" font-size="11.00">opportunity_id</text>
<polygon fill="#ffffff" stroke="none" points="455.01,-767.63 455.01,-789.63 653.01,-789.63 653.01,-767.63 455.01,-767.63"/>
<polygon fill="none" stroke="black" points="455.01,-767.63 455.01,-789.63 653.01,-789.63 653.01,-767.63 455.01,-767.63"/>
<text text-anchor="start" x="475.01" y="-774.18" font-family="Helvetica,sans-Serif" font-size="11.00">is_subscription</text>
<polygon fill="#ffffff" stroke="none" points="455.01,-745.63 455.01,-767.63 653.01,-767.63 653.01,-745.63 455.01,-745.63"/>
<polygon fill="none" stroke="black" points="455.01,-745.63 455.01,-767.63 653.01,-767.63 653.01,-745.63 455.01,-745.63"/>
<text text-anchor="start" x="475.01" y="-752.18" font-family="Helvetica,sans-Serif" font-size="11.00">subscription_state</text>
<polygon fill="#ffffff" stroke="none" points="455.01,-723.63 455.01,-745.63 653.01,-745.63 653.01,-723.63 455.01,-723.63"/>
<polygon fill="none" stroke="black" points="455.01,-723.63 455.01,-745.63 653.01,-745.63 653.01,-723.63 455.01,-723.63"/>
<image xlink:href="../../images/foreignKeys.png" width="11px" height="12px" preserveAspectRatio="xMinYMin meet" x="460.005" y="-740.631"/>
<text text-anchor="start" x="475.01" y="-730.18" font-family="Helvetica,sans-Serif" font-size="11.00">origin_order_id</text>
<polygon fill="#ffffff" stroke="none" points="455.01,-701.63 455.01,-723.63 653.01,-723.63 653.01,-701.63 455.01,-701.63"/>
<polygon fill="none" stroke="black" points="455.01,-701.63 455.01,-723.63 653.01,-723.63 653.01,-701.63 455.01,-701.63"/>
<image xlink:href="../../images/foreignKeys.png" width="11px" height="12px" preserveAspectRatio="xMinYMin meet" x="460.005" y="-718.631"/>
<text text-anchor="start" x="475.01" y="-708.18" font-family="Helvetica,sans-Serif" font-size="11.00">subscription_id</text>
<polygon fill="#ffffff" stroke="none" points="455.01,-679.63 455.01,-701.63 653.01,-701.63 653.01,-679.63 455.01,-679.63"/>
<polygon fill="none" stroke="black" points="455.01,-679.63 455.01,-701.63 653.01,-701.63 653.01,-679.63 455.01,-679.63"/>
<text text-anchor="start" x="475.01" y="-686.18" font-family="Helvetica,sans-Serif" font-size="11.00">plan_id</text>
<polygon fill="none" stroke="black" points="455.01,-657.63 455.01,-679.63 653.01,-679.63 653.01,-657.63 455.01,-657.63"/>
<image xlink:href="../../images/foreignKeys.png" width="11px" height="12px" preserveAspectRatio="xMinYMin meet" x="460.005" y="-674.631"/>
<text text-anchor="start" x="475.01" y="-664.18" font-family="Helvetica,sans-Serif" font-size="11.00">project_id</text>
<polygon fill="none" stroke="black" points="455.01,-635.63 455.01,-657.63 653.01,-657.63 653.01,-635.63 455.01,-635.63"/>
<image xlink:href="../../images/foreignKeys.png" width="11px" height="12px" preserveAspectRatio="xMinYMin meet" x="460.005" y="-652.631"/>
<text text-anchor="start" x="475.01" y="-642.18" font-family="Helvetica,sans-Serif" font-size="11.00">sale_assist_user_id</text>
<polygon fill="none" stroke="black" points="455.01,-613.63 455.01,-635.63 653.01,-635.63 653.01,-613.63 455.01,-613.63"/>
<image xlink:href="../../images/foreignKeys.png" width="11px" height="12px" preserveAspectRatio="xMinYMin meet" x="460.005" y="-630.631"/>
<text text-anchor="start" x="475.01" y="-620.18" font-family="Helvetica,sans-Serif" font-size="11.00">introduced_by_user_id</text>
<polygon fill="none" stroke="black" points="455.01,-591.63 455.01,-613.63 653.01,-613.63 653.01,-591.63 455.01,-591.63"/>
<image xlink:href="../../images/foreignKeys.png" width="11px" height="12px" preserveAspectRatio="xMinYMin meet" x="460.005" y="-608.631"/>
<text text-anchor="start" x="475.01" y="-598.18" font-family="Helvetica,sans-Serif" font-size="11.00">citizen_id</text>
<polygon fill="none" stroke="black" points="455.01,-569.63 455.01,-591.63 653.01,-591.63 653.01,-569.63 455.01,-569.63"/>
<image xlink:href="../../images/foreignKeys.png" width="11px" height="12px" preserveAspectRatio="xMinYMin meet" x="460.005" y="-586.631"/>
<text text-anchor="start" x="475.01" y="-576.18" font-family="Helvetica,sans-Serif" font-size="11.00">project_campaign_id</text>
<polygon fill="none" stroke="black" points="455.01,-550.63 455.01,-569.63 653.01,-569.63 653.01,-550.63 455.01,-550.63"/>
<text text-anchor="start" x="458.01" y="-556.18" font-family="Helvetica,sans-Serif" font-size="11.00">...</text>
<polygon fill="#ffffff" stroke="none" points="455.01,-531.63 455.01,-550.63 551.01,-550.63 551.01,-531.63 455.01,-531.63"/>
<polygon fill="none" stroke="black" points="455.01,-531.63 455.01,-550.63 551.01,-550.63 551.01,-531.63 455.01,-531.63"/>
<text text-anchor="start" x="458.01" y="-537.18" font-family="Helvetica,sans-Serif" font-size="11.00">&lt; 17</text>
<polygon fill="#ffffff" stroke="none" points="551.01,-531.63 551.01,-550.63 597.01,-550.63 597.01,-531.63 551.01,-531.63"/>
<polygon fill="none" stroke="black" points="551.01,-531.63 551.01,-550.63 597.01,-550.63 597.01,-531.63 551.01,-531.63"/>
<text text-anchor="start" x="588.01" y="-537.18" font-family="Helvetica,sans-Serif" font-size="11.00"> &#160;</text>
<polygon fill="#ffffff" stroke="none" points="597.01,-531.63 597.01,-550.63 653.01,-550.63 653.01,-531.63 597.01,-531.63"/>
<polygon fill="none" stroke="black" points="597.01,-531.63 597.01,-550.63 653.01,-550.63 653.01,-531.63 597.01,-531.63"/>
<text text-anchor="start" x="634.26" y="-537.18" font-family="Helvetica,sans-Serif" font-size="11.00">5 &gt;</text>
</a>
</g>
</g>
<!-- sale_order_line&#45;&gt;sale_order -->
<g id="edge29" class="edge">
<title>sale_order_line:w&#45;&gt;sale_order:e</title>
<path fill="none" stroke="black" d="M902.28,-1120.38C884.14,-1134.96 905.45,-1183.12 875.01,-1202.13 806.77,-1244.74 763.4,-1242.82 694.01,-1202.13 662.59,-1183.71 690.42,-1130.63 654.01,-1130.63"/>
<polygon fill="black" stroke="black" points="909,-1118.44 917.68,-1119.68 913.16,-1117.24 916.36,-1116.32 916.36,-1116.32 916.36,-1116.32 913.16,-1117.24 915.69,-1112.76 909,-1118.44"/>
<ellipse fill="none" stroke="black" cx="904.27" cy="-1119.81" rx="3.2" ry="3.2"/>
</g>
<!-- project_task&#45;&gt;project_project -->
<g id="edge8" class="edge">
<title>project_task:w&#45;&gt;project_project:e</title>
<path fill="none" stroke="black" d="M686.33,-1118.15C669.08,-1131.97 680.92,-1174.03 702.01,-1195.63 743.38,-1238.01 1184.34,-1233.8 1235.01,-1203.13 1507.52,-1038.18 1477.12,-748.63 1454.01,-748.63"/>
<polygon fill="black" stroke="black" points="693.04,-1116.08 701.74,-1117.17 697.18,-1114.81 700.37,-1113.83 700.37,-1113.83 700.37,-1113.83 697.18,-1114.81 699.63,-1110.29 693.04,-1116.08"/>
<ellipse fill="none" stroke="black" cx="688.34" cy="-1117.53" rx="3.2" ry="3.2"/>
</g>
<!-- project_task&#45;&gt;res_users -->
<g id="edge6" class="edge">
<title>project_task:w&#45;&gt;res_users:e</title>
<path fill="none" stroke="black" d="M688.89,-1015.87C653.93,-948.64 698.76,-556.01 661.01,-521.13 626.07,-488.86 486.02,-493.93 447.01,-521.13 404.84,-550.52 458.4,-629.63 407.01,-629.63"/>
<polygon fill="black" stroke="black" points="694.52,-1020.4 698.49,-1028.22 697.89,-1023.12 700.48,-1025.21 700.48,-1025.21 700.48,-1025.21 697.89,-1023.12 703,-1022.62 694.52,-1020.4"/>
<ellipse fill="none" stroke="black" cx="690.69" cy="-1017.31" rx="3.2" ry="3.2"/>
</g>
<!-- project_task&#45;&gt;res_users -->
<g id="edge11" class="edge">
<title>project_task:w&#45;&gt;res_users:e</title>
<path fill="none" stroke="black" d="M688.8,-993.79C653.61,-926.03 699.05,-530.3 661.01,-495.13 626.08,-462.85 485.12,-466.7 447.01,-495.13 397.01,-532.42 469.37,-629.63 407.01,-629.63"/>
<polygon fill="black" stroke="black" points="694.52,-998.4 698.48,-1006.22 697.89,-1001.12 700.48,-1003.21 700.48,-1003.21 700.48,-1003.21 697.89,-1001.12 703,-1000.62 694.52,-998.4"/>
<ellipse fill="none" stroke="black" cx="690.69" cy="-995.31" rx="3.2" ry="3.2"/>
</g>
<!-- project_task&#45;&gt;res_partner -->
<g id="edge7" class="edge">
<title>project_task:w&#45;&gt;res_partner:e</title>
<path fill="none" stroke="black" d="M686.33,-1096.16C669.75,-1110.77 690.11,-1156.8 661.01,-1175.13 580.52,-1225.82 539.23,-1198.37 447.01,-1175.13 350.59,-1150.84 317.99,-1141.68 250.01,-1069.13 220.77,-1037.93 252.76,-981.63 210.01,-981.63"/>
<polygon fill="black" stroke="black" points="693.04,-1094.09 701.75,-1095.17 697.18,-1092.81 700.37,-1091.83 700.37,-1091.83 700.37,-1091.83 697.18,-1092.81 699.62,-1088.29 693.04,-1094.09"/>
<ellipse fill="none" stroke="black" cx="688.34" cy="-1095.53" rx="3.2" ry="3.2"/>
</g>
<!-- project_task&#45;&gt;sale_order_line -->
<g id="edge9" class="edge">
<title>project_task:w&#45;&gt;sale_order_line:e</title>
<path fill="none" stroke="black" d="M687.72,-797.46C682.84,-785.72 690.18,-764.23 702.01,-752.63 756.88,-698.78 804.72,-721.45 875.01,-752.63 888.21,-758.49 1238.45,-1138.13 1224.01,-1138.13"/>
<polygon fill="black" stroke="black" points="693.91,-801.26 698.83,-808.52 697.6,-803.54 700.44,-805.28 700.44,-805.28 700.44,-805.28 697.6,-803.54 702.61,-802.39 693.91,-801.26"/>
<ellipse fill="none" stroke="black" cx="689.72" cy="-798.69" rx="3.2" ry="3.2"/>
</g>
<!-- project_task&#45;&gt;sale_order -->
<g id="edge10" class="edge">
<title>project_task:w&#45;&gt;sale_order:e</title>
<path fill="none" stroke="black" d="M685.38,-829.26C583.44,-853.11 784.43,-1130.63 654.01,-1130.63"/>
<polygon fill="black" stroke="black" points="692.72,-828.5 701.05,-831.25 697.03,-828.05 700.34,-827.7 700.34,-827.7 700.34,-827.7 697.03,-828.05 700.3,-824.08 692.72,-828.5"/>
<ellipse fill="none" stroke="black" cx="687.82" cy="-829.01" rx="3.2" ry="3.2"/>
</g>
<!-- sale_order&#45;&gt;project_project -->
<g id="edge24" class="edge">
<title>sale_order:w&#45;&gt;project_project:e</title>
<path fill="none" stroke="black" d="M441.37,-659.19C426.5,-630.61 436.59,-545.91 455.01,-527.63 463.13,-519.57 652.72,-519.74 661.01,-527.63 715.34,-579.38 642.39,-1147.67 694.01,-1202.13 776.78,-1289.46 1132.7,-1287.46 1235.01,-1224.13 1522.33,-1046.28 1477.36,-748.63 1454.01,-748.63"/>
<polygon fill="black" stroke="black" points="447.33,-663.64 451.58,-671.31 450.8,-666.24 453.47,-668.23 453.47,-668.23 453.47,-668.23 450.8,-666.24 455.89,-665.55 447.33,-663.64"/>
<ellipse fill="none" stroke="black" cx="443.39" cy="-660.7" rx="3.2" ry="3.2"/>
</g>
<!-- sale_order&#45;&gt;res_users -->
<g id="edge19" class="edge">
<title>sale_order:w&#45;&gt;res_users:e</title>
<path fill="none" stroke="black" d="M439.73,-926.3C400.05,-882.79 469.29,-629.63 407.01,-629.63"/>
<polygon fill="black" stroke="black" points="446.39,-929.25 452.24,-935.79 450.35,-931.01 453.39,-932.36 453.39,-932.36 453.39,-932.36 450.35,-931.01 455.16,-929.2 446.39,-929.25"/>
<ellipse fill="none" stroke="black" cx="441.89" cy="-927.26" rx="3.2" ry="3.2"/>
</g>
<!-- sale_order&#45;&gt;res_users -->
<g id="edge20" class="edge">
<title>sale_order:w&#45;&gt;res_users:e</title>
<path fill="none" stroke="black" d="M438.36,-625.74C428.47,-627.21 421.61,-629.63 407.01,-629.63"/>
<polygon fill="black" stroke="black" points="445.69,-625.22 453.93,-628.25 450.02,-624.91 453.34,-624.68 453.34,-624.68 453.34,-624.68 450.02,-624.91 453.42,-621.06 445.69,-625.22"/>
<ellipse fill="none" stroke="black" cx="440.79" cy="-625.57" rx="3.2" ry="3.2"/>
</g>
<!-- sale_order&#45;&gt;res_users -->
<g id="edge25" class="edge">
<title>sale_order:w&#45;&gt;res_users:e</title>
<path fill="none" stroke="black" d="M438.72,-643.19C428.66,-638.22 422.8,-629.63 407.01,-629.63"/>
<polygon fill="black" stroke="black" points="445.87,-644.8 452.89,-650.07 450.1,-645.75 453.35,-646.48 453.35,-646.48 453.35,-646.48 450.1,-645.75 454.47,-643.04 445.87,-644.8"/>
<ellipse fill="none" stroke="black" cx="441.08" cy="-643.72" rx="3.2" ry="3.2"/>
</g>
<!-- sale_order&#45;&gt;res_users -->
<g id="edge26" class="edge">
<title>sale_order:w&#45;&gt;res_users:e</title>
<path fill="none" stroke="black" d="M439.3,-970.9C391.66,-925.78 478.89,-629.63 407.01,-629.63"/>
<polygon fill="black" stroke="black" points="446.24,-973.6 452.39,-979.86 450.28,-975.18 453.38,-976.39 453.38,-976.39 453.38,-976.39 450.28,-975.18 455,-973.16 446.24,-973.6"/>
<ellipse fill="none" stroke="black" cx="441.66" cy="-971.82" rx="3.2" ry="3.2"/>
</g>
<!-- sale_order&#45;&gt;res_users -->
<g id="edge27" class="edge">
<title>sale_order:w&#45;&gt;res_users:e</title>
<path fill="none" stroke="black" d="M439.96,-903.96C404.11,-861.41 464.51,-629.63 407.01,-629.63"/>
<polygon fill="black" stroke="black" points="446.48,-907.06 452.16,-913.74 450.39,-908.91 453.4,-910.34 453.4,-910.34 453.4,-910.34 450.39,-908.91 455.25,-907.24 446.48,-907.06"/>
<ellipse fill="none" stroke="black" cx="442.03" cy="-904.95" rx="3.2" ry="3.2"/>
</g>
<!-- sale_order&#45;&gt;res_partner -->
<g id="edge18" class="edge">
<title>sale_order:w&#45;&gt;res_partner:e</title>
<path fill="none" stroke="black" d="M438.89,-606.26C422.01,-616.85 429.56,-648.63 414.01,-674.13 328.57,-814.13 374.01,-981.63 210.01,-981.63"/>
<polygon fill="black" stroke="black" points="445.9,-604.58 454.52,-606.21 450.12,-603.56 453.35,-602.79 453.35,-602.79 453.35,-602.79 450.12,-603.56 452.84,-599.21 445.9,-604.58"/>
<ellipse fill="none" stroke="black" cx="441.12" cy="-605.72" rx="3.2" ry="3.2"/>
</g>
<!-- sale_order&#45;&gt;res_partner -->
<g id="edge21" class="edge">
<title>sale_order:w&#45;&gt;res_partner:e</title>
<path fill="none" stroke="black" d="M438.4,-1086.6C356.43,-1086.25 323.72,-1081.79 250.01,-1033.13 225.82,-1017.16 238.99,-981.63 210.01,-981.63"/>
<polygon fill="black" stroke="black" points="445.67,-1086.62 453.66,-1090.23 450.01,-1086.62 453.34,-1086.63 453.34,-1086.63 453.34,-1086.63 450.01,-1086.62 453.68,-1083.03 445.67,-1086.62"/>
<ellipse fill="none" stroke="black" cx="440.75" cy="-1086.61" rx="3.2" ry="3.2"/>
</g>
<!-- sale_order&#45;&gt;res_partner -->
<g id="edge22" class="edge">
<title>sale_order:w&#45;&gt;res_partner:e</title>
<path fill="none" stroke="black" d="M438.32,-1040.98C431.02,-1039.25 425.27,-1036.46 414.01,-1034.13 341.2,-1019.07 320.44,-1024.95 250.01,-1001.13 231.27,-994.8 229.78,-981.63 210.01,-981.63"/>
<polygon fill="black" stroke="black" points="445.72,-1041.76 453.29,-1046.18 450.03,-1042.21 453.34,-1042.56 453.34,-1042.56 453.34,-1042.56 450.03,-1042.21 454.05,-1039.02 445.72,-1041.76"/>
<ellipse fill="none" stroke="black" cx="440.83" cy="-1041.24" rx="3.2" ry="3.2"/>
</g>
<!-- sale_order&#45;&gt;res_partner -->
<g id="edge23" class="edge">
<title>sale_order:w&#45;&gt;res_partner:e</title>
<path fill="none" stroke="black" d="M438.77,-1016.78C431.32,-1012.43 426.4,-1005.52 414.01,-1002.13 326.1,-978.12 301.13,-981.63 210.01,-981.63"/>
<polygon fill="black" stroke="black" points="445.93,-1018.59 452.8,-1024.04 450.13,-1019.65 453.36,-1020.47 453.36,-1020.47 453.36,-1020.47 450.13,-1019.65 454.56,-1017.06 445.93,-1018.59"/>
<ellipse fill="none" stroke="black" cx="441.16" cy="-1017.38" rx="3.2" ry="3.2"/>
</g>
</g>
</svg>
